  0
SECTION
  2
HEADER
  9
$ACADVER
  1
AC1014
  9
$ACADMAINTVER
 70
     0
  9
$DWGCODEPAGE
  3
ANSI_1252
  9
$INSBASE
 10
0.0
 20
0.0
 30
0.0
  9
$EXTMIN
 10
0.0
 20
0.0
 30
0.0
  9
$EXTMAX
 10
146.900269
 20
221.408035
 30
2.0
  9
$LIMMIN
 10
0.0
 20
0.0
  9
$LIMMAX
 10
420.0
 20
297.0
  9
$ORTHOMODE
 70
     0
  9
$REGENMODE
 70
     1
  9
$FILLMODE
 70
     1
  9
$QTEXTMODE
 70
     0
  9
$MIRRTEXT
 70
     1
  9
$DRAGMODE
 70
     2
  9
$LTSCALE
 40
1.0
  9
$OSMODE
 70
     0
  9
$ATTMODE
 70
     1
  9
$TEXTSIZE
 40
2.5
  9
$TRACEWID
 40
1.0
  9
$TEXTSTYLE
  7
STANDARD
  9
$CLAYER
  8
0
  9
$CELTYPE
  6
BYLAYER
  9
$CECOLOR
 62
   256
  9
$CELTSCALE
 40
1.0
  9
$DELOBJ
 70
     1
  9
$DISPSILH
 70
     0
  9
$DIMSCALE
 40
1.0
  9
$DIMASZ
 40
2.5
  9
$DIMEXO
 40
0.625
  9
$DIMDLI
 40
3.75
  9
$DIMRND
 40
0.0
  9
$DIMDLE
 40
0.0
  9
$DIMEXE
 40
1.25
  9
$DIMTP
 40
0.0
  9
$DIMTM
 40
0.0
  9
$DIMTXT
 40
2.5
  9
$DIMCEN
 40
2.5
  9
$DIMTSZ
 40
0.0
  9
$DIMTOL
 70
     0
  9
$DIMLIM
 70
     0
  9
$DIMTIH
 70
     0
  9
$DIMTOH
 70
     0
  9
$DIMSE1
 70
     0
  9
$DIMSE2
 70
     0
  9
$DIMTAD
 70
     1
  9
$DIMZIN
 70
     8
  9
$DIMBLK
  1

  9
$DIMASO
 70
     1
  9
$DIMSHO
 70
     1
  9
$DIMPOST
  1

  9
$DIMAPOST
  1

  9
$DIMALT
 70
     0
  9
$DIMALTD
 70
     3
  9
$DIMALTF
 40
0.03937
  9
$DIMLFAC
 40
1.0
  9
$DIMTOFL
 70
     1
  9
$DIMTVP
 40
0.0
  9
$DIMTIX
 70
     0
  9
$DIMSOXD
 70
     0
  9
$DIMSAH
 70
     0
  9
$DIMBLK1
  1

  9
$DIMBLK2
  1

  9
$DIMSTYLE
  2

  9
$DIMCLRD
 70
     0
  9
$DIMCLRE
 70
     0
  9
$DIMCLRT
 70
     0
  9
$DIMTFAC
 40
1.0
  9
$DIMGAP
 40
0.625
  9
$DIMJUST
 70
     0
  9
$DIMSD1
 70
     0
  9
$DIMSD2
 70
     0
  9
$DIMTOLJ
 70
     0
  9
$DIMTZIN
 70
     8
  9
$DIMALTZ
 70
     0
  9
$DIMALTTZ
 70
     0
  9
$DIMFIT
 70
     0
  9
$DIMUPT
 70
     0
  9
$DIMUNIT
 70
     2
  9
$DIMDEC
 70
     2
  9
$DIMTDEC
 70
     2
  9
$DIMALTU
 70
     2
  9
$DIMALTTD
 70
     3
  9
$DIMTXSTY
  7
STANDARD
  9
$DIMAUNIT
 70
     0
  9
$LUNITS
 70
     2
  9
$LUPREC
 70
     4
  9
$SKETCHINC
 40
1.0
  9
$FILLETRAD
 40
2.5
  9
$AUNITS
 70
     0
  9
$AUPREC
 70
     0
  9
$MENU
  1
.
  9
$ELEVATION
 40
0.0
  9
$PELEVATION
 40
0.0
  9
$THICKNESS
 40
0.0
  9
$LIMCHECK
 70
     0
  9
$BLIPMODE
 70
     1
  9
$CHAMFERA
 40
2.5
  9
$CHAMFERB
 40
2.5
  9
$CHAMFERC
 40
0.0
  9
$CHAMFERD
 40
0.0
  9
$SKPOLY
 70
     0
  9
$TDCREATE
 40
0.000000000
  9
$TDUPDATE
 40
0.000000000
  9
$TDINDWG
 40
0.0000000000
  9
$TDUSRTIMER
 40
0.0000000000
  9
$USRTIMER
 70
     1
  9
$ANGBASE
 50
0.0
  9
$ANGDIR
 70
     0
  9
$PDMODE
 70
     0
  9
$PDSIZE
 40
0.0
  9
$PLINEWID
 40
0.0
  9
$COORDS
 70
     0
  9
$SPLFRAME
 70
     0
  9
$SPLINETYPE
 70
     6
  9
$SPLINESEGS
 70
     8
  9
$ATTDIA
 70
     0
  9
$ATTREQ
 70
     1
  9
$HANDLING
 70
     1
  9
$HANDSEED
  5
80
  9
$SURFTAB1
 70
     6
  9
$SURFTAB2
 70
     6
  9
$SURFTYPE
 70
     6
  9
$SURFU
 70
     6
  9
$SURFV
 70
     6
  9
$UCSNAME
  2

  9
$UCSORG
 10
0.0
 20
0.0
 30
0.0
  9
$UCSXDIR
 10
1.0
 20
0.0
 30
0.0
  9
$UCSYDIR
 10
0.0
 20
1.0
 30
0.0
  9
$PUCSNAME
  2

  9
$PUCSORG
 10
0.0
 20
0.0
 30
0.0
  9
$PUCSXDIR
 10
1.0
 20
0.0
 30
0.0
  9
$PUCSYDIR
 10
0.0
 20
1.0
 30
0.0
  9
$USERI1
 70
     0
  9
$USERI2
 70
     0
  9
$USERI3
 70
     0
  9
$USERI4
 70
     0
  9
$USERI5
 70
     0
  9
$USERR1
 40
0.0
  9
$USERR2
 40
0.0
  9
$USERR3
 40
0.0
  9
$USERR4
 40
0.0
  9
$USERR5
 40
0.0
  9
$WORLDVIEW
 70
     1
  9
$SHADEDGE
 70
     3
  9
$SHADEDIF
 70
    70
  9
$TILEMODE
 70
     1
  9
$MAXACTVP
 70
    48
  9
$PINSBASE
 10
0.0
 20
0.0
 30
0.0
  9
$PLIMCHECK
 70
     0
  9
$PEXTMIN
 10
0.0
 20
0.0
 30
0.0
  9
$PEXTMAX
 10
146.900269
 20
221.408035
 30
2.0
  9
$PLIMMIN
 10
0.0
 20
0.0
  9
$PLIMMAX
 10
420.0
 20
297.0
  9
$UNITMODE
 70
     0
  9
$VISRETAIN
 70
     0
  9
$PLINEGEN
 70
     0
  9
$PSLTSCALE
 70
     1
  9
$TREEDEPTH
 70
  3020
  9
$PICKSTYLE
 70
     1
  9
$CMLSTYLE
  2
STANDARD
  9
$CMLJUST
 70
     0
  9
$CMLSCALE
 40
20.0
  9
$PROXYGRAPHICS
 70
     1
  9
$MEASUREMENT
 70
     1
  0
ENDSEC
  0
SECTION
  2
CLASSES
  0
CLASS
  1
LWPOLYLINE
  2
AcDbPolyline
  3
"AutoCAD"
 90
        0
280
     0
281
     1
  0
CLASS
  1
IMAGE
  2
AcDbRasterImage
  3
ISM
 90
      127
280
     0
281
     1
  0
CLASS
  1
OLE2FRAME
  2
AcDbOle2Frame
  3
""
 90
        0
280
     0
281
     1
  0
CLASS
  1
HATCH
  2
AcDbHatch
  3
"ACAD_SEDONA"
 90
        0
280
     0
281
     1
  0
CLASS
  1
DICTIONARYVAR
  2
AcDbDictionaryVar
  3
"AutoCAD"
 90
        0
280
     0
281
     0
  0
CLASS
  1
RASTERVARIABLES
  2
AcDbRasterVariables
  3
ISM
 90
        0
280
     0
281
     0
  0
CLASS
  1
IMAGEDEF
  2
AcDbRasterImageDef
  3
ISM
 90
        0
280
     0
281
     0
  0
CLASS
  1
IMAGEDEF_REACTOR
  2
AcDbRasterImageDefReactor
  3
ISM
 90
        1
280
     0
281
     0
  0
CLASS
  1
IDBUFFER
  2
AcDbIdBuffer
  3
"Acad"
 90
        0
280
     0
281
     0
  0
CLASS
  1
SPATIAL_FILTER
  2
AcDbSpatialFilter
  3
"Acad"
 90
        0
280
     0
281
     0
  0
CLASS
  1
XRECORD
  2
AcDbXrecord
  3
"<Built In>"
 90
        0
280
     0
281
     0
  0
CLASS
  1
SORTENTSTABLE
  2
AcDbSortentsTable
  3
"AutoCAD"
 90
        0
280
     0
281
     0
  0
CLASS
  1
LAYER_INDEX
  2
AcDbLayerIndex
  3
"Acad"
 90
        0
280
     0
281
     0
  0
CLASS
  1
SPATIAL_INDEX
  2
AcDbSpatialIndex
  3
"Acad"
 90
        0
280
     0
281
     0
  0
CLASS
  1
OBJECT_PTR
  2
CAseDLPNTableRecord
  3
"ASE-LPNTableRecord"
 90
        1
280
     0
281
     0
  0
CLASS
  1
LAYOUT
  2
AcDbLayout
  3
"AutoCAD 2000"
 90
        0
280
     0
281
     0
  0
CLASS
  1
PLOTSETTINGS
  2
AcDbPlotSettings
  3
"AutoCAD 2000"
 90
        0
280
     0
281
     0
  0
CLASS
  1
ACDBDICTIONARYWDFLT
  2
AcDbDictionaryWithDefault
  3
"AutoCAD 2000"
 90
        0
280
     0
281
     0
  0
CLASS
  1
ACDBPLACEHOLDER
  2
AcDbPlaceHolder
  3
"AutoCAD 2000"
 90
        0
280
     0
281
     0
  0
CLASS
  1
VBA_PROJECT
  2
AcDbVbaProject
  3
"acadvba"
 90
        0
280
     0
281
     0
  0
CLASS
  1
WIPEOUT
  2
AcDbWipeout
  3
WipeOut|AutoCAD Express Tool|expresstools@autodesk.com
 90
      127
280
     0
281
     1
  0
CLASS
  1
WIPEOUTVARIABLES
  2
AcDbWipeoutVariables
  3
WipeOut|AutoCAD Express Tool|expresstools@autodesk.com
 90
        0
280
     0
281
     0
  0
CLASS
  1
RTEXT
  2
RText
  3
RText|AutoCAD Express Tool|expresstools@autodesk.com
 90
        0
280
     0
281
     1
  0
CLASS
  1
ARCALIGNEDTEXT
  2
AcDbArcAlignedText
  3
ATEXT|AutoCAD Express Tool|expresstools@autodesk.com
 90
        0
280
     0
281
     1
  0
ENDSEC
  0
SECTION
  2
TABLES
  0
TABLE
  2
VPORT
  5
7
100
AcDbSymbolTable
 70
     1
  0
VPORT
  5
15
100
AcDbSymbolTableRecord
100
AcDbViewportTableRecord
  2
*ACTIVE
 70
     0
 10
0.0
 20
0.0
 11
1.0
 21
1.0
 12
6.591288
 22
4.579184
 13
0.0
 23
0.0
 14
1.0
 24
1.0
 15
0.0
 25
0.0
 16
0.0
 26
0.0
 36
1.0
 17
0.0
 27
0.0
 37
0.0
 40
9.158369
 41
0.688564
 42
50.0
 43
0.0
 44
0.0
 50
0.0
 51
0.0
 71
     0
 72
   100
 73
     1
 74
     1
 75
     0
 76
     0
 77
     0
 78
     0
  0
ENDTAB
  0
TABLE
  2
LTYPE
  5
4
100
AcDbSymbolTable
 70
    10
  0
LTYPE
  5
11
100
AcDbSymbolTableRecord
100
AcDbLinetypeTableRecord
  2
BYBLOCK
 70
    64
  3

 72
    65
 73
     0
 40
0.0
  0
LTYPE
  5
12
100
AcDbSymbolTableRecord
100
AcDbLinetypeTableRecord
  2
BYLAYER
 70
    64
  3

 72
    65
 73
     0
 40
0.0
  0
LTYPE
  5
13
100
AcDbSymbolTableRecord
100
AcDbLinetypeTableRecord
  2
CONTINUOUS
 70
    64
  3
Solid line
 72
    65
 73
     0
 40
0.0
  0
LTYPE
  5
1D
100
AcDbSymbolTableRecord
100
AcDbLinetypeTableRecord
  2
DASHED
 70
     0
  3
__ __ __ __ __ __ __ __ __ __ __ __ __ __ __ __
 72
    65
 73
     2
 40
15.0
 49
12.0
 74
     0
 49
-3.0
 74
     0
  0
LTYPE
  5
1E
100
AcDbSymbolTableRecord
100
AcDbLinetypeTableRecord
  2
DASHDOT
 70
     0
  3
 __ . __ . __ . __ . __ . __ . __ . 
 72
    65
 73
     4
 40
18.5
 49
12.0
 74
     0
 49
-3.0
 74
     0
 49
0.5
 74
     0
 49
-3.0
 74
     0
  0
LTYPE
  5
1F
100
AcDbSymbolTableRecord
100
AcDbLinetypeTableRecord
  2
DOT
 70
     0
  3
 . . . . . . . . . . . . . . . .
 72
    65
 73
     2
 40
3.5
 49
0.5
 74
     0
 49
-3.0
 74
     0
  0
LTYPE
  5
20
100
AcDbSymbolTableRecord
100
AcDbLinetypeTableRecord
  2
DASHSPACE
 70
     0
  3
__    __    __    __    __   
 72
    65
 73
     2
 40
30.0
 49
12.0
 74
     0
 49
-18.0
 74
     0
  0
LTYPE
  5
21
100
AcDbSymbolTableRecord
100
AcDbLinetypeTableRecord
  2
DASHDOT2
 70
     0
  3
__ . . __ . . __ . . __ 
 72
    65
 73
     6
 40
22.0
 49
12.0
 74
     0
 49
-3.0
 74
     0
 49
0.5
 74
     0
 49
-3.0
 74
     0
 49
0.5
 74
     0
 49
-3.0
 74
     0
  0
LTYPE
  5
22
100
AcDbSymbolTableRecord
100
AcDbLinetypeTableRecord
  2
PHANTOM
 70
     0
  3
____________    ____    ____   _
 72
    65
 73
     6
 40
20.0
 49
10.0
 74
     0
 49
-2.0
 74
     0
 49
2.0
 74
     0
 49
-2.0
 74
     0
 49
2.0
 74
     0
 49
-2.0
 74
     0
  0
LTYPE
  5
23
100
AcDbSymbolTableRecord
100
AcDbLinetypeTableRecord
  2
AXES
 70
     0
  3
________  __  ________  __  _____
 72
    65
 73
     4
 40
24.0
 49
15.0
 74
     0
 49
-3.0
 74
     0
 49
3.0
 74
     0
 49
-3.0
 74
     0
  0
ENDTAB
  0
TABLE
  2
LAYER
  5
2
100
AcDbSymbolTable
 70
     1
  0
LAYER
  5
14
100
AcDbSymbolTableRecord
100
AcDbLayerTableRecord
  2
0
 70
     0
 62
     7
  6
CONTINUOUS
  0
ENDTAB
  0
TABLE
  2
STYLE
  5
3
100
AcDbSymbolTable
 70
     1
  0
STYLE
  5
17
100
AcDbSymbolTableRecord
100
AcDbTextStyleTableRecord
  2
STANDARD
 70
     0
 40
0.0
 41
1.0
 50
0.0
 71
     0
 42
0.0
  3
txt
  4

  0
ENDTAB
  0
TABLE
  2
VIEW
  5
5
100
AcDbSymbolTable
 70
     0
  0
ENDTAB
  0
TABLE
  2
UCS
  5
6
100
AcDbSymbolTable
 70
     0
  0
ENDTAB
  0
TABLE
  2
APPID
  5
8
100
AcDbSymbolTable
 70
     1
  0
APPID
  5
16
100
AcDbSymbolTableRecord
100
AcDbRegAppTableRecord
  2
ACAD
 70
     0
  0
ENDTAB
  0
TABLE
  2
DIMSTYLE
  5
9
100
AcDbSymbolTable
 70
     1
  0
DIMSTYLE
105
18
100
AcDbSymbolTableRecord
100
AcDbDimStyleTableRecord
  2
STANDARD
 70
     0
  3

  4

  5

  6

  7

 40
1.0
 41
0.18
 42
0.0625
 43
0.38
 44
0.18
 45
0.0
 46
0.0
 47
0.0
 48
0.0
 71
     0
 72
     0
 73
     1
 74
     1
 75
     0
 76
     0
 77
     0
 78
     0
140
0.18
141
0.09
142
0.0
143
25.4
144
1.0
145
0.0
146
1.0
147
0.09
170
     0
171
     2
172
     0
173
     0
174
     0
175
     0
176
     0
177
     0
178
     0
270
     2
271
     4
272
     4
273
     2
274
     2
275
     0
280
     0
281
     0
282
     0
283
     1
284
     0
285
     0
286
     0
287
     3
288
     0
340
17
  0
ENDTAB
  0
TABLE
  2
BLOCK_RECORD
  5
1
100
AcDbSymbolTable
 70
     0
  0
BLOCK_RECORD
  5
A
100
AcDbSymbolTableRecord
100
AcDbBlockTableRecord
  2
*MODEL_SPACE
  0
BLOCK_RECORD
  5
B
100
AcDbSymbolTableRecord
100
AcDbBlockTableRecord
  2
*PAPER_SPACE
  0
ENDTAB
  0
ENDSEC
  0
SECTION
  2
BLOCKS
  0
BLOCK
  5
D
100
AcDbEntity
  8
0
100
AcDbBlockBegin
  2
*MODEL_SPACE
 70
     0
 10
0.0
 20
0.0
 30
0.0
  3
*MODEL_SPACE
  1

  0
ENDBLK
  5
E
100
AcDbEntity
  8
0
100
AcDbBlockEnd
  0
BLOCK
  5
F
100
AcDbEntity
 67
     1
  8
0
100
AcDbBlockBegin
  2
*PAPER_SPACE
 70
     0
 10
0.0
 20
0.0
 30
0.0
  3
*PAPER_SPACE
  1

  0
ENDBLK
  5
10
100
AcDbEntity
 67
     1
  8
0
100
AcDbBlockEnd
  0
ENDSEC
  0
SECTION
  2
ENTITIES
  0
VIEWPORT
  5
7F
100
AcDbEntity
 67
     1
  8
0
 62
     0
 48
0.0
100
AcDbViewport
 10
0.0
 20
0.0
 30
0.0
 40
1000.0
 41
1000.0
 68
     1
 69
     1
1001
ACAD
1000
MVIEW
1002
{
1070
    16
1010
0.0
1020
0.0
1030
0.0
1010
0.0
1020
0.0
1030
1.0
1040
0.0
1040
1000.0
1040
0.0
1040
0.0
1040
50.0
1040
0.0
1040
0.0
1070
     0
1070
   100
1070
     1
1070
     1
1070
     0
1070
     0
1070
     0
1070
     0
1040
0.0
1040
0.0
1040
0.0
1040
1.0
1040
1.0
1040
1.0
1040
1.0
1070
     0
1002
{
1002
}
1002
}
  0
CIRCLE
  5
24
100
AcDbEntity
  8
0
 62
     7
100
AcDbCircle
 10
40.43594
 20
160.451202
 30
0.0
 40
1.75
210
0.0
220
0.0
230
1.0
  0
ARC
  5
25
100
AcDbEntity
  8
0
 62
     7
100
AcDbCircle
 10
40.43594
 20
187.951202
 30
0.0
 40
33.5
210
0.0
220
0.0
230
1.0
100
AcDbArc
 50
92.908796
 51
207.091199
  0
LINE
  5
26
100
AcDbEntity
  8
0
 62
     7
 48
0.073921
100
AcDbLine
 10
14.872166
 20
171.228958
 30
0.0
 11
12.311468
 21
169.750534
 31
0.0
210
0.0
220
0.0
230
1.0
  0
ARC
  5
27
100
AcDbEntity
  8
0
 62
     7
100
AcDbCircle
 10
40.43594
 20
187.951202
 30
0.0
 40
33.5
210
0.0
220
0.0
230
1.0
100
AcDbArc
 50
212.908799
 51
327.091201
  0
LINE
  5
28
100
AcDbEntity
  8
0
 62
     7
 48
0.073921
100
AcDbLine
 10
67.699715
 20
174.173447
 30
0.0
 11
70.260414
 21
172.695023
 31
0.0
210
0.0
220
0.0
230
1.0
  0
ARC
  5
29
100
AcDbEntity
  8
0
 62
     7
100
AcDbCircle
 10
40.43594
 20
187.951202
 30
0.0
 40
33.5
210
0.0
220
0.0
230
1.0
100
AcDbArc
 50
332.908802
 51
87.091206
  0
LINE
  5
2A
100
AcDbEntity
  8
0
 62
     7
 48
0.073921
100
AcDbLine
 10
38.735939
 20
218.451202
 30
0.0
 11
38.735939
 21
221.408035
 31
0.0
210
0.0
220
0.0
230
1.0
  0
ARC
  5
2B
100
AcDbEntity
  8
0
 62
     7
100
AcDbCircle
 10
15.925793
 20
194.987015
 30
0.0
 40
2.0
210
0.0
220
0.0
230
1.0
100
AcDbArc
 50
84.094894
 51
163.983484
  0
ARC
  5
2C
100
AcDbEntity
  8
0
 62
     7
100
AcDbCircle
 10
16.620241
 20
201.701202
 30
0.0
 40
4.75
210
0.0
220
0.0
230
1.0
100
AcDbArc
 50
264.094892
 51
35.905111
  0
ARC
  5
2D
100
AcDbEntity
  8
0
 62
     7
100
AcDbCircle
 10
22.087669
 20
205.659698
 30
0.0
 40
2.0
210
0.0
220
0.0
230
1.0
100
AcDbArc
 50
136.016511
 51
215.905106
  0
ARC
  5
2E
100
AcDbEntity
  8
0
 62
     7
100
AcDbCircle
 10
58.78421
 20
205.659698
 30
0.0
 40
2.0
210
0.0
220
0.0
230
1.0
100
AcDbArc
 50
324.094906
 51
43.983479
  0
ARC
  5
2F
100
AcDbEntity
  8
0
 62
     7
100
AcDbCircle
 10
64.25164
 20
201.701202
 30
0.0
 40
4.75
210
0.0
220
0.0
230
1.0
100
AcDbArc
 50
144.094901
 51
275.905109
  0
ARC
  5
30
100
AcDbEntity
  8
0
 62
     7
100
AcDbCircle
 10
64.946091
 20
194.987015
 30
0.0
 40
2.0
210
0.0
220
0.0
230
1.0
100
AcDbArc
 50
16.016516
 51
95.905104
  0
ARC
  5
31
100
AcDbEntity
  8
0
 62
     7
100
AcDbCircle
 10
40.43594
 20
187.951202
 30
0.0
 40
27.5
210
0.0
220
0.0
230
1.0
100
AcDbArc
 50
283.983474
 51
16.016504
  0
ARC
  5
32
100
AcDbEntity
  8
0
 62
     7
100
AcDbCircle
 10
40.43594
 20
187.951202
 30
0.0
 40
27.5
210
0.0
220
0.0
230
1.0
100
AcDbArc
 50
43.983484
 51
136.016511
  0
ARC
  5
33
100
AcDbEntity
  8
0
 62
     7
100
AcDbCircle
 10
40.43594
 20
187.951202
 30
0.0
 40
27.5
210
0.0
220
0.0
230
1.0
100
AcDbArc
 50
163.983484
 51
256.016527
  0
CIRCLE
  5
34
100
AcDbEntity
  8
0
 62
     7
100
AcDbCircle
 10
16.620241
 20
201.701202
 30
0.0
 40
1.75
210
0.0
220
0.0
230
1.0
  0
CIRCLE
  5
35
100
AcDbEntity
  8
0
 62
     7
100
AcDbCircle
 10
64.25164
 20
201.701202
 30
0.0
 40
1.75
210
0.0
220
0.0
230
1.0
  0
LINE
  5
36
100
AcDbEntity
  8
0
 62
     7
 48
0.085
100
AcDbLine
 10
38.735939
 20
218.451202
 30
0.0
 11
42.135941
 21
218.451202
 31
0.0
210
0.0
220
0.0
230
1.0
  0
LINE
  5
37
100
AcDbEntity
  8
0
 62
     7
 48
0.073921
100
AcDbLine
 10
42.135941
 20
218.451202
 30
0.0
 11
42.135941
 21
221.408035
 31
0.0
210
0.0
220
0.0
230
1.0
  0
LINE
  5
38
100
AcDbEntity
  8
0
 62
     7
 48
0.085
100
AcDbLine
 10
67.699715
 20
174.173447
 30
0.0
 11
65.99971
 21
171.228958
 31
0.0
210
0.0
220
0.0
230
1.0
  0
LINE
  5
39
100
AcDbEntity
  8
0
 62
     7
 48
0.073921
100
AcDbLine
 10
65.99971
 20
171.228958
 30
0.0
 11
68.56041
 21
169.750534
 31
0.0
210
0.0
220
0.0
230
1.0
  0
LINE
  5
3A
100
AcDbEntity
  8
0
 62
     7
 48
0.085
100
AcDbLine
 10
14.872166
 20
171.228958
 30
0.0
 11
13.172165
 21
174.173447
 31
0.0
210
0.0
220
0.0
230
1.0
  0
LINE
  5
3B
100
AcDbEntity
  8
0
 62
     7
 48
0.073921
100
AcDbLine
 10
13.172165
 20
174.173447
 30
0.0
 11
10.611467
 21
172.695023
 31
0.0
210
0.0
220
0.0
230
1.0
  0
ARC
  5
3C
100
AcDbEntity
  8
0
 62
     7
100
AcDbCircle
 10
40.43594
 20
160.451202
 30
0.0
 40
4.75
210
0.0
220
0.0
230
1.0
100
AcDbArc
 50
24.094898
 51
155.905107
  0
ARC
  5
3D
100
AcDbEntity
  8
0
 62
     7
100
AcDbCircle
 10
46.597816
 20
163.206879
 30
0.0
 40
2.0
210
0.0
220
0.0
230
1.0
100
AcDbArc
 50
204.09489
 51
283.983474
  0
ARC
  5
3E
100
AcDbEntity
  8
0
 62
     7
100
AcDbCircle
 10
34.274063
 20
163.206879
 30
0.0
 40
2.0
210
0.0
220
0.0
230
1.0
100
AcDbArc
 50
256.016527
 51
335.905097
  0
CIRCLE
  5
3F
100
AcDbEntity
  8
0
 62
     7
100
AcDbCircle
 10
140.900269
 20
40.111313
 30
0.0
 40
1.75
210
0.0
220
0.0
230
1.0
  0
CIRCLE
  5
40
100
AcDbEntity
  8
0
 62
     7
100
AcDbCircle
 10
113.400261
 20
40.111313
 30
0.0
 40
33.5
210
0.0
220
0.0
230
1.0
  0
CIRCLE
  5
41
100
AcDbEntity
  8
0
 62
     7
100
AcDbCircle
 10
99.650261
 20
63.92701
 30
0.0
 40
1.75
210
0.0
220
0.0
230
1.0
  0
CIRCLE
  5
42
100
AcDbEntity
  8
0
 62
     7
100
AcDbCircle
 10
99.650261
 20
16.295614
 30
0.0
 40
1.75
210
0.0
220
0.0
230
1.0
  0
LINE
  5
43
100
AcDbEntity
  8
0
 62
     7
 48
0.073921
100
AcDbLine
 10
73.613876
 20
115.935303
 30
0.0
 11
70.657036
 21
115.935303
 31
0.0
210
0.0
220
0.0
230
1.0
  0
LINE
  5
44
100
AcDbEntity
  8
0
 62
     7
 48
0.085
100
AcDbLine
 10
70.657036
 20
112.535309
 30
0.0
 11
70.657036
 21
115.935303
 31
0.0
210
0.0
220
0.0
230
1.0
  0
LINE
  5
45
100
AcDbEntity
  8
0
 62
     7
 48
0.073921
100
AcDbLine
 10
70.657036
 20
112.535309
 30
0.0
 11
73.613876
 21
112.535309
 31
0.0
210
0.0
220
0.0
230
1.0
  0
LINE
  5
46
100
AcDbEntity
  8
0
 62
     7
 48
0.075
100
AcDbLine
 10
45.049213
 20
138.288712
 30
0.0
 11
42.151436
 21
139.06517
 31
0.0
210
0.0
220
0.0
230
1.0
  0
LINE
  5
47
100
AcDbEntity
  8
0
 62
     7
 48
0.075
100
AcDbLine
 10
45.049213
 20
138.288712
 30
0.0
 11
45.825672
 21
141.186493
 31
0.0
210
0.0
220
0.0
230
1.0
  0
LINE
  5
48
100
AcDbEntity
  8
0
 62
     7
 48
0.085
100
AcDbLine
 10
45.825672
 20
141.186493
 30
0.0
 11
49.109818
 21
140.306503
 31
0.0
210
0.0
220
0.0
230
1.0
  0
LINE
  5
49
100
AcDbEntity
  8
0
 62
     7
 48
0.075
100
AcDbLine
 10
49.109818
 20
140.306503
 30
0.0
 11
48.333363
 21
137.408737
 31
0.0
210
0.0
220
0.0
230
1.0
  0
LINE
  5
4A
100
AcDbEntity
  8
0
 62
     7
 48
0.075
100
AcDbLine
 10
48.333363
 20
137.408737
 30
0.0
 11
51.23114
 21
136.632278
 31
0.0
210
0.0
220
0.0
230
1.0
  0
LINE
  5
4B
100
AcDbEntity
  8
0
 62
     7
 48
0.075
100
AcDbLine
 10
59.638641
 20
100.008324
 30
0.0
 11
60.4151
 21
102.906097
 31
0.0
210
0.0
220
0.0
230
1.0
  0
LINE
  5
4C
100
AcDbEntity
  8
0
 62
     7
 48
0.075
100
AcDbLine
 10
59.638641
 20
100.008324
 30
0.0
 11
62.536419
 21
99.231865
 31
0.0
210
0.0
220
0.0
230
1.0
  0
LINE
  5
4D
100
AcDbEntity
  8
0
 62
     7
 48
0.085
100
AcDbLine
 10
62.536419
 20
99.231865
 30
0.0
 11
61.656433
 21
95.947716
 31
0.0
210
0.0
220
0.0
230
1.0
  0
LINE
  5
4E
100
AcDbEntity
  8
0
 62
     7
 48
0.075
100
AcDbLine
 10
61.656433
 20
95.947716
 30
0.0
 11
58.758656
 21
96.724174
 31
0.0
210
0.0
220
0.0
230
1.0
  0
LINE
  5
4F
100
AcDbEntity
  8
0
 62
     7
 48
0.075
100
AcDbLine
 10
58.758656
 20
96.724174
 30
0.0
 11
57.982201
 21
93.826401
 31
0.0
210
0.0
220
0.0
230
1.0
  0
LINE
  5
50
100
AcDbEntity
  8
0
 62
     7
 48
0.075
100
AcDbLine
 10
15.291994
 20
108.371033
 30
0.0
 11
14.515537
 21
105.473251
 31
0.0
210
0.0
220
0.0
230
1.0
  0
LINE
  5
51
100
AcDbEntity
  8
0
 62
     7
 48
0.075
100
AcDbLine
 10
15.291994
 20
108.371033
 30
0.0
 11
12.394217
 21
109.147491
 31
0.0
210
0.0
220
0.0
230
1.0
  0
LINE
  5
52
100
AcDbEntity
  8
0
 62
     7
 48
0.085
100
AcDbLine
 10
12.394217
 20
109.147491
 30
0.0
 11
13.274202
 21
112.431633
 31
0.0
210
0.0
220
0.0
230
1.0
  0
LINE
  5
53
100
AcDbEntity
  8
0
 62
     7
 48
0.075
100
AcDbLine
 10
13.274202
 20
112.431633
 30
0.0
 11
16.17198
 21
111.655182
 31
0.0
210
0.0
220
0.0
230
1.0
  0
LINE
  5
54
100
AcDbEntity
  8
0
 62
     7
 48
0.075
100
AcDbLine
 10
16.17198
 20
111.655182
 30
0.0
 11
16.948437
 21
114.552956
 31
0.0
210
0.0
220
0.0
230
1.0
  0
ARC
  5
55
100
AcDbEntity
  8
0
 62
     7
100
AcDbCircle
 10
40.157036
 20
114.235306
 30
0.0
 40
33.5
210
0.0
220
0.0
230
1.0
100
AcDbArc
 50
122.908789
 51
237.091194
  0
ARC
  5
56
100
AcDbEntity
  8
0
 62
     7
100
AcDbCircle
 10
40.157036
 20
114.235306
 30
0.0
 40
33.5
210
0.0
220
0.0
230
1.0
100
AcDbArc
 50
2.908796
 51
117.091202
  0
ARC
  5
57
100
AcDbEntity
  8
0
 62
     7
100
AcDbCircle
 10
40.157036
 20
114.235306
 30
0.0
 40
33.5
210
0.0
220
0.0
230
1.0
100
AcDbArc
 50
242.908793
 51
357.091196
  0
LINE
  5
58
100
AcDbEntity
  8
0
 62
     7
 48
0.073921
100
AcDbLine
 10
21.956373
 20
142.359772
 30
0.0
 11
23.434793
 21
139.799072
 31
0.0
210
0.0
220
0.0
230
1.0
  0
LINE
  5
59
100
AcDbEntity
  8
0
 62
     7
 48
0.085
100
AcDbLine
 10
26.37928
 20
141.499084
 30
0.0
 11
23.434793
 21
139.799072
 31
0.0
210
0.0
220
0.0
230
1.0
  0
LINE
  5
5A
100
AcDbEntity
  8
0
 62
     7
 48
0.073921
100
AcDbLine
 10
26.37928
 20
141.499084
 30
0.0
 11
24.90086
 21
144.059784
 31
0.0
210
0.0
220
0.0
230
1.0
  0
LINE
  5
5B
100
AcDbEntity
  8
0
 62
     7
 48
0.073921
100
AcDbLine
 10
24.90086
 20
84.410835
 30
0.0
 11
26.37928
 21
86.971527
 31
0.0
210
0.0
220
0.0
230
1.0
  0
LINE
  5
5C
100
AcDbEntity
  8
0
 62
     7
 48
0.085
100
AcDbLine
 10
23.434793
 20
88.671532
 30
0.0
 11
26.37928
 21
86.971527
 31
0.0
210
0.0
220
0.0
230
1.0
  0
LINE
  5
5D
100
AcDbEntity
  8
0
 62
     7
 48
0.073921
100
AcDbLine
 10
23.434793
 20
88.671532
 30
0.0
 11
21.956373
 21
86.110832
 31
0.0
210
0.0
220
0.0
230
1.0
  0
LINE
  5
5E
100
AcDbEntity
  8
0
 62
     7
 48
0.001218
100
AcDbLine
 10
51.23114
 20
136.632278
 30
0.0
 11
51.243752
 21
136.679337
 31
0.0
210
0.0
220
0.0
230
1.0
  0
ARC
  5
5F
100
AcDbEntity
  8
0
 62
     7
100
AcDbCircle
 10
53.175602
 20
136.161697
 30
0.0
 40
2.0
210
0.0
220
0.0
230
1.0
100
AcDbArc
 50
59.300726
 51
164.999995
  0
LINE
  5
60
100
AcDbEntity
  8
0
 62
     7
 48
0.003941
100
AcDbLine
 10
42.151436
 20
139.06517
 30
0.0
 11
42.192242
 21
139.217453
 31
0.0
210
0.0
220
0.0
230
1.0
  0
ARC
  5
61
100
AcDbEntity
  8
0
 62
     7
100
AcDbCircle
 10
40.260387
 20
139.735092
 30
0.0
 40
2.0
210
0.0
220
0.0
230
1.0
100
AcDbArc
 50
345.000012
 51
89.767766
  0
LINE
  5
62
100
AcDbEntity
  8
0
 62
     7
 48
0.068254
100
AcDbLine
 10
16.948437
 20
114.552956
 30
0.0
 11
14.311323
 21
115.259567
 31
0.0
210
0.0
220
0.0
230
1.0
  0
ARC
  5
63
100
AcDbEntity
  8
0
 62
     7
100
AcDbCircle
 10
40.157036
 20
114.235306
 30
0.0
 40
27.5
210
0.0
220
0.0
230
1.0
100
AcDbArc
 50
89.767776
 51
173.342961
  0
ARC
  5
64
100
AcDbEntity
  8
0
 62
     7
100
AcDbCircle
 10
14.82896
 20
117.191422
 30
0.0
 40
2.0
210
0.0
220
0.0
230
1.0
100
AcDbArc
 50
173.342961
 51
255.000004
  0
ARC
  5
65
100
AcDbEntity
  8
0
 62
     7
100
AcDbCircle
 10
16.429733
 20
104.893723
 30
0.0
 40
2.0
210
0.0
220
0.0
230
1.0
100
AcDbArc
 50
163.156157
 51
201.489856
  0
ARC
  5
66
100
AcDbEntity
  8
0
 62
     7
100
AcDbCircle
 10
40.157036
 20
114.235306
 30
0.0
 40
27.5
210
0.0
220
0.0
230
1.0
100
AcDbArc
 50
201.489856
 51
308.510136
  0
ARC
  5
67
100
AcDbEntity
  8
0
 62
     7
100
AcDbCircle
 10
56.034691
 20
94.281609
 30
0.0
 40
2.0
210
0.0
220
0.0
230
1.0
100
AcDbArc
 50
308.510136
 51
346.843837
  0
ARC
  5
68
100
AcDbEntity
  8
0
 62
     7
100
AcDbCircle
 10
63.569847
 20
104.13134
 30
0.0
 40
2.0
210
0.0
220
0.0
230
1.0
100
AcDbArc
 50
255.000004
 51
336.657046
  0
ARC
  5
69
100
AcDbEntity
  8
0
 62
     7
100
AcDbCircle
 10
40.157036
 20
114.235306
 30
0.0
 40
27.5
210
0.0
220
0.0
230
1.0
100
AcDbArc
 50
336.657046
 51
59.300722
  0
LINE
  5
6A
100
AcDbEntity
  8
0
 62
     7
 48
0.068253
100
AcDbLine
 10
60.4151
 20
102.906097
 30
0.0
 11
63.052212
 21
102.199486
 31
0.0
210
0.0
220
0.0
230
1.0
  0
LINE
  5
6B
100
AcDbEntity
  8
0
 62
     7
 48
0.3
100
AcDbLine
 10
49.78194
 20
65.546104
 30
0.0
 11
58.974472
 21
57.832653
 31
0.0
210
0.0
220
0.0
230
1.0
  0
LINE
  5
6C
100
AcDbEntity
  8
0
 62
     7
 48
0.125
100
AcDbLine
 10
46.568005
 20
61.715881
 30
0.0
 11
49.78194
 21
65.546104
 31
0.0
210
0.0
220
0.0
230
1.0
  0
LINE
  5
6D
100
AcDbEntity
  8
0
 62
     7
 48
0.3
100
AcDbLine
 10
55.760536
 20
54.00243
 30
0.0
 11
46.568005
 21
61.715881
 31
0.0
210
0.0
220
0.0
230
1.0
  0
ARC
  5
6E
100
AcDbEntity
  8
0
 62
     7
100
AcDbCircle
 10
39.963863
 20
39.843861
 30
0.0
 40
33.5
210
0.0
220
0.0
230
1.0
100
AcDbArc
 50
212.908799
 51
327.091201
  0
LINE
  5
6F
100
AcDbEntity
  8
0
 62
     7
 48
0.073921
100
AcDbLine
 10
67.227638
 20
26.066105
 30
0.0
 11
69.788338
 21
24.587685
 31
0.0
210
0.0
220
0.0
230
1.0
  0
ARC
  5
70
100
AcDbEntity
  8
0
 62
     7
100
AcDbCircle
 10
39.963863
 20
39.843861
 30
0.0
 40
33.5
210
0.0
220
0.0
230
1.0
100
AcDbArc
 50
332.908802
 51
87.091206
  0
LINE
  5
71
100
AcDbEntity
  8
0
 62
     7
 48
0.073921
100
AcDbLine
 10
38.263863
 20
70.343857
 30
0.0
 11
38.263863
 21
73.300697
 31
0.0
210
0.0
220
0.0
230
1.0
  0
ARC
  5
72
100
AcDbEntity
  8
0
 62
     7
100
AcDbCircle
 10
39.963863
 20
39.843861
 30
0.0
 40
33.5
210
0.0
220
0.0
230
1.0
100
AcDbArc
 50
92.908796
 51
207.091199
  0
LINE
  5
73
100
AcDbEntity
  8
0
 62
     7
 48
0.073921
100
AcDbLine
 10
14.400089
 20
23.121618
 30
0.0
 11
11.839392
 21
21.643198
 31
0.0
210
0.0
220
0.0
230
1.0
  0
LINE
  5
74
100
AcDbEntity
  8
0
 62
     7
 48
0.085
100
AcDbLine
 10
14.400089
 20
23.121618
 30
0.0
 11
12.700089
 21
26.066105
 31
0.0
210
0.0
220
0.0
230
1.0
  0
LINE
  5
75
100
AcDbEntity
  8
0
 62
     7
 48
0.073921
100
AcDbLine
 10
12.700089
 20
26.066105
 30
0.0
 11
10.139391
 21
24.587685
 31
0.0
210
0.0
220
0.0
230
1.0
  0
LINE
  5
76
100
AcDbEntity
  8
0
 62
     7
 48
0.085
100
AcDbLine
 10
38.263863
 20
70.343857
 30
0.0
 11
41.663864
 21
70.343857
 31
0.0
210
0.0
220
0.0
230
1.0
  0
LINE
  5
77
100
AcDbEntity
  8
0
 62
     7
 48
0.073921
100
AcDbLine
 10
41.663864
 20
70.343857
 30
0.0
 11
41.663864
 21
73.300697
 31
0.0
210
0.0
220
0.0
230
1.0
  0
LINE
  5
78
100
AcDbEntity
  8
0
 62
     7
 48
0.085
100
AcDbLine
 10
67.227638
 20
26.066105
 30
0.0
 11
65.527634
 21
23.121618
 31
0.0
210
0.0
220
0.0
230
1.0
  0
LINE
  5
79
100
AcDbEntity
  8
0
 62
     7
 48
0.073921
100
AcDbLine
 10
65.527634
 20
23.121618
 30
0.0
 11
68.088333
 21
21.643198
 31
0.0
210
0.0
220
0.0
230
1.0
  0
LINE
  5
7A
100
AcDbEntity
  8
0
 62
     7
 48
0.125
100
AcDbLine
 10
58.974472
 20
57.832653
 30
0.0
 11
55.760536
 21
54.00243
 31
0.0
210
0.0
220
0.0
230
1.0
  0
LINE
  5
7B
100
AcDbEntity
  8
0
 62
     7
100
AcDbLine
 10
64.760101
 20
34.702232
 30
0.0
 11
50.94017
 21
18.232275
 31
0.0
210
0.0
220
0.0
230
1.0
  0
LINE
  5
7C
100
AcDbEntity
  8
0
 62
     7
100
AcDbLine
 10
50.94017
 20
18.232275
 30
0.0
 11
14.70627
 21
48.636127
 31
0.0
210
0.0
220
0.0
230
1.0
  0
LINE
  5
7D
100
AcDbEntity
  8
0
 62
     7
100
AcDbLine
 10
14.70627
 20
48.636127
 30
0.0
 11
28.526203
 21
65.106087
 31
0.0
210
0.0
220
0.0
230
1.0
  0
LINE
  5
7E
100
AcDbEntity
  8
0
 62
     7
100
AcDbLine
 10
28.526203
 20
65.106087
 30
0.0
 11
64.760101
 21
34.702232
 31
0.0
210
0.0
220
0.0
230
1.0
  0
ENDSEC
  0
SECTION
  2
OBJECTS
  0
DICTIONARY
  5
19
100
AcDbDictionary
  3
ACAD_GROUP
350
1A
  3
ACAD_MLINESTYLE
350
1B
  0
DICTIONARY
  5
1A
102
{ACAD_REACTORS
330
19
102
}
100
AcDbDictionary
  0
DICTIONARY
  5
1B
102
{ACAD_REACTORS
330
19
102
}
100
AcDbDictionary
  3
STANDARD
350
1C
  0
MLINESTYLE
  5
1C
102
{ACAD_REACTORS
330
1B
102
}
100
AcDbMlineStyle
  2
STANDARD
 70
     0
  3

 62
     0
 51
90.0
 52
90.0
 71
     2
 49
0.5
 62
   256
  6
BYLAYER
 49
-0.5
 62
   256
  6
BYLAYER
  0
ENDSEC
  0
EOF
