  0
SECTION
  2
HEADER
  9
$ACADVER
  1
AC1014
  9
$ACADMAINTVER
 70
     0
  9
$DWGCODEPAGE
  3
ANSI_1252
  9
$INSBASE
 10
0.0
 20
0.0
 30
0.0
  9
$EXTMIN
 10
0.0
 20
0.0
 30
0.0
  9
$EXTMAX
 10
244.868408
 20
199.904205
 30
2.0
  9
$LIMMIN
 10
0.0
 20
0.0
  9
$LIMMAX
 10
420.0
 20
297.0
  9
$ORTHOMODE
 70
     0
  9
$REGENMODE
 70
     1
  9
$FILLMODE
 70
     1
  9
$QTEXTMODE
 70
     0
  9
$MIRRTEXT
 70
     1
  9
$DRAGMODE
 70
     2
  9
$LTSCALE
 40
1.0
  9
$OSMODE
 70
     0
  9
$ATTMODE
 70
     1
  9
$TEXTSIZE
 40
2.5
  9
$TRACEWID
 40
1.0
  9
$TEXTSTYLE
  7
STANDARD
  9
$CLAYER
  8
0
  9
$CELTYPE
  6
BYLAYER
  9
$CECOLOR
 62
   256
  9
$CELTSCALE
 40
1.0
  9
$DELOBJ
 70
     1
  9
$DISPSILH
 70
     0
  9
$DIMSCALE
 40
1.0
  9
$DIMASZ
 40
2.5
  9
$DIMEXO
 40
0.625
  9
$DIMDLI
 40
3.75
  9
$DIMRND
 40
0.0
  9
$DIMDLE
 40
0.0
  9
$DIMEXE
 40
1.25
  9
$DIMTP
 40
0.0
  9
$DIMTM
 40
0.0
  9
$DIMTXT
 40
2.5
  9
$DIMCEN
 40
2.5
  9
$DIMTSZ
 40
0.0
  9
$DIMTOL
 70
     0
  9
$DIMLIM
 70
     0
  9
$DIMTIH
 70
     0
  9
$DIMTOH
 70
     0
  9
$DIMSE1
 70
     0
  9
$DIMSE2
 70
     0
  9
$DIMTAD
 70
     1
  9
$DIMZIN
 70
     8
  9
$DIMBLK
  1

  9
$DIMASO
 70
     1
  9
$DIMSHO
 70
     1
  9
$DIMPOST
  1

  9
$DIMAPOST
  1

  9
$DIMALT
 70
     0
  9
$DIMALTD
 70
     3
  9
$DIMALTF
 40
0.03937
  9
$DIMLFAC
 40
1.0
  9
$DIMTOFL
 70
     1
  9
$DIMTVP
 40
0.0
  9
$DIMTIX
 70
     0
  9
$DIMSOXD
 70
     0
  9
$DIMSAH
 70
     0
  9
$DIMBLK1
  1

  9
$DIMBLK2
  1

  9
$DIMSTYLE
  2

  9
$DIMCLRD
 70
     0
  9
$DIMCLRE
 70
     0
  9
$DIMCLRT
 70
     0
  9
$DIMTFAC
 40
1.0
  9
$DIMGAP
 40
0.625
  9
$DIMJUST
 70
     0
  9
$DIMSD1
 70
     0
  9
$DIMSD2
 70
     0
  9
$DIMTOLJ
 70
     0
  9
$DIMTZIN
 70
     8
  9
$DIMALTZ
 70
     0
  9
$DIMALTTZ
 70
     0
  9
$DIMFIT
 70
     0
  9
$DIMUPT
 70
     0
  9
$DIMUNIT
 70
     2
  9
$DIMDEC
 70
     2
  9
$DIMTDEC
 70
     2
  9
$DIMALTU
 70
     2
  9
$DIMALTTD
 70
     3
  9
$DIMTXSTY
  7
STANDARD
  9
$DIMAUNIT
 70
     0
  9
$LUNITS
 70
     2
  9
$LUPREC
 70
     4
  9
$SKETCHINC
 40
1.0
  9
$FILLETRAD
 40
2.5
  9
$AUNITS
 70
     0
  9
$AUPREC
 70
     0
  9
$MENU
  1
.
  9
$ELEVATION
 40
0.0
  9
$PELEVATION
 40
0.0
  9
$THICKNESS
 40
0.0
  9
$LIMCHECK
 70
     0
  9
$BLIPMODE
 70
     1
  9
$CHAMFERA
 40
2.5
  9
$CHAMFERB
 40
2.5
  9
$CHAMFERC
 40
0.0
  9
$CHAMFERD
 40
0.0
  9
$SKPOLY
 70
     0
  9
$TDCREATE
 40
0.000000000
  9
$TDUPDATE
 40
0.000000000
  9
$TDINDWG
 40
0.0000000000
  9
$TDUSRTIMER
 40
0.0000000000
  9
$USRTIMER
 70
     1
  9
$ANGBASE
 50
0.0
  9
$ANGDIR
 70
     0
  9
$PDMODE
 70
     0
  9
$PDSIZE
 40
0.0
  9
$PLINEWID
 40
0.0
  9
$COORDS
 70
     0
  9
$SPLFRAME
 70
     0
  9
$SPLINETYPE
 70
     6
  9
$SPLINESEGS
 70
     8
  9
$ATTDIA
 70
     0
  9
$ATTREQ
 70
     1
  9
$HANDLING
 70
     1
  9
$HANDSEED
  5
122
  9
$SURFTAB1
 70
     6
  9
$SURFTAB2
 70
     6
  9
$SURFTYPE
 70
     6
  9
$SURFU
 70
     6
  9
$SURFV
 70
     6
  9
$UCSNAME
  2

  9
$UCSORG
 10
0.0
 20
0.0
 30
0.0
  9
$UCSXDIR
 10
1.0
 20
0.0
 30
0.0
  9
$UCSYDIR
 10
0.0
 20
1.0
 30
0.0
  9
$PUCSNAME
  2

  9
$PUCSORG
 10
0.0
 20
0.0
 30
0.0
  9
$PUCSXDIR
 10
1.0
 20
0.0
 30
0.0
  9
$PUCSYDIR
 10
0.0
 20
1.0
 30
0.0
  9
$USERI1
 70
     0
  9
$USERI2
 70
     0
  9
$USERI3
 70
     0
  9
$USERI4
 70
     0
  9
$USERI5
 70
     0
  9
$USERR1
 40
0.0
  9
$USERR2
 40
0.0
  9
$USERR3
 40
0.0
  9
$USERR4
 40
0.0
  9
$USERR5
 40
0.0
  9
$WORLDVIEW
 70
     1
  9
$SHADEDGE
 70
     3
  9
$SHADEDIF
 70
    70
  9
$TILEMODE
 70
     1
  9
$MAXACTVP
 70
    48
  9
$PINSBASE
 10
0.0
 20
0.0
 30
0.0
  9
$PLIMCHECK
 70
     0
  9
$PEXTMIN
 10
0.0
 20
0.0
 30
0.0
  9
$PEXTMAX
 10
244.868408
 20
199.904205
 30
2.0
  9
$PLIMMIN
 10
0.0
 20
0.0
  9
$PLIMMAX
 10
420.0
 20
297.0
  9
$UNITMODE
 70
     0
  9
$VISRETAIN
 70
     0
  9
$PLINEGEN
 70
     0
  9
$PSLTSCALE
 70
     1
  9
$TREEDEPTH
 70
  3020
  9
$PICKSTYLE
 70
     1
  9
$CMLSTYLE
  2
STANDARD
  9
$CMLJUST
 70
     0
  9
$CMLSCALE
 40
20.0
  9
$PROXYGRAPHICS
 70
     1
  9
$MEASUREMENT
 70
     1
  0
ENDSEC
  0
SECTION
  2
CLASSES
  0
CLASS
  1
LWPOLYLINE
  2
AcDbPolyline
  3
"AutoCAD"
 90
        0
280
     0
281
     1
  0
CLASS
  1
IMAGE
  2
AcDbRasterImage
  3
ISM
 90
      127
280
     0
281
     1
  0
CLASS
  1
OLE2FRAME
  2
AcDbOle2Frame
  3
""
 90
        0
280
     0
281
     1
  0
CLASS
  1
HATCH
  2
AcDbHatch
  3
"ACAD_SEDONA"
 90
        0
280
     0
281
     1
  0
CLASS
  1
DICTIONARYVAR
  2
AcDbDictionaryVar
  3
"AutoCAD"
 90
        0
280
     0
281
     0
  0
CLASS
  1
RASTERVARIABLES
  2
AcDbRasterVariables
  3
ISM
 90
        0
280
     0
281
     0
  0
CLASS
  1
IMAGEDEF
  2
AcDbRasterImageDef
  3
ISM
 90
        0
280
     0
281
     0
  0
CLASS
  1
IMAGEDEF_REACTOR
  2
AcDbRasterImageDefReactor
  3
ISM
 90
        1
280
     0
281
     0
  0
CLASS
  1
IDBUFFER
  2
AcDbIdBuffer
  3
"Acad"
 90
        0
280
     0
281
     0
  0
CLASS
  1
SPATIAL_FILTER
  2
AcDbSpatialFilter
  3
"Acad"
 90
        0
280
     0
281
     0
  0
CLASS
  1
XRECORD
  2
AcDbXrecord
  3
"<Built In>"
 90
        0
280
     0
281
     0
  0
CLASS
  1
SORTENTSTABLE
  2
AcDbSortentsTable
  3
"AutoCAD"
 90
        0
280
     0
281
     0
  0
CLASS
  1
LAYER_INDEX
  2
AcDbLayerIndex
  3
"Acad"
 90
        0
280
     0
281
     0
  0
CLASS
  1
SPATIAL_INDEX
  2
AcDbSpatialIndex
  3
"Acad"
 90
        0
280
     0
281
     0
  0
CLASS
  1
OBJECT_PTR
  2
CAseDLPNTableRecord
  3
"ASE-LPNTableRecord"
 90
        1
280
     0
281
     0
  0
CLASS
  1
LAYOUT
  2
AcDbLayout
  3
"AutoCAD 2000"
 90
        0
280
     0
281
     0
  0
CLASS
  1
PLOTSETTINGS
  2
AcDbPlotSettings
  3
"AutoCAD 2000"
 90
        0
280
     0
281
     0
  0
CLASS
  1
ACDBDICTIONARYWDFLT
  2
AcDbDictionaryWithDefault
  3
"AutoCAD 2000"
 90
        0
280
     0
281
     0
  0
CLASS
  1
ACDBPLACEHOLDER
  2
AcDbPlaceHolder
  3
"AutoCAD 2000"
 90
        0
280
     0
281
     0
  0
CLASS
  1
VBA_PROJECT
  2
AcDbVbaProject
  3
"acadvba"
 90
        0
280
     0
281
     0
  0
CLASS
  1
WIPEOUT
  2
AcDbWipeout
  3
WipeOut|AutoCAD Express Tool|expresstools@autodesk.com
 90
      127
280
     0
281
     1
  0
CLASS
  1
WIPEOUTVARIABLES
  2
AcDbWipeoutVariables
  3
WipeOut|AutoCAD Express Tool|expresstools@autodesk.com
 90
        0
280
     0
281
     0
  0
CLASS
  1
RTEXT
  2
RText
  3
RText|AutoCAD Express Tool|expresstools@autodesk.com
 90
        0
280
     0
281
     1
  0
CLASS
  1
ARCALIGNEDTEXT
  2
AcDbArcAlignedText
  3
ATEXT|AutoCAD Express Tool|expresstools@autodesk.com
 90
        0
280
     0
281
     1
  0
ENDSEC
  0
SECTION
  2
TABLES
  0
TABLE
  2
VPORT
  5
7
100
AcDbSymbolTable
 70
     1
  0
VPORT
  5
15
100
AcDbSymbolTableRecord
100
AcDbViewportTableRecord
  2
*ACTIVE
 70
     0
 10
0.0
 20
0.0
 11
1.0
 21
1.0
 12
6.591288
 22
4.579184
 13
0.0
 23
0.0
 14
1.0
 24
1.0
 15
0.0
 25
0.0
 16
0.0
 26
0.0
 36
1.0
 17
0.0
 27
0.0
 37
0.0
 40
9.158369
 41
0.688564
 42
50.0
 43
0.0
 44
0.0
 50
0.0
 51
0.0
 71
     0
 72
   100
 73
     1
 74
     1
 75
     0
 76
     0
 77
     0
 78
     0
  0
ENDTAB
  0
TABLE
  2
LTYPE
  5
4
100
AcDbSymbolTable
 70
    10
  0
LTYPE
  5
11
100
AcDbSymbolTableRecord
100
AcDbLinetypeTableRecord
  2
BYBLOCK
 70
    64
  3

 72
    65
 73
     0
 40
0.0
  0
LTYPE
  5
12
100
AcDbSymbolTableRecord
100
AcDbLinetypeTableRecord
  2
BYLAYER
 70
    64
  3

 72
    65
 73
     0
 40
0.0
  0
LTYPE
  5
13
100
AcDbSymbolTableRecord
100
AcDbLinetypeTableRecord
  2
CONTINUOUS
 70
    64
  3
Solid line
 72
    65
 73
     0
 40
0.0
  0
LTYPE
  5
1D
100
AcDbSymbolTableRecord
100
AcDbLinetypeTableRecord
  2
DASHED
 70
     0
  3
__ __ __ __ __ __ __ __ __ __ __ __ __ __ __ __
 72
    65
 73
     2
 40
15.0
 49
12.0
 74
     0
 49
-3.0
 74
     0
  0
LTYPE
  5
1E
100
AcDbSymbolTableRecord
100
AcDbLinetypeTableRecord
  2
DASHDOT
 70
     0
  3
 __ . __ . __ . __ . __ . __ . __ . 
 72
    65
 73
     4
 40
18.5
 49
12.0
 74
     0
 49
-3.0
 74
     0
 49
0.5
 74
     0
 49
-3.0
 74
     0
  0
LTYPE
  5
1F
100
AcDbSymbolTableRecord
100
AcDbLinetypeTableRecord
  2
DOT
 70
     0
  3
 . . . . . . . . . . . . . . . .
 72
    65
 73
     2
 40
3.5
 49
0.5
 74
     0
 49
-3.0
 74
     0
  0
LTYPE
  5
20
100
AcDbSymbolTableRecord
100
AcDbLinetypeTableRecord
  2
DASHSPACE
 70
     0
  3
__    __    __    __    __   
 72
    65
 73
     2
 40
30.0
 49
12.0
 74
     0
 49
-18.0
 74
     0
  0
LTYPE
  5
21
100
AcDbSymbolTableRecord
100
AcDbLinetypeTableRecord
  2
DASHDOT2
 70
     0
  3
__ . . __ . . __ . . __ 
 72
    65
 73
     6
 40
22.0
 49
12.0
 74
     0
 49
-3.0
 74
     0
 49
0.5
 74
     0
 49
-3.0
 74
     0
 49
0.5
 74
     0
 49
-3.0
 74
     0
  0
LTYPE
  5
22
100
AcDbSymbolTableRecord
100
AcDbLinetypeTableRecord
  2
PHANTOM
 70
     0
  3
____________    ____    ____   _
 72
    65
 73
     6
 40
20.0
 49
10.0
 74
     0
 49
-2.0
 74
     0
 49
2.0
 74
     0
 49
-2.0
 74
     0
 49
2.0
 74
     0
 49
-2.0
 74
     0
  0
LTYPE
  5
23
100
AcDbSymbolTableRecord
100
AcDbLinetypeTableRecord
  2
AXES
 70
     0
  3
________  __  ________  __  _____
 72
    65
 73
     4
 40
24.0
 49
15.0
 74
     0
 49
-3.0
 74
     0
 49
3.0
 74
     0
 49
-3.0
 74
     0
  0
ENDTAB
  0
TABLE
  2
LAYER
  5
2
100
AcDbSymbolTable
 70
     1
  0
LAYER
  5
14
100
AcDbSymbolTableRecord
100
AcDbLayerTableRecord
  2
0
 70
     0
 62
     7
  6
CONTINUOUS
  0
ENDTAB
  0
TABLE
  2
STYLE
  5
3
100
AcDbSymbolTable
 70
     1
  0
STYLE
  5
17
100
AcDbSymbolTableRecord
100
AcDbTextStyleTableRecord
  2
STANDARD
 70
     0
 40
0.0
 41
1.0
 50
0.0
 71
     0
 42
0.0
  3
txt
  4

  0
ENDTAB
  0
TABLE
  2
VIEW
  5
5
100
AcDbSymbolTable
 70
     0
  0
ENDTAB
  0
TABLE
  2
UCS
  5
6
100
AcDbSymbolTable
 70
     0
  0
ENDTAB
  0
TABLE
  2
APPID
  5
8
100
AcDbSymbolTable
 70
     1
  0
APPID
  5
16
100
AcDbSymbolTableRecord
100
AcDbRegAppTableRecord
  2
ACAD
 70
     0
  0
ENDTAB
  0
TABLE
  2
DIMSTYLE
  5
9
100
AcDbSymbolTable
 70
     1
  0
DIMSTYLE
105
18
100
AcDbSymbolTableRecord
100
AcDbDimStyleTableRecord
  2
STANDARD
 70
     0
  3

  4

  5

  6

  7

 40
1.0
 41
0.18
 42
0.0625
 43
0.38
 44
0.18
 45
0.0
 46
0.0
 47
0.0
 48
0.0
 71
     0
 72
     0
 73
     1
 74
     1
 75
     0
 76
     0
 77
     0
 78
     0
140
0.18
141
0.09
142
0.0
143
25.4
144
1.0
145
0.0
146
1.0
147
0.09
170
     0
171
     2
172
     0
173
     0
174
     0
175
     0
176
     0
177
     0
178
     0
270
     2
271
     4
272
     4
273
     2
274
     2
275
     0
280
     0
281
     0
282
     0
283
     1
284
     0
285
     0
286
     0
287
     3
288
     0
340
17
  0
ENDTAB
  0
TABLE
  2
BLOCK_RECORD
  5
1
100
AcDbSymbolTable
 70
     0
  0
BLOCK_RECORD
  5
A
100
AcDbSymbolTableRecord
100
AcDbBlockTableRecord
  2
*MODEL_SPACE
  0
BLOCK_RECORD
  5
B
100
AcDbSymbolTableRecord
100
AcDbBlockTableRecord
  2
*PAPER_SPACE
  0
ENDTAB
  0
ENDSEC
  0
SECTION
  2
BLOCKS
  0
BLOCK
  5
D
100
AcDbEntity
  8
0
100
AcDbBlockBegin
  2
*MODEL_SPACE
 70
     0
 10
0.0
 20
0.0
 30
0.0
  3
*MODEL_SPACE
  1

  0
ENDBLK
  5
E
100
AcDbEntity
  8
0
100
AcDbBlockEnd
  0
BLOCK
  5
F
100
AcDbEntity
 67
     1
  8
0
100
AcDbBlockBegin
  2
*PAPER_SPACE
 70
     0
 10
0.0
 20
0.0
 30
0.0
  3
*PAPER_SPACE
  1

  0
ENDBLK
  5
10
100
AcDbEntity
 67
     1
  8
0
100
AcDbBlockEnd
  0
ENDSEC
  0
SECTION
  2
ENTITIES
  0
VIEWPORT
  5
121
100
AcDbEntity
 67
     1
  8
0
 62
     0
 48
0.0
100
AcDbViewport
 10
0.0
 20
0.0
 30
0.0
 40
1000.0
 41
1000.0
 68
     1
 69
     1
1001
ACAD
1000
MVIEW
1002
{
1070
    16
1010
0.0
1020
0.0
1030
0.0
1010
0.0
1020
0.0
1030
1.0
1040
0.0
1040
1000.0
1040
0.0
1040
0.0
1040
50.0
1040
0.0
1040
0.0
1070
     0
1070
   100
1070
     1
1070
     1
1070
     0
1070
     0
1070
     0
1070
     0
1040
0.0
1040
0.0
1040
0.0
1040
1.0
1040
1.0
1040
1.0
1040
1.0
1070
     0
1002
{
1002
}
1002
}
  0
LINE
  5
24
100
AcDbEntity
  8
0
 62
     7
 48
0.075
100
AcDbLine
 10
165.781296
 20
162.762207
 30
0.0
 11
165.781296
 21
159.762207
 31
0.0
210
0.0
220
0.0
230
1.0
  0
LINE
  5
25
100
AcDbEntity
  8
0
 62
     7
100
AcDbLine
 10
165.781296
 20
162.762207
 30
0.0
 11
125.781296
 21
162.762207
 31
0.0
210
0.0
220
0.0
230
1.0
  0
LINE
  5
26
100
AcDbEntity
  8
0
 62
     7
 48
0.075
100
AcDbLine
 10
125.781296
 20
159.762207
 30
0.0
 11
125.781296
 21
162.762207
 31
0.0
210
0.0
220
0.0
230
1.0
  0
LINE
  5
27
100
AcDbEntity
  8
0
 62
     7
 48
0.085
100
AcDbLine
 10
122.381294
 20
159.762207
 30
0.0
 11
125.781296
 21
159.762207
 31
0.0
210
0.0
220
0.0
230
1.0
  0
LINE
  5
28
100
AcDbEntity
  8
0
 62
     7
 48
0.075
100
AcDbLine
 10
122.381294
 20
162.762207
 30
0.0
 11
122.381294
 21
159.762207
 31
0.0
210
0.0
220
0.0
230
1.0
  0
LINE
  5
29
100
AcDbEntity
  8
0
 62
     7
 48
0.25
100
AcDbLine
 10
122.381294
 20
162.762207
 30
0.0
 11
112.381294
 21
162.762207
 31
0.0
210
0.0
220
0.0
230
1.0
  0
LINE
  5
2A
100
AcDbEntity
  8
0
 62
     7
 48
0.075
100
AcDbLine
 10
112.381294
 20
159.762207
 30
0.0
 11
112.381294
 21
162.762207
 31
0.0
210
0.0
220
0.0
230
1.0
  0
LINE
  5
2B
100
AcDbEntity
  8
0
 62
     7
 48
0.085
100
AcDbLine
 10
108.981293
 20
159.762207
 30
0.0
 11
112.381294
 21
159.762207
 31
0.0
210
0.0
220
0.0
230
1.0
  0
LINE
  5
2C
100
AcDbEntity
  8
0
 62
     7
 48
0.075
100
AcDbLine
 10
108.981293
 20
162.762207
 30
0.0
 11
108.981293
 21
159.762207
 31
0.0
210
0.0
220
0.0
230
1.0
  0
LINE
  5
2D
100
AcDbEntity
  8
0
 62
     7
 48
0.48
100
AcDbLine
 10
108.981293
 20
162.762207
 30
0.0
 11
89.781296
 21
162.762207
 31
0.0
210
0.0
220
0.0
230
1.0
  0
LINE
  5
2E
100
AcDbEntity
  8
0
 62
     7
 48
0.075
100
AcDbLine
 10
89.781296
 20
159.762207
 30
0.0
 11
89.781296
 21
162.762207
 31
0.0
210
0.0
220
0.0
230
1.0
  0
LINE
  5
2F
100
AcDbEntity
  8
0
 62
     7
 48
0.085
100
AcDbLine
 10
86.381294
 20
159.762207
 30
0.0
 11
89.781296
 21
159.762207
 31
0.0
210
0.0
220
0.0
230
1.0
  0
LINE
  5
30
100
AcDbEntity
  8
0
 62
     7
 48
0.075
100
AcDbLine
 10
86.381294
 20
162.762207
 30
0.0
 11
86.381294
 21
159.762207
 31
0.0
210
0.0
220
0.0
230
1.0
  0
LINE
  5
31
100
AcDbEntity
  8
0
 62
     7
100
AcDbLine
 10
86.381294
 20
162.762207
 30
0.0
 11
61.381298
 21
162.762207
 31
0.0
210
0.0
220
0.0
230
1.0
  0
LINE
  5
32
100
AcDbEntity
  8
0
 62
     7
 48
0.075
100
AcDbLine
 10
61.381298
 20
159.762207
 30
0.0
 11
61.381298
 21
162.762207
 31
0.0
210
0.0
220
0.0
230
1.0
  0
LINE
  5
33
100
AcDbEntity
  8
0
 62
     7
 48
0.25
100
AcDbLine
 10
51.381298
 20
159.762207
 30
0.0
 11
61.381298
 21
159.762207
 31
0.0
210
0.0
220
0.0
230
1.0
  0
LINE
  5
34
100
AcDbEntity
  8
0
 62
     7
 48
0.075
100
AcDbLine
 10
51.381298
 20
162.762207
 30
0.0
 11
51.381298
 21
159.762207
 31
0.0
210
0.0
220
0.0
230
1.0
  0
LINE
  5
35
100
AcDbEntity
  8
0
 62
     7
100
AcDbLine
 10
51.381298
 20
162.762207
 30
0.0
 11
11.381296
 21
162.762207
 31
0.0
210
0.0
220
0.0
230
1.0
  0
LINE
  5
36
100
AcDbEntity
  8
0
 62
     7
 48
0.075
100
AcDbLine
 10
11.381296
 20
159.762207
 30
0.0
 11
11.381296
 21
162.762207
 31
0.0
210
0.0
220
0.0
230
1.0
  0
LINE
  5
37
100
AcDbEntity
  8
0
 62
     7
 48
0.085
100
AcDbLine
 10
7.981296
 20
159.762207
 30
0.0
 11
11.381296
 21
159.762207
 31
0.0
210
0.0
220
0.0
230
1.0
  0
LINE
  5
38
100
AcDbEntity
  8
0
 62
     7
 48
0.075
100
AcDbLine
 10
7.981296
 20
159.762207
 30
0.0
 11
7.981296
 21
156.762207
 31
0.0
210
0.0
220
0.0
230
1.0
  0
LINE
  5
39
100
AcDbEntity
  8
0
 62
     7
100
AcDbLine
 10
7.981296
 20
156.762207
 30
0.0
 11
169.18129
 21
156.762207
 31
0.0
210
0.0
220
0.0
230
1.0
  0
LINE
  5
3A
100
AcDbEntity
  8
0
 62
     7
 48
0.075
100
AcDbLine
 10
169.18129
 20
156.762207
 30
0.0
 11
169.18129
 21
159.762207
 31
0.0
210
0.0
220
0.0
230
1.0
  0
LINE
  5
3B
100
AcDbEntity
  8
0
 62
     7
 48
0.085
100
AcDbLine
 10
165.781296
 20
159.762207
 30
0.0
 11
169.18129
 21
159.762207
 31
0.0
210
0.0
220
0.0
230
1.0
  0
LINE
  5
3C
100
AcDbEntity
  8
0
 62
     7
 48
0.075
100
AcDbLine
 10
165.8284
 20
148.112595
 30
0.0
 11
165.8284
 21
145.112595
 31
0.0
210
0.0
220
0.0
230
1.0
  0
LINE
  5
3D
100
AcDbEntity
  8
0
 62
     7
100
AcDbLine
 10
165.8284
 20
148.112595
 30
0.0
 11
125.8284
 21
148.112595
 31
0.0
210
0.0
220
0.0
230
1.0
  0
LINE
  5
3E
100
AcDbEntity
  8
0
 62
     7
 48
0.075
100
AcDbLine
 10
125.8284
 20
145.112595
 30
0.0
 11
125.8284
 21
148.112595
 31
0.0
210
0.0
220
0.0
230
1.0
  0
LINE
  5
3F
100
AcDbEntity
  8
0
 62
     7
 48
0.085
100
AcDbLine
 10
122.428398
 20
145.112595
 30
0.0
 11
125.8284
 21
145.112595
 31
0.0
210
0.0
220
0.0
230
1.0
  0
LINE
  5
40
100
AcDbEntity
  8
0
 62
     7
 48
0.075
100
AcDbLine
 10
122.428398
 20
148.112595
 30
0.0
 11
122.428398
 21
145.112595
 31
0.0
210
0.0
220
0.0
230
1.0
  0
LINE
  5
41
100
AcDbEntity
  8
0
 62
     7
 48
0.25
100
AcDbLine
 10
122.428398
 20
148.112595
 30
0.0
 11
112.428398
 21
148.112595
 31
0.0
210
0.0
220
0.0
230
1.0
  0
LINE
  5
42
100
AcDbEntity
  8
0
 62
     7
 48
0.075
100
AcDbLine
 10
112.428398
 20
145.112595
 30
0.0
 11
112.428398
 21
148.112595
 31
0.0
210
0.0
220
0.0
230
1.0
  0
LINE
  5
43
100
AcDbEntity
  8
0
 62
     7
 48
0.085
100
AcDbLine
 10
109.028397
 20
145.112595
 30
0.0
 11
112.428398
 21
145.112595
 31
0.0
210
0.0
220
0.0
230
1.0
  0
LINE
  5
44
100
AcDbEntity
  8
0
 62
     7
 48
0.075
100
AcDbLine
 10
109.028397
 20
148.112595
 30
0.0
 11
109.028397
 21
145.112595
 31
0.0
210
0.0
220
0.0
230
1.0
  0
LINE
  5
45
100
AcDbEntity
  8
0
 62
     7
 48
0.48
100
AcDbLine
 10
109.028397
 20
148.112595
 30
0.0
 11
89.8284
 21
148.112595
 31
0.0
210
0.0
220
0.0
230
1.0
  0
LINE
  5
46
100
AcDbEntity
  8
0
 62
     7
 48
0.075
100
AcDbLine
 10
89.8284
 20
145.112595
 30
0.0
 11
89.8284
 21
148.112595
 31
0.0
210
0.0
220
0.0
230
1.0
  0
LINE
  5
47
100
AcDbEntity
  8
0
 62
     7
 48
0.085
100
AcDbLine
 10
86.428398
 20
145.112595
 30
0.0
 11
89.8284
 21
145.112595
 31
0.0
210
0.0
220
0.0
230
1.0
  0
LINE
  5
48
100
AcDbEntity
  8
0
 62
     7
 48
0.075
100
AcDbLine
 10
86.428398
 20
148.112595
 30
0.0
 11
86.428398
 21
145.112595
 31
0.0
210
0.0
220
0.0
230
1.0
  0
LINE
  5
49
100
AcDbEntity
  8
0
 62
     7
100
AcDbLine
 10
86.428398
 20
148.112595
 30
0.0
 11
61.428398
 21
148.112595
 31
0.0
210
0.0
220
0.0
230
1.0
  0
LINE
  5
4A
100
AcDbEntity
  8
0
 62
     7
 48
0.075
100
AcDbLine
 10
61.428398
 20
145.112595
 30
0.0
 11
61.428398
 21
148.112595
 31
0.0
210
0.0
220
0.0
230
1.0
  0
LINE
  5
4B
100
AcDbEntity
  8
0
 62
     7
 48
0.25
100
AcDbLine
 10
51.428398
 20
145.112595
 30
0.0
 11
61.428398
 21
145.112595
 31
0.0
210
0.0
220
0.0
230
1.0
  0
LINE
  5
4C
100
AcDbEntity
  8
0
 62
     7
 48
0.075
100
AcDbLine
 10
51.428398
 20
148.112595
 30
0.0
 11
51.428398
 21
145.112595
 31
0.0
210
0.0
220
0.0
230
1.0
  0
LINE
  5
4D
100
AcDbEntity
  8
0
 62
     7
100
AcDbLine
 10
51.428398
 20
148.112595
 30
0.0
 11
11.428398
 21
148.112595
 31
0.0
210
0.0
220
0.0
230
1.0
  0
LINE
  5
4E
100
AcDbEntity
  8
0
 62
     7
 48
0.075
100
AcDbLine
 10
11.428398
 20
145.112595
 30
0.0
 11
11.428398
 21
148.112595
 31
0.0
210
0.0
220
0.0
230
1.0
  0
LINE
  5
4F
100
AcDbEntity
  8
0
 62
     7
 48
0.085
100
AcDbLine
 10
8.028399
 20
145.112595
 30
0.0
 11
11.428398
 21
145.112595
 31
0.0
210
0.0
220
0.0
230
1.0
  0
LINE
  5
50
100
AcDbEntity
  8
0
 62
     7
 48
0.075
100
AcDbLine
 10
8.028399
 20
145.112595
 30
0.0
 11
8.028399
 21
142.112595
 31
0.0
210
0.0
220
0.0
230
1.0
  0
LINE
  5
51
100
AcDbEntity
  8
0
 62
     7
100
AcDbLine
 10
8.028399
 20
142.112595
 30
0.0
 11
169.228394
 21
142.112595
 31
0.0
210
0.0
220
0.0
230
1.0
  0
LINE
  5
52
100
AcDbEntity
  8
0
 62
     7
 48
0.075
100
AcDbLine
 10
169.228394
 20
142.112595
 30
0.0
 11
169.228394
 21
145.112595
 31
0.0
210
0.0
220
0.0
230
1.0
  0
LINE
  5
53
100
AcDbEntity
  8
0
 62
     7
 48
0.085
100
AcDbLine
 10
165.8284
 20
145.112595
 30
0.0
 11
169.228394
 21
145.112595
 31
0.0
210
0.0
220
0.0
230
1.0
  0
LINE
  5
54
100
AcDbEntity
  8
0
 62
     7
 48
0.075
100
AcDbLine
 10
165.691559
 20
134.197205
 30
0.0
 11
165.691559
 21
131.197205
 31
0.0
210
0.0
220
0.0
230
1.0
  0
LINE
  5
55
100
AcDbEntity
  8
0
 62
     7
100
AcDbLine
 10
165.691559
 20
134.197205
 30
0.0
 11
125.691559
 21
134.197205
 31
0.0
210
0.0
220
0.0
230
1.0
  0
LINE
  5
56
100
AcDbEntity
  8
0
 62
     7
 48
0.075
100
AcDbLine
 10
125.691559
 20
131.197205
 30
0.0
 11
125.691559
 21
134.197205
 31
0.0
210
0.0
220
0.0
230
1.0
  0
LINE
  5
57
100
AcDbEntity
  8
0
 62
     7
 48
0.085
100
AcDbLine
 10
122.291557
 20
131.197205
 30
0.0
 11
125.691559
 21
131.197205
 31
0.0
210
0.0
220
0.0
230
1.0
  0
LINE
  5
58
100
AcDbEntity
  8
0
 62
     7
 48
0.075
100
AcDbLine
 10
122.291557
 20
134.197205
 30
0.0
 11
122.291557
 21
131.197205
 31
0.0
210
0.0
220
0.0
230
1.0
  0
LINE
  5
59
100
AcDbEntity
  8
0
 62
     7
 48
0.25
100
AcDbLine
 10
122.291557
 20
134.197205
 30
0.0
 11
112.291557
 21
134.197205
 31
0.0
210
0.0
220
0.0
230
1.0
  0
LINE
  5
5A
100
AcDbEntity
  8
0
 62
     7
 48
0.075
100
AcDbLine
 10
112.291557
 20
131.197205
 30
0.0
 11
112.291557
 21
134.197205
 31
0.0
210
0.0
220
0.0
230
1.0
  0
LINE
  5
5B
100
AcDbEntity
  8
0
 62
     7
 48
0.085
100
AcDbLine
 10
108.891556
 20
131.197205
 30
0.0
 11
112.291557
 21
131.197205
 31
0.0
210
0.0
220
0.0
230
1.0
  0
LINE
  5
5C
100
AcDbEntity
  8
0
 62
     7
 48
0.075
100
AcDbLine
 10
108.891556
 20
134.197205
 30
0.0
 11
108.891556
 21
131.197205
 31
0.0
210
0.0
220
0.0
230
1.0
  0
LINE
  5
5D
100
AcDbEntity
  8
0
 62
     7
 48
0.48
100
AcDbLine
 10
108.891556
 20
134.197205
 30
0.0
 11
89.691559
 21
134.197205
 31
0.0
210
0.0
220
0.0
230
1.0
  0
LINE
  5
5E
100
AcDbEntity
  8
0
 62
     7
 48
0.075
100
AcDbLine
 10
89.691559
 20
131.197205
 30
0.0
 11
89.691559
 21
134.197205
 31
0.0
210
0.0
220
0.0
230
1.0
  0
LINE
  5
5F
100
AcDbEntity
  8
0
 62
     7
 48
0.085
100
AcDbLine
 10
86.291557
 20
131.197205
 30
0.0
 11
89.691559
 21
131.197205
 31
0.0
210
0.0
220
0.0
230
1.0
  0
LINE
  5
60
100
AcDbEntity
  8
0
 62
     7
 48
0.075
100
AcDbLine
 10
86.291557
 20
134.197205
 30
0.0
 11
86.291557
 21
131.197205
 31
0.0
210
0.0
220
0.0
230
1.0
  0
LINE
  5
61
100
AcDbEntity
  8
0
 62
     7
100
AcDbLine
 10
86.291557
 20
134.197205
 30
0.0
 11
61.291557
 21
134.197205
 31
0.0
210
0.0
220
0.0
230
1.0
  0
LINE
  5
62
100
AcDbEntity
  8
0
 62
     7
 48
0.075
100
AcDbLine
 10
61.291557
 20
131.197205
 30
0.0
 11
61.291557
 21
134.197205
 31
0.0
210
0.0
220
0.0
230
1.0
  0
LINE
  5
63
100
AcDbEntity
  8
0
 62
     7
 48
0.25
100
AcDbLine
 10
51.291557
 20
131.197205
 30
0.0
 11
61.291557
 21
131.197205
 31
0.0
210
0.0
220
0.0
230
1.0
  0
LINE
  5
64
100
AcDbEntity
  8
0
 62
     7
 48
0.075
100
AcDbLine
 10
51.291557
 20
134.197205
 30
0.0
 11
51.291557
 21
131.197205
 31
0.0
210
0.0
220
0.0
230
1.0
  0
LINE
  5
65
100
AcDbEntity
  8
0
 62
     7
100
AcDbLine
 10
51.291557
 20
134.197205
 30
0.0
 11
11.291554
 21
134.197205
 31
0.0
210
0.0
220
0.0
230
1.0
  0
LINE
  5
66
100
AcDbEntity
  8
0
 62
     7
 48
0.075
100
AcDbLine
 10
11.291554
 20
131.197205
 30
0.0
 11
11.291554
 21
134.197205
 31
0.0
210
0.0
220
0.0
230
1.0
  0
LINE
  5
67
100
AcDbEntity
  8
0
 62
     7
 48
0.085
100
AcDbLine
 10
7.891554
 20
131.197205
 30
0.0
 11
11.291554
 21
131.197205
 31
0.0
210
0.0
220
0.0
230
1.0
  0
LINE
  5
68
100
AcDbEntity
  8
0
 62
     7
 48
0.075
100
AcDbLine
 10
7.891554
 20
131.197205
 30
0.0
 11
7.891554
 21
128.197205
 31
0.0
210
0.0
220
0.0
230
1.0
  0
LINE
  5
69
100
AcDbEntity
  8
0
 62
     7
100
AcDbLine
 10
7.891554
 20
128.197205
 30
0.0
 11
169.091553
 21
128.197205
 31
0.0
210
0.0
220
0.0
230
1.0
  0
LINE
  5
6A
100
AcDbEntity
  8
0
 62
     7
 48
0.075
100
AcDbLine
 10
169.091553
 20
128.197205
 30
0.0
 11
169.091553
 21
131.197205
 31
0.0
210
0.0
220
0.0
230
1.0
  0
LINE
  5
6B
100
AcDbEntity
  8
0
 62
     7
 48
0.085
100
AcDbLine
 10
165.691559
 20
131.197205
 30
0.0
 11
169.091553
 21
131.197205
 31
0.0
210
0.0
220
0.0
230
1.0
  0
LINE
  5
6C
100
AcDbEntity
  8
0
 62
     7
 48
0.073921
100
AcDbLine
 10
182.889465
 20
66.704865
 30
0.0
 11
179.932632
 21
66.704865
 31
0.0
210
0.0
220
0.0
230
1.0
  0
LINE
  5
6D
100
AcDbEntity
  8
0
 62
     7
 48
0.085
100
AcDbLine
 10
179.932632
 20
63.304867
 30
0.0
 11
179.932632
 21
66.704865
 31
0.0
210
0.0
220
0.0
230
1.0
  0
LINE
  5
6E
100
AcDbEntity
  8
0
 62
     7
 48
0.073921
100
AcDbLine
 10
179.932632
 20
63.304867
 30
0.0
 11
182.889465
 21
63.304867
 31
0.0
210
0.0
220
0.0
230
1.0
  0
CIRCLE
  5
6F
100
AcDbEntity
  8
0
 62
     7
100
AcDbCircle
 10
149.432632
 20
65.004868
 30
0.0
 40
27.5
210
0.0
220
0.0
230
1.0
  0
ARC
  5
70
100
AcDbEntity
  8
0
 62
     7
100
AcDbCircle
 10
149.432632
 20
65.004868
 30
0.0
 40
33.5
210
0.0
220
0.0
230
1.0
100
AcDbArc
 50
122.908789
 51
237.091194
  0
LINE
  5
71
100
AcDbEntity
  8
0
 62
     7
 48
0.073921
100
AcDbLine
 10
131.231964
 20
93.129341
 30
0.0
 11
132.710388
 21
90.568642
 31
0.0
210
0.0
220
0.0
230
1.0
  0
LINE
  5
72
100
AcDbEntity
  8
0
 62
     7
 48
0.085
100
AcDbLine
 10
135.654877
 20
92.268646
 30
0.0
 11
132.710388
 21
90.568642
 31
0.0
210
0.0
220
0.0
230
1.0
  0
LINE
  5
73
100
AcDbEntity
  8
0
 62
     7
 48
0.073921
100
AcDbLine
 10
135.654877
 20
92.268646
 30
0.0
 11
134.176453
 21
94.829338
 31
0.0
210
0.0
220
0.0
230
1.0
  0
ARC
  5
74
100
AcDbEntity
  8
0
 62
     7
100
AcDbCircle
 10
149.432632
 20
65.004868
 30
0.0
 40
33.5
210
0.0
220
0.0
230
1.0
100
AcDbArc
 50
2.908796
 51
117.091202
  0
ARC
  5
75
100
AcDbEntity
  8
0
 62
     7
100
AcDbCircle
 10
149.432632
 20
65.004868
 30
0.0
 40
33.5
210
0.0
220
0.0
230
1.0
100
AcDbArc
 50
242.908793
 51
357.091196
  0
LINE
  5
76
100
AcDbEntity
  8
0
 62
     7
 48
0.073921
100
AcDbLine
 10
134.176453
 20
35.180397
 30
0.0
 11
135.654877
 21
37.741093
 31
0.0
210
0.0
220
0.0
230
1.0
  0
LINE
  5
77
100
AcDbEntity
  8
0
 62
     7
 48
0.085
100
AcDbLine
 10
132.710388
 20
39.441093
 30
0.0
 11
135.654877
 21
37.741093
 31
0.0
210
0.0
220
0.0
230
1.0
  0
LINE
  5
78
100
AcDbEntity
  8
0
 62
     7
 48
0.073921
100
AcDbLine
 10
132.710388
 20
39.441093
 30
0.0
 11
131.231964
 21
36.880394
 31
0.0
210
0.0
220
0.0
230
1.0
  0
LINE
  5
79
100
AcDbEntity
  8
0
 62
     7
 48
0.073921
100
AcDbLine
 10
238.138077
 20
112.63163
 30
0.0
 11
235.181244
 21
112.63163
 31
0.0
210
0.0
220
0.0
230
1.0
  0
LINE
  5
7A
100
AcDbEntity
  8
0
 62
     7
 48
0.085
100
AcDbLine
 10
235.181244
 20
109.231636
 30
0.0
 11
235.181244
 21
112.63163
 31
0.0
210
0.0
220
0.0
230
1.0
  0
LINE
  5
7B
100
AcDbEntity
  8
0
 62
     7
 48
0.073921
100
AcDbLine
 10
235.181244
 20
109.231636
 30
0.0
 11
238.138077
 21
109.231636
 31
0.0
210
0.0
220
0.0
230
1.0
  0
LINE
  5
7C
100
AcDbEntity
  8
0
 62
     7
 48
0.075
100
AcDbLine
 10
209.573425
 20
134.985046
 30
0.0
 11
206.675644
 21
135.761505
 31
0.0
210
0.0
220
0.0
230
1.0
  0
LINE
  5
7D
100
AcDbEntity
  8
0
 62
     7
 48
0.075
100
AcDbLine
 10
209.573425
 20
134.985046
 30
0.0
 11
210.349884
 21
137.882828
 31
0.0
210
0.0
220
0.0
230
1.0
  0
LINE
  5
7E
100
AcDbEntity
  8
0
 62
     7
 48
0.085
100
AcDbLine
 10
210.349884
 20
137.882828
 30
0.0
 11
213.634033
 21
137.002838
 31
0.0
210
0.0
220
0.0
230
1.0
  0
LINE
  5
7F
100
AcDbEntity
  8
0
 62
     7
 48
0.075
100
AcDbLine
 10
213.634033
 20
137.002838
 30
0.0
 11
212.857574
 21
134.105057
 31
0.0
210
0.0
220
0.0
230
1.0
  0
LINE
  5
80
100
AcDbEntity
  8
0
 62
     7
 48
0.075
100
AcDbLine
 10
212.857574
 20
134.105057
 30
0.0
 11
215.755341
 21
133.328598
 31
0.0
210
0.0
220
0.0
230
1.0
  0
LINE
  5
81
100
AcDbEntity
  8
0
 62
     7
 48
0.075
100
AcDbLine
 10
224.162842
 20
96.704651
 30
0.0
 11
224.939301
 21
99.602425
 31
0.0
210
0.0
220
0.0
230
1.0
  0
LINE
  5
82
100
AcDbEntity
  8
0
 62
     7
 48
0.075
100
AcDbLine
 10
224.162842
 20
96.704651
 30
0.0
 11
227.060623
 21
95.928192
 31
0.0
210
0.0
220
0.0
230
1.0
  0
LINE
  5
83
100
AcDbEntity
  8
0
 62
     7
 48
0.085
100
AcDbLine
 10
227.060623
 20
95.928192
 30
0.0
 11
226.180634
 21
92.644043
 31
0.0
210
0.0
220
0.0
230
1.0
  0
LINE
  5
84
100
AcDbEntity
  8
0
 62
     7
 48
0.075
100
AcDbLine
 10
226.180634
 20
92.644043
 30
0.0
 11
223.282867
 21
93.420502
 31
0.0
210
0.0
220
0.0
230
1.0
  0
LINE
  5
85
100
AcDbEntity
  8
0
 62
     7
 48
0.075
100
AcDbLine
 10
223.282867
 20
93.420502
 30
0.0
 11
222.506409
 21
90.52272
 31
0.0
210
0.0
220
0.0
230
1.0
  0
LINE
  5
86
100
AcDbEntity
  8
0
 62
     7
 48
0.075
100
AcDbLine
 10
179.816208
 20
105.06736
 30
0.0
 11
179.039749
 21
102.169579
 31
0.0
210
0.0
220
0.0
230
1.0
  0
LINE
  5
87
100
AcDbEntity
  8
0
 62
     7
 48
0.075
100
AcDbLine
 10
179.816208
 20
105.06736
 30
0.0
 11
176.918427
 21
105.843819
 31
0.0
210
0.0
220
0.0
230
1.0
  0
LINE
  5
88
100
AcDbEntity
  8
0
 62
     7
 48
0.085
100
AcDbLine
 10
176.918427
 20
105.843819
 30
0.0
 11
177.798416
 21
109.12796
 31
0.0
210
0.0
220
0.0
230
1.0
  0
LINE
  5
89
100
AcDbEntity
  8
0
 62
     7
 48
0.075
100
AcDbLine
 10
177.798416
 20
109.12796
 30
0.0
 11
180.696182
 21
108.351509
 31
0.0
210
0.0
220
0.0
230
1.0
  0
LINE
  5
8A
100
AcDbEntity
  8
0
 62
     7
 48
0.075
100
AcDbLine
 10
180.696182
 20
108.351509
 30
0.0
 11
181.472641
 21
111.249283
 31
0.0
210
0.0
220
0.0
230
1.0
  0
ARC
  5
8B
100
AcDbEntity
  8
0
 62
     7
100
AcDbCircle
 10
204.681244
 20
110.931633
 30
0.0
 40
33.5
210
0.0
220
0.0
230
1.0
100
AcDbArc
 50
122.908789
 51
237.091194
  0
ARC
  5
8C
100
AcDbEntity
  8
0
 62
     7
100
AcDbCircle
 10
204.681244
 20
110.931633
 30
0.0
 40
33.5
210
0.0
220
0.0
230
1.0
100
AcDbArc
 50
2.908796
 51
117.091202
  0
ARC
  5
8D
100
AcDbEntity
  8
0
 62
     7
100
AcDbCircle
 10
204.681244
 20
110.931633
 30
0.0
 40
33.5
210
0.0
220
0.0
230
1.0
100
AcDbArc
 50
242.908793
 51
357.091196
  0
LINE
  5
8E
100
AcDbEntity
  8
0
 62
     7
 48
0.073921
100
AcDbLine
 10
186.480576
 20
139.056107
 30
0.0
 11
187.959
 21
136.495407
 31
0.0
210
0.0
220
0.0
230
1.0
  0
LINE
  5
8F
100
AcDbEntity
  8
0
 62
     7
 48
0.085
100
AcDbLine
 10
190.903488
 20
138.195404
 30
0.0
 11
187.959
 21
136.495407
 31
0.0
210
0.0
220
0.0
230
1.0
  0
LINE
  5
90
100
AcDbEntity
  8
0
 62
     7
 48
0.073921
100
AcDbLine
 10
190.903488
 20
138.195404
 30
0.0
 11
189.425064
 21
140.756104
 31
0.0
210
0.0
220
0.0
230
1.0
  0
LINE
  5
91
100
AcDbEntity
  8
0
 62
     7
 48
0.073921
100
AcDbLine
 10
189.425064
 20
81.107162
 30
0.0
 11
190.903488
 21
83.667862
 31
0.0
210
0.0
220
0.0
230
1.0
  0
LINE
  5
92
100
AcDbEntity
  8
0
 62
     7
 48
0.085
100
AcDbLine
 10
187.959
 20
85.367859
 30
0.0
 11
190.903488
 21
83.667862
 31
0.0
210
0.0
220
0.0
230
1.0
  0
LINE
  5
93
100
AcDbEntity
  8
0
 62
     7
 48
0.073921
100
AcDbLine
 10
187.959
 20
85.367859
 30
0.0
 11
186.480576
 21
82.807159
 31
0.0
210
0.0
220
0.0
230
1.0
  0
LINE
  5
94
100
AcDbEntity
  8
0
 62
     7
 48
0.001218
100
AcDbLine
 10
215.755341
 20
133.328598
 30
0.0
 11
215.76796
 21
133.375671
 31
0.0
210
0.0
220
0.0
230
1.0
  0
ARC
  5
95
100
AcDbEntity
  8
0
 62
     7
100
AcDbCircle
 10
217.699814
 20
132.858032
 30
0.0
 40
2.0
210
0.0
220
0.0
230
1.0
100
AcDbArc
 50
59.300726
 51
164.999995
  0
LINE
  5
96
100
AcDbEntity
  8
0
 62
     7
 48
0.003941
100
AcDbLine
 10
206.675644
 20
135.761505
 30
0.0
 11
206.716446
 21
135.913788
 31
0.0
210
0.0
220
0.0
230
1.0
  0
ARC
  5
97
100
AcDbEntity
  8
0
 62
     7
100
AcDbCircle
 10
204.784592
 20
136.431427
 30
0.0
 40
2.0
210
0.0
220
0.0
230
1.0
100
AcDbArc
 50
345.000012
 51
89.767766
  0
LINE
  5
98
100
AcDbEntity
  8
0
 62
     7
 48
0.068254
100
AcDbLine
 10
181.472641
 20
111.249283
 30
0.0
 11
178.835526
 21
111.955894
 31
0.0
210
0.0
220
0.0
230
1.0
  0
ARC
  5
99
100
AcDbEntity
  8
0
 62
     7
100
AcDbCircle
 10
204.681244
 20
110.931633
 30
0.0
 40
27.5
210
0.0
220
0.0
230
1.0
100
AcDbArc
 50
89.767776
 51
173.342961
  0
ARC
  5
9A
100
AcDbEntity
  8
0
 62
     7
100
AcDbCircle
 10
179.353165
 20
113.887749
 30
0.0
 40
2.0
210
0.0
220
0.0
230
1.0
100
AcDbArc
 50
173.342961
 51
255.000004
  0
ARC
  5
9B
100
AcDbEntity
  8
0
 62
     7
100
AcDbCircle
 10
180.953949
 20
101.590057
 30
0.0
 40
2.0
210
0.0
220
0.0
230
1.0
100
AcDbArc
 50
163.156157
 51
201.489856
  0
ARC
  5
9C
100
AcDbEntity
  8
0
 62
     7
100
AcDbCircle
 10
204.681244
 20
110.931633
 30
0.0
 40
27.5
210
0.0
220
0.0
230
1.0
100
AcDbArc
 50
201.489856
 51
308.510136
  0
ARC
  5
9D
100
AcDbEntity
  8
0
 62
     7
100
AcDbCircle
 10
220.558899
 20
90.977936
 30
0.0
 40
2.0
210
0.0
220
0.0
230
1.0
100
AcDbArc
 50
308.510136
 51
346.843837
  0
ARC
  5
9E
100
AcDbEntity
  8
0
 62
     7
100
AcDbCircle
 10
228.094055
 20
100.827667
 30
0.0
 40
2.0
210
0.0
220
0.0
230
1.0
100
AcDbArc
 50
255.000004
 51
336.657046
  0
ARC
  5
9F
100
AcDbEntity
  8
0
 62
     7
100
AcDbCircle
 10
204.681244
 20
110.931633
 30
0.0
 40
27.5
210
0.0
220
0.0
230
1.0
100
AcDbArc
 50
336.657046
 51
59.300722
  0
LINE
  5
A0
100
AcDbEntity
  8
0
 62
     7
 48
0.068254
100
AcDbLine
 10
224.939301
 20
99.602425
 30
0.0
 11
227.576416
 21
98.895813
 31
0.0
210
0.0
220
0.0
230
1.0
  0
LINE
  5
A1
100
AcDbEntity
  8
0
 62
     7
100
AcDbLine
 10
230.176788
 20
150.895447
 30
0.0
 11
206.576782
 21
150.895447
 31
0.0
210
0.0
220
0.0
230
1.0
  0
LINE
  5
A2
100
AcDbEntity
  8
0
 62
     7
 48
0.325
100
AcDbLine
 10
206.576782
 20
150.895447
 30
0.0
 11
206.576782
 21
163.895447
 31
0.0
210
0.0
220
0.0
230
1.0
  0
LINE
  5
A3
100
AcDbEntity
  8
0
 62
     7
 48
0.085
100
AcDbLine
 10
206.576782
 20
163.895447
 30
0.0
 11
203.176788
 21
163.895447
 31
0.0
210
0.0
220
0.0
230
1.0
  0
LINE
  5
A4
100
AcDbEntity
  8
0
 62
     7
 48
0.0375
100
AcDbLine
 10
203.176788
 20
163.895447
 30
0.0
 11
203.176788
 21
162.395447
 31
0.0
210
0.0
220
0.0
230
1.0
  0
LINE
  5
A5
100
AcDbEntity
  8
0
 62
     7
 48
0.075
100
AcDbLine
 10
203.176788
 20
162.395447
 30
0.0
 11
200.176788
 21
162.395447
 31
0.0
210
0.0
220
0.0
230
1.0
  0
LINE
  5
A6
100
AcDbEntity
  8
0
 62
     7
 48
0.2125
100
AcDbLine
 10
200.176788
 20
162.395447
 30
0.0
 11
200.176788
 21
153.895447
 31
0.0
210
0.0
220
0.0
230
1.0
  0
LINE
  5
A7
100
AcDbEntity
  8
0
 62
     7
 48
0.075
100
AcDbLine
 10
200.176788
 20
153.895447
 30
0.0
 11
203.176788
 21
153.895447
 31
0.0
210
0.0
220
0.0
230
1.0
  0
LINE
  5
A8
100
AcDbEntity
  8
0
 62
     7
 48
0.075
100
AcDbLine
 10
203.176788
 20
153.895447
 30
0.0
 11
203.176788
 21
150.895447
 31
0.0
210
0.0
220
0.0
230
1.0
  0
LINE
  5
A9
100
AcDbEntity
  8
0
 62
     7
100
AcDbLine
 10
203.176788
 20
150.895447
 30
0.0
 11
179.176788
 21
150.895447
 31
0.0
210
0.0
220
0.0
230
1.0
  0
LINE
  5
AA
100
AcDbEntity
  8
0
 62
     7
 48
0.085
100
AcDbLine
 10
179.176788
 20
150.895447
 30
0.0
 11
179.176788
 21
154.295441
 31
0.0
210
0.0
220
0.0
230
1.0
  0
LINE
  5
AB
100
AcDbEntity
  8
0
 62
     7
 48
0.075
100
AcDbLine
 10
179.176788
 20
154.295441
 30
0.0
 11
176.176788
 21
154.295441
 31
0.0
210
0.0
220
0.0
230
1.0
  0
LINE
  5
AC
100
AcDbEntity
  8
0
 62
     7
 48
0.48
100
AcDbLine
 10
176.176788
 20
154.295441
 30
0.0
 11
176.176788
 21
173.495453
 31
0.0
210
0.0
220
0.0
230
1.0
  0
LINE
  5
AD
100
AcDbEntity
  8
0
 62
     7
 48
0.075
100
AcDbLine
 10
179.176788
 20
173.495453
 30
0.0
 11
176.176788
 21
173.495453
 31
0.0
210
0.0
220
0.0
230
1.0
  0
LINE
  5
AE
100
AcDbEntity
  8
0
 62
     7
 48
0.085
100
AcDbLine
 10
179.176788
 20
176.895447
 30
0.0
 11
179.176788
 21
173.495453
 31
0.0
210
0.0
220
0.0
230
1.0
  0
LINE
  5
AF
100
AcDbEntity
  8
0
 62
     7
100
AcDbLine
 10
179.176788
 20
176.895447
 30
0.0
 11
230.176788
 21
176.895447
 31
0.0
210
0.0
220
0.0
230
1.0
  0
LINE
  5
B0
100
AcDbEntity
  8
0
 62
     7
 48
0.085
100
AcDbLine
 10
230.176788
 20
173.495453
 30
0.0
 11
230.176788
 21
176.895447
 31
0.0
210
0.0
220
0.0
230
1.0
  0
LINE
  5
B1
100
AcDbEntity
  8
0
 62
     7
 48
0.075
100
AcDbLine
 10
233.176788
 20
173.495453
 30
0.0
 11
230.176788
 21
173.495453
 31
0.0
210
0.0
220
0.0
230
1.0
  0
LINE
  5
B2
100
AcDbEntity
  8
0
 62
     7
 48
0.48
100
AcDbLine
 10
233.176788
 20
173.495453
 30
0.0
 11
233.176788
 21
154.295441
 31
0.0
210
0.0
220
0.0
230
1.0
  0
LINE
  5
B3
100
AcDbEntity
  8
0
 62
     7
 48
0.075
100
AcDbLine
 10
230.176788
 20
154.295441
 30
0.0
 11
233.176788
 21
154.295441
 31
0.0
210
0.0
220
0.0
230
1.0
  0
LINE
  5
B4
100
AcDbEntity
  8
0
 62
     7
 48
0.085
100
AcDbLine
 10
230.176788
 20
150.895447
 30
0.0
 11
230.176788
 21
154.295441
 31
0.0
210
0.0
220
0.0
230
1.0
  0
LINE
  5
B5
100
AcDbEntity
  8
0
 62
     7
100
AcDbLine
 10
220.926788
 20
173.895447
 30
0.0
 11
200.926788
 21
173.895447
 31
0.0
210
0.0
220
0.0
230
1.0
  0
LINE
  5
B6
100
AcDbEntity
  8
0
 62
     7
 48
0.2125
100
AcDbLine
 10
200.926788
 20
165.395447
 30
0.0
 11
200.926788
 21
173.895447
 31
0.0
210
0.0
220
0.0
230
1.0
  0
LINE
  5
B7
100
AcDbEntity
  8
0
 62
     7
100
AcDbLine
 10
200.926788
 20
165.395447
 30
0.0
 11
220.926788
 21
165.395447
 31
0.0
210
0.0
220
0.0
230
1.0
  0
LINE
  5
B8
100
AcDbEntity
  8
0
 62
     7
 48
0.2125
100
AcDbLine
 10
220.926788
 20
173.895447
 30
0.0
 11
220.926788
 21
165.395447
 31
0.0
210
0.0
220
0.0
230
1.0
  0
LINE
  5
B9
100
AcDbEntity
  8
0
 62
     7
100
AcDbLine
 10
234.381042
 20
45.09409
 30
0.0
 11
191.781036
 21
45.09409
 31
0.0
210
0.0
220
0.0
230
1.0
  0
LINE
  5
BA
100
AcDbEntity
  8
0
 62
     7
 48
0.325
100
AcDbLine
 10
191.781036
 20
58.09409
 30
0.0
 11
191.781036
 21
45.09409
 31
0.0
210
0.0
220
0.0
230
1.0
  0
LINE
  5
BB
100
AcDbEntity
  8
0
 62
     7
 48
0.16
100
AcDbLine
 10
198.181046
 20
58.09409
 30
0.0
 11
191.781036
 21
58.09409
 31
0.0
210
0.0
220
0.0
230
1.0
  0
LINE
  5
BC
100
AcDbEntity
  8
0
 62
     7
 48
0.0375
100
AcDbLine
 10
198.181046
 20
59.59409
 30
0.0
 11
198.181046
 21
58.09409
 31
0.0
210
0.0
220
0.0
230
1.0
  0
LINE
  5
BD
100
AcDbEntity
  8
0
 62
     7
100
AcDbLine
 10
218.181046
 20
59.59409
 30
0.0
 11
198.181046
 21
59.59409
 31
0.0
210
0.0
220
0.0
230
1.0
  0
LINE
  5
BE
100
AcDbEntity
  8
0
 62
     7
 48
0.2125
100
AcDbLine
 10
218.181046
 20
68.094086
 30
0.0
 11
218.181046
 21
59.59409
 31
0.0
210
0.0
220
0.0
230
1.0
  0
LINE
  5
BF
100
AcDbEntity
  8
0
 62
     7
100
AcDbLine
 10
198.181046
 20
68.094086
 30
0.0
 11
218.181046
 21
68.094086
 31
0.0
210
0.0
220
0.0
230
1.0
  0
LINE
  5
C0
100
AcDbEntity
  8
0
 62
     7
 48
0.075
100
AcDbLine
 10
198.181046
 20
71.094086
 30
0.0
 11
198.181046
 21
68.094086
 31
0.0
210
0.0
220
0.0
230
1.0
  0
LINE
  5
C1
100
AcDbEntity
  8
0
 62
     7
100
AcDbLine
 10
198.181046
 20
71.094086
 30
0.0
 11
234.381042
 21
71.094086
 31
0.0
210
0.0
220
0.0
230
1.0
  0
LINE
  5
C2
100
AcDbEntity
  8
0
 62
     7
 48
0.085
100
AcDbLine
 10
234.381042
 20
67.694092
 30
0.0
 11
234.381042
 21
71.094086
 31
0.0
210
0.0
220
0.0
230
1.0
  0
LINE
  5
C3
100
AcDbEntity
  8
0
 62
     7
 48
0.075
100
AcDbLine
 10
237.381042
 20
67.694092
 30
0.0
 11
234.381042
 21
67.694092
 31
0.0
210
0.0
220
0.0
230
1.0
  0
LINE
  5
C4
100
AcDbEntity
  8
0
 62
     7
 48
0.48
100
AcDbLine
 10
237.381042
 20
67.694092
 30
0.0
 11
237.381042
 21
48.494091
 31
0.0
210
0.0
220
0.0
230
1.0
  0
LINE
  5
C5
100
AcDbEntity
  8
0
 62
     7
 48
0.075
100
AcDbLine
 10
237.381042
 20
48.494091
 30
0.0
 11
234.381042
 21
48.494091
 31
0.0
210
0.0
220
0.0
230
1.0
  0
LINE
  5
C6
100
AcDbEntity
  8
0
 62
     7
 48
0.085
100
AcDbLine
 10
234.381042
 20
48.494091
 30
0.0
 11
234.381042
 21
45.09409
 31
0.0
210
0.0
220
0.0
230
1.0
  0
LINE
  5
C7
100
AcDbEntity
  8
0
 62
     7
100
AcDbLine
 10
220.631042
 20
56.59409
 30
0.0
 11
200.631042
 21
56.59409
 31
0.0
210
0.0
220
0.0
230
1.0
  0
LINE
  5
C8
100
AcDbEntity
  8
0
 62
     7
 48
0.2125
100
AcDbLine
 10
200.631042
 20
48.09409
 30
0.0
 11
200.631042
 21
56.59409
 31
0.0
210
0.0
220
0.0
230
1.0
  0
LINE
  5
C9
100
AcDbEntity
  8
0
 62
     7
100
AcDbLine
 10
200.631042
 20
48.09409
 30
0.0
 11
220.631042
 21
48.09409
 31
0.0
210
0.0
220
0.0
230
1.0
  0
LINE
  5
CA
100
AcDbEntity
  8
0
 62
     7
 48
0.2125
100
AcDbLine
 10
220.631042
 20
56.59409
 30
0.0
 11
220.631042
 21
48.09409
 31
0.0
210
0.0
220
0.0
230
1.0
  0
LINE
  5
CB
100
AcDbEntity
  8
0
 62
     7
 48
0.242641
100
AcDbLine
 10
113.379478
 20
0.29945
 30
0.0
 11
120.242393
 21
7.162365
 31
0.0
210
0.0
220
0.0
230
1.0
  0
LINE
  5
CC
100
AcDbEntity
  8
0
 62
     7
 48
0.492641
100
AcDbLine
 10
106.308411
 20
0.29945
 30
0.0
 11
120.242393
 21
14.233433
 31
0.0
210
0.0
220
0.0
230
1.0
  0
LINE
  5
CD
100
AcDbEntity
  8
0
 62
     7
100
AcDbLine
 10
99.237343
 20
0.29945
 30
0.0
 11
120.242393
 21
21.304501
 31
0.0
210
0.0
220
0.0
230
1.0
  0
LINE
  5
CE
100
AcDbEntity
  8
0
 62
     7
100
AcDbLine
 10
92.166275
 20
0.29945
 30
0.0
 11
120.242393
 21
28.375568
 31
0.0
210
0.0
220
0.0
230
1.0
  0
LINE
  5
CF
100
AcDbEntity
  8
0
 62
     7
100
AcDbLine
 10
85.095207
 20
0.29945
 30
0.0
 11
120.242393
 21
35.446636
 31
0.0
210
0.0
220
0.0
230
1.0
  0
LINE
  5
D0
100
AcDbEntity
  8
0
 62
     7
100
AcDbLine
 10
78.024139
 20
0.29945
 30
0.0
 11
120.242393
 21
42.517704
 31
0.0
210
0.0
220
0.0
230
1.0
  0
LINE
  5
D1
100
AcDbEntity
  8
0
 62
     7
100
AcDbLine
 10
70.953072
 20
0.29945
 30
0.0
 11
120.242393
 21
49.588772
 31
0.0
210
0.0
220
0.0
230
1.0
  0
LINE
  5
D2
100
AcDbEntity
  8
0
 62
     7
100
AcDbLine
 10
63.882004
 20
0.29945
 30
0.0
 11
120.242393
 21
56.65984
 31
0.0
210
0.0
220
0.0
230
1.0
  0
LINE
  5
D3
100
AcDbEntity
  8
0
 62
     7
100
AcDbLine
 10
56.810936
 20
0.29945
 30
0.0
 11
120.242393
 21
63.730907
 31
0.0
210
0.0
220
0.0
230
1.0
  0
LINE
  5
D4
100
AcDbEntity
  8
0
 62
     7
100
AcDbLine
 10
49.739868
 20
0.29945
 30
0.0
 11
120.242393
 21
70.801979
 31
0.0
210
0.0
220
0.0
230
1.0
  0
LINE
  5
D5
100
AcDbEntity
  8
0
 62
     7
100
AcDbLine
 10
42.6688
 20
0.29945
 30
0.0
 11
120.242393
 21
77.873047
 31
0.0
210
0.0
220
0.0
230
1.0
  0
LINE
  5
D6
100
AcDbEntity
  8
0
 62
     7
100
AcDbLine
 10
35.597733
 20
0.29945
 30
0.0
 11
120.242393
 21
84.944115
 31
0.0
210
0.0
220
0.0
230
1.0
  0
LINE
  5
D7
100
AcDbEntity
  8
0
 62
     7
100
AcDbLine
 10
28.526665
 20
0.29945
 30
0.0
 11
120.242393
 21
92.015182
 31
0.0
210
0.0
220
0.0
230
1.0
  0
LINE
  5
D8
100
AcDbEntity
  8
0
 62
     7
100
AcDbLine
 10
21.455597
 20
0.29945
 30
0.0
 11
120.242393
 21
99.08625
 31
0.0
210
0.0
220
0.0
230
1.0
  0
LINE
  5
D9
100
AcDbEntity
  8
0
 62
     7
100
AcDbLine
 10
14.38453
 20
0.29945
 30
0.0
 11
120.242393
 21
106.157318
 31
0.0
210
0.0
220
0.0
230
1.0
  0
LINE
  5
DA
100
AcDbEntity
  8
0
 62
     7
100
AcDbLine
 10
7.313462
 20
0.29945
 30
0.0
 11
120.242393
 21
113.228386
 31
0.0
210
0.0
220
0.0
230
1.0
  0
LINE
  5
DB
100
AcDbEntity
  8
0
 62
     7
100
AcDbLine
 10
0.242394
 20
0.29945
 30
0.0
 11
120.242393
 21
120.299454
 31
0.0
210
0.0
220
0.0
230
1.0
  0
LINE
  5
DC
100
AcDbEntity
  8
0
 62
     7
100
AcDbLine
 10
0.242394
 20
7.370518
 30
0.0
 11
113.171326
 21
120.299454
 31
0.0
210
0.0
220
0.0
230
1.0
  0
LINE
  5
DD
100
AcDbEntity
  8
0
 62
     7
100
AcDbLine
 10
0.242394
 20
14.441586
 30
0.0
 11
106.100258
 21
120.299454
 31
0.0
210
0.0
220
0.0
230
1.0
  0
LINE
  5
DE
100
AcDbEntity
  8
0
 62
     7
100
AcDbLine
 10
0.242394
 20
21.512653
 30
0.0
 11
99.02919
 21
120.299454
 31
0.0
210
0.0
220
0.0
230
1.0
  0
LINE
  5
DF
100
AcDbEntity
  8
0
 62
     7
100
AcDbLine
 10
0.242394
 20
28.583721
 30
0.0
 11
91.958122
 21
120.299454
 31
0.0
210
0.0
220
0.0
230
1.0
  0
LINE
  5
E0
100
AcDbEntity
  8
0
 62
     7
100
AcDbLine
 10
0.242394
 20
35.654789
 30
0.0
 11
84.887054
 21
120.299454
 31
0.0
210
0.0
220
0.0
230
1.0
  0
LINE
  5
E1
100
AcDbEntity
  8
0
 62
     7
100
AcDbLine
 10
0.242394
 20
42.725857
 30
0.0
 11
77.815987
 21
120.299454
 31
0.0
210
0.0
220
0.0
230
1.0
  0
LINE
  5
E2
100
AcDbEntity
  8
0
 62
     7
100
AcDbLine
 10
0.242394
 20
49.796925
 30
0.0
 11
70.744919
 21
120.299454
 31
0.0
210
0.0
220
0.0
230
1.0
  0
LINE
  5
E3
100
AcDbEntity
  8
0
 62
     7
100
AcDbLine
 10
0.242394
 20
56.867992
 30
0.0
 11
63.673851
 21
120.299454
 31
0.0
210
0.0
220
0.0
230
1.0
  0
LINE
  5
E4
100
AcDbEntity
  8
0
 62
     7
100
AcDbLine
 10
0.242394
 20
63.93906
 30
0.0
 11
56.602783
 21
120.299454
 31
0.0
210
0.0
220
0.0
230
1.0
  0
LINE
  5
E5
100
AcDbEntity
  8
0
 62
     7
100
AcDbLine
 10
0.242394
 20
71.010132
 30
0.0
 11
49.531715
 21
120.299454
 31
0.0
210
0.0
220
0.0
230
1.0
  0
LINE
  5
E6
100
AcDbEntity
  8
0
 62
     7
100
AcDbLine
 10
0.242394
 20
78.0812
 30
0.0
 11
42.460648
 21
120.299454
 31
0.0
210
0.0
220
0.0
230
1.0
  0
LINE
  5
E7
100
AcDbEntity
  8
0
 62
     7
100
AcDbLine
 10
0.242394
 20
85.152267
 30
0.0
 11
35.38958
 21
120.299454
 31
0.0
210
0.0
220
0.0
230
1.0
  0
LINE
  5
E8
100
AcDbEntity
  8
0
 62
     7
100
AcDbLine
 10
0.242394
 20
92.223335
 30
0.0
 11
28.318512
 21
120.299454
 31
0.0
210
0.0
220
0.0
230
1.0
  0
LINE
  5
E9
100
AcDbEntity
  8
0
 62
     7
100
AcDbLine
 10
0.242394
 20
99.294403
 30
0.0
 11
21.247444
 21
120.299454
 31
0.0
210
0.0
220
0.0
230
1.0
  0
LINE
  5
EA
100
AcDbEntity
  8
0
 62
     7
 48
0.492641
100
AcDbLine
 10
0.242394
 20
106.365471
 30
0.0
 11
14.176377
 21
120.299454
 31
0.0
210
0.0
220
0.0
230
1.0
  0
LINE
  5
EB
100
AcDbEntity
  8
0
 62
     7
 48
0.242641
100
AcDbLine
 10
0.242394
 20
113.436539
 30
0.0
 11
7.105309
 21
120.299454
 31
0.0
210
0.0
220
0.0
230
1.0
  0
LINE
  5
EC
100
AcDbEntity
  8
0
 62
     7
 48
0.075099
100
AcDbLine
 10
113.278603
 20
169.904205
 30
0.0
 11
115.402718
 21
172.02832
 31
0.0
210
0.0
220
0.0
230
1.0
  0
LINE
  5
ED
100
AcDbEntity
  8
0
 62
     7
 48
0.325099
100
AcDbLine
 10
106.207535
 20
169.904205
 30
0.0
 11
115.402718
 21
179.099396
 31
0.0
210
0.0
220
0.0
230
1.0
  0
LINE
  5
EE
100
AcDbEntity
  8
0
 62
     7
100
AcDbLine
 10
99.136467
 20
169.904205
 30
0.0
 11
115.402718
 21
186.170456
 31
0.0
210
0.0
220
0.0
230
1.0
  0
LINE
  5
EF
100
AcDbEntity
  8
0
 62
     7
100
AcDbLine
 10
92.065399
 20
169.904205
 30
0.0
 11
115.402718
 21
193.241531
 31
0.0
210
0.0
220
0.0
230
1.0
  0
LINE
  5
F0
100
AcDbEntity
  8
0
 62
     7
100
AcDbLine
 10
84.994331
 20
169.904205
 30
0.0
 11
114.994331
 21
199.904205
 31
0.0
210
0.0
220
0.0
230
1.0
  0
LINE
  5
F1
100
AcDbEntity
  8
0
 62
     7
100
AcDbLine
 10
77.923264
 20
169.904205
 30
0.0
 11
107.923264
 21
199.904205
 31
0.0
210
0.0
220
0.0
230
1.0
  0
LINE
  5
F2
100
AcDbEntity
  8
0
 62
     7
100
AcDbLine
 10
70.852196
 20
169.904205
 30
0.0
 11
100.852196
 21
199.904205
 31
0.0
210
0.0
220
0.0
230
1.0
  0
LINE
  5
F3
100
AcDbEntity
  8
0
 62
     7
100
AcDbLine
 10
63.781128
 20
169.904205
 30
0.0
 11
93.781128
 21
199.904205
 31
0.0
210
0.0
220
0.0
230
1.0
  0
LINE
  5
F4
100
AcDbEntity
  8
0
 62
     7
100
AcDbLine
 10
56.71006
 20
169.904205
 30
0.0
 11
86.71006
 21
199.904205
 31
0.0
210
0.0
220
0.0
230
1.0
  0
LINE
  5
F5
100
AcDbEntity
  8
0
 62
     7
100
AcDbLine
 10
49.638992
 20
169.904205
 30
0.0
 11
79.638992
 21
199.904205
 31
0.0
210
0.0
220
0.0
230
1.0
  0
LINE
  5
F6
100
AcDbEntity
  8
0
 62
     7
100
AcDbLine
 10
42.567924
 20
169.904205
 30
0.0
 11
72.567924
 21
199.904205
 31
0.0
210
0.0
220
0.0
230
1.0
  0
LINE
  5
F7
100
AcDbEntity
  8
0
 62
     7
100
AcDbLine
 10
35.496857
 20
169.904205
 30
0.0
 11
65.496857
 21
199.904205
 31
0.0
210
0.0
220
0.0
230
1.0
  0
LINE
  5
F8
100
AcDbEntity
  8
0
 62
     7
100
AcDbLine
 10
28.425789
 20
169.904205
 30
0.0
 11
58.425789
 21
199.904205
 31
0.0
210
0.0
220
0.0
230
1.0
  0
LINE
  5
F9
100
AcDbEntity
  8
0
 62
     7
100
AcDbLine
 10
21.354721
 20
169.904205
 30
0.0
 11
51.354721
 21
199.904205
 31
0.0
210
0.0
220
0.0
230
1.0
  0
LINE
  5
FA
100
AcDbEntity
  8
0
 62
     7
100
AcDbLine
 10
14.283654
 20
169.904205
 30
0.0
 11
44.283653
 21
199.904205
 31
0.0
210
0.0
220
0.0
230
1.0
  0
LINE
  5
FB
100
AcDbEntity
  8
0
 62
     7
100
AcDbLine
 10
7.212586
 20
169.904205
 30
0.0
 11
37.212585
 21
199.904205
 31
0.0
210
0.0
220
0.0
230
1.0
  0
LINE
  5
FC
100
AcDbEntity
  8
0
 62
     7
100
AcDbLine
 10
0.402722
 20
170.165405
 30
0.0
 11
30.141518
 21
199.904205
 31
0.0
210
0.0
220
0.0
230
1.0
  0
LINE
  5
FD
100
AcDbEntity
  8
0
 62
     7
100
AcDbLine
 10
0.402722
 20
177.236481
 30
0.0
 11
23.07045
 21
199.904205
 31
0.0
210
0.0
220
0.0
230
1.0
  0
LINE
  5
FE
100
AcDbEntity
  8
0
 62
     7
100
AcDbLine
 10
0.402722
 20
184.307541
 30
0.0
 11
15.999383
 21
199.904205
 31
0.0
210
0.0
220
0.0
230
1.0
  0
LINE
  5
FF
100
AcDbEntity
  8
0
 62
     7
 48
0.301425
100
AcDbLine
 10
0.402722
 20
191.378616
 30
0.0
 11
8.928315
 21
199.904205
 31
0.0
210
0.0
220
0.0
230
1.0
  0
LINE
  5
100
100
AcDbEntity
  8
0
 62
     7
 48
0.051425
100
AcDbLine
 10
0.402722
 20
198.449677
 30
0.0
 11
1.857247
 21
199.904205
 31
0.0
210
0.0
220
0.0
230
1.0
  0
LINE
  5
101
100
AcDbEntity
  8
0
 62
     7
 48
0.143056
100
AcDbLine
 10
240.822189
 20
0.462928
 30
0.0
 11
244.868408
 21
4.509151
 31
0.0
210
0.0
220
0.0
230
1.0
  0
LINE
  5
102
100
AcDbEntity
  8
0
 62
     7
 48
0.393056
100
AcDbLine
 10
233.751114
 20
0.462928
 30
0.0
 11
244.868408
 21
11.580219
 31
0.0
210
0.0
220
0.0
230
1.0
  0
LINE
  5
103
100
AcDbEntity
  8
0
 62
     7
100
AcDbLine
 10
226.680054
 20
0.462928
 30
0.0
 11
244.868408
 21
18.651287
 31
0.0
210
0.0
220
0.0
230
1.0
  0
LINE
  5
104
100
AcDbEntity
  8
0
 62
     7
100
AcDbLine
 10
219.608978
 20
0.462928
 30
0.0
 11
244.868408
 21
25.722355
 31
0.0
210
0.0
220
0.0
230
1.0
  0
LINE
  5
105
100
AcDbEntity
  8
0
 62
     7
100
AcDbLine
 10
212.537918
 20
0.462928
 30
0.0
 11
242.537918
 21
30.462929
 31
0.0
210
0.0
220
0.0
230
1.0
  0
LINE
  5
106
100
AcDbEntity
  8
0
 62
     7
100
AcDbLine
 10
205.466843
 20
0.462928
 30
0.0
 11
235.466843
 21
30.462929
 31
0.0
210
0.0
220
0.0
230
1.0
  0
LINE
  5
107
100
AcDbEntity
  8
0
 62
     7
100
AcDbLine
 10
198.395782
 20
0.462928
 30
0.0
 11
228.395782
 21
30.462929
 31
0.0
210
0.0
220
0.0
230
1.0
  0
LINE
  5
108
100
AcDbEntity
  8
0
 62
     7
100
AcDbLine
 10
191.324707
 20
0.462928
 30
0.0
 11
221.324707
 21
30.462929
 31
0.0
210
0.0
220
0.0
230
1.0
  0
LINE
  5
109
100
AcDbEntity
  8
0
 62
     7
100
AcDbLine
 10
184.253647
 20
0.462928
 30
0.0
 11
214.253647
 21
30.462929
 31
0.0
210
0.0
220
0.0
230
1.0
  0
LINE
  5
10A
100
AcDbEntity
  8
0
 62
     7
100
AcDbLine
 10
177.182571
 20
0.462928
 30
0.0
 11
207.182571
 21
30.462929
 31
0.0
210
0.0
220
0.0
230
1.0
  0
LINE
  5
10B
100
AcDbEntity
  8
0
 62
     7
100
AcDbLine
 10
170.111511
 20
0.462928
 30
0.0
 11
200.111511
 21
30.462929
 31
0.0
210
0.0
220
0.0
230
1.0
  0
LINE
  5
10C
100
AcDbEntity
  8
0
 62
     7
100
AcDbLine
 10
163.040436
 20
0.462928
 30
0.0
 11
193.040436
 21
30.462929
 31
0.0
210
0.0
220
0.0
230
1.0
  0
LINE
  5
10D
100
AcDbEntity
  8
0
 62
     7
100
AcDbLine
 10
155.969376
 20
0.462928
 30
0.0
 11
185.969376
 21
30.462929
 31
0.0
210
0.0
220
0.0
230
1.0
  0
LINE
  5
10E
100
AcDbEntity
  8
0
 62
     7
100
AcDbLine
 10
148.8983
 20
0.462928
 30
0.0
 11
178.8983
 21
30.462929
 31
0.0
210
0.0
220
0.0
230
1.0
  0
LINE
  5
10F
100
AcDbEntity
  8
0
 62
     7
100
AcDbLine
 10
141.82724
 20
0.462928
 30
0.0
 11
171.82724
 21
30.462929
 31
0.0
210
0.0
220
0.0
230
1.0
  0
LINE
  5
110
100
AcDbEntity
  8
0
 62
     7
100
AcDbLine
 10
134.756165
 20
0.462928
 30
0.0
 11
164.756165
 21
30.462929
 31
0.0
210
0.0
220
0.0
230
1.0
  0
LINE
  5
111
100
AcDbEntity
  8
0
 62
     7
100
AcDbLine
 10
129.868408
 20
2.646236
 30
0.0
 11
157.685104
 21
30.462929
 31
0.0
210
0.0
220
0.0
230
1.0
  0
LINE
  5
112
100
AcDbEntity
  8
0
 62
     7
100
AcDbLine
 10
129.868408
 20
9.717304
 30
0.0
 11
150.614029
 21
30.462929
 31
0.0
210
0.0
220
0.0
230
1.0
  0
LINE
  5
113
100
AcDbEntity
  8
0
 62
     7
 48
0.483469
100
AcDbLine
 10
129.868408
 20
16.788372
 30
0.0
 11
143.542969
 21
30.462929
 31
0.0
210
0.0
220
0.0
230
1.0
  0
LINE
  5
114
100
AcDbEntity
  8
0
 62
     7
 48
0.233469
100
AcDbLine
 10
129.868408
 20
23.85944
 30
0.0
 11
136.471893
 21
30.462929
 31
0.0
210
0.0
220
0.0
230
1.0
  0
LINE
  5
115
100
AcDbEntity
  8
0
 62
     7
100
AcDbLine
 10
0.242394
 20
0.29945
 30
0.0
 11
120.242393
 21
0.29945
 31
0.0
210
0.0
220
0.0
230
1.0
  0
LINE
  5
116
100
AcDbEntity
  8
0
 62
     7
100
AcDbLine
 10
120.242393
 20
0.29945
 30
0.0
 11
120.242393
 21
120.299454
 31
0.0
210
0.0
220
0.0
230
1.0
  0
LINE
  5
117
100
AcDbEntity
  8
0
 62
     7
100
AcDbLine
 10
120.242393
 20
120.299454
 30
0.0
 11
0.242394
 21
120.299454
 31
0.0
210
0.0
220
0.0
230
1.0
  0
LINE
  5
118
100
AcDbEntity
  8
0
 62
     7
100
AcDbLine
 10
0.242394
 20
120.299454
 30
0.0
 11
0.242394
 21
0.29945
 31
0.0
210
0.0
220
0.0
230
1.0
  0
LINE
  5
119
100
AcDbEntity
  8
0
 62
     7
100
AcDbLine
 10
0.402722
 20
169.904205
 30
0.0
 11
115.402718
 21
169.904205
 31
0.0
210
0.0
220
0.0
230
1.0
  0
LINE
  5
11A
100
AcDbEntity
  8
0
 62
     7
100
AcDbLine
 10
115.402718
 20
169.904205
 30
0.0
 11
115.402718
 21
199.904205
 31
0.0
210
0.0
220
0.0
230
1.0
  0
LINE
  5
11B
100
AcDbEntity
  8
0
 62
     7
100
AcDbLine
 10
115.402718
 20
199.904205
 30
0.0
 11
0.402722
 21
199.904205
 31
0.0
210
0.0
220
0.0
230
1.0
  0
LINE
  5
11C
100
AcDbEntity
  8
0
 62
     7
100
AcDbLine
 10
0.402722
 20
199.904205
 30
0.0
 11
0.402722
 21
169.904205
 31
0.0
210
0.0
220
0.0
230
1.0
  0
LINE
  5
11D
100
AcDbEntity
  8
0
 62
     7
100
AcDbLine
 10
129.868408
 20
0.462928
 30
0.0
 11
244.868408
 21
0.462928
 31
0.0
210
0.0
220
0.0
230
1.0
  0
LINE
  5
11E
100
AcDbEntity
  8
0
 62
     7
100
AcDbLine
 10
244.868408
 20
0.462928
 30
0.0
 11
244.868408
 21
30.462929
 31
0.0
210
0.0
220
0.0
230
1.0
  0
LINE
  5
11F
100
AcDbEntity
  8
0
 62
     7
100
AcDbLine
 10
244.868408
 20
30.462929
 30
0.0
 11
129.868408
 21
30.462929
 31
0.0
210
0.0
220
0.0
230
1.0
  0
LINE
  5
120
100
AcDbEntity
  8
0
 62
     7
100
AcDbLine
 10
129.868408
 20
30.462929
 30
0.0
 11
129.868408
 21
0.462928
 31
0.0
210
0.0
220
0.0
230
1.0
  0
ENDSEC
  0
SECTION
  2
OBJECTS
  0
DICTIONARY
  5
19
100
AcDbDictionary
  3
ACAD_GROUP
350
1A
  3
ACAD_MLINESTYLE
350
1B
  0
DICTIONARY
  5
1A
102
{ACAD_REACTORS
330
19
102
}
100
AcDbDictionary
  0
DICTIONARY
  5
1B
102
{ACAD_REACTORS
330
19
102
}
100
AcDbDictionary
  3
STANDARD
350
1C
  0
MLINESTYLE
  5
1C
102
{ACAD_REACTORS
330
1B
102
}
100
AcDbMlineStyle
  2
STANDARD
 70
     0
  3

 62
     0
 51
90.0
 52
90.0
 71
     2
 49
0.5
 62
   256
  6
BYLAYER
 49
-0.5
 62
   256
  6
BYLAYER
  0
ENDSEC
  0
EOF
