  0
SECTION
  2
HEADER
  9
$ACADVER
  1
AC1015
  9
$ACADMAINTVER
 70
     6
  9
$DWGCODEPAGE
  3
ANSI_1252
  9
$INSBASE
 10
0.0
 20
0.0
 30
0.0
  9
$EXTMIN
 10
0.0
 20
0.0
 30
0.0
  9
$EXTMAX
 10
480.0
 20
230.0
 30
2.0
  9
$LIMMIN
 10
0.0
 20
0.0
  9
$LIMMAX
 10
420.0
 20
297.0
  9
$ORTHOMODE
 70
     0
  9
$REGENMODE
 70
     1
  9
$FILLMODE
 70
     1
  9
$QTEXTMODE
 70
     0
  9
$MIRRTEXT
 70
     1
  9
$LTSCALE
 40
1.0
  9
$ATTMODE
 70
     1
  9
$TEXTSIZE
 40
2.5
  9
$TRACEWID
 40
1.0
  9
$TEXTSTYLE
  7
Standard
  9
$CLAYER
  8
0
  9
$CELTYPE
  6
ByLayer
  9
$CECOLOR
 62
   256
  9
$CELTSCALE
 40
1.0
  9
$DISPSILH
 70
     0
  9
$DIMSCALE
 40
1.0
  9
$DIMASZ
 40
2.5
  9
$DIMEXO
 40
0.625
  9
$DIMDLI
 40
3.75
  9
$DIMRND
 40
0.0
  9
$DIMDLE
 40
0.0
  9
$DIMEXE
 40
1.25
  9
$DIMTP
 40
0.0
  9
$DIMTM
 40
0.0
  9
$DIMTXT
 40
2.5
  9
$DIMCEN
 40
2.5
  9
$DIMTSZ
 40
0.0
  9
$DIMTOL
 70
     0
  9
$DIMLIM
 70
     0
  9
$DIMTIH
 70
     0
  9
$DIMTOH
 70
     0
  9
$DIMSE1
 70
     0
  9
$DIMSE2
 70
     0
  9
$DIMTAD
 70
     1
  9
$DIMZIN
 70
     8
  9
$DIMBLK
  1

  9
$DIMASO
 70
     1
  9
$DIMSHO
 70
     1
  9
$DIMPOST
  1

  9
$DIMAPOST
  1

  9
$DIMALT
 70
     0
  9
$DIMALTD
 70
     3
  9
$DIMALTF
 40
0.03937
  9
$DIMLFAC
 40
1.0
  9
$DIMTOFL
 70
     1
  9
$DIMTVP
 40
0.0
  9
$DIMTIX
 70
     0
  9
$DIMSOXD
 70
     0
  9
$DIMSAH
 70
     0
  9
$DIMBLK1
  1

  9
$DIMBLK2
  1

  9
$DIMSTYLE
  2

  9
$DIMCLRD
 70
     0
  9
$DIMCLRE
 70
     0
  9
$DIMCLRT
 70
     0
  9
$DIMTFAC
 40
1.0
  9
$DIMGAP
 40
0.625
  9
$DIMJUST
 70
     0
  9
$DIMSD1
 70
     0
  9
$DIMSD2
 70
     0
  9
$DIMTOLJ
 70
     0
  9
$DIMTZIN
 70
     8
  9
$DIMALTZ
 70
     0
  9
$DIMALTTZ
 70
     0
  9
$DIMUPT
 70
     0
  9
$DIMDEC
 70
     2
  9
$DIMTDEC
 70
     2
  9
$DIMALTU
 70
     2
  9
$DIMALTTD
 70
     3
  9
$DIMTXSTY
  7
Standard
  9
$DIMAUNIT
 70
     0
  9
$DIMADEC
 70
     0
  9
$DIMALTRND
 40
0.0
  9
$DIMAZIN
 70
     0
  9
$DIMDSEP
 70
    44
  9
$DIMATFIT
 70
     0
  9
$DIMFRAC
 70
     0
  9
$DIMLDRBLK
  1

  9
$DIMLUNIT
 70
     2
  9
$DIMLWD
 70
    -2
  9
$DIMLWE
 70
    -2
  9
$DIMTMOVE
 70
     0
  9
$LUNITS
 70
     2
  9
$LUPREC
 70
     4
  9
$SKETCHINC
 40
1.0
  9
$FILLETRAD
 40
2.5
  9
$AUNITS
 70
     0
  9
$AUPREC
 70
     0
  9
$MENU
  1
.
  9
$ELEVATION
 40
0.0
  9
$PELEVATION
 40
0.0
  9
$THICKNESS
 40
0.0
  9
$LIMCHECK
 70
     0
  9
$CHAMFERA
 40
2.5
  9
$CHAMFERB
 40
2.5
  9
$CHAMFERC
 40
0.0
  9
$CHAMFERD
 40
0.0
  9
$SKPOLY
 70
     0
  9
$TDCREATE
 40
0.000000000
  9
$TDUCREATE
 40
0.000000000
  9
$TDUPDATE
 40
0.000000000
  9
$TDUUPDATE
 40
0.000000000
  9
$TDINDWG
 40
0.0000000000
  9
$TDUSRTIMER
 40
0.0000000000
  9
$USRTIMER
 70
     1
  9
$ANGBASE
 50
0.0
  9
$ANGDIR
 70
     0
  9
$PDMODE
 70
     0
  9
$PDSIZE
 40
0.0
  9
$PLINEWID
 40
0.0
  9
$SPLFRAME
 70
     0
  9
$SPLINETYPE
 70
     6
  9
$SPLINESEGS
 70
     8
  9
$HANDSEED
  5
30B
  9
$SURFTAB1
 70
     6
  9
$SURFTAB2
 70
     6
  9
$SURFTYPE
 70
     6
  9
$SURFU
 70
     6
  9
$SURFV
 70
     6
  9
$UCSBASE
  2

  9
$UCSNAME
  2

  9
$UCSORG
 10
0.0
 20
0.0
 30
0.0
  9
$UCSXDIR
 10
1.0
 20
0.0
 30
0.0
  9
$UCSYDIR
 10
0.0
 20
1.0
 30
0.0
  9
$UCSORTHOREF
  2

  9
$UCSORTHOVIEW
 70
     1
  9
$UCSORGTOP
 10
0.0
 20
0.0
 30
0.0
  9
$UCSORGBOTTOM
 10
0.0
 20
0.0
 30
0.0
  9
$UCSORGLEFT
 10
0.0
 20
0.0
 30
0.0
  9
$UCSORGRIGHT
 10
0.0
 20
0.0
 30
0.0
  9
$UCSORGFRONT
 10
0.0
 20
0.0
 30
0.0
  9
$UCSORGBACK
 10
0.0
 20
0.0
 30
0.0
  9
$PUCSBASE
  2

  9
$PUCSNAME
  2

  9
$PUCSORG
 10
0.0
 20
0.0
 30
0.0
  9
$PUCSXDIR
 10
1.0
 20
0.0
 30
0.0
  9
$PUCSYDIR
 10
0.0
 20
1.0
 30
0.0
  9
$PUCSORTHOREF
  2

  9
$PUCSORTHOVIEW
 70
     0
  9
$PUCSORGTOP
 10
0.0
 20
0.0
 30
0.0
  9
$PUCSORGBOTTOM
 10
0.0
 20
0.0
 30
0.0
  9
$PUCSORGLEFT
 10
0.0
 20
0.0
 30
0.0
  9
$PUCSORGRIGHT
 10
0.0
 20
0.0
 30
0.0
  9
$PUCSORGFRONT
 10
0.0
 20
0.0
 30
0.0
  9
$PUCSORGBACK
 10
0.0
 20
0.0
 30
0.0
  9
$USERI1
 70
     0
  9
$USERI2
 70
     0
  9
$USERI3
 70
     0
  9
$USERI4
 70
     0
  9
$USERI5
 70
     0
  9
$USERR1
 40
0.0
  9
$USERR2
 40
0.0
  9
$USERR3
 40
0.0
  9
$USERR4
 40
0.0
  9
$USERR5
 40
0.0
  9
$WORLDVIEW
 70
     1
  9
$SHADEDGE
 70
     3
  9
$SHADEDIF
 70
    70
  9
$TILEMODE
 70
     1
  9
$MAXACTVP
 70
    48
  9
$PINSBASE
 10
0.0
 20
0.0
 30
0.0
  9
$PLIMCHECK
 70
     0
  9
$PEXTMIN
 10
0.0
 20
0.0
 30
0.0
  9
$PEXTMAX
 10
480.0
 20
230.0
 30
2.0
  9
$PLIMMIN
 10
0.0
 20
0.0
  9
$PLIMMAX
 10
420.0
 20
297.0
  9
$UNITMODE
 70
     0
  9
$VISRETAIN
 70
     0
  9
$PLINEGEN
 70
     0
  9
$PSLTSCALE
 70
     1
  9
$TREEDEPTH
 70
  3020
  9
$CMLSTYLE
  2
Standard
  9
$CMLJUST
 70
     0
  9
$CMLSCALE
 40
20.0
  9
$PROXYGRAPHICS
 70
     1
  9
$MEASUREMENT
 70
     1
  9
$CELWEIGHT
370
    -1
  9
$ENDCAPS
280
     0
  9
$JOINSTYLE
280
     0
  9
$LWDISPLAY
290
     0
  9
$INSUNITS
 70
     0
  9
$HYPERLINKBASE
  1

  9
$STYLESHEET
  1

  9
$XEDIT
290
     1
  9
$CEPSNTYPE
380
     0
  9
$PSTYLEMODE
290
     0
  9
$FINGERPRINTGUID
  2

  9
$VERSIONGUID
  2

  9
$EXTNAMES
290
     0
  9
$PSVPSCALE
 40
0.0
  0
ENDSEC
  0
SECTION
  2
CLASSES
  0
CLASS
  1
LWPOLYLINE
  2
AcDbPolyline
  3
AutoCAD 2000
 90
        0
280
     0
281
     1
  0
CLASS
  1
IMAGE
  2
AcDbRasterImage
  3
ISM
 90
      127
280
     0
281
     1
  0
CLASS
  1
OLE2FRAME
  2
AcDbOle2Frame
  3
AutoCAD 2000
 90
        0
280
     0
281
     1
  0
CLASS
  1
HATCH
  2
AcDbHatch
  3
AutoCAD 2000
 90
        0
280
     0
281
     1
  0
CLASS
  1
DICTIONARYVAR
  2
AcDbDictionaryVar
  3
AutoCAD 2000
 90
        0
280
     0
281
     0
  0
CLASS
  1
RASTERVARIABLES
  2
AcDbRasterVariables
  3
ISM
 90
        0
280
     0
281
     0
  0
CLASS
  1
IMAGEDEF
  2
AcDbRasterImageDef
  3
ISM
 90
        0
280
     0
281
     0
  0
CLASS
  1
IMAGEDEF_REACTOR
  2
AcDbRasterImageDefReactor
  3
ISM
 90
        1
280
     0
281
     0
  0
CLASS
  1
IDBUFFER
  2
AcDbIdBuffer
  3
AutoCAD 2000
 90
        0
280
     0
281
     0
  0
CLASS
  1
SPATIAL_FILTER
  2
AcDbSpatialFilter
  3
AutoCAD 2000
 90
        0
280
     0
281
     0
  0
CLASS
  1
XRECORD
  2
AcDbXrecord
  3
AutoCAD 2000
 90
        0
280
     0
281
     0
  0
CLASS
  1
SORTENTSTABLE
  2
AcDbSortentsTable
  3
AutoCAD 2000
 90
        0
280
     0
281
     0
  0
CLASS
  1
LAYER_INDEX
  2
AcDbLayerIndex
  3
AutoCAD 2000
 90
        0
280
     0
281
     0
  0
CLASS
  1
SPATIAL_INDEX
  2
AcDbSpatialIndex
  3
AutoCAD 2000
 90
        0
280
     0
281
     0
  0
CLASS
  1
OBJECT_PTR
  2
CAseDLPNTableRecord
  3
"ASE-LPNTableRecord"
 90
        1
280
     0
281
     0
  0
CLASS
  1
LAYOUT
  2
AcDbLayout
  3
AutoCAD 2000
 90
        0
280
     0
281
     0
  0
CLASS
  1
PLOTSETTINGS
  2
AcDbPlotSettings
  3
AutoCAD 2000
 90
        0
280
     0
281
     0
  0
CLASS
  1
ACDBDICTIONARYWDFLT
  2
AcDbDictionaryWithDefault
  3
AutoCAD 2000
 90
        0
280
     0
281
     0
  0
CLASS
  1
ACDBPLACEHOLDER
  2
AcDbPlaceHolder
  3
AutoCAD 2000
 90
        0
280
     0
281
     0
  0
CLASS
  1
VBA_PROJECT
  2
AcDbVbaProject
  3
acadvba
 90
        0
280
     0
281
     0
  0
CLASS
  1
WIPEOUT
  2
AcDbWipeout
  3
WipeOut|AutoCAD Express Tool|expresstools@autodesk.com
 90
      127
280
     0
281
     1
  0
CLASS
  1
WIPEOUTVARIABLES
  2
AcDbWipeoutVariables
  3
WipeOut|AutoCAD Express Tool|expresstools@autodesk.com
 90
        0
280
     0
281
     0
  0
CLASS
  1
RTEXT
  2
RText
  3
RText|AutoCAD Express Tool|expresstools@autodesk.com
 90
        0
280
     0
281
     1
  0
CLASS
  1
ARCALIGNEDTEXT
  2
AcDbArcAlignedText
  3
ATEXT|AutoCAD Express Tool|expresstools@autodesk.com
 90
        0
280
     0
281
     1
  0
ENDSEC
  0
SECTION
  2
TABLES
  0
TABLE
  2
VPORT
  5
7
100
AcDbSymbolTable
 70
     1
  0
VPORT
  5
15
100
AcDbSymbolTableRecord
100
AcDbViewportTableRecord
  2
*ACTIVE
 70
     0
 10
0.0
 20
0.0
 11
1.0
 21
1.0
 12
6.591288
 22
4.579184
 13
0.0
 23
0.0
 14
1.0
 24
1.0
 15
0.0
 25
0.0
 16
0.0
 26
0.0
 36
1.0
 17
0.0
 27
0.0
 37
0.0
 40
9.158369
 41
0.688564
 42
50.0
 43
0.0
 44
0.0
 50
0.0
 51
0.0
 71
     0
 72
   100
 73
     1
 74
     1
 75
     0
 76
     0
 77
     0
 78
     0
281
     0
 65
     0
110
0.0
120
0.0
130
0.0
111
1.0
121
0.0
131
0.0
112
0.0
122
1.0
132
0.0
345
0
346
0
 79
     0
146
0.0
  0
ENDTAB
  0
TABLE
  2
LTYPE
  5
4
100
AcDbSymbolTable
 70
     3
  0
LTYPE
  5
11
100
AcDbSymbolTableRecord
100
AcDbLinetypeTableRecord
  2
ByBlock
 70
    64
  3

 72
    65
 73
     0
 40
0.0
  0
LTYPE
  5
12
100
AcDbSymbolTableRecord
100
AcDbLinetypeTableRecord
  2
ByLayer
 70
    64
  3

 72
    65
 73
     0
 40
0.0
  0
LTYPE
  5
13
100
AcDbSymbolTableRecord
100
AcDbLinetypeTableRecord
  2
Continuous
 70
    64
  3
Solid line
 72
    65
 73
     0
 40
0.0
  0
ENDTAB
  0
TABLE
  2
LAYER
  5
2
100
AcDbSymbolTable
 70
     1
  0
LAYER
  5
14
100
AcDbSymbolTableRecord
100
AcDbLayerTableRecord
  2
0
 70
     0
 62
     7
  6
Continuous
290
     1
370
    -3
390
1D
  0
ENDTAB
  0
TABLE
  2
STYLE
  5
3
100
AcDbSymbolTable
 70
     1
  0
STYLE
  5
17
100
AcDbSymbolTableRecord
100
AcDbTextStyleTableRecord
  2
Standard
 70
     0
 40
0.0
 41
1.0
 50
0.0
 71
     0
 42
0.0
  3
txt
  4

  0
ENDTAB
  0
TABLE
  2
VIEW
  5
5
100
AcDbSymbolTable
 70
     0
  0
ENDTAB
  0
TABLE
  2
UCS
  5
6
100
AcDbSymbolTable
 70
     0
  0
ENDTAB
  0
TABLE
  2
APPID
  5
8
100
AcDbSymbolTable
 70
     1
  0
APPID
  5
16
100
AcDbSymbolTableRecord
100
AcDbRegAppTableRecord
  2
ACAD
 70
     0
  0
ENDTAB
  0
TABLE
  2
DIMSTYLE
  5
9
100
AcDbSymbolTable
 70
     1
100
AcDbDimStyleTable
 71
     0
  0
DIMSTYLE
105
18
100
AcDbSymbolTableRecord
100
AcDbDimStyleTableRecord
  2
Standard
 70
     0
  3

  4

 40
1.0
 41
0.18
 42
0.0625
 43
0.38
 44
0.18
 45
0.0
 46
0.0
 47
0.0
 48
0.0
 71
     0
 72
     0
 73
     1
 74
     1
 75
     0
 76
     0
 77
     0
 78
     0
 79
     0
140
0.18
141
0.09
142
0.0
143
25.4
144
1.0
145
0.0
146
1.0
147
0.09
148
0.0
170
     0
171
     2
172
     0
173
     0
174
     0
175
     0
176
     0
177
     0
178
     0
179
     0
271
     4
272
     4
273
     2
274
     2
275
     0
276
     0
277
     2
278
    46
279
     0
280
     0
281
     0
282
     0
283
     1
284
     0
285
     0
286
     0
288
     0
289
     3
340
17
341
0
342
0
343
0
344
0
371
    -2
372
    -2
  0
ENDTAB
  0
TABLE
  2
BLOCK_RECORD
  5
1
100
AcDbSymbolTable
 70
     0
  0
BLOCK_RECORD
  5
A
100
AcDbSymbolTableRecord
100
AcDbBlockTableRecord
  2
*MODEL_SPACE
340
20
  0
BLOCK_RECORD
  5
B
100
AcDbSymbolTableRecord
100
AcDbBlockTableRecord
  2
*PAPER_SPACE
340
21
  0
ENDTAB
  0
ENDSEC
  0
SECTION
  2
BLOCKS
  0
BLOCK
  5
D
100
AcDbEntity
  8
0
390
0
100
AcDbBlockBegin
  2
*MODEL_SPACE
 70
     0
 10
0.0
 20
0.0
 30
0.0
  3
*MODEL_SPACE
  1

  0
ENDBLK
  5
E
100
AcDbEntity
  8
0
390
0
100
AcDbBlockEnd
  0
BLOCK
  5
F
100
AcDbEntity
 67
     1
  8
0
390
0
100
AcDbBlockBegin
  2
*PAPER_SPACE
 70
     0
 10
0.0
 20
0.0
 30
0.0
  3
*PAPER_SPACE
  1

  0
ENDBLK
  5
10
100
AcDbEntity
 67
     1
  8
0
390
0
100
AcDbBlockEnd
  0
ENDSEC
  0
SECTION
  2
ENTITIES
  0
VIEWPORT
  5
30A
100
AcDbEntity
 67
     1
  8
0
370
     0
390
0
 62
     0
 48
0.0
100
AcDbViewport
 10
0.0
 20
0.0
 30
0.0
 40
1000.0
 41
1000.0
 68
     1
 69
     1
 12
0.0
 22
0.0
 13
0.0
 23
0.0
 14
1.0
 24
1.0
 15
1.0
 25
1.0
 16
0.0
 26
0.0
 36
1.0
 17
0.0
 27
0.0
 37
0.0
 42
50.0
 43
0.0
 44
0.0
 45
1000.0
 50
0.0
 51
0.0
 72
   100
 90
        0
340
0
  1

281
     0
 71
     0
 74
     1
110
0.0
120
0.0
130
0.0
111
1.0
121
0.0
131
0.0
112
0.0
122
1.0
132
0.0
345
0
346
0
 79
     0
146
0.0
  0
LINE
  5
24
100
AcDbEntity
  8
0
370
    50
390
0
 62
     7
100
AcDbLine
 10
0.0
 20
0.0
 30
0.0
 11
480.0
 21
0.0
 31
0.0
210
0.0
220
0.0
230
1.0
  0
LINE
  5
25
100
AcDbEntity
  8
0
370
    50
390
0
 62
     7
100
AcDbLine
 10
480.0
 20
0.0
 30
0.0
 11
480.0
 21
230.0
 31
0.0
210
0.0
220
0.0
230
1.0
  0
LINE
  5
26
100
AcDbEntity
  8
0
370
    50
390
0
 62
     7
100
AcDbLine
 10
480.0
 20
230.0
 30
0.0
 11
0.0
 21
230.0
 31
0.0
210
0.0
220
0.0
230
1.0
  0
LINE
  5
27
100
AcDbEntity
  8
0
370
    50
390
0
 62
     7
100
AcDbLine
 10
0.0
 20
230.0
 30
0.0
 11
0.0
 21
0.0
 31
0.0
210
0.0
220
0.0
230
1.0
  0
ARC
  5
28
100
AcDbEntity
  8
0
370
    50
390
0
 62
     7
100
AcDbCircle
 10
74.121712
 20
192.841293
 30
0.0
 40
33.5
210
0.0
220
0.0
230
1.0
100
AcDbArc
 50
93.165706
 51
206.834292
  0
LINE
  5
29
100
AcDbEntity
  8
0
370
    50
390
0
 62
     7
 48
0.078722
100
AcDbLine
 10
44.229134
 20
177.718994
 30
0.0
 11
46.956142
 21
179.293442
 31
0.0
210
0.0
220
0.0
230
1.0
  0
ARC
  5
2A
100
AcDbEntity
  8
0
370
    50
390
0
 62
     7
100
AcDbCircle
 10
47.456142
 20
178.427414
 30
0.0
 40
1.0
210
0.0
220
0.0
230
1.0
100
AcDbArc
 50
30.000001
 51
120.000003
  0
LINE
  5
2B
100
AcDbEntity
  8
0
370
    50
390
0
 62
     7
 48
0.0425
100
AcDbLine
 10
48.322166
 20
178.927414
 30
0.0
 11
49.172165
 21
177.45517
 31
0.0
210
0.0
220
0.0
230
1.0
  0
ARC
  5
2C
100
AcDbEntity
  8
0
370
    50
390
0
 62
     7
100
AcDbCircle
 10
48.306145
 20
176.95517
 30
0.0
 40
1.0
210
0.0
220
0.0
230
1.0
100
AcDbArc
 50
299.999998
 51
30.000001
  0
LINE
  5
2D
100
AcDbEntity
  8
0
370
    50
390
0
 62
     7
 48
0.078722
100
AcDbLine
 10
48.806145
 20
176.089142
 30
0.0
 11
46.079132
 21
174.514709
 31
0.0
210
0.0
220
0.0
230
1.0
  0
ARC
  5
2E
100
AcDbEntity
  8
0
370
    50
390
0
 62
     7
100
AcDbCircle
 10
74.121712
 20
192.841293
 30
0.0
 40
33.5
210
0.0
220
0.0
230
1.0
100
AcDbArc
 50
213.1657
 51
326.834295
  0
LINE
  5
2F
100
AcDbEntity
  8
0
370
    50
390
0
 62
     7
 48
0.078722
100
AcDbLine
 10
99.437279
 20
176.089142
 30
0.0
 11
102.164291
 21
174.514709
 31
0.0
210
0.0
220
0.0
230
1.0
  0
ARC
  5
30
100
AcDbEntity
  8
0
370
    50
390
0
 62
     7
100
AcDbCircle
 10
99.937279
 20
176.95517
 30
0.0
 40
1.0
210
0.0
220
0.0
230
1.0
100
AcDbArc
 50
149.999997
 51
239.999997
  0
LINE
  5
31
100
AcDbEntity
  8
0
370
    50
390
0
 62
     7
 48
0.0425
100
AcDbLine
 10
99.921257
 20
178.927414
 30
0.0
 11
99.071259
 21
177.45517
 31
0.0
210
0.0
220
0.0
230
1.0
  0
ARC
  5
32
100
AcDbEntity
  8
0
370
    50
390
0
 62
     7
100
AcDbCircle
 10
100.787277
 20
178.427414
 30
0.0
 40
1.0
210
0.0
220
0.0
230
1.0
100
AcDbArc
 50
60.000002
 51
149.999997
  0
LINE
  5
33
100
AcDbEntity
  8
0
370
    50
390
0
 62
     7
 48
0.078722
100
AcDbLine
 10
104.01429
 20
177.718994
 30
0.0
 11
101.287277
 21
179.293442
 31
0.0
210
0.0
220
0.0
230
1.0
  0
ARC
  5
34
100
AcDbEntity
  8
0
370
    50
390
0
 62
     7
100
AcDbCircle
 10
74.121712
 20
192.841293
 30
0.0
 40
33.5
210
0.0
220
0.0
230
1.0
100
AcDbArc
 50
333.165706
 51
86.834292
  0
LINE
  5
35
100
AcDbEntity
  8
0
370
    50
390
0
 62
     7
 48
0.078722
100
AcDbLine
 10
75.97171
 20
223.141296
 30
0.0
 11
75.97171
 21
226.290176
 31
0.0
210
0.0
220
0.0
230
1.0
  0
ARC
  5
36
100
AcDbEntity
  8
0
370
    50
390
0
 62
     7
100
AcDbCircle
 10
74.97171
 20
223.141296
 30
0.0
 40
1.0
210
0.0
220
0.0
230
1.0
100
AcDbArc
 50
269.999997
 51
360.0
  0
LINE
  5
37
100
AcDbEntity
  8
0
370
    50
390
0
 62
     7
 48
0.0425
100
AcDbLine
 10
73.271713
 20
222.141296
 30
0.0
 11
74.97171
 21
222.141296
 31
0.0
210
0.0
220
0.0
230
1.0
  0
ARC
  5
38
100
AcDbEntity
  8
0
370
    50
390
0
 62
     7
100
AcDbCircle
 10
73.271713
 20
223.141296
 30
0.0
 40
1.0
210
0.0
220
0.0
230
1.0
100
AcDbArc
 50
180.000005
 51
269.999997
  0
LINE
  5
39
100
AcDbEntity
  8
0
370
    50
390
0
 62
     7
 48
0.078722
100
AcDbLine
 10
72.271713
 20
226.290176
 30
0.0
 11
72.271713
 21
223.141296
 31
0.0
210
0.0
220
0.0
230
1.0
  0
ARC
  5
3A
100
AcDbEntity
  8
0
370
    50
390
0
 62
     7
100
AcDbCircle
 10
74.121712
 20
192.841293
 30
0.0
 40
27.5
210
0.0
220
0.0
230
1.0
100
AcDbArc
 50
351.84693
 51
73.739795
  0
LINE
  5
3B
100
AcDbEntity
  8
0
370
    50
390
0
 62
     7
 48
0.065112
100
AcDbLine
 10
101.343765
 20
188.941299
 30
0.0
 11
103.948235
 21
188.941299
 31
0.0
210
0.0
220
0.0
230
1.0
  0
ARC
  5
3C
100
AcDbEntity
  8
0
370
    50
390
0
 62
     7
100
AcDbCircle
 10
103.948235
 20
187.941299
 30
0.0
 40
1.0
210
0.0
220
0.0
230
1.0
100
AcDbArc
 50
0.0
 51
90.000003
  0
LINE
  5
3D
100
AcDbEntity
  8
0
370
    50
390
0
 62
     7
 48
0.0425
100
AcDbLine
 10
104.948235
 20
186.241287
 30
0.0
 11
104.948235
 21
187.941299
 31
0.0
210
0.0
220
0.0
230
1.0
  0
ARC
  5
3E
100
AcDbEntity
  8
0
370
    50
390
0
 62
     7
100
AcDbCircle
 10
103.948235
 20
186.241287
 30
0.0
 40
1.0
210
0.0
220
0.0
230
1.0
100
AcDbArc
 50
269.999997
 51
360.0
  0
LINE
  5
3F
100
AcDbEntity
  8
0
370
    50
390
0
 62
     7
 48
0.084939
100
AcDbLine
 10
103.948235
 20
185.241287
 30
0.0
 11
100.550674
 21
185.241287
 31
0.0
210
0.0
220
0.0
230
1.0
  0
ARC
  5
40
100
AcDbEntity
  8
0
370
    50
390
0
 62
     7
100
AcDbCircle
 10
74.121712
 20
192.841293
 30
0.0
 40
27.5
210
0.0
220
0.0
230
1.0
100
AcDbArc
 50
286.260205
 51
343.956705
  0
LINE
  5
41
100
AcDbEntity
  8
0
370
    50
390
0
 62
     7
 48
0.085077
100
AcDbLine
 10
81.821709
 20
163.038223
 30
0.0
 11
81.821709
 21
166.441299
 31
0.0
210
0.0
220
0.0
230
1.0
  0
ARC
  5
42
100
AcDbEntity
  8
0
370
    50
390
0
 62
     7
100
AcDbCircle
 10
80.821709
 20
163.038223
 30
0.0
 40
1.0
210
0.0
220
0.0
230
1.0
100
AcDbArc
 50
269.999997
 51
0.0
  0
LINE
  5
43
100
AcDbEntity
  8
0
370
    50
390
0
 62
     7
 48
0.0425
100
AcDbLine
 10
80.821709
 20
162.038223
 30
0.0
 11
79.121712
 21
162.038223
 31
0.0
210
0.0
220
0.0
230
1.0
  0
ARC
  5
44
100
AcDbEntity
  8
0
370
    50
390
0
 62
     7
100
AcDbCircle
 10
79.121712
 20
163.038223
 30
0.0
 40
1.0
210
0.0
220
0.0
230
1.0
100
AcDbArc
 50
180.000005
 51
269.999997
  0
LINE
  5
45
100
AcDbEntity
  8
0
370
    50
390
0
 62
     7
 48
0.064888
100
AcDbLine
 10
78.121712
 20
165.633759
 30
0.0
 11
78.121712
 21
163.038223
 31
0.0
210
0.0
220
0.0
230
1.0
  0
ARC
  5
46
100
AcDbEntity
  8
0
370
    50
390
0
 62
     7
100
AcDbCircle
 10
74.121712
 20
192.841293
 30
0.0
 40
27.5
210
0.0
220
0.0
230
1.0
100
AcDbArc
 50
196.04329
 51
278.363598
  0
LINE
  5
47
100
AcDbEntity
  8
0
370
    50
390
0
 62
     7
 48
0.084939
100
AcDbLine
 10
47.692749
 20
185.241287
 30
0.0
 11
44.295189
 21
185.241287
 31
0.0
210
0.0
220
0.0
230
1.0
  0
ARC
  5
48
100
AcDbEntity
  8
0
370
    50
390
0
 62
     7
100
AcDbCircle
 10
44.295189
 20
186.241287
 30
0.0
 40
1.0
210
0.0
220
0.0
230
1.0
100
AcDbArc
 50
180.000005
 51
269.999997
  0
LINE
  5
49
100
AcDbEntity
  8
0
370
    50
390
0
 62
     7
 48
0.0425
100
AcDbLine
 10
43.295189
 20
187.941299
 30
0.0
 11
43.295189
 21
186.241287
 31
0.0
210
0.0
220
0.0
230
1.0
  0
ARC
  5
4A
100
AcDbEntity
  8
0
370
    50
390
0
 62
     7
100
AcDbCircle
 10
44.295189
 20
187.941299
 30
0.0
 40
1.0
210
0.0
220
0.0
230
1.0
100
AcDbArc
 50
90.000003
 51
180.000005
  0
LINE
  5
4B
100
AcDbEntity
  8
0
370
    50
390
0
 62
     7
 48
0.065112
100
AcDbLine
 10
44.295189
 20
188.941299
 30
0.0
 11
46.899662
 21
188.941299
 31
0.0
210
0.0
220
0.0
230
1.0
  0
ARC
  5
4C
100
AcDbEntity
  8
0
370
    50
390
0
 62
     7
100
AcDbCircle
 10
74.121712
 20
192.841293
 30
0.0
 40
27.5
210
0.0
220
0.0
230
1.0
100
AcDbArc
 50
81.636402
 51
188.153069
  0
LINE
  5
4D
100
AcDbEntity
  8
0
370
    50
390
0
 62
     7
 48
0.064888
100
AcDbLine
 10
78.121712
 20
222.644363
 30
0.0
 11
78.121712
 21
220.048828
 31
0.0
210
0.0
220
0.0
230
1.0
  0
ARC
  5
4E
100
AcDbEntity
  8
0
370
    50
390
0
 62
     7
100
AcDbCircle
 10
79.121712
 20
222.644363
 30
0.0
 40
1.0
210
0.0
220
0.0
230
1.0
100
AcDbArc
 50
90.000003
 51
179.999995
  0
LINE
  5
4F
100
AcDbEntity
  8
0
370
    50
390
0
 62
     7
 48
0.0425
100
AcDbLine
 10
79.121712
 20
223.644363
 30
0.0
 11
80.821709
 21
223.644363
 31
0.0
210
0.0
220
0.0
230
1.0
  0
ARC
  5
50
100
AcDbEntity
  8
0
370
    50
390
0
 62
     7
100
AcDbCircle
 10
80.821709
 20
222.644363
 30
0.0
 40
1.0
210
0.0
220
0.0
230
1.0
100
AcDbArc
 50
0.0
 51
90.000003
  0
LINE
  5
51
100
AcDbEntity
  8
0
370
    50
390
0
 62
     7
 48
0.085077
100
AcDbLine
 10
81.821709
 20
219.241287
 30
0.0
 11
81.821709
 21
222.644363
 31
0.0
210
0.0
220
0.0
230
1.0
  0
ARC
  5
52
100
AcDbEntity
  8
0
370
    50
390
0
 62
     7
100
AcDbCircle
 10
148.119934
 20
192.691254
 30
0.0
 40
33.5
210
0.0
220
0.0
230
1.0
100
AcDbArc
 50
93.165706
 51
206.834292
  0
LINE
  5
53
100
AcDbEntity
  8
0
370
    50
390
0
 62
     7
 48
0.078722
100
AcDbLine
 10
118.227356
 20
177.568954
 30
0.0
 11
120.954361
 21
179.143402
 31
0.0
210
0.0
220
0.0
230
1.0
  0
ARC
  5
54
100
AcDbEntity
  8
0
370
    50
390
0
 62
     7
100
AcDbCircle
 10
121.454361
 20
178.277374
 30
0.0
 40
1.0
210
0.0
220
0.0
230
1.0
100
AcDbArc
 50
30.000001
 51
120.000003
  0
LINE
  5
55
100
AcDbEntity
  8
0
370
    50
390
0
 62
     7
 48
0.0425
100
AcDbLine
 10
122.320389
 20
178.777374
 30
0.0
 11
123.170387
 21
177.30513
 31
0.0
210
0.0
220
0.0
230
1.0
  0
ARC
  5
56
100
AcDbEntity
  8
0
370
    50
390
0
 62
     7
100
AcDbCircle
 10
122.304367
 20
176.80513
 30
0.0
 40
1.0
210
0.0
220
0.0
230
1.0
100
AcDbArc
 50
299.999998
 51
30.000001
  0
LINE
  5
57
100
AcDbEntity
  8
0
370
    50
390
0
 62
     7
 48
0.078722
100
AcDbLine
 10
122.804367
 20
175.939102
 30
0.0
 11
120.077354
 21
174.36467
 31
0.0
210
0.0
220
0.0
230
1.0
  0
ARC
  5
58
100
AcDbEntity
  8
0
370
    50
390
0
 62
     7
100
AcDbCircle
 10
148.119934
 20
192.691254
 30
0.0
 40
33.5
210
0.0
220
0.0
230
1.0
100
AcDbArc
 50
213.1657
 51
326.834295
  0
LINE
  5
59
100
AcDbEntity
  8
0
370
    50
390
0
 62
     7
 48
0.078722
100
AcDbLine
 10
173.435501
 20
175.939102
 30
0.0
 11
176.162506
 21
174.36467
 31
0.0
210
0.0
220
0.0
230
1.0
  0
ARC
  5
5A
100
AcDbEntity
  8
0
370
    50
390
0
 62
     7
100
AcDbCircle
 10
173.935501
 20
176.80513
 30
0.0
 40
1.0
210
0.0
220
0.0
230
1.0
100
AcDbArc
 50
149.999997
 51
239.999997
  0
LINE
  5
5B
100
AcDbEntity
  8
0
370
    50
390
0
 62
     7
 48
0.0425
100
AcDbLine
 10
173.919479
 20
178.777374
 30
0.0
 11
173.069473
 21
177.30513
 31
0.0
210
0.0
220
0.0
230
1.0
  0
ARC
  5
5C
100
AcDbEntity
  8
0
370
    50
390
0
 62
     7
100
AcDbCircle
 10
174.785507
 20
178.277374
 30
0.0
 40
1.0
210
0.0
220
0.0
230
1.0
100
AcDbArc
 50
60.000002
 51
149.999997
  0
LINE
  5
5D
100
AcDbEntity
  8
0
370
    50
390
0
 62
     7
 48
0.078722
100
AcDbLine
 10
178.012512
 20
177.568954
 30
0.0
 11
175.285507
 21
179.143402
 31
0.0
210
0.0
220
0.0
230
1.0
  0
ARC
  5
5E
100
AcDbEntity
  8
0
370
    50
390
0
 62
     7
100
AcDbCircle
 10
148.119934
 20
192.691254
 30
0.0
 40
33.5
210
0.0
220
0.0
230
1.0
100
AcDbArc
 50
333.165706
 51
86.834292
  0
LINE
  5
5F
100
AcDbEntity
  8
0
370
    50
390
0
 62
     7
 48
0.078722
100
AcDbLine
 10
149.96994
 20
222.991257
 30
0.0
 11
149.96994
 21
226.140137
 31
0.0
210
0.0
220
0.0
230
1.0
  0
ARC
  5
60
100
AcDbEntity
  8
0
370
    50
390
0
 62
     7
100
AcDbCircle
 10
148.96994
 20
222.991257
 30
0.0
 40
1.0
210
0.0
220
0.0
230
1.0
100
AcDbArc
 50
269.999997
 51
360.0
  0
LINE
  5
61
100
AcDbEntity
  8
0
370
    50
390
0
 62
     7
 48
0.0425
100
AcDbLine
 10
147.269928
 20
221.991257
 30
0.0
 11
148.96994
 21
221.991257
 31
0.0
210
0.0
220
0.0
230
1.0
  0
ARC
  5
62
100
AcDbEntity
  8
0
370
    50
390
0
 62
     7
100
AcDbCircle
 10
147.269928
 20
222.991257
 30
0.0
 40
1.0
210
0.0
220
0.0
230
1.0
100
AcDbArc
 50
179.999995
 51
269.999997
  0
LINE
  5
63
100
AcDbEntity
  8
0
370
    50
390
0
 62
     7
 48
0.078722
100
AcDbLine
 10
146.269928
 20
226.140137
 30
0.0
 11
146.269928
 21
222.991257
 31
0.0
210
0.0
220
0.0
230
1.0
  0
ARC
  5
64
100
AcDbEntity
  8
0
370
    50
390
0
 62
     7
100
AcDbCircle
 10
148.119934
 20
192.691254
 30
0.0
 40
27.5
210
0.0
220
0.0
230
1.0
100
AcDbArc
 50
351.84693
 51
74.878333
  0
LINE
  5
65
100
AcDbEntity
  8
0
370
    50
390
0
 62
     7
 48
0.065112
100
AcDbLine
 10
175.34198
 20
188.79126
 30
0.0
 11
177.946457
 21
188.79126
 31
0.0
210
0.0
220
0.0
230
1.0
  0
ARC
  5
66
100
AcDbEntity
  8
0
370
    50
390
0
 62
     7
100
AcDbCircle
 10
177.946457
 20
187.79126
 30
0.0
 40
1.0
210
0.0
220
0.0
230
1.0
100
AcDbArc
 50
360.0
 51
90.000003
  0
LINE
  5
67
100
AcDbEntity
  8
0
370
    50
390
0
 62
     7
 48
0.0425
100
AcDbLine
 10
178.946457
 20
186.091248
 30
0.0
 11
178.946457
 21
187.79126
 31
0.0
210
0.0
220
0.0
230
1.0
  0
ARC
  5
68
100
AcDbEntity
  8
0
370
    50
390
0
 62
     7
100
AcDbCircle
 10
177.946457
 20
186.091248
 30
0.0
 40
1.0
210
0.0
220
0.0
230
1.0
100
AcDbArc
 50
269.999997
 51
360.0
  0
LINE
  5
69
100
AcDbEntity
  8
0
370
    50
390
0
 62
     7
 48
0.084939
100
AcDbLine
 10
177.946457
 20
185.091248
 30
0.0
 11
174.548889
 21
185.091248
 31
0.0
210
0.0
220
0.0
230
1.0
  0
ARC
  5
6A
100
AcDbEntity
  8
0
370
    50
390
0
 62
     7
100
AcDbCircle
 10
148.119934
 20
192.691254
 30
0.0
 40
27.5
210
0.0
220
0.0
230
1.0
100
AcDbArc
 50
196.04329
 51
343.956705
  0
LINE
  5
6B
100
AcDbEntity
  8
0
370
    50
390
0
 62
     7
 48
0.084939
100
AcDbLine
 10
121.690971
 20
185.091248
 30
0.0
 11
118.293411
 21
185.091248
 31
0.0
210
0.0
220
0.0
230
1.0
  0
ARC
  5
6C
100
AcDbEntity
  8
0
370
    50
390
0
 62
     7
100
AcDbCircle
 10
118.293411
 20
186.091248
 30
0.0
 40
1.0
210
0.0
220
0.0
230
1.0
100
AcDbArc
 50
180.000005
 51
269.999997
  0
LINE
  5
6D
100
AcDbEntity
  8
0
370
    50
390
0
 62
     7
 48
0.0425
100
AcDbLine
 10
117.293411
 20
187.79126
 30
0.0
 11
117.293411
 21
186.091248
 31
0.0
210
0.0
220
0.0
230
1.0
  0
ARC
  5
6E
100
AcDbEntity
  8
0
370
    50
390
0
 62
     7
100
AcDbCircle
 10
118.293411
 20
187.79126
 30
0.0
 40
1.0
210
0.0
220
0.0
230
1.0
100
AcDbArc
 50
90.000003
 51
180.000005
  0
LINE
  5
6F
100
AcDbEntity
  8
0
370
    50
390
0
 62
     7
 48
0.065112
100
AcDbLine
 10
118.293411
 20
188.79126
 30
0.0
 11
120.897888
 21
188.79126
 31
0.0
210
0.0
220
0.0
230
1.0
  0
ARC
  5
70
100
AcDbEntity
  8
0
370
    50
390
0
 62
     7
100
AcDbCircle
 10
148.119934
 20
192.691254
 30
0.0
 40
27.5
210
0.0
220
0.0
230
1.0
100
AcDbArc
 50
74.878333
 51
188.153069
  0
ARC
  5
71
100
AcDbEntity
  8
0
370
    50
390
0
 62
     7
100
AcDbCircle
 10
221.975784
 20
193.079529
 30
0.0
 40
33.5
210
0.0
220
0.0
230
1.0
100
AcDbArc
 50
93.165706
 51
206.834292
  0
LINE
  5
72
100
AcDbEntity
  8
0
370
    50
390
0
 62
     7
 48
0.078722
100
AcDbLine
 10
192.083206
 20
177.95723
 30
0.0
 11
194.810211
 21
179.531677
 31
0.0
210
0.0
220
0.0
230
1.0
  0
ARC
  5
73
100
AcDbEntity
  8
0
370
    50
390
0
 62
     7
100
AcDbCircle
 10
195.310211
 20
178.665649
 30
0.0
 40
1.0
210
0.0
220
0.0
230
1.0
100
AcDbArc
 50
30.000001
 51
120.000003
  0
LINE
  5
74
100
AcDbEntity
  8
0
370
    50
390
0
 62
     7
 48
0.0425
100
AcDbLine
 10
196.176239
 20
179.165649
 30
0.0
 11
197.026245
 21
177.693405
 31
0.0
210
0.0
220
0.0
230
1.0
  0
ARC
  5
75
100
AcDbEntity
  8
0
370
    50
390
0
 62
     7
100
AcDbCircle
 10
196.160217
 20
177.193405
 30
0.0
 40
1.0
210
0.0
220
0.0
230
1.0
100
AcDbArc
 50
299.999998
 51
30.000001
  0
LINE
  5
76
100
AcDbEntity
  8
0
370
    50
390
0
 62
     7
 48
0.078722
100
AcDbLine
 10
196.660217
 20
176.327377
 30
0.0
 11
193.933197
 21
174.752945
 31
0.0
210
0.0
220
0.0
230
1.0
  0
ARC
  5
77
100
AcDbEntity
  8
0
370
    50
390
0
 62
     7
100
AcDbCircle
 10
221.975784
 20
193.079529
 30
0.0
 40
33.5
210
0.0
220
0.0
230
1.0
100
AcDbArc
 50
213.1657
 51
326.834295
  0
LINE
  5
78
100
AcDbEntity
  8
0
370
    50
390
0
 62
     7
 48
0.078722
100
AcDbLine
 10
247.291351
 20
176.327377
 30
0.0
 11
250.018372
 21
174.752945
 31
0.0
210
0.0
220
0.0
230
1.0
  0
ARC
  5
79
100
AcDbEntity
  8
0
370
    50
390
0
 62
     7
100
AcDbCircle
 10
247.791351
 20
177.193405
 30
0.0
 40
1.0
210
0.0
220
0.0
230
1.0
100
AcDbArc
 50
149.999997
 51
239.999997
  0
LINE
  5
7A
100
AcDbEntity
  8
0
370
    50
390
0
 62
     7
 48
0.0425
100
AcDbLine
 10
247.77533
 20
179.165649
 30
0.0
 11
246.925323
 21
177.693405
 31
0.0
210
0.0
220
0.0
230
1.0
  0
ARC
  5
7B
100
AcDbEntity
  8
0
370
    50
390
0
 62
     7
100
AcDbCircle
 10
248.641357
 20
178.665649
 30
0.0
 40
1.0
210
0.0
220
0.0
230
1.0
100
AcDbArc
 50
60.000002
 51
149.999997
  0
LINE
  5
7C
100
AcDbEntity
  8
0
370
    50
390
0
 62
     7
 48
0.078722
100
AcDbLine
 10
251.868362
 20
177.95723
 30
0.0
 11
249.141357
 21
179.531677
 31
0.0
210
0.0
220
0.0
230
1.0
  0
ARC
  5
7D
100
AcDbEntity
  8
0
370
    50
390
0
 62
     7
100
AcDbCircle
 10
221.975784
 20
193.079529
 30
0.0
 40
33.5
210
0.0
220
0.0
230
1.0
100
AcDbArc
 50
333.165706
 51
86.834292
  0
LINE
  5
7E
100
AcDbEntity
  8
0
370
    50
390
0
 62
     7
 48
0.078722
100
AcDbLine
 10
223.82579
 20
223.379532
 30
0.0
 11
223.82579
 21
226.528412
 31
0.0
210
0.0
220
0.0
230
1.0
  0
ARC
  5
7F
100
AcDbEntity
  8
0
370
    50
390
0
 62
     7
100
AcDbCircle
 10
222.82579
 20
223.379532
 30
0.0
 40
1.0
210
0.0
220
0.0
230
1.0
100
AcDbArc
 50
269.999997
 51
360.0
  0
LINE
  5
80
100
AcDbEntity
  8
0
370
    50
390
0
 62
     7
 48
0.0425
100
AcDbLine
 10
221.125778
 20
222.379532
 30
0.0
 11
222.82579
 21
222.379532
 31
0.0
210
0.0
220
0.0
230
1.0
  0
ARC
  5
81
100
AcDbEntity
  8
0
370
    50
390
0
 62
     7
100
AcDbCircle
 10
221.125778
 20
223.379532
 30
0.0
 40
1.0
210
0.0
220
0.0
230
1.0
100
AcDbArc
 50
180.000005
 51
269.999997
  0
LINE
  5
82
100
AcDbEntity
  8
0
370
    50
390
0
 62
     7
 48
0.078722
100
AcDbLine
 10
220.125778
 20
226.528412
 30
0.0
 11
220.125778
 21
223.379532
 31
0.0
210
0.0
220
0.0
230
1.0
  0
ARC
  5
83
100
AcDbEntity
  8
0
370
    50
390
0
 62
     7
100
AcDbCircle
 10
221.975784
 20
193.079529
 30
0.0
 40
27.5
210
0.0
220
0.0
230
1.0
100
AcDbArc
 50
286.260205
 51
73.739795
  0
LINE
  5
84
100
AcDbEntity
  8
0
370
    50
390
0
 62
     7
 48
0.085077
100
AcDbLine
 10
229.675781
 20
163.276459
 30
0.0
 11
229.675781
 21
166.679535
 31
0.0
210
0.0
220
0.0
230
1.0
  0
ARC
  5
85
100
AcDbEntity
  8
0
370
    50
390
0
 62
     7
100
AcDbCircle
 10
228.675781
 20
163.276459
 30
0.0
 40
1.0
210
0.0
220
0.0
230
1.0
100
AcDbArc
 50
269.999997
 51
0.0
  0
LINE
  5
86
100
AcDbEntity
  8
0
370
    50
390
0
 62
     7
 48
0.0425
100
AcDbLine
 10
228.675781
 20
162.276459
 30
0.0
 11
226.975784
 21
162.276459
 31
0.0
210
0.0
220
0.0
230
1.0
  0
ARC
  5
87
100
AcDbEntity
  8
0
370
    50
390
0
 62
     7
100
AcDbCircle
 10
226.975784
 20
163.276459
 30
0.0
 40
1.0
210
0.0
220
0.0
230
1.0
100
AcDbArc
 50
180.000005
 51
269.999997
  0
LINE
  5
88
100
AcDbEntity
  8
0
370
    50
390
0
 62
     7
 48
0.064888
100
AcDbLine
 10
225.975784
 20
165.871994
 30
0.0
 11
225.975784
 21
163.276459
 31
0.0
210
0.0
220
0.0
230
1.0
  0
ARC
  5
89
100
AcDbEntity
  8
0
370
    50
390
0
 62
     7
100
AcDbCircle
 10
221.975784
 20
193.079529
 30
0.0
 40
27.5
210
0.0
220
0.0
230
1.0
100
AcDbArc
 50
81.636402
 51
278.363598
  0
LINE
  5
8A
100
AcDbEntity
  8
0
370
    50
390
0
 62
     7
 48
0.064888
100
AcDbLine
 10
225.975784
 20
222.882599
 30
0.0
 11
225.975784
 21
220.287064
 31
0.0
210
0.0
220
0.0
230
1.0
  0
ARC
  5
8B
100
AcDbEntity
  8
0
370
    50
390
0
 62
     7
100
AcDbCircle
 10
226.975784
 20
222.882599
 30
0.0
 40
1.0
210
0.0
220
0.0
230
1.0
100
AcDbArc
 50
90.000003
 51
180.000005
  0
LINE
  5
8C
100
AcDbEntity
  8
0
370
    50
390
0
 62
     7
 48
0.0425
100
AcDbLine
 10
226.975784
 20
223.882599
 30
0.0
 11
228.675781
 21
223.882599
 31
0.0
210
0.0
220
0.0
230
1.0
  0
ARC
  5
8D
100
AcDbEntity
  8
0
370
    50
390
0
 62
     7
100
AcDbCircle
 10
228.675781
 20
222.882599
 30
0.0
 40
1.0
210
0.0
220
0.0
230
1.0
100
AcDbArc
 50
0.0
 51
90.000003
  0
LINE
  5
8E
100
AcDbEntity
  8
0
370
    50
390
0
 62
     7
 48
0.085077
100
AcDbLine
 10
229.675781
 20
219.479523
 30
0.0
 11
229.675781
 21
222.882599
 31
0.0
210
0.0
220
0.0
230
1.0
  0
LINE
  5
8F
100
AcDbEntity
  8
0
370
    50
390
0
 62
     7
 48
0.08
100
AcDbLine
 10
74.431206
 20
79.974266
 30
0.0
 11
77.631203
 21
79.974266
 31
0.0
210
0.0
220
0.0
230
1.0
  0
ARC
  5
90
100
AcDbEntity
  8
0
370
    50
390
0
 62
     7
100
AcDbCircle
 10
77.631203
 20
78.974266
 30
0.0
 40
1.0
210
0.0
220
0.0
230
1.0
100
AcDbArc
 50
0.0
 51
90.000003
  0
LINE
  5
91
100
AcDbEntity
  8
0
370
    50
390
0
 62
     7
 48
0.0625
100
AcDbLine
 10
78.631203
 20
78.974266
 30
0.0
 11
78.631203
 21
76.474266
 31
0.0
210
0.0
220
0.0
230
1.0
  0
LINE
  5
92
100
AcDbEntity
  8
0
370
    50
390
0
 62
     7
100
AcDbLine
 10
78.631203
 20
76.474266
 30
0.0
 11
135.576202
 21
76.474266
 31
0.0
210
0.0
220
0.0
230
1.0
  0
LINE
  5
93
100
AcDbEntity
  8
0
370
    50
390
0
 62
     7
 48
0.0625
100
AcDbLine
 10
135.576202
 20
76.474266
 30
0.0
 11
135.576202
 21
78.974266
 31
0.0
210
0.0
220
0.0
230
1.0
  0
ARC
  5
94
100
AcDbEntity
  8
0
370
    50
390
0
 62
     7
100
AcDbCircle
 10
136.576202
 20
78.974266
 30
0.0
 40
1.0
210
0.0
220
0.0
230
1.0
100
AcDbArc
 50
90.000003
 51
180.000005
  0
LINE
  5
95
100
AcDbEntity
  8
0
370
    50
390
0
 62
     7
 48
0.08
100
AcDbLine
 10
136.576202
 20
79.974266
 30
0.0
 11
139.776215
 21
79.974266
 31
0.0
210
0.0
220
0.0
230
1.0
  0
LINE
  5
96
100
AcDbEntity
  8
0
370
    50
390
0
 62
     7
 48
0.19125
100
AcDbLine
 10
139.776215
 20
79.974266
 30
0.0
 11
139.776215
 21
87.624268
 31
0.0
210
0.0
220
0.0
230
1.0
  0
LINE
  5
97
100
AcDbEntity
  8
0
370
    50
390
0
 62
     7
 48
0.08
100
AcDbLine
 10
139.776215
 20
87.624268
 30
0.0
 11
136.576202
 21
87.624268
 31
0.0
210
0.0
220
0.0
230
1.0
  0
ARC
  5
98
100
AcDbEntity
  8
0
370
    50
390
0
 62
     7
100
AcDbCircle
 10
136.576202
 20
88.624268
 30
0.0
 40
1.0
210
0.0
220
0.0
230
1.0
100
AcDbArc
 50
179.999995
 51
269.999997
  0
LINE
  5
99
100
AcDbEntity
  8
0
370
    50
390
0
 62
     7
 48
0.02125
100
AcDbLine
 10
135.576202
 20
88.624268
 30
0.0
 11
135.576202
 21
89.474266
 31
0.0
210
0.0
220
0.0
230
1.0
  0
LINE
  5
9A
100
AcDbEntity
  8
0
370
    50
390
0
 62
     7
100
AcDbLine
 10
135.576202
 20
89.474266
 30
0.0
 11
78.631203
 21
89.474266
 31
0.0
210
0.0
220
0.0
230
1.0
  0
LINE
  5
9B
100
AcDbEntity
  8
0
370
    50
390
0
 62
     7
 48
0.02125
100
AcDbLine
 10
78.631203
 20
89.474266
 30
0.0
 11
78.631203
 21
88.624268
 31
0.0
210
0.0
220
0.0
230
1.0
  0
ARC
  5
9C
100
AcDbEntity
  8
0
370
    50
390
0
 62
     7
100
AcDbCircle
 10
77.631203
 20
88.624268
 30
0.0
 40
1.0
210
0.0
220
0.0
230
1.0
100
AcDbArc
 50
269.999997
 51
360.0
  0
LINE
  5
9D
100
AcDbEntity
  8
0
370
    50
390
0
 62
     7
 48
0.08
100
AcDbLine
 10
77.631203
 20
87.624268
 30
0.0
 11
74.431206
 21
87.624268
 31
0.0
210
0.0
220
0.0
230
1.0
  0
LINE
  5
9E
100
AcDbEntity
  8
0
370
    50
390
0
 62
     7
 48
0.19125
100
AcDbLine
 10
74.431206
 20
87.624268
 30
0.0
 11
74.431206
 21
79.974266
 31
0.0
210
0.0
220
0.0
230
1.0
  0
ARC
  5
9F
100
AcDbEntity
  8
0
370
    50
390
0
 62
     7
100
AcDbCircle
 10
98.253708
 20
76.274269
 30
0.0
 40
2.0
210
0.0
220
0.0
230
1.0
100
AcDbArc
 50
90.000003
 51
115.528784
  0
ARC
  5
A0
100
AcDbEntity
  8
0
370
    50
390
0
 62
     7
100
AcDbCircle
 10
96.960815
 20
78.981369
 30
0.0
 40
1.0
210
0.0
220
0.0
230
1.0
100
AcDbArc
 50
154.471217
 51
295.528779
  0
ARC
  5
A1
100
AcDbEntity
  8
0
370
    50
390
0
 62
     7
100
AcDbCircle
 10
94.253708
 20
80.274269
 30
0.0
 40
2.0
210
0.0
220
0.0
230
1.0
100
AcDbArc
 50
334.47122
 51
0.0
  0
LINE
  5
A2
100
AcDbEntity
  8
0
370
    50
390
0
 62
     7
 48
0.135
100
AcDbLine
 10
96.253708
 20
85.674263
 30
0.0
 11
96.253708
 21
80.274269
 31
0.0
210
0.0
220
0.0
230
1.0
  0
ARC
  5
A3
100
AcDbEntity
  8
0
370
    50
390
0
 62
     7
100
AcDbCircle
 10
94.253708
 20
85.674263
 30
0.0
 40
2.0
210
0.0
220
0.0
230
1.0
100
AcDbArc
 50
0.0
 51
25.52878
  0
ARC
  5
A4
100
AcDbEntity
  8
0
370
    50
390
0
 62
     7
100
AcDbCircle
 10
96.960815
 20
86.967163
 30
0.0
 40
1.0
210
0.0
220
0.0
230
1.0
100
AcDbArc
 50
64.471221
 51
205.528783
  0
ARC
  5
A5
100
AcDbEntity
  8
0
370
    50
390
0
 62
     7
100
AcDbCircle
 10
98.253708
 20
89.674263
 30
0.0
 40
2.0
210
0.0
220
0.0
230
1.0
100
AcDbArc
 50
244.471216
 51
269.999997
  0
LINE
  5
A6
100
AcDbEntity
  8
0
370
    50
390
0
 62
     7
 48
0.41
100
AcDbLine
 10
114.653702
 20
87.674263
 30
0.0
 11
98.253708
 21
87.674263
 31
0.0
210
0.0
220
0.0
230
1.0
  0
ARC
  5
A7
100
AcDbEntity
  8
0
370
    50
390
0
 62
     7
100
AcDbCircle
 10
114.653702
 20
89.674263
 30
0.0
 40
2.0
210
0.0
220
0.0
230
1.0
100
AcDbArc
 50
269.999997
 51
295.528779
  0
ARC
  5
A8
100
AcDbEntity
  8
0
370
    50
390
0
 62
     7
100
AcDbCircle
 10
115.946594
 20
86.967163
 30
0.0
 40
1.0
210
0.0
220
0.0
230
1.0
100
AcDbArc
 50
334.47122
 51
115.528784
  0
ARC
  5
A9
100
AcDbEntity
  8
0
370
    50
390
0
 62
     7
100
AcDbCircle
 10
118.653702
 20
85.674263
 30
0.0
 40
2.0
210
0.0
220
0.0
230
1.0
100
AcDbArc
 50
154.471217
 51
180.000005
  0
LINE
  5
AA
100
AcDbEntity
  8
0
370
    50
390
0
 62
     7
 48
0.135
100
AcDbLine
 10
116.653702
 20
80.274269
 30
0.0
 11
116.653702
 21
85.674263
 31
0.0
210
0.0
220
0.0
230
1.0
  0
ARC
  5
AB
100
AcDbEntity
  8
0
370
    50
390
0
 62
     7
100
AcDbCircle
 10
118.653702
 20
80.274269
 30
0.0
 40
2.0
210
0.0
220
0.0
230
1.0
100
AcDbArc
 50
180.000005
 51
205.528783
  0
ARC
  5
AC
100
AcDbEntity
  8
0
370
    50
390
0
 62
     7
100
AcDbCircle
 10
115.946594
 20
78.981369
 30
0.0
 40
1.0
210
0.0
220
0.0
230
1.0
100
AcDbArc
 50
244.471216
 51
25.52878
  0
ARC
  5
AD
100
AcDbEntity
  8
0
370
    50
390
0
 62
     7
100
AcDbCircle
 10
114.653702
 20
76.274269
 30
0.0
 40
2.0
210
0.0
220
0.0
230
1.0
100
AcDbArc
 50
64.471221
 51
90.000003
  0
LINE
  5
AE
100
AcDbEntity
  8
0
370
    50
390
0
 62
     7
 48
0.41
100
AcDbLine
 10
98.253708
 20
78.274269
 30
0.0
 11
114.653702
 21
78.274269
 31
0.0
210
0.0
220
0.0
230
1.0
  0
LINE
  5
AF
100
AcDbEntity
  8
0
370
    50
390
0
 62
     7
 48
0.08
100
AcDbLine
 10
2.86632
 20
80.200485
 30
0.0
 11
6.066319
 21
80.200485
 31
0.0
210
0.0
220
0.0
230
1.0
  0
ARC
  5
B0
100
AcDbEntity
  8
0
370
    50
390
0
 62
     7
100
AcDbCircle
 10
6.066319
 20
79.200485
 30
0.0
 40
1.0
210
0.0
220
0.0
230
1.0
100
AcDbArc
 50
0.0
 51
90.000003
  0
LINE
  5
B1
100
AcDbEntity
  8
0
370
    50
390
0
 62
     7
 48
0.0625
100
AcDbLine
 10
7.066319
 20
79.200485
 30
0.0
 11
7.066319
 21
76.700485
 31
0.0
210
0.0
220
0.0
230
1.0
  0
LINE
  5
B2
100
AcDbEntity
  8
0
370
    50
390
0
 62
     7
100
AcDbLine
 10
7.066319
 20
76.700485
 30
0.0
 11
63.965317
 21
76.700485
 31
0.0
210
0.0
220
0.0
230
1.0
  0
LINE
  5
B3
100
AcDbEntity
  8
0
370
    50
390
0
 62
     7
 48
0.0625
100
AcDbLine
 10
63.965317
 20
76.700485
 30
0.0
 11
63.965317
 21
79.200485
 31
0.0
210
0.0
220
0.0
230
1.0
  0
ARC
  5
B4
100
AcDbEntity
  8
0
370
    50
390
0
 62
     7
100
AcDbCircle
 10
64.965317
 20
79.200485
 30
0.0
 40
1.0
210
0.0
220
0.0
230
1.0
100
AcDbArc
 50
90.000003
 51
180.000005
  0
LINE
  5
B5
100
AcDbEntity
  8
0
370
    50
390
0
 62
     7
 48
0.08
100
AcDbLine
 10
64.965317
 20
80.200485
 30
0.0
 11
68.165321
 21
80.200485
 31
0.0
210
0.0
220
0.0
230
1.0
  0
LINE
  5
B6
100
AcDbEntity
  8
0
370
    50
390
0
 62
     7
 48
0.19125
100
AcDbLine
 10
68.165321
 20
80.200485
 30
0.0
 11
68.165321
 21
87.850487
 31
0.0
210
0.0
220
0.0
230
1.0
  0
LINE
  5
B7
100
AcDbEntity
  8
0
370
    50
390
0
 62
     7
 48
0.08
100
AcDbLine
 10
68.165321
 20
87.850487
 30
0.0
 11
64.965317
 21
87.850487
 31
0.0
210
0.0
220
0.0
230
1.0
  0
ARC
  5
B8
100
AcDbEntity
  8
0
370
    50
390
0
 62
     7
100
AcDbCircle
 10
64.965317
 20
88.850487
 30
0.0
 40
1.0
210
0.0
220
0.0
230
1.0
100
AcDbArc
 50
180.000005
 51
269.999997
  0
LINE
  5
B9
100
AcDbEntity
  8
0
370
    50
390
0
 62
     7
 48
0.02125
100
AcDbLine
 10
63.965317
 20
88.850487
 30
0.0
 11
63.965317
 21
89.700485
 31
0.0
210
0.0
220
0.0
230
1.0
  0
LINE
  5
BA
100
AcDbEntity
  8
0
370
    50
390
0
 62
     7
100
AcDbLine
 10
63.965317
 20
89.700485
 30
0.0
 11
7.066319
 21
89.700485
 31
0.0
210
0.0
220
0.0
230
1.0
  0
LINE
  5
BB
100
AcDbEntity
  8
0
370
    50
390
0
 62
     7
 48
0.02125
100
AcDbLine
 10
7.066319
 20
89.700485
 30
0.0
 11
7.066319
 21
88.850487
 31
0.0
210
0.0
220
0.0
230
1.0
  0
ARC
  5
BC
100
AcDbEntity
  8
0
370
    50
390
0
 62
     7
100
AcDbCircle
 10
6.066319
 20
88.850487
 30
0.0
 40
1.0
210
0.0
220
0.0
230
1.0
100
AcDbArc
 50
269.999997
 51
360.0
  0
LINE
  5
BD
100
AcDbEntity
  8
0
370
    50
390
0
 62
     7
 48
0.08
100
AcDbLine
 10
6.066319
 20
87.850487
 30
0.0
 11
2.86632
 21
87.850487
 31
0.0
210
0.0
220
0.0
230
1.0
  0
LINE
  5
BE
100
AcDbEntity
  8
0
370
    50
390
0
 62
     7
 48
0.19125
100
AcDbLine
 10
2.86632
 20
87.850487
 30
0.0
 11
2.86632
 21
80.200485
 31
0.0
210
0.0
220
0.0
230
1.0
  0
ARC
  5
BF
100
AcDbEntity
  8
0
370
    50
390
0
 62
     7
100
AcDbCircle
 10
28.565819
 20
76.500488
 30
0.0
 40
2.0
210
0.0
220
0.0
230
1.0
100
AcDbArc
 50
90.000003
 51
115.528784
  0
ARC
  5
C0
100
AcDbEntity
  8
0
370
    50
390
0
 62
     7
100
AcDbCircle
 10
27.272926
 20
79.207596
 30
0.0
 40
1.0
210
0.0
220
0.0
230
1.0
100
AcDbArc
 50
154.471217
 51
295.528779
  0
ARC
  5
C1
100
AcDbEntity
  8
0
370
    50
390
0
 62
     7
100
AcDbCircle
 10
24.565819
 20
80.500488
 30
0.0
 40
2.0
210
0.0
220
0.0
230
1.0
100
AcDbArc
 50
334.47122
 51
360.0
  0
LINE
  5
C2
100
AcDbEntity
  8
0
370
    50
390
0
 62
     7
 48
0.135
100
AcDbLine
 10
26.565819
 20
85.900482
 30
0.0
 11
26.565819
 21
80.500488
 31
0.0
210
0.0
220
0.0
230
1.0
  0
ARC
  5
C3
100
AcDbEntity
  8
0
370
    50
390
0
 62
     7
100
AcDbCircle
 10
24.565819
 20
85.900482
 30
0.0
 40
2.0
210
0.0
220
0.0
230
1.0
100
AcDbArc
 50
0.0
 51
25.52878
  0
ARC
  5
C4
100
AcDbEntity
  8
0
370
    50
390
0
 62
     7
100
AcDbCircle
 10
27.272926
 20
87.193375
 30
0.0
 40
1.0
210
0.0
220
0.0
230
1.0
100
AcDbArc
 50
64.471221
 51
205.528783
  0
ARC
  5
C5
100
AcDbEntity
  8
0
370
    50
390
0
 62
     7
100
AcDbCircle
 10
28.565819
 20
89.900482
 30
0.0
 40
2.0
210
0.0
220
0.0
230
1.0
100
AcDbArc
 50
244.471216
 51
269.999997
  0
LINE
  5
C6
100
AcDbEntity
  8
0
370
    50
390
0
 62
     7
 48
0.41
100
AcDbLine
 10
44.96582
 20
87.900482
 30
0.0
 11
28.565819
 21
87.900482
 31
0.0
210
0.0
220
0.0
230
1.0
  0
ARC
  5
C7
100
AcDbEntity
  8
0
370
    50
390
0
 62
     7
100
AcDbCircle
 10
44.96582
 20
89.900482
 30
0.0
 40
2.0
210
0.0
220
0.0
230
1.0
100
AcDbArc
 50
269.999997
 51
295.528779
  0
ARC
  5
C8
100
AcDbEntity
  8
0
370
    50
390
0
 62
     7
100
AcDbCircle
 10
46.258713
 20
87.193375
 30
0.0
 40
1.0
210
0.0
220
0.0
230
1.0
100
AcDbArc
 50
334.47122
 51
115.528784
  0
ARC
  5
C9
100
AcDbEntity
  8
0
370
    50
390
0
 62
     7
100
AcDbCircle
 10
48.96582
 20
85.900482
 30
0.0
 40
2.0
210
0.0
220
0.0
230
1.0
100
AcDbArc
 50
154.471217
 51
180.000005
  0
LINE
  5
CA
100
AcDbEntity
  8
0
370
    50
390
0
 62
     7
 48
0.135
100
AcDbLine
 10
46.96582
 20
80.500488
 30
0.0
 11
46.96582
 21
85.900482
 31
0.0
210
0.0
220
0.0
230
1.0
  0
ARC
  5
CB
100
AcDbEntity
  8
0
370
    50
390
0
 62
     7
100
AcDbCircle
 10
48.96582
 20
80.500488
 30
0.0
 40
2.0
210
0.0
220
0.0
230
1.0
100
AcDbArc
 50
179.999995
 51
205.528783
  0
ARC
  5
CC
100
AcDbEntity
  8
0
370
    50
390
0
 62
     7
100
AcDbCircle
 10
46.258713
 20
79.207596
 30
0.0
 40
1.0
210
0.0
220
0.0
230
1.0
100
AcDbArc
 50
244.471216
 51
25.52878
  0
ARC
  5
CD
100
AcDbEntity
  8
0
370
    50
390
0
 62
     7
100
AcDbCircle
 10
44.96582
 20
76.500488
 30
0.0
 40
2.0
210
0.0
220
0.0
230
1.0
100
AcDbArc
 50
64.471221
 51
90.000003
  0
LINE
  5
CE
100
AcDbEntity
  8
0
370
    50
390
0
 62
     7
 48
0.41
100
AcDbLine
 10
28.565819
 20
78.500488
 30
0.0
 11
44.96582
 21
78.500488
 31
0.0
210
0.0
220
0.0
230
1.0
  0
LINE
  5
CF
100
AcDbEntity
  8
0
370
    50
390
0
 62
     7
100
AcDbLine
 10
248.695007
 20
123.513512
 30
0.0
 11
75.795013
 21
123.513512
 31
0.0
210
0.0
220
0.0
230
1.0
  0
LINE
  5
D0
100
AcDbEntity
  8
0
370
    50
390
0
 62
     7
 48
0.045
100
AcDbLine
 10
248.695007
 20
125.313515
 30
0.0
 11
248.695007
 21
123.513512
 31
0.0
210
0.0
220
0.0
230
1.0
  0
LINE
  5
D1
100
AcDbEntity
  8
0
370
    50
390
0
 62
     7
 48
0.0625
100
AcDbLine
 10
246.195007
 20
125.313515
 30
0.0
 11
248.695007
 21
125.313515
 31
0.0
210
0.0
220
0.0
230
1.0
  0
ARC
  5
D2
100
AcDbEntity
  8
0
370
    50
390
0
 62
     7
100
AcDbCircle
 10
246.195007
 20
126.313515
 30
0.0
 40
1.0
210
0.0
220
0.0
230
1.0
100
AcDbArc
 50
179.999995
 51
269.999997
  0
LINE
  5
D3
100
AcDbEntity
  8
0
370
    50
390
0
 62
     7
 48
0.08
100
AcDbLine
 10
245.195007
 20
129.513519
 30
0.0
 11
245.195007
 21
126.313515
 31
0.0
210
0.0
220
0.0
230
1.0
  0
LINE
  5
D4
100
AcDbEntity
  8
0
370
    50
390
0
 62
     7
100
AcDbLine
 10
215.595016
 20
129.513519
 30
0.0
 11
245.195007
 21
129.513519
 31
0.0
210
0.0
220
0.0
230
1.0
  0
LINE
  5
D5
100
AcDbEntity
  8
0
370
    50
390
0
 62
     7
 48
0.08
100
AcDbLine
 10
215.595016
 20
126.313515
 30
0.0
 11
215.595016
 21
129.513519
 31
0.0
210
0.0
220
0.0
230
1.0
  0
ARC
  5
D6
100
AcDbEntity
  8
0
370
    50
390
0
 62
     7
100
AcDbCircle
 10
214.595016
 20
126.313515
 30
0.0
 40
1.0
210
0.0
220
0.0
230
1.0
100
AcDbArc
 50
269.999997
 51
360.0
  0
LINE
  5
D7
100
AcDbEntity
  8
0
370
    50
390
0
 62
     7
 48
0.0425
100
AcDbLine
 10
212.89502
 20
125.313515
 30
0.0
 11
214.595016
 21
125.313515
 31
0.0
210
0.0
220
0.0
230
1.0
  0
ARC
  5
D8
100
AcDbEntity
  8
0
370
    50
390
0
 62
     7
100
AcDbCircle
 10
212.89502
 20
126.313515
 30
0.0
 40
1.0
210
0.0
220
0.0
230
1.0
100
AcDbArc
 50
179.999995
 51
269.999997
  0
LINE
  5
D9
100
AcDbEntity
  8
0
370
    50
390
0
 62
     7
 48
0.08
100
AcDbLine
 10
211.89502
 20
129.513519
 30
0.0
 11
211.89502
 21
126.313515
 31
0.0
210
0.0
220
0.0
230
1.0
  0
LINE
  5
DA
100
AcDbEntity
  8
0
370
    50
390
0
 62
     7
 48
0.115
100
AcDbLine
 10
207.295013
 20
129.513519
 30
0.0
 11
211.89502
 21
129.513519
 31
0.0
210
0.0
220
0.0
230
1.0
  0
LINE
  5
DB
100
AcDbEntity
  8
0
370
    50
390
0
 62
     7
 48
0.08
100
AcDbLine
 10
207.295013
 20
126.313515
 30
0.0
 11
207.295013
 21
129.513519
 31
0.0
210
0.0
220
0.0
230
1.0
  0
ARC
  5
DC
100
AcDbEntity
  8
0
370
    50
390
0
 62
     7
100
AcDbCircle
 10
206.295013
 20
126.313515
 30
0.0
 40
1.0
210
0.0
220
0.0
230
1.0
100
AcDbArc
 50
269.999997
 51
360.0
  0
LINE
  5
DD
100
AcDbEntity
  8
0
370
    50
390
0
 62
     7
 48
0.0425
100
AcDbLine
 10
204.595016
 20
125.313515
 30
0.0
 11
206.295013
 21
125.313515
 31
0.0
210
0.0
220
0.0
230
1.0
  0
ARC
  5
DE
100
AcDbEntity
  8
0
370
    50
390
0
 62
     7
100
AcDbCircle
 10
204.595016
 20
126.313515
 30
0.0
 40
1.0
210
0.0
220
0.0
230
1.0
100
AcDbArc
 50
179.999995
 51
269.999997
  0
LINE
  5
DF
100
AcDbEntity
  8
0
370
    50
390
0
 62
     7
 48
0.08
100
AcDbLine
 10
203.595016
 20
129.513519
 30
0.0
 11
203.595016
 21
126.313515
 31
0.0
210
0.0
220
0.0
230
1.0
  0
LINE
  5
E0
100
AcDbEntity
  8
0
370
    50
390
0
 62
     7
 48
0.19125
100
AcDbLine
 10
195.945007
 20
129.513519
 30
0.0
 11
203.595016
 21
129.513519
 31
0.0
210
0.0
220
0.0
230
1.0
  0
LINE
  5
E1
100
AcDbEntity
  8
0
370
    50
390
0
 62
     7
 48
0.08
100
AcDbLine
 10
195.945007
 20
126.313515
 30
0.0
 11
195.945007
 21
129.513519
 31
0.0
210
0.0
220
0.0
230
1.0
  0
ARC
  5
E2
100
AcDbEntity
  8
0
370
    50
390
0
 62
     7
100
AcDbCircle
 10
194.945007
 20
126.313515
 30
0.0
 40
1.0
210
0.0
220
0.0
230
1.0
100
AcDbArc
 50
269.999997
 51
360.0
  0
LINE
  5
E3
100
AcDbEntity
  8
0
370
    50
390
0
 62
     7
 48
0.0425
100
AcDbLine
 10
193.24501
 20
125.313515
 30
0.0
 11
194.945007
 21
125.313515
 31
0.0
210
0.0
220
0.0
230
1.0
  0
ARC
  5
E4
100
AcDbEntity
  8
0
370
    50
390
0
 62
     7
100
AcDbCircle
 10
193.24501
 20
126.313515
 30
0.0
 40
1.0
210
0.0
220
0.0
230
1.0
100
AcDbArc
 50
179.999995
 51
269.999997
  0
LINE
  5
E5
100
AcDbEntity
  8
0
370
    50
390
0
 62
     7
 48
0.08
100
AcDbLine
 10
192.24501
 20
129.513519
 30
0.0
 11
192.24501
 21
126.313515
 31
0.0
210
0.0
220
0.0
230
1.0
  0
LINE
  5
E6
100
AcDbEntity
  8
0
370
    50
390
0
 62
     7
 48
0.19125
100
AcDbLine
 10
184.595016
 20
129.513519
 30
0.0
 11
192.24501
 21
129.513519
 31
0.0
210
0.0
220
0.0
230
1.0
  0
LINE
  5
E7
100
AcDbEntity
  8
0
370
    50
390
0
 62
     7
 48
0.08
100
AcDbLine
 10
184.595016
 20
126.313515
 30
0.0
 11
184.595016
 21
129.513519
 31
0.0
210
0.0
220
0.0
230
1.0
  0
ARC
  5
E8
100
AcDbEntity
  8
0
370
    50
390
0
 62
     7
100
AcDbCircle
 10
183.595016
 20
126.313515
 30
0.0
 40
1.0
210
0.0
220
0.0
230
1.0
100
AcDbArc
 50
269.999997
 51
360.0
  0
LINE
  5
E9
100
AcDbEntity
  8
0
370
    50
390
0
 62
     7
 48
0.0425
100
AcDbLine
 10
181.89502
 20
125.313515
 30
0.0
 11
183.595016
 21
125.313515
 31
0.0
210
0.0
220
0.0
230
1.0
  0
ARC
  5
EA
100
AcDbEntity
  8
0
370
    50
390
0
 62
     7
100
AcDbCircle
 10
181.89502
 20
126.313515
 30
0.0
 40
1.0
210
0.0
220
0.0
230
1.0
100
AcDbArc
 50
179.999995
 51
269.999997
  0
LINE
  5
EB
100
AcDbEntity
  8
0
370
    50
390
0
 62
     7
 48
0.08
100
AcDbLine
 10
180.89502
 20
129.513519
 30
0.0
 11
180.89502
 21
126.313515
 31
0.0
210
0.0
220
0.0
230
1.0
  0
LINE
  5
EC
100
AcDbEntity
  8
0
370
    50
390
0
 62
     7
100
AcDbLine
 10
141.295013
 20
129.513519
 30
0.0
 11
180.89502
 21
129.513519
 31
0.0
210
0.0
220
0.0
230
1.0
  0
LINE
  5
ED
100
AcDbEntity
  8
0
370
    50
390
0
 62
     7
 48
0.08
100
AcDbLine
 10
141.295013
 20
126.313515
 30
0.0
 11
141.295013
 21
129.513519
 31
0.0
210
0.0
220
0.0
230
1.0
  0
ARC
  5
EE
100
AcDbEntity
  8
0
370
    50
390
0
 62
     7
100
AcDbCircle
 10
140.295013
 20
126.313515
 30
0.0
 40
1.0
210
0.0
220
0.0
230
1.0
100
AcDbArc
 50
269.999997
 51
0.0
  0
LINE
  5
EF
100
AcDbEntity
  8
0
370
    50
390
0
 62
     7
 48
0.01
100
AcDbLine
 10
139.89502
 20
125.313515
 30
0.0
 11
140.295013
 21
125.313515
 31
0.0
210
0.0
220
0.0
230
1.0
  0
ARC
  5
F0
100
AcDbEntity
  8
0
370
    50
390
0
 62
     7
100
AcDbCircle
 10
139.89502
 20
126.313515
 30
0.0
 40
1.0
210
0.0
220
0.0
230
1.0
100
AcDbArc
 50
179.999995
 51
269.999997
  0
LINE
  5
F1
100
AcDbEntity
  8
0
370
    50
390
0
 62
     7
 48
0.08
100
AcDbLine
 10
138.89502
 20
129.513519
 30
0.0
 11
138.89502
 21
126.313515
 31
0.0
210
0.0
220
0.0
230
1.0
  0
LINE
  5
F2
100
AcDbEntity
  8
0
370
    50
390
0
 62
     7
100
AcDbLine
 10
79.295013
 20
129.513519
 30
0.0
 11
138.89502
 21
129.513519
 31
0.0
210
0.0
220
0.0
230
1.0
  0
LINE
  5
F3
100
AcDbEntity
  8
0
370
    50
390
0
 62
     7
 48
0.08
100
AcDbLine
 10
79.295013
 20
126.313515
 30
0.0
 11
79.295013
 21
129.513519
 31
0.0
210
0.0
220
0.0
230
1.0
  0
ARC
  5
F4
100
AcDbEntity
  8
0
370
    50
390
0
 62
     7
100
AcDbCircle
 10
78.295013
 20
126.313515
 30
0.0
 40
1.0
210
0.0
220
0.0
230
1.0
100
AcDbArc
 50
269.999997
 51
360.0
  0
LINE
  5
F5
100
AcDbEntity
  8
0
370
    50
390
0
 62
     7
 48
0.0625
100
AcDbLine
 10
75.795013
 20
125.313515
 30
0.0
 11
78.295013
 21
125.313515
 31
0.0
210
0.0
220
0.0
230
1.0
  0
LINE
  5
F6
100
AcDbEntity
  8
0
370
    50
390
0
 62
     7
 48
0.045
100
AcDbLine
 10
75.795013
 20
123.513512
 30
0.0
 11
75.795013
 21
125.313515
 31
0.0
210
0.0
220
0.0
230
1.0
  0
ARC
  5
F7
100
AcDbEntity
  8
0
370
    50
390
0
 62
     7
100
AcDbCircle
 10
295.581909
 20
193.050919
 30
0.0
 40
33.5
210
0.0
220
0.0
230
1.0
100
AcDbArc
 50
93.165706
 51
206.834292
  0
LINE
  5
F8
100
AcDbEntity
  8
0
370
    50
390
0
 62
     7
 48
0.078722
100
AcDbLine
 10
265.689331
 20
177.928619
 30
0.0
 11
268.416351
 21
179.503067
 31
0.0
210
0.0
220
0.0
230
1.0
  0
ARC
  5
F9
100
AcDbEntity
  8
0
370
    50
390
0
 62
     7
100
AcDbCircle
 10
268.916351
 20
178.637039
 30
0.0
 40
1.0
210
0.0
220
0.0
230
1.0
100
AcDbArc
 50
30.000001
 51
120.000003
  0
LINE
  5
FA
100
AcDbEntity
  8
0
370
    50
390
0
 62
     7
 48
0.0425
100
AcDbLine
 10
269.782379
 20
179.137039
 30
0.0
 11
270.632355
 21
177.664795
 31
0.0
210
0.0
220
0.0
230
1.0
  0
ARC
  5
FB
100
AcDbEntity
  8
0
370
    50
390
0
 62
     7
100
AcDbCircle
 10
269.766327
 20
177.164795
 30
0.0
 40
1.0
210
0.0
220
0.0
230
1.0
100
AcDbArc
 50
299.999998
 51
30.000001
  0
LINE
  5
FC
100
AcDbEntity
  8
0
370
    50
390
0
 62
     7
 48
0.078721
100
AcDbLine
 10
270.266327
 20
176.298767
 30
0.0
 11
267.539337
 21
174.724335
 31
0.0
210
0.0
220
0.0
230
1.0
  0
ARC
  5
FD
100
AcDbEntity
  8
0
370
    50
390
0
 62
     7
100
AcDbCircle
 10
295.581909
 20
193.050919
 30
0.0
 40
33.5
210
0.0
220
0.0
230
1.0
100
AcDbArc
 50
213.1657
 51
326.834295
  0
LINE
  5
FE
100
AcDbEntity
  8
0
370
    50
390
0
 62
     7
 48
0.078721
100
AcDbLine
 10
320.897491
 20
176.298767
 30
0.0
 11
323.624481
 21
174.724335
 31
0.0
210
0.0
220
0.0
230
1.0
  0
ARC
  5
FF
100
AcDbEntity
  8
0
370
    50
390
0
 62
     7
100
AcDbCircle
 10
321.397491
 20
177.164795
 30
0.0
 40
1.0
210
0.0
220
0.0
230
1.0
100
AcDbArc
 50
149.999997
 51
239.999997
  0
LINE
  5
100
100
AcDbEntity
  8
0
370
    50
390
0
 62
     7
 48
0.0425
100
AcDbLine
 10
321.381439
 20
179.137039
 30
0.0
 11
320.531464
 21
177.664795
 31
0.0
210
0.0
220
0.0
230
1.0
  0
ARC
  5
101
100
AcDbEntity
  8
0
370
    50
390
0
 62
     7
100
AcDbCircle
 10
322.247467
 20
178.637039
 30
0.0
 40
1.0
210
0.0
220
0.0
230
1.0
100
AcDbArc
 50
60.000002
 51
149.999997
  0
LINE
  5
102
100
AcDbEntity
  8
0
370
    50
390
0
 62
     7
 48
0.078722
100
AcDbLine
 10
325.474487
 20
177.928619
 30
0.0
 11
322.747467
 21
179.503067
 31
0.0
210
0.0
220
0.0
230
1.0
  0
ARC
  5
103
100
AcDbEntity
  8
0
370
    50
390
0
 62
     7
100
AcDbCircle
 10
295.581909
 20
193.050919
 30
0.0
 40
33.5
210
0.0
220
0.0
230
1.0
100
AcDbArc
 50
333.165706
 51
86.834292
  0
LINE
  5
104
100
AcDbEntity
  8
0
370
    50
390
0
 62
     7
 48
0.078722
100
AcDbLine
 10
297.431915
 20
223.350922
 30
0.0
 11
297.431915
 21
226.499802
 31
0.0
210
0.0
220
0.0
230
1.0
  0
ARC
  5
105
100
AcDbEntity
  8
0
370
    50
390
0
 62
     7
100
AcDbCircle
 10
296.431915
 20
223.350922
 30
0.0
 40
1.0
210
0.0
220
0.0
230
1.0
100
AcDbArc
 50
269.999997
 51
360.0
  0
LINE
  5
106
100
AcDbEntity
  8
0
370
    50
390
0
 62
     7
 48
0.0425
100
AcDbLine
 10
294.731903
 20
222.350922
 30
0.0
 11
296.431915
 21
222.350922
 31
0.0
210
0.0
220
0.0
230
1.0
  0
ARC
  5
107
100
AcDbEntity
  8
0
370
    50
390
0
 62
     7
100
AcDbCircle
 10
294.731903
 20
223.350922
 30
0.0
 40
1.0
210
0.0
220
0.0
230
1.0
100
AcDbArc
 50
179.999995
 51
269.999997
  0
LINE
  5
108
100
AcDbEntity
  8
0
370
    50
390
0
 62
     7
 48
0.078722
100
AcDbLine
 10
293.731903
 20
226.499802
 30
0.0
 11
293.731903
 21
223.350922
 31
0.0
210
0.0
220
0.0
230
1.0
  0
CIRCLE
  5
109
100
AcDbEntity
  8
0
370
    50
390
0
 62
     7
100
AcDbCircle
 10
271.766205
 20
206.800919
 30
0.0
 40
1.5
210
0.0
220
0.0
230
1.0
  0
CIRCLE
  5
10A
100
AcDbEntity
  8
0
370
    50
390
0
 62
     7
100
AcDbCircle
 10
319.397614
 20
206.800919
 30
0.0
 40
1.5
210
0.0
220
0.0
230
1.0
  0
CIRCLE
  5
10B
100
AcDbEntity
  8
0
370
    50
390
0
 62
     7
100
AcDbCircle
 10
295.581909
 20
165.550919
 30
0.0
 40
1.5
210
0.0
220
0.0
230
1.0
  0
ARC
  5
10C
100
AcDbEntity
  8
0
370
    50
390
0
 62
     7
100
AcDbCircle
 10
271.892792
 20
199.301987
 30
0.0
 40
3.0
210
0.0
220
0.0
230
1.0
100
AcDbArc
 50
90.967075
 51
165.217782
  0
ARC
  5
10D
100
AcDbEntity
  8
0
370
    50
390
0
 62
     7
100
AcDbCircle
 10
271.766205
 20
206.800919
 30
0.0
 40
4.5
210
0.0
220
0.0
230
1.0
100
AcDbArc
 50
270.967077
 51
29.032921
  0
ARC
  5
10E
100
AcDbEntity
  8
0
370
    50
390
0
 62
     7
100
AcDbCircle
 10
278.323761
 20
210.440765
 30
0.0
 40
3.0
210
0.0
220
0.0
230
1.0
100
AcDbArc
 50
134.782213
 51
209.032916
  0
ARC
  5
10F
100
AcDbEntity
  8
0
370
    50
390
0
 62
     7
100
AcDbCircle
 10
295.581909
 20
193.050919
 30
0.0
 40
27.5
210
0.0
220
0.0
230
1.0
100
AcDbArc
 50
165.217782
 51
254.782213
  0
ARC
  5
110
100
AcDbEntity
  8
0
370
    50
390
0
 62
     7
100
AcDbCircle
 10
289.15094
 20
169.410004
 30
0.0
 40
3.0
210
0.0
220
0.0
230
1.0
100
AcDbArc
 50
254.782213
 51
329.032923
  0
ARC
  5
111
100
AcDbEntity
  8
0
370
    50
390
0
 62
     7
100
AcDbCircle
 10
295.581909
 20
165.550919
 30
0.0
 40
4.5
210
0.0
220
0.0
230
1.0
100
AcDbArc
 50
30.967077
 51
149.032925
  0
ARC
  5
112
100
AcDbEntity
  8
0
370
    50
390
0
 62
     7
100
AcDbCircle
 10
302.012878
 20
169.410004
 30
0.0
 40
3.0
210
0.0
220
0.0
230
1.0
100
AcDbArc
 50
210.967075
 51
285.217782
  0
ARC
  5
113
100
AcDbEntity
  8
0
370
    50
390
0
 62
     7
100
AcDbCircle
 10
295.581909
 20
193.050919
 30
0.0
 40
27.5
210
0.0
220
0.0
230
1.0
100
AcDbArc
 50
45.217782
 51
134.782213
  0
ARC
  5
114
100
AcDbEntity
  8
0
370
    50
390
0
 62
     7
100
AcDbCircle
 10
312.840057
 20
210.440765
 30
0.0
 40
3.0
210
0.0
220
0.0
230
1.0
100
AcDbArc
 50
330.967079
 51
45.217782
  0
ARC
  5
115
100
AcDbEntity
  8
0
370
    50
390
0
 62
     7
100
AcDbCircle
 10
319.271027
 20
199.301987
 30
0.0
 40
3.0
210
0.0
220
0.0
230
1.0
100
AcDbArc
 50
14.782215
 51
89.032923
  0
ARC
  5
116
100
AcDbEntity
  8
0
370
    50
390
0
 62
     7
100
AcDbCircle
 10
295.581909
 20
193.050919
 30
0.0
 40
27.5
210
0.0
220
0.0
230
1.0
100
AcDbArc
 50
285.217782
 51
14.782215
  0
ARC
  5
117
100
AcDbEntity
  8
0
370
    50
390
0
 62
     7
100
AcDbCircle
 10
319.397614
 20
206.800919
 30
0.0
 40
4.5
210
0.0
220
0.0
230
1.0
100
AcDbArc
 50
150.967084
 51
269.032925
  0
ARC
  5
118
100
AcDbEntity
  8
0
370
    50
390
0
 62
     7
100
AcDbCircle
 10
369.625946
 20
192.909012
 30
0.0
 40
33.5
210
0.0
220
0.0
230
1.0
100
AcDbArc
 50
93.165706
 51
206.834292
  0
LINE
  5
119
100
AcDbEntity
  8
0
370
    50
390
0
 62
     7
 48
0.078722
100
AcDbLine
 10
339.733368
 20
177.786713
 30
0.0
 11
342.460388
 21
179.36116
 31
0.0
210
0.0
220
0.0
230
1.0
  0
ARC
  5
11A
100
AcDbEntity
  8
0
370
    50
390
0
 62
     7
100
AcDbCircle
 10
342.960388
 20
178.495132
 30
0.0
 40
1.0
210
0.0
220
0.0
230
1.0
100
AcDbArc
 50
30.000001
 51
120.000003
  0
LINE
  5
11B
100
AcDbEntity
  8
0
370
    50
390
0
 62
     7
 48
0.0425
100
AcDbLine
 10
343.826416
 20
178.995132
 30
0.0
 11
344.676392
 21
177.522888
 31
0.0
210
0.0
220
0.0
230
1.0
  0
ARC
  5
11C
100
AcDbEntity
  8
0
370
    50
390
0
 62
     7
100
AcDbCircle
 10
343.810364
 20
177.022888
 30
0.0
 40
1.0
210
0.0
220
0.0
230
1.0
100
AcDbArc
 50
299.999998
 51
30.000001
  0
LINE
  5
11D
100
AcDbEntity
  8
0
370
    50
390
0
 62
     7
 48
0.078721
100
AcDbLine
 10
344.310364
 20
176.15686
 30
0.0
 11
341.583374
 21
174.582428
 31
0.0
210
0.0
220
0.0
230
1.0
  0
ARC
  5
11E
100
AcDbEntity
  8
0
370
    50
390
0
 62
     7
100
AcDbCircle
 10
369.625946
 20
192.909012
 30
0.0
 40
33.5
210
0.0
220
0.0
230
1.0
100
AcDbArc
 50
213.1657
 51
326.834295
  0
LINE
  5
11F
100
AcDbEntity
  8
0
370
    50
390
0
 62
     7
 48
0.078721
100
AcDbLine
 10
394.941528
 20
176.15686
 30
0.0
 11
397.668518
 21
174.582428
 31
0.0
210
0.0
220
0.0
230
1.0
  0
ARC
  5
120
100
AcDbEntity
  8
0
370
    50
390
0
 62
     7
100
AcDbCircle
 10
395.441528
 20
177.022888
 30
0.0
 40
1.0
210
0.0
220
0.0
230
1.0
100
AcDbArc
 50
149.999997
 51
239.999997
  0
LINE
  5
121
100
AcDbEntity
  8
0
370
    50
390
0
 62
     7
 48
0.0425
100
AcDbLine
 10
395.425476
 20
178.995132
 30
0.0
 11
394.5755
 21
177.522888
 31
0.0
210
0.0
220
0.0
230
1.0
  0
ARC
  5
122
100
AcDbEntity
  8
0
370
    50
390
0
 62
     7
100
AcDbCircle
 10
396.291504
 20
178.495132
 30
0.0
 40
1.0
210
0.0
220
0.0
230
1.0
100
AcDbArc
 50
60.000002
 51
149.999997
  0
LINE
  5
123
100
AcDbEntity
  8
0
370
    50
390
0
 62
     7
 48
0.078722
100
AcDbLine
 10
399.518524
 20
177.786713
 30
0.0
 11
396.791504
 21
179.36116
 31
0.0
210
0.0
220
0.0
230
1.0
  0
ARC
  5
124
100
AcDbEntity
  8
0
370
    50
390
0
 62
     7
100
AcDbCircle
 10
369.625946
 20
192.909012
 30
0.0
 40
33.5
210
0.0
220
0.0
230
1.0
100
AcDbArc
 50
333.165706
 51
86.834292
  0
LINE
  5
125
100
AcDbEntity
  8
0
370
    50
390
0
 62
     7
 48
0.078722
100
AcDbLine
 10
371.475952
 20
223.209015
 30
0.0
 11
371.475952
 21
226.357895
 31
0.0
210
0.0
220
0.0
230
1.0
  0
ARC
  5
126
100
AcDbEntity
  8
0
370
    50
390
0
 62
     7
100
AcDbCircle
 10
370.475952
 20
223.209015
 30
0.0
 40
1.0
210
0.0
220
0.0
230
1.0
100
AcDbArc
 50
269.999997
 51
360.0
  0
LINE
  5
127
100
AcDbEntity
  8
0
370
    50
390
0
 62
     7
 48
0.0425
100
AcDbLine
 10
368.77594
 20
222.209015
 30
0.0
 11
370.475952
 21
222.209015
 31
0.0
210
0.0
220
0.0
230
1.0
  0
ARC
  5
128
100
AcDbEntity
  8
0
370
    50
390
0
 62
     7
100
AcDbCircle
 10
368.77594
 20
223.209015
 30
0.0
 40
1.0
210
0.0
220
0.0
230
1.0
100
AcDbArc
 50
180.000005
 51
269.999997
  0
LINE
  5
129
100
AcDbEntity
  8
0
370
    50
390
0
 62
     7
 48
0.078722
100
AcDbLine
 10
367.77594
 20
226.357895
 30
0.0
 11
367.77594
 21
223.209015
 31
0.0
210
0.0
220
0.0
230
1.0
  0
ARC
  5
12A
100
AcDbEntity
  8
0
370
    50
390
0
 62
     7
100
AcDbCircle
 10
378.795807
 20
218.791702
 30
0.0
 40
1.0
210
0.0
220
0.0
230
1.0
100
AcDbArc
 50
60.000002
 51
149.999997
  0
LINE
  5
12B
100
AcDbEntity
  8
0
370
    50
390
0
 62
     7
 48
0.250001
100
AcDbLine
 10
387.956085
 20
214.657715
 30
0.0
 11
379.295807
 21
219.657715
 31
0.0
210
0.0
220
0.0
230
1.0
  0
ARC
  5
12C
100
AcDbEntity
  8
0
370
    50
390
0
 62
     7
100
AcDbCircle
 10
387.456085
 20
213.791702
 30
0.0
 40
1.0
210
0.0
220
0.0
230
1.0
100
AcDbArc
 50
329.999999
 51
60.000002
  0
LINE
  5
12D
100
AcDbEntity
  8
0
370
    50
390
0
 62
     7
 48
0.075
100
AcDbLine
 10
386.822083
 20
210.693619
 30
0.0
 11
388.322083
 21
213.291702
 31
0.0
210
0.0
220
0.0
230
1.0
  0
ARC
  5
12E
100
AcDbEntity
  8
0
370
    50
390
0
 62
     7
100
AcDbCircle
 10
385.956085
 20
211.193619
 30
0.0
 40
1.0
210
0.0
220
0.0
230
1.0
100
AcDbArc
 50
239.999997
 51
329.999999
  0
LINE
  5
12F
100
AcDbEntity
  8
0
370
    50
390
0
 62
     7
 48
0.250001
100
AcDbLine
 10
376.795807
 20
215.327591
 30
0.0
 11
385.456085
 21
210.327591
 31
0.0
210
0.0
220
0.0
230
1.0
  0
ARC
  5
130
100
AcDbEntity
  8
0
370
    50
390
0
 62
     7
100
AcDbCircle
 10
377.295807
 20
216.193619
 30
0.0
 40
1.0
210
0.0
220
0.0
230
1.0
100
AcDbArc
 50
149.999997
 51
239.999997
  0
LINE
  5
131
100
AcDbEntity
  8
0
370
    50
390
0
 62
     7
 48
0.075
100
AcDbLine
 10
377.929779
 20
219.291702
 30
0.0
 11
376.429779
 21
216.693619
 31
0.0
210
0.0
220
0.0
230
1.0
  0
CIRCLE
  5
132
100
AcDbEntity
  8
0
370
    50
390
0
 62
     7
100
AcDbCircle
 10
35.581619
 20
129.399139
 30
0.0
 40
33.5
210
0.0
220
0.0
230
1.0
  0
CIRCLE
  5
133
100
AcDbEntity
  8
0
370
    50
390
0
 62
     7
100
AcDbCircle
 10
35.581619
 20
156.899139
 30
0.0
 40
1.5
210
0.0
220
0.0
230
1.0
  0
CIRCLE
  5
134
100
AcDbEntity
  8
0
370
    50
390
0
 62
     7
100
AcDbCircle
 10
59.397316
 20
115.649139
 30
0.0
 40
1.5
210
0.0
220
0.0
230
1.0
  0
CIRCLE
  5
135
100
AcDbEntity
  8
0
370
    50
390
0
 62
     7
100
AcDbCircle
 10
11.765921
 20
115.649139
 30
0.0
 40
1.5
210
0.0
220
0.0
230
1.0
  0
ARC
  5
136
100
AcDbEntity
  8
0
370
    50
390
0
 62
     7
100
AcDbCircle
 10
443.440399
 20
192.700027
 30
0.0
 40
33.5
210
0.0
220
0.0
230
1.0
100
AcDbArc
 50
93.165706
 51
206.834292
  0
LINE
  5
137
100
AcDbEntity
  8
0
370
    50
390
0
 62
     7
 48
0.078722
100
AcDbLine
 10
413.547821
 20
177.577728
 30
0.0
 11
416.274841
 21
179.152176
 31
0.0
210
0.0
220
0.0
230
1.0
  0
ARC
  5
138
100
AcDbEntity
  8
0
370
    50
390
0
 62
     7
100
AcDbCircle
 10
416.774841
 20
178.286148
 30
0.0
 40
1.0
210
0.0
220
0.0
230
1.0
100
AcDbArc
 50
30.000001
 51
120.000003
  0
LINE
  5
139
100
AcDbEntity
  8
0
370
    50
390
0
 62
     7
 48
0.0425
100
AcDbLine
 10
417.640869
 20
178.786148
 30
0.0
 11
418.490845
 21
177.313904
 31
0.0
210
0.0
220
0.0
230
1.0
  0
ARC
  5
13A
100
AcDbEntity
  8
0
370
    50
390
0
 62
     7
100
AcDbCircle
 10
417.624817
 20
176.813904
 30
0.0
 40
1.0
210
0.0
220
0.0
230
1.0
100
AcDbArc
 50
299.999998
 51
30.000001
  0
LINE
  5
13B
100
AcDbEntity
  8
0
370
    50
390
0
 62
     7
 48
0.078721
100
AcDbLine
 10
418.124817
 20
175.947876
 30
0.0
 11
415.397827
 21
174.373444
 31
0.0
210
0.0
220
0.0
230
1.0
  0
ARC
  5
13C
100
AcDbEntity
  8
0
370
    50
390
0
 62
     7
100
AcDbCircle
 10
443.440399
 20
192.700027
 30
0.0
 40
33.5
210
0.0
220
0.0
230
1.0
100
AcDbArc
 50
213.1657
 51
326.834295
  0
LINE
  5
13D
100
AcDbEntity
  8
0
370
    50
390
0
 62
     7
 48
0.078721
100
AcDbLine
 10
468.755981
 20
175.947876
 30
0.0
 11
471.482971
 21
174.373444
 31
0.0
210
0.0
220
0.0
230
1.0
  0
ARC
  5
13E
100
AcDbEntity
  8
0
370
    50
390
0
 62
     7
100
AcDbCircle
 10
469.255981
 20
176.813904
 30
0.0
 40
1.0
210
0.0
220
0.0
230
1.0
100
AcDbArc
 50
149.999997
 51
239.999997
  0
LINE
  5
13F
100
AcDbEntity
  8
0
370
    50
390
0
 62
     7
 48
0.0425
100
AcDbLine
 10
469.239929
 20
178.786148
 30
0.0
 11
468.389954
 21
177.313904
 31
0.0
210
0.0
220
0.0
230
1.0
  0
ARC
  5
140
100
AcDbEntity
  8
0
370
    50
390
0
 62
     7
100
AcDbCircle
 10
470.105957
 20
178.286148
 30
0.0
 40
1.0
210
0.0
220
0.0
230
1.0
100
AcDbArc
 50
60.000002
 51
149.999997
  0
LINE
  5
141
100
AcDbEntity
  8
0
370
    50
390
0
 62
     7
 48
0.078722
100
AcDbLine
 10
473.332977
 20
177.577728
 30
0.0
 11
470.605957
 21
179.152176
 31
0.0
210
0.0
220
0.0
230
1.0
  0
ARC
  5
142
100
AcDbEntity
  8
0
370
    50
390
0
 62
     7
100
AcDbCircle
 10
443.440399
 20
192.700027
 30
0.0
 40
33.5
210
0.0
220
0.0
230
1.0
100
AcDbArc
 50
333.165706
 51
86.834292
  0
LINE
  5
143
100
AcDbEntity
  8
0
370
    50
390
0
 62
     7
 48
0.078722
100
AcDbLine
 10
445.290405
 20
223.000031
 30
0.0
 11
445.290405
 21
226.148911
 31
0.0
210
0.0
220
0.0
230
1.0
  0
ARC
  5
144
100
AcDbEntity
  8
0
370
    50
390
0
 62
     7
100
AcDbCircle
 10
444.290405
 20
223.000031
 30
0.0
 40
1.0
210
0.0
220
0.0
230
1.0
100
AcDbArc
 50
269.999997
 51
360.0
  0
LINE
  5
145
100
AcDbEntity
  8
0
370
    50
390
0
 62
     7
 48
0.0425
100
AcDbLine
 10
442.590393
 20
222.000031
 30
0.0
 11
444.290405
 21
222.000031
 31
0.0
210
0.0
220
0.0
230
1.0
  0
ARC
  5
146
100
AcDbEntity
  8
0
370
    50
390
0
 62
     7
100
AcDbCircle
 10
442.590393
 20
223.000031
 30
0.0
 40
1.0
210
0.0
220
0.0
230
1.0
100
AcDbArc
 50
180.000005
 51
269.999997
  0
LINE
  5
147
100
AcDbEntity
  8
0
370
    50
390
0
 62
     7
 48
0.078722
100
AcDbLine
 10
441.590393
 20
226.148911
 30
0.0
 11
441.590393
 21
223.000031
 31
0.0
210
0.0
220
0.0
230
1.0
  0
CIRCLE
  5
148
100
AcDbEntity
  8
0
370
    50
390
0
 62
     7
100
AcDbCircle
 10
443.440399
 20
192.700027
 30
0.0
 40
27.5
210
0.0
220
0.0
230
1.0
  0
LINE
  5
149
100
AcDbEntity
  8
0
370
    50
390
0
 62
     7
100
AcDbLine
 10
244.964783
 20
146.625336
 30
0.0
 11
72.064781
 21
146.625336
 31
0.0
210
0.0
220
0.0
230
1.0
  0
LINE
  5
14A
100
AcDbEntity
  8
0
370
    50
390
0
 62
     7
 48
0.045
100
AcDbLine
 10
244.964783
 20
148.425339
 30
0.0
 11
244.964783
 21
146.625336
 31
0.0
210
0.0
220
0.0
230
1.0
  0
LINE
  5
14B
100
AcDbEntity
  8
0
370
    50
390
0
 62
     7
 48
0.0625
100
AcDbLine
 10
242.464783
 20
148.425339
 30
0.0
 11
244.964783
 21
148.425339
 31
0.0
210
0.0
220
0.0
230
1.0
  0
ARC
  5
14C
100
AcDbEntity
  8
0
370
    50
390
0
 62
     7
100
AcDbCircle
 10
242.464783
 20
149.425339
 30
0.0
 40
1.0
210
0.0
220
0.0
230
1.0
100
AcDbArc
 50
179.999995
 51
269.999997
  0
LINE
  5
14D
100
AcDbEntity
  8
0
370
    50
390
0
 62
     7
 48
0.08
100
AcDbLine
 10
241.464783
 20
152.625336
 30
0.0
 11
241.464783
 21
149.425339
 31
0.0
210
0.0
220
0.0
230
1.0
  0
LINE
  5
14E
100
AcDbEntity
  8
0
370
    50
390
0
 62
     7
100
AcDbLine
 10
211.864777
 20
152.625336
 30
0.0
 11
241.464783
 21
152.625336
 31
0.0
210
0.0
220
0.0
230
1.0
  0
LINE
  5
14F
100
AcDbEntity
  8
0
370
    50
390
0
 62
     7
 48
0.08
100
AcDbLine
 10
211.864777
 20
149.425339
 30
0.0
 11
211.864777
 21
152.625336
 31
0.0
210
0.0
220
0.0
230
1.0
  0
ARC
  5
150
100
AcDbEntity
  8
0
370
    50
390
0
 62
     7
100
AcDbCircle
 10
210.864777
 20
149.425339
 30
0.0
 40
1.0
210
0.0
220
0.0
230
1.0
100
AcDbArc
 50
269.999997
 51
360.0
  0
LINE
  5
151
100
AcDbEntity
  8
0
370
    50
390
0
 62
     7
 48
0.0425
100
AcDbLine
 10
209.164795
 20
148.425339
 30
0.0
 11
210.864777
 21
148.425339
 31
0.0
210
0.0
220
0.0
230
1.0
  0
ARC
  5
152
100
AcDbEntity
  8
0
370
    50
390
0
 62
     7
100
AcDbCircle
 10
209.164795
 20
149.425339
 30
0.0
 40
1.0
210
0.0
220
0.0
230
1.0
100
AcDbArc
 50
179.999995
 51
269.999997
  0
LINE
  5
153
100
AcDbEntity
  8
0
370
    50
390
0
 62
     7
 48
0.08
100
AcDbLine
 10
208.164795
 20
152.625336
 30
0.0
 11
208.164795
 21
149.425339
 31
0.0
210
0.0
220
0.0
230
1.0
  0
LINE
  5
154
100
AcDbEntity
  8
0
370
    50
390
0
 62
     7
 48
0.115
100
AcDbLine
 10
203.564789
 20
152.625336
 30
0.0
 11
208.164795
 21
152.625336
 31
0.0
210
0.0
220
0.0
230
1.0
  0
LINE
  5
155
100
AcDbEntity
  8
0
370
    50
390
0
 62
     7
 48
0.08
100
AcDbLine
 10
203.564789
 20
149.425339
 30
0.0
 11
203.564789
 21
152.625336
 31
0.0
210
0.0
220
0.0
230
1.0
  0
ARC
  5
156
100
AcDbEntity
  8
0
370
    50
390
0
 62
     7
100
AcDbCircle
 10
202.564789
 20
149.425339
 30
0.0
 40
1.0
210
0.0
220
0.0
230
1.0
100
AcDbArc
 50
269.999997
 51
360.0
  0
LINE
  5
157
100
AcDbEntity
  8
0
370
    50
390
0
 62
     7
 48
0.0425
100
AcDbLine
 10
200.864777
 20
148.425339
 30
0.0
 11
202.564789
 21
148.425339
 31
0.0
210
0.0
220
0.0
230
1.0
  0
ARC
  5
158
100
AcDbEntity
  8
0
370
    50
390
0
 62
     7
100
AcDbCircle
 10
200.864777
 20
149.425339
 30
0.0
 40
1.0
210
0.0
220
0.0
230
1.0
100
AcDbArc
 50
179.999995
 51
269.999997
  0
LINE
  5
159
100
AcDbEntity
  8
0
370
    50
390
0
 62
     7
 48
0.08
100
AcDbLine
 10
199.864777
 20
152.625336
 30
0.0
 11
199.864777
 21
149.425339
 31
0.0
210
0.0
220
0.0
230
1.0
  0
LINE
  5
15A
100
AcDbEntity
  8
0
370
    50
390
0
 62
     7
 48
0.19125
100
AcDbLine
 10
192.214783
 20
152.625336
 30
0.0
 11
199.864777
 21
152.625336
 31
0.0
210
0.0
220
0.0
230
1.0
  0
LINE
  5
15B
100
AcDbEntity
  8
0
370
    50
390
0
 62
     7
 48
0.08
100
AcDbLine
 10
192.214783
 20
149.425339
 30
0.0
 11
192.214783
 21
152.625336
 31
0.0
210
0.0
220
0.0
230
1.0
  0
ARC
  5
15C
100
AcDbEntity
  8
0
370
    50
390
0
 62
     7
100
AcDbCircle
 10
191.214783
 20
149.425339
 30
0.0
 40
1.0
210
0.0
220
0.0
230
1.0
100
AcDbArc
 50
269.999997
 51
360.0
  0
LINE
  5
15D
100
AcDbEntity
  8
0
370
    50
390
0
 62
     7
 48
0.0425
100
AcDbLine
 10
189.514771
 20
148.425339
 30
0.0
 11
191.214783
 21
148.425339
 31
0.0
210
0.0
220
0.0
230
1.0
  0
ARC
  5
15E
100
AcDbEntity
  8
0
370
    50
390
0
 62
     7
100
AcDbCircle
 10
189.514771
 20
149.425339
 30
0.0
 40
1.0
210
0.0
220
0.0
230
1.0
100
AcDbArc
 50
179.999995
 51
269.999997
  0
LINE
  5
15F
100
AcDbEntity
  8
0
370
    50
390
0
 62
     7
 48
0.08
100
AcDbLine
 10
188.514771
 20
152.625336
 30
0.0
 11
188.514771
 21
149.425339
 31
0.0
210
0.0
220
0.0
230
1.0
  0
LINE
  5
160
100
AcDbEntity
  8
0
370
    50
390
0
 62
     7
 48
0.19125
100
AcDbLine
 10
180.864777
 20
152.625336
 30
0.0
 11
188.514771
 21
152.625336
 31
0.0
210
0.0
220
0.0
230
1.0
  0
LINE
  5
161
100
AcDbEntity
  8
0
370
    50
390
0
 62
     7
 48
0.08
100
AcDbLine
 10
180.864777
 20
149.425339
 30
0.0
 11
180.864777
 21
152.625336
 31
0.0
210
0.0
220
0.0
230
1.0
  0
ARC
  5
162
100
AcDbEntity
  8
0
370
    50
390
0
 62
     7
100
AcDbCircle
 10
179.864777
 20
149.425339
 30
0.0
 40
1.0
210
0.0
220
0.0
230
1.0
100
AcDbArc
 50
269.999997
 51
360.0
  0
LINE
  5
163
100
AcDbEntity
  8
0
370
    50
390
0
 62
     7
 48
0.0425
100
AcDbLine
 10
178.16478
 20
148.425339
 30
0.0
 11
179.864777
 21
148.425339
 31
0.0
210
0.0
220
0.0
230
1.0
  0
ARC
  5
164
100
AcDbEntity
  8
0
370
    50
390
0
 62
     7
100
AcDbCircle
 10
178.16478
 20
149.425339
 30
0.0
 40
1.0
210
0.0
220
0.0
230
1.0
100
AcDbArc
 50
179.999995
 51
269.999997
  0
LINE
  5
165
100
AcDbEntity
  8
0
370
    50
390
0
 62
     7
 48
0.08
100
AcDbLine
 10
177.16478
 20
152.625336
 30
0.0
 11
177.16478
 21
149.425339
 31
0.0
210
0.0
220
0.0
230
1.0
  0
LINE
  5
166
100
AcDbEntity
  8
0
370
    50
390
0
 62
     7
100
AcDbLine
 10
137.564789
 20
152.625336
 30
0.0
 11
177.16478
 21
152.625336
 31
0.0
210
0.0
220
0.0
230
1.0
  0
LINE
  5
167
100
AcDbEntity
  8
0
370
    50
390
0
 62
     7
 48
0.08
100
AcDbLine
 10
137.564789
 20
149.425339
 30
0.0
 11
137.564789
 21
152.625336
 31
0.0
210
0.0
220
0.0
230
1.0
  0
ARC
  5
168
100
AcDbEntity
  8
0
370
    50
390
0
 62
     7
100
AcDbCircle
 10
136.564789
 20
149.425339
 30
0.0
 40
1.0
210
0.0
220
0.0
230
1.0
100
AcDbArc
 50
269.999997
 51
0.0
  0
LINE
  5
169
100
AcDbEntity
  8
0
370
    50
390
0
 62
     7
 48
0.01
100
AcDbLine
 10
136.16478
 20
148.425339
 30
0.0
 11
136.564789
 21
148.425339
 31
0.0
210
0.0
220
0.0
230
1.0
  0
ARC
  5
16A
100
AcDbEntity
  8
0
370
    50
390
0
 62
     7
100
AcDbCircle
 10
136.16478
 20
149.425339
 30
0.0
 40
1.0
210
0.0
220
0.0
230
1.0
100
AcDbArc
 50
179.999995
 51
269.999997
  0
LINE
  5
16B
100
AcDbEntity
  8
0
370
    50
390
0
 62
     7
 48
0.08
100
AcDbLine
 10
135.16478
 20
152.625336
 30
0.0
 11
135.16478
 21
149.425339
 31
0.0
210
0.0
220
0.0
230
1.0
  0
LINE
  5
16C
100
AcDbEntity
  8
0
370
    50
390
0
 62
     7
100
AcDbLine
 10
75.564781
 20
152.625336
 30
0.0
 11
135.16478
 21
152.625336
 31
0.0
210
0.0
220
0.0
230
1.0
  0
LINE
  5
16D
100
AcDbEntity
  8
0
370
    50
390
0
 62
     7
 48
0.08
100
AcDbLine
 10
75.564781
 20
149.425339
 30
0.0
 11
75.564781
 21
152.625336
 31
0.0
210
0.0
220
0.0
230
1.0
  0
ARC
  5
16E
100
AcDbEntity
  8
0
370
    50
390
0
 62
     7
100
AcDbCircle
 10
74.564781
 20
149.425339
 30
0.0
 40
1.0
210
0.0
220
0.0
230
1.0
100
AcDbArc
 50
269.999997
 51
360.0
  0
LINE
  5
16F
100
AcDbEntity
  8
0
370
    50
390
0
 62
     7
 48
0.0625
100
AcDbLine
 10
72.064781
 20
148.425339
 30
0.0
 11
74.564781
 21
148.425339
 31
0.0
210
0.0
220
0.0
230
1.0
  0
LINE
  5
170
100
AcDbEntity
  8
0
370
    50
390
0
 62
     7
 48
0.045
100
AcDbLine
 10
72.064781
 20
146.625336
 30
0.0
 11
72.064781
 21
148.425339
 31
0.0
210
0.0
220
0.0
230
1.0
  0
LINE
  5
171
100
AcDbEntity
  8
0
370
    50
390
0
 62
     7
100
AcDbLine
 10
248.853973
 20
135.202621
 30
0.0
 11
75.953972
 21
135.202621
 31
0.0
210
0.0
220
0.0
230
1.0
  0
LINE
  5
172
100
AcDbEntity
  8
0
370
    50
390
0
 62
     7
 48
0.045
100
AcDbLine
 10
248.853973
 20
137.002625
 30
0.0
 11
248.853973
 21
135.202621
 31
0.0
210
0.0
220
0.0
230
1.0
  0
LINE
  5
173
100
AcDbEntity
  8
0
370
    50
390
0
 62
     7
 48
0.0625
100
AcDbLine
 10
246.353973
 20
137.002625
 30
0.0
 11
248.853973
 21
137.002625
 31
0.0
210
0.0
220
0.0
230
1.0
  0
ARC
  5
174
100
AcDbEntity
  8
0
370
    50
390
0
 62
     7
100
AcDbCircle
 10
246.353973
 20
138.002625
 30
0.0
 40
1.0
210
0.0
220
0.0
230
1.0
100
AcDbArc
 50
179.999995
 51
269.999997
  0
LINE
  5
175
100
AcDbEntity
  8
0
370
    50
390
0
 62
     7
 48
0.08
100
AcDbLine
 10
245.353973
 20
141.202621
 30
0.0
 11
245.353973
 21
138.002625
 31
0.0
210
0.0
220
0.0
230
1.0
  0
LINE
  5
176
100
AcDbEntity
  8
0
370
    50
390
0
 62
     7
100
AcDbLine
 10
215.753967
 20
141.202621
 30
0.0
 11
245.353973
 21
141.202621
 31
0.0
210
0.0
220
0.0
230
1.0
  0
LINE
  5
177
100
AcDbEntity
  8
0
370
    50
390
0
 62
     7
 48
0.08
100
AcDbLine
 10
215.753967
 20
138.002625
 30
0.0
 11
215.753967
 21
141.202621
 31
0.0
210
0.0
220
0.0
230
1.0
  0
ARC
  5
178
100
AcDbEntity
  8
0
370
    50
390
0
 62
     7
100
AcDbCircle
 10
214.753967
 20
138.002625
 30
0.0
 40
1.0
210
0.0
220
0.0
230
1.0
100
AcDbArc
 50
269.999997
 51
360.0
  0
LINE
  5
179
100
AcDbEntity
  8
0
370
    50
390
0
 62
     7
 48
0.0425
100
AcDbLine
 10
213.053986
 20
137.002625
 30
0.0
 11
214.753967
 21
137.002625
 31
0.0
210
0.0
220
0.0
230
1.0
  0
ARC
  5
17A
100
AcDbEntity
  8
0
370
    50
390
0
 62
     7
100
AcDbCircle
 10
213.053986
 20
138.002625
 30
0.0
 40
1.0
210
0.0
220
0.0
230
1.0
100
AcDbArc
 50
179.999995
 51
269.999997
  0
LINE
  5
17B
100
AcDbEntity
  8
0
370
    50
390
0
 62
     7
 48
0.08
100
AcDbLine
 10
212.053986
 20
141.202621
 30
0.0
 11
212.053986
 21
138.002625
 31
0.0
210
0.0
220
0.0
230
1.0
  0
LINE
  5
17C
100
AcDbEntity
  8
0
370
    50
390
0
 62
     7
 48
0.115
100
AcDbLine
 10
207.453979
 20
141.202621
 30
0.0
 11
212.053986
 21
141.202621
 31
0.0
210
0.0
220
0.0
230
1.0
  0
LINE
  5
17D
100
AcDbEntity
  8
0
370
    50
390
0
 62
     7
 48
0.08
100
AcDbLine
 10
207.453979
 20
138.002625
 30
0.0
 11
207.453979
 21
141.202621
 31
0.0
210
0.0
220
0.0
230
1.0
  0
ARC
  5
17E
100
AcDbEntity
  8
0
370
    50
390
0
 62
     7
100
AcDbCircle
 10
206.453979
 20
138.002625
 30
0.0
 40
1.0
210
0.0
220
0.0
230
1.0
100
AcDbArc
 50
269.999997
 51
360.0
  0
LINE
  5
17F
100
AcDbEntity
  8
0
370
    50
390
0
 62
     7
 48
0.0425
100
AcDbLine
 10
204.753967
 20
137.002625
 30
0.0
 11
206.453979
 21
137.002625
 31
0.0
210
0.0
220
0.0
230
1.0
  0
ARC
  5
180
100
AcDbEntity
  8
0
370
    50
390
0
 62
     7
100
AcDbCircle
 10
204.753967
 20
138.002625
 30
0.0
 40
1.0
210
0.0
220
0.0
230
1.0
100
AcDbArc
 50
179.999995
 51
269.999997
  0
LINE
  5
181
100
AcDbEntity
  8
0
370
    50
390
0
 62
     7
 48
0.08
100
AcDbLine
 10
203.753967
 20
141.202621
 30
0.0
 11
203.753967
 21
138.002625
 31
0.0
210
0.0
220
0.0
230
1.0
  0
LINE
  5
182
100
AcDbEntity
  8
0
370
    50
390
0
 62
     7
 48
0.19125
100
AcDbLine
 10
196.103973
 20
141.202621
 30
0.0
 11
203.753967
 21
141.202621
 31
0.0
210
0.0
220
0.0
230
1.0
  0
LINE
  5
183
100
AcDbEntity
  8
0
370
    50
390
0
 62
     7
 48
0.08
100
AcDbLine
 10
196.103973
 20
138.002625
 30
0.0
 11
196.103973
 21
141.202621
 31
0.0
210
0.0
220
0.0
230
1.0
  0
ARC
  5
184
100
AcDbEntity
  8
0
370
    50
390
0
 62
     7
100
AcDbCircle
 10
195.103973
 20
138.002625
 30
0.0
 40
1.0
210
0.0
220
0.0
230
1.0
100
AcDbArc
 50
269.999997
 51
360.0
  0
LINE
  5
185
100
AcDbEntity
  8
0
370
    50
390
0
 62
     7
 48
0.0425
100
AcDbLine
 10
193.403961
 20
137.002625
 30
0.0
 11
195.103973
 21
137.002625
 31
0.0
210
0.0
220
0.0
230
1.0
  0
ARC
  5
186
100
AcDbEntity
  8
0
370
    50
390
0
 62
     7
100
AcDbCircle
 10
193.403961
 20
138.002625
 30
0.0
 40
1.0
210
0.0
220
0.0
230
1.0
100
AcDbArc
 50
179.999995
 51
269.999997
  0
LINE
  5
187
100
AcDbEntity
  8
0
370
    50
390
0
 62
     7
 48
0.08
100
AcDbLine
 10
192.403961
 20
141.202621
 30
0.0
 11
192.403961
 21
138.002625
 31
0.0
210
0.0
220
0.0
230
1.0
  0
LINE
  5
188
100
AcDbEntity
  8
0
370
    50
390
0
 62
     7
 48
0.19125
100
AcDbLine
 10
184.753967
 20
141.202621
 30
0.0
 11
192.403961
 21
141.202621
 31
0.0
210
0.0
220
0.0
230
1.0
  0
LINE
  5
189
100
AcDbEntity
  8
0
370
    50
390
0
 62
     7
 48
0.08
100
AcDbLine
 10
184.753967
 20
138.002625
 30
0.0
 11
184.753967
 21
141.202621
 31
0.0
210
0.0
220
0.0
230
1.0
  0
ARC
  5
18A
100
AcDbEntity
  8
0
370
    50
390
0
 62
     7
100
AcDbCircle
 10
183.753967
 20
138.002625
 30
0.0
 40
1.0
210
0.0
220
0.0
230
1.0
100
AcDbArc
 50
269.999997
 51
360.0
  0
LINE
  5
18B
100
AcDbEntity
  8
0
370
    50
390
0
 62
     7
 48
0.0425
100
AcDbLine
 10
182.05397
 20
137.002625
 30
0.0
 11
183.753967
 21
137.002625
 31
0.0
210
0.0
220
0.0
230
1.0
  0
ARC
  5
18C
100
AcDbEntity
  8
0
370
    50
390
0
 62
     7
100
AcDbCircle
 10
182.05397
 20
138.002625
 30
0.0
 40
1.0
210
0.0
220
0.0
230
1.0
100
AcDbArc
 50
179.999995
 51
269.999997
  0
LINE
  5
18D
100
AcDbEntity
  8
0
370
    50
390
0
 62
     7
 48
0.08
100
AcDbLine
 10
181.05397
 20
141.202621
 30
0.0
 11
181.05397
 21
138.002625
 31
0.0
210
0.0
220
0.0
230
1.0
  0
LINE
  5
18E
100
AcDbEntity
  8
0
370
    50
390
0
 62
     7
100
AcDbLine
 10
141.453979
 20
141.202621
 30
0.0
 11
181.05397
 21
141.202621
 31
0.0
210
0.0
220
0.0
230
1.0
  0
LINE
  5
18F
100
AcDbEntity
  8
0
370
    50
390
0
 62
     7
 48
0.08
100
AcDbLine
 10
141.453979
 20
138.002625
 30
0.0
 11
141.453979
 21
141.202621
 31
0.0
210
0.0
220
0.0
230
1.0
  0
ARC
  5
190
100
AcDbEntity
  8
0
370
    50
390
0
 62
     7
100
AcDbCircle
 10
140.453979
 20
138.002625
 30
0.0
 40
1.0
210
0.0
220
0.0
230
1.0
100
AcDbArc
 50
269.999997
 51
0.0
  0
LINE
  5
191
100
AcDbEntity
  8
0
370
    50
390
0
 62
     7
 48
0.01
100
AcDbLine
 10
140.05397
 20
137.002625
 30
0.0
 11
140.453979
 21
137.002625
 31
0.0
210
0.0
220
0.0
230
1.0
  0
ARC
  5
192
100
AcDbEntity
  8
0
370
    50
390
0
 62
     7
100
AcDbCircle
 10
140.05397
 20
138.002625
 30
0.0
 40
1.0
210
0.0
220
0.0
230
1.0
100
AcDbArc
 50
179.999995
 51
269.999997
  0
LINE
  5
193
100
AcDbEntity
  8
0
370
    50
390
0
 62
     7
 48
0.08
100
AcDbLine
 10
139.05397
 20
141.202621
 30
0.0
 11
139.05397
 21
138.002625
 31
0.0
210
0.0
220
0.0
230
1.0
  0
LINE
  5
194
100
AcDbEntity
  8
0
370
    50
390
0
 62
     7
100
AcDbLine
 10
79.453972
 20
141.202621
 30
0.0
 11
139.05397
 21
141.202621
 31
0.0
210
0.0
220
0.0
230
1.0
  0
LINE
  5
195
100
AcDbEntity
  8
0
370
    50
390
0
 62
     7
 48
0.08
100
AcDbLine
 10
79.453972
 20
138.002625
 30
0.0
 11
79.453972
 21
141.202621
 31
0.0
210
0.0
220
0.0
230
1.0
  0
ARC
  5
196
100
AcDbEntity
  8
0
370
    50
390
0
 62
     7
100
AcDbCircle
 10
78.453972
 20
138.002625
 30
0.0
 40
1.0
210
0.0
220
0.0
230
1.0
100
AcDbArc
 50
269.999997
 51
360.0
  0
LINE
  5
197
100
AcDbEntity
  8
0
370
    50
390
0
 62
     7
 48
0.0625
100
AcDbLine
 10
75.953972
 20
137.002625
 30
0.0
 11
78.453972
 21
137.002625
 31
0.0
210
0.0
220
0.0
230
1.0
  0
LINE
  5
198
100
AcDbEntity
  8
0
370
    50
390
0
 62
     7
 48
0.045
100
AcDbLine
 10
75.953972
 20
135.202621
 30
0.0
 11
75.953972
 21
137.002625
 31
0.0
210
0.0
220
0.0
230
1.0
  0
ARC
  5
199
100
AcDbEntity
  8
0
370
    50
390
0
 62
     7
100
AcDbCircle
 10
36.110596
 20
36.31813
 30
0.0
 40
33.5
210
0.0
220
0.0
230
1.0
100
AcDbArc
 50
93.165706
 51
206.834292
  0
LINE
  5
19A
100
AcDbEntity
  8
0
370
    50
390
0
 62
     7
 48
0.078722
100
AcDbLine
 10
6.218018
 20
21.195839
 30
0.0
 11
8.945026
 21
22.770277
 31
0.0
210
0.0
220
0.0
230
1.0
  0
ARC
  5
19B
100
AcDbEntity
  8
0
370
    50
390
0
 62
     7
100
AcDbCircle
 10
9.445026
 20
21.904251
 30
0.0
 40
1.0
210
0.0
220
0.0
230
1.0
100
AcDbArc
 50
30.000001
 51
120.000003
  0
LINE
  5
19C
100
AcDbEntity
  8
0
370
    50
390
0
 62
     7
 48
0.0425
100
AcDbLine
 10
10.311052
 20
22.404251
 30
0.0
 11
11.161051
 21
20.932009
 31
0.0
210
0.0
220
0.0
230
1.0
  0
ARC
  5
19D
100
AcDbEntity
  8
0
370
    50
390
0
 62
     7
100
AcDbCircle
 10
10.295027
 20
20.432009
 30
0.0
 40
1.0
210
0.0
220
0.0
230
1.0
100
AcDbArc
 50
299.999998
 51
30.000001
  0
LINE
  5
19E
100
AcDbEntity
  8
0
370
    50
390
0
 62
     7
 48
0.078722
100
AcDbLine
 10
10.795027
 20
19.565983
 30
0.0
 11
8.068016
 21
17.991545
 31
0.0
210
0.0
220
0.0
230
1.0
  0
ARC
  5
19F
100
AcDbEntity
  8
0
370
    50
390
0
 62
     7
100
AcDbCircle
 10
36.110596
 20
36.31813
 30
0.0
 40
33.5
210
0.0
220
0.0
230
1.0
100
AcDbArc
 50
213.1657
 51
326.834295
  0
LINE
  5
1A0
100
AcDbEntity
  8
0
370
    50
390
0
 62
     7
 48
0.078722
100
AcDbLine
 10
61.426163
 20
19.565983
 30
0.0
 11
64.153175
 21
17.991545
 31
0.0
210
0.0
220
0.0
230
1.0
  0
ARC
  5
1A1
100
AcDbEntity
  8
0
370
    50
390
0
 62
     7
100
AcDbCircle
 10
61.926163
 20
20.432009
 30
0.0
 40
1.0
210
0.0
220
0.0
230
1.0
100
AcDbArc
 50
149.999997
 51
239.999997
  0
LINE
  5
1A2
100
AcDbEntity
  8
0
370
    50
390
0
 62
     7
 48
0.0425
100
AcDbLine
 10
61.910141
 20
22.404251
 30
0.0
 11
61.060143
 21
20.932009
 31
0.0
210
0.0
220
0.0
230
1.0
  0
ARC
  5
1A3
100
AcDbEntity
  8
0
370
    50
390
0
 62
     7
100
AcDbCircle
 10
62.776165
 20
21.904251
 30
0.0
 40
1.0
210
0.0
220
0.0
230
1.0
100
AcDbArc
 50
60.000002
 51
149.999997
  0
LINE
  5
1A4
100
AcDbEntity
  8
0
370
    50
390
0
 62
     7
 48
0.078722
100
AcDbLine
 10
66.003174
 20
21.195839
 30
0.0
 11
63.276165
 21
22.770277
 31
0.0
210
0.0
220
0.0
230
1.0
  0
ARC
  5
1A5
100
AcDbEntity
  8
0
370
    50
390
0
 62
     7
100
AcDbCircle
 10
36.110596
 20
36.31813
 30
0.0
 40
33.5
210
0.0
220
0.0
230
1.0
100
AcDbArc
 50
333.165706
 51
86.834292
  0
LINE
  5
1A6
100
AcDbEntity
  8
0
370
    50
390
0
 62
     7
 48
0.078722
100
AcDbLine
 10
37.960594
 20
66.618134
 30
0.0
 11
37.960594
 21
69.767014
 31
0.0
210
0.0
220
0.0
230
1.0
  0
ARC
  5
1A7
100
AcDbEntity
  8
0
370
    50
390
0
 62
     7
100
AcDbCircle
 10
36.960594
 20
66.618134
 30
0.0
 40
1.0
210
0.0
220
0.0
230
1.0
100
AcDbArc
 50
269.999997
 51
360.0
  0
LINE
  5
1A8
100
AcDbEntity
  8
0
370
    50
390
0
 62
     7
 48
0.0425
100
AcDbLine
 10
35.260597
 20
65.618134
 30
0.0
 11
36.960594
 21
65.618134
 31
0.0
210
0.0
220
0.0
230
1.0
  0
ARC
  5
1A9
100
AcDbEntity
  8
0
370
    50
390
0
 62
     7
100
AcDbCircle
 10
35.260597
 20
66.618134
 30
0.0
 40
1.0
210
0.0
220
0.0
230
1.0
100
AcDbArc
 50
180.000005
 51
269.999997
  0
LINE
  5
1AA
100
AcDbEntity
  8
0
370
    50
390
0
 62
     7
 48
0.078722
100
AcDbLine
 10
34.260597
 20
69.767014
 30
0.0
 11
34.260597
 21
66.618134
 31
0.0
210
0.0
220
0.0
230
1.0
  0
ARC
  5
1AB
100
AcDbEntity
  8
0
370
    50
390
0
 62
     7
100
AcDbCircle
 10
36.110596
 20
36.31813
 30
0.0
 40
27.5
210
0.0
220
0.0
230
1.0
100
AcDbArc
 50
351.84693
 51
73.739795
  0
LINE
  5
1AC
100
AcDbEntity
  8
0
370
    50
390
0
 62
     7
 48
0.065112
100
AcDbLine
 10
63.332645
 20
32.418129
 30
0.0
 11
65.937119
 21
32.418129
 31
0.0
210
0.0
220
0.0
230
1.0
  0
ARC
  5
1AD
100
AcDbEntity
  8
0
370
    50
390
0
 62
     7
100
AcDbCircle
 10
65.937119
 20
31.418131
 30
0.0
 40
1.0
210
0.0
220
0.0
230
1.0
100
AcDbArc
 50
0.0
 51
90.000003
  0
LINE
  5
1AE
100
AcDbEntity
  8
0
370
    50
390
0
 62
     7
 48
0.0425
100
AcDbLine
 10
66.937119
 20
29.71813
 30
0.0
 11
66.937119
 21
31.418131
 31
0.0
210
0.0
220
0.0
230
1.0
  0
ARC
  5
1AF
100
AcDbEntity
  8
0
370
    50
390
0
 62
     7
100
AcDbCircle
 10
65.937119
 20
29.71813
 30
0.0
 40
1.0
210
0.0
220
0.0
230
1.0
100
AcDbArc
 50
269.999997
 51
360.0
  0
LINE
  5
1B0
100
AcDbEntity
  8
0
370
    50
390
0
 62
     7
 48
0.084939
100
AcDbLine
 10
65.937119
 20
28.71813
 30
0.0
 11
62.539558
 21
28.71813
 31
0.0
210
0.0
220
0.0
230
1.0
  0
ARC
  5
1B1
100
AcDbEntity
  8
0
370
    50
390
0
 62
     7
100
AcDbCircle
 10
36.110596
 20
36.31813
 30
0.0
 40
27.5
210
0.0
220
0.0
230
1.0
100
AcDbArc
 50
286.260205
 51
343.956705
  0
LINE
  5
1B2
100
AcDbEntity
  8
0
370
    50
390
0
 62
     7
 48
0.085077
100
AcDbLine
 10
43.810596
 20
6.515062
 30
0.0
 11
43.810596
 21
9.918131
 31
0.0
210
0.0
220
0.0
230
1.0
  0
ARC
  5
1B3
100
AcDbEntity
  8
0
370
    50
390
0
 62
     7
100
AcDbCircle
 10
42.810596
 20
6.515062
 30
0.0
 40
1.0
210
0.0
220
0.0
230
1.0
100
AcDbArc
 50
269.999997
 51
0.0
  0
LINE
  5
1B4
100
AcDbEntity
  8
0
370
    50
390
0
 62
     7
 48
0.0425
100
AcDbLine
 10
42.810596
 20
5.515062
 30
0.0
 11
41.110596
 21
5.515062
 31
0.0
210
0.0
220
0.0
230
1.0
  0
ARC
  5
1B5
100
AcDbEntity
  8
0
370
    50
390
0
 62
     7
100
AcDbCircle
 10
41.110596
 20
6.515062
 30
0.0
 40
1.0
210
0.0
220
0.0
230
1.0
100
AcDbArc
 50
180.000005
 51
269.999997
  0
LINE
  5
1B6
100
AcDbEntity
  8
0
370
    50
390
0
 62
     7
 48
0.064888
100
AcDbLine
 10
40.110596
 20
9.110596
 30
0.0
 11
40.110596
 21
6.515062
 31
0.0
210
0.0
220
0.0
230
1.0
  0
ARC
  5
1B7
100
AcDbEntity
  8
0
370
    50
390
0
 62
     7
100
AcDbCircle
 10
36.110596
 20
36.31813
 30
0.0
 40
27.5
210
0.0
220
0.0
230
1.0
100
AcDbArc
 50
196.04329
 51
278.363598
  0
LINE
  5
1B8
100
AcDbEntity
  8
0
370
    50
390
0
 62
     7
 48
0.084939
100
AcDbLine
 10
9.681635
 20
28.71813
 30
0.0
 11
6.284073
 21
28.71813
 31
0.0
210
0.0
220
0.0
230
1.0
  0
ARC
  5
1B9
100
AcDbEntity
  8
0
370
    50
390
0
 62
     7
100
AcDbCircle
 10
6.284073
 20
29.71813
 30
0.0
 40
1.0
210
0.0
220
0.0
230
1.0
100
AcDbArc
 50
180.000005
 51
269.999997
  0
LINE
  5
1BA
100
AcDbEntity
  8
0
370
    50
390
0
 62
     7
 48
0.0425
100
AcDbLine
 10
5.284073
 20
31.418131
 30
0.0
 11
5.284073
 21
29.71813
 31
0.0
210
0.0
220
0.0
230
1.0
  0
ARC
  5
1BB
100
AcDbEntity
  8
0
370
    50
390
0
 62
     7
100
AcDbCircle
 10
6.284073
 20
31.418131
 30
0.0
 40
1.0
210
0.0
220
0.0
230
1.0
100
AcDbArc
 50
90.000003
 51
180.000005
  0
LINE
  5
1BC
100
AcDbEntity
  8
0
370
    50
390
0
 62
     7
 48
0.065112
100
AcDbLine
 10
6.284073
 20
32.418129
 30
0.0
 11
8.888546
 21
32.418129
 31
0.0
210
0.0
220
0.0
230
1.0
  0
ARC
  5
1BD
100
AcDbEntity
  8
0
370
    50
390
0
 62
     7
100
AcDbCircle
 10
36.110596
 20
36.31813
 30
0.0
 40
27.5
210
0.0
220
0.0
230
1.0
100
AcDbArc
 50
81.636402
 51
188.153069
  0
LINE
  5
1BE
100
AcDbEntity
  8
0
370
    50
390
0
 62
     7
 48
0.064888
100
AcDbLine
 10
40.110596
 20
66.121201
 30
0.0
 11
40.110596
 21
63.525665
 31
0.0
210
0.0
220
0.0
230
1.0
  0
ARC
  5
1BF
100
AcDbEntity
  8
0
370
    50
390
0
 62
     7
100
AcDbCircle
 10
41.110596
 20
66.121201
 30
0.0
 40
1.0
210
0.0
220
0.0
230
1.0
100
AcDbArc
 50
90.000003
 51
179.999995
  0
LINE
  5
1C0
100
AcDbEntity
  8
0
370
    50
390
0
 62
     7
 48
0.0425
100
AcDbLine
 10
41.110596
 20
67.121201
 30
0.0
 11
42.810596
 21
67.121201
 31
0.0
210
0.0
220
0.0
230
1.0
  0
ARC
  5
1C1
100
AcDbEntity
  8
0
370
    50
390
0
 62
     7
100
AcDbCircle
 10
42.810596
 20
66.121201
 30
0.0
 40
1.0
210
0.0
220
0.0
230
1.0
100
AcDbArc
 50
0.0
 51
90.000003
  0
LINE
  5
1C2
100
AcDbEntity
  8
0
370
    50
390
0
 62
     7
 48
0.085077
100
AcDbLine
 10
43.810596
 20
62.718132
 30
0.0
 11
43.810596
 21
66.121201
 31
0.0
210
0.0
220
0.0
230
1.0
  0
ARC
  5
1C3
100
AcDbEntity
  8
0
370
    50
390
0
 62
     7
100
AcDbCircle
 10
109.90126
 20
36.168087
 30
0.0
 40
33.5
210
0.0
220
0.0
230
1.0
100
AcDbArc
 50
93.165706
 51
206.834292
  0
LINE
  5
1C4
100
AcDbEntity
  8
0
370
    50
390
0
 62
     7
 48
0.078722
100
AcDbLine
 10
80.008682
 20
21.045795
 30
0.0
 11
82.735687
 21
22.620234
 31
0.0
210
0.0
220
0.0
230
1.0
  0
ARC
  5
1C5
100
AcDbEntity
  8
0
370
    50
390
0
 62
     7
100
AcDbCircle
 10
83.235687
 20
21.754208
 30
0.0
 40
1.0
210
0.0
220
0.0
230
1.0
100
AcDbArc
 50
30.000001
 51
120.000003
  0
LINE
  5
1C6
100
AcDbEntity
  8
0
370
    50
390
0
 62
     7
 48
0.0425
100
AcDbLine
 10
84.101715
 20
22.254208
 30
0.0
 11
84.951714
 21
20.781965
 31
0.0
210
0.0
220
0.0
230
1.0
  0
ARC
  5
1C7
100
AcDbEntity
  8
0
370
    50
390
0
 62
     7
100
AcDbCircle
 10
84.085693
 20
20.281965
 30
0.0
 40
1.0
210
0.0
220
0.0
230
1.0
100
AcDbArc
 50
299.999998
 51
30.000001
  0
LINE
  5
1C8
100
AcDbEntity
  8
0
370
    50
390
0
 62
     7
 48
0.078722
100
AcDbLine
 10
84.585693
 20
19.415939
 30
0.0
 11
81.858681
 21
17.841501
 31
0.0
210
0.0
220
0.0
230
1.0
  0
ARC
  5
1C9
100
AcDbEntity
  8
0
370
    50
390
0
 62
     7
100
AcDbCircle
 10
109.90126
 20
36.168087
 30
0.0
 40
33.5
210
0.0
220
0.0
230
1.0
100
AcDbArc
 50
213.1657
 51
326.834295
  0
LINE
  5
1CA
100
AcDbEntity
  8
0
370
    50
390
0
 62
     7
 48
0.078722
100
AcDbLine
 10
135.216827
 20
19.415939
 30
0.0
 11
137.943848
 21
17.841501
 31
0.0
210
0.0
220
0.0
230
1.0
  0
ARC
  5
1CB
100
AcDbEntity
  8
0
370
    50
390
0
 62
     7
100
AcDbCircle
 10
135.716827
 20
20.281965
 30
0.0
 40
1.0
210
0.0
220
0.0
230
1.0
100
AcDbArc
 50
149.999997
 51
239.999997
  0
LINE
  5
1CC
100
AcDbEntity
  8
0
370
    50
390
0
 62
     7
 48
0.0425
100
AcDbLine
 10
135.700806
 20
22.254208
 30
0.0
 11
134.8508
 21
20.781965
 31
0.0
210
0.0
220
0.0
230
1.0
  0
ARC
  5
1CD
100
AcDbEntity
  8
0
370
    50
390
0
 62
     7
100
AcDbCircle
 10
136.566833
 20
21.754208
 30
0.0
 40
1.0
210
0.0
220
0.0
230
1.0
100
AcDbArc
 50
60.000002
 51
149.999997
  0
LINE
  5
1CE
100
AcDbEntity
  8
0
370
    50
390
0
 62
     7
 48
0.078722
100
AcDbLine
 10
139.793839
 20
21.045795
 30
0.0
 11
137.066833
 21
22.620234
 31
0.0
210
0.0
220
0.0
230
1.0
  0
ARC
  5
1CF
100
AcDbEntity
  8
0
370
    50
390
0
 62
     7
100
AcDbCircle
 10
109.90126
 20
36.168087
 30
0.0
 40
33.5
210
0.0
220
0.0
230
1.0
100
AcDbArc
 50
333.165706
 51
86.834292
  0
LINE
  5
1D0
100
AcDbEntity
  8
0
370
    50
390
0
 62
     7
 48
0.078722
100
AcDbLine
 10
111.751259
 20
66.468086
 30
0.0
 11
111.751259
 21
69.616966
 31
0.0
210
0.0
220
0.0
230
1.0
  0
ARC
  5
1D1
100
AcDbEntity
  8
0
370
    50
390
0
 62
     7
100
AcDbCircle
 10
110.751259
 20
66.468086
 30
0.0
 40
1.0
210
0.0
220
0.0
230
1.0
100
AcDbArc
 50
269.999997
 51
360.0
  0
LINE
  5
1D2
100
AcDbEntity
  8
0
370
    50
390
0
 62
     7
 48
0.0425
100
AcDbLine
 10
109.051262
 20
65.468086
 30
0.0
 11
110.751259
 21
65.468086
 31
0.0
210
0.0
220
0.0
230
1.0
  0
ARC
  5
1D3
100
AcDbEntity
  8
0
370
    50
390
0
 62
     7
100
AcDbCircle
 10
109.051262
 20
66.468086
 30
0.0
 40
1.0
210
0.0
220
0.0
230
1.0
100
AcDbArc
 50
179.999995
 51
269.999997
  0
LINE
  5
1D4
100
AcDbEntity
  8
0
370
    50
390
0
 62
     7
 48
0.078722
100
AcDbLine
 10
108.051262
 20
69.616966
 30
0.0
 11
108.051262
 21
66.468086
 31
0.0
210
0.0
220
0.0
230
1.0
  0
ARC
  5
1D5
100
AcDbEntity
  8
0
370
    50
390
0
 62
     7
100
AcDbCircle
 10
109.90126
 20
36.168087
 30
0.0
 40
27.5
210
0.0
220
0.0
230
1.0
100
AcDbArc
 50
351.84693
 51
74.878333
  0
LINE
  5
1D6
100
AcDbEntity
  8
0
370
    50
390
0
 62
     7
 48
0.065112
100
AcDbLine
 10
137.123306
 20
32.268085
 30
0.0
 11
139.727783
 21
32.268085
 31
0.0
210
0.0
220
0.0
230
1.0
  0
ARC
  5
1D7
100
AcDbEntity
  8
0
370
    50
390
0
 62
     7
100
AcDbCircle
 10
139.727783
 20
31.268087
 30
0.0
 40
1.0
210
0.0
220
0.0
230
1.0
100
AcDbArc
 50
360.0
 51
90.000003
  0
LINE
  5
1D8
100
AcDbEntity
  8
0
370
    50
390
0
 62
     7
 48
0.0425
100
AcDbLine
 10
140.727783
 20
29.568087
 30
0.0
 11
140.727783
 21
31.268087
 31
0.0
210
0.0
220
0.0
230
1.0
  0
ARC
  5
1D9
100
AcDbEntity
  8
0
370
    50
390
0
 62
     7
100
AcDbCircle
 10
139.727783
 20
29.568087
 30
0.0
 40
1.0
210
0.0
220
0.0
230
1.0
100
AcDbArc
 50
269.999997
 51
360.0
  0
LINE
  5
1DA
100
AcDbEntity
  8
0
370
    50
390
0
 62
     7
 48
0.084939
100
AcDbLine
 10
139.727783
 20
28.568087
 30
0.0
 11
136.330215
 21
28.568087
 31
0.0
210
0.0
220
0.0
230
1.0
  0
ARC
  5
1DB
100
AcDbEntity
  8
0
370
    50
390
0
 62
     7
100
AcDbCircle
 10
109.90126
 20
36.168087
 30
0.0
 40
27.5
210
0.0
220
0.0
230
1.0
100
AcDbArc
 50
196.04329
 51
343.956705
  0
LINE
  5
1DC
100
AcDbEntity
  8
0
370
    50
390
0
 62
     7
 48
0.084939
100
AcDbLine
 10
83.472298
 20
28.568087
 30
0.0
 11
80.074738
 21
28.568087
 31
0.0
210
0.0
220
0.0
230
1.0
  0
ARC
  5
1DD
100
AcDbEntity
  8
0
370
    50
390
0
 62
     7
100
AcDbCircle
 10
80.074738
 20
29.568087
 30
0.0
 40
1.0
210
0.0
220
0.0
230
1.0
100
AcDbArc
 50
180.000005
 51
269.999997
  0
LINE
  5
1DE
100
AcDbEntity
  8
0
370
    50
390
0
 62
     7
 48
0.0425
100
AcDbLine
 10
79.074738
 20
31.268087
 30
0.0
 11
79.074738
 21
29.568087
 31
0.0
210
0.0
220
0.0
230
1.0
  0
ARC
  5
1DF
100
AcDbEntity
  8
0
370
    50
390
0
 62
     7
100
AcDbCircle
 10
80.074738
 20
31.268087
 30
0.0
 40
1.0
210
0.0
220
0.0
230
1.0
100
AcDbArc
 50
90.000003
 51
180.000005
  0
LINE
  5
1E0
100
AcDbEntity
  8
0
370
    50
390
0
 62
     7
 48
0.065112
100
AcDbLine
 10
80.074738
 20
32.268085
 30
0.0
 11
82.679214
 21
32.268085
 31
0.0
210
0.0
220
0.0
230
1.0
  0
ARC
  5
1E1
100
AcDbEntity
  8
0
370
    50
390
0
 62
     7
100
AcDbCircle
 10
109.90126
 20
36.168087
 30
0.0
 40
27.5
210
0.0
220
0.0
230
1.0
100
AcDbArc
 50
74.878333
 51
188.153069
  0
ARC
  5
1E2
100
AcDbEntity
  8
0
370
    50
390
0
 62
     7
100
AcDbCircle
 10
183.549545
 20
36.347393
 30
0.0
 40
33.5
210
0.0
220
0.0
230
1.0
100
AcDbArc
 50
93.165706
 51
206.834292
  0
LINE
  5
1E3
100
AcDbEntity
  8
0
370
    50
390
0
 62
     7
 48
0.078722
100
AcDbLine
 10
153.656967
 20
21.225101
 30
0.0
 11
156.383972
 21
22.79954
 31
0.0
210
0.0
220
0.0
230
1.0
  0
ARC
  5
1E4
100
AcDbEntity
  8
0
370
    50
390
0
 62
     7
100
AcDbCircle
 10
156.883972
 20
21.933514
 30
0.0
 40
1.0
210
0.0
220
0.0
230
1.0
100
AcDbArc
 50
30.000001
 51
120.000003
  0
LINE
  5
1E5
100
AcDbEntity
  8
0
370
    50
390
0
 62
     7
 48
0.0425
100
AcDbLine
 10
157.75
 20
22.433514
 30
0.0
 11
158.600006
 21
20.961271
 31
0.0
210
0.0
220
0.0
230
1.0
  0
ARC
  5
1E6
100
AcDbEntity
  8
0
370
    50
390
0
 62
     7
100
AcDbCircle
 10
157.733978
 20
20.461271
 30
0.0
 40
1.0
210
0.0
220
0.0
230
1.0
100
AcDbArc
 50
299.999998
 51
30.000001
  0
LINE
  5
1E7
100
AcDbEntity
  8
0
370
    50
390
0
 62
     7
 48
0.078722
100
AcDbLine
 10
158.233978
 20
19.595245
 30
0.0
 11
155.506958
 21
18.020807
 31
0.0
210
0.0
220
0.0
230
1.0
  0
ARC
  5
1E8
100
AcDbEntity
  8
0
370
    50
390
0
 62
     7
100
AcDbCircle
 10
183.549545
 20
36.347393
 30
0.0
 40
33.5
210
0.0
220
0.0
230
1.0
100
AcDbArc
 50
213.1657
 51
326.834295
  0
LINE
  5
1E9
100
AcDbEntity
  8
0
370
    50
390
0
 62
     7
 48
0.078722
100
AcDbLine
 10
208.865112
 20
19.595245
 30
0.0
 11
211.592133
 21
18.020807
 31
0.0
210
0.0
220
0.0
230
1.0
  0
ARC
  5
1EA
100
AcDbEntity
  8
0
370
    50
390
0
 62
     7
100
AcDbCircle
 10
209.365112
 20
20.461271
 30
0.0
 40
1.0
210
0.0
220
0.0
230
1.0
100
AcDbArc
 50
149.999997
 51
239.999997
  0
LINE
  5
1EB
100
AcDbEntity
  8
0
370
    50
390
0
 62
     7
 48
0.0425
100
AcDbLine
 10
209.349091
 20
22.433514
 30
0.0
 11
208.499084
 21
20.961271
 31
0.0
210
0.0
220
0.0
230
1.0
  0
ARC
  5
1EC
100
AcDbEntity
  8
0
370
    50
390
0
 62
     7
100
AcDbCircle
 10
210.215118
 20
21.933514
 30
0.0
 40
1.0
210
0.0
220
0.0
230
1.0
100
AcDbArc
 50
60.000002
 51
149.999997
  0
LINE
  5
1ED
100
AcDbEntity
  8
0
370
    50
390
0
 62
     7
 48
0.078722
100
AcDbLine
 10
213.442123
 20
21.225101
 30
0.0
 11
210.715118
 21
22.79954
 31
0.0
210
0.0
220
0.0
230
1.0
  0
ARC
  5
1EE
100
AcDbEntity
  8
0
370
    50
390
0
 62
     7
100
AcDbCircle
 10
183.549545
 20
36.347393
 30
0.0
 40
33.5
210
0.0
220
0.0
230
1.0
100
AcDbArc
 50
333.165706
 51
86.834292
  0
LINE
  5
1EF
100
AcDbEntity
  8
0
370
    50
390
0
 62
     7
 48
0.078722
100
AcDbLine
 10
185.399551
 20
66.647392
 30
0.0
 11
185.399551
 21
69.796272
 31
0.0
210
0.0
220
0.0
230
1.0
  0
ARC
  5
1F0
100
AcDbEntity
  8
0
370
    50
390
0
 62
     7
100
AcDbCircle
 10
184.399551
 20
66.647392
 30
0.0
 40
1.0
210
0.0
220
0.0
230
1.0
100
AcDbArc
 50
269.999997
 51
360.0
  0
LINE
  5
1F1
100
AcDbEntity
  8
0
370
    50
390
0
 62
     7
 48
0.0425
100
AcDbLine
 10
182.699539
 20
65.647392
 30
0.0
 11
184.399551
 21
65.647392
 31
0.0
210
0.0
220
0.0
230
1.0
  0
ARC
  5
1F2
100
AcDbEntity
  8
0
370
    50
390
0
 62
     7
100
AcDbCircle
 10
182.699539
 20
66.647392
 30
0.0
 40
1.0
210
0.0
220
0.0
230
1.0
100
AcDbArc
 50
180.000005
 51
269.999997
  0
LINE
  5
1F3
100
AcDbEntity
  8
0
370
    50
390
0
 62
     7
 48
0.078722
100
AcDbLine
 10
181.699539
 20
69.796272
 30
0.0
 11
181.699539
 21
66.647392
 31
0.0
210
0.0
220
0.0
230
1.0
  0
ARC
  5
1F4
100
AcDbEntity
  8
0
370
    50
390
0
 62
     7
100
AcDbCircle
 10
183.549545
 20
36.347393
 30
0.0
 40
27.5
210
0.0
220
0.0
230
1.0
100
AcDbArc
 50
286.260205
 51
73.739795
  0
LINE
  5
1F5
100
AcDbEntity
  8
0
370
    50
390
0
 62
     7
 48
0.085077
100
AcDbLine
 10
191.249542
 20
6.544325
 30
0.0
 11
191.249542
 21
9.947393
 31
0.0
210
0.0
220
0.0
230
1.0
  0
ARC
  5
1F6
100
AcDbEntity
  8
0
370
    50
390
0
 62
     7
100
AcDbCircle
 10
190.249542
 20
6.544325
 30
0.0
 40
1.0
210
0.0
220
0.0
230
1.0
100
AcDbArc
 50
269.999997
 51
0.0
  0
LINE
  5
1F7
100
AcDbEntity
  8
0
370
    50
390
0
 62
     7
 48
0.0425
100
AcDbLine
 10
190.249542
 20
5.544325
 30
0.0
 11
188.549545
 21
5.544325
 31
0.0
210
0.0
220
0.0
230
1.0
  0
ARC
  5
1F8
100
AcDbEntity
  8
0
370
    50
390
0
 62
     7
100
AcDbCircle
 10
188.549545
 20
6.544325
 30
0.0
 40
1.0
210
0.0
220
0.0
230
1.0
100
AcDbArc
 50
180.000005
 51
269.999997
  0
LINE
  5
1F9
100
AcDbEntity
  8
0
370
    50
390
0
 62
     7
 48
0.064888
100
AcDbLine
 10
187.549545
 20
9.139858
 30
0.0
 11
187.549545
 21
6.544325
 31
0.0
210
0.0
220
0.0
230
1.0
  0
ARC
  5
1FA
100
AcDbEntity
  8
0
370
    50
390
0
 62
     7
100
AcDbCircle
 10
183.549545
 20
36.347393
 30
0.0
 40
27.5
210
0.0
220
0.0
230
1.0
100
AcDbArc
 50
81.636402
 51
278.363598
  0
LINE
  5
1FB
100
AcDbEntity
  8
0
370
    50
390
0
 62
     7
 48
0.064888
100
AcDbLine
 10
187.549545
 20
66.150459
 30
0.0
 11
187.549545
 21
63.554928
 31
0.0
210
0.0
220
0.0
230
1.0
  0
ARC
  5
1FC
100
AcDbEntity
  8
0
370
    50
390
0
 62
     7
100
AcDbCircle
 10
188.549545
 20
66.150459
 30
0.0
 40
1.0
210
0.0
220
0.0
230
1.0
100
AcDbArc
 50
90.000003
 51
180.000005
  0
LINE
  5
1FD
100
AcDbEntity
  8
0
370
    50
390
0
 62
     7
 48
0.0425
100
AcDbLine
 10
188.549545
 20
67.150459
 30
0.0
 11
190.249542
 21
67.150459
 31
0.0
210
0.0
220
0.0
230
1.0
  0
ARC
  5
1FE
100
AcDbEntity
  8
0
370
    50
390
0
 62
     7
100
AcDbCircle
 10
190.249542
 20
66.150459
 30
0.0
 40
1.0
210
0.0
220
0.0
230
1.0
100
AcDbArc
 50
0.0
 51
90.000003
  0
LINE
  5
1FF
100
AcDbEntity
  8
0
370
    50
390
0
 62
     7
 48
0.085077
100
AcDbLine
 10
191.249542
 20
62.747391
 30
0.0
 11
191.249542
 21
66.150459
 31
0.0
210
0.0
220
0.0
230
1.0
  0
ARC
  5
200
100
AcDbEntity
  8
0
370
    50
390
0
 62
     7
100
AcDbCircle
 10
257.363251
 20
36.318779
 30
0.0
 40
33.5
210
0.0
220
0.0
230
1.0
100
AcDbArc
 50
93.165706
 51
206.834292
  0
LINE
  5
201
100
AcDbEntity
  8
0
370
    50
390
0
 62
     7
 48
0.078722
100
AcDbLine
 10
227.470673
 20
21.196487
 30
0.0
 11
230.197678
 21
22.770926
 31
0.0
210
0.0
220
0.0
230
1.0
  0
ARC
  5
202
100
AcDbEntity
  8
0
370
    50
390
0
 62
     7
100
AcDbCircle
 10
230.697678
 20
21.9049
 30
0.0
 40
1.0
210
0.0
220
0.0
230
1.0
100
AcDbArc
 50
30.000001
 51
120.000003
  0
LINE
  5
203
100
AcDbEntity
  8
0
370
    50
390
0
 62
     7
 48
0.0425
100
AcDbLine
 10
231.563705
 20
22.4049
 30
0.0
 11
232.413712
 21
20.932657
 31
0.0
210
0.0
220
0.0
230
1.0
  0
ARC
  5
204
100
AcDbEntity
  8
0
370
    50
390
0
 62
     7
100
AcDbCircle
 10
231.547684
 20
20.432657
 30
0.0
 40
1.0
210
0.0
220
0.0
230
1.0
100
AcDbArc
 50
299.999998
 51
30.000001
  0
LINE
  5
205
100
AcDbEntity
  8
0
370
    50
390
0
 62
     7
 48
0.078722
100
AcDbLine
 10
232.047684
 20
19.566631
 30
0.0
 11
229.320679
 21
17.992193
 31
0.0
210
0.0
220
0.0
230
1.0
  0
ARC
  5
206
100
AcDbEntity
  8
0
370
    50
390
0
 62
     7
100
AcDbCircle
 10
257.363251
 20
36.318779
 30
0.0
 40
33.5
210
0.0
220
0.0
230
1.0
100
AcDbArc
 50
213.1657
 51
326.834295
  0
LINE
  5
207
100
AcDbEntity
  8
0
370
    50
390
0
 62
     7
 48
0.078722
100
AcDbLine
 10
282.678833
 20
19.566631
 30
0.0
 11
285.405823
 21
17.992193
 31
0.0
210
0.0
220
0.0
230
1.0
  0
ARC
  5
208
100
AcDbEntity
  8
0
370
    50
390
0
 62
     7
100
AcDbCircle
 10
283.178833
 20
20.432657
 30
0.0
 40
1.0
210
0.0
220
0.0
230
1.0
100
AcDbArc
 50
149.999997
 51
239.999997
  0
LINE
  5
209
100
AcDbEntity
  8
0
370
    50
390
0
 62
     7
 48
0.0425
100
AcDbLine
 10
283.162781
 20
22.4049
 30
0.0
 11
282.312805
 21
20.932657
 31
0.0
210
0.0
220
0.0
230
1.0
  0
ARC
  5
20A
100
AcDbEntity
  8
0
370
    50
390
0
 62
     7
100
AcDbCircle
 10
284.028809
 20
21.9049
 30
0.0
 40
1.0
210
0.0
220
0.0
230
1.0
100
AcDbArc
 50
60.000002
 51
149.999997
  0
LINE
  5
20B
100
AcDbEntity
  8
0
370
    50
390
0
 62
     7
 48
0.078722
100
AcDbLine
 10
287.255829
 20
21.196487
 30
0.0
 11
284.528809
 21
22.770926
 31
0.0
210
0.0
220
0.0
230
1.0
  0
ARC
  5
20C
100
AcDbEntity
  8
0
370
    50
390
0
 62
     7
100
AcDbCircle
 10
257.363251
 20
36.318779
 30
0.0
 40
33.5
210
0.0
220
0.0
230
1.0
100
AcDbArc
 50
333.165706
 51
86.834292
  0
LINE
  5
20D
100
AcDbEntity
  8
0
370
    50
390
0
 62
     7
 48
0.078722
100
AcDbLine
 10
259.213257
 20
66.618774
 30
0.0
 11
259.213257
 21
69.767654
 31
0.0
210
0.0
220
0.0
230
1.0
  0
ARC
  5
20E
100
AcDbEntity
  8
0
370
    50
390
0
 62
     7
100
AcDbCircle
 10
258.213257
 20
66.618774
 30
0.0
 40
1.0
210
0.0
220
0.0
230
1.0
100
AcDbArc
 50
269.999997
 51
360.0
  0
LINE
  5
20F
100
AcDbEntity
  8
0
370
    50
390
0
 62
     7
 48
0.0425
100
AcDbLine
 10
256.513245
 20
65.618774
 30
0.0
 11
258.213257
 21
65.618774
 31
0.0
210
0.0
220
0.0
230
1.0
  0
ARC
  5
210
100
AcDbEntity
  8
0
370
    50
390
0
 62
     7
100
AcDbCircle
 10
256.513245
 20
66.618774
 30
0.0
 40
1.0
210
0.0
220
0.0
230
1.0
100
AcDbArc
 50
179.999995
 51
269.999997
  0
LINE
  5
211
100
AcDbEntity
  8
0
370
    50
390
0
 62
     7
 48
0.078722
100
AcDbLine
 10
255.513245
 20
69.767654
 30
0.0
 11
255.513245
 21
66.618774
 31
0.0
210
0.0
220
0.0
230
1.0
  0
CIRCLE
  5
212
100
AcDbEntity
  8
0
370
    50
390
0
 62
     7
100
AcDbCircle
 10
233.547546
 20
50.068779
 30
0.0
 40
1.5
210
0.0
220
0.0
230
1.0
  0
CIRCLE
  5
213
100
AcDbEntity
  8
0
370
    50
390
0
 62
     7
100
AcDbCircle
 10
281.178955
 20
50.068779
 30
0.0
 40
1.5
210
0.0
220
0.0
230
1.0
  0
CIRCLE
  5
214
100
AcDbEntity
  8
0
370
    50
390
0
 62
     7
100
AcDbCircle
 10
257.363251
 20
8.818779
 30
0.0
 40
1.5
210
0.0
220
0.0
230
1.0
  0
ARC
  5
215
100
AcDbEntity
  8
0
370
    50
390
0
 62
     7
100
AcDbCircle
 10
233.674133
 20
42.569847
 30
0.0
 40
3.0
210
0.0
220
0.0
230
1.0
100
AcDbArc
 50
90.967075
 51
165.217782
  0
ARC
  5
216
100
AcDbEntity
  8
0
370
    50
390
0
 62
     7
100
AcDbCircle
 10
233.547546
 20
50.068779
 30
0.0
 40
4.5
210
0.0
220
0.0
230
1.0
100
AcDbArc
 50
270.967077
 51
29.032921
  0
ARC
  5
217
100
AcDbEntity
  8
0
370
    50
390
0
 62
     7
100
AcDbCircle
 10
240.105103
 20
53.708618
 30
0.0
 40
3.0
210
0.0
220
0.0
230
1.0
100
AcDbArc
 50
134.782213
 51
209.032916
  0
ARC
  5
218
100
AcDbEntity
  8
0
370
    50
390
0
 62
     7
100
AcDbCircle
 10
257.363251
 20
36.318779
 30
0.0
 40
27.5
210
0.0
220
0.0
230
1.0
100
AcDbArc
 50
165.217782
 51
254.782213
  0
ARC
  5
219
100
AcDbEntity
  8
0
370
    50
390
0
 62
     7
100
AcDbCircle
 10
250.932281
 20
12.67787
 30
0.0
 40
3.0
210
0.0
220
0.0
230
1.0
100
AcDbArc
 50
254.782213
 51
329.032923
  0
ARC
  5
21A
100
AcDbEntity
  8
0
370
    50
390
0
 62
     7
100
AcDbCircle
 10
257.363251
 20
8.818779
 30
0.0
 40
4.5
210
0.0
220
0.0
230
1.0
100
AcDbArc
 50
30.967077
 51
149.032925
  0
ARC
  5
21B
100
AcDbEntity
  8
0
370
    50
390
0
 62
     7
100
AcDbCircle
 10
263.79422
 20
12.67787
 30
0.0
 40
3.0
210
0.0
220
0.0
230
1.0
100
AcDbArc
 50
210.967075
 51
285.217782
  0
ARC
  5
21C
100
AcDbEntity
  8
0
370
    50
390
0
 62
     7
100
AcDbCircle
 10
257.363251
 20
36.318779
 30
0.0
 40
27.5
210
0.0
220
0.0
230
1.0
100
AcDbArc
 50
45.217782
 51
134.782213
  0
ARC
  5
21D
100
AcDbEntity
  8
0
370
    50
390
0
 62
     7
100
AcDbCircle
 10
274.621399
 20
53.708618
 30
0.0
 40
3.0
210
0.0
220
0.0
230
1.0
100
AcDbArc
 50
330.967079
 51
45.217782
  0
ARC
  5
21E
100
AcDbEntity
  8
0
370
    50
390
0
 62
     7
100
AcDbCircle
 10
281.052368
 20
42.569847
 30
0.0
 40
3.0
210
0.0
220
0.0
230
1.0
100
AcDbArc
 50
14.782215
 51
89.032923
  0
ARC
  5
21F
100
AcDbEntity
  8
0
370
    50
390
0
 62
     7
100
AcDbCircle
 10
257.363251
 20
36.318779
 30
0.0
 40
27.5
210
0.0
220
0.0
230
1.0
100
AcDbArc
 50
285.217782
 51
14.782215
  0
ARC
  5
220
100
AcDbEntity
  8
0
370
    50
390
0
 62
     7
100
AcDbCircle
 10
281.178955
 20
50.068779
 30
0.0
 40
4.5
210
0.0
220
0.0
230
1.0
100
AcDbArc
 50
150.967084
 51
269.032925
  0
ARC
  5
221
100
AcDbEntity
  8
0
370
    50
390
0
 62
     7
100
AcDbCircle
 10
330.784607
 20
36.385845
 30
0.0
 40
33.5
210
0.0
220
0.0
230
1.0
100
AcDbArc
 50
93.165706
 51
206.834292
  0
LINE
  5
222
100
AcDbEntity
  8
0
370
    50
390
0
 62
     7
 48
0.078722
100
AcDbLine
 10
300.892029
 20
21.263554
 30
0.0
 11
303.619049
 21
22.837992
 31
0.0
210
0.0
220
0.0
230
1.0
  0
ARC
  5
223
100
AcDbEntity
  8
0
370
    50
390
0
 62
     7
100
AcDbCircle
 10
304.119049
 20
21.971966
 30
0.0
 40
1.0
210
0.0
220
0.0
230
1.0
100
AcDbArc
 50
30.000001
 51
120.000003
  0
LINE
  5
224
100
AcDbEntity
  8
0
370
    50
390
0
 62
     7
 48
0.0425
100
AcDbLine
 10
304.985077
 20
22.471966
 30
0.0
 11
305.835052
 21
20.999723
 31
0.0
210
0.0
220
0.0
230
1.0
  0
ARC
  5
225
100
AcDbEntity
  8
0
370
    50
390
0
 62
     7
100
AcDbCircle
 10
304.969025
 20
20.499723
 30
0.0
 40
1.0
210
0.0
220
0.0
230
1.0
100
AcDbArc
 50
299.999998
 51
30.000001
  0
LINE
  5
226
100
AcDbEntity
  8
0
370
    50
390
0
 62
     7
 48
0.078722
100
AcDbLine
 10
305.469025
 20
19.633698
 30
0.0
 11
302.742035
 21
18.059259
 31
0.0
210
0.0
220
0.0
230
1.0
  0
ARC
  5
227
100
AcDbEntity
  8
0
370
    50
390
0
 62
     7
100
AcDbCircle
 10
330.784607
 20
36.385845
 30
0.0
 40
33.5
210
0.0
220
0.0
230
1.0
100
AcDbArc
 50
213.1657
 51
326.834295
  0
LINE
  5
228
100
AcDbEntity
  8
0
370
    50
390
0
 62
     7
 48
0.078722
100
AcDbLine
 10
356.100189
 20
19.633698
 30
0.0
 11
358.827179
 21
18.059259
 31
0.0
210
0.0
220
0.0
230
1.0
  0
ARC
  5
229
100
AcDbEntity
  8
0
370
    50
390
0
 62
     7
100
AcDbCircle
 10
356.600189
 20
20.499723
 30
0.0
 40
1.0
210
0.0
220
0.0
230
1.0
100
AcDbArc
 50
149.999997
 51
239.999997
  0
LINE
  5
22A
100
AcDbEntity
  8
0
370
    50
390
0
 62
     7
 48
0.0425
100
AcDbLine
 10
356.584137
 20
22.471966
 30
0.0
 11
355.734161
 21
20.999723
 31
0.0
210
0.0
220
0.0
230
1.0
  0
ARC
  5
22B
100
AcDbEntity
  8
0
370
    50
390
0
 62
     7
100
AcDbCircle
 10
357.450165
 20
21.971966
 30
0.0
 40
1.0
210
0.0
220
0.0
230
1.0
100
AcDbArc
 50
60.000002
 51
149.999997
  0
LINE
  5
22C
100
AcDbEntity
  8
0
370
    50
390
0
 62
     7
 48
0.078722
100
AcDbLine
 10
360.677185
 20
21.263554
 30
0.0
 11
357.950165
 21
22.837992
 31
0.0
210
0.0
220
0.0
230
1.0
  0
ARC
  5
22D
100
AcDbEntity
  8
0
370
    50
390
0
 62
     7
100
AcDbCircle
 10
330.784607
 20
36.385845
 30
0.0
 40
33.5
210
0.0
220
0.0
230
1.0
100
AcDbArc
 50
333.165706
 51
86.834292
  0
LINE
  5
22E
100
AcDbEntity
  8
0
370
    50
390
0
 62
     7
 48
0.078722
100
AcDbLine
 10
332.634613
 20
66.685844
 30
0.0
 11
332.634613
 21
69.834724
 31
0.0
210
0.0
220
0.0
230
1.0
  0
ARC
  5
22F
100
AcDbEntity
  8
0
370
    50
390
0
 62
     7
100
AcDbCircle
 10
331.634613
 20
66.685844
 30
0.0
 40
1.0
210
0.0
220
0.0
230
1.0
100
AcDbArc
 50
269.999997
 51
360.0
  0
LINE
  5
230
100
AcDbEntity
  8
0
370
    50
390
0
 62
     7
 48
0.0425
100
AcDbLine
 10
329.934601
 20
65.685844
 30
0.0
 11
331.634613
 21
65.685844
 31
0.0
210
0.0
220
0.0
230
1.0
  0
ARC
  5
231
100
AcDbEntity
  8
0
370
    50
390
0
 62
     7
100
AcDbCircle
 10
329.934601
 20
66.685844
 30
0.0
 40
1.0
210
0.0
220
0.0
230
1.0
100
AcDbArc
 50
180.000005
 51
269.999997
  0
LINE
  5
232
100
AcDbEntity
  8
0
370
    50
390
0
 62
     7
 48
0.078722
100
AcDbLine
 10
328.934601
 20
69.834724
 30
0.0
 11
328.934601
 21
66.685844
 31
0.0
210
0.0
220
0.0
230
1.0
  0
ARC
  5
233
100
AcDbEntity
  8
0
370
    50
390
0
 62
     7
100
AcDbCircle
 10
339.954468
 20
62.268532
 30
0.0
 40
1.0
210
0.0
220
0.0
230
1.0
100
AcDbArc
 50
60.000002
 51
149.999997
  0
LINE
  5
234
100
AcDbEntity
  8
0
370
    50
390
0
 62
     7
 48
0.250001
100
AcDbLine
 10
349.114746
 20
58.134556
 30
0.0
 11
340.454468
 21
63.134556
 31
0.0
210
0.0
220
0.0
230
1.0
  0
ARC
  5
235
100
AcDbEntity
  8
0
370
    50
390
0
 62
     7
100
AcDbCircle
 10
348.614746
 20
57.268532
 30
0.0
 40
1.0
210
0.0
220
0.0
230
1.0
100
AcDbArc
 50
329.999999
 51
60.000002
  0
LINE
  5
236
100
AcDbEntity
  8
0
370
    50
390
0
 62
     7
 48
0.075
100
AcDbLine
 10
347.980774
 20
54.170456
 30
0.0
 11
349.480774
 21
56.768532
 31
0.0
210
0.0
220
0.0
230
1.0
  0
ARC
  5
237
100
AcDbEntity
  8
0
370
    50
390
0
 62
     7
100
AcDbCircle
 10
347.114746
 20
54.670456
 30
0.0
 40
1.0
210
0.0
220
0.0
230
1.0
100
AcDbArc
 50
239.999997
 51
329.999999
  0
LINE
  5
238
100
AcDbEntity
  8
0
370
    50
390
0
 62
     7
 48
0.250001
100
AcDbLine
 10
337.954468
 20
58.804428
 30
0.0
 11
346.614746
 21
53.804428
 31
0.0
210
0.0
220
0.0
230
1.0
  0
ARC
  5
239
100
AcDbEntity
  8
0
370
    50
390
0
 62
     7
100
AcDbCircle
 10
338.454468
 20
59.670456
 30
0.0
 40
1.0
210
0.0
220
0.0
230
1.0
100
AcDbArc
 50
149.999997
 51
239.999997
  0
LINE
  5
23A
100
AcDbEntity
  8
0
370
    50
390
0
 62
     7
 48
0.075
100
AcDbLine
 10
339.08844
 20
62.768532
 30
0.0
 11
337.58844
 21
60.170456
 31
0.0
210
0.0
220
0.0
230
1.0
  0
CIRCLE
  5
23B
100
AcDbEntity
  8
0
370
    50
390
0
 62
     7
100
AcDbCircle
 10
444.40509
 20
98.149529
 30
0.0
 40
33.5
210
0.0
220
0.0
230
1.0
  0
CIRCLE
  5
23C
100
AcDbEntity
  8
0
370
    50
390
0
 62
     7
100
AcDbCircle
 10
444.40509
 20
125.649529
 30
0.0
 40
1.5
210
0.0
220
0.0
230
1.0
  0
CIRCLE
  5
23D
100
AcDbEntity
  8
0
370
    50
390
0
 62
     7
100
AcDbCircle
 10
468.220795
 20
84.399529
 30
0.0
 40
1.5
210
0.0
220
0.0
230
1.0
  0
CIRCLE
  5
23E
100
AcDbEntity
  8
0
370
    50
390
0
 62
     7
100
AcDbCircle
 10
420.589386
 20
84.399529
 30
0.0
 40
1.5
210
0.0
220
0.0
230
1.0
  0
ARC
  5
23F
100
AcDbEntity
  8
0
370
    50
390
0
 62
     7
100
AcDbCircle
 10
404.492371
 20
36.176857
 30
0.0
 40
33.5
210
0.0
220
0.0
230
1.0
100
AcDbArc
 50
93.165706
 51
206.834292
  0
LINE
  5
240
100
AcDbEntity
  8
0
370
    50
390
0
 62
     7
 48
0.078722
100
AcDbLine
 10
374.599792
 20
21.054565
 30
0.0
 11
377.326813
 21
22.629004
 31
0.0
210
0.0
220
0.0
230
1.0
  0
ARC
  5
241
100
AcDbEntity
  8
0
370
    50
390
0
 62
     7
100
AcDbCircle
 10
377.826813
 20
21.762978
 30
0.0
 40
1.0
210
0.0
220
0.0
230
1.0
100
AcDbArc
 50
30.000001
 51
120.000003
  0
LINE
  5
242
100
AcDbEntity
  8
0
370
    50
390
0
 62
     7
 48
0.0425
100
AcDbLine
 10
378.692841
 20
22.262978
 30
0.0
 11
379.542816
 21
20.790735
 31
0.0
210
0.0
220
0.0
230
1.0
  0
ARC
  5
243
100
AcDbEntity
  8
0
370
    50
390
0
 62
     7
100
AcDbCircle
 10
378.676788
 20
20.290735
 30
0.0
 40
1.0
210
0.0
220
0.0
230
1.0
100
AcDbArc
 50
299.999998
 51
30.000001
  0
LINE
  5
244
100
AcDbEntity
  8
0
370
    50
390
0
 62
     7
 48
0.078722
100
AcDbLine
 10
379.176788
 20
19.424709
 30
0.0
 11
376.449799
 21
17.850271
 31
0.0
210
0.0
220
0.0
230
1.0
  0
ARC
  5
245
100
AcDbEntity
  8
0
370
    50
390
0
 62
     7
100
AcDbCircle
 10
404.492371
 20
36.176857
 30
0.0
 40
33.5
210
0.0
220
0.0
230
1.0
100
AcDbArc
 50
213.1657
 51
326.834295
  0
LINE
  5
246
100
AcDbEntity
  8
0
370
    50
390
0
 62
     7
 48
0.078722
100
AcDbLine
 10
429.807953
 20
19.424709
 30
0.0
 11
432.534943
 21
17.850271
 31
0.0
210
0.0
220
0.0
230
1.0
  0
ARC
  5
247
100
AcDbEntity
  8
0
370
    50
390
0
 62
     7
100
AcDbCircle
 10
430.307953
 20
20.290735
 30
0.0
 40
1.0
210
0.0
220
0.0
230
1.0
100
AcDbArc
 50
149.999997
 51
239.999997
  0
LINE
  5
248
100
AcDbEntity
  8
0
370
    50
390
0
 62
     7
 48
0.0425
100
AcDbLine
 10
430.291901
 20
22.262978
 30
0.0
 11
429.441925
 21
20.790735
 31
0.0
210
0.0
220
0.0
230
1.0
  0
ARC
  5
249
100
AcDbEntity
  8
0
370
    50
390
0
 62
     7
100
AcDbCircle
 10
431.157928
 20
21.762978
 30
0.0
 40
1.0
210
0.0
220
0.0
230
1.0
100
AcDbArc
 50
60.000002
 51
149.999997
  0
LINE
  5
24A
100
AcDbEntity
  8
0
370
    50
390
0
 62
     7
 48
0.078722
100
AcDbLine
 10
434.384949
 20
21.054565
 30
0.0
 11
431.657928
 21
22.629004
 31
0.0
210
0.0
220
0.0
230
1.0
  0
ARC
  5
24B
100
AcDbEntity
  8
0
370
    50
390
0
 62
     7
100
AcDbCircle
 10
404.492371
 20
36.176857
 30
0.0
 40
33.5
210
0.0
220
0.0
230
1.0
100
AcDbArc
 50
333.165706
 51
86.834292
  0
LINE
  5
24C
100
AcDbEntity
  8
0
370
    50
390
0
 62
     7
 48
0.078722
100
AcDbLine
 10
406.342377
 20
66.476852
 30
0.0
 11
406.342377
 21
69.625732
 31
0.0
210
0.0
220
0.0
230
1.0
  0
ARC
  5
24D
100
AcDbEntity
  8
0
370
    50
390
0
 62
     7
100
AcDbCircle
 10
405.342377
 20
66.476852
 30
0.0
 40
1.0
210
0.0
220
0.0
230
1.0
100
AcDbArc
 50
269.999997
 51
360.0
  0
LINE
  5
24E
100
AcDbEntity
  8
0
370
    50
390
0
 62
     7
 48
0.0425
100
AcDbLine
 10
403.642365
 20
65.476852
 30
0.0
 11
405.342377
 21
65.476852
 31
0.0
210
0.0
220
0.0
230
1.0
  0
ARC
  5
24F
100
AcDbEntity
  8
0
370
    50
390
0
 62
     7
100
AcDbCircle
 10
403.642365
 20
66.476852
 30
0.0
 40
1.0
210
0.0
220
0.0
230
1.0
100
AcDbArc
 50
180.000005
 51
269.999997
  0
LINE
  5
250
100
AcDbEntity
  8
0
370
    50
390
0
 62
     7
 48
0.078722
100
AcDbLine
 10
402.642365
 20
69.625732
 30
0.0
 11
402.642365
 21
66.476852
 31
0.0
210
0.0
220
0.0
230
1.0
  0
CIRCLE
  5
251
100
AcDbEntity
  8
0
370
    50
390
0
 62
     7
100
AcDbCircle
 10
404.492371
 20
36.176857
 30
0.0
 40
27.5
210
0.0
220
0.0
230
1.0
  0
LINE
  5
252
100
AcDbEntity
  8
0
370
    50
390
0
 62
     7
 48
0.08
100
AcDbLine
 10
412.113495
 20
143.412292
 30
0.0
 11
415.313507
 21
143.412292
 31
0.0
210
0.0
220
0.0
230
1.0
  0
ARC
  5
253
100
AcDbEntity
  8
0
370
    50
390
0
 62
     7
100
AcDbCircle
 10
415.313507
 20
142.412292
 30
0.0
 40
1.0
210
0.0
220
0.0
230
1.0
100
AcDbArc
 50
0.0
 51
90.000003
  0
LINE
  5
254
100
AcDbEntity
  8
0
370
    50
390
0
 62
     7
 48
0.0625
100
AcDbLine
 10
416.313507
 20
142.412292
 30
0.0
 11
416.313507
 21
139.912292
 31
0.0
210
0.0
220
0.0
230
1.0
  0
LINE
  5
255
100
AcDbEntity
  8
0
370
    50
390
0
 62
     7
100
AcDbLine
 10
416.313507
 20
139.912292
 30
0.0
 11
473.212494
 21
139.912292
 31
0.0
210
0.0
220
0.0
230
1.0
  0
LINE
  5
256
100
AcDbEntity
  8
0
370
    50
390
0
 62
     7
 48
0.0625
100
AcDbLine
 10
473.212494
 20
139.912292
 30
0.0
 11
473.212494
 21
142.412292
 31
0.0
210
0.0
220
0.0
230
1.0
  0
ARC
  5
257
100
AcDbEntity
  8
0
370
    50
390
0
 62
     7
100
AcDbCircle
 10
474.212494
 20
142.412292
 30
0.0
 40
1.0
210
0.0
220
0.0
230
1.0
100
AcDbArc
 50
90.000003
 51
180.000005
  0
LINE
  5
258
100
AcDbEntity
  8
0
370
    50
390
0
 62
     7
 48
0.08
100
AcDbLine
 10
474.212494
 20
143.412292
 30
0.0
 11
477.412506
 21
143.412292
 31
0.0
210
0.0
220
0.0
230
1.0
  0
LINE
  5
259
100
AcDbEntity
  8
0
370
    50
390
0
 62
     7
 48
0.19125
100
AcDbLine
 10
477.412506
 20
143.412292
 30
0.0
 11
477.412506
 21
151.062286
 31
0.0
210
0.0
220
0.0
230
1.0
  0
LINE
  5
25A
100
AcDbEntity
  8
0
370
    50
390
0
 62
     7
 48
0.08
100
AcDbLine
 10
477.412506
 20
151.062286
 30
0.0
 11
474.212494
 21
151.062286
 31
0.0
210
0.0
220
0.0
230
1.0
  0
ARC
  5
25B
100
AcDbEntity
  8
0
370
    50
390
0
 62
     7
100
AcDbCircle
 10
474.212494
 20
152.062286
 30
0.0
 40
1.0
210
0.0
220
0.0
230
1.0
100
AcDbArc
 50
180.000005
 51
269.999997
  0
LINE
  5
25C
100
AcDbEntity
  8
0
370
    50
390
0
 62
     7
 48
0.02125
100
AcDbLine
 10
473.212494
 20
152.062286
 30
0.0
 11
473.212494
 21
152.912292
 31
0.0
210
0.0
220
0.0
230
1.0
  0
LINE
  5
25D
100
AcDbEntity
  8
0
370
    50
390
0
 62
     7
100
AcDbLine
 10
473.212494
 20
152.912292
 30
0.0
 11
416.313507
 21
152.912292
 31
0.0
210
0.0
220
0.0
230
1.0
  0
LINE
  5
25E
100
AcDbEntity
  8
0
370
    50
390
0
 62
     7
 48
0.02125
100
AcDbLine
 10
416.313507
 20
152.912292
 30
0.0
 11
416.313507
 21
152.062286
 31
0.0
210
0.0
220
0.0
230
1.0
  0
ARC
  5
25F
100
AcDbEntity
  8
0
370
    50
390
0
 62
     7
100
AcDbCircle
 10
415.313507
 20
152.062286
 30
0.0
 40
1.0
210
0.0
220
0.0
230
1.0
100
AcDbArc
 50
269.999997
 51
360.0
  0
LINE
  5
260
100
AcDbEntity
  8
0
370
    50
390
0
 62
     7
 48
0.08
100
AcDbLine
 10
415.313507
 20
151.062286
 30
0.0
 11
412.113495
 21
151.062286
 31
0.0
210
0.0
220
0.0
230
1.0
  0
LINE
  5
261
100
AcDbEntity
  8
0
370
    50
390
0
 62
     7
 48
0.19125
100
AcDbLine
 10
412.113495
 20
151.062286
 30
0.0
 11
412.113495
 21
143.412292
 31
0.0
210
0.0
220
0.0
230
1.0
  0
ARC
  5
262
100
AcDbEntity
  8
0
370
    50
390
0
 62
     7
100
AcDbCircle
 10
437.812988
 20
139.712296
 30
0.0
 40
2.0
210
0.0
220
0.0
230
1.0
100
AcDbArc
 50
90.000003
 51
115.528784
  0
ARC
  5
263
100
AcDbEntity
  8
0
370
    50
390
0
 62
     7
100
AcDbCircle
 10
436.520111
 20
142.419403
 30
0.0
 40
1.0
210
0.0
220
0.0
230
1.0
100
AcDbArc
 50
154.471217
 51
295.528779
  0
ARC
  5
264
100
AcDbEntity
  8
0
370
    50
390
0
 62
     7
100
AcDbCircle
 10
433.812988
 20
143.712296
 30
0.0
 40
2.0
210
0.0
220
0.0
230
1.0
100
AcDbArc
 50
334.47122
 51
360.0
  0
LINE
  5
265
100
AcDbEntity
  8
0
370
    50
390
0
 62
     7
 48
0.135
100
AcDbLine
 10
435.812988
 20
149.112289
 30
0.0
 11
435.812988
 21
143.712296
 31
0.0
210
0.0
220
0.0
230
1.0
  0
ARC
  5
266
100
AcDbEntity
  8
0
370
    50
390
0
 62
     7
100
AcDbCircle
 10
433.812988
 20
149.112289
 30
0.0
 40
2.0
210
0.0
220
0.0
230
1.0
100
AcDbArc
 50
0.0
 51
25.52878
  0
ARC
  5
267
100
AcDbEntity
  8
0
370
    50
390
0
 62
     7
100
AcDbCircle
 10
436.520111
 20
150.405182
 30
0.0
 40
1.0
210
0.0
220
0.0
230
1.0
100
AcDbArc
 50
64.471221
 51
205.528783
  0
ARC
  5
268
100
AcDbEntity
  8
0
370
    50
390
0
 62
     7
100
AcDbCircle
 10
437.812988
 20
153.112289
 30
0.0
 40
2.0
210
0.0
220
0.0
230
1.0
100
AcDbArc
 50
244.471216
 51
269.999997
  0
LINE
  5
269
100
AcDbEntity
  8
0
370
    50
390
0
 62
     7
 48
0.41
100
AcDbLine
 10
454.212982
 20
151.112289
 30
0.0
 11
437.812988
 21
151.112289
 31
0.0
210
0.0
220
0.0
230
1.0
  0
ARC
  5
26A
100
AcDbEntity
  8
0
370
    50
390
0
 62
     7
100
AcDbCircle
 10
454.212982
 20
153.112289
 30
0.0
 40
2.0
210
0.0
220
0.0
230
1.0
100
AcDbArc
 50
269.999997
 51
295.528779
  0
ARC
  5
26B
100
AcDbEntity
  8
0
370
    50
390
0
 62
     7
100
AcDbCircle
 10
455.50589
 20
150.405182
 30
0.0
 40
1.0
210
0.0
220
0.0
230
1.0
100
AcDbArc
 50
334.47122
 51
115.528784
  0
ARC
  5
26C
100
AcDbEntity
  8
0
370
    50
390
0
 62
     7
100
AcDbCircle
 10
458.212982
 20
149.112289
 30
0.0
 40
2.0
210
0.0
220
0.0
230
1.0
100
AcDbArc
 50
154.471217
 51
180.000005
  0
LINE
  5
26D
100
AcDbEntity
  8
0
370
    50
390
0
 62
     7
 48
0.135
100
AcDbLine
 10
456.212982
 20
143.712296
 30
0.0
 11
456.212982
 21
149.112289
 31
0.0
210
0.0
220
0.0
230
1.0
  0
ARC
  5
26E
100
AcDbEntity
  8
0
370
    50
390
0
 62
     7
100
AcDbCircle
 10
458.212982
 20
143.712296
 30
0.0
 40
2.0
210
0.0
220
0.0
230
1.0
100
AcDbArc
 50
179.999995
 51
205.528783
  0
ARC
  5
26F
100
AcDbEntity
  8
0
370
    50
390
0
 62
     7
100
AcDbCircle
 10
455.50589
 20
142.419403
 30
0.0
 40
1.0
210
0.0
220
0.0
230
1.0
100
AcDbArc
 50
244.471216
 51
25.52878
  0
ARC
  5
270
100
AcDbEntity
  8
0
370
    50
390
0
 62
     7
100
AcDbCircle
 10
454.212982
 20
139.712296
 30
0.0
 40
2.0
210
0.0
220
0.0
230
1.0
100
AcDbArc
 50
64.471221
 51
90.000003
  0
LINE
  5
271
100
AcDbEntity
  8
0
370
    50
390
0
 62
     7
 48
0.41
100
AcDbLine
 10
437.812988
 20
141.712296
 30
0.0
 11
454.212982
 21
141.712296
 31
0.0
210
0.0
220
0.0
230
1.0
  0
LINE
  5
272
100
AcDbEntity
  8
0
370
    50
390
0
 62
     7
 48
0.08
100
AcDbLine
 10
339.328003
 20
143.130402
 30
0.0
 11
342.528015
 21
143.130402
 31
0.0
210
0.0
220
0.0
230
1.0
  0
ARC
  5
273
100
AcDbEntity
  8
0
370
    50
390
0
 62
     7
100
AcDbCircle
 10
342.528015
 20
142.130402
 30
0.0
 40
1.0
210
0.0
220
0.0
230
1.0
100
AcDbArc
 50
0.0
 51
90.000003
  0
LINE
  5
274
100
AcDbEntity
  8
0
370
    50
390
0
 62
     7
 48
0.0625
100
AcDbLine
 10
343.528015
 20
142.130402
 30
0.0
 11
343.528015
 21
139.630402
 31
0.0
210
0.0
220
0.0
230
1.0
  0
LINE
  5
275
100
AcDbEntity
  8
0
370
    50
390
0
 62
     7
100
AcDbLine
 10
343.528015
 20
139.630402
 30
0.0
 11
400.472992
 21
139.630402
 31
0.0
210
0.0
220
0.0
230
1.0
  0
LINE
  5
276
100
AcDbEntity
  8
0
370
    50
390
0
 62
     7
 48
0.0625
100
AcDbLine
 10
400.472992
 20
139.630402
 30
0.0
 11
400.472992
 21
142.130402
 31
0.0
210
0.0
220
0.0
230
1.0
  0
ARC
  5
277
100
AcDbEntity
  8
0
370
    50
390
0
 62
     7
100
AcDbCircle
 10
401.472992
 20
142.130402
 30
0.0
 40
1.0
210
0.0
220
0.0
230
1.0
100
AcDbArc
 50
90.000003
 51
180.000005
  0
LINE
  5
278
100
AcDbEntity
  8
0
370
    50
390
0
 62
     7
 48
0.08
100
AcDbLine
 10
401.472992
 20
143.130402
 30
0.0
 11
404.673004
 21
143.130402
 31
0.0
210
0.0
220
0.0
230
1.0
  0
LINE
  5
279
100
AcDbEntity
  8
0
370
    50
390
0
 62
     7
 48
0.19125
100
AcDbLine
 10
404.673004
 20
143.130402
 30
0.0
 11
404.673004
 21
150.780396
 31
0.0
210
0.0
220
0.0
230
1.0
  0
LINE
  5
27A
100
AcDbEntity
  8
0
370
    50
390
0
 62
     7
 48
0.08
100
AcDbLine
 10
404.673004
 20
150.780396
 30
0.0
 11
401.472992
 21
150.780396
 31
0.0
210
0.0
220
0.0
230
1.0
  0
ARC
  5
27B
100
AcDbEntity
  8
0
370
    50
390
0
 62
     7
100
AcDbCircle
 10
401.472992
 20
151.780396
 30
0.0
 40
1.0
210
0.0
220
0.0
230
1.0
100
AcDbArc
 50
179.999995
 51
269.999997
  0
LINE
  5
27C
100
AcDbEntity
  8
0
370
    50
390
0
 62
     7
 48
0.02125
100
AcDbLine
 10
400.472992
 20
151.780396
 30
0.0
 11
400.472992
 21
152.630402
 31
0.0
210
0.0
220
0.0
230
1.0
  0
LINE
  5
27D
100
AcDbEntity
  8
0
370
    50
390
0
 62
     7
100
AcDbLine
 10
400.472992
 20
152.630402
 30
0.0
 11
343.528015
 21
152.630402
 31
0.0
210
0.0
220
0.0
230
1.0
  0
LINE
  5
27E
100
AcDbEntity
  8
0
370
    50
390
0
 62
     7
 48
0.02125
100
AcDbLine
 10
343.528015
 20
152.630402
 30
0.0
 11
343.528015
 21
151.780396
 31
0.0
210
0.0
220
0.0
230
1.0
  0
ARC
  5
27F
100
AcDbEntity
  8
0
370
    50
390
0
 62
     7
100
AcDbCircle
 10
342.528015
 20
151.780396
 30
0.0
 40
1.0
210
0.0
220
0.0
230
1.0
100
AcDbArc
 50
269.999997
 51
360.0
  0
LINE
  5
280
100
AcDbEntity
  8
0
370
    50
390
0
 62
     7
 48
0.08
100
AcDbLine
 10
342.528015
 20
150.780396
 30
0.0
 11
339.328003
 21
150.780396
 31
0.0
210
0.0
220
0.0
230
1.0
  0
LINE
  5
281
100
AcDbEntity
  8
0
370
    50
390
0
 62
     7
 48
0.19125
100
AcDbLine
 10
339.328003
 20
150.780396
 30
0.0
 11
339.328003
 21
143.130402
 31
0.0
210
0.0
220
0.0
230
1.0
  0
ARC
  5
282
100
AcDbEntity
  8
0
370
    50
390
0
 62
     7
100
AcDbCircle
 10
363.150513
 20
139.430405
 30
0.0
 40
2.0
210
0.0
220
0.0
230
1.0
100
AcDbArc
 50
90.000003
 51
115.528784
  0
ARC
  5
283
100
AcDbEntity
  8
0
370
    50
390
0
 62
     7
100
AcDbCircle
 10
361.857605
 20
142.137512
 30
0.0
 40
1.0
210
0.0
220
0.0
230
1.0
100
AcDbArc
 50
154.471217
 51
295.528779
  0
ARC
  5
284
100
AcDbEntity
  8
0
370
    50
390
0
 62
     7
100
AcDbCircle
 10
359.150513
 20
143.430405
 30
0.0
 40
2.0
210
0.0
220
0.0
230
1.0
100
AcDbArc
 50
334.47122
 51
0.0
  0
LINE
  5
285
100
AcDbEntity
  8
0
370
    50
390
0
 62
     7
 48
0.135
100
AcDbLine
 10
361.150513
 20
148.830399
 30
0.0
 11
361.150513
 21
143.430405
 31
0.0
210
0.0
220
0.0
230
1.0
  0
ARC
  5
286
100
AcDbEntity
  8
0
370
    50
390
0
 62
     7
100
AcDbCircle
 10
359.150513
 20
148.830399
 30
0.0
 40
2.0
210
0.0
220
0.0
230
1.0
100
AcDbArc
 50
0.0
 51
25.52878
  0
ARC
  5
287
100
AcDbEntity
  8
0
370
    50
390
0
 62
     7
100
AcDbCircle
 10
361.857605
 20
150.123291
 30
0.0
 40
1.0
210
0.0
220
0.0
230
1.0
100
AcDbArc
 50
64.471221
 51
205.528783
  0
ARC
  5
288
100
AcDbEntity
  8
0
370
    50
390
0
 62
     7
100
AcDbCircle
 10
363.150513
 20
152.830399
 30
0.0
 40
2.0
210
0.0
220
0.0
230
1.0
100
AcDbArc
 50
244.471216
 51
269.999997
  0
LINE
  5
289
100
AcDbEntity
  8
0
370
    50
390
0
 62
     7
 48
0.41
100
AcDbLine
 10
379.550507
 20
150.830399
 30
0.0
 11
363.150513
 21
150.830399
 31
0.0
210
0.0
220
0.0
230
1.0
  0
ARC
  5
28A
100
AcDbEntity
  8
0
370
    50
390
0
 62
     7
100
AcDbCircle
 10
379.550507
 20
152.830399
 30
0.0
 40
2.0
210
0.0
220
0.0
230
1.0
100
AcDbArc
 50
269.999997
 51
295.528779
  0
ARC
  5
28B
100
AcDbEntity
  8
0
370
    50
390
0
 62
     7
100
AcDbCircle
 10
380.843384
 20
150.123291
 30
0.0
 40
1.0
210
0.0
220
0.0
230
1.0
100
AcDbArc
 50
334.47122
 51
115.528784
  0
ARC
  5
28C
100
AcDbEntity
  8
0
370
    50
390
0
 62
     7
100
AcDbCircle
 10
383.550507
 20
148.830399
 30
0.0
 40
2.0
210
0.0
220
0.0
230
1.0
100
AcDbArc
 50
154.471217
 51
180.000005
  0
LINE
  5
28D
100
AcDbEntity
  8
0
370
    50
390
0
 62
     7
 48
0.135
100
AcDbLine
 10
381.550507
 20
143.430405
 30
0.0
 11
381.550507
 21
148.830399
 31
0.0
210
0.0
220
0.0
230
1.0
  0
ARC
  5
28E
100
AcDbEntity
  8
0
370
    50
390
0
 62
     7
100
AcDbCircle
 10
383.550507
 20
143.430405
 30
0.0
 40
2.0
210
0.0
220
0.0
230
1.0
100
AcDbArc
 50
180.000005
 51
205.528783
  0
ARC
  5
28F
100
AcDbEntity
  8
0
370
    50
390
0
 62
     7
100
AcDbCircle
 10
380.843384
 20
142.137512
 30
0.0
 40
1.0
210
0.0
220
0.0
230
1.0
100
AcDbArc
 50
244.471216
 51
25.52878
  0
ARC
  5
290
100
AcDbEntity
  8
0
370
    50
390
0
 62
     7
100
AcDbCircle
 10
379.550507
 20
139.430405
 30
0.0
 40
2.0
210
0.0
220
0.0
230
1.0
100
AcDbArc
 50
64.471221
 51
90.000003
  0
LINE
  5
291
100
AcDbEntity
  8
0
370
    50
390
0
 62
     7
 48
0.41
100
AcDbLine
 10
363.150513
 20
141.430405
 30
0.0
 11
379.550507
 21
141.430405
 31
0.0
210
0.0
220
0.0
230
1.0
  0
LINE
  5
292
100
AcDbEntity
  8
0
370
    50
390
0
 62
     7
100
AcDbLine
 10
404.112305
 20
99.699532
 30
0.0
 11
231.212296
 21
99.699532
 31
0.0
210
0.0
220
0.0
230
1.0
  0
LINE
  5
293
100
AcDbEntity
  8
0
370
    50
390
0
 62
     7
 48
0.045
100
AcDbLine
 10
404.112305
 20
101.499535
 30
0.0
 11
404.112305
 21
99.699532
 31
0.0
210
0.0
220
0.0
230
1.0
  0
LINE
  5
294
100
AcDbEntity
  8
0
370
    50
390
0
 62
     7
 48
0.0625
100
AcDbLine
 10
401.612305
 20
101.499535
 30
0.0
 11
404.112305
 21
101.499535
 31
0.0
210
0.0
220
0.0
230
1.0
  0
ARC
  5
295
100
AcDbEntity
  8
0
370
    50
390
0
 62
     7
100
AcDbCircle
 10
401.612305
 20
102.499535
 30
0.0
 40
1.0
210
0.0
220
0.0
230
1.0
100
AcDbArc
 50
179.999995
 51
269.999997
  0
LINE
  5
296
100
AcDbEntity
  8
0
370
    50
390
0
 62
     7
 48
0.08
100
AcDbLine
 10
400.612305
 20
105.699532
 30
0.0
 11
400.612305
 21
102.499535
 31
0.0
210
0.0
220
0.0
230
1.0
  0
LINE
  5
297
100
AcDbEntity
  8
0
370
    50
390
0
 62
     7
100
AcDbLine
 10
371.012299
 20
105.699532
 30
0.0
 11
400.612305
 21
105.699532
 31
0.0
210
0.0
220
0.0
230
1.0
  0
LINE
  5
298
100
AcDbEntity
  8
0
370
    50
390
0
 62
     7
 48
0.08
100
AcDbLine
 10
371.012299
 20
102.499535
 30
0.0
 11
371.012299
 21
105.699532
 31
0.0
210
0.0
220
0.0
230
1.0
  0
ARC
  5
299
100
AcDbEntity
  8
0
370
    50
390
0
 62
     7
100
AcDbCircle
 10
370.012299
 20
102.499535
 30
0.0
 40
1.0
210
0.0
220
0.0
230
1.0
100
AcDbArc
 50
269.999997
 51
360.0
  0
LINE
  5
29A
100
AcDbEntity
  8
0
370
    50
390
0
 62
     7
 48
0.0425
100
AcDbLine
 10
368.312317
 20
101.499535
 30
0.0
 11
370.012299
 21
101.499535
 31
0.0
210
0.0
220
0.0
230
1.0
  0
ARC
  5
29B
100
AcDbEntity
  8
0
370
    50
390
0
 62
     7
100
AcDbCircle
 10
368.312317
 20
102.499535
 30
0.0
 40
1.0
210
0.0
220
0.0
230
1.0
100
AcDbArc
 50
179.999995
 51
269.999997
  0
LINE
  5
29C
100
AcDbEntity
  8
0
370
    50
390
0
 62
     7
 48
0.08
100
AcDbLine
 10
367.312317
 20
105.699532
 30
0.0
 11
367.312317
 21
102.499535
 31
0.0
210
0.0
220
0.0
230
1.0
  0
LINE
  5
29D
100
AcDbEntity
  8
0
370
    50
390
0
 62
     7
 48
0.115001
100
AcDbLine
 10
362.71228
 20
105.699532
 30
0.0
 11
367.312317
 21
105.699532
 31
0.0
210
0.0
220
0.0
230
1.0
  0
LINE
  5
29E
100
AcDbEntity
  8
0
370
    50
390
0
 62
     7
 48
0.08
100
AcDbLine
 10
362.71228
 20
102.499535
 30
0.0
 11
362.71228
 21
105.699532
 31
0.0
210
0.0
220
0.0
230
1.0
  0
ARC
  5
29F
100
AcDbEntity
  8
0
370
    50
390
0
 62
     7
100
AcDbCircle
 10
361.71228
 20
102.499535
 30
0.0
 40
1.0
210
0.0
220
0.0
230
1.0
100
AcDbArc
 50
269.999997
 51
360.0
  0
LINE
  5
2A0
100
AcDbEntity
  8
0
370
    50
390
0
 62
     7
 48
0.0425
100
AcDbLine
 10
360.012299
 20
101.499535
 30
0.0
 11
361.71228
 21
101.499535
 31
0.0
210
0.0
220
0.0
230
1.0
  0
ARC
  5
2A1
100
AcDbEntity
  8
0
370
    50
390
0
 62
     7
100
AcDbCircle
 10
360.012299
 20
102.499535
 30
0.0
 40
1.0
210
0.0
220
0.0
230
1.0
100
AcDbArc
 50
179.999995
 51
269.999997
  0
LINE
  5
2A2
100
AcDbEntity
  8
0
370
    50
390
0
 62
     7
 48
0.08
100
AcDbLine
 10
359.012299
 20
105.699532
 30
0.0
 11
359.012299
 21
102.499535
 31
0.0
210
0.0
220
0.0
230
1.0
  0
LINE
  5
2A3
100
AcDbEntity
  8
0
370
    50
390
0
 62
     7
 48
0.19125
100
AcDbLine
 10
351.362305
 20
105.699532
 30
0.0
 11
359.012299
 21
105.699532
 31
0.0
210
0.0
220
0.0
230
1.0
  0
LINE
  5
2A4
100
AcDbEntity
  8
0
370
    50
390
0
 62
     7
 48
0.08
100
AcDbLine
 10
351.362305
 20
102.499535
 30
0.0
 11
351.362305
 21
105.699532
 31
0.0
210
0.0
220
0.0
230
1.0
  0
ARC
  5
2A5
100
AcDbEntity
  8
0
370
    50
390
0
 62
     7
100
AcDbCircle
 10
350.362305
 20
102.499535
 30
0.0
 40
1.0
210
0.0
220
0.0
230
1.0
100
AcDbArc
 50
269.999997
 51
360.0
  0
LINE
  5
2A6
100
AcDbEntity
  8
0
370
    50
390
0
 62
     7
 48
0.0425
100
AcDbLine
 10
348.662292
 20
101.499535
 30
0.0
 11
350.362305
 21
101.499535
 31
0.0
210
0.0
220
0.0
230
1.0
  0
ARC
  5
2A7
100
AcDbEntity
  8
0
370
    50
390
0
 62
     7
100
AcDbCircle
 10
348.662292
 20
102.499535
 30
0.0
 40
1.0
210
0.0
220
0.0
230
1.0
100
AcDbArc
 50
179.999995
 51
269.999997
  0
LINE
  5
2A8
100
AcDbEntity
  8
0
370
    50
390
0
 62
     7
 48
0.08
100
AcDbLine
 10
347.662292
 20
105.699532
 30
0.0
 11
347.662292
 21
102.499535
 31
0.0
210
0.0
220
0.0
230
1.0
  0
LINE
  5
2A9
100
AcDbEntity
  8
0
370
    50
390
0
 62
     7
 48
0.19125
100
AcDbLine
 10
340.012299
 20
105.699532
 30
0.0
 11
347.662292
 21
105.699532
 31
0.0
210
0.0
220
0.0
230
1.0
  0
LINE
  5
2AA
100
AcDbEntity
  8
0
370
    50
390
0
 62
     7
 48
0.08
100
AcDbLine
 10
340.012299
 20
102.499535
 30
0.0
 11
340.012299
 21
105.699532
 31
0.0
210
0.0
220
0.0
230
1.0
  0
ARC
  5
2AB
100
AcDbEntity
  8
0
370
    50
390
0
 62
     7
100
AcDbCircle
 10
339.012299
 20
102.499535
 30
0.0
 40
1.0
210
0.0
220
0.0
230
1.0
100
AcDbArc
 50
269.999997
 51
360.0
  0
LINE
  5
2AC
100
AcDbEntity
  8
0
370
    50
390
0
 62
     7
 48
0.0425
100
AcDbLine
 10
337.312286
 20
101.499535
 30
0.0
 11
339.012299
 21
101.499535
 31
0.0
210
0.0
220
0.0
230
1.0
  0
ARC
  5
2AD
100
AcDbEntity
  8
0
370
    50
390
0
 62
     7
100
AcDbCircle
 10
337.312286
 20
102.499535
 30
0.0
 40
1.0
210
0.0
220
0.0
230
1.0
100
AcDbArc
 50
179.999995
 51
269.999997
  0
LINE
  5
2AE
100
AcDbEntity
  8
0
370
    50
390
0
 62
     7
 48
0.08
100
AcDbLine
 10
336.312286
 20
105.699532
 30
0.0
 11
336.312286
 21
102.499535
 31
0.0
210
0.0
220
0.0
230
1.0
  0
LINE
  5
2AF
100
AcDbEntity
  8
0
370
    50
390
0
 62
     7
100
AcDbLine
 10
296.71228
 20
105.699532
 30
0.0
 11
336.312286
 21
105.699532
 31
0.0
210
0.0
220
0.0
230
1.0
  0
LINE
  5
2B0
100
AcDbEntity
  8
0
370
    50
390
0
 62
     7
 48
0.08
100
AcDbLine
 10
296.71228
 20
102.499535
 30
0.0
 11
296.71228
 21
105.699532
 31
0.0
210
0.0
220
0.0
230
1.0
  0
ARC
  5
2B1
100
AcDbEntity
  8
0
370
    50
390
0
 62
     7
100
AcDbCircle
 10
295.71228
 20
102.499535
 30
0.0
 40
1.0
210
0.0
220
0.0
230
1.0
100
AcDbArc
 50
269.999997
 51
0.0
  0
LINE
  5
2B2
100
AcDbEntity
  8
0
370
    50
390
0
 62
     7
 48
0.01
100
AcDbLine
 10
295.312286
 20
101.499535
 30
0.0
 11
295.71228
 21
101.499535
 31
0.0
210
0.0
220
0.0
230
1.0
  0
ARC
  5
2B3
100
AcDbEntity
  8
0
370
    50
390
0
 62
     7
100
AcDbCircle
 10
295.312286
 20
102.499535
 30
0.0
 40
1.0
210
0.0
220
0.0
230
1.0
100
AcDbArc
 50
179.999995
 51
269.999997
  0
LINE
  5
2B4
100
AcDbEntity
  8
0
370
    50
390
0
 62
     7
 48
0.08
100
AcDbLine
 10
294.312286
 20
105.699532
 30
0.0
 11
294.312286
 21
102.499535
 31
0.0
210
0.0
220
0.0
230
1.0
  0
LINE
  5
2B5
100
AcDbEntity
  8
0
370
    50
390
0
 62
     7
100
AcDbLine
 10
234.712296
 20
105.699532
 30
0.0
 11
294.312286
 21
105.699532
 31
0.0
210
0.0
220
0.0
230
1.0
  0
LINE
  5
2B6
100
AcDbEntity
  8
0
370
    50
390
0
 62
     7
 48
0.08
100
AcDbLine
 10
234.712296
 20
102.499535
 30
0.0
 11
234.712296
 21
105.699532
 31
0.0
210
0.0
220
0.0
230
1.0
  0
ARC
  5
2B7
100
AcDbEntity
  8
0
370
    50
390
0
 62
     7
100
AcDbCircle
 10
233.712296
 20
102.499535
 30
0.0
 40
1.0
210
0.0
220
0.0
230
1.0
100
AcDbArc
 50
269.999997
 51
360.0
  0
LINE
  5
2B8
100
AcDbEntity
  8
0
370
    50
390
0
 62
     7
 48
0.0625
100
AcDbLine
 10
231.212296
 20
101.499535
 30
0.0
 11
233.712296
 21
101.499535
 31
0.0
210
0.0
220
0.0
230
1.0
  0
LINE
  5
2B9
100
AcDbEntity
  8
0
370
    50
390
0
 62
     7
 48
0.045
100
AcDbLine
 10
231.212296
 20
99.699532
 30
0.0
 11
231.212296
 21
101.499535
 31
0.0
210
0.0
220
0.0
230
1.0
  0
LINE
  5
2BA
100
AcDbEntity
  8
0
370
    50
390
0
 62
     7
100
AcDbLine
 10
405.368774
 20
88.545006
 30
0.0
 11
232.468765
 21
88.545006
 31
0.0
210
0.0
220
0.0
230
1.0
  0
LINE
  5
2BB
100
AcDbEntity
  8
0
370
    50
390
0
 62
     7
 48
0.045
100
AcDbLine
 10
405.368774
 20
90.345009
 30
0.0
 11
405.368774
 21
88.545006
 31
0.0
210
0.0
220
0.0
230
1.0
  0
LINE
  5
2BC
100
AcDbEntity
  8
0
370
    50
390
0
 62
     7
 48
0.0625
100
AcDbLine
 10
402.868774
 20
90.345009
 30
0.0
 11
405.368774
 21
90.345009
 31
0.0
210
0.0
220
0.0
230
1.0
  0
ARC
  5
2BD
100
AcDbEntity
  8
0
370
    50
390
0
 62
     7
100
AcDbCircle
 10
402.868774
 20
91.345009
 30
0.0
 40
1.0
210
0.0
220
0.0
230
1.0
100
AcDbArc
 50
179.999995
 51
269.999997
  0
LINE
  5
2BE
100
AcDbEntity
  8
0
370
    50
390
0
 62
     7
 48
0.08
100
AcDbLine
 10
401.868774
 20
94.545006
 30
0.0
 11
401.868774
 21
91.345009
 31
0.0
210
0.0
220
0.0
230
1.0
  0
LINE
  5
2BF
100
AcDbEntity
  8
0
370
    50
390
0
 62
     7
100
AcDbLine
 10
372.268768
 20
94.545006
 30
0.0
 11
401.868774
 21
94.545006
 31
0.0
210
0.0
220
0.0
230
1.0
  0
LINE
  5
2C0
100
AcDbEntity
  8
0
370
    50
390
0
 62
     7
 48
0.08
100
AcDbLine
 10
372.268768
 20
91.345009
 30
0.0
 11
372.268768
 21
94.545006
 31
0.0
210
0.0
220
0.0
230
1.0
  0
ARC
  5
2C1
100
AcDbEntity
  8
0
370
    50
390
0
 62
     7
100
AcDbCircle
 10
371.268768
 20
91.345009
 30
0.0
 40
1.0
210
0.0
220
0.0
230
1.0
100
AcDbArc
 50
269.999997
 51
360.0
  0
LINE
  5
2C2
100
AcDbEntity
  8
0
370
    50
390
0
 62
     7
 48
0.0425
100
AcDbLine
 10
369.568787
 20
90.345009
 30
0.0
 11
371.268768
 21
90.345009
 31
0.0
210
0.0
220
0.0
230
1.0
  0
ARC
  5
2C3
100
AcDbEntity
  8
0
370
    50
390
0
 62
     7
100
AcDbCircle
 10
369.568787
 20
91.345009
 30
0.0
 40
1.0
210
0.0
220
0.0
230
1.0
100
AcDbArc
 50
179.999995
 51
269.999997
  0
LINE
  5
2C4
100
AcDbEntity
  8
0
370
    50
390
0
 62
     7
 48
0.08
100
AcDbLine
 10
368.568787
 20
94.545006
 30
0.0
 11
368.568787
 21
91.345009
 31
0.0
210
0.0
220
0.0
230
1.0
  0
LINE
  5
2C5
100
AcDbEntity
  8
0
370
    50
390
0
 62
     7
 48
0.115001
100
AcDbLine
 10
363.96875
 20
94.545006
 30
0.0
 11
368.568787
 21
94.545006
 31
0.0
210
0.0
220
0.0
230
1.0
  0
LINE
  5
2C6
100
AcDbEntity
  8
0
370
    50
390
0
 62
     7
 48
0.08
100
AcDbLine
 10
363.96875
 20
91.345009
 30
0.0
 11
363.96875
 21
94.545006
 31
0.0
210
0.0
220
0.0
230
1.0
  0
ARC
  5
2C7
100
AcDbEntity
  8
0
370
    50
390
0
 62
     7
100
AcDbCircle
 10
362.96875
 20
91.345009
 30
0.0
 40
1.0
210
0.0
220
0.0
230
1.0
100
AcDbArc
 50
269.999997
 51
360.0
  0
LINE
  5
2C8
100
AcDbEntity
  8
0
370
    50
390
0
 62
     7
 48
0.0425
100
AcDbLine
 10
361.268768
 20
90.345009
 30
0.0
 11
362.96875
 21
90.345009
 31
0.0
210
0.0
220
0.0
230
1.0
  0
ARC
  5
2C9
100
AcDbEntity
  8
0
370
    50
390
0
 62
     7
100
AcDbCircle
 10
361.268768
 20
91.345009
 30
0.0
 40
1.0
210
0.0
220
0.0
230
1.0
100
AcDbArc
 50
179.999995
 51
269.999997
  0
LINE
  5
2CA
100
AcDbEntity
  8
0
370
    50
390
0
 62
     7
 48
0.08
100
AcDbLine
 10
360.268768
 20
94.545006
 30
0.0
 11
360.268768
 21
91.345009
 31
0.0
210
0.0
220
0.0
230
1.0
  0
LINE
  5
2CB
100
AcDbEntity
  8
0
370
    50
390
0
 62
     7
 48
0.19125
100
AcDbLine
 10
352.618774
 20
94.545006
 30
0.0
 11
360.268768
 21
94.545006
 31
0.0
210
0.0
220
0.0
230
1.0
  0
LINE
  5
2CC
100
AcDbEntity
  8
0
370
    50
390
0
 62
     7
 48
0.08
100
AcDbLine
 10
352.618774
 20
91.345009
 30
0.0
 11
352.618774
 21
94.545006
 31
0.0
210
0.0
220
0.0
230
1.0
  0
ARC
  5
2CD
100
AcDbEntity
  8
0
370
    50
390
0
 62
     7
100
AcDbCircle
 10
351.618774
 20
91.345009
 30
0.0
 40
1.0
210
0.0
220
0.0
230
1.0
100
AcDbArc
 50
269.999997
 51
360.0
  0
LINE
  5
2CE
100
AcDbEntity
  8
0
370
    50
390
0
 62
     7
 48
0.0425
100
AcDbLine
 10
349.918762
 20
90.345009
 30
0.0
 11
351.618774
 21
90.345009
 31
0.0
210
0.0
220
0.0
230
1.0
  0
ARC
  5
2CF
100
AcDbEntity
  8
0
370
    50
390
0
 62
     7
100
AcDbCircle
 10
349.918762
 20
91.345009
 30
0.0
 40
1.0
210
0.0
220
0.0
230
1.0
100
AcDbArc
 50
179.999995
 51
269.999997
  0
LINE
  5
2D0
100
AcDbEntity
  8
0
370
    50
390
0
 62
     7
 48
0.08
100
AcDbLine
 10
348.918762
 20
94.545006
 30
0.0
 11
348.918762
 21
91.345009
 31
0.0
210
0.0
220
0.0
230
1.0
  0
LINE
  5
2D1
100
AcDbEntity
  8
0
370
    50
390
0
 62
     7
 48
0.19125
100
AcDbLine
 10
341.268768
 20
94.545006
 30
0.0
 11
348.918762
 21
94.545006
 31
0.0
210
0.0
220
0.0
230
1.0
  0
LINE
  5
2D2
100
AcDbEntity
  8
0
370
    50
390
0
 62
     7
 48
0.08
100
AcDbLine
 10
341.268768
 20
91.345009
 30
0.0
 11
341.268768
 21
94.545006
 31
0.0
210
0.0
220
0.0
230
1.0
  0
ARC
  5
2D3
100
AcDbEntity
  8
0
370
    50
390
0
 62
     7
100
AcDbCircle
 10
340.268768
 20
91.345009
 30
0.0
 40
1.0
210
0.0
220
0.0
230
1.0
100
AcDbArc
 50
269.999997
 51
360.0
  0
LINE
  5
2D4
100
AcDbEntity
  8
0
370
    50
390
0
 62
     7
 48
0.0425
100
AcDbLine
 10
338.568756
 20
90.345009
 30
0.0
 11
340.268768
 21
90.345009
 31
0.0
210
0.0
220
0.0
230
1.0
  0
ARC
  5
2D5
100
AcDbEntity
  8
0
370
    50
390
0
 62
     7
100
AcDbCircle
 10
338.568756
 20
91.345009
 30
0.0
 40
1.0
210
0.0
220
0.0
230
1.0
100
AcDbArc
 50
179.999995
 51
269.999997
  0
LINE
  5
2D6
100
AcDbEntity
  8
0
370
    50
390
0
 62
     7
 48
0.08
100
AcDbLine
 10
337.568756
 20
94.545006
 30
0.0
 11
337.568756
 21
91.345009
 31
0.0
210
0.0
220
0.0
230
1.0
  0
LINE
  5
2D7
100
AcDbEntity
  8
0
370
    50
390
0
 62
     7
100
AcDbLine
 10
297.96875
 20
94.545006
 30
0.0
 11
337.568756
 21
94.545006
 31
0.0
210
0.0
220
0.0
230
1.0
  0
LINE
  5
2D8
100
AcDbEntity
  8
0
370
    50
390
0
 62
     7
 48
0.08
100
AcDbLine
 10
297.96875
 20
91.345009
 30
0.0
 11
297.96875
 21
94.545006
 31
0.0
210
0.0
220
0.0
230
1.0
  0
ARC
  5
2D9
100
AcDbEntity
  8
0
370
    50
390
0
 62
     7
100
AcDbCircle
 10
296.96875
 20
91.345009
 30
0.0
 40
1.0
210
0.0
220
0.0
230
1.0
100
AcDbArc
 50
269.999997
 51
0.0
  0
LINE
  5
2DA
100
AcDbEntity
  8
0
370
    50
390
0
 62
     7
 48
0.01
100
AcDbLine
 10
296.568756
 20
90.345009
 30
0.0
 11
296.96875
 21
90.345009
 31
0.0
210
0.0
220
0.0
230
1.0
  0
ARC
  5
2DB
100
AcDbEntity
  8
0
370
    50
390
0
 62
     7
100
AcDbCircle
 10
296.568756
 20
91.345009
 30
0.0
 40
1.0
210
0.0
220
0.0
230
1.0
100
AcDbArc
 50
179.999995
 51
269.999997
  0
LINE
  5
2DC
100
AcDbEntity
  8
0
370
    50
390
0
 62
     7
 48
0.08
100
AcDbLine
 10
295.568756
 20
94.545006
 30
0.0
 11
295.568756
 21
91.345009
 31
0.0
210
0.0
220
0.0
230
1.0
  0
LINE
  5
2DD
100
AcDbEntity
  8
0
370
    50
390
0
 62
     7
100
AcDbLine
 10
235.968765
 20
94.545006
 30
0.0
 11
295.568756
 21
94.545006
 31
0.0
210
0.0
220
0.0
230
1.0
  0
LINE
  5
2DE
100
AcDbEntity
  8
0
370
    50
390
0
 62
     7
 48
0.08
100
AcDbLine
 10
235.968765
 20
91.345009
 30
0.0
 11
235.968765
 21
94.545006
 31
0.0
210
0.0
220
0.0
230
1.0
  0
ARC
  5
2DF
100
AcDbEntity
  8
0
370
    50
390
0
 62
     7
100
AcDbCircle
 10
234.968765
 20
91.345009
 30
0.0
 40
1.0
210
0.0
220
0.0
230
1.0
100
AcDbArc
 50
269.999997
 51
360.0
  0
LINE
  5
2E0
100
AcDbEntity
  8
0
370
    50
390
0
 62
     7
 48
0.0625
100
AcDbLine
 10
232.468765
 20
90.345009
 30
0.0
 11
234.968765
 21
90.345009
 31
0.0
210
0.0
220
0.0
230
1.0
  0
LINE
  5
2E1
100
AcDbEntity
  8
0
370
    50
390
0
 62
     7
 48
0.045
100
AcDbLine
 10
232.468765
 20
88.545006
 30
0.0
 11
232.468765
 21
90.345009
 31
0.0
210
0.0
220
0.0
230
1.0
  0
LINE
  5
2E2
100
AcDbEntity
  8
0
370
    50
390
0
 62
     7
100
AcDbLine
 10
409.267944
 20
76.296082
 30
0.0
 11
236.367935
 21
76.296082
 31
0.0
210
0.0
220
0.0
230
1.0
  0
LINE
  5
2E3
100
AcDbEntity
  8
0
370
    50
390
0
 62
     7
 48
0.045
100
AcDbLine
 10
409.267944
 20
78.096085
 30
0.0
 11
409.267944
 21
76.296082
 31
0.0
210
0.0
220
0.0
230
1.0
  0
LINE
  5
2E4
100
AcDbEntity
  8
0
370
    50
390
0
 62
     7
 48
0.0625
100
AcDbLine
 10
406.767944
 20
78.096085
 30
0.0
 11
409.267944
 21
78.096085
 31
0.0
210
0.0
220
0.0
230
1.0
  0
ARC
  5
2E5
100
AcDbEntity
  8
0
370
    50
390
0
 62
     7
100
AcDbCircle
 10
406.767944
 20
79.096085
 30
0.0
 40
1.0
210
0.0
220
0.0
230
1.0
100
AcDbArc
 50
179.999995
 51
269.999997
  0
LINE
  5
2E6
100
AcDbEntity
  8
0
370
    50
390
0
 62
     7
 48
0.08
100
AcDbLine
 10
405.767944
 20
82.296082
 30
0.0
 11
405.767944
 21
79.096085
 31
0.0
210
0.0
220
0.0
230
1.0
  0
LINE
  5
2E7
100
AcDbEntity
  8
0
370
    50
390
0
 62
     7
100
AcDbLine
 10
376.167938
 20
82.296082
 30
0.0
 11
405.767944
 21
82.296082
 31
0.0
210
0.0
220
0.0
230
1.0
  0
LINE
  5
2E8
100
AcDbEntity
  8
0
370
    50
390
0
 62
     7
 48
0.08
100
AcDbLine
 10
376.167938
 20
79.096085
 30
0.0
 11
376.167938
 21
82.296082
 31
0.0
210
0.0
220
0.0
230
1.0
  0
ARC
  5
2E9
100
AcDbEntity
  8
0
370
    50
390
0
 62
     7
100
AcDbCircle
 10
375.167938
 20
79.096085
 30
0.0
 40
1.0
210
0.0
220
0.0
230
1.0
100
AcDbArc
 50
269.999997
 51
360.0
  0
LINE
  5
2EA
100
AcDbEntity
  8
0
370
    50
390
0
 62
     7
 48
0.0425
100
AcDbLine
 10
373.467957
 20
78.096085
 30
0.0
 11
375.167938
 21
78.096085
 31
0.0
210
0.0
220
0.0
230
1.0
  0
ARC
  5
2EB
100
AcDbEntity
  8
0
370
    50
390
0
 62
     7
100
AcDbCircle
 10
373.467957
 20
79.096085
 30
0.0
 40
1.0
210
0.0
220
0.0
230
1.0
100
AcDbArc
 50
179.999995
 51
269.999997
  0
LINE
  5
2EC
100
AcDbEntity
  8
0
370
    50
390
0
 62
     7
 48
0.08
100
AcDbLine
 10
372.467957
 20
82.296082
 30
0.0
 11
372.467957
 21
79.096085
 31
0.0
210
0.0
220
0.0
230
1.0
  0
LINE
  5
2ED
100
AcDbEntity
  8
0
370
    50
390
0
 62
     7
 48
0.115001
100
AcDbLine
 10
367.86792
 20
82.296082
 30
0.0
 11
372.467957
 21
82.296082
 31
0.0
210
0.0
220
0.0
230
1.0
  0
LINE
  5
2EE
100
AcDbEntity
  8
0
370
    50
390
0
 62
     7
 48
0.08
100
AcDbLine
 10
367.86792
 20
79.096085
 30
0.0
 11
367.86792
 21
82.296082
 31
0.0
210
0.0
220
0.0
230
1.0
  0
ARC
  5
2EF
100
AcDbEntity
  8
0
370
    50
390
0
 62
     7
100
AcDbCircle
 10
366.86792
 20
79.096085
 30
0.0
 40
1.0
210
0.0
220
0.0
230
1.0
100
AcDbArc
 50
269.999997
 51
360.0
  0
LINE
  5
2F0
100
AcDbEntity
  8
0
370
    50
390
0
 62
     7
 48
0.0425
100
AcDbLine
 10
365.167938
 20
78.096085
 30
0.0
 11
366.86792
 21
78.096085
 31
0.0
210
0.0
220
0.0
230
1.0
  0
ARC
  5
2F1
100
AcDbEntity
  8
0
370
    50
390
0
 62
     7
100
AcDbCircle
 10
365.167938
 20
79.096085
 30
0.0
 40
1.0
210
0.0
220
0.0
230
1.0
100
AcDbArc
 50
179.999995
 51
269.999997
  0
LINE
  5
2F2
100
AcDbEntity
  8
0
370
    50
390
0
 62
     7
 48
0.08
100
AcDbLine
 10
364.167938
 20
82.296082
 30
0.0
 11
364.167938
 21
79.096085
 31
0.0
210
0.0
220
0.0
230
1.0
  0
LINE
  5
2F3
100
AcDbEntity
  8
0
370
    50
390
0
 62
     7
 48
0.19125
100
AcDbLine
 10
356.517944
 20
82.296082
 30
0.0
 11
364.167938
 21
82.296082
 31
0.0
210
0.0
220
0.0
230
1.0
  0
LINE
  5
2F4
100
AcDbEntity
  8
0
370
    50
390
0
 62
     7
 48
0.08
100
AcDbLine
 10
356.517944
 20
79.096085
 30
0.0
 11
356.517944
 21
82.296082
 31
0.0
210
0.0
220
0.0
230
1.0
  0
ARC
  5
2F5
100
AcDbEntity
  8
0
370
    50
390
0
 62
     7
100
AcDbCircle
 10
355.517944
 20
79.096085
 30
0.0
 40
1.0
210
0.0
220
0.0
230
1.0
100
AcDbArc
 50
269.999997
 51
360.0
  0
LINE
  5
2F6
100
AcDbEntity
  8
0
370
    50
390
0
 62
     7
 48
0.0425
100
AcDbLine
 10
353.817932
 20
78.096085
 30
0.0
 11
355.517944
 21
78.096085
 31
0.0
210
0.0
220
0.0
230
1.0
  0
ARC
  5
2F7
100
AcDbEntity
  8
0
370
    50
390
0
 62
     7
100
AcDbCircle
 10
353.817932
 20
79.096085
 30
0.0
 40
1.0
210
0.0
220
0.0
230
1.0
100
AcDbArc
 50
179.999995
 51
269.999997
  0
LINE
  5
2F8
100
AcDbEntity
  8
0
370
    50
390
0
 62
     7
 48
0.08
100
AcDbLine
 10
352.817932
 20
82.296082
 30
0.0
 11
352.817932
 21
79.096085
 31
0.0
210
0.0
220
0.0
230
1.0
  0
LINE
  5
2F9
100
AcDbEntity
  8
0
370
    50
390
0
 62
     7
 48
0.19125
100
AcDbLine
 10
345.167938
 20
82.296082
 30
0.0
 11
352.817932
 21
82.296082
 31
0.0
210
0.0
220
0.0
230
1.0
  0
LINE
  5
2FA
100
AcDbEntity
  8
0
370
    50
390
0
 62
     7
 48
0.08
100
AcDbLine
 10
345.167938
 20
79.096085
 30
0.0
 11
345.167938
 21
82.296082
 31
0.0
210
0.0
220
0.0
230
1.0
  0
ARC
  5
2FB
100
AcDbEntity
  8
0
370
    50
390
0
 62
     7
100
AcDbCircle
 10
344.167938
 20
79.096085
 30
0.0
 40
1.0
210
0.0
220
0.0
230
1.0
100
AcDbArc
 50
269.999997
 51
360.0
  0
LINE
  5
2FC
100
AcDbEntity
  8
0
370
    50
390
0
 62
     7
 48
0.0425
100
AcDbLine
 10
342.467926
 20
78.096085
 30
0.0
 11
344.167938
 21
78.096085
 31
0.0
210
0.0
220
0.0
230
1.0
  0
ARC
  5
2FD
100
AcDbEntity
  8
0
370
    50
390
0
 62
     7
100
AcDbCircle
 10
342.467926
 20
79.096085
 30
0.0
 40
1.0
210
0.0
220
0.0
230
1.0
100
AcDbArc
 50
179.999995
 51
269.999997
  0
LINE
  5
2FE
100
AcDbEntity
  8
0
370
    50
390
0
 62
     7
 48
0.08
100
AcDbLine
 10
341.467926
 20
82.296082
 30
0.0
 11
341.467926
 21
79.096085
 31
0.0
210
0.0
220
0.0
230
1.0
  0
LINE
  5
2FF
100
AcDbEntity
  8
0
370
    50
390
0
 62
     7
100
AcDbLine
 10
301.86792
 20
82.296082
 30
0.0
 11
341.467926
 21
82.296082
 31
0.0
210
0.0
220
0.0
230
1.0
  0
LINE
  5
300
100
AcDbEntity
  8
0
370
    50
390
0
 62
     7
 48
0.08
100
AcDbLine
 10
301.86792
 20
79.096085
 30
0.0
 11
301.86792
 21
82.296082
 31
0.0
210
0.0
220
0.0
230
1.0
  0
ARC
  5
301
100
AcDbEntity
  8
0
370
    50
390
0
 62
     7
100
AcDbCircle
 10
300.86792
 20
79.096085
 30
0.0
 40
1.0
210
0.0
220
0.0
230
1.0
100
AcDbArc
 50
269.999997
 51
0.0
  0
LINE
  5
302
100
AcDbEntity
  8
0
370
    50
390
0
 62
     7
 48
0.01
100
AcDbLine
 10
300.467926
 20
78.096085
 30
0.0
 11
300.86792
 21
78.096085
 31
0.0
210
0.0
220
0.0
230
1.0
  0
ARC
  5
303
100
AcDbEntity
  8
0
370
    50
390
0
 62
     7
100
AcDbCircle
 10
300.467926
 20
79.096085
 30
0.0
 40
1.0
210
0.0
220
0.0
230
1.0
100
AcDbArc
 50
179.999995
 51
269.999997
  0
LINE
  5
304
100
AcDbEntity
  8
0
370
    50
390
0
 62
     7
 48
0.08
100
AcDbLine
 10
299.467926
 20
82.296082
 30
0.0
 11
299.467926
 21
79.096085
 31
0.0
210
0.0
220
0.0
230
1.0
  0
LINE
  5
305
100
AcDbEntity
  8
0
370
    50
390
0
 62
     7
100
AcDbLine
 10
239.867935
 20
82.296082
 30
0.0
 11
299.467926
 21
82.296082
 31
0.0
210
0.0
220
0.0
230
1.0
  0
LINE
  5
306
100
AcDbEntity
  8
0
370
    50
390
0
 62
     7
 48
0.08
100
AcDbLine
 10
239.867935
 20
79.096085
 30
0.0
 11
239.867935
 21
82.296082
 31
0.0
210
0.0
220
0.0
230
1.0
  0
ARC
  5
307
100
AcDbEntity
  8
0
370
    50
390
0
 62
     7
100
AcDbCircle
 10
238.867935
 20
79.096085
 30
0.0
 40
1.0
210
0.0
220
0.0
230
1.0
100
AcDbArc
 50
269.999997
 51
360.0
  0
LINE
  5
308
100
AcDbEntity
  8
0
370
    50
390
0
 62
     7
 48
0.0625
100
AcDbLine
 10
236.367935
 20
78.096085
 30
0.0
 11
238.867935
 21
78.096085
 31
0.0
210
0.0
220
0.0
230
1.0
  0
LINE
  5
309
100
AcDbEntity
  8
0
370
    50
390
0
 62
     7
 48
0.045
100
AcDbLine
 10
236.367935
 20
76.296082
 30
0.0
 11
236.367935
 21
78.096085
 31
0.0
210
0.0
220
0.0
230
1.0
  0
ENDSEC
  0
SECTION
  2
OBJECTS
  0
DICTIONARY
  5
19
100
AcDbDictionary
280
     0
281
     1
  3
ACAD_GROUP
350
1A
  3
ACAD_MLINESTYLE
350
1B
  3
ACAD_LAYOUT
350
1E
  3
ACAD_PLOTSETTINGS
350
22
  3
ACAD_PLOTSTYLENAME
350
1F
  3
ACAD_WIPEOUT_VARS
350
23
  0
DICTIONARY
  5
1A
102
{ACAD_REACTORS
330
19
102
}
100
AcDbDictionary
280
     0
281
     1
  0
DICTIONARY
  5
1B
102
{ACAD_REACTORS
330
19
102
}
100
AcDbDictionary
280
     0
281
     1
  3
Standard
350
1C
  0
MLINESTYLE
  5
1C
102
{ACAD_REACTORS
330
1B
102
}
100
AcDbMlineStyle
  2
Standard
 70
     0
  3

 62
     0
 51
90.0
 52
90.0
 71
     2
 49
0.5
 62
   256
  6
ByLayer
 49
-0.5
 62
   256
  6
ByLayer
  0
ACDBDICTIONARYWDFLT
  5
1F
102
{ACAD_REACTORS
330
19
102
}
100
AcDbDictionary
281
     1
  3
Normal
350
1D
100
AcDbDictionaryWithDefault
340
1D
  0
ACDBPLACEHOLDER
  5
1D
102
{ACAD_REACTORS
330
1F
102
}
  0
LAYOUT
  5
20
102
{ACAD_REACTORS
330
1E
102
}
100
AcDbPlotSettings
  1

  2

  4

  6

 40
0.0
 41
0.0
 42
0.0
 43
0.0
 44
0.0
 45
0.0
 46
0.0
 47
0.0
 48
0.0
 49
0.0
140
0.0
141
0.0
142
1.0
143
1.0
 70
  1024
 72
     0
 73
     0
 74
     0
  7

 75
     0
147
1.0
148
0.0
149
0.0
100
AcDbLayout
  1
Model
 70
     0
 71
     0
 10
0.0
 20
0.0
 11
0.0
 21
0.0
 12
0.0
 22
0.0
 32
0.0
 14
0.0
 24
0.0
 34
0.0
 15
0.0
 25
0.0
 35
0.0
146
0.0
 13
0.0
 23
0.0
 33
0.0
 16
0.0
 26
0.0
 36
0.0
 17
0.0
 27
0.0
 37
0.0
 76
     0
330
A
331
0
345
0
346
0
  0
LAYOUT
  5
21
102
{ACAD_REACTORS
330
1E
102
}
100
AcDbPlotSettings
  1

  2

  4

  6

 40
0.0
 41
0.0
 42
0.0
 43
0.0
 44
0.0
 45
0.0
 46
0.0
 47
0.0
 48
0.0
 49
0.0
140
0.0
141
0.0
142
1.0
143
1.0
 70
     0
 72
     0
 73
     0
 74
     0
  7

 75
     0
147
1.0
148
0.0
149
0.0
100
AcDbLayout
  1
Layout1
 70
     0
 71
     0
 10
0.0
 20
0.0
 11
0.0
 21
0.0
 12
0.0
 22
0.0
 32
0.0
 14
0.0
 24
0.0
 34
0.0
 15
0.0
 25
0.0
 35
0.0
146
0.0
 13
0.0
 23
0.0
 33
0.0
 16
0.0
 26
0.0
 36
0.0
 17
0.0
 27
0.0
 37
0.0
 76
     0
330
B
331
0
345
0
346
0
  0
DICTIONARY
  5
1E
102
{ACAD_REACTORS
330
19
102
}
100
AcDbDictionary
280
     0
281
     1
  3
Layout1
350
21
  3
Model
350
20
  0
DICTIONARY
  5
22
102
{ACAD_REACTORS
330
19
102
}
100
AcDbDictionary
280
     0
281
     1
  0
WIPEOUTVARIABLES
  5
23
100
AcDbWipeoutVariables
 70
     1
  0
ENDSEC
  0
EOF
