  0
SECTION
  2
HEADER
  9
$ACADVER
  1
AC1014
  9
$ACADMAINTVER
 70
     0
  9
$DWGCODEPAGE
  3
ANSI_1252
  9
$INSBASE
 10
0.0
 20
0.0
 30
0.0
  9
$EXTMIN
 10
0.0
 20
0.0
 30
0.0
  9
$EXTMAX
 10
244.352692
 20
145.456589
 30
2.0
  9
$LIMMIN
 10
0.0
 20
0.0
  9
$LIMMAX
 10
420.0
 20
297.0
  9
$ORTHOMODE
 70
     0
  9
$REGENMODE
 70
     1
  9
$FILLMODE
 70
     1
  9
$QTEXTMODE
 70
     0
  9
$MIRRTEXT
 70
     1
  9
$DRAGMODE
 70
     2
  9
$LTSCALE
 40
1.0
  9
$OSMODE
 70
     0
  9
$ATTMODE
 70
     1
  9
$TEXTSIZE
 40
2.5
  9
$TRACEWID
 40
1.0
  9
$TEXTSTYLE
  7
STANDARD
  9
$CLAYER
  8
0
  9
$CELTYPE
  6
BYLAYER
  9
$CECOLOR
 62
   256
  9
$CELTSCALE
 40
1.0
  9
$DELOBJ
 70
     1
  9
$DISPSILH
 70
     0
  9
$DIMSCALE
 40
1.0
  9
$DIMASZ
 40
2.5
  9
$DIMEXO
 40
0.625
  9
$DIMDLI
 40
3.75
  9
$DIMRND
 40
0.0
  9
$DIMDLE
 40
0.0
  9
$DIMEXE
 40
1.25
  9
$DIMTP
 40
0.0
  9
$DIMTM
 40
0.0
  9
$DIMTXT
 40
2.5
  9
$DIMCEN
 40
2.5
  9
$DIMTSZ
 40
0.0
  9
$DIMTOL
 70
     0
  9
$DIMLIM
 70
     0
  9
$DIMTIH
 70
     0
  9
$DIMTOH
 70
     0
  9
$DIMSE1
 70
     0
  9
$DIMSE2
 70
     0
  9
$DIMTAD
 70
     1
  9
$DIMZIN
 70
     8
  9
$DIMBLK
  1

  9
$DIMASO
 70
     1
  9
$DIMSHO
 70
     1
  9
$DIMPOST
  1

  9
$DIMAPOST
  1

  9
$DIMALT
 70
     0
  9
$DIMALTD
 70
     3
  9
$DIMALTF
 40
0.03937
  9
$DIMLFAC
 40
1.0
  9
$DIMTOFL
 70
     1
  9
$DIMTVP
 40
0.0
  9
$DIMTIX
 70
     0
  9
$DIMSOXD
 70
     0
  9
$DIMSAH
 70
     0
  9
$DIMBLK1
  1

  9
$DIMBLK2
  1

  9
$DIMSTYLE
  2

  9
$DIMCLRD
 70
     0
  9
$DIMCLRE
 70
     0
  9
$DIMCLRT
 70
     0
  9
$DIMTFAC
 40
1.0
  9
$DIMGAP
 40
0.625
  9
$DIMJUST
 70
     0
  9
$DIMSD1
 70
     0
  9
$DIMSD2
 70
     0
  9
$DIMTOLJ
 70
     0
  9
$DIMTZIN
 70
     8
  9
$DIMALTZ
 70
     0
  9
$DIMALTTZ
 70
     0
  9
$DIMFIT
 70
     0
  9
$DIMUPT
 70
     0
  9
$DIMUNIT
 70
     2
  9
$DIMDEC
 70
     2
  9
$DIMTDEC
 70
     2
  9
$DIMALTU
 70
     2
  9
$DIMALTTD
 70
     3
  9
$DIMTXSTY
  7
STANDARD
  9
$DIMAUNIT
 70
     0
  9
$LUNITS
 70
     2
  9
$LUPREC
 70
     4
  9
$SKETCHINC
 40
1.0
  9
$FILLETRAD
 40
2.5
  9
$AUNITS
 70
     0
  9
$AUPREC
 70
     0
  9
$MENU
  1
.
  9
$ELEVATION
 40
0.0
  9
$PELEVATION
 40
0.0
  9
$THICKNESS
 40
0.0
  9
$LIMCHECK
 70
     0
  9
$BLIPMODE
 70
     1
  9
$CHAMFERA
 40
2.5
  9
$CHAMFERB
 40
2.5
  9
$CHAMFERC
 40
0.0
  9
$CHAMFERD
 40
0.0
  9
$SKPOLY
 70
     0
  9
$TDCREATE
 40
0.000000000
  9
$TDUPDATE
 40
0.000000000
  9
$TDINDWG
 40
0.0000000000
  9
$TDUSRTIMER
 40
0.0000000000
  9
$USRTIMER
 70
     1
  9
$ANGBASE
 50
0.0
  9
$ANGDIR
 70
     0
  9
$PDMODE
 70
     0
  9
$PDSIZE
 40
0.0
  9
$PLINEWID
 40
0.0
  9
$COORDS
 70
     0
  9
$SPLFRAME
 70
     0
  9
$SPLINETYPE
 70
     6
  9
$SPLINESEGS
 70
     8
  9
$ATTDIA
 70
     0
  9
$ATTREQ
 70
     1
  9
$HANDLING
 70
     1
  9
$HANDSEED
  5
281
  9
$SURFTAB1
 70
     6
  9
$SURFTAB2
 70
     6
  9
$SURFTYPE
 70
     6
  9
$SURFU
 70
     6
  9
$SURFV
 70
     6
  9
$UCSNAME
  2

  9
$UCSORG
 10
0.0
 20
0.0
 30
0.0
  9
$UCSXDIR
 10
1.0
 20
0.0
 30
0.0
  9
$UCSYDIR
 10
0.0
 20
1.0
 30
0.0
  9
$PUCSNAME
  2

  9
$PUCSORG
 10
0.0
 20
0.0
 30
0.0
  9
$PUCSXDIR
 10
1.0
 20
0.0
 30
0.0
  9
$PUCSYDIR
 10
0.0
 20
1.0
 30
0.0
  9
$USERI1
 70
     0
  9
$USERI2
 70
     0
  9
$USERI3
 70
     0
  9
$USERI4
 70
     0
  9
$USERI5
 70
     0
  9
$USERR1
 40
0.0
  9
$USERR2
 40
0.0
  9
$USERR3
 40
0.0
  9
$USERR4
 40
0.0
  9
$USERR5
 40
0.0
  9
$WORLDVIEW
 70
     1
  9
$SHADEDGE
 70
     3
  9
$SHADEDIF
 70
    70
  9
$TILEMODE
 70
     1
  9
$MAXACTVP
 70
    48
  9
$PINSBASE
 10
0.0
 20
0.0
 30
0.0
  9
$PLIMCHECK
 70
     0
  9
$PEXTMIN
 10
0.0
 20
0.0
 30
0.0
  9
$PEXTMAX
 10
244.352692
 20
145.456589
 30
2.0
  9
$PLIMMIN
 10
0.0
 20
0.0
  9
$PLIMMAX
 10
420.0
 20
297.0
  9
$UNITMODE
 70
     0
  9
$VISRETAIN
 70
     0
  9
$PLINEGEN
 70
     0
  9
$PSLTSCALE
 70
     1
  9
$TREEDEPTH
 70
  3020
  9
$PICKSTYLE
 70
     1
  9
$CMLSTYLE
  2
STANDARD
  9
$CMLJUST
 70
     0
  9
$CMLSCALE
 40
20.0
  9
$PROXYGRAPHICS
 70
     1
  9
$MEASUREMENT
 70
     1
  0
ENDSEC
  0
SECTION
  2
CLASSES
  0
CLASS
  1
LWPOLYLINE
  2
AcDbPolyline
  3
"AutoCAD"
 90
        0
280
     0
281
     1
  0
CLASS
  1
IMAGE
  2
AcDbRasterImage
  3
ISM
 90
      127
280
     0
281
     1
  0
CLASS
  1
OLE2FRAME
  2
AcDbOle2Frame
  3
""
 90
        0
280
     0
281
     1
  0
CLASS
  1
HATCH
  2
AcDbHatch
  3
"ACAD_SEDONA"
 90
        0
280
     0
281
     1
  0
CLASS
  1
DICTIONARYVAR
  2
AcDbDictionaryVar
  3
"AutoCAD"
 90
        0
280
     0
281
     0
  0
CLASS
  1
RASTERVARIABLES
  2
AcDbRasterVariables
  3
ISM
 90
        0
280
     0
281
     0
  0
CLASS
  1
IMAGEDEF
  2
AcDbRasterImageDef
  3
ISM
 90
        0
280
     0
281
     0
  0
CLASS
  1
IMAGEDEF_REACTOR
  2
AcDbRasterImageDefReactor
  3
ISM
 90
        1
280
     0
281
     0
  0
CLASS
  1
IDBUFFER
  2
AcDbIdBuffer
  3
"Acad"
 90
        0
280
     0
281
     0
  0
CLASS
  1
SPATIAL_FILTER
  2
AcDbSpatialFilter
  3
"Acad"
 90
        0
280
     0
281
     0
  0
CLASS
  1
XRECORD
  2
AcDbXrecord
  3
"<Built In>"
 90
        0
280
     0
281
     0
  0
CLASS
  1
SORTENTSTABLE
  2
AcDbSortentsTable
  3
"AutoCAD"
 90
        0
280
     0
281
     0
  0
CLASS
  1
LAYER_INDEX
  2
AcDbLayerIndex
  3
"Acad"
 90
        0
280
     0
281
     0
  0
CLASS
  1
SPATIAL_INDEX
  2
AcDbSpatialIndex
  3
"Acad"
 90
        0
280
     0
281
     0
  0
CLASS
  1
OBJECT_PTR
  2
CAseDLPNTableRecord
  3
"ASE-LPNTableRecord"
 90
        1
280
     0
281
     0
  0
CLASS
  1
LAYOUT
  2
AcDbLayout
  3
"AutoCAD 2000"
 90
        0
280
     0
281
     0
  0
CLASS
  1
PLOTSETTINGS
  2
AcDbPlotSettings
  3
"AutoCAD 2000"
 90
        0
280
     0
281
     0
  0
CLASS
  1
ACDBDICTIONARYWDFLT
  2
AcDbDictionaryWithDefault
  3
"AutoCAD 2000"
 90
        0
280
     0
281
     0
  0
CLASS
  1
ACDBPLACEHOLDER
  2
AcDbPlaceHolder
  3
"AutoCAD 2000"
 90
        0
280
     0
281
     0
  0
CLASS
  1
VBA_PROJECT
  2
AcDbVbaProject
  3
"acadvba"
 90
        0
280
     0
281
     0
  0
CLASS
  1
WIPEOUT
  2
AcDbWipeout
  3
WipeOut|AutoCAD Express Tool|expresstools@autodesk.com
 90
      127
280
     0
281
     1
  0
CLASS
  1
WIPEOUTVARIABLES
  2
AcDbWipeoutVariables
  3
WipeOut|AutoCAD Express Tool|expresstools@autodesk.com
 90
        0
280
     0
281
     0
  0
CLASS
  1
RTEXT
  2
RText
  3
RText|AutoCAD Express Tool|expresstools@autodesk.com
 90
        0
280
     0
281
     1
  0
CLASS
  1
ARCALIGNEDTEXT
  2
AcDbArcAlignedText
  3
ATEXT|AutoCAD Express Tool|expresstools@autodesk.com
 90
        0
280
     0
281
     1
  0
ENDSEC
  0
SECTION
  2
TABLES
  0
TABLE
  2
VPORT
  5
7
100
AcDbSymbolTable
 70
     1
  0
VPORT
  5
15
100
AcDbSymbolTableRecord
100
AcDbViewportTableRecord
  2
*ACTIVE
 70
     0
 10
0.0
 20
0.0
 11
1.0
 21
1.0
 12
6.591288
 22
4.579184
 13
0.0
 23
0.0
 14
1.0
 24
1.0
 15
0.0
 25
0.0
 16
0.0
 26
0.0
 36
1.0
 17
0.0
 27
0.0
 37
0.0
 40
9.158369
 41
0.688564
 42
50.0
 43
0.0
 44
0.0
 50
0.0
 51
0.0
 71
     0
 72
   100
 73
     1
 74
     1
 75
     0
 76
     0
 77
     0
 78
     0
  0
ENDTAB
  0
TABLE
  2
LTYPE
  5
4
100
AcDbSymbolTable
 70
    10
  0
LTYPE
  5
11
100
AcDbSymbolTableRecord
100
AcDbLinetypeTableRecord
  2
BYBLOCK
 70
    64
  3

 72
    65
 73
     0
 40
0.0
  0
LTYPE
  5
12
100
AcDbSymbolTableRecord
100
AcDbLinetypeTableRecord
  2
BYLAYER
 70
    64
  3

 72
    65
 73
     0
 40
0.0
  0
LTYPE
  5
13
100
AcDbSymbolTableRecord
100
AcDbLinetypeTableRecord
  2
CONTINUOUS
 70
    64
  3
Solid line
 72
    65
 73
     0
 40
0.0
  0
LTYPE
  5
1D
100
AcDbSymbolTableRecord
100
AcDbLinetypeTableRecord
  2
DASHED
 70
     0
  3
__ __ __ __ __ __ __ __ __ __ __ __ __ __ __ __
 72
    65
 73
     2
 40
15.0
 49
12.0
 74
     0
 49
-3.0
 74
     0
  0
LTYPE
  5
1E
100
AcDbSymbolTableRecord
100
AcDbLinetypeTableRecord
  2
DASHDOT
 70
     0
  3
 __ . __ . __ . __ . __ . __ . __ . 
 72
    65
 73
     4
 40
18.5
 49
12.0
 74
     0
 49
-3.0
 74
     0
 49
0.5
 74
     0
 49
-3.0
 74
     0
  0
LTYPE
  5
1F
100
AcDbSymbolTableRecord
100
AcDbLinetypeTableRecord
  2
DOT
 70
     0
  3
 . . . . . . . . . . . . . . . .
 72
    65
 73
     2
 40
3.5
 49
0.5
 74
     0
 49
-3.0
 74
     0
  0
LTYPE
  5
20
100
AcDbSymbolTableRecord
100
AcDbLinetypeTableRecord
  2
DASHSPACE
 70
     0
  3
__    __    __    __    __   
 72
    65
 73
     2
 40
30.0
 49
12.0
 74
     0
 49
-18.0
 74
     0
  0
LTYPE
  5
21
100
AcDbSymbolTableRecord
100
AcDbLinetypeTableRecord
  2
DASHDOT2
 70
     0
  3
__ . . __ . . __ . . __ 
 72
    65
 73
     6
 40
22.0
 49
12.0
 74
     0
 49
-3.0
 74
     0
 49
0.5
 74
     0
 49
-3.0
 74
     0
 49
0.5
 74
     0
 49
-3.0
 74
     0
  0
LTYPE
  5
22
100
AcDbSymbolTableRecord
100
AcDbLinetypeTableRecord
  2
PHANTOM
 70
     0
  3
____________    ____    ____   _
 72
    65
 73
     6
 40
20.0
 49
10.0
 74
     0
 49
-2.0
 74
     0
 49
2.0
 74
     0
 49
-2.0
 74
     0
 49
2.0
 74
     0
 49
-2.0
 74
     0
  0
LTYPE
  5
23
100
AcDbSymbolTableRecord
100
AcDbLinetypeTableRecord
  2
AXES
 70
     0
  3
________  __  ________  __  _____
 72
    65
 73
     4
 40
24.0
 49
15.0
 74
     0
 49
-3.0
 74
     0
 49
3.0
 74
     0
 49
-3.0
 74
     0
  0
ENDTAB
  0
TABLE
  2
LAYER
  5
2
100
AcDbSymbolTable
 70
     1
  0
LAYER
  5
14
100
AcDbSymbolTableRecord
100
AcDbLayerTableRecord
  2
0
 70
     0
 62
     7
  6
CONTINUOUS
  0
ENDTAB
  0
TABLE
  2
STYLE
  5
3
100
AcDbSymbolTable
 70
     1
  0
STYLE
  5
17
100
AcDbSymbolTableRecord
100
AcDbTextStyleTableRecord
  2
STANDARD
 70
     0
 40
0.0
 41
1.0
 50
0.0
 71
     0
 42
0.0
  3
txt
  4

  0
ENDTAB
  0
TABLE
  2
VIEW
  5
5
100
AcDbSymbolTable
 70
     0
  0
ENDTAB
  0
TABLE
  2
UCS
  5
6
100
AcDbSymbolTable
 70
     0
  0
ENDTAB
  0
TABLE
  2
APPID
  5
8
100
AcDbSymbolTable
 70
     1
  0
APPID
  5
16
100
AcDbSymbolTableRecord
100
AcDbRegAppTableRecord
  2
ACAD
 70
     0
  0
ENDTAB
  0
TABLE
  2
DIMSTYLE
  5
9
100
AcDbSymbolTable
 70
     1
  0
DIMSTYLE
105
18
100
AcDbSymbolTableRecord
100
AcDbDimStyleTableRecord
  2
STANDARD
 70
     0
  3

  4

  5

  6

  7

 40
1.0
 41
0.18
 42
0.0625
 43
0.38
 44
0.18
 45
0.0
 46
0.0
 47
0.0
 48
0.0
 71
     0
 72
     0
 73
     1
 74
     1
 75
     0
 76
     0
 77
     0
 78
     0
140
0.18
141
0.09
142
0.0
143
25.4
144
1.0
145
0.0
146
1.0
147
0.09
170
     0
171
     2
172
     0
173
     0
174
     0
175
     0
176
     0
177
     0
178
     0
270
     2
271
     4
272
     4
273
     2
274
     2
275
     0
280
     0
281
     0
282
     0
283
     1
284
     0
285
     0
286
     0
287
     3
288
     0
340
17
  0
ENDTAB
  0
TABLE
  2
BLOCK_RECORD
  5
1
100
AcDbSymbolTable
 70
     0
  0
BLOCK_RECORD
  5
A
100
AcDbSymbolTableRecord
100
AcDbBlockTableRecord
  2
*MODEL_SPACE
  0
BLOCK_RECORD
  5
B
100
AcDbSymbolTableRecord
100
AcDbBlockTableRecord
  2
*PAPER_SPACE
  0
ENDTAB
  0
ENDSEC
  0
SECTION
  2
BLOCKS
  0
BLOCK
  5
D
100
AcDbEntity
  8
0
100
AcDbBlockBegin
  2
*MODEL_SPACE
 70
     0
 10
0.0
 20
0.0
 30
0.0
  3
*MODEL_SPACE
  1

  0
ENDBLK
  5
E
100
AcDbEntity
  8
0
100
AcDbBlockEnd
  0
BLOCK
  5
F
100
AcDbEntity
 67
     1
  8
0
100
AcDbBlockBegin
  2
*PAPER_SPACE
 70
     0
 10
0.0
 20
0.0
 30
0.0
  3
*PAPER_SPACE
  1

  0
ENDBLK
  5
10
100
AcDbEntity
 67
     1
  8
0
100
AcDbBlockEnd
  0
ENDSEC
  0
SECTION
  2
ENTITIES
  0
VIEWPORT
  5
280
100
AcDbEntity
 67
     1
  8
0
 62
     0
 48
0.0
100
AcDbViewport
 10
0.0
 20
0.0
 30
0.0
 40
1000.0
 41
1000.0
 68
     1
 69
     1
1001
ACAD
1000
MVIEW
1002
{
1070
    16
1010
0.0
1020
0.0
1030
0.0
1010
0.0
1020
0.0
1030
1.0
1040
0.0
1040
1000.0
1040
0.0
1040
0.0
1040
50.0
1040
0.0
1040
0.0
1070
     0
1070
   100
1070
     1
1070
     1
1070
     0
1070
     0
1070
     0
1070
     0
1040
0.0
1040
0.0
1040
0.0
1040
1.0
1040
1.0
1040
1.0
1040
1.0
1070
     0
1002
{
1002
}
1002
}
  0
ARC
  5
24
100
AcDbEntity
  8
0
 62
     7
100
AcDbCircle
 10
38.148529
 20
111.987984
 30
0.0
 40
33.5
210
0.0
220
0.0
230
1.0
100
AcDbArc
 50
332.48074
 51
87.519267
  0
LINE
  5
25
100
AcDbEntity
  8
0
 62
     7
 48
0.074215
100
AcDbLine
 10
39.59853
 20
142.487976
 30
0.0
 11
39.59853
 21
145.456589
 31
0.0
210
0.0
220
0.0
230
1.0
  0
ARC
  5
26
100
AcDbEntity
  8
0
 62
     7
100
AcDbCircle
 10
39.573528
 20
142.487976
 30
0.0
 40
0.025
210
0.0
220
0.0
230
1.0
100
AcDbArc
 50
270.000001
 51
0.00001
  0
LINE
  5
27
100
AcDbEntity
  8
0
 62
     7
 48
0.07125
100
AcDbLine
 10
36.72353
 20
142.462982
 30
0.0
 11
39.573528
 21
142.462982
 31
0.0
210
0.0
220
0.0
230
1.0
  0
ARC
  5
28
100
AcDbEntity
  8
0
 62
     7
100
AcDbCircle
 10
36.72353
 20
142.487976
 30
0.0
 40
0.025
210
0.0
220
0.0
230
1.0
100
AcDbArc
 50
180.000005
 51
270.000001
  0
LINE
  5
29
100
AcDbEntity
  8
0
 62
     7
 48
0.074215
100
AcDbLine
 10
36.698528
 20
145.456589
 30
0.0
 11
36.698528
 21
142.487976
 31
0.0
210
0.0
220
0.0
230
1.0
  0
ARC
  5
2A
100
AcDbEntity
  8
0
 62
     7
100
AcDbCircle
 10
38.148529
 20
111.987984
 30
0.0
 40
33.5
210
0.0
220
0.0
230
1.0
100
AcDbArc
 50
92.480741
 51
207.519261
  0
LINE
  5
2B
100
AcDbEntity
  8
0
 62
     7
 48
0.074215
100
AcDbLine
 10
8.438868
 20
96.509415
 30
0.0
 11
11.009754
 21
97.993721
 31
0.0
210
0.0
220
0.0
230
1.0
  0
ARC
  5
2C
100
AcDbEntity
  8
0
 62
     7
100
AcDbCircle
 10
11.022255
 20
97.972069
 30
0.0
 40
0.025
210
0.0
220
0.0
230
1.0
100
AcDbArc
 50
30.0
 51
120.000003
  0
LINE
  5
2D
100
AcDbEntity
  8
0
 62
     7
 48
0.07125
100
AcDbLine
 10
11.043905
 20
97.984573
 30
0.0
 11
12.468904
 21
95.516396
 31
0.0
210
0.0
220
0.0
230
1.0
  0
ARC
  5
2E
100
AcDbEntity
  8
0
 62
     7
100
AcDbCircle
 10
12.447254
 20
95.503899
 30
0.0
 40
0.025
210
0.0
220
0.0
230
1.0
100
AcDbArc
 50
299.999994
 51
30.000003
  0
LINE
  5
2F
100
AcDbEntity
  8
0
 62
     7
 48
0.074215
100
AcDbLine
 10
12.459755
 20
95.482246
 30
0.0
 11
9.888866
 21
93.99794
 31
0.0
210
0.0
220
0.0
230
1.0
  0
ARC
  5
30
100
AcDbEntity
  8
0
 62
     7
100
AcDbCircle
 10
38.148529
 20
111.987984
 30
0.0
 40
33.5
210
0.0
220
0.0
230
1.0
100
AcDbArc
 50
212.480738
 51
327.519262
  0
LINE
  5
31
100
AcDbEntity
  8
0
 62
     7
 48
0.074215
100
AcDbLine
 10
63.837303
 20
95.482246
 30
0.0
 11
66.408188
 21
93.99794
 31
0.0
210
0.0
220
0.0
230
1.0
  0
ARC
  5
32
100
AcDbEntity
  8
0
 62
     7
100
AcDbCircle
 10
63.849804
 20
95.503899
 30
0.0
 40
0.025
210
0.0
220
0.0
230
1.0
100
AcDbArc
 50
149.999997
 51
240.000006
  0
LINE
  5
33
100
AcDbEntity
  8
0
 62
     7
 48
0.07125
100
AcDbLine
 10
65.253151
 20
97.984573
 30
0.0
 11
63.828156
 21
95.516396
 31
0.0
210
0.0
220
0.0
230
1.0
  0
ARC
  5
34
100
AcDbEntity
  8
0
 62
     7
100
AcDbCircle
 10
65.274803
 20
97.972069
 30
0.0
 40
0.025
210
0.0
220
0.0
230
1.0
100
AcDbArc
 50
60.000003
 51
149.999997
  0
LINE
  5
35
100
AcDbEntity
  8
0
 62
     7
 48
0.074215
100
AcDbLine
 10
67.858192
 20
96.509415
 30
0.0
 11
65.287308
 21
97.993721
 31
0.0
210
0.0
220
0.0
230
1.0
  0
ARC
  5
36
100
AcDbEntity
  8
0
 62
     7
100
AcDbCircle
 10
54.648529
 20
101.59568
 30
0.0
 40
8.0
210
0.0
220
0.0
230
1.0
100
AcDbArc
 50
327.795777
 51
0.00001
  0
ARC
  5
37
100
AcDbEntity
  8
0
 62
     7
100
AcDbCircle
 10
38.148529
 20
111.987984
 30
0.0
 40
27.5
210
0.0
220
0.0
230
1.0
100
AcDbArc
 50
212.204225
 51
327.795777
  0
ARC
  5
38
100
AcDbEntity
  8
0
 62
     7
100
AcDbCircle
 10
21.648529
 20
101.59568
 30
0.0
 40
8.0
210
0.0
220
0.0
230
1.0
100
AcDbArc
 50
180.000005
 51
212.204225
  0
LINE
  5
39
100
AcDbEntity
  8
0
 62
     7
 48
0.159808
100
AcDbLine
 10
13.648529
 20
101.59568
 30
0.0
 11
13.648529
 21
107.987984
 31
0.0
210
0.0
220
0.0
230
1.0
  0
LINE
  5
3A
100
AcDbEntity
  8
0
 62
     7
 48
0.0725
100
AcDbLine
 10
10.748529
 20
107.987984
 30
0.0
 11
13.648529
 21
107.987984
 31
0.0
210
0.0
220
0.0
230
1.0
  0
ARC
  5
3B
100
AcDbEntity
  8
0
 62
     7
100
AcDbCircle
 10
10.748529
 20
108.012985
 30
0.0
 40
0.025
210
0.0
220
0.0
230
1.0
100
AcDbArc
 50
180.000005
 51
270.000001
  0
LINE
  5
3C
100
AcDbEntity
  8
0
 62
     7
 48
0.19875
100
AcDbLine
 10
10.72353
 20
115.962982
 30
0.0
 11
10.72353
 21
108.012985
 31
0.0
210
0.0
220
0.0
230
1.0
  0
ARC
  5
3D
100
AcDbEntity
  8
0
 62
     7
100
AcDbCircle
 10
10.748529
 20
115.962982
 30
0.0
 40
0.025
210
0.0
220
0.0
230
1.0
100
AcDbArc
 50
90.000003
 51
180.000005
  0
LINE
  5
3E
100
AcDbEntity
  8
0
 62
     7
 48
0.0725
100
AcDbLine
 10
13.648529
 20
115.987984
 30
0.0
 11
10.748529
 21
115.987984
 31
0.0
210
0.0
220
0.0
230
1.0
  0
LINE
  5
3F
100
AcDbEntity
  8
0
 62
     7
 48
0.159808
100
AcDbLine
 10
13.648529
 20
115.987984
 30
0.0
 11
13.648529
 21
122.380287
 31
0.0
210
0.0
220
0.0
230
1.0
  0
ARC
  5
40
100
AcDbEntity
  8
0
 62
     7
100
AcDbCircle
 10
21.648529
 20
122.380287
 30
0.0
 40
8.0
210
0.0
220
0.0
230
1.0
100
AcDbArc
 50
147.795772
 51
180.000005
  0
ARC
  5
41
100
AcDbEntity
  8
0
 62
     7
100
AcDbCircle
 10
38.148529
 20
111.987984
 30
0.0
 40
27.5
210
0.0
220
0.0
230
1.0
100
AcDbArc
 50
32.204225
 51
147.795772
  0
ARC
  5
42
100
AcDbEntity
  8
0
 62
     7
100
AcDbCircle
 10
54.648529
 20
122.380287
 30
0.0
 40
8.0
210
0.0
220
0.0
230
1.0
100
AcDbArc
 50
0.0
 51
32.204225
  0
LINE
  5
43
100
AcDbEntity
  8
0
 62
     7
 48
0.159808
100
AcDbLine
 10
62.648529
 20
115.987984
 30
0.0
 11
62.648529
 21
122.380287
 31
0.0
210
0.0
220
0.0
230
1.0
  0
LINE
  5
44
100
AcDbEntity
  8
0
 62
     7
 48
0.0725
100
AcDbLine
 10
62.648529
 20
115.987984
 30
0.0
 11
65.548531
 21
115.987984
 31
0.0
210
0.0
220
0.0
230
1.0
  0
ARC
  5
45
100
AcDbEntity
  8
0
 62
     7
100
AcDbCircle
 10
65.548531
 20
115.962982
 30
0.0
 40
0.025
210
0.0
220
0.0
230
1.0
100
AcDbArc
 50
0.0
 51
90.000003
  0
LINE
  5
46
100
AcDbEntity
  8
0
 62
     7
 48
0.19875
100
AcDbLine
 10
65.573532
 20
115.962982
 30
0.0
 11
65.573532
 21
108.012985
 31
0.0
210
0.0
220
0.0
230
1.0
  0
ARC
  5
47
100
AcDbEntity
  8
0
 62
     7
100
AcDbCircle
 10
65.548531
 20
108.012985
 30
0.0
 40
0.025
210
0.0
220
0.0
230
1.0
100
AcDbArc
 50
270.000001
 51
0.00001
  0
LINE
  5
48
100
AcDbEntity
  8
0
 62
     7
 48
0.0725
100
AcDbLine
 10
65.548531
 20
107.987984
 30
0.0
 11
62.648529
 21
107.987984
 31
0.0
210
0.0
220
0.0
230
1.0
  0
LINE
  5
49
100
AcDbEntity
  8
0
 62
     7
 48
0.159808
100
AcDbLine
 10
62.648529
 20
101.59568
 30
0.0
 11
62.648529
 21
107.987984
 31
0.0
210
0.0
220
0.0
230
1.0
  0
LINE
  5
4A
100
AcDbEntity
  8
0
 62
     7
 48
0.084666
100
AcDbLine
 10
124.2173
 20
110.623627
 30
0.0
 11
124.2173
 21
107.236984
 31
0.0
210
0.0
220
0.0
230
1.0
  0
ARC
  5
4B
100
AcDbEntity
  8
0
 62
     7
100
AcDbCircle
 10
119.2173
 20
107.236984
 30
0.0
 40
5.0
210
0.0
220
0.0
230
1.0
100
AcDbArc
 50
326.118124
 51
0.000003
  0
ARC
  5
4C
100
AcDbEntity
  8
0
 62
     7
100
AcDbCircle
 10
108.2173
 20
114.623627
 30
0.0
 40
18.25
210
0.0
220
0.0
230
1.0
100
AcDbArc
 50
282.660762
 51
326.118124
  0
LINE
  5
4D
100
AcDbEntity
  8
0
 62
     7
 48
0.161094
100
AcDbLine
 10
112.2173
 20
90.373627
 30
0.0
 11
112.2173
 21
96.817375
 31
0.0
210
0.0
220
0.0
230
1.0
  0
LINE
  5
4E
100
AcDbEntity
  8
0
 62
     7
 48
0.075
100
AcDbLine
 10
112.2173
 20
90.373627
 30
0.0
 11
115.2173
 21
90.373627
 31
0.0
210
0.0
220
0.0
230
1.0
  0
LINE
  5
4F
100
AcDbEntity
  8
0
 62
     7
 48
0.007521
100
AcDbLine
 10
115.2173
 20
90.373627
 30
0.0
 11
115.2173
 21
90.674461
 31
0.0
210
0.0
220
0.0
230
1.0
  0
ARC
  5
50
100
AcDbEntity
  8
0
 62
     7
100
AcDbCircle
 10
116.2173
 20
90.674461
 30
0.0
 40
1.0
210
0.0
220
0.0
230
1.0
100
AcDbArc
 50
108.471432
 51
180.000001
  0
ARC
  5
51
100
AcDbEntity
  8
0
 62
     7
100
AcDbCircle
 10
108.2173
 20
114.623627
 30
0.0
 40
24.25
210
0.0
220
0.0
230
1.0
100
AcDbArc
 50
288.471427
 51
312.603668
  0
ARC
  5
52
100
AcDbEntity
  8
0
 62
     7
100
AcDbCircle
 10
119.2173
 20
102.66275
 30
0.0
 40
8.0
210
0.0
220
0.0
230
1.0
100
AcDbArc
 50
312.603668
 51
0.000003
  0
LINE
  5
53
100
AcDbEntity
  8
0
 62
     7
 48
0.199022
100
AcDbLine
 10
127.2173
 20
110.623627
 30
0.0
 11
127.2173
 21
102.66275
 31
0.0
210
0.0
220
0.0
230
1.0
  0
LINE
  5
54
100
AcDbEntity
  8
0
 62
     7
 48
0.075
100
AcDbLine
 10
124.2173
 20
110.623627
 30
0.0
 11
127.2173
 21
110.623627
 31
0.0
210
0.0
220
0.0
230
1.0
  0
ARC
  5
55
100
AcDbEntity
  8
0
 62
     7
100
AcDbCircle
 10
38.443386
 20
111.427727
 30
0.0
 40
15.75
210
0.0
220
0.0
230
1.0
100
AcDbArc
 50
30.467015
 51
75.524353
  0
LINE
  5
56
100
AcDbEntity
  8
0
 62
     7
 48
0.19685
100
AcDbLine
 10
34.506382
 20
126.677727
 30
0.0
 11
42.38039
 21
126.677727
 31
0.0
210
0.0
220
0.0
230
1.0
  0
ARC
  5
57
100
AcDbEntity
  8
0
 62
     7
100
AcDbCircle
 10
38.443386
 20
111.427727
 30
0.0
 40
15.75
210
0.0
220
0.0
230
1.0
100
AcDbArc
 50
104.475648
 51
149.532987
  0
ARC
  5
58
100
AcDbEntity
  8
0
 62
     7
100
AcDbCircle
 10
23.144285
 20
120.427727
 30
0.0
 40
2.0
210
0.0
220
0.0
230
1.0
100
AcDbArc
 50
270.000005
 51
329.532985
  0
LINE
  5
59
100
AcDbEntity
  8
0
 62
     7
 48
0.011272
100
AcDbLine
 10
22.693386
 20
118.427727
 30
0.0
 11
23.144285
 21
118.427727
 31
0.0
210
0.0
220
0.0
230
1.0
  0
LINE
  5
5A
100
AcDbEntity
  8
0
 62
     7
 48
0.075
100
AcDbLine
 10
22.693386
 20
115.427727
 30
0.0
 11
22.693386
 21
118.427727
 31
0.0
210
0.0
220
0.0
230
1.0
  0
LINE
  5
5B
100
AcDbEntity
  8
0
 62
     7
 48
0.0725
100
AcDbLine
 10
25.593386
 20
115.427727
 30
0.0
 11
22.693386
 21
115.427727
 31
0.0
210
0.0
220
0.0
230
1.0
  0
ARC
  5
5C
100
AcDbEntity
  8
0
 62
     7
100
AcDbCircle
 10
25.593386
 20
115.402725
 30
0.0
 40
0.025
210
0.0
220
0.0
230
1.0
100
AcDbArc
 50
0.000001
 51
90.00001
  0
LINE
  5
5D
100
AcDbEntity
  8
0
 62
     7
 48
0.19875
100
AcDbLine
 10
25.618387
 20
107.452728
 30
0.0
 11
25.618385
 21
115.402725
 31
0.0
210
0.0
220
0.0
230
1.0
  0
ARC
  5
5E
100
AcDbEntity
  8
0
 62
     7
100
AcDbCircle
 10
25.593386
 20
107.452728
 30
0.0
 40
0.025
210
0.0
220
0.0
230
1.0
100
AcDbArc
 50
270.000005
 51
0.000001
  0
LINE
  5
5F
100
AcDbEntity
  8
0
 62
     7
 48
0.0725
100
AcDbLine
 10
22.693386
 20
107.427727
 30
0.0
 11
25.593386
 21
107.427727
 31
0.0
210
0.0
220
0.0
230
1.0
  0
LINE
  5
60
100
AcDbEntity
  8
0
 62
     7
 48
0.075
100
AcDbLine
 10
22.693386
 20
107.427727
 30
0.0
 11
22.693386
 21
104.427727
 31
0.0
210
0.0
220
0.0
230
1.0
  0
LINE
  5
61
100
AcDbEntity
  8
0
 62
     7
 48
0.011272
100
AcDbLine
 10
22.693386
 20
104.427727
 30
0.0
 11
23.144285
 21
104.427727
 31
0.0
210
0.0
220
0.0
230
1.0
  0
ARC
  5
62
100
AcDbEntity
  8
0
 62
     7
100
AcDbCircle
 10
23.144285
 20
102.427727
 30
0.0
 40
2.0
210
0.0
220
0.0
230
1.0
100
AcDbArc
 50
30.467015
 51
90.00001
  0
ARC
  5
63
100
AcDbEntity
  8
0
 62
     7
100
AcDbCircle
 10
38.443386
 20
111.427727
 30
0.0
 40
15.75
210
0.0
220
0.0
230
1.0
100
AcDbArc
 50
210.46701
 51
255.524349
  0
LINE
  5
64
100
AcDbEntity
  8
0
 62
     7
 48
0.19685
100
AcDbLine
 10
34.506382
 20
96.177727
 30
0.0
 11
42.38039
 21
96.177727
 31
0.0
210
0.0
220
0.0
230
1.0
  0
ARC
  5
65
100
AcDbEntity
  8
0
 62
     7
100
AcDbCircle
 10
38.443386
 20
111.427727
 30
0.0
 40
15.75
210
0.0
220
0.0
230
1.0
100
AcDbArc
 50
284.475648
 51
329.532985
  0
ARC
  5
66
100
AcDbEntity
  8
0
 62
     7
100
AcDbCircle
 10
53.742489
 20
102.427727
 30
0.0
 40
2.0
210
0.0
220
0.0
230
1.0
100
AcDbArc
 50
90.0
 51
149.532987
  0
LINE
  5
67
100
AcDbEntity
  8
0
 62
     7
 48
0.011272
100
AcDbLine
 10
53.742489
 20
104.427727
 30
0.0
 11
54.193386
 21
104.427727
 31
0.0
210
0.0
220
0.0
230
1.0
  0
LINE
  5
68
100
AcDbEntity
  8
0
 62
     7
 48
0.075
100
AcDbLine
 10
54.193386
 20
104.427727
 30
0.0
 11
54.193386
 21
107.427727
 31
0.0
210
0.0
220
0.0
230
1.0
  0
LINE
  5
69
100
AcDbEntity
  8
0
 62
     7
 48
0.0725
100
AcDbLine
 10
54.193386
 20
107.427727
 30
0.0
 11
51.293388
 21
107.427727
 31
0.0
210
0.0
220
0.0
230
1.0
  0
ARC
  5
6A
100
AcDbEntity
  8
0
 62
     7
100
AcDbCircle
 10
51.293388
 20
107.452728
 30
0.0
 40
0.025
210
0.0
220
0.0
230
1.0
100
AcDbArc
 50
180.000003
 51
270.000005
  0
LINE
  5
6B
100
AcDbEntity
  8
0
 62
     7
 48
0.19875
100
AcDbLine
 10
51.268387
 20
107.452728
 30
0.0
 11
51.268387
 21
115.402725
 31
0.0
210
0.0
220
0.0
230
1.0
  0
ARC
  5
6C
100
AcDbEntity
  8
0
 62
     7
100
AcDbCircle
 10
51.293385
 20
115.402725
 30
0.0
 40
0.025
210
0.0
220
0.0
230
1.0
100
AcDbArc
 50
90.0
 51
180.000003
  0
LINE
  5
6D
100
AcDbEntity
  8
0
 62
     7
 48
0.0725
100
AcDbLine
 10
51.293385
 20
115.427727
 30
0.0
 11
54.193386
 21
115.427727
 31
0.0
210
0.0
220
0.0
230
1.0
  0
LINE
  5
6E
100
AcDbEntity
  8
0
 62
     7
 48
0.075
100
AcDbLine
 10
54.193386
 20
115.427727
 30
0.0
 11
54.193386
 21
118.427727
 31
0.0
210
0.0
220
0.0
230
1.0
  0
LINE
  5
6F
100
AcDbEntity
  8
0
 62
     7
 48
0.011273
100
AcDbLine
 10
54.193386
 20
118.427727
 30
0.0
 11
53.742485
 21
118.427727
 31
0.0
210
0.0
220
0.0
230
1.0
  0
ARC
  5
70
100
AcDbEntity
  8
0
 62
     7
100
AcDbCircle
 10
53.742485
 20
120.427727
 30
0.0
 40
2.0
210
0.0
220
0.0
230
1.0
100
AcDbArc
 50
210.46701
 51
270.000005
  0
CIRCLE
  5
71
100
AcDbEntity
  8
0
 62
     7
100
AcDbCircle
 10
38.443386
 20
111.427727
 30
0.0
 40
9.65
210
0.0
220
0.0
230
1.0
  0
LINE
  5
72
100
AcDbEntity
  8
0
 62
     7
 48
0.084666
100
AcDbLine
 10
97.193527
 20
113.769958
 30
0.0
 11
97.193527
 21
117.156601
 31
0.0
210
0.0
220
0.0
230
1.0
  0
ARC
  5
73
100
AcDbEntity
  8
0
 62
     7
100
AcDbCircle
 10
102.193527
 20
117.156601
 30
0.0
 40
5.0
210
0.0
220
0.0
230
1.0
100
AcDbArc
 50
146.118124
 51
180.000003
  0
ARC
  5
74
100
AcDbEntity
  8
0
 62
     7
100
AcDbCircle
 10
113.193527
 20
109.769958
 30
0.0
 40
18.25
210
0.0
220
0.0
230
1.0
100
AcDbArc
 50
102.660762
 51
146.118124
  0
LINE
  5
75
100
AcDbEntity
  8
0
 62
     7
 48
0.161094
100
AcDbLine
 10
109.193527
 20
134.019958
 30
0.0
 11
109.193527
 21
127.57621
 31
0.0
210
0.0
220
0.0
230
1.0
  0
LINE
  5
76
100
AcDbEntity
  8
0
 62
     7
 48
0.075
100
AcDbLine
 10
109.193527
 20
134.019958
 30
0.0
 11
106.193527
 21
134.019958
 31
0.0
210
0.0
220
0.0
230
1.0
  0
LINE
  5
77
100
AcDbEntity
  8
0
 62
     7
 48
0.007521
100
AcDbLine
 10
106.193527
 20
134.019958
 30
0.0
 11
106.193527
 21
133.719116
 31
0.0
210
0.0
220
0.0
230
1.0
  0
ARC
  5
78
100
AcDbEntity
  8
0
 62
     7
100
AcDbCircle
 10
105.193527
 20
133.719116
 30
0.0
 40
1.0
210
0.0
220
0.0
230
1.0
100
AcDbArc
 50
288.471432
 51
0.000001
  0
ARC
  5
79
100
AcDbEntity
  8
0
 62
     7
100
AcDbCircle
 10
113.193527
 20
109.769958
 30
0.0
 40
24.25
210
0.0
220
0.0
230
1.0
100
AcDbArc
 50
108.471427
 51
132.603668
  0
ARC
  5
7A
100
AcDbEntity
  8
0
 62
     7
100
AcDbCircle
 10
102.193527
 20
121.730835
 30
0.0
 40
8.0
210
0.0
220
0.0
230
1.0
100
AcDbArc
 50
132.603668
 51
180.000003
  0
LINE
  5
7B
100
AcDbEntity
  8
0
 62
     7
 48
0.199022
100
AcDbLine
 10
94.193527
 20
113.769958
 30
0.0
 11
94.193527
 21
121.730835
 31
0.0
210
0.0
220
0.0
230
1.0
  0
LINE
  5
7C
100
AcDbEntity
  8
0
 62
     7
 48
0.075
100
AcDbLine
 10
97.193527
 20
113.769958
 30
0.0
 11
94.193527
 21
113.769958
 31
0.0
210
0.0
220
0.0
230
1.0
  0
CIRCLE
  5
7D
100
AcDbEntity
  8
0
 62
     7
100
AcDbCircle
 10
13.367175
 20
41.580151
 30
0.0
 40
1.375
210
0.0
220
0.0
230
1.0
  0
LINE
  5
7E
100
AcDbEntity
  8
0
 62
     7
 48
0.07625
100
AcDbLine
 10
20.367176
 20
43.030151
 30
0.0
 11
20.367176
 21
46.080151
 31
0.0
210
0.0
220
0.0
230
1.0
  0
LINE
  5
7F
100
AcDbEntity
  8
0
 62
     7
 48
0.060436
100
AcDbLine
 10
20.367176
 20
46.080151
 30
0.0
 11
17.949751
 21
46.080151
 31
0.0
210
0.0
220
0.0
230
1.0
  0
ARC
  5
80
100
AcDbEntity
  8
0
 62
     7
100
AcDbCircle
 10
17.949751
 20
51.580151
 30
0.0
 40
5.5
210
0.0
220
0.0
230
1.0
100
AcDbArc
 50
245.38001
 51
270.000001
  0
ARC
  5
81
100
AcDbEntity
  8
0
 62
     7
100
AcDbCircle
 10
13.367175
 20
41.580151
 30
0.0
 40
5.5
210
0.0
220
0.0
230
1.0
100
AcDbArc
 50
65.380025
 51
114.619973
  0
ARC
  5
82
100
AcDbEntity
  8
0
 62
     7
100
AcDbCircle
 10
8.784599
 20
51.580151
 30
0.0
 40
5.5
210
0.0
220
0.0
230
1.0
100
AcDbArc
 50
270.000001
 51
294.619964
  0
LINE
  5
83
100
AcDbEntity
  8
0
 62
     7
 48
0.060436
100
AcDbLine
 10
6.367175
 20
46.080151
 30
0.0
 11
8.784599
 21
46.080151
 31
0.0
210
0.0
220
0.0
230
1.0
  0
LINE
  5
84
100
AcDbEntity
  8
0
 62
     7
 48
0.07625
100
AcDbLine
 10
6.367175
 20
43.030151
 30
0.0
 11
6.367175
 21
46.080151
 31
0.0
210
0.0
220
0.0
230
1.0
  0
LINE
  5
85
100
AcDbEntity
  8
0
 62
     7
 48
0.075
100
AcDbLine
 10
6.367175
 20
43.030151
 30
0.0
 11
9.367175
 21
43.030151
 31
0.0
210
0.0
220
0.0
230
1.0
  0
ARC
  5
86
100
AcDbEntity
  8
0
 62
     7
100
AcDbCircle
 10
9.367175
 20
43.00515
 30
0.0
 40
0.025
210
0.0
220
0.0
230
1.0
100
AcDbArc
 50
0.0
 51
90.000003
  0
LINE
  5
87
100
AcDbEntity
  8
0
 62
     7
 48
0.07125
100
AcDbLine
 10
9.392176
 20
43.00515
 30
0.0
 11
9.392176
 21
40.155151
 31
0.0
210
0.0
220
0.0
230
1.0
  0
ARC
  5
88
100
AcDbEntity
  8
0
 62
     7
100
AcDbCircle
 10
9.367175
 20
40.155151
 30
0.0
 40
0.025
210
0.0
220
0.0
230
1.0
100
AcDbArc
 50
270.000001
 51
0.00001
  0
LINE
  5
89
100
AcDbEntity
  8
0
 62
     7
 48
0.075
100
AcDbLine
 10
9.367175
 20
40.13015
 30
0.0
 11
6.367175
 21
40.13015
 31
0.0
210
0.0
220
0.0
230
1.0
  0
LINE
  5
8A
100
AcDbEntity
  8
0
 62
     7
 48
0.07625
100
AcDbLine
 10
6.367175
 20
40.13015
 30
0.0
 11
6.367175
 21
37.080151
 31
0.0
210
0.0
220
0.0
230
1.0
  0
LINE
  5
8B
100
AcDbEntity
  8
0
 62
     7
 48
0.060436
100
AcDbLine
 10
6.367175
 20
37.080151
 30
0.0
 11
8.784599
 21
37.080151
 31
0.0
210
0.0
220
0.0
230
1.0
  0
ARC
  5
8C
100
AcDbEntity
  8
0
 62
     7
100
AcDbCircle
 10
8.784599
 20
31.580151
 30
0.0
 40
5.5
210
0.0
220
0.0
230
1.0
100
AcDbArc
 50
65.380025
 51
90.000003
  0
ARC
  5
8D
100
AcDbEntity
  8
0
 62
     7
100
AcDbCircle
 10
13.367175
 20
41.580151
 30
0.0
 40
5.5
210
0.0
220
0.0
230
1.0
100
AcDbArc
 50
245.38001
 51
294.619964
  0
ARC
  5
8E
100
AcDbEntity
  8
0
 62
     7
100
AcDbCircle
 10
17.949751
 20
31.580151
 30
0.0
 40
5.5
210
0.0
220
0.0
230
1.0
100
AcDbArc
 50
90.000003
 51
114.619973
  0
LINE
  5
8F
100
AcDbEntity
  8
0
 62
     7
 48
0.060436
100
AcDbLine
 10
20.367176
 20
37.080151
 30
0.0
 11
17.949751
 21
37.080151
 31
0.0
210
0.0
220
0.0
230
1.0
  0
LINE
  5
90
100
AcDbEntity
  8
0
 62
     7
 48
0.07625
100
AcDbLine
 10
20.367176
 20
40.13015
 30
0.0
 11
20.367176
 21
37.080151
 31
0.0
210
0.0
220
0.0
230
1.0
  0
LINE
  5
91
100
AcDbEntity
  8
0
 62
     7
 48
0.075
100
AcDbLine
 10
17.367176
 20
40.13015
 30
0.0
 11
20.367176
 21
40.13015
 31
0.0
210
0.0
220
0.0
230
1.0
  0
ARC
  5
92
100
AcDbEntity
  8
0
 62
     7
100
AcDbCircle
 10
17.367176
 20
40.155151
 30
0.0
 40
0.025
210
0.0
220
0.0
230
1.0
100
AcDbArc
 50
180.000005
 51
270.000001
  0
LINE
  5
93
100
AcDbEntity
  8
0
 62
     7
 48
0.07125
100
AcDbLine
 10
17.342175
 20
43.00515
 30
0.0
 11
17.342175
 21
40.155151
 31
0.0
210
0.0
220
0.0
230
1.0
  0
ARC
  5
94
100
AcDbEntity
  8
0
 62
     7
100
AcDbCircle
 10
17.367176
 20
43.00515
 30
0.0
 40
0.025
210
0.0
220
0.0
230
1.0
100
AcDbArc
 50
90.000003
 51
180.000005
  0
LINE
  5
95
100
AcDbEntity
  8
0
 62
     7
 48
0.075
100
AcDbLine
 10
20.367176
 20
43.030151
 30
0.0
 11
17.367176
 21
43.030151
 31
0.0
210
0.0
220
0.0
230
1.0
  0
CIRCLE
  5
96
100
AcDbEntity
  8
0
 62
     7
100
AcDbCircle
 10
32.405838
 20
41.595848
 30
0.0
 40
1.375
210
0.0
220
0.0
230
1.0
  0
LINE
  5
97
100
AcDbEntity
  8
0
 62
     7
 48
0.07625
100
AcDbLine
 10
39.405838
 20
43.045849
 30
0.0
 11
39.405838
 21
46.095848
 31
0.0
210
0.0
220
0.0
230
1.0
  0
LINE
  5
98
100
AcDbEntity
  8
0
 62
     7
 48
0.060436
100
AcDbLine
 10
39.405838
 20
46.095848
 30
0.0
 11
36.988415
 21
46.095848
 31
0.0
210
0.0
220
0.0
230
1.0
  0
ARC
  5
99
100
AcDbEntity
  8
0
 62
     7
100
AcDbCircle
 10
36.988415
 20
51.595848
 30
0.0
 40
5.5
210
0.0
220
0.0
230
1.0
100
AcDbArc
 50
245.38001
 51
270.000001
  0
ARC
  5
9A
100
AcDbEntity
  8
0
 62
     7
100
AcDbCircle
 10
32.405838
 20
41.595848
 30
0.0
 40
5.5
210
0.0
220
0.0
230
1.0
100
AcDbArc
 50
65.380025
 51
114.619973
  0
ARC
  5
9B
100
AcDbEntity
  8
0
 62
     7
100
AcDbCircle
 10
27.823261
 20
51.595848
 30
0.0
 40
5.5
210
0.0
220
0.0
230
1.0
100
AcDbArc
 50
270.000001
 51
294.619964
  0
LINE
  5
9C
100
AcDbEntity
  8
0
 62
     7
 48
0.060436
100
AcDbLine
 10
25.405838
 20
46.095848
 30
0.0
 11
27.823261
 21
46.095848
 31
0.0
210
0.0
220
0.0
230
1.0
  0
LINE
  5
9D
100
AcDbEntity
  8
0
 62
     7
 48
0.07625
100
AcDbLine
 10
25.405838
 20
43.045849
 30
0.0
 11
25.405838
 21
46.095848
 31
0.0
210
0.0
220
0.0
230
1.0
  0
LINE
  5
9E
100
AcDbEntity
  8
0
 62
     7
 48
0.075
100
AcDbLine
 10
25.405838
 20
43.045849
 30
0.0
 11
28.405838
 21
43.045849
 31
0.0
210
0.0
220
0.0
230
1.0
  0
ARC
  5
9F
100
AcDbEntity
  8
0
 62
     7
100
AcDbCircle
 10
28.405838
 20
43.020847
 30
0.0
 40
0.025
210
0.0
220
0.0
230
1.0
100
AcDbArc
 50
0.0
 51
90.000003
  0
LINE
  5
A0
100
AcDbEntity
  8
0
 62
     7
 48
0.07125
100
AcDbLine
 10
28.430838
 20
43.020847
 30
0.0
 11
28.430838
 21
40.170849
 31
0.0
210
0.0
220
0.0
230
1.0
  0
ARC
  5
A1
100
AcDbEntity
  8
0
 62
     7
100
AcDbCircle
 10
28.405838
 20
40.170849
 30
0.0
 40
0.025
210
0.0
220
0.0
230
1.0
100
AcDbArc
 50
270.000001
 51
0.00001
  0
LINE
  5
A2
100
AcDbEntity
  8
0
 62
     7
 48
0.075
100
AcDbLine
 10
28.405838
 20
40.145847
 30
0.0
 11
25.405838
 21
40.145847
 31
0.0
210
0.0
220
0.0
230
1.0
  0
LINE
  5
A3
100
AcDbEntity
  8
0
 62
     7
 48
0.07625
100
AcDbLine
 10
25.405838
 20
40.145847
 30
0.0
 11
25.405838
 21
37.095848
 31
0.0
210
0.0
220
0.0
230
1.0
  0
LINE
  5
A4
100
AcDbEntity
  8
0
 62
     7
 48
0.060436
100
AcDbLine
 10
25.405838
 20
37.095848
 30
0.0
 11
27.823261
 21
37.095848
 31
0.0
210
0.0
220
0.0
230
1.0
  0
ARC
  5
A5
100
AcDbEntity
  8
0
 62
     7
100
AcDbCircle
 10
27.823261
 20
31.595848
 30
0.0
 40
5.5
210
0.0
220
0.0
230
1.0
100
AcDbArc
 50
65.380025
 51
90.000003
  0
ARC
  5
A6
100
AcDbEntity
  8
0
 62
     7
100
AcDbCircle
 10
32.405838
 20
41.595848
 30
0.0
 40
5.5
210
0.0
220
0.0
230
1.0
100
AcDbArc
 50
245.38001
 51
294.619964
  0
ARC
  5
A7
100
AcDbEntity
  8
0
 62
     7
100
AcDbCircle
 10
36.988415
 20
31.595848
 30
0.0
 40
5.5
210
0.0
220
0.0
230
1.0
100
AcDbArc
 50
90.000003
 51
114.619973
  0
LINE
  5
A8
100
AcDbEntity
  8
0
 62
     7
 48
0.060436
100
AcDbLine
 10
39.405838
 20
37.095848
 30
0.0
 11
36.988415
 21
37.095848
 31
0.0
210
0.0
220
0.0
230
1.0
  0
LINE
  5
A9
100
AcDbEntity
  8
0
 62
     7
 48
0.07625
100
AcDbLine
 10
39.405838
 20
40.145847
 30
0.0
 11
39.405838
 21
37.095848
 31
0.0
210
0.0
220
0.0
230
1.0
  0
LINE
  5
AA
100
AcDbEntity
  8
0
 62
     7
 48
0.075
100
AcDbLine
 10
36.405838
 20
40.145847
 30
0.0
 11
39.405838
 21
40.145847
 31
0.0
210
0.0
220
0.0
230
1.0
  0
ARC
  5
AB
100
AcDbEntity
  8
0
 62
     7
100
AcDbCircle
 10
36.405838
 20
40.170849
 30
0.0
 40
0.025
210
0.0
220
0.0
230
1.0
100
AcDbArc
 50
180.000005
 51
270.000001
  0
LINE
  5
AC
100
AcDbEntity
  8
0
 62
     7
 48
0.07125
100
AcDbLine
 10
36.380836
 20
43.020847
 30
0.0
 11
36.380836
 21
40.170849
 31
0.0
210
0.0
220
0.0
230
1.0
  0
ARC
  5
AD
100
AcDbEntity
  8
0
 62
     7
100
AcDbCircle
 10
36.405838
 20
43.020847
 30
0.0
 40
0.025
210
0.0
220
0.0
230
1.0
100
AcDbArc
 50
90.000003
 51
180.000005
  0
LINE
  5
AE
100
AcDbEntity
  8
0
 62
     7
 48
0.075
100
AcDbLine
 10
39.405838
 20
43.045849
 30
0.0
 11
36.405838
 21
43.045849
 31
0.0
210
0.0
220
0.0
230
1.0
  0
CIRCLE
  5
AF
100
AcDbEntity
  8
0
 62
     7
100
AcDbCircle
 10
67.182053
 20
41.693687
 30
0.0
 40
1.375
210
0.0
220
0.0
230
1.0
  0
LINE
  5
B0
100
AcDbEntity
  8
0
 62
     7
 48
0.07625
100
AcDbLine
 10
74.182053
 20
43.143688
 30
0.0
 11
74.182053
 21
46.193687
 31
0.0
210
0.0
220
0.0
230
1.0
  0
LINE
  5
B1
100
AcDbEntity
  8
0
 62
     7
 48
0.060436
100
AcDbLine
 10
74.182053
 20
46.193687
 30
0.0
 11
71.764626
 21
46.193687
 31
0.0
210
0.0
220
0.0
230
1.0
  0
ARC
  5
B2
100
AcDbEntity
  8
0
 62
     7
100
AcDbCircle
 10
71.764626
 20
51.693687
 30
0.0
 40
5.5
210
0.0
220
0.0
230
1.0
100
AcDbArc
 50
245.38001
 51
270.000001
  0
ARC
  5
B3
100
AcDbEntity
  8
0
 62
     7
100
AcDbCircle
 10
67.182053
 20
41.693687
 30
0.0
 40
5.5
210
0.0
220
0.0
230
1.0
100
AcDbArc
 50
65.380025
 51
114.619973
  0
ARC
  5
B4
100
AcDbEntity
  8
0
 62
     7
100
AcDbCircle
 10
62.599476
 20
51.693687
 30
0.0
 40
5.5
210
0.0
220
0.0
230
1.0
100
AcDbArc
 50
270.000001
 51
294.619964
  0
LINE
  5
B5
100
AcDbEntity
  8
0
 62
     7
 48
0.060436
100
AcDbLine
 10
60.182053
 20
46.193687
 30
0.0
 11
62.599476
 21
46.193687
 31
0.0
210
0.0
220
0.0
230
1.0
  0
LINE
  5
B6
100
AcDbEntity
  8
0
 62
     7
 48
0.07625
100
AcDbLine
 10
60.182053
 20
43.143688
 30
0.0
 11
60.182053
 21
46.193687
 31
0.0
210
0.0
220
0.0
230
1.0
  0
LINE
  5
B7
100
AcDbEntity
  8
0
 62
     7
 48
0.075
100
AcDbLine
 10
60.182053
 20
43.143688
 30
0.0
 11
63.182053
 21
43.143688
 31
0.0
210
0.0
220
0.0
230
1.0
  0
ARC
  5
B8
100
AcDbEntity
  8
0
 62
     7
100
AcDbCircle
 10
63.182053
 20
43.118687
 30
0.0
 40
0.025
210
0.0
220
0.0
230
1.0
100
AcDbArc
 50
0.0
 51
90.000003
  0
LINE
  5
B9
100
AcDbEntity
  8
0
 62
     7
 48
0.07125
100
AcDbLine
 10
63.207054
 20
43.118687
 30
0.0
 11
63.207054
 21
40.268688
 31
0.0
210
0.0
220
0.0
230
1.0
  0
ARC
  5
BA
100
AcDbEntity
  8
0
 62
     7
100
AcDbCircle
 10
63.182053
 20
40.268688
 30
0.0
 40
0.025
210
0.0
220
0.0
230
1.0
100
AcDbArc
 50
270.000001
 51
0.00001
  0
LINE
  5
BB
100
AcDbEntity
  8
0
 62
     7
 48
0.075
100
AcDbLine
 10
63.182053
 20
40.243687
 30
0.0
 11
60.182053
 21
40.243687
 31
0.0
210
0.0
220
0.0
230
1.0
  0
LINE
  5
BC
100
AcDbEntity
  8
0
 62
     7
 48
0.07625
100
AcDbLine
 10
60.182053
 20
40.243687
 30
0.0
 11
60.182053
 21
37.193687
 31
0.0
210
0.0
220
0.0
230
1.0
  0
LINE
  5
BD
100
AcDbEntity
  8
0
 62
     7
 48
0.060436
100
AcDbLine
 10
60.182053
 20
37.193687
 30
0.0
 11
62.599476
 21
37.193687
 31
0.0
210
0.0
220
0.0
230
1.0
  0
ARC
  5
BE
100
AcDbEntity
  8
0
 62
     7
100
AcDbCircle
 10
62.599476
 20
31.693687
 30
0.0
 40
5.5
210
0.0
220
0.0
230
1.0
100
AcDbArc
 50
65.380025
 51
90.000003
  0
ARC
  5
BF
100
AcDbEntity
  8
0
 62
     7
100
AcDbCircle
 10
67.182053
 20
41.693687
 30
0.0
 40
5.5
210
0.0
220
0.0
230
1.0
100
AcDbArc
 50
245.38001
 51
294.619964
  0
ARC
  5
C0
100
AcDbEntity
  8
0
 62
     7
100
AcDbCircle
 10
71.764626
 20
31.693687
 30
0.0
 40
5.5
210
0.0
220
0.0
230
1.0
100
AcDbArc
 50
90.000003
 51
114.619973
  0
LINE
  5
C1
100
AcDbEntity
  8
0
 62
     7
 48
0.060436
100
AcDbLine
 10
74.182053
 20
37.193687
 30
0.0
 11
71.764626
 21
37.193687
 31
0.0
210
0.0
220
0.0
230
1.0
  0
LINE
  5
C2
100
AcDbEntity
  8
0
 62
     7
 48
0.07625
100
AcDbLine
 10
74.182053
 20
40.243687
 30
0.0
 11
74.182053
 21
37.193687
 31
0.0
210
0.0
220
0.0
230
1.0
  0
LINE
  5
C3
100
AcDbEntity
  8
0
 62
     7
 48
0.075
100
AcDbLine
 10
71.182053
 20
40.243687
 30
0.0
 11
74.182053
 21
40.243687
 31
0.0
210
0.0
220
0.0
230
1.0
  0
ARC
  5
C4
100
AcDbEntity
  8
0
 62
     7
100
AcDbCircle
 10
71.182053
 20
40.268688
 30
0.0
 40
0.025
210
0.0
220
0.0
230
1.0
100
AcDbArc
 50
180.000005
 51
270.000001
  0
LINE
  5
C5
100
AcDbEntity
  8
0
 62
     7
 48
0.07125
100
AcDbLine
 10
71.157051
 20
43.118687
 30
0.0
 11
71.157051
 21
40.268688
 31
0.0
210
0.0
220
0.0
230
1.0
  0
ARC
  5
C6
100
AcDbEntity
  8
0
 62
     7
100
AcDbCircle
 10
71.182053
 20
43.118687
 30
0.0
 40
0.025
210
0.0
220
0.0
230
1.0
100
AcDbArc
 50
90.000003
 51
180.000005
  0
LINE
  5
C7
100
AcDbEntity
  8
0
 62
     7
 48
0.075
100
AcDbLine
 10
74.182053
 20
43.143688
 30
0.0
 11
71.182053
 21
43.143688
 31
0.0
210
0.0
220
0.0
230
1.0
  0
CIRCLE
  5
C8
100
AcDbEntity
  8
0
 62
     7
100
AcDbCircle
 10
50.043343
 20
41.657639
 30
0.0
 40
1.375
210
0.0
220
0.0
230
1.0
  0
LINE
  5
C9
100
AcDbEntity
  8
0
 62
     7
 48
0.07625
100
AcDbLine
 10
57.043343
 20
43.107639
 30
0.0
 11
57.043343
 21
46.157639
 31
0.0
210
0.0
220
0.0
230
1.0
  0
LINE
  5
CA
100
AcDbEntity
  8
0
 62
     7
 48
0.060436
100
AcDbLine
 10
57.043343
 20
46.157639
 30
0.0
 11
54.625919
 21
46.157639
 31
0.0
210
0.0
220
0.0
230
1.0
  0
ARC
  5
CB
100
AcDbEntity
  8
0
 62
     7
100
AcDbCircle
 10
54.625919
 20
51.657639
 30
0.0
 40
5.5
210
0.0
220
0.0
230
1.0
100
AcDbArc
 50
245.38001
 51
270.000001
  0
ARC
  5
CC
100
AcDbEntity
  8
0
 62
     7
100
AcDbCircle
 10
50.043343
 20
41.657639
 30
0.0
 40
5.5
210
0.0
220
0.0
230
1.0
100
AcDbArc
 50
65.380025
 51
114.619973
  0
ARC
  5
CD
100
AcDbEntity
  8
0
 62
     7
100
AcDbCircle
 10
45.460766
 20
51.657639
 30
0.0
 40
5.5
210
0.0
220
0.0
230
1.0
100
AcDbArc
 50
270.000001
 51
294.619964
  0
LINE
  5
CE
100
AcDbEntity
  8
0
 62
     7
 48
0.060436
100
AcDbLine
 10
43.043343
 20
46.157639
 30
0.0
 11
45.460766
 21
46.157639
 31
0.0
210
0.0
220
0.0
230
1.0
  0
LINE
  5
CF
100
AcDbEntity
  8
0
 62
     7
 48
0.07625
100
AcDbLine
 10
43.043343
 20
43.107639
 30
0.0
 11
43.043343
 21
46.157639
 31
0.0
210
0.0
220
0.0
230
1.0
  0
LINE
  5
D0
100
AcDbEntity
  8
0
 62
     7
 48
0.075
100
AcDbLine
 10
43.043343
 20
43.107639
 30
0.0
 11
46.043343
 21
43.107639
 31
0.0
210
0.0
220
0.0
230
1.0
  0
ARC
  5
D1
100
AcDbEntity
  8
0
 62
     7
100
AcDbCircle
 10
46.043343
 20
43.082638
 30
0.0
 40
0.025
210
0.0
220
0.0
230
1.0
100
AcDbArc
 50
0.0
 51
90.000003
  0
LINE
  5
D2
100
AcDbEntity
  8
0
 62
     7
 48
0.07125
100
AcDbLine
 10
46.068344
 20
43.082638
 30
0.0
 11
46.068344
 21
40.232639
 31
0.0
210
0.0
220
0.0
230
1.0
  0
ARC
  5
D3
100
AcDbEntity
  8
0
 62
     7
100
AcDbCircle
 10
46.043343
 20
40.232639
 30
0.0
 40
0.025
210
0.0
220
0.0
230
1.0
100
AcDbArc
 50
270.000001
 51
0.00001
  0
LINE
  5
D4
100
AcDbEntity
  8
0
 62
     7
 48
0.075
100
AcDbLine
 10
46.043343
 20
40.207638
 30
0.0
 11
43.043343
 21
40.207638
 31
0.0
210
0.0
220
0.0
230
1.0
  0
LINE
  5
D5
100
AcDbEntity
  8
0
 62
     7
 48
0.07625
100
AcDbLine
 10
43.043343
 20
40.207638
 30
0.0
 11
43.043343
 21
37.157639
 31
0.0
210
0.0
220
0.0
230
1.0
  0
LINE
  5
D6
100
AcDbEntity
  8
0
 62
     7
 48
0.060436
100
AcDbLine
 10
43.043343
 20
37.157639
 30
0.0
 11
45.460766
 21
37.157639
 31
0.0
210
0.0
220
0.0
230
1.0
  0
ARC
  5
D7
100
AcDbEntity
  8
0
 62
     7
100
AcDbCircle
 10
45.460766
 20
31.657639
 30
0.0
 40
5.5
210
0.0
220
0.0
230
1.0
100
AcDbArc
 50
65.380025
 51
90.000003
  0
ARC
  5
D8
100
AcDbEntity
  8
0
 62
     7
100
AcDbCircle
 10
50.043343
 20
41.657639
 30
0.0
 40
5.5
210
0.0
220
0.0
230
1.0
100
AcDbArc
 50
245.38001
 51
294.619964
  0
ARC
  5
D9
100
AcDbEntity
  8
0
 62
     7
100
AcDbCircle
 10
54.625919
 20
31.657639
 30
0.0
 40
5.5
210
0.0
220
0.0
230
1.0
100
AcDbArc
 50
90.000003
 51
114.619973
  0
LINE
  5
DA
100
AcDbEntity
  8
0
 62
     7
 48
0.060436
100
AcDbLine
 10
57.043343
 20
37.157639
 30
0.0
 11
54.625919
 21
37.157639
 31
0.0
210
0.0
220
0.0
230
1.0
  0
LINE
  5
DB
100
AcDbEntity
  8
0
 62
     7
 48
0.07625
100
AcDbLine
 10
57.043343
 20
40.207638
 30
0.0
 11
57.043343
 21
37.157639
 31
0.0
210
0.0
220
0.0
230
1.0
  0
LINE
  5
DC
100
AcDbEntity
  8
0
 62
     7
 48
0.075
100
AcDbLine
 10
54.043343
 20
40.207638
 30
0.0
 11
57.043343
 21
40.207638
 31
0.0
210
0.0
220
0.0
230
1.0
  0
ARC
  5
DD
100
AcDbEntity
  8
0
 62
     7
100
AcDbCircle
 10
54.043343
 20
40.232639
 30
0.0
 40
0.025
210
0.0
220
0.0
230
1.0
100
AcDbArc
 50
180.000005
 51
270.000001
  0
LINE
  5
DE
100
AcDbEntity
  8
0
 62
     7
 48
0.07125
100
AcDbLine
 10
54.018341
 20
43.082638
 30
0.0
 11
54.018341
 21
40.232639
 31
0.0
210
0.0
220
0.0
230
1.0
  0
ARC
  5
DF
100
AcDbEntity
  8
0
 62
     7
100
AcDbCircle
 10
54.043343
 20
43.082638
 30
0.0
 40
0.025
210
0.0
220
0.0
230
1.0
100
AcDbArc
 50
90.000003
 51
180.000005
  0
LINE
  5
E0
100
AcDbEntity
  8
0
 62
     7
 48
0.075
100
AcDbLine
 10
57.043343
 20
43.107639
 30
0.0
 11
54.043343
 21
43.107639
 31
0.0
210
0.0
220
0.0
230
1.0
  0
LINE
  5
E1
100
AcDbEntity
  8
0
 62
     7
 48
0.084666
100
AcDbLine
 10
123.643288
 20
114.279366
 30
0.0
 11
123.643288
 21
117.666008
 31
0.0
210
0.0
220
0.0
230
1.0
  0
ARC
  5
E2
100
AcDbEntity
  8
0
 62
     7
100
AcDbCircle
 10
118.643288
 20
117.666008
 30
0.0
 40
5.0
210
0.0
220
0.0
230
1.0
100
AcDbArc
 50
0.000001
 51
33.881864
  0
ARC
  5
E3
100
AcDbEntity
  8
0
 62
     7
100
AcDbCircle
 10
107.643288
 20
110.279366
 30
0.0
 40
18.25
210
0.0
220
0.0
230
1.0
100
AcDbArc
 50
33.881864
 51
77.339244
  0
LINE
  5
E4
100
AcDbEntity
  8
0
 62
     7
 48
0.161094
100
AcDbLine
 10
111.643288
 20
134.529373
 30
0.0
 11
111.643288
 21
128.085617
 31
0.0
210
0.0
220
0.0
230
1.0
  0
LINE
  5
E5
100
AcDbEntity
  8
0
 62
     7
 48
0.075
100
AcDbLine
 10
111.643288
 20
134.529373
 30
0.0
 11
114.643288
 21
134.529373
 31
0.0
210
0.0
220
0.0
230
1.0
  0
LINE
  5
E6
100
AcDbEntity
  8
0
 62
     7
 48
0.007521
100
AcDbLine
 10
114.643288
 20
134.529373
 30
0.0
 11
114.643288
 21
134.228531
 31
0.0
210
0.0
220
0.0
230
1.0
  0
ARC
  5
E7
100
AcDbEntity
  8
0
 62
     7
100
AcDbCircle
 10
115.643288
 20
134.228531
 30
0.0
 40
1.0
210
0.0
220
0.0
230
1.0
100
AcDbArc
 50
180.000003
 51
251.528578
  0
ARC
  5
E8
100
AcDbEntity
  8
0
 62
     7
100
AcDbCircle
 10
107.643288
 20
110.279366
 30
0.0
 40
24.25
210
0.0
220
0.0
230
1.0
100
AcDbArc
 50
47.396323
 51
71.528584
  0
ARC
  5
E9
100
AcDbEntity
  8
0
 62
     7
100
AcDbCircle
 10
118.643288
 20
122.240242
 30
0.0
 40
8.0
210
0.0
220
0.0
230
1.0
100
AcDbArc
 50
0.000001
 51
47.396323
  0
LINE
  5
EA
100
AcDbEntity
  8
0
 62
     7
 48
0.199022
100
AcDbLine
 10
126.643288
 20
114.279366
 30
0.0
 11
126.643288
 21
122.240242
 31
0.0
210
0.0
220
0.0
230
1.0
  0
LINE
  5
EB
100
AcDbEntity
  8
0
 62
     7
 48
0.075
100
AcDbLine
 10
123.643288
 20
114.279366
 30
0.0
 11
126.643288
 21
114.279366
 31
0.0
210
0.0
220
0.0
230
1.0
  0
LINE
  5
EC
100
AcDbEntity
  8
0
 62
     7
 48
0.084666
100
AcDbLine
 10
97.297318
 20
110.136589
 30
0.0
 11
97.297318
 21
106.749947
 31
0.0
210
0.0
220
0.0
230
1.0
  0
ARC
  5
ED
100
AcDbEntity
  8
0
 62
     7
100
AcDbCircle
 10
102.297318
 20
106.749947
 30
0.0
 40
5.0
210
0.0
220
0.0
230
1.0
100
AcDbArc
 50
180.000001
 51
213.881864
  0
ARC
  5
EE
100
AcDbEntity
  8
0
 62
     7
100
AcDbCircle
 10
113.297318
 20
114.136589
 30
0.0
 40
18.25
210
0.0
220
0.0
230
1.0
100
AcDbArc
 50
213.881864
 51
257.339244
  0
LINE
  5
EF
100
AcDbEntity
  8
0
 62
     7
 48
0.161094
100
AcDbLine
 10
109.297318
 20
89.886589
 30
0.0
 11
109.297318
 21
96.330338
 31
0.0
210
0.0
220
0.0
230
1.0
  0
LINE
  5
F0
100
AcDbEntity
  8
0
 62
     7
 48
0.075
100
AcDbLine
 10
109.297318
 20
89.886589
 30
0.0
 11
106.297318
 21
89.886589
 31
0.0
210
0.0
220
0.0
230
1.0
  0
LINE
  5
F1
100
AcDbEntity
  8
0
 62
     7
 48
0.007521
100
AcDbLine
 10
106.297318
 20
89.886589
 30
0.0
 11
106.297318
 21
90.187424
 31
0.0
210
0.0
220
0.0
230
1.0
  0
ARC
  5
F2
100
AcDbEntity
  8
0
 62
     7
100
AcDbCircle
 10
105.297318
 20
90.187424
 30
0.0
 40
1.0
210
0.0
220
0.0
230
1.0
100
AcDbArc
 50
0.000003
 51
71.528578
  0
ARC
  5
F3
100
AcDbEntity
  8
0
 62
     7
100
AcDbCircle
 10
113.297318
 20
114.136589
 30
0.0
 40
24.25
210
0.0
220
0.0
230
1.0
100
AcDbArc
 50
227.396323
 51
251.528584
  0
ARC
  5
F4
100
AcDbEntity
  8
0
 62
     7
100
AcDbCircle
 10
102.297318
 20
102.175713
 30
0.0
 40
8.0
210
0.0
220
0.0
230
1.0
100
AcDbArc
 50
180.000001
 51
227.396323
  0
LINE
  5
F5
100
AcDbEntity
  8
0
 62
     7
 48
0.199022
100
AcDbLine
 10
94.297318
 20
110.136589
 30
0.0
 11
94.297318
 21
102.175713
 31
0.0
210
0.0
220
0.0
230
1.0
  0
LINE
  5
F6
100
AcDbEntity
  8
0
 62
     7
 48
0.075
100
AcDbLine
 10
97.297318
 20
110.136589
 30
0.0
 11
94.297318
 21
110.136589
 31
0.0
210
0.0
220
0.0
230
1.0
  0
LINE
  5
F7
100
AcDbEntity
  8
0
 62
     7
100
AcDbLine
 10
5.321396
 20
69.193855
 30
0.0
 11
178.22139
 21
69.193855
 31
0.0
210
0.0
220
0.0
230
1.0
  0
LINE
  5
F8
100
AcDbEntity
  8
0
 62
     7
 48
0.074375
100
AcDbLine
 10
5.321396
 20
72.168854
 30
0.0
 11
5.321396
 21
69.193855
 31
0.0
210
0.0
220
0.0
230
1.0
  0
LINE
  5
F9
100
AcDbEntity
  8
0
 62
     7
 48
0.071875
100
AcDbLine
 10
8.196396
 20
72.168854
 30
0.0
 11
5.321396
 21
72.168854
 31
0.0
210
0.0
220
0.0
230
1.0
  0
ARC
  5
FA
100
AcDbEntity
  8
0
 62
     7
100
AcDbCircle
 10
8.196396
 20
72.193855
 30
0.0
 40
0.025
210
0.0
220
0.0
230
1.0
100
AcDbArc
 50
270.000001
 51
0.00001
  0
LINE
  5
FB
100
AcDbEntity
  8
0
 62
     7
 48
0.075
100
AcDbLine
 10
8.22139
 20
75.193855
 30
0.0
 11
8.22139
 21
72.193855
 31
0.0
210
0.0
220
0.0
230
1.0
  0
LINE
  5
FC
100
AcDbEntity
  8
0
 62
     7
100
AcDbLine
 10
38.821396
 20
75.193855
 30
0.0
 11
8.22139
 21
75.193855
 31
0.0
210
0.0
220
0.0
230
1.0
  0
LINE
  5
FD
100
AcDbEntity
  8
0
 62
     7
 48
0.075
100
AcDbLine
 10
38.821396
 20
72.193855
 30
0.0
 11
38.821396
 21
75.193855
 31
0.0
210
0.0
220
0.0
230
1.0
  0
ARC
  5
FE
100
AcDbEntity
  8
0
 62
     7
100
AcDbCircle
 10
38.84639
 20
72.193855
 30
0.0
 40
0.025
210
0.0
220
0.0
230
1.0
100
AcDbArc
 50
180.000005
 51
270.000001
  0
LINE
  5
FF
100
AcDbEntity
  8
0
 62
     7
 48
0.07125
100
AcDbLine
 10
41.696396
 20
72.168854
 30
0.0
 11
38.84639
 21
72.168854
 31
0.0
210
0.0
220
0.0
230
1.0
  0
ARC
  5
100
100
AcDbEntity
  8
0
 62
     7
100
AcDbCircle
 10
41.696396
 20
72.193855
 30
0.0
 40
0.025
210
0.0
220
0.0
230
1.0
100
AcDbArc
 50
270.000001
 51
0.00001
  0
LINE
  5
101
100
AcDbEntity
  8
0
 62
     7
 48
0.075
100
AcDbLine
 10
41.72139
 20
75.193855
 30
0.0
 11
41.72139
 21
72.193855
 31
0.0
210
0.0
220
0.0
230
1.0
  0
LINE
  5
102
100
AcDbEntity
  8
0
 62
     7
 48
0.135
100
AcDbLine
 10
47.121384
 20
75.193855
 30
0.0
 11
41.72139
 21
75.193855
 31
0.0
210
0.0
220
0.0
230
1.0
  0
LINE
  5
103
100
AcDbEntity
  8
0
 62
     7
 48
0.075
100
AcDbLine
 10
47.121384
 20
72.193855
 30
0.0
 11
47.121384
 21
75.193855
 31
0.0
210
0.0
220
0.0
230
1.0
  0
ARC
  5
104
100
AcDbEntity
  8
0
 62
     7
100
AcDbCircle
 10
47.146393
 20
72.193855
 30
0.0
 40
0.025
210
0.0
220
0.0
230
1.0
100
AcDbArc
 50
180.000005
 51
270.000001
  0
LINE
  5
105
100
AcDbEntity
  8
0
 62
     7
 48
0.07125
100
AcDbLine
 10
49.996384
 20
72.168854
 30
0.0
 11
47.146393
 21
72.168854
 31
0.0
210
0.0
220
0.0
230
1.0
  0
ARC
  5
106
100
AcDbEntity
  8
0
 62
     7
100
AcDbCircle
 10
49.996384
 20
72.193855
 30
0.0
 40
0.025
210
0.0
220
0.0
230
1.0
100
AcDbArc
 50
270.000001
 51
0.00001
  0
LINE
  5
107
100
AcDbEntity
  8
0
 62
     7
 48
0.075
100
AcDbLine
 10
50.021393
 20
75.193855
 30
0.0
 11
50.021393
 21
72.193855
 31
0.0
210
0.0
220
0.0
230
1.0
  0
LINE
  5
108
100
AcDbEntity
  8
0
 62
     7
 48
0.21125
100
AcDbLine
 10
58.47139
 20
75.193855
 30
0.0
 11
50.021393
 21
75.193855
 31
0.0
210
0.0
220
0.0
230
1.0
  0
LINE
  5
109
100
AcDbEntity
  8
0
 62
     7
 48
0.075
100
AcDbLine
 10
58.47139
 20
72.193855
 30
0.0
 11
58.47139
 21
75.193855
 31
0.0
210
0.0
220
0.0
230
1.0
  0
ARC
  5
10A
100
AcDbEntity
  8
0
 62
     7
100
AcDbCircle
 10
58.496391
 20
72.193855
 30
0.0
 40
0.025
210
0.0
220
0.0
230
1.0
100
AcDbArc
 50
180.000005
 51
270.000001
  0
LINE
  5
10B
100
AcDbEntity
  8
0
 62
     7
 48
0.07125
100
AcDbLine
 10
61.34639
 20
72.168854
 30
0.0
 11
58.496391
 21
72.168854
 31
0.0
210
0.0
220
0.0
230
1.0
  0
ARC
  5
10C
100
AcDbEntity
  8
0
 62
     7
100
AcDbCircle
 10
61.34639
 20
72.193855
 30
0.0
 40
0.025
210
0.0
220
0.0
230
1.0
100
AcDbArc
 50
270.000001
 51
0.00001
  0
LINE
  5
10D
100
AcDbEntity
  8
0
 62
     7
 48
0.075
100
AcDbLine
 10
61.371391
 20
75.193855
 30
0.0
 11
61.371391
 21
72.193855
 31
0.0
210
0.0
220
0.0
230
1.0
  0
LINE
  5
10E
100
AcDbEntity
  8
0
 62
     7
 48
0.21125
100
AcDbLine
 10
69.821388
 20
75.193855
 30
0.0
 11
61.371391
 21
75.193855
 31
0.0
210
0.0
220
0.0
230
1.0
  0
LINE
  5
10F
100
AcDbEntity
  8
0
 62
     7
 48
0.075
100
AcDbLine
 10
69.821388
 20
72.193855
 30
0.0
 11
69.821388
 21
75.193855
 31
0.0
210
0.0
220
0.0
230
1.0
  0
ARC
  5
110
100
AcDbEntity
  8
0
 62
     7
100
AcDbCircle
 10
69.84639
 20
72.193855
 30
0.0
 40
0.025
210
0.0
220
0.0
230
1.0
100
AcDbArc
 50
180.000005
 51
270.000001
  0
LINE
  5
111
100
AcDbEntity
  8
0
 62
     7
 48
0.07125
100
AcDbLine
 10
72.696388
 20
72.168854
 30
0.0
 11
69.84639
 21
72.168854
 31
0.0
210
0.0
220
0.0
230
1.0
  0
ARC
  5
112
100
AcDbEntity
  8
0
 62
     7
100
AcDbCircle
 10
72.696388
 20
72.193855
 30
0.0
 40
0.025
210
0.0
220
0.0
230
1.0
100
AcDbArc
 50
270.000001
 51
0.00001
  0
LINE
  5
113
100
AcDbEntity
  8
0
 62
     7
 48
0.075
100
AcDbLine
 10
72.72139
 20
75.193855
 30
0.0
 11
72.72139
 21
72.193855
 31
0.0
210
0.0
220
0.0
230
1.0
  0
LINE
  5
114
100
AcDbEntity
  8
0
 62
     7
100
AcDbLine
 10
112.47139
 20
75.193855
 30
0.0
 11
72.72139
 21
75.193855
 31
0.0
210
0.0
220
0.0
230
1.0
  0
LINE
  5
115
100
AcDbEntity
  8
0
 62
     7
 48
0.075
100
AcDbLine
 10
112.47139
 20
72.193855
 30
0.0
 11
112.47139
 21
75.193855
 31
0.0
210
0.0
220
0.0
230
1.0
  0
ARC
  5
116
100
AcDbEntity
  8
0
 62
     7
100
AcDbCircle
 10
112.496391
 20
72.193855
 30
0.0
 40
0.025
210
0.0
220
0.0
230
1.0
100
AcDbArc
 50
180.000005
 51
270.000001
  0
LINE
  5
117
100
AcDbEntity
  8
0
 62
     7
 48
0.07125
100
AcDbLine
 10
115.34639
 20
72.168854
 30
0.0
 11
112.496391
 21
72.168854
 31
0.0
210
0.0
220
0.0
230
1.0
  0
ARC
  5
118
100
AcDbEntity
  8
0
 62
     7
100
AcDbCircle
 10
115.34639
 20
72.193855
 30
0.0
 40
0.025
210
0.0
220
0.0
230
1.0
100
AcDbArc
 50
270.000001
 51
0.00001
  0
LINE
  5
119
100
AcDbEntity
  8
0
 62
     7
 48
0.075
100
AcDbLine
 10
115.371391
 20
75.193855
 30
0.0
 11
115.371391
 21
72.193855
 31
0.0
210
0.0
220
0.0
230
1.0
  0
LINE
  5
11A
100
AcDbEntity
  8
0
 62
     7
100
AcDbLine
 10
175.321396
 20
75.193855
 30
0.0
 11
115.371391
 21
75.193855
 31
0.0
210
0.0
220
0.0
230
1.0
  0
LINE
  5
11B
100
AcDbEntity
  8
0
 62
     7
 48
0.075
100
AcDbLine
 10
175.321396
 20
72.193855
 30
0.0
 11
175.321396
 21
75.193855
 31
0.0
210
0.0
220
0.0
230
1.0
  0
ARC
  5
11C
100
AcDbEntity
  8
0
 62
     7
100
AcDbCircle
 10
175.34639
 20
72.193855
 30
0.0
 40
0.025
210
0.0
220
0.0
230
1.0
100
AcDbArc
 50
180.000005
 51
270.000001
  0
LINE
  5
11D
100
AcDbEntity
  8
0
 62
     7
 48
0.071875
100
AcDbLine
 10
178.22139
 20
72.168854
 30
0.0
 11
175.34639
 21
72.168854
 31
0.0
210
0.0
220
0.0
230
1.0
  0
LINE
  5
11E
100
AcDbEntity
  8
0
 62
     7
 48
0.074375
100
AcDbLine
 10
178.22139
 20
69.193855
 30
0.0
 11
178.22139
 21
72.168854
 31
0.0
210
0.0
220
0.0
230
1.0
  0
LINE
  5
11F
100
AcDbEntity
  8
0
 62
     7
100
AcDbLine
 10
5.629028
 20
25.636398
 30
0.0
 11
178.529022
 21
25.636398
 31
0.0
210
0.0
220
0.0
230
1.0
  0
LINE
  5
120
100
AcDbEntity
  8
0
 62
     7
 48
0.074375
100
AcDbLine
 10
5.629028
 20
28.611399
 30
0.0
 11
5.629028
 21
25.636398
 31
0.0
210
0.0
220
0.0
230
1.0
  0
LINE
  5
121
100
AcDbEntity
  8
0
 62
     7
 48
0.071875
100
AcDbLine
 10
8.504028
 20
28.611399
 30
0.0
 11
5.629028
 21
28.611399
 31
0.0
210
0.0
220
0.0
230
1.0
  0
ARC
  5
122
100
AcDbEntity
  8
0
 62
     7
100
AcDbCircle
 10
8.504028
 20
28.636398
 30
0.0
 40
0.025
210
0.0
220
0.0
230
1.0
100
AcDbArc
 50
270.000001
 51
0.00001
  0
LINE
  5
123
100
AcDbEntity
  8
0
 62
     7
 48
0.075
100
AcDbLine
 10
8.529022
 20
31.636398
 30
0.0
 11
8.529022
 21
28.636398
 31
0.0
210
0.0
220
0.0
230
1.0
  0
LINE
  5
124
100
AcDbEntity
  8
0
 62
     7
100
AcDbLine
 10
39.129028
 20
31.636398
 30
0.0
 11
8.529022
 21
31.636398
 31
0.0
210
0.0
220
0.0
230
1.0
  0
LINE
  5
125
100
AcDbEntity
  8
0
 62
     7
 48
0.075
100
AcDbLine
 10
39.129028
 20
28.636398
 30
0.0
 11
39.129028
 21
31.636398
 31
0.0
210
0.0
220
0.0
230
1.0
  0
ARC
  5
126
100
AcDbEntity
  8
0
 62
     7
100
AcDbCircle
 10
39.154022
 20
28.636398
 30
0.0
 40
0.025
210
0.0
220
0.0
230
1.0
100
AcDbArc
 50
180.000005
 51
270.000001
  0
LINE
  5
127
100
AcDbEntity
  8
0
 62
     7
 48
0.07125
100
AcDbLine
 10
42.004028
 20
28.611399
 30
0.0
 11
39.154022
 21
28.611399
 31
0.0
210
0.0
220
0.0
230
1.0
  0
ARC
  5
128
100
AcDbEntity
  8
0
 62
     7
100
AcDbCircle
 10
42.004028
 20
28.636398
 30
0.0
 40
0.025
210
0.0
220
0.0
230
1.0
100
AcDbArc
 50
270.000001
 51
0.00001
  0
LINE
  5
129
100
AcDbEntity
  8
0
 62
     7
 48
0.075
100
AcDbLine
 10
42.029022
 20
31.636398
 30
0.0
 11
42.029022
 21
28.636398
 31
0.0
210
0.0
220
0.0
230
1.0
  0
LINE
  5
12A
100
AcDbEntity
  8
0
 62
     7
 48
0.135
100
AcDbLine
 10
47.429016
 20
31.636398
 30
0.0
 11
42.029022
 21
31.636398
 31
0.0
210
0.0
220
0.0
230
1.0
  0
LINE
  5
12B
100
AcDbEntity
  8
0
 62
     7
 48
0.075
100
AcDbLine
 10
47.429016
 20
28.636398
 30
0.0
 11
47.429016
 21
31.636398
 31
0.0
210
0.0
220
0.0
230
1.0
  0
ARC
  5
12C
100
AcDbEntity
  8
0
 62
     7
100
AcDbCircle
 10
47.454025
 20
28.636398
 30
0.0
 40
0.025
210
0.0
220
0.0
230
1.0
100
AcDbArc
 50
180.000005
 51
270.000001
  0
LINE
  5
12D
100
AcDbEntity
  8
0
 62
     7
 48
0.07125
100
AcDbLine
 10
50.304016
 20
28.611399
 30
0.0
 11
47.454025
 21
28.611399
 31
0.0
210
0.0
220
0.0
230
1.0
  0
ARC
  5
12E
100
AcDbEntity
  8
0
 62
     7
100
AcDbCircle
 10
50.304016
 20
28.636398
 30
0.0
 40
0.025
210
0.0
220
0.0
230
1.0
100
AcDbArc
 50
270.000001
 51
0.00001
  0
LINE
  5
12F
100
AcDbEntity
  8
0
 62
     7
 48
0.075
100
AcDbLine
 10
50.329025
 20
31.636398
 30
0.0
 11
50.329025
 21
28.636398
 31
0.0
210
0.0
220
0.0
230
1.0
  0
LINE
  5
130
100
AcDbEntity
  8
0
 62
     7
 48
0.21125
100
AcDbLine
 10
58.779022
 20
31.636398
 30
0.0
 11
50.329025
 21
31.636398
 31
0.0
210
0.0
220
0.0
230
1.0
  0
LINE
  5
131
100
AcDbEntity
  8
0
 62
     7
 48
0.075
100
AcDbLine
 10
58.779022
 20
28.636398
 30
0.0
 11
58.779022
 21
31.636398
 31
0.0
210
0.0
220
0.0
230
1.0
  0
ARC
  5
132
100
AcDbEntity
  8
0
 62
     7
100
AcDbCircle
 10
58.804024
 20
28.636398
 30
0.0
 40
0.025
210
0.0
220
0.0
230
1.0
100
AcDbArc
 50
180.000005
 51
270.000001
  0
LINE
  5
133
100
AcDbEntity
  8
0
 62
     7
 48
0.07125
100
AcDbLine
 10
61.654022
 20
28.611399
 30
0.0
 11
58.804024
 21
28.611399
 31
0.0
210
0.0
220
0.0
230
1.0
  0
ARC
  5
134
100
AcDbEntity
  8
0
 62
     7
100
AcDbCircle
 10
61.654022
 20
28.636398
 30
0.0
 40
0.025
210
0.0
220
0.0
230
1.0
100
AcDbArc
 50
270.000001
 51
0.00001
  0
LINE
  5
135
100
AcDbEntity
  8
0
 62
     7
 48
0.075
100
AcDbLine
 10
61.679024
 20
31.636398
 30
0.0
 11
61.679024
 21
28.636398
 31
0.0
210
0.0
220
0.0
230
1.0
  0
LINE
  5
136
100
AcDbEntity
  8
0
 62
     7
 48
0.21125
100
AcDbLine
 10
70.129021
 20
31.636398
 30
0.0
 11
61.679024
 21
31.636398
 31
0.0
210
0.0
220
0.0
230
1.0
  0
LINE
  5
137
100
AcDbEntity
  8
0
 62
     7
 48
0.075
100
AcDbLine
 10
70.129021
 20
28.636398
 30
0.0
 11
70.129021
 21
31.636398
 31
0.0
210
0.0
220
0.0
230
1.0
  0
ARC
  5
138
100
AcDbEntity
  8
0
 62
     7
100
AcDbCircle
 10
70.154022
 20
28.636398
 30
0.0
 40
0.025
210
0.0
220
0.0
230
1.0
100
AcDbArc
 50
180.000005
 51
270.000001
  0
LINE
  5
139
100
AcDbEntity
  8
0
 62
     7
 48
0.07125
100
AcDbLine
 10
73.004021
 20
28.611399
 30
0.0
 11
70.154022
 21
28.611399
 31
0.0
210
0.0
220
0.0
230
1.0
  0
ARC
  5
13A
100
AcDbEntity
  8
0
 62
     7
100
AcDbCircle
 10
73.004021
 20
28.636398
 30
0.0
 40
0.025
210
0.0
220
0.0
230
1.0
100
AcDbArc
 50
270.000001
 51
0.00001
  0
LINE
  5
13B
100
AcDbEntity
  8
0
 62
     7
 48
0.075
100
AcDbLine
 10
73.029022
 20
31.636398
 30
0.0
 11
73.029022
 21
28.636398
 31
0.0
210
0.0
220
0.0
230
1.0
  0
LINE
  5
13C
100
AcDbEntity
  8
0
 62
     7
100
AcDbLine
 10
112.779022
 20
31.636398
 30
0.0
 11
73.029022
 21
31.636398
 31
0.0
210
0.0
220
0.0
230
1.0
  0
LINE
  5
13D
100
AcDbEntity
  8
0
 62
     7
 48
0.075
100
AcDbLine
 10
112.779022
 20
28.636398
 30
0.0
 11
112.779022
 21
31.636398
 31
0.0
210
0.0
220
0.0
230
1.0
  0
ARC
  5
13E
100
AcDbEntity
  8
0
 62
     7
100
AcDbCircle
 10
112.804024
 20
28.636398
 30
0.0
 40
0.025
210
0.0
220
0.0
230
1.0
100
AcDbArc
 50
180.000005
 51
270.000001
  0
LINE
  5
13F
100
AcDbEntity
  8
0
 62
     7
 48
0.07125
100
AcDbLine
 10
115.654022
 20
28.611399
 30
0.0
 11
112.804024
 21
28.611399
 31
0.0
210
0.0
220
0.0
230
1.0
  0
ARC
  5
140
100
AcDbEntity
  8
0
 62
     7
100
AcDbCircle
 10
115.654022
 20
28.636398
 30
0.0
 40
0.025
210
0.0
220
0.0
230
1.0
100
AcDbArc
 50
270.000001
 51
0.00001
  0
LINE
  5
141
100
AcDbEntity
  8
0
 62
     7
 48
0.075
100
AcDbLine
 10
115.679024
 20
31.636398
 30
0.0
 11
115.679024
 21
28.636398
 31
0.0
210
0.0
220
0.0
230
1.0
  0
LINE
  5
142
100
AcDbEntity
  8
0
 62
     7
100
AcDbLine
 10
175.629028
 20
31.636398
 30
0.0
 11
115.679024
 21
31.636398
 31
0.0
210
0.0
220
0.0
230
1.0
  0
LINE
  5
143
100
AcDbEntity
  8
0
 62
     7
 48
0.075
100
AcDbLine
 10
175.629028
 20
28.636398
 30
0.0
 11
175.629028
 21
31.636398
 31
0.0
210
0.0
220
0.0
230
1.0
  0
ARC
  5
144
100
AcDbEntity
  8
0
 62
     7
100
AcDbCircle
 10
175.654022
 20
28.636398
 30
0.0
 40
0.025
210
0.0
220
0.0
230
1.0
100
AcDbArc
 50
180.000005
 51
270.000001
  0
LINE
  5
145
100
AcDbEntity
  8
0
 62
     7
 48
0.071875
100
AcDbLine
 10
178.529022
 20
28.611399
 30
0.0
 11
175.654022
 21
28.611399
 31
0.0
210
0.0
220
0.0
230
1.0
  0
LINE
  5
146
100
AcDbEntity
  8
0
 62
     7
 48
0.074375
100
AcDbLine
 10
178.529022
 20
25.636398
 30
0.0
 11
178.529022
 21
28.611399
 31
0.0
210
0.0
220
0.0
230
1.0
  0
LINE
  5
147
100
AcDbEntity
  8
0
 62
     7
100
AcDbLine
 10
10.929626
 20
13.630277
 30
0.0
 11
183.82962
 21
13.630277
 31
0.0
210
0.0
220
0.0
230
1.0
  0
LINE
  5
148
100
AcDbEntity
  8
0
 62
     7
 48
0.074375
100
AcDbLine
 10
10.929626
 20
16.605276
 30
0.0
 11
10.929626
 21
13.630277
 31
0.0
210
0.0
220
0.0
230
1.0
  0
LINE
  5
149
100
AcDbEntity
  8
0
 62
     7
 48
0.071875
100
AcDbLine
 10
13.804626
 20
16.605276
 30
0.0
 11
10.929626
 21
16.605276
 31
0.0
210
0.0
220
0.0
230
1.0
  0
ARC
  5
14A
100
AcDbEntity
  8
0
 62
     7
100
AcDbCircle
 10
13.804626
 20
16.630276
 30
0.0
 40
0.025
210
0.0
220
0.0
230
1.0
100
AcDbArc
 50
270.000001
 51
0.00001
  0
LINE
  5
14B
100
AcDbEntity
  8
0
 62
     7
 48
0.075
100
AcDbLine
 10
13.82962
 20
19.630276
 30
0.0
 11
13.82962
 21
16.630276
 31
0.0
210
0.0
220
0.0
230
1.0
  0
LINE
  5
14C
100
AcDbEntity
  8
0
 62
     7
100
AcDbLine
 10
44.429626
 20
19.630276
 30
0.0
 11
13.82962
 21
19.630276
 31
0.0
210
0.0
220
0.0
230
1.0
  0
LINE
  5
14D
100
AcDbEntity
  8
0
 62
     7
 48
0.075
100
AcDbLine
 10
44.429626
 20
16.630276
 30
0.0
 11
44.429626
 21
19.630276
 31
0.0
210
0.0
220
0.0
230
1.0
  0
ARC
  5
14E
100
AcDbEntity
  8
0
 62
     7
100
AcDbCircle
 10
44.45462
 20
16.630276
 30
0.0
 40
0.025
210
0.0
220
0.0
230
1.0
100
AcDbArc
 50
180.000005
 51
270.000001
  0
LINE
  5
14F
100
AcDbEntity
  8
0
 62
     7
 48
0.07125
100
AcDbLine
 10
47.304626
 20
16.605276
 30
0.0
 11
44.45462
 21
16.605276
 31
0.0
210
0.0
220
0.0
230
1.0
  0
ARC
  5
150
100
AcDbEntity
  8
0
 62
     7
100
AcDbCircle
 10
47.304626
 20
16.630276
 30
0.0
 40
0.025
210
0.0
220
0.0
230
1.0
100
AcDbArc
 50
270.000001
 51
0.00001
  0
LINE
  5
151
100
AcDbEntity
  8
0
 62
     7
 48
0.075
100
AcDbLine
 10
47.32962
 20
19.630276
 30
0.0
 11
47.32962
 21
16.630276
 31
0.0
210
0.0
220
0.0
230
1.0
  0
LINE
  5
152
100
AcDbEntity
  8
0
 62
     7
 48
0.135
100
AcDbLine
 10
52.729614
 20
19.630276
 30
0.0
 11
47.32962
 21
19.630276
 31
0.0
210
0.0
220
0.0
230
1.0
  0
LINE
  5
153
100
AcDbEntity
  8
0
 62
     7
 48
0.075
100
AcDbLine
 10
52.729614
 20
16.630276
 30
0.0
 11
52.729614
 21
19.630276
 31
0.0
210
0.0
220
0.0
230
1.0
  0
ARC
  5
154
100
AcDbEntity
  8
0
 62
     7
100
AcDbCircle
 10
52.754623
 20
16.630276
 30
0.0
 40
0.025
210
0.0
220
0.0
230
1.0
100
AcDbArc
 50
180.000005
 51
270.000001
  0
LINE
  5
155
100
AcDbEntity
  8
0
 62
     7
 48
0.07125
100
AcDbLine
 10
55.604614
 20
16.605276
 30
0.0
 11
52.754623
 21
16.605276
 31
0.0
210
0.0
220
0.0
230
1.0
  0
ARC
  5
156
100
AcDbEntity
  8
0
 62
     7
100
AcDbCircle
 10
55.604614
 20
16.630276
 30
0.0
 40
0.025
210
0.0
220
0.0
230
1.0
100
AcDbArc
 50
270.000001
 51
0.00001
  0
LINE
  5
157
100
AcDbEntity
  8
0
 62
     7
 48
0.075
100
AcDbLine
 10
55.629623
 20
19.630276
 30
0.0
 11
55.629623
 21
16.630276
 31
0.0
210
0.0
220
0.0
230
1.0
  0
LINE
  5
158
100
AcDbEntity
  8
0
 62
     7
 48
0.21125
100
AcDbLine
 10
64.07962
 20
19.630276
 30
0.0
 11
55.629623
 21
19.630276
 31
0.0
210
0.0
220
0.0
230
1.0
  0
LINE
  5
159
100
AcDbEntity
  8
0
 62
     7
 48
0.075
100
AcDbLine
 10
64.07962
 20
16.630276
 30
0.0
 11
64.07962
 21
19.630276
 31
0.0
210
0.0
220
0.0
230
1.0
  0
ARC
  5
15A
100
AcDbEntity
  8
0
 62
     7
100
AcDbCircle
 10
64.104622
 20
16.630276
 30
0.0
 40
0.025
210
0.0
220
0.0
230
1.0
100
AcDbArc
 50
180.000005
 51
270.000001
  0
LINE
  5
15B
100
AcDbEntity
  8
0
 62
     7
 48
0.07125
100
AcDbLine
 10
66.95462
 20
16.605276
 30
0.0
 11
64.104622
 21
16.605276
 31
0.0
210
0.0
220
0.0
230
1.0
  0
ARC
  5
15C
100
AcDbEntity
  8
0
 62
     7
100
AcDbCircle
 10
66.95462
 20
16.630276
 30
0.0
 40
0.025
210
0.0
220
0.0
230
1.0
100
AcDbArc
 50
270.000001
 51
0.00001
  0
LINE
  5
15D
100
AcDbEntity
  8
0
 62
     7
 48
0.075
100
AcDbLine
 10
66.979622
 20
19.630276
 30
0.0
 11
66.979622
 21
16.630276
 31
0.0
210
0.0
220
0.0
230
1.0
  0
LINE
  5
15E
100
AcDbEntity
  8
0
 62
     7
 48
0.21125
100
AcDbLine
 10
75.429619
 20
19.630276
 30
0.0
 11
66.979622
 21
19.630276
 31
0.0
210
0.0
220
0.0
230
1.0
  0
LINE
  5
15F
100
AcDbEntity
  8
0
 62
     7
 48
0.075
100
AcDbLine
 10
75.429619
 20
16.630276
 30
0.0
 11
75.429619
 21
19.630276
 31
0.0
210
0.0
220
0.0
230
1.0
  0
ARC
  5
160
100
AcDbEntity
  8
0
 62
     7
100
AcDbCircle
 10
75.45462
 20
16.630276
 30
0.0
 40
0.025
210
0.0
220
0.0
230
1.0
100
AcDbArc
 50
180.000005
 51
270.000001
  0
LINE
  5
161
100
AcDbEntity
  8
0
 62
     7
 48
0.07125
100
AcDbLine
 10
78.304619
 20
16.605276
 30
0.0
 11
75.45462
 21
16.605276
 31
0.0
210
0.0
220
0.0
230
1.0
  0
ARC
  5
162
100
AcDbEntity
  8
0
 62
     7
100
AcDbCircle
 10
78.304619
 20
16.630276
 30
0.0
 40
0.025
210
0.0
220
0.0
230
1.0
100
AcDbArc
 50
270.000001
 51
0.00001
  0
LINE
  5
163
100
AcDbEntity
  8
0
 62
     7
 48
0.075
100
AcDbLine
 10
78.32962
 20
19.630276
 30
0.0
 11
78.32962
 21
16.630276
 31
0.0
210
0.0
220
0.0
230
1.0
  0
LINE
  5
164
100
AcDbEntity
  8
0
 62
     7
100
AcDbLine
 10
118.07962
 20
19.630276
 30
0.0
 11
78.32962
 21
19.630276
 31
0.0
210
0.0
220
0.0
230
1.0
  0
LINE
  5
165
100
AcDbEntity
  8
0
 62
     7
 48
0.075
100
AcDbLine
 10
118.07962
 20
16.630276
 30
0.0
 11
118.07962
 21
19.630276
 31
0.0
210
0.0
220
0.0
230
1.0
  0
ARC
  5
166
100
AcDbEntity
  8
0
 62
     7
100
AcDbCircle
 10
118.104622
 20
16.630276
 30
0.0
 40
0.025
210
0.0
220
0.0
230
1.0
100
AcDbArc
 50
180.000005
 51
270.000001
  0
LINE
  5
167
100
AcDbEntity
  8
0
 62
     7
 48
0.07125
100
AcDbLine
 10
120.95462
 20
16.605276
 30
0.0
 11
118.104622
 21
16.605276
 31
0.0
210
0.0
220
0.0
230
1.0
  0
ARC
  5
168
100
AcDbEntity
  8
0
 62
     7
100
AcDbCircle
 10
120.95462
 20
16.630276
 30
0.0
 40
0.025
210
0.0
220
0.0
230
1.0
100
AcDbArc
 50
270.000001
 51
0.00001
  0
LINE
  5
169
100
AcDbEntity
  8
0
 62
     7
 48
0.075
100
AcDbLine
 10
120.979622
 20
19.630276
 30
0.0
 11
120.979622
 21
16.630276
 31
0.0
210
0.0
220
0.0
230
1.0
  0
LINE
  5
16A
100
AcDbEntity
  8
0
 62
     7
100
AcDbLine
 10
180.929626
 20
19.630276
 30
0.0
 11
120.979622
 21
19.630276
 31
0.0
210
0.0
220
0.0
230
1.0
  0
LINE
  5
16B
100
AcDbEntity
  8
0
 62
     7
 48
0.075
100
AcDbLine
 10
180.929626
 20
16.630276
 30
0.0
 11
180.929626
 21
19.630276
 31
0.0
210
0.0
220
0.0
230
1.0
  0
ARC
  5
16C
100
AcDbEntity
  8
0
 62
     7
100
AcDbCircle
 10
180.95462
 20
16.630276
 30
0.0
 40
0.025
210
0.0
220
0.0
230
1.0
100
AcDbArc
 50
180.000005
 51
270.000001
  0
LINE
  5
16D
100
AcDbEntity
  8
0
 62
     7
 48
0.071875
100
AcDbLine
 10
183.82962
 20
16.605276
 30
0.0
 11
180.95462
 21
16.605276
 31
0.0
210
0.0
220
0.0
230
1.0
  0
LINE
  5
16E
100
AcDbEntity
  8
0
 62
     7
 48
0.074375
100
AcDbLine
 10
183.82962
 20
13.630277
 30
0.0
 11
183.82962
 21
16.605276
 31
0.0
210
0.0
220
0.0
230
1.0
  0
ARC
  5
16F
100
AcDbEntity
  8
0
 62
     7
100
AcDbCircle
 10
110.216278
 20
111.773399
 30
0.0
 40
33.5
210
0.0
220
0.0
230
1.0
100
AcDbArc
 50
92.480741
 51
207.519261
  0
LINE
  5
170
100
AcDbEntity
  8
0
 62
     7
 48
0.074215
100
AcDbLine
 10
80.506615
 20
96.29483
 30
0.0
 11
83.077499
 21
97.779137
 31
0.0
210
0.0
220
0.0
230
1.0
  0
ARC
  5
171
100
AcDbEntity
  8
0
 62
     7
100
AcDbCircle
 10
83.090004
 20
97.757484
 30
0.0
 40
0.025
210
0.0
220
0.0
230
1.0
100
AcDbArc
 50
30.0
 51
120.000003
  0
LINE
  5
172
100
AcDbEntity
  8
0
 62
     7
 48
0.07125
100
AcDbLine
 10
83.111656
 20
97.769989
 30
0.0
 11
84.536652
 21
95.301811
 31
0.0
210
0.0
220
0.0
230
1.0
  0
ARC
  5
173
100
AcDbEntity
  8
0
 62
     7
100
AcDbCircle
 10
84.514999
 20
95.289314
 30
0.0
 40
0.025
210
0.0
220
0.0
230
1.0
100
AcDbArc
 50
299.999994
 51
30.000003
  0
LINE
  5
174
100
AcDbEntity
  8
0
 62
     7
 48
0.074215
100
AcDbLine
 10
84.527504
 20
95.267662
 30
0.0
 11
81.956619
 21
93.783356
 31
0.0
210
0.0
220
0.0
230
1.0
  0
ARC
  5
175
100
AcDbEntity
  8
0
 62
     7
100
AcDbCircle
 10
110.216278
 20
111.773399
 30
0.0
 40
33.5
210
0.0
220
0.0
230
1.0
100
AcDbArc
 50
212.480738
 51
327.519262
  0
LINE
  5
176
100
AcDbEntity
  8
0
 62
     7
 48
0.074215
100
AcDbLine
 10
135.90506
 20
95.267662
 30
0.0
 11
138.475937
 21
93.783356
 31
0.0
210
0.0
220
0.0
230
1.0
  0
ARC
  5
177
100
AcDbEntity
  8
0
 62
     7
100
AcDbCircle
 10
135.917557
 20
95.289314
 30
0.0
 40
0.025
210
0.0
220
0.0
230
1.0
100
AcDbArc
 50
149.999997
 51
240.000006
  0
LINE
  5
178
100
AcDbEntity
  8
0
 62
     7
 48
0.07125
100
AcDbLine
 10
137.320908
 20
97.769989
 30
0.0
 11
135.895905
 21
95.301811
 31
0.0
210
0.0
220
0.0
230
1.0
  0
ARC
  5
179
100
AcDbEntity
  8
0
 62
     7
100
AcDbCircle
 10
137.34256
 20
97.757484
 30
0.0
 40
0.025
210
0.0
220
0.0
230
1.0
100
AcDbArc
 50
60.000003
 51
149.999997
  0
LINE
  5
17A
100
AcDbEntity
  8
0
 62
     7
 48
0.074215
100
AcDbLine
 10
139.925934
 20
96.29483
 30
0.0
 11
137.355057
 21
97.779137
 31
0.0
210
0.0
220
0.0
230
1.0
  0
ARC
  5
17B
100
AcDbEntity
  8
0
 62
     7
100
AcDbCircle
 10
110.216278
 20
111.773399
 30
0.0
 40
33.5
210
0.0
220
0.0
230
1.0
100
AcDbArc
 50
332.48074
 51
87.519267
  0
LINE
  5
17C
100
AcDbEntity
  8
0
 62
     7
 48
0.074215
100
AcDbLine
 10
111.666275
 20
142.273407
 30
0.0
 11
111.666275
 21
145.242004
 31
0.0
210
0.0
220
0.0
230
1.0
  0
ARC
  5
17D
100
AcDbEntity
  8
0
 62
     7
100
AcDbCircle
 10
111.641281
 20
142.273407
 30
0.0
 40
0.025
210
0.0
220
0.0
230
1.0
100
AcDbArc
 50
270.000001
 51
0.00001
  0
LINE
  5
17E
100
AcDbEntity
  8
0
 62
     7
 48
0.07125
100
AcDbLine
 10
108.791275
 20
142.248398
 30
0.0
 11
111.641281
 21
142.248398
 31
0.0
210
0.0
220
0.0
230
1.0
  0
ARC
  5
17F
100
AcDbEntity
  8
0
 62
     7
100
AcDbCircle
 10
108.791275
 20
142.273407
 30
0.0
 40
0.025
210
0.0
220
0.0
230
1.0
100
AcDbArc
 50
180.000005
 51
270.000001
  0
LINE
  5
180
100
AcDbEntity
  8
0
 62
     7
 48
0.074215
100
AcDbLine
 10
108.766281
 20
145.242004
 30
0.0
 11
108.766281
 21
142.273407
 31
0.0
210
0.0
220
0.0
230
1.0
  0
ARC
  5
181
100
AcDbEntity
  8
0
 62
     7
100
AcDbCircle
 10
110.216278
 20
111.773399
 30
0.0
 40
27.5
210
0.0
220
0.0
230
1.0
100
AcDbArc
 50
351.004105
 51
74.60603
  0
LINE
  5
182
100
AcDbEntity
  8
0
 62
     7
 48
0.06326
100
AcDbLine
 10
137.378021
 20
107.473396
 30
0.0
 11
139.908401
 21
107.473396
 31
0.0
210
0.0
220
0.0
230
1.0
  0
ARC
  5
183
100
AcDbEntity
  8
0
 62
     7
100
AcDbCircle
 10
139.908401
 20
107.448402
 30
0.0
 40
0.025
210
0.0
220
0.0
230
1.0
100
AcDbArc
 50
0.0
 51
90.000003
  0
LINE
  5
184
100
AcDbEntity
  8
0
 62
     7
 48
0.07125
100
AcDbLine
 10
139.933395
 20
104.598396
 30
0.0
 11
139.933395
 21
107.448402
 31
0.0
210
0.0
220
0.0
230
1.0
  0
ARC
  5
185
100
AcDbEntity
  8
0
 62
     7
100
AcDbCircle
 10
139.908401
 20
104.598396
 30
0.0
 40
0.025
210
0.0
220
0.0
230
1.0
100
AcDbArc
 50
270.000001
 51
0.00001
  0
LINE
  5
186
100
AcDbEntity
  8
0
 62
     7
 48
0.078785
100
AcDbLine
 10
139.908401
 20
104.573402
 30
0.0
 11
136.757004
 21
104.573402
 31
0.0
210
0.0
220
0.0
230
1.0
  0
ARC
  5
187
100
AcDbEntity
  8
0
 62
     7
100
AcDbCircle
 10
110.216278
 20
111.773399
 30
0.0
 40
27.5
210
0.0
220
0.0
230
1.0
100
AcDbArc
 50
285.393963
 51
344.822017
  0
LINE
  5
188
100
AcDbEntity
  8
0
 62
     7
 48
0.078914
100
AcDbLine
 10
117.516281
 20
82.103447
 30
0.0
 11
117.516281
 21
85.26001
 31
0.0
210
0.0
220
0.0
230
1.0
  0
ARC
  5
189
100
AcDbEntity
  8
0
 62
     7
100
AcDbCircle
 10
117.49128
 20
82.103447
 30
0.0
 40
0.025
210
0.0
220
0.0
230
1.0
100
AcDbArc
 50
270.000001
 51
0.00001
  0
LINE
  5
18A
100
AcDbEntity
  8
0
 62
     7
 48
0.07125
100
AcDbLine
 10
117.49128
 20
82.078445
 30
0.0
 11
114.641281
 21
82.078445
 31
0.0
210
0.0
220
0.0
230
1.0
  0
ARC
  5
18B
100
AcDbEntity
  8
0
 62
     7
100
AcDbCircle
 10
114.641281
 20
82.103447
 30
0.0
 40
0.025
210
0.0
220
0.0
230
1.0
100
AcDbArc
 50
180.000005
 51
270.000001
  0
LINE
  5
18C
100
AcDbEntity
  8
0
 62
     7
 48
0.063106
100
AcDbLine
 10
114.61628
 20
84.627686
 30
0.0
 11
114.61628
 21
82.103447
 31
0.0
210
0.0
220
0.0
230
1.0
  0
ARC
  5
18D
100
AcDbEntity
  8
0
 62
     7
100
AcDbCircle
 10
110.216278
 20
111.773399
 30
0.0
 40
27.5
210
0.0
220
0.0
230
1.0
100
AcDbArc
 50
195.17797
 51
279.206905
  0
LINE
  5
18E
100
AcDbEntity
  8
0
 62
     7
 48
0.078785
100
AcDbLine
 10
83.675552
 20
104.573402
 30
0.0
 11
80.524155
 21
104.573402
 31
0.0
210
0.0
220
0.0
230
1.0
  0
ARC
  5
18F
100
AcDbEntity
  8
0
 62
     7
100
AcDbCircle
 10
80.524155
 20
104.598396
 30
0.0
 40
0.025
210
0.0
220
0.0
230
1.0
100
AcDbArc
 50
180.000005
 51
270.000001
  0
LINE
  5
190
100
AcDbEntity
  8
0
 62
     7
 48
0.07125
100
AcDbLine
 10
80.499161
 20
107.448402
 30
0.0
 11
80.499161
 21
104.598396
 31
0.0
210
0.0
220
0.0
230
1.0
  0
ARC
  5
191
100
AcDbEntity
  8
0
 62
     7
100
AcDbCircle
 10
80.524155
 20
107.448402
 30
0.0
 40
0.025
210
0.0
220
0.0
230
1.0
100
AcDbArc
 50
90.000003
 51
180.000005
  0
LINE
  5
192
100
AcDbEntity
  8
0
 62
     7
 48
0.06326
100
AcDbLine
 10
80.524155
 20
107.473396
 30
0.0
 11
83.054543
 21
107.473396
 31
0.0
210
0.0
220
0.0
230
1.0
  0
ARC
  5
193
100
AcDbEntity
  8
0
 62
     7
100
AcDbCircle
 10
110.216278
 20
111.773399
 30
0.0
 40
27.5
210
0.0
220
0.0
230
1.0
100
AcDbArc
 50
80.793105
 51
188.995897
  0
LINE
  5
194
100
AcDbEntity
  8
0
 62
     7
 48
0.063106
100
AcDbLine
 10
114.61628
 20
141.443359
 30
0.0
 11
114.61628
 21
138.919113
 31
0.0
210
0.0
220
0.0
230
1.0
  0
ARC
  5
195
100
AcDbEntity
  8
0
 62
     7
100
AcDbCircle
 10
114.641281
 20
141.443359
 30
0.0
 40
0.025
210
0.0
220
0.0
230
1.0
100
AcDbArc
 50
90.000003
 51
180.000005
  0
LINE
  5
196
100
AcDbEntity
  8
0
 62
     7
 48
0.07125
100
AcDbLine
 10
114.641281
 20
141.468353
 30
0.0
 11
117.49128
 21
141.468353
 31
0.0
210
0.0
220
0.0
230
1.0
  0
ARC
  5
197
100
AcDbEntity
  8
0
 62
     7
100
AcDbCircle
 10
117.49128
 20
141.443359
 30
0.0
 40
0.025
210
0.0
220
0.0
230
1.0
100
AcDbArc
 50
0.0
 51
90.000003
  0
LINE
  5
198
100
AcDbEntity
  8
0
 62
     7
 48
0.078914
100
AcDbLine
 10
117.516281
 20
138.286789
 30
0.0
 11
117.516281
 21
141.443359
 31
0.0
210
0.0
220
0.0
230
1.0
  0
ARC
  5
199
100
AcDbEntity
  8
0
 62
     7
100
AcDbCircle
 10
182.620422
 20
111.420006
 30
0.0
 40
33.5
210
0.0
220
0.0
230
1.0
100
AcDbArc
 50
92.480741
 51
207.519261
  0
LINE
  5
19A
100
AcDbEntity
  8
0
 62
     7
 48
0.074215
100
AcDbLine
 10
152.910767
 20
95.941437
 30
0.0
 11
155.481644
 21
97.425743
 31
0.0
210
0.0
220
0.0
230
1.0
  0
ARC
  5
19B
100
AcDbEntity
  8
0
 62
     7
100
AcDbCircle
 10
155.494141
 20
97.404091
 30
0.0
 40
0.025
210
0.0
220
0.0
230
1.0
100
AcDbArc
 50
30.0
 51
120.000003
  0
LINE
  5
19C
100
AcDbEntity
  8
0
 62
     7
 48
0.07125
100
AcDbLine
 10
155.515793
 20
97.416595
 30
0.0
 11
156.940796
 21
94.948418
 31
0.0
210
0.0
220
0.0
230
1.0
  0
ARC
  5
19D
100
AcDbEntity
  8
0
 62
     7
100
AcDbCircle
 10
156.919144
 20
94.935921
 30
0.0
 40
0.025
210
0.0
220
0.0
230
1.0
100
AcDbArc
 50
299.999994
 51
30.000003
  0
LINE
  5
19E
100
AcDbEntity
  8
0
 62
     7
 48
0.074215
100
AcDbLine
 10
156.931641
 20
94.914268
 30
0.0
 11
154.360764
 21
93.429962
 31
0.0
210
0.0
220
0.0
230
1.0
  0
ARC
  5
19F
100
AcDbEntity
  8
0
 62
     7
100
AcDbCircle
 10
182.620422
 20
111.420006
 30
0.0
 40
33.5
210
0.0
220
0.0
230
1.0
100
AcDbArc
 50
212.480738
 51
327.519262
  0
LINE
  5
1A0
100
AcDbEntity
  8
0
 62
     7
 48
0.074215
100
AcDbLine
 10
208.309204
 20
94.914268
 30
0.0
 11
210.880081
 21
93.429962
 31
0.0
210
0.0
220
0.0
230
1.0
  0
ARC
  5
1A1
100
AcDbEntity
  8
0
 62
     7
100
AcDbCircle
 10
208.321701
 20
94.935921
 30
0.0
 40
0.025
210
0.0
220
0.0
230
1.0
100
AcDbArc
 50
149.999997
 51
240.000006
  0
LINE
  5
1A2
100
AcDbEntity
  8
0
 62
     7
 48
0.07125
100
AcDbLine
 10
209.725052
 20
97.416595
 30
0.0
 11
208.300049
 21
94.948418
 31
0.0
210
0.0
220
0.0
230
1.0
  0
ARC
  5
1A3
100
AcDbEntity
  8
0
 62
     7
100
AcDbCircle
 10
209.746704
 20
97.404091
 30
0.0
 40
0.025
210
0.0
220
0.0
230
1.0
100
AcDbArc
 50
60.000003
 51
149.999997
  0
LINE
  5
1A4
100
AcDbEntity
  8
0
 62
     7
 48
0.074215
100
AcDbLine
 10
212.330078
 20
95.941437
 30
0.0
 11
209.759201
 21
97.425743
 31
0.0
210
0.0
220
0.0
230
1.0
  0
ARC
  5
1A5
100
AcDbEntity
  8
0
 62
     7
100
AcDbCircle
 10
182.620422
 20
111.420006
 30
0.0
 40
33.5
210
0.0
220
0.0
230
1.0
100
AcDbArc
 50
332.48074
 51
87.519267
  0
LINE
  5
1A6
100
AcDbEntity
  8
0
 62
     7
 48
0.074215
100
AcDbLine
 10
184.070419
 20
141.920013
 30
0.0
 11
184.070419
 21
144.888611
 31
0.0
210
0.0
220
0.0
230
1.0
  0
ARC
  5
1A7
100
AcDbEntity
  8
0
 62
     7
100
AcDbCircle
 10
184.045425
 20
141.920013
 30
0.0
 40
0.025
210
0.0
220
0.0
230
1.0
100
AcDbArc
 50
270.000001
 51
0.00001
  0
LINE
  5
1A8
100
AcDbEntity
  8
0
 62
     7
 48
0.07125
100
AcDbLine
 10
181.195419
 20
141.895004
 30
0.0
 11
184.045425
 21
141.895004
 31
0.0
210
0.0
220
0.0
230
1.0
  0
ARC
  5
1A9
100
AcDbEntity
  8
0
 62
     7
100
AcDbCircle
 10
181.195419
 20
141.920013
 30
0.0
 40
0.025
210
0.0
220
0.0
230
1.0
100
AcDbArc
 50
180.000005
 51
270.000001
  0
LINE
  5
1AA
100
AcDbEntity
  8
0
 62
     7
 48
0.074215
100
AcDbLine
 10
181.170425
 20
144.888611
 30
0.0
 11
181.170425
 21
141.920013
 31
0.0
210
0.0
220
0.0
230
1.0
  0
ARC
  5
1AB
100
AcDbEntity
  8
0
 62
     7
100
AcDbCircle
 10
182.620422
 20
111.420006
 30
0.0
 40
27.5
210
0.0
220
0.0
230
1.0
100
AcDbArc
 50
351.004105
 51
74.878335
  0
LINE
  5
1AC
100
AcDbEntity
  8
0
 62
     7
 48
0.06326
100
AcDbLine
 10
209.782166
 20
107.120003
 30
0.0
 11
212.312546
 21
107.120003
 31
0.0
210
0.0
220
0.0
230
1.0
  0
ARC
  5
1AD
100
AcDbEntity
  8
0
 62
     7
100
AcDbCircle
 10
212.312546
 20
107.095009
 30
0.0
 40
0.025
210
0.0
220
0.0
230
1.0
100
AcDbArc
 50
0.0
 51
90.000003
  0
LINE
  5
1AE
100
AcDbEntity
  8
0
 62
     7
 48
0.07125
100
AcDbLine
 10
212.33754
 20
104.245003
 30
0.0
 11
212.33754
 21
107.095009
 31
0.0
210
0.0
220
0.0
230
1.0
  0
ARC
  5
1AF
100
AcDbEntity
  8
0
 62
     7
100
AcDbCircle
 10
212.312546
 20
104.245003
 30
0.0
 40
0.025
210
0.0
220
0.0
230
1.0
100
AcDbArc
 50
270.000001
 51
0.00001
  0
LINE
  5
1B0
100
AcDbEntity
  8
0
 62
     7
 48
0.078785
100
AcDbLine
 10
212.312546
 20
104.220009
 30
0.0
 11
209.161148
 21
104.220009
 31
0.0
210
0.0
220
0.0
230
1.0
  0
ARC
  5
1B1
100
AcDbEntity
  8
0
 62
     7
100
AcDbCircle
 10
182.620422
 20
111.420006
 30
0.0
 40
27.5
210
0.0
220
0.0
230
1.0
100
AcDbArc
 50
195.17797
 51
344.822017
  0
LINE
  5
1B2
100
AcDbEntity
  8
0
 62
     7
 48
0.078785
100
AcDbLine
 10
156.079697
 20
104.220009
 30
0.0
 11
152.928299
 21
104.220009
 31
0.0
210
0.0
220
0.0
230
1.0
  0
ARC
  5
1B3
100
AcDbEntity
  8
0
 62
     7
100
AcDbCircle
 10
152.928299
 20
104.245003
 30
0.0
 40
0.025
210
0.0
220
0.0
230
1.0
100
AcDbArc
 50
180.000005
 51
270.000001
  0
LINE
  5
1B4
100
AcDbEntity
  8
0
 62
     7
 48
0.07125
100
AcDbLine
 10
152.903305
 20
107.095009
 30
0.0
 11
152.903305
 21
104.245003
 31
0.0
210
0.0
220
0.0
230
1.0
  0
ARC
  5
1B5
100
AcDbEntity
  8
0
 62
     7
100
AcDbCircle
 10
152.928299
 20
107.095009
 30
0.0
 40
0.025
210
0.0
220
0.0
230
1.0
100
AcDbArc
 50
90.000003
 51
180.000005
  0
LINE
  5
1B6
100
AcDbEntity
  8
0
 62
     7
 48
0.06326
100
AcDbLine
 10
152.928299
 20
107.120003
 30
0.0
 11
155.458679
 21
107.120003
 31
0.0
210
0.0
220
0.0
230
1.0
  0
ARC
  5
1B7
100
AcDbEntity
  8
0
 62
     7
100
AcDbCircle
 10
182.620422
 20
111.420006
 30
0.0
 40
27.5
210
0.0
220
0.0
230
1.0
100
AcDbArc
 50
74.878333
 51
188.995897
  0
ARC
  5
1B8
100
AcDbEntity
  8
0
 62
     7
100
AcDbCircle
 10
210.852692
 20
46.043846
 30
0.0
 40
33.5
210
0.0
220
0.0
230
1.0
100
AcDbArc
 50
92.480741
 51
207.519261
  0
LINE
  5
1B9
100
AcDbEntity
  8
0
 62
     7
 48
0.074215
100
AcDbLine
 10
181.143036
 20
30.565281
 30
0.0
 11
183.713913
 21
32.049583
 31
0.0
210
0.0
220
0.0
230
1.0
  0
ARC
  5
1BA
100
AcDbEntity
  8
0
 62
     7
100
AcDbCircle
 10
183.72641
 20
32.027931
 30
0.0
 40
0.025
210
0.0
220
0.0
230
1.0
100
AcDbArc
 50
30.0
 51
120.000003
  0
LINE
  5
1BB
100
AcDbEntity
  8
0
 62
     7
 48
0.07125
100
AcDbLine
 10
183.748062
 20
32.040432
 30
0.0
 11
185.173065
 21
29.57226
 31
0.0
210
0.0
220
0.0
230
1.0
  0
ARC
  5
1BC
100
AcDbEntity
  8
0
 62
     7
100
AcDbCircle
 10
185.151413
 20
29.559759
 30
0.0
 40
0.025
210
0.0
220
0.0
230
1.0
100
AcDbArc
 50
299.999994
 51
30.000003
  0
LINE
  5
1BD
100
AcDbEntity
  8
0
 62
     7
 48
0.074215
100
AcDbLine
 10
185.16391
 20
29.538109
 30
0.0
 11
182.593033
 21
28.053806
 31
0.0
210
0.0
220
0.0
230
1.0
  0
ARC
  5
1BE
100
AcDbEntity
  8
0
 62
     7
100
AcDbCircle
 10
210.852692
 20
46.043846
 30
0.0
 40
33.5
210
0.0
220
0.0
230
1.0
100
AcDbArc
 50
212.480738
 51
327.519262
  0
LINE
  5
1BF
100
AcDbEntity
  8
0
 62
     7
 48
0.074215
100
AcDbLine
 10
236.541473
 20
29.538109
 30
0.0
 11
239.11235
 21
28.053806
 31
0.0
210
0.0
220
0.0
230
1.0
  0
ARC
  5
1C0
100
AcDbEntity
  8
0
 62
     7
100
AcDbCircle
 10
236.55397
 20
29.559759
 30
0.0
 40
0.025
210
0.0
220
0.0
230
1.0
100
AcDbArc
 50
149.999997
 51
240.000006
  0
LINE
  5
1C1
100
AcDbEntity
  8
0
 62
     7
 48
0.07125
100
AcDbLine
 10
237.957321
 20
32.040432
 30
0.0
 11
236.532318
 21
29.57226
 31
0.0
210
0.0
220
0.0
230
1.0
  0
ARC
  5
1C2
100
AcDbEntity
  8
0
 62
     7
100
AcDbCircle
 10
237.978973
 20
32.027931
 30
0.0
 40
0.025
210
0.0
220
0.0
230
1.0
100
AcDbArc
 50
60.000003
 51
149.999997
  0
LINE
  5
1C3
100
AcDbEntity
  8
0
 62
     7
 48
0.074215
100
AcDbLine
 10
240.562347
 20
30.565281
 30
0.0
 11
237.99147
 21
32.049583
 31
0.0
210
0.0
220
0.0
230
1.0
  0
ARC
  5
1C4
100
AcDbEntity
  8
0
 62
     7
100
AcDbCircle
 10
210.852692
 20
46.043846
 30
0.0
 40
33.5
210
0.0
220
0.0
230
1.0
100
AcDbArc
 50
332.48074
 51
87.519267
  0
LINE
  5
1C5
100
AcDbEntity
  8
0
 62
     7
 48
0.074215
100
AcDbLine
 10
212.302689
 20
76.543846
 30
0.0
 11
212.302689
 21
79.512451
 31
0.0
210
0.0
220
0.0
230
1.0
  0
ARC
  5
1C6
100
AcDbEntity
  8
0
 62
     7
100
AcDbCircle
 10
212.277695
 20
76.543846
 30
0.0
 40
0.025
210
0.0
220
0.0
230
1.0
100
AcDbArc
 50
270.000001
 51
0.00001
  0
LINE
  5
1C7
100
AcDbEntity
  8
0
 62
     7
 48
0.07125
100
AcDbLine
 10
209.427689
 20
76.518845
 30
0.0
 11
212.277695
 21
76.518845
 31
0.0
210
0.0
220
0.0
230
1.0
  0
ARC
  5
1C8
100
AcDbEntity
  8
0
 62
     7
100
AcDbCircle
 10
209.427689
 20
76.543846
 30
0.0
 40
0.025
210
0.0
220
0.0
230
1.0
100
AcDbArc
 50
180.000005
 51
270.000001
  0
LINE
  5
1C9
100
AcDbEntity
  8
0
 62
     7
 48
0.074215
100
AcDbLine
 10
209.402695
 20
79.512451
 30
0.0
 11
209.402695
 21
76.543846
 31
0.0
210
0.0
220
0.0
230
1.0
  0
ARC
  5
1CA
100
AcDbEntity
  8
0
 62
     7
100
AcDbCircle
 10
210.852692
 20
46.043846
 30
0.0
 40
27.5
210
0.0
220
0.0
230
1.0
100
AcDbArc
 50
285.393963
 51
74.60603
  0
LINE
  5
1CB
100
AcDbEntity
  8
0
 62
     7
 48
0.078914
100
AcDbLine
 10
218.152695
 20
16.373892
 30
0.0
 11
218.152695
 21
19.530453
 31
0.0
210
0.0
220
0.0
230
1.0
  0
ARC
  5
1CC
100
AcDbEntity
  8
0
 62
     7
100
AcDbCircle
 10
218.127686
 20
16.373892
 30
0.0
 40
0.025
210
0.0
220
0.0
230
1.0
100
AcDbArc
 50
270.000001
 51
0.00001
  0
LINE
  5
1CD
100
AcDbEntity
  8
0
 62
     7
 48
0.07125
100
AcDbLine
 10
218.127686
 20
16.348892
 30
0.0
 11
215.277695
 21
16.348892
 31
0.0
210
0.0
220
0.0
230
1.0
  0
ARC
  5
1CE
100
AcDbEntity
  8
0
 62
     7
100
AcDbCircle
 10
215.277695
 20
16.373892
 30
0.0
 40
0.025
210
0.0
220
0.0
230
1.0
100
AcDbArc
 50
180.000005
 51
270.000001
  0
LINE
  5
1CF
100
AcDbEntity
  8
0
 62
     7
 48
0.063106
100
AcDbLine
 10
215.252686
 20
18.898129
 30
0.0
 11
215.252686
 21
16.373892
 31
0.0
210
0.0
220
0.0
230
1.0
  0
ARC
  5
1D0
100
AcDbEntity
  8
0
 62
     7
100
AcDbCircle
 10
210.852692
 20
46.043846
 30
0.0
 40
27.5
210
0.0
220
0.0
230
1.0
100
AcDbArc
 50
80.793105
 51
279.206905
  0
LINE
  5
1D1
100
AcDbEntity
  8
0
 62
     7
 48
0.063106
100
AcDbLine
 10
215.252686
 20
75.713799
 30
0.0
 11
215.252686
 21
73.18956
 31
0.0
210
0.0
220
0.0
230
1.0
  0
ARC
  5
1D2
100
AcDbEntity
  8
0
 62
     7
100
AcDbCircle
 10
215.277695
 20
75.713799
 30
0.0
 40
0.025
210
0.0
220
0.0
230
1.0
100
AcDbArc
 50
90.000003
 51
180.000005
  0
LINE
  5
1D3
100
AcDbEntity
  8
0
 62
     7
 48
0.07125
100
AcDbLine
 10
215.277695
 20
75.7388
 30
0.0
 11
218.127686
 21
75.7388
 31
0.0
210
0.0
220
0.0
230
1.0
  0
ARC
  5
1D4
100
AcDbEntity
  8
0
 62
     7
100
AcDbCircle
 10
218.127686
 20
75.713799
 30
0.0
 40
0.025
210
0.0
220
0.0
230
1.0
100
AcDbArc
 50
0.0
 51
90.000003
  0
LINE
  5
1D5
100
AcDbEntity
  8
0
 62
     7
 48
0.078914
100
AcDbLine
 10
218.152695
 20
72.557236
 30
0.0
 11
218.152695
 21
75.713799
 31
0.0
210
0.0
220
0.0
230
1.0
  0
LINE
  5
1D6
100
AcDbEntity
  8
0
 62
     7
 48
0.075625
100
AcDbLine
 10
5.980446
 20
53.319683
 30
0.0
 11
9.005446
 21
53.319683
 31
0.0
210
0.0
220
0.0
230
1.0
  0
ARC
  5
1D7
100
AcDbEntity
  8
0
 62
     7
100
AcDbCircle
 10
9.005446
 20
53.294682
 30
0.0
 40
0.025
210
0.0
220
0.0
230
1.0
100
AcDbArc
 50
0.0
 51
90.000003
  0
LINE
  5
1D8
100
AcDbEntity
  8
0
 62
     7
 48
0.035625
100
AcDbLine
 10
9.030446
 20
53.294682
 30
0.0
 11
9.030446
 21
51.869682
 31
0.0
210
0.0
220
0.0
230
1.0
  0
LINE
  5
1D9
100
AcDbEntity
  8
0
 62
     7
100
AcDbLine
 10
9.030446
 20
51.869682
 30
0.0
 11
68.183495
 21
51.869682
 31
0.0
210
0.0
220
0.0
230
1.0
  0
LINE
  5
1DA
100
AcDbEntity
  8
0
 62
     7
 48
0.035625
100
AcDbLine
 10
68.183495
 20
51.869682
 30
0.0
 11
68.183495
 21
53.294682
 31
0.0
210
0.0
220
0.0
230
1.0
  0
ARC
  5
1DB
100
AcDbEntity
  8
0
 62
     7
100
AcDbCircle
 10
68.208496
 20
53.294682
 30
0.0
 40
0.025
210
0.0
220
0.0
230
1.0
100
AcDbArc
 50
90.000003
 51
180.000005
  0
LINE
  5
1DC
100
AcDbEntity
  8
0
 62
     7
 48
0.075625
100
AcDbLine
 10
68.208496
 20
53.319683
 30
0.0
 11
71.23349
 21
53.319683
 31
0.0
210
0.0
220
0.0
230
1.0
  0
LINE
  5
1DD
100
AcDbEntity
  8
0
 62
     7
 48
0.21625
100
AcDbLine
 10
71.23349
 20
53.319683
 30
0.0
 11
71.23349
 21
61.969681
 31
0.0
210
0.0
220
0.0
230
1.0
  0
LINE
  5
1DE
100
AcDbEntity
  8
0
 62
     7
 48
0.075625
100
AcDbLine
 10
71.23349
 20
61.969681
 30
0.0
 11
68.208496
 21
61.969681
 31
0.0
210
0.0
220
0.0
230
1.0
  0
ARC
  5
1DF
100
AcDbEntity
  8
0
 62
     7
100
AcDbCircle
 10
68.208496
 20
61.994682
 30
0.0
 40
0.025
210
0.0
220
0.0
230
1.0
100
AcDbArc
 50
180.000005
 51
270.000001
  0
LINE
  5
1E0
100
AcDbEntity
  8
0
 62
     7
 48
0.071875
100
AcDbLine
 10
68.183495
 20
61.994682
 30
0.0
 11
68.183495
 21
64.869682
 31
0.0
210
0.0
220
0.0
230
1.0
  0
LINE
  5
1E1
100
AcDbEntity
  8
0
 62
     7
100
AcDbLine
 10
68.183495
 20
64.869682
 30
0.0
 11
9.030446
 21
64.869682
 31
0.0
210
0.0
220
0.0
230
1.0
  0
LINE
  5
1E2
100
AcDbEntity
  8
0
 62
     7
 48
0.071875
100
AcDbLine
 10
9.030446
 20
64.869682
 30
0.0
 11
9.030446
 21
61.994682
 31
0.0
210
0.0
220
0.0
230
1.0
  0
ARC
  5
1E3
100
AcDbEntity
  8
0
 62
     7
100
AcDbCircle
 10
9.005446
 20
61.994682
 30
0.0
 40
0.025
210
0.0
220
0.0
230
1.0
100
AcDbArc
 50
270.000001
 51
0.00001
  0
LINE
  5
1E4
100
AcDbEntity
  8
0
 62
     7
 48
0.075625
100
AcDbLine
 10
9.005446
 20
61.969681
 30
0.0
 11
5.980446
 21
61.969681
 31
0.0
210
0.0
220
0.0
230
1.0
  0
LINE
  5
1E5
100
AcDbEntity
  8
0
 62
     7
 48
0.21625
100
AcDbLine
 10
5.980446
 20
61.969681
 30
0.0
 11
5.980446
 21
53.319683
 31
0.0
210
0.0
220
0.0
230
1.0
  0
ARC
  5
1E6
100
AcDbEntity
  8
0
 62
     7
100
AcDbCircle
 10
29.446699
 20
51.869682
 30
0.0
 40
2.0
210
0.0
220
0.0
230
1.0
100
AcDbArc
 50
90.000003
 51
94.873944
  0
ARC
  5
1E7
100
AcDbEntity
  8
0
 62
     7
100
AcDbCircle
 10
29.274647
 20
53.88736
 30
0.0
 40
0.025
210
0.0
220
0.0
230
1.0
100
AcDbArc
 50
175.12605
 51
274.873942
  0
ARC
  5
1E8
100
AcDbEntity
  8
0
 62
     7
100
AcDbCircle
 10
27.256969
 20
54.05941
 30
0.0
 40
2.0
210
0.0
220
0.0
230
1.0
100
AcDbArc
 50
355.126042
 51
0.00001
  0
LINE
  5
1E9
100
AcDbEntity
  8
0
 62
     7
 48
0.215514
100
AcDbLine
 10
29.256969
 20
62.679955
 30
0.0
 11
29.256969
 21
54.05941
 31
0.0
210
0.0
220
0.0
230
1.0
  0
ARC
  5
1EA
100
AcDbEntity
  8
0
 62
     7
100
AcDbCircle
 10
27.256969
 20
62.679955
 30
0.0
 40
2.0
210
0.0
220
0.0
230
1.0
100
AcDbArc
 50
0.0
 51
4.873946
  0
ARC
  5
1EB
100
AcDbEntity
  8
0
 62
     7
100
AcDbCircle
 10
29.274647
 20
62.852005
 30
0.0
 40
0.025
210
0.0
220
0.0
230
1.0
100
AcDbArc
 50
85.126055
 51
184.873946
  0
ARC
  5
1EC
100
AcDbEntity
  8
0
 62
     7
100
AcDbCircle
 10
29.446699
 20
64.869682
 30
0.0
 40
2.0
210
0.0
220
0.0
230
1.0
100
AcDbArc
 50
265.12606
 51
270.000001
  0
LINE
  5
1ED
100
AcDbEntity
  8
0
 62
     7
 48
0.490513
100
AcDbLine
 10
49.067238
 20
62.869682
 30
0.0
 11
29.446699
 21
62.869682
 31
0.0
210
0.0
220
0.0
230
1.0
  0
ARC
  5
1EE
100
AcDbEntity
  8
0
 62
     7
100
AcDbCircle
 10
49.067238
 20
64.869682
 30
0.0
 40
2.0
210
0.0
220
0.0
230
1.0
100
AcDbArc
 50
270.000001
 51
274.873942
  0
ARC
  5
1EF
100
AcDbEntity
  8
0
 62
     7
100
AcDbCircle
 10
49.239292
 20
62.852005
 30
0.0
 40
0.025
210
0.0
220
0.0
230
1.0
100
AcDbArc
 50
355.126042
 51
94.873933
  0
ARC
  5
1F0
100
AcDbEntity
  8
0
 62
     7
100
AcDbCircle
 10
51.256969
 20
62.679955
 30
0.0
 40
2.0
210
0.0
220
0.0
230
1.0
100
AcDbArc
 50
175.12605
 51
180.000005
  0
LINE
  5
1F1
100
AcDbEntity
  8
0
 62
     7
 48
0.215514
100
AcDbLine
 10
49.256969
 20
54.05941
 30
0.0
 11
49.256969
 21
62.679955
 31
0.0
210
0.0
220
0.0
230
1.0
  0
ARC
  5
1F2
100
AcDbEntity
  8
0
 62
     7
100
AcDbCircle
 10
51.256969
 20
54.05941
 30
0.0
 40
2.0
210
0.0
220
0.0
230
1.0
100
AcDbArc
 50
180.000005
 51
184.873946
  0
ARC
  5
1F3
100
AcDbEntity
  8
0
 62
     7
100
AcDbCircle
 10
49.239292
 20
53.88736
 30
0.0
 40
0.025
210
0.0
220
0.0
230
1.0
100
AcDbArc
 50
265.12606
 51
4.873951
  0
ARC
  5
1F4
100
AcDbEntity
  8
0
 62
     7
100
AcDbCircle
 10
49.067238
 20
51.869682
 30
0.0
 40
2.0
210
0.0
220
0.0
230
1.0
100
AcDbArc
 50
85.126055
 51
90.000003
  0
LINE
  5
1F5
100
AcDbEntity
  8
0
 62
     7
 48
0.490513
100
AcDbLine
 10
29.446699
 20
53.869682
 30
0.0
 11
49.067238
 21
53.869682
 31
0.0
210
0.0
220
0.0
230
1.0
  0
LINE
  5
1F6
100
AcDbEntity
  8
0
 62
     7
 48
0.05
100
AcDbLine
 10
16.030447
 20
53.869682
 30
0.0
 11
14.030447
 21
53.869682
 31
0.0
210
0.0
220
0.0
230
1.0
  0
LINE
  5
1F7
100
AcDbEntity
  8
0
 62
     7
 48
0.05
100
AcDbLine
 10
14.030447
 20
53.869682
 30
0.0
 11
14.030447
 21
55.869682
 31
0.0
210
0.0
220
0.0
230
1.0
  0
LINE
  5
1F8
100
AcDbEntity
  8
0
 62
     7
 48
0.070711
100
AcDbLine
 10
14.030447
 20
55.869682
 30
0.0
 11
16.030447
 21
53.869682
 31
0.0
210
0.0
220
0.0
230
1.0
  0
LINE
  5
1F9
100
AcDbEntity
  8
0
 62
     7
 48
0.075625
100
AcDbLine
 10
78.339767
 20
55.241135
 30
0.0
 11
81.364769
 21
55.241135
 31
0.0
210
0.0
220
0.0
230
1.0
  0
ARC
  5
1FA
100
AcDbEntity
  8
0
 62
     7
100
AcDbCircle
 10
81.364769
 20
55.216133
 30
0.0
 40
0.025
210
0.0
220
0.0
230
1.0
100
AcDbArc
 50
0.0
 51
90.000003
  0
LINE
  5
1FB
100
AcDbEntity
  8
0
 62
     7
 48
0.071875
100
AcDbLine
 10
81.389771
 20
55.216133
 30
0.0
 11
81.389771
 21
52.341133
 31
0.0
210
0.0
220
0.0
230
1.0
  0
LINE
  5
1FC
100
AcDbEntity
  8
0
 62
     7
100
AcDbLine
 10
81.389771
 20
52.341133
 30
0.0
 11
140.495911
 21
52.341133
 31
0.0
210
0.0
220
0.0
230
1.0
  0
LINE
  5
1FD
100
AcDbEntity
  8
0
 62
     7
 48
0.071875
100
AcDbLine
 10
140.495911
 20
52.341133
 30
0.0
 11
140.495911
 21
55.216133
 31
0.0
210
0.0
220
0.0
230
1.0
  0
ARC
  5
1FE
100
AcDbEntity
  8
0
 62
     7
100
AcDbCircle
 10
140.520905
 20
55.216133
 30
0.0
 40
0.025
210
0.0
220
0.0
230
1.0
100
AcDbArc
 50
90.000003
 51
180.000005
  0
LINE
  5
1FF
100
AcDbEntity
  8
0
 62
     7
 48
0.075625
100
AcDbLine
 10
140.520905
 20
55.241135
 30
0.0
 11
143.545898
 21
55.241135
 31
0.0
210
0.0
220
0.0
230
1.0
  0
LINE
  5
200
100
AcDbEntity
  8
0
 62
     7
 48
0.21625
100
AcDbLine
 10
143.545898
 20
55.241135
 30
0.0
 11
143.545898
 21
63.891132
 31
0.0
210
0.0
220
0.0
230
1.0
  0
LINE
  5
201
100
AcDbEntity
  8
0
 62
     7
 48
0.075625
100
AcDbLine
 10
143.545898
 20
63.891132
 30
0.0
 11
140.520905
 21
63.891132
 31
0.0
210
0.0
220
0.0
230
1.0
  0
ARC
  5
202
100
AcDbEntity
  8
0
 62
     7
100
AcDbCircle
 10
140.520905
 20
63.916134
 30
0.0
 40
0.025
210
0.0
220
0.0
230
1.0
100
AcDbArc
 50
180.000005
 51
270.000001
  0
LINE
  5
203
100
AcDbEntity
  8
0
 62
     7
 48
0.035625
100
AcDbLine
 10
140.495911
 20
63.916134
 30
0.0
 11
140.495911
 21
65.341133
 31
0.0
210
0.0
220
0.0
230
1.0
  0
LINE
  5
204
100
AcDbEntity
  8
0
 62
     7
100
AcDbLine
 10
140.495911
 20
65.341133
 30
0.0
 11
81.389771
 21
65.341133
 31
0.0
210
0.0
220
0.0
230
1.0
  0
LINE
  5
205
100
AcDbEntity
  8
0
 62
     7
 48
0.035625
100
AcDbLine
 10
81.389771
 20
65.341133
 30
0.0
 11
81.389771
 21
63.916134
 31
0.0
210
0.0
220
0.0
230
1.0
  0
ARC
  5
206
100
AcDbEntity
  8
0
 62
     7
100
AcDbCircle
 10
81.364769
 20
63.916134
 30
0.0
 40
0.025
210
0.0
220
0.0
230
1.0
100
AcDbArc
 50
270.000001
 51
0.00001
  0
LINE
  5
207
100
AcDbEntity
  8
0
 62
     7
 48
0.075625
100
AcDbLine
 10
81.364769
 20
63.891132
 30
0.0
 11
78.339767
 21
63.891132
 31
0.0
210
0.0
220
0.0
230
1.0
  0
LINE
  5
208
100
AcDbEntity
  8
0
 62
     7
 48
0.21625
100
AcDbLine
 10
78.339767
 20
63.891132
 30
0.0
 11
78.339767
 21
55.241135
 31
0.0
210
0.0
220
0.0
230
1.0
  0
ARC
  5
209
100
AcDbEntity
  8
0
 62
     7
100
AcDbCircle
 10
99.882568
 20
52.341133
 30
0.0
 40
2.0
210
0.0
220
0.0
230
1.0
100
AcDbArc
 50
90.000003
 51
94.873944
  0
ARC
  5
20A
100
AcDbEntity
  8
0
 62
     7
100
AcDbCircle
 10
99.71051
 20
54.35881
 30
0.0
 40
0.025
210
0.0
220
0.0
230
1.0
100
AcDbArc
 50
175.12605
 51
274.873942
  0
ARC
  5
20B
100
AcDbEntity
  8
0
 62
     7
100
AcDbCircle
 10
97.692833
 20
54.530861
 30
0.0
 40
2.0
210
0.0
220
0.0
230
1.0
100
AcDbArc
 50
355.126042
 51
0.00001
  0
LINE
  5
20C
100
AcDbEntity
  8
0
 62
     7
 48
0.215514
100
AcDbLine
 10
99.692833
 20
63.151405
 30
0.0
 11
99.692833
 21
54.530861
 31
0.0
210
0.0
220
0.0
230
1.0
  0
ARC
  5
20D
100
AcDbEntity
  8
0
 62
     7
100
AcDbCircle
 10
97.692833
 20
63.151405
 30
0.0
 40
2.0
210
0.0
220
0.0
230
1.0
100
AcDbArc
 50
0.00001
 51
4.873951
  0
ARC
  5
20E
100
AcDbEntity
  8
0
 62
     7
100
AcDbCircle
 10
99.71051
 20
63.323456
 30
0.0
 40
0.025
210
0.0
220
0.0
230
1.0
100
AcDbArc
 50
85.126055
 51
184.873946
  0
ARC
  5
20F
100
AcDbEntity
  8
0
 62
     7
100
AcDbCircle
 10
99.882568
 20
65.341133
 30
0.0
 40
2.0
210
0.0
220
0.0
230
1.0
100
AcDbArc
 50
265.12606
 51
270.000001
  0
LINE
  5
210
100
AcDbEntity
  8
0
 62
     7
 48
0.490513
100
AcDbLine
 10
119.503105
 20
63.341133
 30
0.0
 11
99.882568
 21
63.341133
 31
0.0
210
0.0
220
0.0
230
1.0
  0
ARC
  5
211
100
AcDbEntity
  8
0
 62
     7
100
AcDbCircle
 10
119.503105
 20
65.341133
 30
0.0
 40
2.0
210
0.0
220
0.0
230
1.0
100
AcDbArc
 50
270.000001
 51
274.873942
  0
ARC
  5
212
100
AcDbEntity
  8
0
 62
     7
100
AcDbCircle
 10
119.675156
 20
63.323456
 30
0.0
 40
0.025
210
0.0
220
0.0
230
1.0
100
AcDbArc
 50
355.126042
 51
94.873933
  0
ARC
  5
213
100
AcDbEntity
  8
0
 62
     7
100
AcDbCircle
 10
121.692833
 20
63.151405
 30
0.0
 40
2.0
210
0.0
220
0.0
230
1.0
100
AcDbArc
 50
175.12605
 51
180.000005
  0
LINE
  5
214
100
AcDbEntity
  8
0
 62
     7
 48
0.215514
100
AcDbLine
 10
119.692833
 20
54.530861
 30
0.0
 11
119.692833
 21
63.151405
 31
0.0
210
0.0
220
0.0
230
1.0
  0
ARC
  5
215
100
AcDbEntity
  8
0
 62
     7
100
AcDbCircle
 10
121.692833
 20
54.530861
 30
0.0
 40
2.0
210
0.0
220
0.0
230
1.0
100
AcDbArc
 50
180.000005
 51
184.873946
  0
ARC
  5
216
100
AcDbEntity
  8
0
 62
     7
100
AcDbCircle
 10
119.675156
 20
54.35881
 30
0.0
 40
0.025
210
0.0
220
0.0
230
1.0
100
AcDbArc
 50
265.12606
 51
4.873951
  0
ARC
  5
217
100
AcDbEntity
  8
0
 62
     7
100
AcDbCircle
 10
119.503105
 20
52.341133
 30
0.0
 40
2.0
210
0.0
220
0.0
230
1.0
100
AcDbArc
 50
85.126055
 51
90.000003
  0
LINE
  5
218
100
AcDbEntity
  8
0
 62
     7
 48
0.490513
100
AcDbLine
 10
99.882568
 20
54.341133
 30
0.0
 11
119.503105
 21
54.341133
 31
0.0
210
0.0
220
0.0
230
1.0
  0
LINE
  5
219
100
AcDbEntity
  8
0
 62
     7
 48
0.05
100
AcDbLine
 10
86.389771
 20
54.341133
 30
0.0
 11
86.389771
 21
56.341133
 31
0.0
210
0.0
220
0.0
230
1.0
  0
LINE
  5
21A
100
AcDbEntity
  8
0
 62
     7
 48
0.070711
100
AcDbLine
 10
86.389771
 20
56.341133
 30
0.0
 11
88.389771
 21
54.341133
 31
0.0
210
0.0
220
0.0
230
1.0
  0
LINE
  5
21B
100
AcDbEntity
  8
0
 62
     7
 48
0.05
100
AcDbLine
 10
88.389771
 20
54.341133
 30
0.0
 11
86.389771
 21
54.341133
 31
0.0
210
0.0
220
0.0
230
1.0
  0
CIRCLE
  5
21C
100
AcDbEntity
  8
0
 62
     7
100
AcDbCircle
 10
85.314117
 20
41.580151
 30
0.0
 40
1.375
210
0.0
220
0.0
230
1.0
  0
LINE
  5
21D
100
AcDbEntity
  8
0
 62
     7
 48
0.07625
100
AcDbLine
 10
92.314117
 20
43.030151
 30
0.0
 11
92.314117
 21
46.080151
 31
0.0
210
0.0
220
0.0
230
1.0
  0
LINE
  5
21E
100
AcDbEntity
  8
0
 62
     7
 48
0.060436
100
AcDbLine
 10
92.314117
 20
46.080151
 30
0.0
 11
89.89669
 21
46.080151
 31
0.0
210
0.0
220
0.0
230
1.0
  0
ARC
  5
21F
100
AcDbEntity
  8
0
 62
     7
100
AcDbCircle
 10
89.89669
 20
51.580151
 30
0.0
 40
5.5
210
0.0
220
0.0
230
1.0
100
AcDbArc
 50
245.38001
 51
270.000001
  0
ARC
  5
220
100
AcDbEntity
  8
0
 62
     7
100
AcDbCircle
 10
85.314117
 20
41.580151
 30
0.0
 40
5.5
210
0.0
220
0.0
230
1.0
100
AcDbArc
 50
65.380025
 51
114.619973
  0
ARC
  5
221
100
AcDbEntity
  8
0
 62
     7
100
AcDbCircle
 10
80.731544
 20
51.580151
 30
0.0
 40
5.5
210
0.0
220
0.0
230
1.0
100
AcDbArc
 50
270.000001
 51
294.619964
  0
LINE
  5
222
100
AcDbEntity
  8
0
 62
     7
 48
0.060436
100
AcDbLine
 10
78.314117
 20
46.080151
 30
0.0
 11
80.731544
 21
46.080151
 31
0.0
210
0.0
220
0.0
230
1.0
  0
LINE
  5
223
100
AcDbEntity
  8
0
 62
     7
 48
0.07625
100
AcDbLine
 10
78.314117
 20
43.030151
 30
0.0
 11
78.314117
 21
46.080151
 31
0.0
210
0.0
220
0.0
230
1.0
  0
LINE
  5
224
100
AcDbEntity
  8
0
 62
     7
 48
0.075
100
AcDbLine
 10
78.314117
 20
43.030151
 30
0.0
 11
81.314117
 21
43.030151
 31
0.0
210
0.0
220
0.0
230
1.0
  0
ARC
  5
225
100
AcDbEntity
  8
0
 62
     7
100
AcDbCircle
 10
81.314117
 20
43.00515
 30
0.0
 40
0.025
210
0.0
220
0.0
230
1.0
100
AcDbArc
 50
0.0
 51
90.000003
  0
LINE
  5
226
100
AcDbEntity
  8
0
 62
     7
 48
0.07125
100
AcDbLine
 10
81.339119
 20
43.00515
 30
0.0
 11
81.339119
 21
40.155151
 31
0.0
210
0.0
220
0.0
230
1.0
  0
ARC
  5
227
100
AcDbEntity
  8
0
 62
     7
100
AcDbCircle
 10
81.314117
 20
40.155151
 30
0.0
 40
0.025
210
0.0
220
0.0
230
1.0
100
AcDbArc
 50
270.000001
 51
0.00001
  0
LINE
  5
228
100
AcDbEntity
  8
0
 62
     7
 48
0.075
100
AcDbLine
 10
81.314117
 20
40.13015
 30
0.0
 11
78.314117
 21
40.13015
 31
0.0
210
0.0
220
0.0
230
1.0
  0
LINE
  5
229
100
AcDbEntity
  8
0
 62
     7
 48
0.07625
100
AcDbLine
 10
78.314117
 20
40.13015
 30
0.0
 11
78.314117
 21
37.080151
 31
0.0
210
0.0
220
0.0
230
1.0
  0
LINE
  5
22A
100
AcDbEntity
  8
0
 62
     7
 48
0.060436
100
AcDbLine
 10
78.314117
 20
37.080151
 30
0.0
 11
80.731544
 21
37.080151
 31
0.0
210
0.0
220
0.0
230
1.0
  0
ARC
  5
22B
100
AcDbEntity
  8
0
 62
     7
100
AcDbCircle
 10
80.731544
 20
31.580151
 30
0.0
 40
5.5
210
0.0
220
0.0
230
1.0
100
AcDbArc
 50
65.380025
 51
90.000003
  0
ARC
  5
22C
100
AcDbEntity
  8
0
 62
     7
100
AcDbCircle
 10
85.314117
 20
41.580151
 30
0.0
 40
5.5
210
0.0
220
0.0
230
1.0
100
AcDbArc
 50
245.38001
 51
294.619964
  0
ARC
  5
22D
100
AcDbEntity
  8
0
 62
     7
100
AcDbCircle
 10
89.89669
 20
31.580151
 30
0.0
 40
5.5
210
0.0
220
0.0
230
1.0
100
AcDbArc
 50
90.000003
 51
114.619973
  0
LINE
  5
22E
100
AcDbEntity
  8
0
 62
     7
 48
0.060436
100
AcDbLine
 10
92.314117
 20
37.080151
 30
0.0
 11
89.89669
 21
37.080151
 31
0.0
210
0.0
220
0.0
230
1.0
  0
LINE
  5
22F
100
AcDbEntity
  8
0
 62
     7
 48
0.07625
100
AcDbLine
 10
92.314117
 20
40.13015
 30
0.0
 11
92.314117
 21
37.080151
 31
0.0
210
0.0
220
0.0
230
1.0
  0
LINE
  5
230
100
AcDbEntity
  8
0
 62
     7
 48
0.075
100
AcDbLine
 10
89.314117
 20
40.13015
 30
0.0
 11
92.314117
 21
40.13015
 31
0.0
210
0.0
220
0.0
230
1.0
  0
ARC
  5
231
100
AcDbEntity
  8
0
 62
     7
100
AcDbCircle
 10
89.314117
 20
40.155151
 30
0.0
 40
0.025
210
0.0
220
0.0
230
1.0
100
AcDbArc
 50
180.000005
 51
270.000001
  0
LINE
  5
232
100
AcDbEntity
  8
0
 62
     7
 48
0.07125
100
AcDbLine
 10
89.289116
 20
43.00515
 30
0.0
 11
89.289116
 21
40.155151
 31
0.0
210
0.0
220
0.0
230
1.0
  0
ARC
  5
233
100
AcDbEntity
  8
0
 62
     7
100
AcDbCircle
 10
89.314117
 20
43.00515
 30
0.0
 40
0.025
210
0.0
220
0.0
230
1.0
100
AcDbArc
 50
90.000003
 51
180.000005
  0
LINE
  5
234
100
AcDbEntity
  8
0
 62
     7
 48
0.075
100
AcDbLine
 10
92.314117
 20
43.030151
 30
0.0
 11
89.314117
 21
43.030151
 31
0.0
210
0.0
220
0.0
230
1.0
  0
CIRCLE
  5
235
100
AcDbEntity
  8
0
 62
     7
100
AcDbCircle
 10
104.352776
 20
41.595848
 30
0.0
 40
1.375
210
0.0
220
0.0
230
1.0
  0
LINE
  5
236
100
AcDbEntity
  8
0
 62
     7
 48
0.07625
100
AcDbLine
 10
111.352776
 20
43.045849
 30
0.0
 11
111.352776
 21
46.095848
 31
0.0
210
0.0
220
0.0
230
1.0
  0
LINE
  5
237
100
AcDbEntity
  8
0
 62
     7
 48
0.060436
100
AcDbLine
 10
111.352776
 20
46.095848
 30
0.0
 11
108.935349
 21
46.095848
 31
0.0
210
0.0
220
0.0
230
1.0
  0
ARC
  5
238
100
AcDbEntity
  8
0
 62
     7
100
AcDbCircle
 10
108.935349
 20
51.595848
 30
0.0
 40
5.5
210
0.0
220
0.0
230
1.0
100
AcDbArc
 50
245.38001
 51
270.000001
  0
ARC
  5
239
100
AcDbEntity
  8
0
 62
     7
100
AcDbCircle
 10
104.352776
 20
41.595848
 30
0.0
 40
5.5
210
0.0
220
0.0
230
1.0
100
AcDbArc
 50
65.380025
 51
114.619973
  0
ARC
  5
23A
100
AcDbEntity
  8
0
 62
     7
100
AcDbCircle
 10
99.770203
 20
51.595848
 30
0.0
 40
5.5
210
0.0
220
0.0
230
1.0
100
AcDbArc
 50
270.000001
 51
294.619964
  0
LINE
  5
23B
100
AcDbEntity
  8
0
 62
     7
 48
0.060436
100
AcDbLine
 10
97.352776
 20
46.095848
 30
0.0
 11
99.770203
 21
46.095848
 31
0.0
210
0.0
220
0.0
230
1.0
  0
LINE
  5
23C
100
AcDbEntity
  8
0
 62
     7
 48
0.07625
100
AcDbLine
 10
97.352776
 20
43.045849
 30
0.0
 11
97.352776
 21
46.095848
 31
0.0
210
0.0
220
0.0
230
1.0
  0
LINE
  5
23D
100
AcDbEntity
  8
0
 62
     7
 48
0.075
100
AcDbLine
 10
97.352776
 20
43.045849
 30
0.0
 11
100.352776
 21
43.045849
 31
0.0
210
0.0
220
0.0
230
1.0
  0
ARC
  5
23E
100
AcDbEntity
  8
0
 62
     7
100
AcDbCircle
 10
100.352776
 20
43.020847
 30
0.0
 40
0.025
210
0.0
220
0.0
230
1.0
100
AcDbArc
 50
0.0
 51
90.000003
  0
LINE
  5
23F
100
AcDbEntity
  8
0
 62
     7
 48
0.07125
100
AcDbLine
 10
100.377777
 20
43.020847
 30
0.0
 11
100.377777
 21
40.170849
 31
0.0
210
0.0
220
0.0
230
1.0
  0
ARC
  5
240
100
AcDbEntity
  8
0
 62
     7
100
AcDbCircle
 10
100.352776
 20
40.170849
 30
0.0
 40
0.025
210
0.0
220
0.0
230
1.0
100
AcDbArc
 50
270.000001
 51
0.00001
  0
LINE
  5
241
100
AcDbEntity
  8
0
 62
     7
 48
0.075
100
AcDbLine
 10
100.352776
 20
40.145847
 30
0.0
 11
97.352776
 21
40.145847
 31
0.0
210
0.0
220
0.0
230
1.0
  0
LINE
  5
242
100
AcDbEntity
  8
0
 62
     7
 48
0.07625
100
AcDbLine
 10
97.352776
 20
40.145847
 30
0.0
 11
97.352776
 21
37.095848
 31
0.0
210
0.0
220
0.0
230
1.0
  0
LINE
  5
243
100
AcDbEntity
  8
0
 62
     7
 48
0.060436
100
AcDbLine
 10
97.352776
 20
37.095848
 30
0.0
 11
99.770203
 21
37.095848
 31
0.0
210
0.0
220
0.0
230
1.0
  0
ARC
  5
244
100
AcDbEntity
  8
0
 62
     7
100
AcDbCircle
 10
99.770203
 20
31.595848
 30
0.0
 40
5.5
210
0.0
220
0.0
230
1.0
100
AcDbArc
 50
65.380025
 51
90.000003
  0
ARC
  5
245
100
AcDbEntity
  8
0
 62
     7
100
AcDbCircle
 10
104.352776
 20
41.595848
 30
0.0
 40
5.5
210
0.0
220
0.0
230
1.0
100
AcDbArc
 50
245.38001
 51
294.619964
  0
ARC
  5
246
100
AcDbEntity
  8
0
 62
     7
100
AcDbCircle
 10
108.935349
 20
31.595848
 30
0.0
 40
5.5
210
0.0
220
0.0
230
1.0
100
AcDbArc
 50
90.000003
 51
114.619973
  0
LINE
  5
247
100
AcDbEntity
  8
0
 62
     7
 48
0.060436
100
AcDbLine
 10
111.352776
 20
37.095848
 30
0.0
 11
108.935349
 21
37.095848
 31
0.0
210
0.0
220
0.0
230
1.0
  0
LINE
  5
248
100
AcDbEntity
  8
0
 62
     7
 48
0.07625
100
AcDbLine
 10
111.352776
 20
40.145847
 30
0.0
 11
111.352776
 21
37.095848
 31
0.0
210
0.0
220
0.0
230
1.0
  0
LINE
  5
249
100
AcDbEntity
  8
0
 62
     7
 48
0.075
100
AcDbLine
 10
108.352776
 20
40.145847
 30
0.0
 11
111.352776
 21
40.145847
 31
0.0
210
0.0
220
0.0
230
1.0
  0
ARC
  5
24A
100
AcDbEntity
  8
0
 62
     7
100
AcDbCircle
 10
108.352776
 20
40.170849
 30
0.0
 40
0.025
210
0.0
220
0.0
230
1.0
100
AcDbArc
 50
180.000005
 51
270.000001
  0
LINE
  5
24B
100
AcDbEntity
  8
0
 62
     7
 48
0.07125
100
AcDbLine
 10
108.327774
 20
43.020847
 30
0.0
 11
108.327774
 21
40.170849
 31
0.0
210
0.0
220
0.0
230
1.0
  0
ARC
  5
24C
100
AcDbEntity
  8
0
 62
     7
100
AcDbCircle
 10
108.352776
 20
43.020847
 30
0.0
 40
0.025
210
0.0
220
0.0
230
1.0
100
AcDbArc
 50
90.000003
 51
180.000005
  0
LINE
  5
24D
100
AcDbEntity
  8
0
 62
     7
 48
0.075
100
AcDbLine
 10
111.352776
 20
43.045849
 30
0.0
 11
108.352776
 21
43.045849
 31
0.0
210
0.0
220
0.0
230
1.0
  0
CIRCLE
  5
24E
100
AcDbEntity
  8
0
 62
     7
100
AcDbCircle
 10
139.128998
 20
41.693687
 30
0.0
 40
1.375
210
0.0
220
0.0
230
1.0
  0
LINE
  5
24F
100
AcDbEntity
  8
0
 62
     7
 48
0.07625
100
AcDbLine
 10
146.128998
 20
43.143688
 30
0.0
 11
146.128998
 21
46.193687
 31
0.0
210
0.0
220
0.0
230
1.0
  0
LINE
  5
250
100
AcDbEntity
  8
0
 62
     7
 48
0.060435
100
AcDbLine
 10
146.128998
 20
46.193687
 30
0.0
 11
143.711578
 21
46.193687
 31
0.0
210
0.0
220
0.0
230
1.0
  0
ARC
  5
251
100
AcDbEntity
  8
0
 62
     7
100
AcDbCircle
 10
143.711578
 20
51.693687
 30
0.0
 40
5.5
210
0.0
220
0.0
230
1.0
100
AcDbArc
 50
245.38001
 51
270.000001
  0
ARC
  5
252
100
AcDbEntity
  8
0
 62
     7
100
AcDbCircle
 10
139.128998
 20
41.693687
 30
0.0
 40
5.5
210
0.0
220
0.0
230
1.0
100
AcDbArc
 50
65.380025
 51
114.619973
  0
ARC
  5
253
100
AcDbEntity
  8
0
 62
     7
100
AcDbCircle
 10
134.546417
 20
51.693687
 30
0.0
 40
5.5
210
0.0
220
0.0
230
1.0
100
AcDbArc
 50
270.000001
 51
294.619964
  0
LINE
  5
254
100
AcDbEntity
  8
0
 62
     7
 48
0.060435
100
AcDbLine
 10
132.128998
 20
46.193687
 30
0.0
 11
134.546417
 21
46.193687
 31
0.0
210
0.0
220
0.0
230
1.0
  0
LINE
  5
255
100
AcDbEntity
  8
0
 62
     7
 48
0.07625
100
AcDbLine
 10
132.128998
 20
43.143688
 30
0.0
 11
132.128998
 21
46.193687
 31
0.0
210
0.0
220
0.0
230
1.0
  0
LINE
  5
256
100
AcDbEntity
  8
0
 62
     7
 48
0.075
100
AcDbLine
 10
132.128998
 20
43.143688
 30
0.0
 11
135.128998
 21
43.143688
 31
0.0
210
0.0
220
0.0
230
1.0
  0
ARC
  5
257
100
AcDbEntity
  8
0
 62
     7
100
AcDbCircle
 10
135.128998
 20
43.118687
 30
0.0
 40
0.025
210
0.0
220
0.0
230
1.0
100
AcDbArc
 50
0.0
 51
90.000003
  0
LINE
  5
258
100
AcDbEntity
  8
0
 62
     7
 48
0.07125
100
AcDbLine
 10
135.153992
 20
43.118687
 30
0.0
 11
135.153992
 21
40.268688
 31
0.0
210
0.0
220
0.0
230
1.0
  0
ARC
  5
259
100
AcDbEntity
  8
0
 62
     7
100
AcDbCircle
 10
135.128998
 20
40.268688
 30
0.0
 40
0.025
210
0.0
220
0.0
230
1.0
100
AcDbArc
 50
270.000001
 51
0.00001
  0
LINE
  5
25A
100
AcDbEntity
  8
0
 62
     7
 48
0.075
100
AcDbLine
 10
135.128998
 20
40.243687
 30
0.0
 11
132.128998
 21
40.243687
 31
0.0
210
0.0
220
0.0
230
1.0
  0
LINE
  5
25B
100
AcDbEntity
  8
0
 62
     7
 48
0.07625
100
AcDbLine
 10
132.128998
 20
40.243687
 30
0.0
 11
132.128998
 21
37.193687
 31
0.0
210
0.0
220
0.0
230
1.0
  0
LINE
  5
25C
100
AcDbEntity
  8
0
 62
     7
 48
0.060435
100
AcDbLine
 10
132.128998
 20
37.193687
 30
0.0
 11
134.546417
 21
37.193687
 31
0.0
210
0.0
220
0.0
230
1.0
  0
ARC
  5
25D
100
AcDbEntity
  8
0
 62
     7
100
AcDbCircle
 10
134.546417
 20
31.693687
 30
0.0
 40
5.5
210
0.0
220
0.0
230
1.0
100
AcDbArc
 50
65.380025
 51
90.000003
  0
ARC
  5
25E
100
AcDbEntity
  8
0
 62
     7
100
AcDbCircle
 10
139.128998
 20
41.693687
 30
0.0
 40
5.5
210
0.0
220
0.0
230
1.0
100
AcDbArc
 50
245.38001
 51
294.619964
  0
ARC
  5
25F
100
AcDbEntity
  8
0
 62
     7
100
AcDbCircle
 10
143.711578
 20
31.693687
 30
0.0
 40
5.5
210
0.0
220
0.0
230
1.0
100
AcDbArc
 50
90.000003
 51
114.619973
  0
LINE
  5
260
100
AcDbEntity
  8
0
 62
     7
 48
0.060435
100
AcDbLine
 10
146.128998
 20
37.193687
 30
0.0
 11
143.711578
 21
37.193687
 31
0.0
210
0.0
220
0.0
230
1.0
  0
LINE
  5
261
100
AcDbEntity
  8
0
 62
     7
 48
0.07625
100
AcDbLine
 10
146.128998
 20
40.243687
 30
0.0
 11
146.128998
 21
37.193687
 31
0.0
210
0.0
220
0.0
230
1.0
  0
LINE
  5
262
100
AcDbEntity
  8
0
 62
     7
 48
0.075
100
AcDbLine
 10
143.128998
 20
40.243687
 30
0.0
 11
146.128998
 21
40.243687
 31
0.0
210
0.0
220
0.0
230
1.0
  0
ARC
  5
263
100
AcDbEntity
  8
0
 62
     7
100
AcDbCircle
 10
143.128998
 20
40.268688
 30
0.0
 40
0.025
210
0.0
220
0.0
230
1.0
100
AcDbArc
 50
180.000005
 51
270.000001
  0
LINE
  5
264
100
AcDbEntity
  8
0
 62
     7
 48
0.07125
100
AcDbLine
 10
143.104004
 20
43.118687
 30
0.0
 11
143.104004
 21
40.268688
 31
0.0
210
0.0
220
0.0
230
1.0
  0
ARC
  5
265
100
AcDbEntity
  8
0
 62
     7
100
AcDbCircle
 10
143.128998
 20
43.118687
 30
0.0
 40
0.025
210
0.0
220
0.0
230
1.0
100
AcDbArc
 50
90.000003
 51
180.000005
  0
LINE
  5
266
100
AcDbEntity
  8
0
 62
     7
 48
0.075
100
AcDbLine
 10
146.128998
 20
43.143688
 30
0.0
 11
143.128998
 21
43.143688
 31
0.0
210
0.0
220
0.0
230
1.0
  0
CIRCLE
  5
267
100
AcDbEntity
  8
0
 62
     7
100
AcDbCircle
 10
121.99028
 20
41.657639
 30
0.0
 40
1.375
210
0.0
220
0.0
230
1.0
  0
LINE
  5
268
100
AcDbEntity
  8
0
 62
     7
 48
0.07625
100
AcDbLine
 10
128.99028
 20
43.107639
 30
0.0
 11
128.99028
 21
46.157639
 31
0.0
210
0.0
220
0.0
230
1.0
  0
LINE
  5
269
100
AcDbEntity
  8
0
 62
     7
 48
0.060436
100
AcDbLine
 10
128.99028
 20
46.157639
 30
0.0
 11
126.572853
 21
46.157639
 31
0.0
210
0.0
220
0.0
230
1.0
  0
ARC
  5
26A
100
AcDbEntity
  8
0
 62
     7
100
AcDbCircle
 10
126.572853
 20
51.657639
 30
0.0
 40
5.5
210
0.0
220
0.0
230
1.0
100
AcDbArc
 50
245.38001
 51
270.000001
  0
ARC
  5
26B
100
AcDbEntity
  8
0
 62
     7
100
AcDbCircle
 10
121.99028
 20
41.657639
 30
0.0
 40
5.5
210
0.0
220
0.0
230
1.0
100
AcDbArc
 50
65.380025
 51
114.619973
  0
ARC
  5
26C
100
AcDbEntity
  8
0
 62
     7
100
AcDbCircle
 10
117.407707
 20
51.657639
 30
0.0
 40
5.5
210
0.0
220
0.0
230
1.0
100
AcDbArc
 50
270.000001
 51
294.619964
  0
LINE
  5
26D
100
AcDbEntity
  8
0
 62
     7
 48
0.060436
100
AcDbLine
 10
114.99028
 20
46.157639
 30
0.0
 11
117.407707
 21
46.157639
 31
0.0
210
0.0
220
0.0
230
1.0
  0
LINE
  5
26E
100
AcDbEntity
  8
0
 62
     7
 48
0.07625
100
AcDbLine
 10
114.99028
 20
43.107639
 30
0.0
 11
114.99028
 21
46.157639
 31
0.0
210
0.0
220
0.0
230
1.0
  0
LINE
  5
26F
100
AcDbEntity
  8
0
 62
     7
 48
0.075
100
AcDbLine
 10
114.99028
 20
43.107639
 30
0.0
 11
117.99028
 21
43.107639
 31
0.0
210
0.0
220
0.0
230
1.0
  0
ARC
  5
270
100
AcDbEntity
  8
0
 62
     7
100
AcDbCircle
 10
117.99028
 20
43.082638
 30
0.0
 40
0.025
210
0.0
220
0.0
230
1.0
100
AcDbArc
 50
0.0
 51
90.000003
  0
LINE
  5
271
100
AcDbEntity
  8
0
 62
     7
 48
0.07125
100
AcDbLine
 10
118.015282
 20
43.082638
 30
0.0
 11
118.015282
 21
40.232639
 31
0.0
210
0.0
220
0.0
230
1.0
  0
ARC
  5
272
100
AcDbEntity
  8
0
 62
     7
100
AcDbCircle
 10
117.99028
 20
40.232639
 30
0.0
 40
0.025
210
0.0
220
0.0
230
1.0
100
AcDbArc
 50
270.000001
 51
0.00001
  0
LINE
  5
273
100
AcDbEntity
  8
0
 62
     7
 48
0.075
100
AcDbLine
 10
117.99028
 20
40.207638
 30
0.0
 11
114.99028
 21
40.207638
 31
0.0
210
0.0
220
0.0
230
1.0
  0
LINE
  5
274
100
AcDbEntity
  8
0
 62
     7
 48
0.07625
100
AcDbLine
 10
114.99028
 20
40.207638
 30
0.0
 11
114.99028
 21
37.157639
 31
0.0
210
0.0
220
0.0
230
1.0
  0
LINE
  5
275
100
AcDbEntity
  8
0
 62
     7
 48
0.060436
100
AcDbLine
 10
114.99028
 20
37.157639
 30
0.0
 11
117.407707
 21
37.157639
 31
0.0
210
0.0
220
0.0
230
1.0
  0
ARC
  5
276
100
AcDbEntity
  8
0
 62
     7
100
AcDbCircle
 10
117.407707
 20
31.657639
 30
0.0
 40
5.5
210
0.0
220
0.0
230
1.0
100
AcDbArc
 50
65.380025
 51
90.000003
  0
ARC
  5
277
100
AcDbEntity
  8
0
 62
     7
100
AcDbCircle
 10
121.99028
 20
41.657639
 30
0.0
 40
5.5
210
0.0
220
0.0
230
1.0
100
AcDbArc
 50
245.38001
 51
294.619964
  0
ARC
  5
278
100
AcDbEntity
  8
0
 62
     7
100
AcDbCircle
 10
126.572853
 20
31.657639
 30
0.0
 40
5.5
210
0.0
220
0.0
230
1.0
100
AcDbArc
 50
90.000003
 51
114.619973
  0
LINE
  5
279
100
AcDbEntity
  8
0
 62
     7
 48
0.060436
100
AcDbLine
 10
128.99028
 20
37.157639
 30
0.0
 11
126.572853
 21
37.157639
 31
0.0
210
0.0
220
0.0
230
1.0
  0
LINE
  5
27A
100
AcDbEntity
  8
0
 62
     7
 48
0.07625
100
AcDbLine
 10
128.99028
 20
40.207638
 30
0.0
 11
128.99028
 21
37.157639
 31
0.0
210
0.0
220
0.0
230
1.0
  0
LINE
  5
27B
100
AcDbEntity
  8
0
 62
     7
 48
0.075
100
AcDbLine
 10
125.99028
 20
40.207638
 30
0.0
 11
128.99028
 21
40.207638
 31
0.0
210
0.0
220
0.0
230
1.0
  0
ARC
  5
27C
100
AcDbEntity
  8
0
 62
     7
100
AcDbCircle
 10
125.99028
 20
40.232639
 30
0.0
 40
0.025
210
0.0
220
0.0
230
1.0
100
AcDbArc
 50
180.000005
 51
270.000001
  0
LINE
  5
27D
100
AcDbEntity
  8
0
 62
     7
 48
0.07125
100
AcDbLine
 10
125.965279
 20
43.082638
 30
0.0
 11
125.965279
 21
40.232639
 31
0.0
210
0.0
220
0.0
230
1.0
  0
ARC
  5
27E
100
AcDbEntity
  8
0
 62
     7
100
AcDbCircle
 10
125.99028
 20
43.082638
 30
0.0
 40
0.025
210
0.0
220
0.0
230
1.0
100
AcDbArc
 50
90.000003
 51
180.000005
  0
LINE
  5
27F
100
AcDbEntity
  8
0
 62
     7
 48
0.075
100
AcDbLine
 10
128.99028
 20
43.107639
 30
0.0
 11
125.99028
 21
43.107639
 31
0.0
210
0.0
220
0.0
230
1.0
  0
ENDSEC
  0
SECTION
  2
OBJECTS
  0
DICTIONARY
  5
19
100
AcDbDictionary
  3
ACAD_GROUP
350
1A
  3
ACAD_MLINESTYLE
350
1B
  0
DICTIONARY
  5
1A
102
{ACAD_REACTORS
330
19
102
}
100
AcDbDictionary
  0
DICTIONARY
  5
1B
102
{ACAD_REACTORS
330
19
102
}
100
AcDbDictionary
  3
STANDARD
350
1C
  0
MLINESTYLE
  5
1C
102
{ACAD_REACTORS
330
1B
102
}
100
AcDbMlineStyle
  2
STANDARD
 70
     0
  3

 62
     0
 51
90.0
 52
90.0
 71
     2
 49
0.5
 62
   256
  6
BYLAYER
 49
-0.5
 62
   256
  6
BYLAYER
  0
ENDSEC
  0
EOF
