  0
SECTION
  2
HEADER
  9
$ACADVER
  1
AC1014
  9
$ACADMAINTVER
 70
     0
  9
$DWGCODEPAGE
  3
ANSI_1252
  9
$INSBASE
 10
0.0
 20
0.0
 30
0.0
  9
$EXTMIN
 10
0.0
 20
0.0
 30
0.0
  9
$EXTMAX
 10
221.109619
 20
143.395966
 30
2.0
  9
$LIMMIN
 10
0.0
 20
0.0
  9
$LIMMAX
 10
420.0
 20
297.0
  9
$ORTHOMODE
 70
     0
  9
$REGENMODE
 70
     1
  9
$FILLMODE
 70
     1
  9
$QTEXTMODE
 70
     0
  9
$MIRRTEXT
 70
     1
  9
$DRAGMODE
 70
     2
  9
$LTSCALE
 40
1.0
  9
$OSMODE
 70
     0
  9
$ATTMODE
 70
     1
  9
$TEXTSIZE
 40
2.5
  9
$TRACEWID
 40
1.0
  9
$TEXTSTYLE
  7
STANDARD
  9
$CLAYER
  8
0
  9
$CELTYPE
  6
BYLAYER
  9
$CECOLOR
 62
   256
  9
$CELTSCALE
 40
1.0
  9
$DELOBJ
 70
     1
  9
$DISPSILH
 70
     0
  9
$DIMSCALE
 40
1.0
  9
$DIMASZ
 40
2.5
  9
$DIMEXO
 40
0.625
  9
$DIMDLI
 40
3.75
  9
$DIMRND
 40
0.0
  9
$DIMDLE
 40
0.0
  9
$DIMEXE
 40
1.25
  9
$DIMTP
 40
0.0
  9
$DIMTM
 40
0.0
  9
$DIMTXT
 40
2.5
  9
$DIMCEN
 40
2.5
  9
$DIMTSZ
 40
0.0
  9
$DIMTOL
 70
     0
  9
$DIMLIM
 70
     0
  9
$DIMTIH
 70
     0
  9
$DIMTOH
 70
     0
  9
$DIMSE1
 70
     0
  9
$DIMSE2
 70
     0
  9
$DIMTAD
 70
     1
  9
$DIMZIN
 70
     8
  9
$DIMBLK
  1

  9
$DIMASO
 70
     1
  9
$DIMSHO
 70
     1
  9
$DIMPOST
  1

  9
$DIMAPOST
  1

  9
$DIMALT
 70
     0
  9
$DIMALTD
 70
     3
  9
$DIMALTF
 40
0.03937
  9
$DIMLFAC
 40
1.0
  9
$DIMTOFL
 70
     1
  9
$DIMTVP
 40
0.0
  9
$DIMTIX
 70
     0
  9
$DIMSOXD
 70
     0
  9
$DIMSAH
 70
     0
  9
$DIMBLK1
  1

  9
$DIMBLK2
  1

  9
$DIMSTYLE
  2

  9
$DIMCLRD
 70
     0
  9
$DIMCLRE
 70
     0
  9
$DIMCLRT
 70
     0
  9
$DIMTFAC
 40
1.0
  9
$DIMGAP
 40
0.625
  9
$DIMJUST
 70
     0
  9
$DIMSD1
 70
     0
  9
$DIMSD2
 70
     0
  9
$DIMTOLJ
 70
     0
  9
$DIMTZIN
 70
     8
  9
$DIMALTZ
 70
     0
  9
$DIMALTTZ
 70
     0
  9
$DIMFIT
 70
     0
  9
$DIMUPT
 70
     0
  9
$DIMUNIT
 70
     2
  9
$DIMDEC
 70
     2
  9
$DIMTDEC
 70
     2
  9
$DIMALTU
 70
     2
  9
$DIMALTTD
 70
     3
  9
$DIMTXSTY
  7
STANDARD
  9
$DIMAUNIT
 70
     0
  9
$LUNITS
 70
     2
  9
$LUPREC
 70
     4
  9
$SKETCHINC
 40
1.0
  9
$FILLETRAD
 40
2.5
  9
$AUNITS
 70
     0
  9
$AUPREC
 70
     0
  9
$MENU
  1
.
  9
$ELEVATION
 40
0.0
  9
$PELEVATION
 40
0.0
  9
$THICKNESS
 40
0.0
  9
$LIMCHECK
 70
     0
  9
$BLIPMODE
 70
     1
  9
$CHAMFERA
 40
2.5
  9
$CHAMFERB
 40
2.5
  9
$CHAMFERC
 40
0.0
  9
$CHAMFERD
 40
0.0
  9
$SKPOLY
 70
     0
  9
$TDCREATE
 40
0.000000000
  9
$TDUPDATE
 40
0.000000000
  9
$TDINDWG
 40
0.0000000000
  9
$TDUSRTIMER
 40
0.0000000000
  9
$USRTIMER
 70
     1
  9
$ANGBASE
 50
0.0
  9
$ANGDIR
 70
     0
  9
$PDMODE
 70
     0
  9
$PDSIZE
 40
0.0
  9
$PLINEWID
 40
0.0
  9
$COORDS
 70
     0
  9
$SPLFRAME
 70
     0
  9
$SPLINETYPE
 70
     6
  9
$SPLINESEGS
 70
     8
  9
$ATTDIA
 70
     0
  9
$ATTREQ
 70
     1
  9
$HANDLING
 70
     1
  9
$HANDSEED
  5
671
  9
$SURFTAB1
 70
     6
  9
$SURFTAB2
 70
     6
  9
$SURFTYPE
 70
     6
  9
$SURFU
 70
     6
  9
$SURFV
 70
     6
  9
$UCSNAME
  2

  9
$UCSORG
 10
0.0
 20
0.0
 30
0.0
  9
$UCSXDIR
 10
1.0
 20
0.0
 30
0.0
  9
$UCSYDIR
 10
0.0
 20
1.0
 30
0.0
  9
$PUCSNAME
  2

  9
$PUCSORG
 10
0.0
 20
0.0
 30
0.0
  9
$PUCSXDIR
 10
1.0
 20
0.0
 30
0.0
  9
$PUCSYDIR
 10
0.0
 20
1.0
 30
0.0
  9
$USERI1
 70
     0
  9
$USERI2
 70
     0
  9
$USERI3
 70
     0
  9
$USERI4
 70
     0
  9
$USERI5
 70
     0
  9
$USERR1
 40
0.0
  9
$USERR2
 40
0.0
  9
$USERR3
 40
0.0
  9
$USERR4
 40
0.0
  9
$USERR5
 40
0.0
  9
$WORLDVIEW
 70
     1
  9
$SHADEDGE
 70
     3
  9
$SHADEDIF
 70
    70
  9
$TILEMODE
 70
     1
  9
$MAXACTVP
 70
    48
  9
$PINSBASE
 10
0.0
 20
0.0
 30
0.0
  9
$PLIMCHECK
 70
     0
  9
$PEXTMIN
 10
0.0
 20
0.0
 30
0.0
  9
$PEXTMAX
 10
221.109619
 20
143.395966
 30
2.0
  9
$PLIMMIN
 10
0.0
 20
0.0
  9
$PLIMMAX
 10
420.0
 20
297.0
  9
$UNITMODE
 70
     0
  9
$VISRETAIN
 70
     0
  9
$PLINEGEN
 70
     0
  9
$PSLTSCALE
 70
     1
  9
$TREEDEPTH
 70
  3020
  9
$PICKSTYLE
 70
     1
  9
$CMLSTYLE
  2
STANDARD
  9
$CMLJUST
 70
     0
  9
$CMLSCALE
 40
20.0
  9
$PROXYGRAPHICS
 70
     1
  9
$MEASUREMENT
 70
     1
  0
ENDSEC
  0
SECTION
  2
CLASSES
  0
CLASS
  1
LWPOLYLINE
  2
AcDbPolyline
  3
"AutoCAD"
 90
        0
280
     0
281
     1
  0
CLASS
  1
IMAGE
  2
AcDbRasterImage
  3
ISM
 90
      127
280
     0
281
     1
  0
CLASS
  1
OLE2FRAME
  2
AcDbOle2Frame
  3
""
 90
        0
280
     0
281
     1
  0
CLASS
  1
HATCH
  2
AcDbHatch
  3
"ACAD_SEDONA"
 90
        0
280
     0
281
     1
  0
CLASS
  1
DICTIONARYVAR
  2
AcDbDictionaryVar
  3
"AutoCAD"
 90
        0
280
     0
281
     0
  0
CLASS
  1
RASTERVARIABLES
  2
AcDbRasterVariables
  3
ISM
 90
        0
280
     0
281
     0
  0
CLASS
  1
IMAGEDEF
  2
AcDbRasterImageDef
  3
ISM
 90
        0
280
     0
281
     0
  0
CLASS
  1
IMAGEDEF_REACTOR
  2
AcDbRasterImageDefReactor
  3
ISM
 90
        1
280
     0
281
     0
  0
CLASS
  1
IDBUFFER
  2
AcDbIdBuffer
  3
"Acad"
 90
        0
280
     0
281
     0
  0
CLASS
  1
SPATIAL_FILTER
  2
AcDbSpatialFilter
  3
"Acad"
 90
        0
280
     0
281
     0
  0
CLASS
  1
XRECORD
  2
AcDbXrecord
  3
"<Built In>"
 90
        0
280
     0
281
     0
  0
CLASS
  1
SORTENTSTABLE
  2
AcDbSortentsTable
  3
"AutoCAD"
 90
        0
280
     0
281
     0
  0
CLASS
  1
LAYER_INDEX
  2
AcDbLayerIndex
  3
"Acad"
 90
        0
280
     0
281
     0
  0
CLASS
  1
SPATIAL_INDEX
  2
AcDbSpatialIndex
  3
"Acad"
 90
        0
280
     0
281
     0
  0
CLASS
  1
OBJECT_PTR
  2
CAseDLPNTableRecord
  3
"ASE-LPNTableRecord"
 90
        1
280
     0
281
     0
  0
CLASS
  1
LAYOUT
  2
AcDbLayout
  3
"AutoCAD 2000"
 90
        0
280
     0
281
     0
  0
CLASS
  1
PLOTSETTINGS
  2
AcDbPlotSettings
  3
"AutoCAD 2000"
 90
        0
280
     0
281
     0
  0
CLASS
  1
ACDBDICTIONARYWDFLT
  2
AcDbDictionaryWithDefault
  3
"AutoCAD 2000"
 90
        0
280
     0
281
     0
  0
CLASS
  1
ACDBPLACEHOLDER
  2
AcDbPlaceHolder
  3
"AutoCAD 2000"
 90
        0
280
     0
281
     0
  0
CLASS
  1
VBA_PROJECT
  2
AcDbVbaProject
  3
"acadvba"
 90
        0
280
     0
281
     0
  0
CLASS
  1
WIPEOUT
  2
AcDbWipeout
  3
WipeOut|AutoCAD Express Tool|expresstools@autodesk.com
 90
      127
280
     0
281
     1
  0
CLASS
  1
WIPEOUTVARIABLES
  2
AcDbWipeoutVariables
  3
WipeOut|AutoCAD Express Tool|expresstools@autodesk.com
 90
        0
280
     0
281
     0
  0
CLASS
  1
RTEXT
  2
RText
  3
RText|AutoCAD Express Tool|expresstools@autodesk.com
 90
        0
280
     0
281
     1
  0
CLASS
  1
ARCALIGNEDTEXT
  2
AcDbArcAlignedText
  3
ATEXT|AutoCAD Express Tool|expresstools@autodesk.com
 90
        0
280
     0
281
     1
  0
ENDSEC
  0
SECTION
  2
TABLES
  0
TABLE
  2
VPORT
  5
7
100
AcDbSymbolTable
 70
     1
  0
VPORT
  5
15
100
AcDbSymbolTableRecord
100
AcDbViewportTableRecord
  2
*ACTIVE
 70
     0
 10
0.0
 20
0.0
 11
1.0
 21
1.0
 12
6.591288
 22
4.579184
 13
0.0
 23
0.0
 14
1.0
 24
1.0
 15
0.0
 25
0.0
 16
0.0
 26
0.0
 36
1.0
 17
0.0
 27
0.0
 37
0.0
 40
9.158369
 41
0.688564
 42
50.0
 43
0.0
 44
0.0
 50
0.0
 51
0.0
 71
     0
 72
   100
 73
     1
 74
     1
 75
     0
 76
     0
 77
     0
 78
     0
  0
ENDTAB
  0
TABLE
  2
LTYPE
  5
4
100
AcDbSymbolTable
 70
    10
  0
LTYPE
  5
11
100
AcDbSymbolTableRecord
100
AcDbLinetypeTableRecord
  2
BYBLOCK
 70
    64
  3

 72
    65
 73
     0
 40
0.0
  0
LTYPE
  5
12
100
AcDbSymbolTableRecord
100
AcDbLinetypeTableRecord
  2
BYLAYER
 70
    64
  3

 72
    65
 73
     0
 40
0.0
  0
LTYPE
  5
13
100
AcDbSymbolTableRecord
100
AcDbLinetypeTableRecord
  2
CONTINUOUS
 70
    64
  3
Solid line
 72
    65
 73
     0
 40
0.0
  0
LTYPE
  5
1D
100
AcDbSymbolTableRecord
100
AcDbLinetypeTableRecord
  2
DASHED
 70
     0
  3
__ __ __ __ __ __ __ __ __ __ __ __ __ __ __ __
 72
    65
 73
     2
 40
15.0
 49
12.0
 74
     0
 49
-3.0
 74
     0
  0
LTYPE
  5
1E
100
AcDbSymbolTableRecord
100
AcDbLinetypeTableRecord
  2
DASHDOT
 70
     0
  3
 __ . __ . __ . __ . __ . __ . __ . 
 72
    65
 73
     4
 40
18.5
 49
12.0
 74
     0
 49
-3.0
 74
     0
 49
0.5
 74
     0
 49
-3.0
 74
     0
  0
LTYPE
  5
1F
100
AcDbSymbolTableRecord
100
AcDbLinetypeTableRecord
  2
DOT
 70
     0
  3
 . . . . . . . . . . . . . . . .
 72
    65
 73
     2
 40
3.5
 49
0.5
 74
     0
 49
-3.0
 74
     0
  0
LTYPE
  5
20
100
AcDbSymbolTableRecord
100
AcDbLinetypeTableRecord
  2
DASHSPACE
 70
     0
  3
__    __    __    __    __   
 72
    65
 73
     2
 40
30.0
 49
12.0
 74
     0
 49
-18.0
 74
     0
  0
LTYPE
  5
21
100
AcDbSymbolTableRecord
100
AcDbLinetypeTableRecord
  2
DASHDOT2
 70
     0
  3
__ . . __ . . __ . . __ 
 72
    65
 73
     6
 40
22.0
 49
12.0
 74
     0
 49
-3.0
 74
     0
 49
0.5
 74
     0
 49
-3.0
 74
     0
 49
0.5
 74
     0
 49
-3.0
 74
     0
  0
LTYPE
  5
22
100
AcDbSymbolTableRecord
100
AcDbLinetypeTableRecord
  2
PHANTOM
 70
     0
  3
____________    ____    ____   _
 72
    65
 73
     6
 40
20.0
 49
10.0
 74
     0
 49
-2.0
 74
     0
 49
2.0
 74
     0
 49
-2.0
 74
     0
 49
2.0
 74
     0
 49
-2.0
 74
     0
  0
LTYPE
  5
23
100
AcDbSymbolTableRecord
100
AcDbLinetypeTableRecord
  2
AXES
 70
     0
  3
________  __  ________  __  _____
 72
    65
 73
     4
 40
24.0
 49
15.0
 74
     0
 49
-3.0
 74
     0
 49
3.0
 74
     0
 49
-3.0
 74
     0
  0
ENDTAB
  0
TABLE
  2
LAYER
  5
2
100
AcDbSymbolTable
 70
     1
  0
LAYER
  5
14
100
AcDbSymbolTableRecord
100
AcDbLayerTableRecord
  2
0
 70
     0
 62
     7
  6
CONTINUOUS
  0
ENDTAB
  0
TABLE
  2
STYLE
  5
3
100
AcDbSymbolTable
 70
     1
  0
STYLE
  5
17
100
AcDbSymbolTableRecord
100
AcDbTextStyleTableRecord
  2
STANDARD
 70
     0
 40
0.0
 41
1.0
 50
0.0
 71
     0
 42
0.0
  3
txt
  4

  0
ENDTAB
  0
TABLE
  2
VIEW
  5
5
100
AcDbSymbolTable
 70
     0
  0
ENDTAB
  0
TABLE
  2
UCS
  5
6
100
AcDbSymbolTable
 70
     0
  0
ENDTAB
  0
TABLE
  2
APPID
  5
8
100
AcDbSymbolTable
 70
     1
  0
APPID
  5
16
100
AcDbSymbolTableRecord
100
AcDbRegAppTableRecord
  2
ACAD
 70
     0
  0
ENDTAB
  0
TABLE
  2
DIMSTYLE
  5
9
100
AcDbSymbolTable
 70
     1
  0
DIMSTYLE
105
18
100
AcDbSymbolTableRecord
100
AcDbDimStyleTableRecord
  2
STANDARD
 70
     0
  3

  4

  5

  6

  7

 40
1.0
 41
0.18
 42
0.0625
 43
0.38
 44
0.18
 45
0.0
 46
0.0
 47
0.0
 48
0.0
 71
     0
 72
     0
 73
     1
 74
     1
 75
     0
 76
     0
 77
     0
 78
     0
140
0.18
141
0.09
142
0.0
143
25.4
144
1.0
145
0.0
146
1.0
147
0.09
170
     0
171
     2
172
     0
173
     0
174
     0
175
     0
176
     0
177
     0
178
     0
270
     2
271
     4
272
     4
273
     2
274
     2
275
     0
280
     0
281
     0
282
     0
283
     1
284
     0
285
     0
286
     0
287
     3
288
     0
340
17
  0
ENDTAB
  0
TABLE
  2
BLOCK_RECORD
  5
1
100
AcDbSymbolTable
 70
     0
  0
BLOCK_RECORD
  5
A
100
AcDbSymbolTableRecord
100
AcDbBlockTableRecord
  2
*MODEL_SPACE
  0
BLOCK_RECORD
  5
B
100
AcDbSymbolTableRecord
100
AcDbBlockTableRecord
  2
*PAPER_SPACE
  0
ENDTAB
  0
ENDSEC
  0
SECTION
  2
BLOCKS
  0
BLOCK
  5
D
100
AcDbEntity
  8
0
100
AcDbBlockBegin
  2
*MODEL_SPACE
 70
     0
 10
0.0
 20
0.0
 30
0.0
  3
*MODEL_SPACE
  1

  0
ENDBLK
  5
E
100
AcDbEntity
  8
0
100
AcDbBlockEnd
  0
BLOCK
  5
F
100
AcDbEntity
 67
     1
  8
0
100
AcDbBlockBegin
  2
*PAPER_SPACE
 70
     0
 10
0.0
 20
0.0
 30
0.0
  3
*PAPER_SPACE
  1

  0
ENDBLK
  5
10
100
AcDbEntity
 67
     1
  8
0
100
AcDbBlockEnd
  0
ENDSEC
  0
SECTION
  2
ENTITIES
  0
VIEWPORT
  5
670
100
AcDbEntity
 67
     1
  8
0
 62
     0
 48
0.0
100
AcDbViewport
 10
0.0
 20
0.0
 30
0.0
 40
1000.0
 41
1000.0
 68
     1
 69
     1
1001
ACAD
1000
MVIEW
1002
{
1070
    16
1010
0.0
1020
0.0
1030
0.0
1010
0.0
1020
0.0
1030
1.0
1040
0.0
1040
1000.0
1040
0.0
1040
0.0
1040
50.0
1040
0.0
1040
0.0
1070
     0
1070
   100
1070
     1
1070
     1
1070
     0
1070
     0
1070
     0
1070
     0
1040
0.0
1040
0.0
1040
0.0
1040
1.0
1040
1.0
1040
1.0
1040
1.0
1070
     0
1002
{
1002
}
1002
}
  0
POLYLINE
  5
24
100
AcDbEntity
  8
0
 62
     7
100
AcDb2dPolyline
 66
     1
 10
0.0
 20
0.0
 30
0.0
 70
     1
 71
    27
  0
VERTEX
  5
25
100
AcDbEntity
  8
0
100
AcDbVertex
100
AcDb2dVertex
 10
32.424595
 20
110.148232
 30
0.0
  0
VERTEX
  5
26
100
AcDbEntity
  8
0
100
AcDbVertex
100
AcDb2dVertex
 10
32.611935
 20
110.017326
 30
0.0
  0
VERTEX
  5
27
100
AcDbEntity
  8
0
100
AcDbVertex
100
AcDb2dVertex
 10
32.757641
 20
109.862488
 30
0.0
  0
VERTEX
  5
28
100
AcDbEntity
  8
0
100
AcDbVertex
100
AcDb2dVertex
 10
32.861717
 20
109.683731
 30
0.0
  0
VERTEX
  5
29
100
AcDbEntity
  8
0
100
AcDbVertex
100
AcDb2dVertex
 10
32.924164
 20
109.481041
 30
0.0
  0
VERTEX
  5
2A
100
AcDbEntity
  8
0
100
AcDbVertex
100
AcDb2dVertex
 10
32.944981
 20
109.254433
 30
0.0
  0
VERTEX
  5
2B
100
AcDbEntity
  8
0
100
AcDbVertex
100
AcDb2dVertex
 10
32.925461
 20
109.044922
 30
0.0
  0
VERTEX
  5
2C
100
AcDbEntity
  8
0
100
AcDbVertex
100
AcDb2dVertex
 10
32.866901
 20
108.851326
 30
0.0
  0
VERTEX
  5
2D
100
AcDbEntity
  8
0
100
AcDbVertex
100
AcDb2dVertex
 10
32.769302
 20
108.673645
 30
0.0
  0
VERTEX
  5
2E
100
AcDbEntity
  8
0
100
AcDbVertex
100
AcDb2dVertex
 10
32.632664
 20
108.511879
 30
0.0
  0
VERTEX
  5
2F
100
AcDbEntity
  8
0
100
AcDbVertex
100
AcDb2dVertex
 10
32.468414
 20
108.377296
 30
0.0
  0
VERTEX
  5
30
100
AcDbEntity
  8
0
100
AcDbVertex
100
AcDb2dVertex
 10
32.287983
 20
108.281166
 30
0.0
  0
VERTEX
  5
31
100
AcDbEntity
  8
0
100
AcDbVertex
100
AcDb2dVertex
 10
32.09137
 20
108.223488
 30
0.0
  0
VERTEX
  5
32
100
AcDbEntity
  8
0
100
AcDbVertex
100
AcDb2dVertex
 10
31.878574
 20
108.204262
 30
0.0
  0
VERTEX
  5
33
100
AcDbEntity
  8
0
100
AcDbVertex
100
AcDb2dVertex
 10
30.989902
 20
108.204262
 30
0.0
  0
VERTEX
  5
34
100
AcDbEntity
  8
0
100
AcDbVertex
100
AcDb2dVertex
 10
30.812168
 20
108.379433
 30
0.0
  0
VERTEX
  5
35
100
AcDbEntity
  8
0
100
AcDbVertex
100
AcDb2dVertex
 10
30.812168
 20
111.529091
 30
0.0
  0
VERTEX
  5
36
100
AcDbEntity
  8
0
100
AcDbVertex
100
AcDb2dVertex
 10
30.986485
 20
111.704262
 30
0.0
  0
VERTEX
  5
37
100
AcDbEntity
  8
0
100
AcDbVertex
100
AcDb2dVertex
 10
31.856358
 20
111.704262
 30
0.0
  0
VERTEX
  5
38
100
AcDbEntity
  8
0
100
AcDbVertex
100
AcDb2dVertex
 10
32.087971
 20
111.676109
 30
0.0
  0
VERTEX
  5
39
100
AcDbEntity
  8
0
100
AcDbVertex
100
AcDb2dVertex
 10
32.294048
 20
111.59166
 30
0.0
  0
VERTEX
  5
3A
100
AcDbEntity
  8
0
100
AcDbVertex
100
AcDb2dVertex
 10
32.474583
 20
111.450905
 30
0.0
  0
VERTEX
  5
3B
100
AcDbEntity
  8
0
100
AcDbVertex
100
AcDb2dVertex
 10
32.614388
 20
111.269234
 30
0.0
  0
VERTEX
  5
3C
100
AcDbEntity
  8
0
100
AcDbVertex
100
AcDb2dVertex
 10
32.698269
 20
111.062019
 30
0.0
  0
VERTEX
  5
3D
100
AcDbEntity
  8
0
100
AcDbVertex
100
AcDb2dVertex
 10
32.726231
 20
110.829262
 30
0.0
  0
VERTEX
  5
3E
100
AcDbEntity
  8
0
100
AcDbVertex
100
AcDb2dVertex
 10
32.692715
 20
110.567505
 30
0.0
  0
VERTEX
  5
3F
100
AcDbEntity
  8
0
100
AcDbVertex
100
AcDb2dVertex
 10
32.592171
 20
110.340492
 30
0.0
  0
SEQEND
  5
40
100
AcDbEntity
  8
0
  0
POLYLINE
  5
41
100
AcDbEntity
  8
0
 62
     7
100
AcDb2dPolyline
 66
     1
 10
0.0
 20
0.0
 30
0.0
 70
     1
 71
    11
  0
VERTEX
  5
42
100
AcDbEntity
  8
0
100
AcDbVertex
100
AcDb2dVertex
 10
31.140293
 20
111.376137
 30
0.0
  0
VERTEX
  5
43
100
AcDbEntity
  8
0
100
AcDbVertex
100
AcDb2dVertex
 10
31.140293
 20
110.337074
 30
0.0
  0
VERTEX
  5
44
100
AcDbEntity
  8
0
100
AcDbVertex
100
AcDb2dVertex
 10
31.858921
 20
110.337074
 30
0.0
  0
VERTEX
  5
45
100
AcDbEntity
  8
0
100
AcDbVertex
100
AcDb2dVertex
 10
32.065708
 20
110.375099
 30
0.0
  0
VERTEX
  5
46
100
AcDbEntity
  8
0
100
AcDbVertex
100
AcDb2dVertex
 10
32.240025
 20
110.489174
 30
0.0
  0
VERTEX
  5
47
100
AcDbEntity
  8
0
100
AcDbVertex
100
AcDb2dVertex
 10
32.358585
 20
110.657082
 30
0.0
  0
VERTEX
  5
48
100
AcDbEntity
  8
0
100
AcDbVertex
100
AcDb2dVertex
 10
32.398106
 20
110.856606
 30
0.0
  0
VERTEX
  5
49
100
AcDbEntity
  8
0
100
AcDbVertex
100
AcDb2dVertex
 10
32.358585
 20
111.056129
 30
0.0
  0
VERTEX
  5
4A
100
AcDbEntity
  8
0
100
AcDbVertex
100
AcDb2dVertex
 10
32.240025
 20
111.224037
 30
0.0
  0
VERTEX
  5
4B
100
AcDbEntity
  8
0
100
AcDbVertex
100
AcDb2dVertex
 10
32.065708
 20
111.338112
 30
0.0
  0
VERTEX
  5
4C
100
AcDbEntity
  8
0
100
AcDbVertex
100
AcDb2dVertex
 10
31.858921
 20
111.376137
 30
0.0
  0
SEQEND
  5
4D
100
AcDbEntity
  8
0
  0
POLYLINE
  5
4E
100
AcDbEntity
  8
0
 62
     7
100
AcDb2dPolyline
 66
     1
 10
0.0
 20
0.0
 30
0.0
 70
     1
 71
    15
  0
VERTEX
  5
4F
100
AcDbEntity
  8
0
100
AcDbVertex
100
AcDb2dVertex
 10
31.140293
 20
110.008949
 30
0.0
  0
VERTEX
  5
50
100
AcDbEntity
  8
0
100
AcDbVertex
100
AcDb2dVertex
 10
31.140293
 20
108.532387
 30
0.0
  0
VERTEX
  5
51
100
AcDbEntity
  8
0
100
AcDbVertex
100
AcDb2dVertex
 10
31.878574
 20
108.532387
 30
0.0
  0
VERTEX
  5
52
100
AcDbEntity
  8
0
100
AcDbVertex
100
AcDb2dVertex
 10
32.07468
 20
108.556168
 30
0.0
  0
VERTEX
  5
53
100
AcDbEntity
  8
0
100
AcDbVertex
100
AcDb2dVertex
 10
32.249424
 20
108.627518
 30
0.0
  0
VERTEX
  5
54
100
AcDbEntity
  8
0
100
AcDbVertex
100
AcDb2dVertex
 10
32.402805
 20
108.746437
 30
0.0
  0
VERTEX
  5
55
100
AcDbEntity
  8
0
100
AcDbVertex
100
AcDb2dVertex
 10
32.521721
 20
108.899818
 30
0.0
  0
VERTEX
  5
56
100
AcDbEntity
  8
0
100
AcDbVertex
100
AcDb2dVertex
 10
32.593071
 20
109.074562
 30
0.0
  0
VERTEX
  5
57
100
AcDbEntity
  8
0
100
AcDbVertex
100
AcDb2dVertex
 10
32.616856
 20
109.270668
 30
0.0
  0
VERTEX
  5
58
100
AcDbEntity
  8
0
100
AcDbVertex
100
AcDb2dVertex
 10
32.593071
 20
109.466774
 30
0.0
  0
VERTEX
  5
59
100
AcDbEntity
  8
0
100
AcDbVertex
100
AcDb2dVertex
 10
32.521721
 20
109.641518
 30
0.0
  0
VERTEX
  5
5A
100
AcDbEntity
  8
0
100
AcDbVertex
100
AcDb2dVertex
 10
32.402805
 20
109.794899
 30
0.0
  0
VERTEX
  5
5B
100
AcDbEntity
  8
0
100
AcDbVertex
100
AcDb2dVertex
 10
32.249424
 20
109.913818
 30
0.0
  0
VERTEX
  5
5C
100
AcDbEntity
  8
0
100
AcDbVertex
100
AcDb2dVertex
 10
32.07468
 20
109.985168
 30
0.0
  0
VERTEX
  5
5D
100
AcDbEntity
  8
0
100
AcDbVertex
100
AcDb2dVertex
 10
31.878574
 20
110.008949
 30
0.0
  0
SEQEND
  5
5E
100
AcDbEntity
  8
0
  0
POLYLINE
  5
5F
100
AcDbEntity
  8
0
 62
     7
100
AcDb2dPolyline
 66
     1
 10
0.0
 20
0.0
 30
0.0
 70
     1
 71
    21
  0
VERTEX
  5
60
100
AcDbEntity
  8
0
100
AcDbVertex
100
AcDb2dVertex
 10
35.405918
 20
110.489174
 30
0.0
  0
VERTEX
  5
61
100
AcDbEntity
  8
0
100
AcDbVertex
100
AcDb2dVertex
 10
35.405918
 20
108.380287
 30
0.0
  0
VERTEX
  5
62
100
AcDbEntity
  8
0
100
AcDbVertex
100
AcDb2dVertex
 10
35.230747
 20
108.204262
 30
0.0
  0
VERTEX
  5
63
100
AcDbEntity
  8
0
100
AcDbVertex
100
AcDb2dVertex
 10
34.355747
 20
108.204262
 30
0.0
  0
VERTEX
  5
64
100
AcDbEntity
  8
0
100
AcDbVertex
100
AcDb2dVertex
 10
34.169895
 20
108.226906
 30
0.0
  0
VERTEX
  5
65
100
AcDbEntity
  8
0
100
AcDbVertex
100
AcDb2dVertex
 10
34.004265
 20
108.294838
 30
0.0
  0
VERTEX
  5
66
100
AcDbEntity
  8
0
100
AcDbVertex
100
AcDb2dVertex
 10
33.85886
 20
108.408058
 30
0.0
  0
VERTEX
  5
67
100
AcDbEntity
  8
0
100
AcDbVertex
100
AcDb2dVertex
 10
33.746113
 20
108.554131
 30
0.0
  0
VERTEX
  5
68
100
AcDbEntity
  8
0
100
AcDbVertex
100
AcDb2dVertex
 10
33.678467
 20
108.720612
 30
0.0
  0
VERTEX
  5
69
100
AcDbEntity
  8
0
100
AcDbVertex
100
AcDb2dVertex
 10
33.655918
 20
108.907509
 30
0.0
  0
VERTEX
  5
6A
100
AcDbEntity
  8
0
100
AcDbVertex
100
AcDb2dVertex
 10
33.655918
 20
110.489174
 30
0.0
  0
VERTEX
  5
6B
100
AcDbEntity
  8
0
100
AcDbVertex
100
AcDb2dVertex
 10
33.819981
 20
110.665199
 30
0.0
  0
VERTEX
  5
6C
100
AcDbEntity
  8
0
100
AcDbVertex
100
AcDb2dVertex
 10
33.984043
 20
110.487465
 30
0.0
  0
VERTEX
  5
6D
100
AcDbEntity
  8
0
100
AcDbVertex
100
AcDb2dVertex
 10
33.984043
 20
108.887856
 30
0.0
  0
VERTEX
  5
6E
100
AcDbEntity
  8
0
100
AcDbVertex
100
AcDb2dVertex
 10
34.01096
 20
108.752632
 30
0.0
  0
VERTEX
  5
6F
100
AcDbEntity
  8
0
100
AcDbVertex
100
AcDb2dVertex
 10
34.091709
 20
108.637489
 30
0.0
  0
VERTEX
  5
70
100
AcDbEntity
  8
0
100
AcDbVertex
100
AcDb2dVertex
 10
34.209843
 20
108.558662
 30
0.0
  0
VERTEX
  5
71
100
AcDbEntity
  8
0
100
AcDbVertex
100
AcDb2dVertex
 10
34.348911
 20
108.532387
 30
0.0
  0
VERTEX
  5
72
100
AcDbEntity
  8
0
100
AcDbVertex
100
AcDb2dVertex
 10
35.077793
 20
108.532387
 30
0.0
  0
VERTEX
  5
73
100
AcDbEntity
  8
0
100
AcDbVertex
100
AcDb2dVertex
 10
35.077793
 20
110.487465
 30
0.0
  0
VERTEX
  5
74
100
AcDbEntity
  8
0
100
AcDbVertex
100
AcDb2dVertex
 10
35.241856
 20
110.665199
 30
0.0
  0
SEQEND
  5
75
100
AcDbEntity
  8
0
  0
POLYLINE
  5
76
100
AcDbEntity
  8
0
 62
     7
100
AcDb2dPolyline
 66
     1
 10
0.0
 20
0.0
 30
0.0
 70
     1
 71
    31
  0
VERTEX
  5
77
100
AcDbEntity
  8
0
100
AcDbVertex
100
AcDb2dVertex
 10
37.636997
 20
110.665199
 30
0.0
  0
VERTEX
  5
78
100
AcDbEntity
  8
0
100
AcDbVertex
100
AcDb2dVertex
 10
37.812168
 20
110.490028
 30
0.0
  0
VERTEX
  5
79
100
AcDbEntity
  8
0
100
AcDbVertex
100
AcDb2dVertex
 10
37.812168
 20
107.865028
 30
0.0
  0
VERTEX
  5
7A
100
AcDbEntity
  8
0
100
AcDbVertex
100
AcDb2dVertex
 10
37.789288
 20
107.679176
 30
0.0
  0
VERTEX
  5
7B
100
AcDbEntity
  8
0
100
AcDbVertex
100
AcDb2dVertex
 10
37.720642
 20
107.51355
 30
0.0
  0
VERTEX
  5
7C
100
AcDbEntity
  8
0
100
AcDbVertex
100
AcDb2dVertex
 10
37.606236
 20
107.368141
 30
0.0
  0
VERTEX
  5
7D
100
AcDbEntity
  8
0
100
AcDbVertex
100
AcDb2dVertex
 10
37.458599
 20
107.255394
 30
0.0
  0
VERTEX
  5
7E
100
AcDbEntity
  8
0
100
AcDbVertex
100
AcDb2dVertex
 10
37.290264
 20
107.187752
 30
0.0
  0
VERTEX
  5
7F
100
AcDbEntity
  8
0
100
AcDbVertex
100
AcDb2dVertex
 10
37.101231
 20
107.165199
 30
0.0
  0
VERTEX
  5
80
100
AcDbEntity
  8
0
100
AcDbVertex
100
AcDb2dVertex
 10
36.390293
 20
107.165199
 30
0.0
  0
VERTEX
  5
81
100
AcDbEntity
  8
0
100
AcDbVertex
100
AcDb2dVertex
 10
36.238194
 20
107.329262
 30
0.0
  0
VERTEX
  5
82
100
AcDbEntity
  8
0
100
AcDbVertex
100
AcDb2dVertex
 10
36.390293
 20
107.493324
 30
0.0
  0
VERTEX
  5
83
100
AcDbEntity
  8
0
100
AcDbVertex
100
AcDb2dVertex
 10
37.119175
 20
107.493324
 30
0.0
  0
VERTEX
  5
84
100
AcDbEntity
  8
0
100
AcDbVertex
100
AcDb2dVertex
 10
37.259846
 20
107.519279
 30
0.0
  0
VERTEX
  5
85
100
AcDbEntity
  8
0
100
AcDbVertex
100
AcDb2dVertex
 10
37.377659
 20
107.597145
 30
0.0
  0
VERTEX
  5
86
100
AcDbEntity
  8
0
100
AcDbVertex
100
AcDb2dVertex
 10
37.457447
 20
107.711967
 30
0.0
  0
VERTEX
  5
87
100
AcDbEntity
  8
0
100
AcDbVertex
100
AcDb2dVertex
 10
37.484043
 20
107.848793
 30
0.0
  0
VERTEX
  5
88
100
AcDbEntity
  8
0
100
AcDbVertex
100
AcDb2dVertex
 10
37.484043
 20
108.204262
 30
0.0
  0
VERTEX
  5
89
100
AcDbEntity
  8
0
100
AcDbVertex
100
AcDb2dVertex
 10
36.773106
 20
108.204262
 30
0.0
  0
VERTEX
  5
8A
100
AcDbEntity
  8
0
100
AcDbVertex
100
AcDb2dVertex
 10
36.520367
 20
108.242996
 30
0.0
  0
VERTEX
  5
8B
100
AcDbEntity
  8
0
100
AcDbVertex
100
AcDb2dVertex
 10
36.31472
 20
108.359207
 30
0.0
  0
VERTEX
  5
8C
100
AcDbEntity
  8
0
100
AcDbVertex
100
AcDb2dVertex
 10
36.156162
 20
108.552895
 30
0.0
  0
VERTEX
  5
8D
100
AcDbEntity
  8
0
100
AcDbVertex
100
AcDb2dVertex
 10
36.085667
 20
108.722725
 30
0.0
  0
VERTEX
  5
8E
100
AcDbEntity
  8
0
100
AcDbVertex
100
AcDb2dVertex
 10
36.062168
 20
108.907509
 30
0.0
  0
VERTEX
  5
8F
100
AcDbEntity
  8
0
100
AcDbVertex
100
AcDb2dVertex
 10
36.062168
 20
109.961952
 30
0.0
  0
VERTEX
  5
90
100
AcDbEntity
  8
0
100
AcDbVertex
100
AcDb2dVertex
 10
36.084717
 20
110.148849
 30
0.0
  0
VERTEX
  5
91
100
AcDbEntity
  8
0
100
AcDbVertex
100
AcDb2dVertex
 10
36.152367
 20
110.315331
 30
0.0
  0
VERTEX
  5
92
100
AcDbEntity
  8
0
100
AcDbVertex
100
AcDb2dVertex
 10
36.26511
 20
110.461403
 30
0.0
  0
VERTEX
  5
93
100
AcDbEntity
  8
0
100
AcDbVertex
100
AcDb2dVertex
 10
36.410515
 20
110.574623
 30
0.0
  0
VERTEX
  5
94
100
AcDbEntity
  8
0
100
AcDbVertex
100
AcDb2dVertex
 10
36.576145
 20
110.642555
 30
0.0
  0
VERTEX
  5
95
100
AcDbEntity
  8
0
100
AcDbVertex
100
AcDb2dVertex
 10
36.761997
 20
110.665199
 30
0.0
  0
SEQEND
  5
96
100
AcDbEntity
  8
0
  0
POLYLINE
  5
97
100
AcDbEntity
  8
0
 62
     7
100
AcDb2dPolyline
 66
     1
 10
0.0
 20
0.0
 30
0.0
 70
     1
 71
    12
  0
VERTEX
  5
98
100
AcDbEntity
  8
0
100
AcDbVertex
100
AcDb2dVertex
 10
37.484043
 20
110.337074
 30
0.0
  0
VERTEX
  5
99
100
AcDbEntity
  8
0
100
AcDbVertex
100
AcDb2dVertex
 10
36.770542
 20
110.337074
 30
0.0
  0
VERTEX
  5
9A
100
AcDbEntity
  8
0
100
AcDbVertex
100
AcDb2dVertex
 10
36.633076
 20
110.310799
 30
0.0
  0
VERTEX
  5
9B
100
AcDbEntity
  8
0
100
AcDbVertex
100
AcDb2dVertex
 10
36.51804
 20
110.231972
 30
0.0
  0
VERTEX
  5
9C
100
AcDbEntity
  8
0
100
AcDbVertex
100
AcDb2dVertex
 10
36.440174
 20
110.115547
 30
0.0
  0
VERTEX
  5
9D
100
AcDbEntity
  8
0
100
AcDbVertex
100
AcDb2dVertex
 10
36.414219
 20
109.976479
 30
0.0
  0
VERTEX
  5
9E
100
AcDbEntity
  8
0
100
AcDbVertex
100
AcDb2dVertex
 10
36.414219
 20
108.892982
 30
0.0
  0
VERTEX
  5
9F
100
AcDbEntity
  8
0
100
AcDbVertex
100
AcDb2dVertex
 10
36.440601
 20
108.75605
 30
0.0
  0
VERTEX
  5
A0
100
AcDbEntity
  8
0
100
AcDbVertex
100
AcDb2dVertex
 10
36.519749
 20
108.639198
 30
0.0
  0
VERTEX
  5
A1
100
AcDbEntity
  8
0
100
AcDbVertex
100
AcDb2dVertex
 10
36.635212
 20
108.55909
 30
0.0
  0
VERTEX
  5
A2
100
AcDbEntity
  8
0
100
AcDbVertex
100
AcDb2dVertex
 10
36.770542
 20
108.532387
 30
0.0
  0
VERTEX
  5
A3
100
AcDbEntity
  8
0
100
AcDbVertex
100
AcDb2dVertex
 10
37.484043
 20
108.532387
 30
0.0
  0
SEQEND
  5
A4
100
AcDbEntity
  8
0
  0
POLYLINE
  5
A5
100
AcDbEntity
  8
0
 62
     7
100
AcDb2dPolyline
 66
     1
 10
0.0
 20
0.0
 30
0.0
 70
     1
 71
    52
  0
VERTEX
  5
A6
100
AcDbEntity
  8
0
100
AcDbVertex
100
AcDb2dVertex
 10
39.890293
 20
108.819496
 30
0.0
  0
VERTEX
  5
A7
100
AcDbEntity
  8
0
100
AcDbVertex
100
AcDb2dVertex
 10
39.852268
 20
108.976295
 30
0.0
  0
VERTEX
  5
A8
100
AcDbEntity
  8
0
100
AcDbVertex
100
AcDb2dVertex
 10
39.738194
 20
109.080971
 30
0.0
  0
VERTEX
  5
A9
100
AcDbEntity
  8
0
100
AcDbVertex
100
AcDb2dVertex
 10
38.833286
 20
109.518471
 30
0.0
  0
VERTEX
  5
AA
100
AcDbEntity
  8
0
100
AcDbVertex
100
AcDb2dVertex
 10
38.630581
 20
109.653572
 30
0.0
  0
VERTEX
  5
AB
100
AcDbEntity
  8
0
100
AcDbVertex
100
AcDb2dVertex
 10
38.508957
 20
109.835579
 30
0.0
  0
VERTEX
  5
AC
100
AcDbEntity
  8
0
100
AcDbVertex
100
AcDb2dVertex
 10
38.468418
 20
110.064491
 30
0.0
  0
VERTEX
  5
AD
100
AcDbEntity
  8
0
100
AcDbVertex
100
AcDb2dVertex
 10
38.49633
 20
110.247734
 30
0.0
  0
VERTEX
  5
AE
100
AcDbEntity
  8
0
100
AcDbVertex
100
AcDb2dVertex
 10
38.58007
 20
110.40097
 30
0.0
  0
VERTEX
  5
AF
100
AcDbEntity
  8
0
100
AcDbVertex
100
AcDb2dVertex
 10
38.719639
 20
110.524208
 30
0.0
  0
VERTEX
  5
B0
100
AcDbEntity
  8
0
100
AcDbVertex
100
AcDb2dVertex
 10
38.875633
 20
110.602539
 30
0.0
  0
VERTEX
  5
B1
100
AcDbEntity
  8
0
100
AcDbVertex
100
AcDb2dVertex
 10
39.055359
 20
110.649536
 30
0.0
  0
VERTEX
  5
B2
100
AcDbEntity
  8
0
100
AcDbVertex
100
AcDb2dVertex
 10
39.258823
 20
110.665199
 30
0.0
  0
VERTEX
  5
B3
100
AcDbEntity
  8
0
100
AcDbVertex
100
AcDb2dVertex
 10
39.511185
 20
110.643745
 30
0.0
  0
VERTEX
  5
B4
100
AcDbEntity
  8
0
100
AcDbVertex
100
AcDb2dVertex
 10
39.745316
 20
110.579369
 30
0.0
  0
VERTEX
  5
B5
100
AcDbEntity
  8
0
100
AcDbVertex
100
AcDb2dVertex
 10
39.961216
 20
110.472084
 30
0.0
  0
VERTEX
  5
B6
100
AcDbEntity
  8
0
100
AcDbVertex
100
AcDb2dVertex
 10
40.054356
 20
110.318275
 30
0.0
  0
VERTEX
  5
B7
100
AcDbEntity
  8
0
100
AcDbVertex
100
AcDb2dVertex
 10
40.001377
 20
110.194801
 30
0.0
  0
VERTEX
  5
B8
100
AcDbEntity
  8
0
100
AcDbVertex
100
AcDb2dVertex
 10
39.874912
 20
110.143105
 30
0.0
  0
VERTEX
  5
B9
100
AcDbEntity
  8
0
100
AcDbVertex
100
AcDb2dVertex
 10
39.790318
 20
110.16703
 30
0.0
  0
VERTEX
  5
BA
100
AcDbEntity
  8
0
100
AcDbVertex
100
AcDb2dVertex
 10
39.614483
 20
110.261497
 30
0.0
  0
VERTEX
  5
BB
100
AcDbEntity
  8
0
100
AcDbVertex
100
AcDb2dVertex
 10
39.43219
 20
110.318184
 30
0.0
  0
VERTEX
  5
BC
100
AcDbEntity
  8
0
100
AcDbVertex
100
AcDb2dVertex
 10
39.243443
 20
110.337074
 30
0.0
  0
VERTEX
  5
BD
100
AcDbEntity
  8
0
100
AcDbVertex
100
AcDb2dVertex
 10
38.995163
 20
110.307358
 30
0.0
  0
VERTEX
  5
BE
100
AcDbEntity
  8
0
100
AcDbVertex
100
AcDb2dVertex
 10
38.846199
 20
110.218208
 30
0.0
  0
VERTEX
  5
BF
100
AcDbEntity
  8
0
100
AcDbVertex
100
AcDb2dVertex
 10
38.796543
 20
110.069618
 30
0.0
  0
VERTEX
  5
C0
100
AcDbEntity
  8
0
100
AcDbVertex
100
AcDb2dVertex
 10
38.838627
 20
109.924995
 30
0.0
  0
VERTEX
  5
C1
100
AcDbEntity
  8
0
100
AcDbVertex
100
AcDb2dVertex
 10
38.964878
 20
109.829506
 30
0.0
  0
VERTEX
  5
C2
100
AcDbEntity
  8
0
100
AcDbVertex
100
AcDb2dVertex
 10
39.87833
 20
109.379189
 30
0.0
  0
VERTEX
  5
C3
100
AcDbEntity
  8
0
100
AcDbVertex
100
AcDb2dVertex
 10
40.067268
 20
109.241234
 30
0.0
  0
VERTEX
  5
C4
100
AcDbEntity
  8
0
100
AcDbVertex
100
AcDb2dVertex
 10
40.18063
 20
109.055244
 30
0.0
  0
VERTEX
  5
C5
100
AcDbEntity
  8
0
100
AcDbVertex
100
AcDb2dVertex
 10
40.218418
 20
108.821205
 30
0.0
  0
VERTEX
  5
C6
100
AcDbEntity
  8
0
100
AcDbVertex
100
AcDb2dVertex
 10
40.190411
 20
108.625336
 30
0.0
  0
VERTEX
  5
C7
100
AcDbEntity
  8
0
100
AcDbVertex
100
AcDb2dVertex
 10
40.106384
 20
108.464973
 30
0.0
  0
VERTEX
  5
C8
100
AcDbEntity
  8
0
100
AcDbVertex
100
AcDb2dVertex
 10
39.966343
 20
108.340126
 30
0.0
  0
VERTEX
  5
C9
100
AcDbEntity
  8
0
100
AcDbVertex
100
AcDb2dVertex
 10
39.809494
 20
108.264648
 30
0.0
  0
VERTEX
  5
CA
100
AcDbEntity
  8
0
100
AcDbVertex
100
AcDb2dVertex
 10
39.624924
 20
108.21936
 30
0.0
  0
VERTEX
  5
CB
100
AcDbEntity
  8
0
100
AcDbVertex
100
AcDb2dVertex
 10
39.412632
 20
108.204262
 30
0.0
  0
VERTEX
  5
CC
100
AcDbEntity
  8
0
100
AcDbVertex
100
AcDb2dVertex
 10
39.170704
 20
108.216438
 30
0.0
  0
VERTEX
  5
CD
100
AcDbEntity
  8
0
100
AcDbVertex
100
AcDb2dVertex
 10
38.94907
 20
108.252968
 30
0.0
  0
VERTEX
  5
CE
100
AcDbEntity
  8
0
100
AcDbVertex
100
AcDb2dVertex
 10
38.74773
 20
108.31385
 30
0.0
  0
VERTEX
  5
CF
100
AcDbEntity
  8
0
100
AcDbVertex
100
AcDb2dVertex
 10
38.566685
 20
108.399086
 30
0.0
  0
VERTEX
  5
D0
100
AcDbEntity
  8
0
100
AcDbVertex
100
AcDb2dVertex
 10
38.468418
 20
108.557167
 30
0.0
  0
VERTEX
  5
D1
100
AcDbEntity
  8
0
100
AcDbVertex
100
AcDb2dVertex
 10
38.520969
 20
108.681068
 30
0.0
  0
VERTEX
  5
D2
100
AcDbEntity
  8
0
100
AcDbVertex
100
AcDb2dVertex
 10
38.646152
 20
108.733192
 30
0.0
  0
VERTEX
  5
D3
100
AcDbEntity
  8
0
100
AcDbVertex
100
AcDb2dVertex
 10
38.713657
 20
108.717812
 30
0.0
  0
VERTEX
  5
D4
100
AcDbEntity
  8
0
100
AcDbVertex
100
AcDb2dVertex
 10
38.820042
 20
108.668251
 30
0.0
  0
VERTEX
  5
D5
100
AcDbEntity
  8
0
100
AcDbVertex
100
AcDb2dVertex
 10
38.966587
 20
108.605019
 30
0.0
  0
VERTEX
  5
D6
100
AcDbEntity
  8
0
100
AcDbVertex
100
AcDb2dVertex
 10
39.205845
 20
108.550545
 30
0.0
  0
VERTEX
  5
D7
100
AcDbEntity
  8
0
100
AcDbVertex
100
AcDb2dVertex
 10
39.438267
 20
108.532387
 30
0.0
  0
VERTEX
  5
D8
100
AcDbEntity
  8
0
100
AcDbVertex
100
AcDb2dVertex
 10
39.689392
 20
108.564285
 30
0.0
  0
VERTEX
  5
D9
100
AcDbEntity
  8
0
100
AcDbVertex
100
AcDb2dVertex
 10
39.840069
 20
108.659988
 30
0.0
  0
SEQEND
  5
DA
100
AcDbEntity
  8
0
  0
POLYLINE
  5
DB
100
AcDbEntity
  8
0
 62
     7
100
AcDb2dPolyline
 66
     1
 10
0.0
 20
0.0
 30
0.0
 70
     1
 71
    20
  0
VERTEX
  5
DC
100
AcDbEntity
  8
0
100
AcDbVertex
100
AcDb2dVertex
 10
40.874668
 20
110.490028
 30
0.0
  0
VERTEX
  5
DD
100
AcDbEntity
  8
0
100
AcDbVertex
100
AcDb2dVertex
 10
41.049839
 20
110.665199
 30
0.0
  0
VERTEX
  5
DE
100
AcDbEntity
  8
0
100
AcDbVertex
100
AcDb2dVertex
 10
41.924839
 20
110.665199
 30
0.0
  0
VERTEX
  5
DF
100
AcDbEntity
  8
0
100
AcDbVertex
100
AcDb2dVertex
 10
42.110691
 20
110.642555
 30
0.0
  0
VERTEX
  5
E0
100
AcDbEntity
  8
0
100
AcDbVertex
100
AcDb2dVertex
 10
42.276321
 20
110.574623
 30
0.0
  0
VERTEX
  5
E1
100
AcDbEntity
  8
0
100
AcDbVertex
100
AcDb2dVertex
 10
42.421726
 20
110.461403
 30
0.0
  0
VERTEX
  5
E2
100
AcDbEntity
  8
0
100
AcDbVertex
100
AcDb2dVertex
 10
42.53447
 20
110.315331
 30
0.0
  0
VERTEX
  5
E3
100
AcDbEntity
  8
0
100
AcDbVertex
100
AcDb2dVertex
 10
42.602119
 20
110.148849
 30
0.0
  0
VERTEX
  5
E4
100
AcDbEntity
  8
0
100
AcDbVertex
100
AcDb2dVertex
 10
42.624668
 20
109.961952
 30
0.0
  0
VERTEX
  5
E5
100
AcDbEntity
  8
0
100
AcDbVertex
100
AcDb2dVertex
 10
42.624668
 20
108.907509
 30
0.0
  0
VERTEX
  5
E6
100
AcDbEntity
  8
0
100
AcDbVertex
100
AcDb2dVertex
 10
42.601788
 20
108.721893
 30
0.0
  0
VERTEX
  5
E7
100
AcDbEntity
  8
0
100
AcDbVertex
100
AcDb2dVertex
 10
42.533142
 20
108.55584
 30
0.0
  0
VERTEX
  5
E8
100
AcDbEntity
  8
0
100
AcDbVertex
100
AcDb2dVertex
 10
42.418736
 20
108.40934
 30
0.0
  0
VERTEX
  5
E9
100
AcDbEntity
  8
0
100
AcDbVertex
100
AcDb2dVertex
 10
42.271099
 20
108.29541
 30
0.0
  0
VERTEX
  5
EA
100
AcDbEntity
  8
0
100
AcDbVertex
100
AcDb2dVertex
 10
42.102764
 20
108.227051
 30
0.0
  0
VERTEX
  5
EB
100
AcDbEntity
  8
0
100
AcDbVertex
100
AcDb2dVertex
 10
41.913731
 20
108.204262
 30
0.0
  0
VERTEX
  5
EC
100
AcDbEntity
  8
0
100
AcDbVertex
100
AcDb2dVertex
 10
41.202793
 20
108.204262
 30
0.0
  0
VERTEX
  5
ED
100
AcDbEntity
  8
0
100
AcDbVertex
100
AcDb2dVertex
 10
41.202793
 20
107.338661
 30
0.0
  0
VERTEX
  5
EE
100
AcDbEntity
  8
0
100
AcDbVertex
100
AcDb2dVertex
 10
41.038731
 20
107.165199
 30
0.0
  0
VERTEX
  5
EF
100
AcDbEntity
  8
0
100
AcDbVertex
100
AcDb2dVertex
 10
40.874668
 20
107.34037
 30
0.0
  0
SEQEND
  5
F0
100
AcDbEntity
  8
0
  0
POLYLINE
  5
F1
100
AcDbEntity
  8
0
 62
     7
100
AcDb2dPolyline
 66
     1
 10
0.0
 20
0.0
 30
0.0
 70
     1
 71
    12
  0
VERTEX
  5
F2
100
AcDbEntity
  8
0
100
AcDbVertex
100
AcDb2dVertex
 10
41.202793
 20
110.337074
 30
0.0
  0
VERTEX
  5
F3
100
AcDbEntity
  8
0
100
AcDbVertex
100
AcDb2dVertex
 10
41.202793
 20
108.532387
 30
0.0
  0
VERTEX
  5
F4
100
AcDbEntity
  8
0
100
AcDbVertex
100
AcDb2dVertex
 10
41.931675
 20
108.532387
 30
0.0
  0
VERTEX
  5
F5
100
AcDbEntity
  8
0
100
AcDbVertex
100
AcDb2dVertex
 10
42.072346
 20
108.558662
 30
0.0
  0
VERTEX
  5
F6
100
AcDbEntity
  8
0
100
AcDbVertex
100
AcDb2dVertex
 10
42.190159
 20
108.637489
 30
0.0
  0
VERTEX
  5
F7
100
AcDbEntity
  8
0
100
AcDbVertex
100
AcDb2dVertex
 10
42.269947
 20
108.753914
 30
0.0
  0
VERTEX
  5
F8
100
AcDbEntity
  8
0
100
AcDbVertex
100
AcDb2dVertex
 10
42.296543
 20
108.892982
 30
0.0
  0
VERTEX
  5
F9
100
AcDbEntity
  8
0
100
AcDbVertex
100
AcDb2dVertex
 10
42.296543
 20
109.976479
 30
0.0
  0
VERTEX
  5
FA
100
AcDbEntity
  8
0
100
AcDbVertex
100
AcDb2dVertex
 10
42.270267
 20
110.117149
 30
0.0
  0
VERTEX
  5
FB
100
AcDbEntity
  8
0
100
AcDbVertex
100
AcDb2dVertex
 10
42.191441
 20
110.233253
 30
0.0
  0
VERTEX
  5
FC
100
AcDbEntity
  8
0
100
AcDbVertex
100
AcDb2dVertex
 10
42.073948
 20
110.311119
 30
0.0
  0
VERTEX
  5
FD
100
AcDbEntity
  8
0
100
AcDbVertex
100
AcDb2dVertex
 10
41.931675
 20
110.337074
 30
0.0
  0
SEQEND
  5
FE
100
AcDbEntity
  8
0
  0
POLYLINE
  5
FF
100
AcDbEntity
  8
0
 62
     7
100
AcDb2dPolyline
 66
     1
 10
0.0
 20
0.0
 30
0.0
 70
     1
 71
    30
  0
VERTEX
  5
100
100
AcDbEntity
  8
0
100
AcDbVertex
100
AcDb2dVertex
 10
43.980747
 20
108.204262
 30
0.0
  0
VERTEX
  5
101
100
AcDbEntity
  8
0
100
AcDbVertex
100
AcDb2dVertex
 10
43.794895
 20
108.226288
 30
0.0
  0
VERTEX
  5
102
100
AcDbEntity
  8
0
100
AcDbVertex
100
AcDb2dVertex
 10
43.629265
 20
108.292366
 30
0.0
  0
VERTEX
  5
103
100
AcDbEntity
  8
0
100
AcDbVertex
100
AcDb2dVertex
 10
43.48386
 20
108.402504
 30
0.0
  0
VERTEX
  5
104
100
AcDbEntity
  8
0
100
AcDbVertex
100
AcDb2dVertex
 10
43.371117
 20
108.54454
 30
0.0
  0
VERTEX
  5
105
100
AcDbEntity
  8
0
100
AcDbVertex
100
AcDb2dVertex
 10
43.303467
 20
108.706322
 30
0.0
  0
VERTEX
  5
106
100
AcDbEntity
  8
0
100
AcDbVertex
100
AcDb2dVertex
 10
43.280918
 20
108.887856
 30
0.0
  0
VERTEX
  5
107
100
AcDbEntity
  8
0
100
AcDbVertex
100
AcDb2dVertex
 10
43.304417
 20
109.067085
 30
0.0
  0
VERTEX
  5
108
100
AcDbEntity
  8
0
100
AcDbVertex
100
AcDb2dVertex
 10
43.374912
 20
109.232216
 30
0.0
  0
VERTEX
  5
109
100
AcDbEntity
  8
0
100
AcDbVertex
100
AcDb2dVertex
 10
43.53347
 20
109.420677
 30
0.0
  0
VERTEX
  5
10A
100
AcDbEntity
  8
0
100
AcDbVertex
100
AcDb2dVertex
 10
43.739117
 20
109.53376
 30
0.0
  0
VERTEX
  5
10B
100
AcDbEntity
  8
0
100
AcDbVertex
100
AcDb2dVertex
 10
43.991856
 20
109.571449
 30
0.0
  0
VERTEX
  5
10C
100
AcDbEntity
  8
0
100
AcDbVertex
100
AcDb2dVertex
 10
44.702793
 20
109.571449
 30
0.0
  0
VERTEX
  5
10D
100
AcDbEntity
  8
0
100
AcDbVertex
100
AcDb2dVertex
 10
44.702793
 20
109.954262
 30
0.0
  0
VERTEX
  5
10E
100
AcDbEntity
  8
0
100
AcDbVertex
100
AcDb2dVertex
 10
44.676517
 20
110.103584
 30
0.0
  0
VERTEX
  5
10F
100
AcDbEntity
  8
0
100
AcDbVertex
100
AcDb2dVertex
 10
44.597691
 20
110.226845
 30
0.0
  0
VERTEX
  5
110
100
AcDbEntity
  8
0
100
AcDbVertex
100
AcDb2dVertex
 10
44.480198
 20
110.309517
 30
0.0
  0
VERTEX
  5
111
100
AcDbEntity
  8
0
100
AcDbVertex
100
AcDb2dVertex
 10
44.337925
 20
110.337074
 30
0.0
  0
VERTEX
  5
112
100
AcDbEntity
  8
0
100
AcDbVertex
100
AcDb2dVertex
 10
43.609043
 20
110.337074
 30
0.0
  0
VERTEX
  5
113
100
AcDbEntity
  8
0
100
AcDbVertex
100
AcDb2dVertex
 10
43.456944
 20
110.501137
 30
0.0
  0
VERTEX
  5
114
100
AcDbEntity
  8
0
100
AcDbVertex
100
AcDb2dVertex
 10
43.609043
 20
110.665199
 30
0.0
  0
VERTEX
  5
115
100
AcDbEntity
  8
0
100
AcDbVertex
100
AcDb2dVertex
 10
44.319981
 20
110.665199
 30
0.0
  0
VERTEX
  5
116
100
AcDbEntity
  8
0
100
AcDbVertex
100
AcDb2dVertex
 10
44.509014
 20
110.642555
 30
0.0
  0
VERTEX
  5
117
100
AcDbEntity
  8
0
100
AcDbVertex
100
AcDb2dVertex
 10
44.677349
 20
110.574623
 30
0.0
  0
VERTEX
  5
118
100
AcDbEntity
  8
0
100
AcDbVertex
100
AcDb2dVertex
 10
44.824986
 20
110.461403
 30
0.0
  0
VERTEX
  5
119
100
AcDbEntity
  8
0
100
AcDbVertex
100
AcDb2dVertex
 10
44.939392
 20
110.315331
 30
0.0
  0
VERTEX
  5
11A
100
AcDbEntity
  8
0
100
AcDbVertex
100
AcDb2dVertex
 10
45.008038
 20
110.148849
 30
0.0
  0
VERTEX
  5
11B
100
AcDbEntity
  8
0
100
AcDbVertex
100
AcDb2dVertex
 10
45.030918
 20
109.961952
 30
0.0
  0
VERTEX
  5
11C
100
AcDbEntity
  8
0
100
AcDbVertex
100
AcDb2dVertex
 10
45.030918
 20
108.380287
 30
0.0
  0
VERTEX
  5
11D
100
AcDbEntity
  8
0
100
AcDbVertex
100
AcDb2dVertex
 10
44.855747
 20
108.204262
 30
0.0
  0
SEQEND
  5
11E
100
AcDbEntity
  8
0
  0
POLYLINE
  5
11F
100
AcDbEntity
  8
0
 62
     7
100
AcDb2dPolyline
 66
     1
 10
0.0
 20
0.0
 30
0.0
 70
     1
 71
    11
  0
VERTEX
  5
120
100
AcDbEntity
  8
0
100
AcDbVertex
100
AcDb2dVertex
 10
44.702793
 20
109.243324
 30
0.0
  0
VERTEX
  5
121
100
AcDbEntity
  8
0
100
AcDbVertex
100
AcDb2dVertex
 10
43.989292
 20
109.243324
 30
0.0
  0
VERTEX
  5
122
100
AcDbEntity
  8
0
100
AcDbVertex
100
AcDb2dVertex
 10
43.851826
 20
109.217369
 30
0.0
  0
VERTEX
  5
123
100
AcDbEntity
  8
0
100
AcDbVertex
100
AcDb2dVertex
 10
43.73679
 20
109.139503
 30
0.0
  0
VERTEX
  5
124
100
AcDbEntity
  8
0
100
AcDbVertex
100
AcDb2dVertex
 10
43.658924
 20
109.024681
 30
0.0
  0
VERTEX
  5
125
100
AcDbEntity
  8
0
100
AcDbVertex
100
AcDb2dVertex
 10
43.632969
 20
108.887856
 30
0.0
  0
VERTEX
  5
126
100
AcDbEntity
  8
0
100
AcDbVertex
100
AcDb2dVertex
 10
43.659351
 20
108.752632
 30
0.0
  0
VERTEX
  5
127
100
AcDbEntity
  8
0
100
AcDbVertex
100
AcDb2dVertex
 10
43.738499
 20
108.637489
 30
0.0
  0
VERTEX
  5
128
100
AcDbEntity
  8
0
100
AcDbVertex
100
AcDb2dVertex
 10
43.853962
 20
108.558662
 30
0.0
  0
VERTEX
  5
129
100
AcDbEntity
  8
0
100
AcDbVertex
100
AcDb2dVertex
 10
43.989292
 20
108.532387
 30
0.0
  0
VERTEX
  5
12A
100
AcDbEntity
  8
0
100
AcDbVertex
100
AcDb2dVertex
 10
44.702793
 20
108.532387
 30
0.0
  0
SEQEND
  5
12B
100
AcDbEntity
  8
0
  0
POLYLINE
  5
12C
100
AcDbEntity
  8
0
 62
     7
100
AcDb2dPolyline
 66
     1
 10
0.0
 20
0.0
 30
0.0
 70
     1
 71
    21
  0
VERTEX
  5
12D
100
AcDbEntity
  8
0
100
AcDbVertex
100
AcDb2dVertex
 10
45.687168
 20
108.380287
 30
0.0
  0
VERTEX
  5
12E
100
AcDbEntity
  8
0
100
AcDbVertex
100
AcDb2dVertex
 10
45.687168
 20
110.489174
 30
0.0
  0
VERTEX
  5
12F
100
AcDbEntity
  8
0
100
AcDbVertex
100
AcDb2dVertex
 10
45.862339
 20
110.665199
 30
0.0
  0
VERTEX
  5
130
100
AcDbEntity
  8
0
100
AcDbVertex
100
AcDb2dVertex
 10
46.737339
 20
110.665199
 30
0.0
  0
VERTEX
  5
131
100
AcDbEntity
  8
0
100
AcDbVertex
100
AcDb2dVertex
 10
46.923191
 20
110.642555
 30
0.0
  0
VERTEX
  5
132
100
AcDbEntity
  8
0
100
AcDbVertex
100
AcDb2dVertex
 10
47.088821
 20
110.574623
 30
0.0
  0
VERTEX
  5
133
100
AcDbEntity
  8
0
100
AcDbVertex
100
AcDb2dVertex
 10
47.234226
 20
110.461403
 30
0.0
  0
VERTEX
  5
134
100
AcDbEntity
  8
0
100
AcDbVertex
100
AcDb2dVertex
 10
47.34697
 20
110.315331
 30
0.0
  0
VERTEX
  5
135
100
AcDbEntity
  8
0
100
AcDbVertex
100
AcDb2dVertex
 10
47.414619
 20
110.148849
 30
0.0
  0
VERTEX
  5
136
100
AcDbEntity
  8
0
100
AcDbVertex
100
AcDb2dVertex
 10
47.437168
 20
109.961952
 30
0.0
  0
VERTEX
  5
137
100
AcDbEntity
  8
0
100
AcDbVertex
100
AcDb2dVertex
 10
47.437168
 20
108.380287
 30
0.0
  0
VERTEX
  5
138
100
AcDbEntity
  8
0
100
AcDbVertex
100
AcDb2dVertex
 10
47.273106
 20
108.204262
 30
0.0
  0
VERTEX
  5
139
100
AcDbEntity
  8
0
100
AcDbVertex
100
AcDb2dVertex
 10
47.109043
 20
108.381996
 30
0.0
  0
VERTEX
  5
13A
100
AcDbEntity
  8
0
100
AcDbVertex
100
AcDb2dVertex
 10
47.109043
 20
109.981606
 30
0.0
  0
VERTEX
  5
13B
100
AcDbEntity
  8
0
100
AcDbVertex
100
AcDb2dVertex
 10
47.082767
 20
110.120033
 30
0.0
  0
VERTEX
  5
13C
100
AcDbEntity
  8
0
100
AcDbVertex
100
AcDb2dVertex
 10
47.003941
 20
110.234535
 30
0.0
  0
VERTEX
  5
13D
100
AcDbEntity
  8
0
100
AcDbVertex
100
AcDb2dVertex
 10
46.886448
 20
110.31144
 30
0.0
  0
VERTEX
  5
13E
100
AcDbEntity
  8
0
100
AcDbVertex
100
AcDb2dVertex
 10
46.744175
 20
110.337074
 30
0.0
  0
VERTEX
  5
13F
100
AcDbEntity
  8
0
100
AcDbVertex
100
AcDb2dVertex
 10
46.015293
 20
110.337074
 30
0.0
  0
VERTEX
  5
140
100
AcDbEntity
  8
0
100
AcDbVertex
100
AcDb2dVertex
 10
46.015293
 20
108.381996
 30
0.0
  0
VERTEX
  5
141
100
AcDbEntity
  8
0
100
AcDbVertex
100
AcDb2dVertex
 10
45.851231
 20
108.204262
 30
0.0
  0
SEQEND
  5
142
100
AcDbEntity
  8
0
  0
POLYLINE
  5
143
100
AcDbEntity
  8
0
 62
     7
100
AcDb2dPolyline
 66
     1
 10
0.0
 20
0.0
 30
0.0
 70
     1
 71
    18
  0
VERTEX
  5
144
100
AcDbEntity
  8
0
100
AcDbVertex
100
AcDb2dVertex
 10
48.421543
 20
110.337074
 30
0.0
  0
VERTEX
  5
145
100
AcDbEntity
  8
0
100
AcDbVertex
100
AcDb2dVertex
 10
48.257481
 20
110.337074
 30
0.0
  0
VERTEX
  5
146
100
AcDbEntity
  8
0
100
AcDbVertex
100
AcDb2dVertex
 10
48.093418
 20
110.501137
 30
0.0
  0
VERTEX
  5
147
100
AcDbEntity
  8
0
100
AcDbVertex
100
AcDb2dVertex
 10
48.257481
 20
110.665199
 30
0.0
  0
VERTEX
  5
148
100
AcDbEntity
  8
0
100
AcDbVertex
100
AcDb2dVertex
 10
48.421543
 20
110.665199
 30
0.0
  0
VERTEX
  5
149
100
AcDbEntity
  8
0
100
AcDbVertex
100
AcDb2dVertex
 10
48.421543
 20
111.5308
 30
0.0
  0
VERTEX
  5
14A
100
AcDbEntity
  8
0
100
AcDbVertex
100
AcDb2dVertex
 10
48.585606
 20
111.704262
 30
0.0
  0
VERTEX
  5
14B
100
AcDbEntity
  8
0
100
AcDbVertex
100
AcDb2dVertex
 10
48.749668
 20
111.5308
 30
0.0
  0
VERTEX
  5
14C
100
AcDbEntity
  8
0
100
AcDbVertex
100
AcDb2dVertex
 10
48.749668
 20
110.665199
 30
0.0
  0
VERTEX
  5
14D
100
AcDbEntity
  8
0
100
AcDbVertex
100
AcDb2dVertex
 10
49.323887
 20
110.665199
 30
0.0
  0
VERTEX
  5
14E
100
AcDbEntity
  8
0
100
AcDbVertex
100
AcDb2dVertex
 10
49.467442
 20
110.624184
 30
0.0
  0
VERTEX
  5
14F
100
AcDbEntity
  8
0
100
AcDbVertex
100
AcDb2dVertex
 10
49.515293
 20
110.501137
 30
0.0
  0
VERTEX
  5
150
100
AcDbEntity
  8
0
100
AcDbVertex
100
AcDb2dVertex
 10
49.467442
 20
110.37809
 30
0.0
  0
VERTEX
  5
151
100
AcDbEntity
  8
0
100
AcDbVertex
100
AcDb2dVertex
 10
49.323887
 20
110.337074
 30
0.0
  0
VERTEX
  5
152
100
AcDbEntity
  8
0
100
AcDbVertex
100
AcDb2dVertex
 10
48.749668
 20
110.337074
 30
0.0
  0
VERTEX
  5
153
100
AcDbEntity
  8
0
100
AcDbVertex
100
AcDb2dVertex
 10
48.749668
 20
108.381996
 30
0.0
  0
VERTEX
  5
154
100
AcDbEntity
  8
0
100
AcDbVertex
100
AcDb2dVertex
 10
48.585606
 20
108.204262
 30
0.0
  0
VERTEX
  5
155
100
AcDbEntity
  8
0
100
AcDbVertex
100
AcDb2dVertex
 10
48.421543
 20
108.381996
 30
0.0
  0
SEQEND
  5
156
100
AcDbEntity
  8
0
  0
ARC
  5
157
100
AcDbEntity
  8
0
 62
     7
100
AcDbCircle
 10
40.484043
 20
109.878624
 30
0.0
 40
33.5
210
0.0
220
0.0
230
1.0
100
AcDbArc
 50
92.480741
 51
207.519261
  0
LINE
  5
158
100
AcDbEntity
  8
0
 62
     7
 48
0.074215
100
AcDbLine
 10
10.774382
 20
94.400055
 30
0.0
 11
13.345268
 21
95.884361
 31
0.0
210
0.0
220
0.0
230
1.0
  0
ARC
  5
159
100
AcDbEntity
  8
0
 62
     7
100
AcDbCircle
 10
13.357769
 20
95.862709
 30
0.0
 40
0.025
210
0.0
220
0.0
230
1.0
100
AcDbArc
 50
30.0
 51
120.000003
  0
LINE
  5
15A
100
AcDbEntity
  8
0
 62
     7
 48
0.07125
100
AcDbLine
 10
13.379419
 20
95.875214
 30
0.0
 11
14.804419
 21
93.407036
 31
0.0
210
0.0
220
0.0
230
1.0
  0
ARC
  5
15B
100
AcDbEntity
  8
0
 62
     7
100
AcDbCircle
 10
14.782768
 20
93.394539
 30
0.0
 40
0.025
210
0.0
220
0.0
230
1.0
100
AcDbArc
 50
299.999994
 51
30.000003
  0
LINE
  5
15C
100
AcDbEntity
  8
0
 62
     7
 48
0.074215
100
AcDbLine
 10
14.795269
 20
93.372887
 30
0.0
 11
12.22438
 21
91.88858
 31
0.0
210
0.0
220
0.0
230
1.0
  0
ARC
  5
15D
100
AcDbEntity
  8
0
 62
     7
100
AcDbCircle
 10
40.484043
 20
109.878624
 30
0.0
 40
33.5
210
0.0
220
0.0
230
1.0
100
AcDbArc
 50
212.480738
 51
327.519262
  0
LINE
  5
15E
100
AcDbEntity
  8
0
 62
     7
 48
0.074215
100
AcDbLine
 10
66.172821
 20
93.372887
 30
0.0
 11
68.743706
 21
91.88858
 31
0.0
210
0.0
220
0.0
230
1.0
  0
ARC
  5
15F
100
AcDbEntity
  8
0
 62
     7
100
AcDbCircle
 10
66.185318
 20
93.394539
 30
0.0
 40
0.025
210
0.0
220
0.0
230
1.0
100
AcDbArc
 50
149.999997
 51
240.000006
  0
LINE
  5
160
100
AcDbEntity
  8
0
 62
     7
 48
0.07125
100
AcDbLine
 10
67.588669
 20
95.875214
 30
0.0
 11
66.163666
 21
93.407036
 31
0.0
210
0.0
220
0.0
230
1.0
  0
ARC
  5
161
100
AcDbEntity
  8
0
 62
     7
100
AcDbCircle
 10
67.610321
 20
95.862709
 30
0.0
 40
0.025
210
0.0
220
0.0
230
1.0
100
AcDbArc
 50
60.000003
 51
149.999997
  0
LINE
  5
162
100
AcDbEntity
  8
0
 62
     7
 48
0.074215
100
AcDbLine
 10
70.193703
 20
94.400055
 30
0.0
 11
67.622818
 21
95.884361
 31
0.0
210
0.0
220
0.0
230
1.0
  0
ARC
  5
163
100
AcDbEntity
  8
0
 62
     7
100
AcDbCircle
 10
40.484043
 20
109.878624
 30
0.0
 40
33.5
210
0.0
220
0.0
230
1.0
100
AcDbArc
 50
332.48074
 51
87.519267
  0
LINE
  5
164
100
AcDbEntity
  8
0
 62
     7
 48
0.074215
100
AcDbLine
 10
41.934044
 20
140.378632
 30
0.0
 11
41.934044
 21
143.347229
 31
0.0
210
0.0
220
0.0
230
1.0
  0
ARC
  5
165
100
AcDbEntity
  8
0
 62
     7
100
AcDbCircle
 10
41.909042
 20
140.378632
 30
0.0
 40
0.025
210
0.0
220
0.0
230
1.0
100
AcDbArc
 50
270.000001
 51
0.00001
  0
LINE
  5
166
100
AcDbEntity
  8
0
 62
     7
 48
0.07125
100
AcDbLine
 10
39.059044
 20
140.353622
 30
0.0
 11
41.909042
 21
140.353622
 31
0.0
210
0.0
220
0.0
230
1.0
  0
ARC
  5
167
100
AcDbEntity
  8
0
 62
     7
100
AcDbCircle
 10
39.059044
 20
140.378632
 30
0.0
 40
0.025
210
0.0
220
0.0
230
1.0
100
AcDbArc
 50
180.000005
 51
270.000001
  0
LINE
  5
168
100
AcDbEntity
  8
0
 62
     7
 48
0.074215
100
AcDbLine
 10
39.034042
 20
143.347229
 30
0.0
 11
39.034042
 21
140.378632
 31
0.0
210
0.0
220
0.0
230
1.0
  0
CIRCLE
  5
169
100
AcDbEntity
  8
0
 62
     7
100
AcDbCircle
 10
16.668344
 20
123.628624
 30
0.0
 40
1.5
210
0.0
220
0.0
230
1.0
  0
CIRCLE
  5
16A
100
AcDbEntity
  8
0
 62
     7
100
AcDbCircle
 10
64.299744
 20
123.628624
 30
0.0
 40
1.5
210
0.0
220
0.0
230
1.0
  0
CIRCLE
  5
16B
100
AcDbEntity
  8
0
 62
     7
100
AcDbCircle
 10
40.484043
 20
82.378624
 30
0.0
 40
1.5
210
0.0
220
0.0
230
1.0
  0
ARC
  5
16C
100
AcDbEntity
  8
0
 62
     7
100
AcDbCircle
 10
16.79493
 20
116.129692
 30
0.0
 40
3.0
210
0.0
220
0.0
230
1.0
100
AcDbArc
 50
90.967075
 51
165.217781
  0
ARC
  5
16D
100
AcDbEntity
  8
0
 62
     7
100
AcDbCircle
 10
16.668344
 20
123.628624
 30
0.0
 40
4.5
210
0.0
220
0.0
230
1.0
100
AcDbArc
 50
270.967074
 51
29.032931
  0
ARC
  5
16E
100
AcDbEntity
  8
0
 62
     7
100
AcDbCircle
 10
23.225903
 20
127.268463
 30
0.0
 40
3.0
210
0.0
220
0.0
230
1.0
100
AcDbArc
 50
134.782213
 51
209.032927
  0
ARC
  5
16F
100
AcDbEntity
  8
0
 62
     7
100
AcDbCircle
 10
40.484043
 20
109.878624
 30
0.0
 40
27.5
210
0.0
220
0.0
230
1.0
100
AcDbArc
 50
165.217781
 51
254.782202
  0
ARC
  5
170
100
AcDbEntity
  8
0
 62
     7
100
AcDbCircle
 10
34.05307
 20
86.237717
 30
0.0
 40
3.0
210
0.0
220
0.0
230
1.0
100
AcDbArc
 50
254.782202
 51
329.032916
  0
ARC
  5
171
100
AcDbEntity
  8
0
 62
     7
100
AcDbCircle
 10
40.484043
 20
82.378624
 30
0.0
 40
4.5
210
0.0
220
0.0
230
1.0
100
AcDbArc
 50
30.967076
 51
149.032924
  0
ARC
  5
172
100
AcDbEntity
  8
0
 62
     7
100
AcDbCircle
 10
46.915016
 20
86.237717
 30
0.0
 40
3.0
210
0.0
220
0.0
230
1.0
100
AcDbArc
 50
210.967072
 51
285.217771
  0
ARC
  5
173
100
AcDbEntity
  8
0
 62
     7
100
AcDbCircle
 10
40.484043
 20
109.878624
 30
0.0
 40
27.5
210
0.0
220
0.0
230
1.0
100
AcDbArc
 50
45.217787
 51
134.782213
  0
ARC
  5
174
100
AcDbEntity
  8
0
 62
     7
100
AcDbCircle
 10
57.742184
 20
127.268463
 30
0.0
 40
3.0
210
0.0
220
0.0
230
1.0
100
AcDbArc
 50
330.967089
 51
45.217773
  0
ARC
  5
175
100
AcDbEntity
  8
0
 62
     7
100
AcDbCircle
 10
64.173157
 20
116.129692
 30
0.0
 40
3.0
210
0.0
220
0.0
230
1.0
100
AcDbArc
 50
14.782215
 51
89.032923
  0
ARC
  5
176
100
AcDbEntity
  8
0
 62
     7
100
AcDbCircle
 10
40.484043
 20
109.878624
 30
0.0
 40
27.5
210
0.0
220
0.0
230
1.0
100
AcDbArc
 50
285.217771
 51
14.782206
  0
ARC
  5
177
100
AcDbEntity
  8
0
 62
     7
100
AcDbCircle
 10
64.299744
 20
123.628624
 30
0.0
 40
4.5
210
0.0
220
0.0
230
1.0
100
AcDbArc
 50
150.967084
 51
269.032928
  0
POLYLINE
  5
178
100
AcDbEntity
  8
0
 62
     7
100
AcDb2dPolyline
 66
     1
 10
0.0
 20
0.0
 30
0.0
 70
     1
 71
    17
  0
VERTEX
  5
179
100
AcDbEntity
  8
0
100
AcDbVertex
100
AcDb2dVertex
 10
101.116837
 20
108.428177
 30
0.0
  0
VERTEX
  5
17A
100
AcDbEntity
  8
0
100
AcDbVertex
100
AcDb2dVertex
 10
101.116837
 20
111.577835
 30
0.0
  0
VERTEX
  5
17B
100
AcDbEntity
  8
0
100
AcDbVertex
100
AcDb2dVertex
 10
101.292007
 20
111.753006
 30
0.0
  0
VERTEX
  5
17C
100
AcDbEntity
  8
0
100
AcDbVertex
100
AcDb2dVertex
 10
102.691666
 20
111.753006
 30
0.0
  0
VERTEX
  5
17D
100
AcDbEntity
  8
0
100
AcDbVertex
100
AcDb2dVertex
 10
102.866837
 20
111.588943
 30
0.0
  0
VERTEX
  5
17E
100
AcDbEntity
  8
0
100
AcDbVertex
100
AcDb2dVertex
 10
102.689102
 20
111.424881
 30
0.0
  0
VERTEX
  5
17F
100
AcDbEntity
  8
0
100
AcDbVertex
100
AcDb2dVertex
 10
101.444962
 20
111.424881
 30
0.0
  0
VERTEX
  5
180
100
AcDbEntity
  8
0
100
AcDbVertex
100
AcDb2dVertex
 10
101.444962
 20
110.385818
 30
0.0
  0
VERTEX
  5
181
100
AcDbEntity
  8
0
100
AcDbVertex
100
AcDb2dVertex
 10
102.356705
 20
110.385818
 30
0.0
  0
VERTEX
  5
182
100
AcDbEntity
  8
0
100
AcDbVertex
100
AcDb2dVertex
 10
102.538712
 20
110.221756
 30
0.0
  0
VERTEX
  5
183
100
AcDbEntity
  8
0
100
AcDbVertex
100
AcDb2dVertex
 10
102.356705
 20
110.057693
 30
0.0
  0
VERTEX
  5
184
100
AcDbEntity
  8
0
100
AcDbVertex
100
AcDb2dVertex
 10
101.444962
 20
110.057693
 30
0.0
  0
VERTEX
  5
185
100
AcDbEntity
  8
0
100
AcDbVertex
100
AcDb2dVertex
 10
101.444962
 20
108.581131
 30
0.0
  0
VERTEX
  5
186
100
AcDbEntity
  8
0
100
AcDbVertex
100
AcDb2dVertex
 10
102.689102
 20
108.581131
 30
0.0
  0
VERTEX
  5
187
100
AcDbEntity
  8
0
100
AcDbVertex
100
AcDb2dVertex
 10
102.866837
 20
108.417068
 30
0.0
  0
VERTEX
  5
188
100
AcDbEntity
  8
0
100
AcDbVertex
100
AcDb2dVertex
 10
102.691666
 20
108.253006
 30
0.0
  0
VERTEX
  5
189
100
AcDbEntity
  8
0
100
AcDbVertex
100
AcDb2dVertex
 10
101.292007
 20
108.253006
 30
0.0
  0
SEQEND
  5
18A
100
AcDbEntity
  8
0
  0
POLYLINE
  5
18B
100
AcDbEntity
  8
0
 62
     7
100
AcDb2dPolyline
 66
     1
 10
0.0
 20
0.0
 30
0.0
 70
     1
 71
    19
  0
VERTEX
  5
18C
100
AcDbEntity
  8
0
100
AcDbVertex
100
AcDb2dVertex
 10
105.273087
 20
110.010696
 30
0.0
  0
VERTEX
  5
18D
100
AcDbEntity
  8
0
100
AcDbVertex
100
AcDb2dVertex
 10
105.273087
 20
108.956253
 30
0.0
  0
VERTEX
  5
18E
100
AcDbEntity
  8
0
100
AcDbVertex
100
AcDb2dVertex
 10
105.250534
 20
108.769356
 30
0.0
  0
VERTEX
  5
18F
100
AcDbEntity
  8
0
100
AcDbVertex
100
AcDb2dVertex
 10
105.182892
 20
108.602875
 30
0.0
  0
VERTEX
  5
190
100
AcDbEntity
  8
0
100
AcDbVertex
100
AcDb2dVertex
 10
105.070145
 20
108.456802
 30
0.0
  0
VERTEX
  5
191
100
AcDbEntity
  8
0
100
AcDbVertex
100
AcDb2dVertex
 10
104.924736
 20
108.343582
 30
0.0
  0
VERTEX
  5
192
100
AcDbEntity
  8
0
100
AcDbVertex
100
AcDb2dVertex
 10
104.759109
 20
108.27565
 30
0.0
  0
VERTEX
  5
193
100
AcDbEntity
  8
0
100
AcDbVertex
100
AcDb2dVertex
 10
104.573257
 20
108.253006
 30
0.0
  0
VERTEX
  5
194
100
AcDbEntity
  8
0
100
AcDbVertex
100
AcDb2dVertex
 10
103.698257
 20
108.253006
 30
0.0
  0
VERTEX
  5
195
100
AcDbEntity
  8
0
100
AcDbVertex
100
AcDb2dVertex
 10
103.523087
 20
108.428177
 30
0.0
  0
VERTEX
  5
196
100
AcDbEntity
  8
0
100
AcDbVertex
100
AcDb2dVertex
 10
103.523087
 20
111.577835
 30
0.0
  0
VERTEX
  5
197
100
AcDbEntity
  8
0
100
AcDbVertex
100
AcDb2dVertex
 10
103.687149
 20
111.753006
 30
0.0
  0
VERTEX
  5
198
100
AcDbEntity
  8
0
100
AcDbVertex
100
AcDb2dVertex
 10
103.851212
 20
111.579544
 30
0.0
  0
VERTEX
  5
199
100
AcDbEntity
  8
0
100
AcDbVertex
100
AcDb2dVertex
 10
103.851212
 20
110.713943
 30
0.0
  0
VERTEX
  5
19A
100
AcDbEntity
  8
0
100
AcDbVertex
100
AcDb2dVertex
 10
104.562149
 20
110.713943
 30
0.0
  0
VERTEX
  5
19B
100
AcDbEntity
  8
0
100
AcDbVertex
100
AcDb2dVertex
 10
104.814888
 20
110.675209
 30
0.0
  0
VERTEX
  5
19C
100
AcDbEntity
  8
0
100
AcDbVertex
100
AcDb2dVertex
 10
105.020538
 20
110.558998
 30
0.0
  0
VERTEX
  5
19D
100
AcDbEntity
  8
0
100
AcDbVertex
100
AcDb2dVertex
 10
105.179092
 20
110.365311
 30
0.0
  0
VERTEX
  5
19E
100
AcDbEntity
  8
0
100
AcDbVertex
100
AcDb2dVertex
 10
105.249588
 20
110.19548
 30
0.0
  0
SEQEND
  5
19F
100
AcDbEntity
  8
0
  0
POLYLINE
  5
1A0
100
AcDbEntity
  8
0
 62
     7
100
AcDb2dPolyline
 66
     1
 10
0.0
 20
0.0
 30
0.0
 70
     1
 71
    12
  0
VERTEX
  5
1A1
100
AcDbEntity
  8
0
100
AcDbVertex
100
AcDb2dVertex
 10
104.580093
 20
110.385818
 30
0.0
  0
VERTEX
  5
1A2
100
AcDbEntity
  8
0
100
AcDbVertex
100
AcDb2dVertex
 10
103.851212
 20
110.385818
 30
0.0
  0
VERTEX
  5
1A3
100
AcDbEntity
  8
0
100
AcDbVertex
100
AcDb2dVertex
 10
103.851212
 20
108.581131
 30
0.0
  0
VERTEX
  5
1A4
100
AcDbEntity
  8
0
100
AcDbVertex
100
AcDb2dVertex
 10
104.580093
 20
108.581131
 30
0.0
  0
VERTEX
  5
1A5
100
AcDbEntity
  8
0
100
AcDbVertex
100
AcDb2dVertex
 10
104.720764
 20
108.607407
 30
0.0
  0
VERTEX
  5
1A6
100
AcDbEntity
  8
0
100
AcDbVertex
100
AcDb2dVertex
 10
104.838577
 20
108.686234
 30
0.0
  0
VERTEX
  5
1A7
100
AcDbEntity
  8
0
100
AcDbVertex
100
AcDb2dVertex
 10
104.918365
 20
108.802658
 30
0.0
  0
VERTEX
  5
1A8
100
AcDbEntity
  8
0
100
AcDbVertex
100
AcDb2dVertex
 10
104.944962
 20
108.941727
 30
0.0
  0
VERTEX
  5
1A9
100
AcDbEntity
  8
0
100
AcDbVertex
100
AcDb2dVertex
 10
104.944962
 20
110.025223
 30
0.0
  0
VERTEX
  5
1AA
100
AcDbEntity
  8
0
100
AcDbVertex
100
AcDb2dVertex
 10
104.918686
 20
110.165894
 30
0.0
  0
VERTEX
  5
1AB
100
AcDbEntity
  8
0
100
AcDbVertex
100
AcDb2dVertex
 10
104.839859
 20
110.281998
 30
0.0
  0
VERTEX
  5
1AC
100
AcDbEntity
  8
0
100
AcDbVertex
100
AcDb2dVertex
 10
104.722366
 20
110.359863
 30
0.0
  0
SEQEND
  5
1AD
100
AcDbEntity
  8
0
  0
POLYLINE
  5
1AE
100
AcDbEntity
  8
0
 62
     7
100
AcDb2dPolyline
 66
     1
 10
0.0
 20
0.0
 30
0.0
 70
     1
 71
    30
  0
VERTEX
  5
1AF
100
AcDbEntity
  8
0
100
AcDbVertex
100
AcDb2dVertex
 10
106.629166
 20
108.253006
 30
0.0
  0
VERTEX
  5
1B0
100
AcDbEntity
  8
0
100
AcDbVertex
100
AcDb2dVertex
 10
106.443314
 20
108.275032
 30
0.0
  0
VERTEX
  5
1B1
100
AcDbEntity
  8
0
100
AcDbVertex
100
AcDb2dVertex
 10
106.277687
 20
108.34111
 30
0.0
  0
VERTEX
  5
1B2
100
AcDbEntity
  8
0
100
AcDbVertex
100
AcDb2dVertex
 10
106.132278
 20
108.451248
 30
0.0
  0
VERTEX
  5
1B3
100
AcDbEntity
  8
0
100
AcDbVertex
100
AcDb2dVertex
 10
106.019531
 20
108.593285
 30
0.0
  0
VERTEX
  5
1B4
100
AcDbEntity
  8
0
100
AcDbVertex
100
AcDb2dVertex
 10
105.951889
 20
108.755066
 30
0.0
  0
VERTEX
  5
1B5
100
AcDbEntity
  8
0
100
AcDbVertex
100
AcDb2dVertex
 10
105.929337
 20
108.9366
 30
0.0
  0
VERTEX
  5
1B6
100
AcDbEntity
  8
0
100
AcDbVertex
100
AcDb2dVertex
 10
105.952835
 20
109.115829
 30
0.0
  0
VERTEX
  5
1B7
100
AcDbEntity
  8
0
100
AcDbVertex
100
AcDb2dVertex
 10
106.023331
 20
109.28096
 30
0.0
  0
VERTEX
  5
1B8
100
AcDbEntity
  8
0
100
AcDbVertex
100
AcDb2dVertex
 10
106.181885
 20
109.469421
 30
0.0
  0
VERTEX
  5
1B9
100
AcDbEntity
  8
0
100
AcDbVertex
100
AcDb2dVertex
 10
106.387535
 20
109.582504
 30
0.0
  0
VERTEX
  5
1BA
100
AcDbEntity
  8
0
100
AcDbVertex
100
AcDb2dVertex
 10
106.640274
 20
109.620193
 30
0.0
  0
VERTEX
  5
1BB
100
AcDbEntity
  8
0
100
AcDbVertex
100
AcDb2dVertex
 10
107.351212
 20
109.620193
 30
0.0
  0
VERTEX
  5
1BC
100
AcDbEntity
  8
0
100
AcDbVertex
100
AcDb2dVertex
 10
107.351212
 20
110.003006
 30
0.0
  0
VERTEX
  5
1BD
100
AcDbEntity
  8
0
100
AcDbVertex
100
AcDb2dVertex
 10
107.324936
 20
110.152328
 30
0.0
  0
VERTEX
  5
1BE
100
AcDbEntity
  8
0
100
AcDbVertex
100
AcDb2dVertex
 10
107.246109
 20
110.275589
 30
0.0
  0
VERTEX
  5
1BF
100
AcDbEntity
  8
0
100
AcDbVertex
100
AcDb2dVertex
 10
107.128616
 20
110.358261
 30
0.0
  0
VERTEX
  5
1C0
100
AcDbEntity
  8
0
100
AcDbVertex
100
AcDb2dVertex
 10
106.986343
 20
110.385818
 30
0.0
  0
VERTEX
  5
1C1
100
AcDbEntity
  8
0
100
AcDbVertex
100
AcDb2dVertex
 10
106.257462
 20
110.385818
 30
0.0
  0
VERTEX
  5
1C2
100
AcDbEntity
  8
0
100
AcDbVertex
100
AcDb2dVertex
 10
106.105362
 20
110.549881
 30
0.0
  0
VERTEX
  5
1C3
100
AcDbEntity
  8
0
100
AcDbVertex
100
AcDb2dVertex
 10
106.257462
 20
110.713943
 30
0.0
  0
VERTEX
  5
1C4
100
AcDbEntity
  8
0
100
AcDbVertex
100
AcDb2dVertex
 10
106.968399
 20
110.713943
 30
0.0
  0
VERTEX
  5
1C5
100
AcDbEntity
  8
0
100
AcDbVertex
100
AcDb2dVertex
 10
107.157433
 20
110.691299
 30
0.0
  0
VERTEX
  5
1C6
100
AcDbEntity
  8
0
100
AcDbVertex
100
AcDb2dVertex
 10
107.325768
 20
110.623367
 30
0.0
  0
VERTEX
  5
1C7
100
AcDbEntity
  8
0
100
AcDbVertex
100
AcDb2dVertex
 10
107.473404
 20
110.510147
 30
0.0
  0
VERTEX
  5
1C8
100
AcDbEntity
  8
0
100
AcDbVertex
100
AcDb2dVertex
 10
107.587814
 20
110.364075
 30
0.0
  0
VERTEX
  5
1C9
100
AcDbEntity
  8
0
100
AcDbVertex
100
AcDb2dVertex
 10
107.656456
 20
110.197594
 30
0.0
  0
VERTEX
  5
1CA
100
AcDbEntity
  8
0
100
AcDbVertex
100
AcDb2dVertex
 10
107.679337
 20
110.010696
 30
0.0
  0
VERTEX
  5
1CB
100
AcDbEntity
  8
0
100
AcDbVertex
100
AcDb2dVertex
 10
107.679337
 20
108.429031
 30
0.0
  0
VERTEX
  5
1CC
100
AcDbEntity
  8
0
100
AcDbVertex
100
AcDb2dVertex
 10
107.504166
 20
108.253006
 30
0.0
  0
SEQEND
  5
1CD
100
AcDbEntity
  8
0
  0
POLYLINE
  5
1CE
100
AcDbEntity
  8
0
 62
     7
100
AcDb2dPolyline
 66
     1
 10
0.0
 20
0.0
 30
0.0
 70
     1
 71
    11
  0
VERTEX
  5
1CF
100
AcDbEntity
  8
0
100
AcDbVertex
100
AcDb2dVertex
 10
107.351212
 20
109.292068
 30
0.0
  0
VERTEX
  5
1D0
100
AcDbEntity
  8
0
100
AcDbVertex
100
AcDb2dVertex
 10
106.637711
 20
109.292068
 30
0.0
  0
VERTEX
  5
1D1
100
AcDbEntity
  8
0
100
AcDbVertex
100
AcDb2dVertex
 10
106.500244
 20
109.266113
 30
0.0
  0
VERTEX
  5
1D2
100
AcDbEntity
  8
0
100
AcDbVertex
100
AcDb2dVertex
 10
106.385208
 20
109.188248
 30
0.0
  0
VERTEX
  5
1D3
100
AcDbEntity
  8
0
100
AcDbVertex
100
AcDb2dVertex
 10
106.307343
 20
109.073425
 30
0.0
  0
VERTEX
  5
1D4
100
AcDbEntity
  8
0
100
AcDbVertex
100
AcDb2dVertex
 10
106.281387
 20
108.9366
 30
0.0
  0
VERTEX
  5
1D5
100
AcDbEntity
  8
0
100
AcDbVertex
100
AcDb2dVertex
 10
106.30777
 20
108.801376
 30
0.0
  0
VERTEX
  5
1D6
100
AcDbEntity
  8
0
100
AcDbVertex
100
AcDb2dVertex
 10
106.386917
 20
108.686234
 30
0.0
  0
VERTEX
  5
1D7
100
AcDbEntity
  8
0
100
AcDbVertex
100
AcDb2dVertex
 10
106.50238
 20
108.607407
 30
0.0
  0
VERTEX
  5
1D8
100
AcDbEntity
  8
0
100
AcDbVertex
100
AcDb2dVertex
 10
106.637711
 20
108.581131
 30
0.0
  0
VERTEX
  5
1D9
100
AcDbEntity
  8
0
100
AcDbVertex
100
AcDb2dVertex
 10
107.351212
 20
108.581131
 30
0.0
  0
SEQEND
  5
1DA
100
AcDbEntity
  8
0
  0
POLYLINE
  5
1DB
100
AcDbEntity
  8
0
 62
     7
100
AcDb2dPolyline
 66
     1
 10
0.0
 20
0.0
 30
0.0
 70
     1
 71
    17
  0
VERTEX
  5
1DC
100
AcDbEntity
  8
0
100
AcDbVertex
100
AcDb2dVertex
 10
108.763687
 20
107.539505
 30
0.0
  0
VERTEX
  5
1DD
100
AcDbEntity
  8
0
100
AcDbVertex
100
AcDb2dVertex
 10
109.046524
 20
108.388016
 30
0.0
  0
VERTEX
  5
1DE
100
AcDbEntity
  8
0
100
AcDbVertex
100
AcDb2dVertex
 10
108.349258
 20
110.488358
 30
0.0
  0
VERTEX
  5
1DF
100
AcDbEntity
  8
0
100
AcDbVertex
100
AcDb2dVertex
 10
108.335587
 20
110.543045
 30
0.0
  0
VERTEX
  5
1E0
100
AcDbEntity
  8
0
100
AcDbVertex
100
AcDb2dVertex
 10
108.501358
 20
110.713943
 30
0.0
  0
VERTEX
  5
1E1
100
AcDbEntity
  8
0
100
AcDbVertex
100
AcDb2dVertex
 10
108.660294
 20
110.592606
 30
0.0
  0
VERTEX
  5
1E2
100
AcDbEntity
  8
0
100
AcDbVertex
100
AcDb2dVertex
 10
109.219986
 20
108.907547
 30
0.0
  0
VERTEX
  5
1E3
100
AcDbEntity
  8
0
100
AcDbVertex
100
AcDb2dVertex
 10
109.779678
 20
110.592606
 30
0.0
  0
VERTEX
  5
1E4
100
AcDbEntity
  8
0
100
AcDbVertex
100
AcDb2dVertex
 10
109.929214
 20
110.713943
 30
0.0
  0
VERTEX
  5
1E5
100
AcDbEntity
  8
0
100
AcDbVertex
100
AcDb2dVertex
 10
110.085587
 20
110.543045
 30
0.0
  0
VERTEX
  5
1E6
100
AcDbEntity
  8
0
100
AcDbVertex
100
AcDb2dVertex
 10
110.090714
 20
110.488358
 30
0.0
  0
VERTEX
  5
1E7
100
AcDbEntity
  8
0
100
AcDbVertex
100
AcDb2dVertex
 10
109.035416
 20
107.315628
 30
0.0
  0
VERTEX
  5
1E8
100
AcDbEntity
  8
0
100
AcDbVertex
100
AcDb2dVertex
 10
108.867081
 20
107.213943
 30
0.0
  0
VERTEX
  5
1E9
100
AcDbEntity
  8
0
100
AcDbVertex
100
AcDb2dVertex
 10
108.511612
 20
107.213943
 30
0.0
  0
VERTEX
  5
1EA
100
AcDbEntity
  8
0
100
AcDbVertex
100
AcDb2dVertex
 10
108.335587
 20
107.377151
 30
0.0
  0
VERTEX
  5
1EB
100
AcDbEntity
  8
0
100
AcDbVertex
100
AcDb2dVertex
 10
108.491104
 20
107.534378
 30
0.0
  0
VERTEX
  5
1EC
100
AcDbEntity
  8
0
100
AcDbVertex
100
AcDb2dVertex
 10
108.572067
 20
107.538223
 30
0.0
  0
SEQEND
  5
1ED
100
AcDbEntity
  8
0
  0
POLYLINE
  5
1EE
100
AcDbEntity
  8
0
 62
     7
100
AcDb2dPolyline
 66
     1
 10
0.0
 20
0.0
 30
0.0
 70
     1
 71
    52
  0
VERTEX
  5
1EF
100
AcDbEntity
  8
0
100
AcDbVertex
100
AcDb2dVertex
 10
112.168839
 20
108.86824
 30
0.0
  0
VERTEX
  5
1F0
100
AcDbEntity
  8
0
100
AcDbVertex
100
AcDb2dVertex
 10
112.130814
 20
109.02504
 30
0.0
  0
VERTEX
  5
1F1
100
AcDbEntity
  8
0
100
AcDbVertex
100
AcDb2dVertex
 10
112.016739
 20
109.129715
 30
0.0
  0
VERTEX
  5
1F2
100
AcDbEntity
  8
0
100
AcDbVertex
100
AcDb2dVertex
 10
111.111832
 20
109.567215
 30
0.0
  0
VERTEX
  5
1F3
100
AcDbEntity
  8
0
100
AcDbVertex
100
AcDb2dVertex
 10
110.909126
 20
109.702316
 30
0.0
  0
VERTEX
  5
1F4
100
AcDbEntity
  8
0
100
AcDbVertex
100
AcDb2dVertex
 10
110.787506
 20
109.884323
 30
0.0
  0
VERTEX
  5
1F5
100
AcDbEntity
  8
0
100
AcDbVertex
100
AcDb2dVertex
 10
110.746964
 20
110.113235
 30
0.0
  0
VERTEX
  5
1F6
100
AcDbEntity
  8
0
100
AcDbVertex
100
AcDb2dVertex
 10
110.774879
 20
110.296478
 30
0.0
  0
VERTEX
  5
1F7
100
AcDbEntity
  8
0
100
AcDbVertex
100
AcDb2dVertex
 10
110.85862
 20
110.449715
 30
0.0
  0
VERTEX
  5
1F8
100
AcDbEntity
  8
0
100
AcDbVertex
100
AcDb2dVertex
 10
110.998184
 20
110.572952
 30
0.0
  0
VERTEX
  5
1F9
100
AcDbEntity
  8
0
100
AcDbVertex
100
AcDb2dVertex
 10
111.154175
 20
110.651283
 30
0.0
  0
VERTEX
  5
1FA
100
AcDbEntity
  8
0
100
AcDbVertex
100
AcDb2dVertex
 10
111.333908
 20
110.69828
 30
0.0
  0
VERTEX
  5
1FB
100
AcDbEntity
  8
0
100
AcDbVertex
100
AcDb2dVertex
 10
111.537369
 20
110.713943
 30
0.0
  0
VERTEX
  5
1FC
100
AcDbEntity
  8
0
100
AcDbVertex
100
AcDb2dVertex
 10
111.789726
 20
110.69249
 30
0.0
  0
VERTEX
  5
1FD
100
AcDbEntity
  8
0
100
AcDbVertex
100
AcDb2dVertex
 10
112.023857
 20
110.628113
 30
0.0
  0
VERTEX
  5
1FE
100
AcDbEntity
  8
0
100
AcDbVertex
100
AcDb2dVertex
 10
112.239761
 20
110.520828
 30
0.0
  0
VERTEX
  5
1FF
100
AcDbEntity
  8
0
100
AcDbVertex
100
AcDb2dVertex
 10
112.332901
 20
110.36702
 30
0.0
  0
VERTEX
  5
200
100
AcDbEntity
  8
0
100
AcDbVertex
100
AcDb2dVertex
 10
112.279922
 20
110.243546
 30
0.0
  0
VERTEX
  5
201
100
AcDbEntity
  8
0
100
AcDbVertex
100
AcDb2dVertex
 10
112.153458
 20
110.191849
 30
0.0
  0
VERTEX
  5
202
100
AcDbEntity
  8
0
100
AcDbVertex
100
AcDb2dVertex
 10
112.068863
 20
110.215775
 30
0.0
  0
VERTEX
  5
203
100
AcDbEntity
  8
0
100
AcDbVertex
100
AcDb2dVertex
 10
111.893028
 20
110.310242
 30
0.0
  0
VERTEX
  5
204
100
AcDbEntity
  8
0
100
AcDbVertex
100
AcDb2dVertex
 10
111.710739
 20
110.366928
 30
0.0
  0
VERTEX
  5
205
100
AcDbEntity
  8
0
100
AcDbVertex
100
AcDb2dVertex
 10
111.521988
 20
110.385818
 30
0.0
  0
VERTEX
  5
206
100
AcDbEntity
  8
0
100
AcDbVertex
100
AcDb2dVertex
 10
111.273712
 20
110.356102
 30
0.0
  0
VERTEX
  5
207
100
AcDbEntity
  8
0
100
AcDbVertex
100
AcDb2dVertex
 10
111.124741
 20
110.266953
 30
0.0
  0
VERTEX
  5
208
100
AcDbEntity
  8
0
100
AcDbVertex
100
AcDb2dVertex
 10
111.075089
 20
110.118362
 30
0.0
  0
VERTEX
  5
209
100
AcDbEntity
  8
0
100
AcDbVertex
100
AcDb2dVertex
 10
111.117172
 20
109.97374
 30
0.0
  0
VERTEX
  5
20A
100
AcDbEntity
  8
0
100
AcDbVertex
100
AcDb2dVertex
 10
111.243423
 20
109.87825
 30
0.0
  0
VERTEX
  5
20B
100
AcDbEntity
  8
0
100
AcDbVertex
100
AcDb2dVertex
 10
112.156876
 20
109.427933
 30
0.0
  0
VERTEX
  5
20C
100
AcDbEntity
  8
0
100
AcDbVertex
100
AcDb2dVertex
 10
112.34581
 20
109.289978
 30
0.0
  0
VERTEX
  5
20D
100
AcDbEntity
  8
0
100
AcDbVertex
100
AcDb2dVertex
 10
112.459175
 20
109.103989
 30
0.0
  0
VERTEX
  5
20E
100
AcDbEntity
  8
0
100
AcDbVertex
100
AcDb2dVertex
 10
112.496964
 20
108.869949
 30
0.0
  0
VERTEX
  5
20F
100
AcDbEntity
  8
0
100
AcDbVertex
100
AcDb2dVertex
 10
112.468956
 20
108.67408
 30
0.0
  0
VERTEX
  5
210
100
AcDbEntity
  8
0
100
AcDbVertex
100
AcDb2dVertex
 10
112.384933
 20
108.513718
 30
0.0
  0
VERTEX
  5
211
100
AcDbEntity
  8
0
100
AcDbVertex
100
AcDb2dVertex
 10
112.244888
 20
108.38887
 30
0.0
  0
VERTEX
  5
212
100
AcDbEntity
  8
0
100
AcDbVertex
100
AcDb2dVertex
 10
112.088043
 20
108.313393
 30
0.0
  0
VERTEX
  5
213
100
AcDbEntity
  8
0
100
AcDbVertex
100
AcDb2dVertex
 10
111.903473
 20
108.268105
 30
0.0
  0
VERTEX
  5
214
100
AcDbEntity
  8
0
100
AcDbVertex
100
AcDb2dVertex
 10
111.691177
 20
108.253006
 30
0.0
  0
VERTEX
  5
215
100
AcDbEntity
  8
0
100
AcDbVertex
100
AcDb2dVertex
 10
111.449249
 20
108.265182
 30
0.0
  0
VERTEX
  5
216
100
AcDbEntity
  8
0
100
AcDbVertex
100
AcDb2dVertex
 10
111.227615
 20
108.301712
 30
0.0
  0
VERTEX
  5
217
100
AcDbEntity
  8
0
100
AcDbVertex
100
AcDb2dVertex
 10
111.026276
 20
108.362595
 30
0.0
  0
VERTEX
  5
218
100
AcDbEntity
  8
0
100
AcDbVertex
100
AcDb2dVertex
 10
110.84523
 20
108.44783
 30
0.0
  0
VERTEX
  5
219
100
AcDbEntity
  8
0
100
AcDbVertex
100
AcDb2dVertex
 10
110.746964
 20
108.605911
 30
0.0
  0
VERTEX
  5
21A
100
AcDbEntity
  8
0
100
AcDbVertex
100
AcDb2dVertex
 10
110.799515
 20
108.729813
 30
0.0
  0
VERTEX
  5
21B
100
AcDbEntity
  8
0
100
AcDbVertex
100
AcDb2dVertex
 10
110.924698
 20
108.781937
 30
0.0
  0
VERTEX
  5
21C
100
AcDbEntity
  8
0
100
AcDbVertex
100
AcDb2dVertex
 10
110.992203
 20
108.766556
 30
0.0
  0
VERTEX
  5
21D
100
AcDbEntity
  8
0
100
AcDbVertex
100
AcDb2dVertex
 10
111.098587
 20
108.716995
 30
0.0
  0
VERTEX
  5
21E
100
AcDbEntity
  8
0
100
AcDbVertex
100
AcDb2dVertex
 10
111.245132
 20
108.653763
 30
0.0
  0
VERTEX
  5
21F
100
AcDbEntity
  8
0
100
AcDbVertex
100
AcDb2dVertex
 10
111.48439
 20
108.599289
 30
0.0
  0
VERTEX
  5
220
100
AcDbEntity
  8
0
100
AcDbVertex
100
AcDb2dVertex
 10
111.716812
 20
108.581131
 30
0.0
  0
VERTEX
  5
221
100
AcDbEntity
  8
0
100
AcDbVertex
100
AcDb2dVertex
 10
111.967941
 20
108.613029
 30
0.0
  0
VERTEX
  5
222
100
AcDbEntity
  8
0
100
AcDbVertex
100
AcDb2dVertex
 10
112.118614
 20
108.708733
 30
0.0
  0
SEQEND
  5
223
100
AcDbEntity
  8
0
  0
POLYLINE
  5
224
100
AcDbEntity
  8
0
 62
     7
100
AcDb2dPolyline
 66
     1
 10
0.0
 20
0.0
 30
0.0
 70
     1
 71
    20
  0
VERTEX
  5
225
100
AcDbEntity
  8
0
100
AcDbVertex
100
AcDb2dVertex
 10
113.153214
 20
110.538773
 30
0.0
  0
VERTEX
  5
226
100
AcDbEntity
  8
0
100
AcDbVertex
100
AcDb2dVertex
 10
113.328384
 20
110.713943
 30
0.0
  0
VERTEX
  5
227
100
AcDbEntity
  8
0
100
AcDbVertex
100
AcDb2dVertex
 10
114.203384
 20
110.713943
 30
0.0
  0
VERTEX
  5
228
100
AcDbEntity
  8
0
100
AcDbVertex
100
AcDb2dVertex
 10
114.389236
 20
110.691299
 30
0.0
  0
VERTEX
  5
229
100
AcDbEntity
  8
0
100
AcDbVertex
100
AcDb2dVertex
 10
114.554863
 20
110.623367
 30
0.0
  0
VERTEX
  5
22A
100
AcDbEntity
  8
0
100
AcDbVertex
100
AcDb2dVertex
 10
114.700272
 20
110.510147
 30
0.0
  0
VERTEX
  5
22B
100
AcDbEntity
  8
0
100
AcDbVertex
100
AcDb2dVertex
 10
114.813019
 20
110.364075
 30
0.0
  0
VERTEX
  5
22C
100
AcDbEntity
  8
0
100
AcDbVertex
100
AcDb2dVertex
 10
114.880661
 20
110.197594
 30
0.0
  0
VERTEX
  5
22D
100
AcDbEntity
  8
0
100
AcDbVertex
100
AcDb2dVertex
 10
114.903214
 20
110.010696
 30
0.0
  0
VERTEX
  5
22E
100
AcDbEntity
  8
0
100
AcDbVertex
100
AcDb2dVertex
 10
114.903214
 20
108.956253
 30
0.0
  0
VERTEX
  5
22F
100
AcDbEntity
  8
0
100
AcDbVertex
100
AcDb2dVertex
 10
114.880333
 20
108.770638
 30
0.0
  0
VERTEX
  5
230
100
AcDbEntity
  8
0
100
AcDbVertex
100
AcDb2dVertex
 10
114.811691
 20
108.604584
 30
0.0
  0
VERTEX
  5
231
100
AcDbEntity
  8
0
100
AcDbVertex
100
AcDb2dVertex
 10
114.697281
 20
108.458084
 30
0.0
  0
VERTEX
  5
232
100
AcDbEntity
  8
0
100
AcDbVertex
100
AcDb2dVertex
 10
114.549644
 20
108.344154
 30
0.0
  0
VERTEX
  5
233
100
AcDbEntity
  8
0
100
AcDbVertex
100
AcDb2dVertex
 10
114.38131
 20
108.275795
 30
0.0
  0
VERTEX
  5
234
100
AcDbEntity
  8
0
100
AcDbVertex
100
AcDb2dVertex
 10
114.192276
 20
108.253006
 30
0.0
  0
VERTEX
  5
235
100
AcDbEntity
  8
0
100
AcDbVertex
100
AcDb2dVertex
 10
113.481339
 20
108.253006
 30
0.0
  0
VERTEX
  5
236
100
AcDbEntity
  8
0
100
AcDbVertex
100
AcDb2dVertex
 10
113.481339
 20
107.387405
 30
0.0
  0
VERTEX
  5
237
100
AcDbEntity
  8
0
100
AcDbVertex
100
AcDb2dVertex
 10
113.317276
 20
107.213943
 30
0.0
  0
VERTEX
  5
238
100
AcDbEntity
  8
0
100
AcDbVertex
100
AcDb2dVertex
 10
113.153214
 20
107.389114
 30
0.0
  0
SEQEND
  5
239
100
AcDbEntity
  8
0
  0
POLYLINE
  5
23A
100
AcDbEntity
  8
0
 62
     7
100
AcDb2dPolyline
 66
     1
 10
0.0
 20
0.0
 30
0.0
 70
     1
 71
    12
  0
VERTEX
  5
23B
100
AcDbEntity
  8
0
100
AcDbVertex
100
AcDb2dVertex
 10
113.481339
 20
110.385818
 30
0.0
  0
VERTEX
  5
23C
100
AcDbEntity
  8
0
100
AcDbVertex
100
AcDb2dVertex
 10
113.481339
 20
108.581131
 30
0.0
  0
VERTEX
  5
23D
100
AcDbEntity
  8
0
100
AcDbVertex
100
AcDb2dVertex
 10
114.21022
 20
108.581131
 30
0.0
  0
VERTEX
  5
23E
100
AcDbEntity
  8
0
100
AcDbVertex
100
AcDb2dVertex
 10
114.350891
 20
108.607407
 30
0.0
  0
VERTEX
  5
23F
100
AcDbEntity
  8
0
100
AcDbVertex
100
AcDb2dVertex
 10
114.468704
 20
108.686234
 30
0.0
  0
VERTEX
  5
240
100
AcDbEntity
  8
0
100
AcDbVertex
100
AcDb2dVertex
 10
114.548492
 20
108.802658
 30
0.0
  0
VERTEX
  5
241
100
AcDbEntity
  8
0
100
AcDbVertex
100
AcDb2dVertex
 10
114.575089
 20
108.941727
 30
0.0
  0
VERTEX
  5
242
100
AcDbEntity
  8
0
100
AcDbVertex
100
AcDb2dVertex
 10
114.575089
 20
110.025223
 30
0.0
  0
VERTEX
  5
243
100
AcDbEntity
  8
0
100
AcDbVertex
100
AcDb2dVertex
 10
114.548813
 20
110.165894
 30
0.0
  0
VERTEX
  5
244
100
AcDbEntity
  8
0
100
AcDbVertex
100
AcDb2dVertex
 10
114.469986
 20
110.281998
 30
0.0
  0
VERTEX
  5
245
100
AcDbEntity
  8
0
100
AcDbVertex
100
AcDb2dVertex
 10
114.352493
 20
110.359863
 30
0.0
  0
VERTEX
  5
246
100
AcDbEntity
  8
0
100
AcDbVertex
100
AcDb2dVertex
 10
114.21022
 20
110.385818
 30
0.0
  0
SEQEND
  5
247
100
AcDbEntity
  8
0
  0
POLYLINE
  5
248
100
AcDbEntity
  8
0
 62
     7
100
AcDb2dPolyline
 66
     1
 10
0.0
 20
0.0
 30
0.0
 70
     1
 71
    30
  0
VERTEX
  5
249
100
AcDbEntity
  8
0
100
AcDbVertex
100
AcDb2dVertex
 10
116.259293
 20
108.253006
 30
0.0
  0
VERTEX
  5
24A
100
AcDbEntity
  8
0
100
AcDbVertex
100
AcDb2dVertex
 10
116.073441
 20
108.275032
 30
0.0
  0
VERTEX
  5
24B
100
AcDbEntity
  8
0
100
AcDbVertex
100
AcDb2dVertex
 10
115.907814
 20
108.34111
 30
0.0
  0
VERTEX
  5
24C
100
AcDbEntity
  8
0
100
AcDbVertex
100
AcDb2dVertex
 10
115.762405
 20
108.451248
 30
0.0
  0
VERTEX
  5
24D
100
AcDbEntity
  8
0
100
AcDbVertex
100
AcDb2dVertex
 10
115.649658
 20
108.593285
 30
0.0
  0
VERTEX
  5
24E
100
AcDbEntity
  8
0
100
AcDbVertex
100
AcDb2dVertex
 10
115.582016
 20
108.755066
 30
0.0
  0
VERTEX
  5
24F
100
AcDbEntity
  8
0
100
AcDbVertex
100
AcDb2dVertex
 10
115.559464
 20
108.9366
 30
0.0
  0
VERTEX
  5
250
100
AcDbEntity
  8
0
100
AcDbVertex
100
AcDb2dVertex
 10
115.582962
 20
109.115829
 30
0.0
  0
VERTEX
  5
251
100
AcDbEntity
  8
0
100
AcDbVertex
100
AcDb2dVertex
 10
115.653458
 20
109.28096
 30
0.0
  0
VERTEX
  5
252
100
AcDbEntity
  8
0
100
AcDbVertex
100
AcDb2dVertex
 10
115.812012
 20
109.469421
 30
0.0
  0
VERTEX
  5
253
100
AcDbEntity
  8
0
100
AcDbVertex
100
AcDb2dVertex
 10
116.017662
 20
109.582504
 30
0.0
  0
VERTEX
  5
254
100
AcDbEntity
  8
0
100
AcDbVertex
100
AcDb2dVertex
 10
116.270401
 20
109.620193
 30
0.0
  0
VERTEX
  5
255
100
AcDbEntity
  8
0
100
AcDbVertex
100
AcDb2dVertex
 10
116.981339
 20
109.620193
 30
0.0
  0
VERTEX
  5
256
100
AcDbEntity
  8
0
100
AcDbVertex
100
AcDb2dVertex
 10
116.981339
 20
110.003006
 30
0.0
  0
VERTEX
  5
257
100
AcDbEntity
  8
0
100
AcDbVertex
100
AcDb2dVertex
 10
116.955063
 20
110.152328
 30
0.0
  0
VERTEX
  5
258
100
AcDbEntity
  8
0
100
AcDbVertex
100
AcDb2dVertex
 10
116.876236
 20
110.275589
 30
0.0
  0
VERTEX
  5
259
100
AcDbEntity
  8
0
100
AcDbVertex
100
AcDb2dVertex
 10
116.758743
 20
110.358261
 30
0.0
  0
VERTEX
  5
25A
100
AcDbEntity
  8
0
100
AcDbVertex
100
AcDb2dVertex
 10
116.61647
 20
110.385818
 30
0.0
  0
VERTEX
  5
25B
100
AcDbEntity
  8
0
100
AcDbVertex
100
AcDb2dVertex
 10
115.887589
 20
110.385818
 30
0.0
  0
VERTEX
  5
25C
100
AcDbEntity
  8
0
100
AcDbVertex
100
AcDb2dVertex
 10
115.735489
 20
110.549881
 30
0.0
  0
VERTEX
  5
25D
100
AcDbEntity
  8
0
100
AcDbVertex
100
AcDb2dVertex
 10
115.887589
 20
110.713943
 30
0.0
  0
VERTEX
  5
25E
100
AcDbEntity
  8
0
100
AcDbVertex
100
AcDb2dVertex
 10
116.598526
 20
110.713943
 30
0.0
  0
VERTEX
  5
25F
100
AcDbEntity
  8
0
100
AcDbVertex
100
AcDb2dVertex
 10
116.78756
 20
110.691299
 30
0.0
  0
VERTEX
  5
260
100
AcDbEntity
  8
0
100
AcDbVertex
100
AcDb2dVertex
 10
116.955894
 20
110.623367
 30
0.0
  0
VERTEX
  5
261
100
AcDbEntity
  8
0
100
AcDbVertex
100
AcDb2dVertex
 10
117.103531
 20
110.510147
 30
0.0
  0
VERTEX
  5
262
100
AcDbEntity
  8
0
100
AcDbVertex
100
AcDb2dVertex
 10
117.217941
 20
110.364075
 30
0.0
  0
VERTEX
  5
263
100
AcDbEntity
  8
0
100
AcDbVertex
100
AcDb2dVertex
 10
117.286583
 20
110.197594
 30
0.0
  0
VERTEX
  5
264
100
AcDbEntity
  8
0
100
AcDbVertex
100
AcDb2dVertex
 10
117.309464
 20
110.010696
 30
0.0
  0
VERTEX
  5
265
100
AcDbEntity
  8
0
100
AcDbVertex
100
AcDb2dVertex
 10
117.309464
 20
108.429031
 30
0.0
  0
VERTEX
  5
266
100
AcDbEntity
  8
0
100
AcDbVertex
100
AcDb2dVertex
 10
117.134293
 20
108.253006
 30
0.0
  0
SEQEND
  5
267
100
AcDbEntity
  8
0
  0
POLYLINE
  5
268
100
AcDbEntity
  8
0
 62
     7
100
AcDb2dPolyline
 66
     1
 10
0.0
 20
0.0
 30
0.0
 70
     1
 71
    11
  0
VERTEX
  5
269
100
AcDbEntity
  8
0
100
AcDbVertex
100
AcDb2dVertex
 10
116.981339
 20
109.292068
 30
0.0
  0
VERTEX
  5
26A
100
AcDbEntity
  8
0
100
AcDbVertex
100
AcDb2dVertex
 10
116.267838
 20
109.292068
 30
0.0
  0
VERTEX
  5
26B
100
AcDbEntity
  8
0
100
AcDbVertex
100
AcDb2dVertex
 10
116.130371
 20
109.266113
 30
0.0
  0
VERTEX
  5
26C
100
AcDbEntity
  8
0
100
AcDbVertex
100
AcDb2dVertex
 10
116.015335
 20
109.188248
 30
0.0
  0
VERTEX
  5
26D
100
AcDbEntity
  8
0
100
AcDbVertex
100
AcDb2dVertex
 10
115.937469
 20
109.073425
 30
0.0
  0
VERTEX
  5
26E
100
AcDbEntity
  8
0
100
AcDbVertex
100
AcDb2dVertex
 10
115.911514
 20
108.9366
 30
0.0
  0
VERTEX
  5
26F
100
AcDbEntity
  8
0
100
AcDbVertex
100
AcDb2dVertex
 10
115.937897
 20
108.801376
 30
0.0
  0
VERTEX
  5
270
100
AcDbEntity
  8
0
100
AcDbVertex
100
AcDb2dVertex
 10
116.017044
 20
108.686234
 30
0.0
  0
VERTEX
  5
271
100
AcDbEntity
  8
0
100
AcDbVertex
100
AcDb2dVertex
 10
116.132507
 20
108.607407
 30
0.0
  0
VERTEX
  5
272
100
AcDbEntity
  8
0
100
AcDbVertex
100
AcDb2dVertex
 10
116.267838
 20
108.581131
 30
0.0
  0
VERTEX
  5
273
100
AcDbEntity
  8
0
100
AcDbVertex
100
AcDb2dVertex
 10
116.981339
 20
108.581131
 30
0.0
  0
SEQEND
  5
274
100
AcDbEntity
  8
0
  0
POLYLINE
  5
275
100
AcDbEntity
  8
0
 62
     7
100
AcDb2dPolyline
 66
     1
 10
0.0
 20
0.0
 30
0.0
 70
     1
 71
    21
  0
VERTEX
  5
276
100
AcDbEntity
  8
0
100
AcDbVertex
100
AcDb2dVertex
 10
117.965714
 20
108.429031
 30
0.0
  0
VERTEX
  5
277
100
AcDbEntity
  8
0
100
AcDbVertex
100
AcDb2dVertex
 10
117.965714
 20
110.537918
 30
0.0
  0
VERTEX
  5
278
100
AcDbEntity
  8
0
100
AcDbVertex
100
AcDb2dVertex
 10
118.140884
 20
110.713943
 30
0.0
  0
VERTEX
  5
279
100
AcDbEntity
  8
0
100
AcDbVertex
100
AcDb2dVertex
 10
119.015884
 20
110.713943
 30
0.0
  0
VERTEX
  5
27A
100
AcDbEntity
  8
0
100
AcDbVertex
100
AcDb2dVertex
 10
119.201736
 20
110.691299
 30
0.0
  0
VERTEX
  5
27B
100
AcDbEntity
  8
0
100
AcDbVertex
100
AcDb2dVertex
 10
119.367363
 20
110.623367
 30
0.0
  0
VERTEX
  5
27C
100
AcDbEntity
  8
0
100
AcDbVertex
100
AcDb2dVertex
 10
119.512772
 20
110.510147
 30
0.0
  0
VERTEX
  5
27D
100
AcDbEntity
  8
0
100
AcDbVertex
100
AcDb2dVertex
 10
119.625519
 20
110.364075
 30
0.0
  0
VERTEX
  5
27E
100
AcDbEntity
  8
0
100
AcDbVertex
100
AcDb2dVertex
 10
119.693161
 20
110.197594
 30
0.0
  0
VERTEX
  5
27F
100
AcDbEntity
  8
0
100
AcDbVertex
100
AcDb2dVertex
 10
119.715714
 20
110.010696
 30
0.0
  0
VERTEX
  5
280
100
AcDbEntity
  8
0
100
AcDbVertex
100
AcDb2dVertex
 10
119.715714
 20
108.429031
 30
0.0
  0
VERTEX
  5
281
100
AcDbEntity
  8
0
100
AcDbVertex
100
AcDb2dVertex
 10
119.551651
 20
108.253006
 30
0.0
  0
VERTEX
  5
282
100
AcDbEntity
  8
0
100
AcDbVertex
100
AcDb2dVertex
 10
119.387589
 20
108.43074
 30
0.0
  0
VERTEX
  5
283
100
AcDbEntity
  8
0
100
AcDbVertex
100
AcDb2dVertex
 10
119.387589
 20
110.03035
 30
0.0
  0
VERTEX
  5
284
100
AcDbEntity
  8
0
100
AcDbVertex
100
AcDb2dVertex
 10
119.361313
 20
110.168777
 30
0.0
  0
VERTEX
  5
285
100
AcDbEntity
  8
0
100
AcDbVertex
100
AcDb2dVertex
 10
119.282486
 20
110.283279
 30
0.0
  0
VERTEX
  5
286
100
AcDbEntity
  8
0
100
AcDbVertex
100
AcDb2dVertex
 10
119.164993
 20
110.360184
 30
0.0
  0
VERTEX
  5
287
100
AcDbEntity
  8
0
100
AcDbVertex
100
AcDb2dVertex
 10
119.02272
 20
110.385818
 30
0.0
  0
VERTEX
  5
288
100
AcDbEntity
  8
0
100
AcDbVertex
100
AcDb2dVertex
 10
118.293839
 20
110.385818
 30
0.0
  0
VERTEX
  5
289
100
AcDbEntity
  8
0
100
AcDbVertex
100
AcDb2dVertex
 10
118.293839
 20
108.43074
 30
0.0
  0
VERTEX
  5
28A
100
AcDbEntity
  8
0
100
AcDbVertex
100
AcDb2dVertex
 10
118.129776
 20
108.253006
 30
0.0
  0
SEQEND
  5
28B
100
AcDbEntity
  8
0
  0
POLYLINE
  5
28C
100
AcDbEntity
  8
0
 62
     7
100
AcDb2dPolyline
 66
     1
 10
0.0
 20
0.0
 30
0.0
 70
     1
 71
    18
  0
VERTEX
  5
28D
100
AcDbEntity
  8
0
100
AcDbVertex
100
AcDb2dVertex
 10
120.700089
 20
110.385818
 30
0.0
  0
VERTEX
  5
28E
100
AcDbEntity
  8
0
100
AcDbVertex
100
AcDb2dVertex
 10
120.536026
 20
110.385818
 30
0.0
  0
VERTEX
  5
28F
100
AcDbEntity
  8
0
100
AcDbVertex
100
AcDb2dVertex
 10
120.371964
 20
110.549881
 30
0.0
  0
VERTEX
  5
290
100
AcDbEntity
  8
0
100
AcDbVertex
100
AcDb2dVertex
 10
120.536026
 20
110.713943
 30
0.0
  0
VERTEX
  5
291
100
AcDbEntity
  8
0
100
AcDbVertex
100
AcDb2dVertex
 10
120.700089
 20
110.713943
 30
0.0
  0
VERTEX
  5
292
100
AcDbEntity
  8
0
100
AcDbVertex
100
AcDb2dVertex
 10
120.700089
 20
111.579544
 30
0.0
  0
VERTEX
  5
293
100
AcDbEntity
  8
0
100
AcDbVertex
100
AcDb2dVertex
 10
120.864151
 20
111.753006
 30
0.0
  0
VERTEX
  5
294
100
AcDbEntity
  8
0
100
AcDbVertex
100
AcDb2dVertex
 10
121.028214
 20
111.579544
 30
0.0
  0
VERTEX
  5
295
100
AcDbEntity
  8
0
100
AcDbVertex
100
AcDb2dVertex
 10
121.028214
 20
110.713943
 30
0.0
  0
VERTEX
  5
296
100
AcDbEntity
  8
0
100
AcDbVertex
100
AcDb2dVertex
 10
121.602432
 20
110.713943
 30
0.0
  0
VERTEX
  5
297
100
AcDbEntity
  8
0
100
AcDbVertex
100
AcDb2dVertex
 10
121.745987
 20
110.672928
 30
0.0
  0
VERTEX
  5
298
100
AcDbEntity
  8
0
100
AcDbVertex
100
AcDb2dVertex
 10
121.793839
 20
110.549881
 30
0.0
  0
VERTEX
  5
299
100
AcDbEntity
  8
0
100
AcDbVertex
100
AcDb2dVertex
 10
121.745987
 20
110.426834
 30
0.0
  0
VERTEX
  5
29A
100
AcDbEntity
  8
0
100
AcDbVertex
100
AcDb2dVertex
 10
121.602432
 20
110.385818
 30
0.0
  0
VERTEX
  5
29B
100
AcDbEntity
  8
0
100
AcDbVertex
100
AcDb2dVertex
 10
121.028214
 20
110.385818
 30
0.0
  0
VERTEX
  5
29C
100
AcDbEntity
  8
0
100
AcDbVertex
100
AcDb2dVertex
 10
121.028214
 20
108.43074
 30
0.0
  0
VERTEX
  5
29D
100
AcDbEntity
  8
0
100
AcDbVertex
100
AcDb2dVertex
 10
120.864151
 20
108.253006
 30
0.0
  0
VERTEX
  5
29E
100
AcDbEntity
  8
0
100
AcDbVertex
100
AcDb2dVertex
 10
120.700089
 20
108.43074
 30
0.0
  0
SEQEND
  5
29F
100
AcDbEntity
  8
0
  0
ARC
  5
2A0
100
AcDbEntity
  8
0
 62
     7
100
AcDbCircle
 10
112.357468
 20
109.927368
 30
0.0
 40
33.5
210
0.0
220
0.0
230
1.0
100
AcDbArc
 50
92.480741
 51
207.519261
  0
LINE
  5
2A1
100
AcDbEntity
  8
0
 62
     7
 48
0.074215
100
AcDbLine
 10
82.647804
 20
94.448807
 30
0.0
 11
85.218689
 21
95.933105
 31
0.0
210
0.0
220
0.0
230
1.0
  0
ARC
  5
2A2
100
AcDbEntity
  8
0
 62
     7
100
AcDbCircle
 10
85.231194
 20
95.911453
 30
0.0
 40
0.025
210
0.0
220
0.0
230
1.0
100
AcDbArc
 50
30.0
 51
120.000003
  0
LINE
  5
2A3
100
AcDbEntity
  8
0
 62
     7
 48
0.07125
100
AcDbLine
 10
85.252846
 20
95.92395
 30
0.0
 11
86.677841
 21
93.45578
 31
0.0
210
0.0
220
0.0
230
1.0
  0
ARC
  5
2A4
100
AcDbEntity
  8
0
 62
     7
100
AcDbCircle
 10
86.656189
 20
93.443283
 30
0.0
 40
0.025
210
0.0
220
0.0
230
1.0
100
AcDbArc
 50
299.999994
 51
30.000003
  0
LINE
  5
2A5
100
AcDbEntity
  8
0
 62
     7
 48
0.074215
100
AcDbLine
 10
86.668694
 20
93.421631
 30
0.0
 11
84.097809
 21
91.937332
 31
0.0
210
0.0
220
0.0
230
1.0
  0
ARC
  5
2A6
100
AcDbEntity
  8
0
 62
     7
100
AcDbCircle
 10
112.357468
 20
109.927368
 30
0.0
 40
33.5
210
0.0
220
0.0
230
1.0
100
AcDbArc
 50
212.480738
 51
327.519262
  0
LINE
  5
2A7
100
AcDbEntity
  8
0
 62
     7
 48
0.074215
100
AcDbLine
 10
138.046234
 20
93.421631
 30
0.0
 11
140.617126
 21
91.937332
 31
0.0
210
0.0
220
0.0
230
1.0
  0
ARC
  5
2A8
100
AcDbEntity
  8
0
 62
     7
100
AcDbCircle
 10
138.058746
 20
93.443283
 30
0.0
 40
0.025
210
0.0
220
0.0
230
1.0
100
AcDbArc
 50
149.999997
 51
240.000006
  0
LINE
  5
2A9
100
AcDbEntity
  8
0
 62
     7
 48
0.07125
100
AcDbLine
 10
139.462097
 20
95.92395
 30
0.0
 11
138.037094
 21
93.45578
 31
0.0
210
0.0
220
0.0
230
1.0
  0
ARC
  5
2AA
100
AcDbEntity
  8
0
 62
     7
100
AcDbCircle
 10
139.483734
 20
95.911453
 30
0.0
 40
0.025
210
0.0
220
0.0
230
1.0
100
AcDbArc
 50
60.000003
 51
149.999997
  0
LINE
  5
2AB
100
AcDbEntity
  8
0
 62
     7
 48
0.074215
100
AcDbLine
 10
142.067123
 20
94.448807
 30
0.0
 11
139.496246
 21
95.933105
 31
0.0
210
0.0
220
0.0
230
1.0
  0
ARC
  5
2AC
100
AcDbEntity
  8
0
 62
     7
100
AcDbCircle
 10
112.357468
 20
109.927368
 30
0.0
 40
33.5
210
0.0
220
0.0
230
1.0
100
AcDbArc
 50
332.48074
 51
87.519267
  0
LINE
  5
2AD
100
AcDbEntity
  8
0
 62
     7
 48
0.074215
100
AcDbLine
 10
113.807465
 20
140.427368
 30
0.0
 11
113.807465
 21
143.395966
 31
0.0
210
0.0
220
0.0
230
1.0
  0
ARC
  5
2AE
100
AcDbEntity
  8
0
 62
     7
100
AcDbCircle
 10
113.782471
 20
140.427368
 30
0.0
 40
0.025
210
0.0
220
0.0
230
1.0
100
AcDbArc
 50
270.000001
 51
0.00001
  0
LINE
  5
2AF
100
AcDbEntity
  8
0
 62
     7
 48
0.07125
100
AcDbLine
 10
110.932465
 20
140.402374
 30
0.0
 11
113.782471
 21
140.402374
 31
0.0
210
0.0
220
0.0
230
1.0
  0
ARC
  5
2B0
100
AcDbEntity
  8
0
 62
     7
100
AcDbCircle
 10
110.932465
 20
140.427368
 30
0.0
 40
0.025
210
0.0
220
0.0
230
1.0
100
AcDbArc
 50
180.000005
 51
270.000001
  0
LINE
  5
2B1
100
AcDbEntity
  8
0
 62
     7
 48
0.074215
100
AcDbLine
 10
110.907471
 20
143.395966
 30
0.0
 11
110.907471
 21
140.427368
 31
0.0
210
0.0
220
0.0
230
1.0
  0
ARC
  5
2B2
100
AcDbEntity
  8
0
 62
     7
100
AcDbCircle
 10
121.170464
 20
137.141937
 30
0.0
 40
0.025
210
0.0
220
0.0
230
1.0
100
AcDbArc
 50
60.000003
 51
149.999997
  0
LINE
  5
2B3
100
AcDbEntity
  8
0
 62
     7
 48
0.29875
100
AcDbLine
 10
131.531967
 20
131.188583
 30
0.0
 11
121.182968
 21
137.163574
 31
0.0
210
0.0
220
0.0
230
1.0
  0
ARC
  5
2B4
100
AcDbEntity
  8
0
 62
     7
100
AcDbCircle
 10
131.51947
 20
131.166931
 30
0.0
 40
0.025
210
0.0
220
0.0
230
1.0
100
AcDbArc
 50
329.999989
 51
59.999997
  0
LINE
  5
2B5
100
AcDbEntity
  8
0
 62
     7
 48
0.12375
100
AcDbLine
 10
129.066116
 20
126.867599
 30
0.0
 11
131.541122
 21
131.154434
 31
0.0
210
0.0
220
0.0
230
1.0
  0
ARC
  5
2B6
100
AcDbEntity
  8
0
 62
     7
100
AcDbCircle
 10
129.044464
 20
126.880104
 30
0.0
 40
0.025
210
0.0
220
0.0
230
1.0
100
AcDbArc
 50
240.000006
 51
329.999989
  0
LINE
  5
2B7
100
AcDbEntity
  8
0
 62
     7
 48
0.29875
100
AcDbLine
 10
118.682968
 20
132.83345
 30
0.0
 11
129.031967
 21
126.858452
 31
0.0
210
0.0
220
0.0
230
1.0
  0
ARC
  5
2B8
100
AcDbEntity
  8
0
 62
     7
100
AcDbCircle
 10
118.695465
 20
132.855103
 30
0.0
 40
0.025
210
0.0
220
0.0
230
1.0
100
AcDbArc
 50
149.999997
 51
240.000006
  0
LINE
  5
2B9
100
AcDbEntity
  8
0
 62
     7
 48
0.12375
100
AcDbLine
 10
121.148819
 20
137.154434
 30
0.0
 11
118.673813
 21
132.867599
 31
0.0
210
0.0
220
0.0
230
1.0
  0
POLYLINE
  5
2BA
100
AcDbEntity
  8
0
 62
     7
100
AcDb2dPolyline
 66
     1
 10
0.0
 20
0.0
 30
0.0
 70
     1
 71
    16
  0
VERTEX
  5
2BB
100
AcDbEntity
  8
0
100
AcDbVertex
100
AcDb2dVertex
 10
176.593109
 20
108.329659
 30
0.0
  0
VERTEX
  5
2BC
100
AcDbEntity
  8
0
100
AcDbVertex
100
AcDb2dVertex
 10
176.593109
 20
111.479317
 30
0.0
  0
VERTEX
  5
2BD
100
AcDbEntity
  8
0
100
AcDbVertex
100
AcDb2dVertex
 10
176.757172
 20
111.654488
 30
0.0
  0
VERTEX
  5
2BE
100
AcDbEntity
  8
0
100
AcDbVertex
100
AcDb2dVertex
 10
176.921234
 20
111.483589
 30
0.0
  0
VERTEX
  5
2BF
100
AcDbEntity
  8
0
100
AcDbVertex
100
AcDb2dVertex
 10
176.921234
 20
110.2873
 30
0.0
  0
VERTEX
  5
2C0
100
AcDbEntity
  8
0
100
AcDbVertex
100
AcDb2dVertex
 10
178.397797
 20
110.2873
 30
0.0
  0
VERTEX
  5
2C1
100
AcDbEntity
  8
0
100
AcDbVertex
100
AcDb2dVertex
 10
178.397797
 20
111.483589
 30
0.0
  0
VERTEX
  5
2C2
100
AcDbEntity
  8
0
100
AcDbVertex
100
AcDb2dVertex
 10
178.561859
 20
111.654488
 30
0.0
  0
VERTEX
  5
2C3
100
AcDbEntity
  8
0
100
AcDbVertex
100
AcDb2dVertex
 10
178.725922
 20
111.479317
 30
0.0
  0
VERTEX
  5
2C4
100
AcDbEntity
  8
0
100
AcDbVertex
100
AcDb2dVertex
 10
178.725922
 20
108.329659
 30
0.0
  0
VERTEX
  5
2C5
100
AcDbEntity
  8
0
100
AcDbVertex
100
AcDb2dVertex
 10
178.561859
 20
108.154488
 30
0.0
  0
VERTEX
  5
2C6
100
AcDbEntity
  8
0
100
AcDbVertex
100
AcDb2dVertex
 10
178.397797
 20
108.334785
 30
0.0
  0
VERTEX
  5
2C7
100
AcDbEntity
  8
0
100
AcDbVertex
100
AcDb2dVertex
 10
178.397797
 20
109.959175
 30
0.0
  0
VERTEX
  5
2C8
100
AcDbEntity
  8
0
100
AcDbVertex
100
AcDb2dVertex
 10
176.921234
 20
109.959175
 30
0.0
  0
VERTEX
  5
2C9
100
AcDbEntity
  8
0
100
AcDbVertex
100
AcDb2dVertex
 10
176.921234
 20
108.334785
 30
0.0
  0
VERTEX
  5
2CA
100
AcDbEntity
  8
0
100
AcDbVertex
100
AcDb2dVertex
 10
176.757172
 20
108.154488
 30
0.0
  0
SEQEND
  5
2CB
100
AcDbEntity
  8
0
  0
POLYLINE
  5
2CC
100
AcDbEntity
  8
0
 62
     7
100
AcDb2dPolyline
 66
     1
 10
0.0
 20
0.0
 30
0.0
 70
     1
 71
    11
  0
VERTEX
  5
2CD
100
AcDbEntity
  8
0
100
AcDbVertex
100
AcDb2dVertex
 10
180.311859
 20
110.2873
 30
0.0
  0
VERTEX
  5
2CE
100
AcDbEntity
  8
0
100
AcDbVertex
100
AcDb2dVertex
 10
180.101974
 20
110.245216
 30
0.0
  0
VERTEX
  5
2CF
100
AcDbEntity
  8
0
100
AcDbVertex
100
AcDb2dVertex
 10
179.925201
 20
110.118965
 30
0.0
  0
VERTEX
  5
2D0
100
AcDbEntity
  8
0
100
AcDbVertex
100
AcDb2dVertex
 10
179.805038
 20
109.933327
 30
0.0
  0
VERTEX
  5
2D1
100
AcDbEntity
  8
0
100
AcDbVertex
100
AcDb2dVertex
 10
179.764984
 20
109.713081
 30
0.0
  0
VERTEX
  5
2D2
100
AcDbEntity
  8
0
100
AcDbVertex
100
AcDb2dVertex
 10
179.764984
 20
109.521675
 30
0.0
  0
VERTEX
  5
2D3
100
AcDbEntity
  8
0
100
AcDbVertex
100
AcDb2dVertex
 10
180.858734
 20
109.521675
 30
0.0
  0
VERTEX
  5
2D4
100
AcDbEntity
  8
0
100
AcDbVertex
100
AcDb2dVertex
 10
180.858734
 20
109.713081
 30
0.0
  0
VERTEX
  5
2D5
100
AcDbEntity
  8
0
100
AcDbVertex
100
AcDb2dVertex
 10
180.81868
 20
109.933327
 30
0.0
  0
VERTEX
  5
2D6
100
AcDbEntity
  8
0
100
AcDbVertex
100
AcDb2dVertex
 10
180.698517
 20
110.118965
 30
0.0
  0
VERTEX
  5
2D7
100
AcDbEntity
  8
0
100
AcDbVertex
100
AcDb2dVertex
 10
180.521744
 20
110.245216
 30
0.0
  0
SEQEND
  5
2D8
100
AcDbEntity
  8
0
  0
POLYLINE
  5
2D9
100
AcDbEntity
  8
0
 62
     7
100
AcDb2dPolyline
 66
     1
 10
0.0
 20
0.0
 30
0.0
 70
     1
 71
    30
  0
VERTEX
  5
2DA
100
AcDbEntity
  8
0
100
AcDbVertex
100
AcDb2dVertex
 10
179.764984
 20
109.19355
 30
0.0
  0
VERTEX
  5
2DB
100
AcDbEntity
  8
0
100
AcDbVertex
100
AcDb2dVertex
 10
179.764984
 20
108.838081
 30
0.0
  0
VERTEX
  5
2DC
100
AcDbEntity
  8
0
100
AcDbVertex
100
AcDb2dVertex
 10
179.79126
 20
108.702858
 30
0.0
  0
VERTEX
  5
2DD
100
AcDbEntity
  8
0
100
AcDbVertex
100
AcDb2dVertex
 10
179.870087
 20
108.587715
 30
0.0
  0
VERTEX
  5
2DE
100
AcDbEntity
  8
0
100
AcDbVertex
100
AcDb2dVertex
 10
179.985229
 20
108.508888
 30
0.0
  0
VERTEX
  5
2DF
100
AcDbEntity
  8
0
100
AcDbVertex
100
AcDb2dVertex
 10
180.120453
 20
108.482613
 30
0.0
  0
VERTEX
  5
2E0
100
AcDbEntity
  8
0
100
AcDbVertex
100
AcDb2dVertex
 10
181.009125
 20
108.482613
 30
0.0
  0
VERTEX
  5
2E1
100
AcDbEntity
  8
0
100
AcDbVertex
100
AcDb2dVertex
 10
181.186859
 20
108.31855
 30
0.0
  0
VERTEX
  5
2E2
100
AcDbEntity
  8
0
100
AcDbVertex
100
AcDb2dVertex
 10
181.011688
 20
108.154488
 30
0.0
  0
VERTEX
  5
2E3
100
AcDbEntity
  8
0
100
AcDbVertex
100
AcDb2dVertex
 10
180.136688
 20
108.154488
 30
0.0
  0
VERTEX
  5
2E4
100
AcDbEntity
  8
0
100
AcDbVertex
100
AcDb2dVertex
 10
179.950836
 20
108.177132
 30
0.0
  0
VERTEX
  5
2E5
100
AcDbEntity
  8
0
100
AcDbVertex
100
AcDb2dVertex
 10
179.785202
 20
108.245064
 30
0.0
  0
VERTEX
  5
2E6
100
AcDbEntity
  8
0
100
AcDbVertex
100
AcDb2dVertex
 10
179.639801
 20
108.358284
 30
0.0
  0
VERTEX
  5
2E7
100
AcDbEntity
  8
0
100
AcDbVertex
100
AcDb2dVertex
 10
179.527054
 20
108.504356
 30
0.0
  0
VERTEX
  5
2E8
100
AcDbEntity
  8
0
100
AcDbVertex
100
AcDb2dVertex
 10
179.459412
 20
108.670837
 30
0.0
  0
VERTEX
  5
2E9
100
AcDbEntity
  8
0
100
AcDbVertex
100
AcDb2dVertex
 10
179.436859
 20
108.857735
 30
0.0
  0
VERTEX
  5
2EA
100
AcDbEntity
  8
0
100
AcDbVertex
100
AcDb2dVertex
 10
179.436859
 20
109.736153
 30
0.0
  0
VERTEX
  5
2EB
100
AcDbEntity
  8
0
100
AcDbVertex
100
AcDb2dVertex
 10
179.465302
 20
109.967438
 30
0.0
  0
VERTEX
  5
2EC
100
AcDbEntity
  8
0
100
AcDbVertex
100
AcDb2dVertex
 10
179.550598
 20
110.174789
 30
0.0
  0
VERTEX
  5
2ED
100
AcDbEntity
  8
0
100
AcDbVertex
100
AcDb2dVertex
 10
179.69278
 20
110.358223
 30
0.0
  0
VERTEX
  5
2EE
100
AcDbEntity
  8
0
100
AcDbVertex
100
AcDb2dVertex
 10
179.875305
 20
110.501114
 30
0.0
  0
VERTEX
  5
2EF
100
AcDbEntity
  8
0
100
AcDbVertex
100
AcDb2dVertex
 10
180.081665
 20
110.586845
 30
0.0
  0
VERTEX
  5
2F0
100
AcDbEntity
  8
0
100
AcDbVertex
100
AcDb2dVertex
 10
180.311859
 20
110.615425
 30
0.0
  0
VERTEX
  5
2F1
100
AcDbEntity
  8
0
100
AcDbVertex
100
AcDb2dVertex
 10
180.544617
 20
110.586845
 30
0.0
  0
VERTEX
  5
2F2
100
AcDbEntity
  8
0
100
AcDbVertex
100
AcDb2dVertex
 10
180.751831
 20
110.501114
 30
0.0
  0
VERTEX
  5
2F3
100
AcDbEntity
  8
0
100
AcDbVertex
100
AcDb2dVertex
 10
180.933502
 20
110.358223
 30
0.0
  0
VERTEX
  5
2F4
100
AcDbEntity
  8
0
100
AcDbVertex
100
AcDb2dVertex
 10
181.074249
 20
110.173744
 30
0.0
  0
VERTEX
  5
2F5
100
AcDbEntity
  8
0
100
AcDbVertex
100
AcDb2dVertex
 10
181.158707
 20
109.963257
 30
0.0
  0
VERTEX
  5
2F6
100
AcDbEntity
  8
0
100
AcDbVertex
100
AcDb2dVertex
 10
181.186859
 20
109.726753
 30
0.0
  0
VERTEX
  5
2F7
100
AcDbEntity
  8
0
100
AcDbVertex
100
AcDb2dVertex
 10
181.186859
 20
109.19355
 30
0.0
  0
SEQEND
  5
2F8
100
AcDbEntity
  8
0
  0
POLYLINE
  5
2F9
100
AcDbEntity
  8
0
 62
     7
100
AcDb2dPolyline
 66
     1
 10
0.0
 20
0.0
 30
0.0
 70
     1
 71
    30
  0
VERTEX
  5
2FA
100
AcDbEntity
  8
0
100
AcDbVertex
100
AcDb2dVertex
 10
182.171234
 20
109.926704
 30
0.0
  0
VERTEX
  5
2FB
100
AcDbEntity
  8
0
100
AcDbVertex
100
AcDb2dVertex
 10
182.171234
 20
108.843208
 30
0.0
  0
VERTEX
  5
2FC
100
AcDbEntity
  8
0
100
AcDbVertex
100
AcDb2dVertex
 10
182.19783
 20
108.706276
 30
0.0
  0
VERTEX
  5
2FD
100
AcDbEntity
  8
0
100
AcDbVertex
100
AcDb2dVertex
 10
182.277618
 20
108.589424
 30
0.0
  0
VERTEX
  5
2FE
100
AcDbEntity
  8
0
100
AcDbVertex
100
AcDb2dVertex
 10
182.394363
 20
108.509315
 30
0.0
  0
VERTEX
  5
2FF
100
AcDbEntity
  8
0
100
AcDbVertex
100
AcDb2dVertex
 10
182.53183
 20
108.482613
 30
0.0
  0
VERTEX
  5
300
100
AcDbEntity
  8
0
100
AcDbVertex
100
AcDb2dVertex
 10
183.072723
 20
108.482613
 30
0.0
  0
VERTEX
  5
301
100
AcDbEntity
  8
0
100
AcDbVertex
100
AcDb2dVertex
 10
183.253021
 20
108.31855
 30
0.0
  0
VERTEX
  5
302
100
AcDbEntity
  8
0
100
AcDbVertex
100
AcDb2dVertex
 10
183.076996
 20
108.154488
 30
0.0
  0
VERTEX
  5
303
100
AcDbEntity
  8
0
100
AcDbVertex
100
AcDb2dVertex
 10
182.548065
 20
108.154488
 30
0.0
  0
VERTEX
  5
304
100
AcDbEntity
  8
0
100
AcDbVertex
100
AcDb2dVertex
 10
182.360641
 20
108.177132
 30
0.0
  0
VERTEX
  5
305
100
AcDbEntity
  8
0
100
AcDbVertex
100
AcDb2dVertex
 10
182.193741
 20
108.245064
 30
0.0
  0
VERTEX
  5
306
100
AcDbEntity
  8
0
100
AcDbVertex
100
AcDb2dVertex
 10
182.047333
 20
108.358284
 30
0.0
  0
VERTEX
  5
307
100
AcDbEntity
  8
0
100
AcDbVertex
100
AcDb2dVertex
 10
181.933868
 20
108.504356
 30
0.0
  0
VERTEX
  5
308
100
AcDbEntity
  8
0
100
AcDbVertex
100
AcDb2dVertex
 10
181.865799
 20
108.670837
 30
0.0
  0
VERTEX
  5
309
100
AcDbEntity
  8
0
100
AcDbVertex
100
AcDb2dVertex
 10
181.843109
 20
108.857735
 30
0.0
  0
VERTEX
  5
30A
100
AcDbEntity
  8
0
100
AcDbVertex
100
AcDb2dVertex
 10
181.843109
 20
109.912178
 30
0.0
  0
VERTEX
  5
30B
100
AcDbEntity
  8
0
100
AcDbVertex
100
AcDb2dVertex
 10
181.865799
 20
110.099075
 30
0.0
  0
VERTEX
  5
30C
100
AcDbEntity
  8
0
100
AcDbVertex
100
AcDb2dVertex
 10
181.933868
 20
110.265556
 30
0.0
  0
VERTEX
  5
30D
100
AcDbEntity
  8
0
100
AcDbVertex
100
AcDb2dVertex
 10
182.047333
 20
110.411629
 30
0.0
  0
VERTEX
  5
30E
100
AcDbEntity
  8
0
100
AcDbVertex
100
AcDb2dVertex
 10
182.193741
 20
110.524849
 30
0.0
  0
VERTEX
  5
30F
100
AcDbEntity
  8
0
100
AcDbVertex
100
AcDb2dVertex
 10
182.360641
 20
110.592781
 30
0.0
  0
VERTEX
  5
310
100
AcDbEntity
  8
0
100
AcDbVertex
100
AcDb2dVertex
 10
182.548065
 20
110.615425
 30
0.0
  0
VERTEX
  5
311
100
AcDbEntity
  8
0
100
AcDbVertex
100
AcDb2dVertex
 10
183.076996
 20
110.615425
 30
0.0
  0
VERTEX
  5
312
100
AcDbEntity
  8
0
100
AcDbVertex
100
AcDb2dVertex
 10
183.253021
 20
110.451363
 30
0.0
  0
VERTEX
  5
313
100
AcDbEntity
  8
0
100
AcDbVertex
100
AcDb2dVertex
 10
183.072723
 20
110.2873
 30
0.0
  0
VERTEX
  5
314
100
AcDbEntity
  8
0
100
AcDbVertex
100
AcDb2dVertex
 10
182.53183
 20
110.2873
 30
0.0
  0
VERTEX
  5
315
100
AcDbEntity
  8
0
100
AcDbVertex
100
AcDb2dVertex
 10
182.392761
 20
110.261024
 30
0.0
  0
VERTEX
  5
316
100
AcDbEntity
  8
0
100
AcDbVertex
100
AcDb2dVertex
 10
182.276337
 20
110.182198
 30
0.0
  0
VERTEX
  5
317
100
AcDbEntity
  8
0
100
AcDbVertex
100
AcDb2dVertex
 10
182.19751
 20
110.065773
 30
0.0
  0
SEQEND
  5
318
100
AcDbEntity
  8
0
  0
POLYLINE
  5
319
100
AcDbEntity
  8
0
 62
     7
100
AcDb2dPolyline
 66
     1
 10
0.0
 20
0.0
 30
0.0
 70
     1
 71
    19
  0
VERTEX
  5
31A
100
AcDbEntity
  8
0
100
AcDbVertex
100
AcDb2dVertex
 10
184.292084
 20
109.33625
 30
0.0
  0
VERTEX
  5
31B
100
AcDbEntity
  8
0
100
AcDbVertex
100
AcDb2dVertex
 10
184.292084
 20
108.336494
 30
0.0
  0
VERTEX
  5
31C
100
AcDbEntity
  8
0
100
AcDbVertex
100
AcDb2dVertex
 10
184.128021
 20
108.154488
 30
0.0
  0
VERTEX
  5
31D
100
AcDbEntity
  8
0
100
AcDbVertex
100
AcDb2dVertex
 10
183.963959
 20
108.329659
 30
0.0
  0
VERTEX
  5
31E
100
AcDbEntity
  8
0
100
AcDbVertex
100
AcDb2dVertex
 10
183.963959
 20
111.479317
 30
0.0
  0
VERTEX
  5
31F
100
AcDbEntity
  8
0
100
AcDbVertex
100
AcDb2dVertex
 10
184.128021
 20
111.654488
 30
0.0
  0
VERTEX
  5
320
100
AcDbEntity
  8
0
100
AcDbVertex
100
AcDb2dVertex
 10
184.292084
 20
111.480171
 30
0.0
  0
VERTEX
  5
321
100
AcDbEntity
  8
0
100
AcDbVertex
100
AcDb2dVertex
 10
184.292084
 20
109.742989
 30
0.0
  0
VERTEX
  5
322
100
AcDbEntity
  8
0
100
AcDbVertex
100
AcDb2dVertex
 10
185.443085
 20
110.587227
 30
0.0
  0
VERTEX
  5
323
100
AcDbEntity
  8
0
100
AcDbVertex
100
AcDb2dVertex
 10
185.545624
 20
110.615425
 30
0.0
  0
VERTEX
  5
324
100
AcDbEntity
  8
0
100
AcDbVertex
100
AcDb2dVertex
 10
185.713959
 20
110.454781
 30
0.0
  0
VERTEX
  5
325
100
AcDbEntity
  8
0
100
AcDbVertex
100
AcDb2dVertex
 10
185.641327
 20
110.325752
 30
0.0
  0
VERTEX
  5
326
100
AcDbEntity
  8
0
100
AcDbVertex
100
AcDb2dVertex
 10
184.934662
 20
109.80793
 30
0.0
  0
VERTEX
  5
327
100
AcDbEntity
  8
0
100
AcDbVertex
100
AcDb2dVertex
 10
185.684906
 20
108.401436
 30
0.0
  0
VERTEX
  5
328
100
AcDbEntity
  8
0
100
AcDbVertex
100
AcDb2dVertex
 10
185.713959
 20
108.322823
 30
0.0
  0
VERTEX
  5
329
100
AcDbEntity
  8
0
100
AcDbVertex
100
AcDb2dVertex
 10
185.663971
 20
108.204048
 30
0.0
  0
VERTEX
  5
32A
100
AcDbEntity
  8
0
100
AcDbVertex
100
AcDb2dVertex
 10
185.543915
 20
108.154488
 30
0.0
  0
VERTEX
  5
32B
100
AcDbEntity
  8
0
100
AcDbVertex
100
AcDb2dVertex
 10
185.395233
 20
108.250191
 30
0.0
  0
VERTEX
  5
32C
100
AcDbEntity
  8
0
100
AcDbVertex
100
AcDb2dVertex
 10
184.66806
 20
109.611397
 30
0.0
  0
SEQEND
  5
32D
100
AcDbEntity
  8
0
  0
POLYLINE
  5
32E
100
AcDbEntity
  8
0
 62
     7
100
AcDb2dPolyline
 66
     1
 10
0.0
 20
0.0
 30
0.0
 70
     1
 71
    52
  0
VERTEX
  5
32F
100
AcDbEntity
  8
0
100
AcDbVertex
100
AcDb2dVertex
 10
187.792084
 20
108.769722
 30
0.0
  0
VERTEX
  5
330
100
AcDbEntity
  8
0
100
AcDbVertex
100
AcDb2dVertex
 10
187.754059
 20
108.926521
 30
0.0
  0
VERTEX
  5
331
100
AcDbEntity
  8
0
100
AcDbVertex
100
AcDb2dVertex
 10
187.639984
 20
109.031197
 30
0.0
  0
VERTEX
  5
332
100
AcDbEntity
  8
0
100
AcDbVertex
100
AcDb2dVertex
 10
186.735077
 20
109.468697
 30
0.0
  0
VERTEX
  5
333
100
AcDbEntity
  8
0
100
AcDbVertex
100
AcDb2dVertex
 10
186.532379
 20
109.603798
 30
0.0
  0
VERTEX
  5
334
100
AcDbEntity
  8
0
100
AcDbVertex
100
AcDb2dVertex
 10
186.410751
 20
109.785805
 30
0.0
  0
VERTEX
  5
335
100
AcDbEntity
  8
0
100
AcDbVertex
100
AcDb2dVertex
 10
186.370209
 20
110.014717
 30
0.0
  0
VERTEX
  5
336
100
AcDbEntity
  8
0
100
AcDbVertex
100
AcDb2dVertex
 10
186.398117
 20
110.19796
 30
0.0
  0
VERTEX
  5
337
100
AcDbEntity
  8
0
100
AcDbVertex
100
AcDb2dVertex
 10
186.481857
 20
110.351196
 30
0.0
  0
VERTEX
  5
338
100
AcDbEntity
  8
0
100
AcDbVertex
100
AcDb2dVertex
 10
186.621429
 20
110.474434
 30
0.0
  0
VERTEX
  5
339
100
AcDbEntity
  8
0
100
AcDbVertex
100
AcDb2dVertex
 10
186.77742
 20
110.552765
 30
0.0
  0
VERTEX
  5
33A
100
AcDbEntity
  8
0
100
AcDbVertex
100
AcDb2dVertex
 10
186.957153
 20
110.599762
 30
0.0
  0
VERTEX
  5
33B
100
AcDbEntity
  8
0
100
AcDbVertex
100
AcDb2dVertex
 10
187.160614
 20
110.615425
 30
0.0
  0
VERTEX
  5
33C
100
AcDbEntity
  8
0
100
AcDbVertex
100
AcDb2dVertex
 10
187.412979
 20
110.593971
 30
0.0
  0
VERTEX
  5
33D
100
AcDbEntity
  8
0
100
AcDbVertex
100
AcDb2dVertex
 10
187.64711
 20
110.529594
 30
0.0
  0
VERTEX
  5
33E
100
AcDbEntity
  8
0
100
AcDbVertex
100
AcDb2dVertex
 10
187.863007
 20
110.42231
 30
0.0
  0
VERTEX
  5
33F
100
AcDbEntity
  8
0
100
AcDbVertex
100
AcDb2dVertex
 10
187.956146
 20
110.268501
 30
0.0
  0
VERTEX
  5
340
100
AcDbEntity
  8
0
100
AcDbVertex
100
AcDb2dVertex
 10
187.903168
 20
110.145027
 30
0.0
  0
VERTEX
  5
341
100
AcDbEntity
  8
0
100
AcDbVertex
100
AcDb2dVertex
 10
187.776703
 20
110.09333
 30
0.0
  0
VERTEX
  5
342
100
AcDbEntity
  8
0
100
AcDbVertex
100
AcDb2dVertex
 10
187.692108
 20
110.117256
 30
0.0
  0
VERTEX
  5
343
100
AcDbEntity
  8
0
100
AcDbVertex
100
AcDb2dVertex
 10
187.516266
 20
110.211723
 30
0.0
  0
VERTEX
  5
344
100
AcDbEntity
  8
0
100
AcDbVertex
100
AcDb2dVertex
 10
187.333984
 20
110.26841
 30
0.0
  0
VERTEX
  5
345
100
AcDbEntity
  8
0
100
AcDbVertex
100
AcDb2dVertex
 10
187.145233
 20
110.2873
 30
0.0
  0
VERTEX
  5
346
100
AcDbEntity
  8
0
100
AcDbVertex
100
AcDb2dVertex
 10
186.896957
 20
110.257584
 30
0.0
  0
VERTEX
  5
347
100
AcDbEntity
  8
0
100
AcDbVertex
100
AcDb2dVertex
 10
186.747986
 20
110.168434
 30
0.0
  0
VERTEX
  5
348
100
AcDbEntity
  8
0
100
AcDbVertex
100
AcDb2dVertex
 10
186.698334
 20
110.019844
 30
0.0
  0
VERTEX
  5
349
100
AcDbEntity
  8
0
100
AcDbVertex
100
AcDb2dVertex
 10
186.740417
 20
109.875221
 30
0.0
  0
VERTEX
  5
34A
100
AcDbEntity
  8
0
100
AcDbVertex
100
AcDb2dVertex
 10
186.866669
 20
109.779732
 30
0.0
  0
VERTEX
  5
34B
100
AcDbEntity
  8
0
100
AcDbVertex
100
AcDb2dVertex
 10
187.780121
 20
109.329414
 30
0.0
  0
VERTEX
  5
34C
100
AcDbEntity
  8
0
100
AcDbVertex
100
AcDb2dVertex
 10
187.969055
 20
109.19146
 30
0.0
  0
VERTEX
  5
34D
100
AcDbEntity
  8
0
100
AcDbVertex
100
AcDb2dVertex
 10
188.082428
 20
109.00547
 30
0.0
  0
VERTEX
  5
34E
100
AcDbEntity
  8
0
100
AcDbVertex
100
AcDb2dVertex
 10
188.120209
 20
108.771431
 30
0.0
  0
VERTEX
  5
34F
100
AcDbEntity
  8
0
100
AcDbVertex
100
AcDb2dVertex
 10
188.092194
 20
108.575562
 30
0.0
  0
VERTEX
  5
350
100
AcDbEntity
  8
0
100
AcDbVertex
100
AcDb2dVertex
 10
188.008179
 20
108.415199
 30
0.0
  0
VERTEX
  5
351
100
AcDbEntity
  8
0
100
AcDbVertex
100
AcDb2dVertex
 10
187.868134
 20
108.290352
 30
0.0
  0
VERTEX
  5
352
100
AcDbEntity
  8
0
100
AcDbVertex
100
AcDb2dVertex
 10
187.711288
 20
108.214874
 30
0.0
  0
VERTEX
  5
353
100
AcDbEntity
  8
0
100
AcDbVertex
100
AcDb2dVertex
 10
187.526718
 20
108.169586
 30
0.0
  0
VERTEX
  5
354
100
AcDbEntity
  8
0
100
AcDbVertex
100
AcDb2dVertex
 10
187.314423
 20
108.154488
 30
0.0
  0
VERTEX
  5
355
100
AcDbEntity
  8
0
100
AcDbVertex
100
AcDb2dVertex
 10
187.072495
 20
108.166664
 30
0.0
  0
VERTEX
  5
356
100
AcDbEntity
  8
0
100
AcDbVertex
100
AcDb2dVertex
 10
186.850861
 20
108.203194
 30
0.0
  0
VERTEX
  5
357
100
AcDbEntity
  8
0
100
AcDbVertex
100
AcDb2dVertex
 10
186.649521
 20
108.264076
 30
0.0
  0
VERTEX
  5
358
100
AcDbEntity
  8
0
100
AcDbVertex
100
AcDb2dVertex
 10
186.468475
 20
108.349312
 30
0.0
  0
VERTEX
  5
359
100
AcDbEntity
  8
0
100
AcDbVertex
100
AcDb2dVertex
 10
186.370209
 20
108.507393
 30
0.0
  0
VERTEX
  5
35A
100
AcDbEntity
  8
0
100
AcDbVertex
100
AcDb2dVertex
 10
186.42276
 20
108.631294
 30
0.0
  0
VERTEX
  5
35B
100
AcDbEntity
  8
0
100
AcDbVertex
100
AcDb2dVertex
 10
186.547943
 20
108.683418
 30
0.0
  0
VERTEX
  5
35C
100
AcDbEntity
  8
0
100
AcDbVertex
100
AcDb2dVertex
 10
186.615448
 20
108.668037
 30
0.0
  0
VERTEX
  5
35D
100
AcDbEntity
  8
0
100
AcDbVertex
100
AcDb2dVertex
 10
186.721832
 20
108.618477
 30
0.0
  0
VERTEX
  5
35E
100
AcDbEntity
  8
0
100
AcDbVertex
100
AcDb2dVertex
 10
186.868378
 20
108.555244
 30
0.0
  0
VERTEX
  5
35F
100
AcDbEntity
  8
0
100
AcDbVertex
100
AcDb2dVertex
 10
187.107635
 20
108.500771
 30
0.0
  0
VERTEX
  5
360
100
AcDbEntity
  8
0
100
AcDbVertex
100
AcDb2dVertex
 10
187.340057
 20
108.482613
 30
0.0
  0
VERTEX
  5
361
100
AcDbEntity
  8
0
100
AcDbVertex
100
AcDb2dVertex
 10
187.591187
 20
108.514511
 30
0.0
  0
VERTEX
  5
362
100
AcDbEntity
  8
0
100
AcDbVertex
100
AcDb2dVertex
 10
187.741852
 20
108.610214
 30
0.0
  0
SEQEND
  5
363
100
AcDbEntity
  8
0
  0
POLYLINE
  5
364
100
AcDbEntity
  8
0
 62
     7
100
AcDb2dPolyline
 66
     1
 10
0.0
 20
0.0
 30
0.0
 70
     1
 71
    20
  0
VERTEX
  5
365
100
AcDbEntity
  8
0
100
AcDbVertex
100
AcDb2dVertex
 10
188.776459
 20
110.440254
 30
0.0
  0
VERTEX
  5
366
100
AcDbEntity
  8
0
100
AcDbVertex
100
AcDb2dVertex
 10
188.95163
 20
110.615425
 30
0.0
  0
VERTEX
  5
367
100
AcDbEntity
  8
0
100
AcDbVertex
100
AcDb2dVertex
 10
189.82663
 20
110.615425
 30
0.0
  0
VERTEX
  5
368
100
AcDbEntity
  8
0
100
AcDbVertex
100
AcDb2dVertex
 10
190.012482
 20
110.592781
 30
0.0
  0
VERTEX
  5
369
100
AcDbEntity
  8
0
100
AcDbVertex
100
AcDb2dVertex
 10
190.178116
 20
110.524849
 30
0.0
  0
VERTEX
  5
36A
100
AcDbEntity
  8
0
100
AcDbVertex
100
AcDb2dVertex
 10
190.323517
 20
110.411629
 30
0.0
  0
VERTEX
  5
36B
100
AcDbEntity
  8
0
100
AcDbVertex
100
AcDb2dVertex
 10
190.436264
 20
110.265556
 30
0.0
  0
VERTEX
  5
36C
100
AcDbEntity
  8
0
100
AcDbVertex
100
AcDb2dVertex
 10
190.503906
 20
110.099075
 30
0.0
  0
VERTEX
  5
36D
100
AcDbEntity
  8
0
100
AcDbVertex
100
AcDb2dVertex
 10
190.526459
 20
109.912178
 30
0.0
  0
VERTEX
  5
36E
100
AcDbEntity
  8
0
100
AcDbVertex
100
AcDb2dVertex
 10
190.526459
 20
108.857735
 30
0.0
  0
VERTEX
  5
36F
100
AcDbEntity
  8
0
100
AcDbVertex
100
AcDb2dVertex
 10
190.503571
 20
108.672119
 30
0.0
  0
VERTEX
  5
370
100
AcDbEntity
  8
0
100
AcDbVertex
100
AcDb2dVertex
 10
190.434937
 20
108.506065
 30
0.0
  0
VERTEX
  5
371
100
AcDbEntity
  8
0
100
AcDbVertex
100
AcDb2dVertex
 10
190.320526
 20
108.359566
 30
0.0
  0
VERTEX
  5
372
100
AcDbEntity
  8
0
100
AcDbVertex
100
AcDb2dVertex
 10
190.172882
 20
108.245636
 30
0.0
  0
VERTEX
  5
373
100
AcDbEntity
  8
0
100
AcDbVertex
100
AcDb2dVertex
 10
190.004547
 20
108.177277
 30
0.0
  0
VERTEX
  5
374
100
AcDbEntity
  8
0
100
AcDbVertex
100
AcDb2dVertex
 10
189.815521
 20
108.154488
 30
0.0
  0
VERTEX
  5
375
100
AcDbEntity
  8
0
100
AcDbVertex
100
AcDb2dVertex
 10
189.104584
 20
108.154488
 30
0.0
  0
VERTEX
  5
376
100
AcDbEntity
  8
0
100
AcDbVertex
100
AcDb2dVertex
 10
189.104584
 20
107.288887
 30
0.0
  0
VERTEX
  5
377
100
AcDbEntity
  8
0
100
AcDbVertex
100
AcDb2dVertex
 10
188.940521
 20
107.115425
 30
0.0
  0
VERTEX
  5
378
100
AcDbEntity
  8
0
100
AcDbVertex
100
AcDb2dVertex
 10
188.776459
 20
107.290596
 30
0.0
  0
SEQEND
  5
379
100
AcDbEntity
  8
0
  0
POLYLINE
  5
37A
100
AcDbEntity
  8
0
 62
     7
100
AcDb2dPolyline
 66
     1
 10
0.0
 20
0.0
 30
0.0
 70
     1
 71
    12
  0
VERTEX
  5
37B
100
AcDbEntity
  8
0
100
AcDbVertex
100
AcDb2dVertex
 10
189.104584
 20
110.2873
 30
0.0
  0
VERTEX
  5
37C
100
AcDbEntity
  8
0
100
AcDbVertex
100
AcDb2dVertex
 10
189.104584
 20
108.482613
 30
0.0
  0
VERTEX
  5
37D
100
AcDbEntity
  8
0
100
AcDbVertex
100
AcDb2dVertex
 10
189.833466
 20
108.482613
 30
0.0
  0
VERTEX
  5
37E
100
AcDbEntity
  8
0
100
AcDbVertex
100
AcDb2dVertex
 10
189.974136
 20
108.508888
 30
0.0
  0
VERTEX
  5
37F
100
AcDbEntity
  8
0
100
AcDbVertex
100
AcDb2dVertex
 10
190.091949
 20
108.587715
 30
0.0
  0
VERTEX
  5
380
100
AcDbEntity
  8
0
100
AcDbVertex
100
AcDb2dVertex
 10
190.171738
 20
108.70414
 30
0.0
  0
VERTEX
  5
381
100
AcDbEntity
  8
0
100
AcDbVertex
100
AcDb2dVertex
 10
190.198334
 20
108.843208
 30
0.0
  0
VERTEX
  5
382
100
AcDbEntity
  8
0
100
AcDbVertex
100
AcDb2dVertex
 10
190.198334
 20
109.926704
 30
0.0
  0
VERTEX
  5
383
100
AcDbEntity
  8
0
100
AcDbVertex
100
AcDb2dVertex
 10
190.172058
 20
110.067375
 30
0.0
  0
VERTEX
  5
384
100
AcDbEntity
  8
0
100
AcDbVertex
100
AcDb2dVertex
 10
190.093231
 20
110.183479
 30
0.0
  0
VERTEX
  5
385
100
AcDbEntity
  8
0
100
AcDbVertex
100
AcDb2dVertex
 10
189.975739
 20
110.261345
 30
0.0
  0
VERTEX
  5
386
100
AcDbEntity
  8
0
100
AcDbVertex
100
AcDb2dVertex
 10
189.833466
 20
110.2873
 30
0.0
  0
SEQEND
  5
387
100
AcDbEntity
  8
0
  0
POLYLINE
  5
388
100
AcDbEntity
  8
0
 62
     7
100
AcDb2dPolyline
 66
     1
 10
0.0
 20
0.0
 30
0.0
 70
     1
 71
    30
  0
VERTEX
  5
389
100
AcDbEntity
  8
0
100
AcDbVertex
100
AcDb2dVertex
 10
191.882538
 20
108.154488
 30
0.0
  0
VERTEX
  5
38A
100
AcDbEntity
  8
0
100
AcDbVertex
100
AcDb2dVertex
 10
191.696686
 20
108.176514
 30
0.0
  0
VERTEX
  5
38B
100
AcDbEntity
  8
0
100
AcDbVertex
100
AcDb2dVertex
 10
191.531052
 20
108.242592
 30
0.0
  0
VERTEX
  5
38C
100
AcDbEntity
  8
0
100
AcDbVertex
100
AcDb2dVertex
 10
191.385651
 20
108.35273
 30
0.0
  0
VERTEX
  5
38D
100
AcDbEntity
  8
0
100
AcDbVertex
100
AcDb2dVertex
 10
191.272903
 20
108.494766
 30
0.0
  0
VERTEX
  5
38E
100
AcDbEntity
  8
0
100
AcDbVertex
100
AcDb2dVertex
 10
191.205261
 20
108.656548
 30
0.0
  0
VERTEX
  5
38F
100
AcDbEntity
  8
0
100
AcDbVertex
100
AcDb2dVertex
 10
191.182709
 20
108.838081
 30
0.0
  0
VERTEX
  5
390
100
AcDbEntity
  8
0
100
AcDbVertex
100
AcDb2dVertex
 10
191.206207
 20
109.017311
 30
0.0
  0
VERTEX
  5
391
100
AcDbEntity
  8
0
100
AcDbVertex
100
AcDb2dVertex
 10
191.276703
 20
109.182442
 30
0.0
  0
VERTEX
  5
392
100
AcDbEntity
  8
0
100
AcDbVertex
100
AcDb2dVertex
 10
191.435257
 20
109.370903
 30
0.0
  0
VERTEX
  5
393
100
AcDbEntity
  8
0
100
AcDbVertex
100
AcDb2dVertex
 10
191.6409
 20
109.483986
 30
0.0
  0
VERTEX
  5
394
100
AcDbEntity
  8
0
100
AcDbVertex
100
AcDb2dVertex
 10
191.893646
 20
109.521675
 30
0.0
  0
VERTEX
  5
395
100
AcDbEntity
  8
0
100
AcDbVertex
100
AcDb2dVertex
 10
192.604584
 20
109.521675
 30
0.0
  0
VERTEX
  5
396
100
AcDbEntity
  8
0
100
AcDbVertex
100
AcDb2dVertex
 10
192.604584
 20
109.904488
 30
0.0
  0
VERTEX
  5
397
100
AcDbEntity
  8
0
100
AcDbVertex
100
AcDb2dVertex
 10
192.578308
 20
110.05381
 30
0.0
  0
VERTEX
  5
398
100
AcDbEntity
  8
0
100
AcDbVertex
100
AcDb2dVertex
 10
192.499481
 20
110.177071
 30
0.0
  0
VERTEX
  5
399
100
AcDbEntity
  8
0
100
AcDbVertex
100
AcDb2dVertex
 10
192.381989
 20
110.259743
 30
0.0
  0
VERTEX
  5
39A
100
AcDbEntity
  8
0
100
AcDbVertex
100
AcDb2dVertex
 10
192.239716
 20
110.2873
 30
0.0
  0
VERTEX
  5
39B
100
AcDbEntity
  8
0
100
AcDbVertex
100
AcDb2dVertex
 10
191.510834
 20
110.2873
 30
0.0
  0
VERTEX
  5
39C
100
AcDbEntity
  8
0
100
AcDbVertex
100
AcDb2dVertex
 10
191.358734
 20
110.451363
 30
0.0
  0
VERTEX
  5
39D
100
AcDbEntity
  8
0
100
AcDbVertex
100
AcDb2dVertex
 10
191.510834
 20
110.615425
 30
0.0
  0
VERTEX
  5
39E
100
AcDbEntity
  8
0
100
AcDbVertex
100
AcDb2dVertex
 10
192.221771
 20
110.615425
 30
0.0
  0
VERTEX
  5
39F
100
AcDbEntity
  8
0
100
AcDbVertex
100
AcDb2dVertex
 10
192.410797
 20
110.592781
 30
0.0
  0
VERTEX
  5
3A0
100
AcDbEntity
  8
0
100
AcDbVertex
100
AcDb2dVertex
 10
192.579132
 20
110.524849
 30
0.0
  0
VERTEX
  5
3A1
100
AcDbEntity
  8
0
100
AcDbVertex
100
AcDb2dVertex
 10
192.726776
 20
110.411629
 30
0.0
  0
VERTEX
  5
3A2
100
AcDbEntity
  8
0
100
AcDbVertex
100
AcDb2dVertex
 10
192.841187
 20
110.265556
 30
0.0
  0
VERTEX
  5
3A3
100
AcDbEntity
  8
0
100
AcDbVertex
100
AcDb2dVertex
 10
192.909821
 20
110.099075
 30
0.0
  0
VERTEX
  5
3A4
100
AcDbEntity
  8
0
100
AcDbVertex
100
AcDb2dVertex
 10
192.932709
 20
109.912178
 30
0.0
  0
VERTEX
  5
3A5
100
AcDbEntity
  8
0
100
AcDbVertex
100
AcDb2dVertex
 10
192.932709
 20
108.330513
 30
0.0
  0
VERTEX
  5
3A6
100
AcDbEntity
  8
0
100
AcDbVertex
100
AcDb2dVertex
 10
192.757538
 20
108.154488
 30
0.0
  0
SEQEND
  5
3A7
100
AcDbEntity
  8
0
  0
POLYLINE
  5
3A8
100
AcDbEntity
  8
0
 62
     7
100
AcDb2dPolyline
 66
     1
 10
0.0
 20
0.0
 30
0.0
 70
     1
 71
    11
  0
VERTEX
  5
3A9
100
AcDbEntity
  8
0
100
AcDbVertex
100
AcDb2dVertex
 10
192.604584
 20
109.19355
 30
0.0
  0
VERTEX
  5
3AA
100
AcDbEntity
  8
0
100
AcDbVertex
100
AcDb2dVertex
 10
191.891083
 20
109.19355
 30
0.0
  0
VERTEX
  5
3AB
100
AcDbEntity
  8
0
100
AcDbVertex
100
AcDb2dVertex
 10
191.753616
 20
109.167595
 30
0.0
  0
VERTEX
  5
3AC
100
AcDbEntity
  8
0
100
AcDbVertex
100
AcDb2dVertex
 10
191.63858
 20
109.089729
 30
0.0
  0
VERTEX
  5
3AD
100
AcDbEntity
  8
0
100
AcDbVertex
100
AcDb2dVertex
 10
191.560715
 20
108.974907
 30
0.0
  0
VERTEX
  5
3AE
100
AcDbEntity
  8
0
100
AcDbVertex
100
AcDb2dVertex
 10
191.53476
 20
108.838081
 30
0.0
  0
VERTEX
  5
3AF
100
AcDbEntity
  8
0
100
AcDbVertex
100
AcDb2dVertex
 10
191.561142
 20
108.702858
 30
0.0
  0
VERTEX
  5
3B0
100
AcDbEntity
  8
0
100
AcDbVertex
100
AcDb2dVertex
 10
191.640289
 20
108.587715
 30
0.0
  0
VERTEX
  5
3B1
100
AcDbEntity
  8
0
100
AcDbVertex
100
AcDb2dVertex
 10
191.755753
 20
108.508888
 30
0.0
  0
VERTEX
  5
3B2
100
AcDbEntity
  8
0
100
AcDbVertex
100
AcDb2dVertex
 10
191.891083
 20
108.482613
 30
0.0
  0
VERTEX
  5
3B3
100
AcDbEntity
  8
0
100
AcDbVertex
100
AcDb2dVertex
 10
192.604584
 20
108.482613
 30
0.0
  0
SEQEND
  5
3B4
100
AcDbEntity
  8
0
  0
POLYLINE
  5
3B5
100
AcDbEntity
  8
0
 62
     7
100
AcDb2dPolyline
 66
     1
 10
0.0
 20
0.0
 30
0.0
 70
     1
 71
    21
  0
VERTEX
  5
3B6
100
AcDbEntity
  8
0
100
AcDbVertex
100
AcDb2dVertex
 10
193.588959
 20
108.330513
 30
0.0
  0
VERTEX
  5
3B7
100
AcDbEntity
  8
0
100
AcDbVertex
100
AcDb2dVertex
 10
193.588959
 20
110.4394
 30
0.0
  0
VERTEX
  5
3B8
100
AcDbEntity
  8
0
100
AcDbVertex
100
AcDb2dVertex
 10
193.76413
 20
110.615425
 30
0.0
  0
VERTEX
  5
3B9
100
AcDbEntity
  8
0
100
AcDbVertex
100
AcDb2dVertex
 10
194.63913
 20
110.615425
 30
0.0
  0
VERTEX
  5
3BA
100
AcDbEntity
  8
0
100
AcDbVertex
100
AcDb2dVertex
 10
194.824982
 20
110.592781
 30
0.0
  0
VERTEX
  5
3BB
100
AcDbEntity
  8
0
100
AcDbVertex
100
AcDb2dVertex
 10
194.990616
 20
110.524849
 30
0.0
  0
VERTEX
  5
3BC
100
AcDbEntity
  8
0
100
AcDbVertex
100
AcDb2dVertex
 10
195.136017
 20
110.411629
 30
0.0
  0
VERTEX
  5
3BD
100
AcDbEntity
  8
0
100
AcDbVertex
100
AcDb2dVertex
 10
195.248764
 20
110.265556
 30
0.0
  0
VERTEX
  5
3BE
100
AcDbEntity
  8
0
100
AcDbVertex
100
AcDb2dVertex
 10
195.316406
 20
110.099075
 30
0.0
  0
VERTEX
  5
3BF
100
AcDbEntity
  8
0
100
AcDbVertex
100
AcDb2dVertex
 10
195.338959
 20
109.912178
 30
0.0
  0
VERTEX
  5
3C0
100
AcDbEntity
  8
0
100
AcDbVertex
100
AcDb2dVertex
 10
195.338959
 20
108.330513
 30
0.0
  0
VERTEX
  5
3C1
100
AcDbEntity
  8
0
100
AcDbVertex
100
AcDb2dVertex
 10
195.174896
 20
108.154488
 30
0.0
  0
VERTEX
  5
3C2
100
AcDbEntity
  8
0
100
AcDbVertex
100
AcDb2dVertex
 10
195.010834
 20
108.332222
 30
0.0
  0
VERTEX
  5
3C3
100
AcDbEntity
  8
0
100
AcDbVertex
100
AcDb2dVertex
 10
195.010834
 20
109.931831
 30
0.0
  0
VERTEX
  5
3C4
100
AcDbEntity
  8
0
100
AcDbVertex
100
AcDb2dVertex
 10
194.984558
 20
110.070259
 30
0.0
  0
VERTEX
  5
3C5
100
AcDbEntity
  8
0
100
AcDbVertex
100
AcDb2dVertex
 10
194.905731
 20
110.184761
 30
0.0
  0
VERTEX
  5
3C6
100
AcDbEntity
  8
0
100
AcDbVertex
100
AcDb2dVertex
 10
194.788239
 20
110.261665
 30
0.0
  0
VERTEX
  5
3C7
100
AcDbEntity
  8
0
100
AcDbVertex
100
AcDb2dVertex
 10
194.645966
 20
110.2873
 30
0.0
  0
VERTEX
  5
3C8
100
AcDbEntity
  8
0
100
AcDbVertex
100
AcDb2dVertex
 10
193.917084
 20
110.2873
 30
0.0
  0
VERTEX
  5
3C9
100
AcDbEntity
  8
0
100
AcDbVertex
100
AcDb2dVertex
 10
193.917084
 20
108.332222
 30
0.0
  0
VERTEX
  5
3CA
100
AcDbEntity
  8
0
100
AcDbVertex
100
AcDb2dVertex
 10
193.753021
 20
108.154488
 30
0.0
  0
SEQEND
  5
3CB
100
AcDbEntity
  8
0
  0
POLYLINE
  5
3CC
100
AcDbEntity
  8
0
 62
     7
100
AcDb2dPolyline
 66
     1
 10
0.0
 20
0.0
 30
0.0
 70
     1
 71
    18
  0
VERTEX
  5
3CD
100
AcDbEntity
  8
0
100
AcDbVertex
100
AcDb2dVertex
 10
196.323334
 20
110.2873
 30
0.0
  0
VERTEX
  5
3CE
100
AcDbEntity
  8
0
100
AcDbVertex
100
AcDb2dVertex
 10
196.159271
 20
110.2873
 30
0.0
  0
VERTEX
  5
3CF
100
AcDbEntity
  8
0
100
AcDbVertex
100
AcDb2dVertex
 10
195.995209
 20
110.451363
 30
0.0
  0
VERTEX
  5
3D0
100
AcDbEntity
  8
0
100
AcDbVertex
100
AcDb2dVertex
 10
196.159271
 20
110.615425
 30
0.0
  0
VERTEX
  5
3D1
100
AcDbEntity
  8
0
100
AcDbVertex
100
AcDb2dVertex
 10
196.323334
 20
110.615425
 30
0.0
  0
VERTEX
  5
3D2
100
AcDbEntity
  8
0
100
AcDbVertex
100
AcDb2dVertex
 10
196.323334
 20
111.481026
 30
0.0
  0
VERTEX
  5
3D3
100
AcDbEntity
  8
0
100
AcDbVertex
100
AcDb2dVertex
 10
196.487396
 20
111.654488
 30
0.0
  0
VERTEX
  5
3D4
100
AcDbEntity
  8
0
100
AcDbVertex
100
AcDb2dVertex
 10
196.651459
 20
111.481026
 30
0.0
  0
VERTEX
  5
3D5
100
AcDbEntity
  8
0
100
AcDbVertex
100
AcDb2dVertex
 10
196.651459
 20
110.615425
 30
0.0
  0
VERTEX
  5
3D6
100
AcDbEntity
  8
0
100
AcDbVertex
100
AcDb2dVertex
 10
197.225677
 20
110.615425
 30
0.0
  0
VERTEX
  5
3D7
100
AcDbEntity
  8
0
100
AcDbVertex
100
AcDb2dVertex
 10
197.369232
 20
110.574409
 30
0.0
  0
VERTEX
  5
3D8
100
AcDbEntity
  8
0
100
AcDbVertex
100
AcDb2dVertex
 10
197.417084
 20
110.451363
 30
0.0
  0
VERTEX
  5
3D9
100
AcDbEntity
  8
0
100
AcDbVertex
100
AcDb2dVertex
 10
197.369232
 20
110.328316
 30
0.0
  0
VERTEX
  5
3DA
100
AcDbEntity
  8
0
100
AcDbVertex
100
AcDb2dVertex
 10
197.225677
 20
110.2873
 30
0.0
  0
VERTEX
  5
3DB
100
AcDbEntity
  8
0
100
AcDbVertex
100
AcDb2dVertex
 10
196.651459
 20
110.2873
 30
0.0
  0
VERTEX
  5
3DC
100
AcDbEntity
  8
0
100
AcDbVertex
100
AcDb2dVertex
 10
196.651459
 20
108.332222
 30
0.0
  0
VERTEX
  5
3DD
100
AcDbEntity
  8
0
100
AcDbVertex
100
AcDb2dVertex
 10
196.487396
 20
108.154488
 30
0.0
  0
VERTEX
  5
3DE
100
AcDbEntity
  8
0
100
AcDbVertex
100
AcDb2dVertex
 10
196.323334
 20
108.332222
 30
0.0
  0
SEQEND
  5
3DF
100
AcDbEntity
  8
0
  0
ARC
  5
3E0
100
AcDbEntity
  8
0
 62
     7
100
AcDbCircle
 10
187.609619
 20
109.604736
 30
0.0
 40
33.5
210
0.0
220
0.0
230
1.0
100
AcDbArc
 50
92.480741
 51
207.519261
  0
LINE
  5
3E1
100
AcDbEntity
  8
0
 62
     7
 48
0.074215
100
AcDbLine
 10
157.899963
 20
94.126175
 30
0.0
 11
160.47084
 21
95.610474
 31
0.0
210
0.0
220
0.0
230
1.0
  0
ARC
  5
3E2
100
AcDbEntity
  8
0
 62
     7
100
AcDbCircle
 10
160.483337
 20
95.588821
 30
0.0
 40
0.025
210
0.0
220
0.0
230
1.0
100
AcDbArc
 50
30.0
 51
120.000003
  0
LINE
  5
3E3
100
AcDbEntity
  8
0
 62
     7
 48
0.07125
100
AcDbLine
 10
160.50499
 20
95.601318
 30
0.0
 11
161.929993
 21
93.133148
 31
0.0
210
0.0
220
0.0
230
1.0
  0
ARC
  5
3E4
100
AcDbEntity
  8
0
 62
     7
100
AcDbCircle
 10
161.90834
 20
93.120651
 30
0.0
 40
0.025
210
0.0
220
0.0
230
1.0
100
AcDbArc
 50
299.999994
 51
30.000003
  0
LINE
  5
3E5
100
AcDbEntity
  8
0
 62
     7
 48
0.074215
100
AcDbLine
 10
161.920837
 20
93.098999
 30
0.0
 11
159.34996
 21
91.6147
 31
0.0
210
0.0
220
0.0
230
1.0
  0
ARC
  5
3E6
100
AcDbEntity
  8
0
 62
     7
100
AcDbCircle
 10
187.609619
 20
109.604736
 30
0.0
 40
33.5
210
0.0
220
0.0
230
1.0
100
AcDbArc
 50
212.480738
 51
327.519262
  0
LINE
  5
3E7
100
AcDbEntity
  8
0
 62
     7
 48
0.074215
100
AcDbLine
 10
213.298401
 20
93.098999
 30
0.0
 11
215.869278
 21
91.6147
 31
0.0
210
0.0
220
0.0
230
1.0
  0
ARC
  5
3E8
100
AcDbEntity
  8
0
 62
     7
100
AcDbCircle
 10
213.310898
 20
93.120651
 30
0.0
 40
0.025
210
0.0
220
0.0
230
1.0
100
AcDbArc
 50
149.999997
 51
240.000006
  0
LINE
  5
3E9
100
AcDbEntity
  8
0
 62
     7
 48
0.07125
100
AcDbLine
 10
214.714249
 20
95.601318
 30
0.0
 11
213.289246
 21
93.133148
 31
0.0
210
0.0
220
0.0
230
1.0
  0
ARC
  5
3EA
100
AcDbEntity
  8
0
 62
     7
100
AcDbCircle
 10
214.735901
 20
95.588821
 30
0.0
 40
0.025
210
0.0
220
0.0
230
1.0
100
AcDbArc
 50
60.000003
 51
149.999997
  0
LINE
  5
3EB
100
AcDbEntity
  8
0
 62
     7
 48
0.074215
100
AcDbLine
 10
217.319275
 20
94.126175
 30
0.0
 11
214.748398
 21
95.610474
 31
0.0
210
0.0
220
0.0
230
1.0
  0
ARC
  5
3EC
100
AcDbEntity
  8
0
 62
     7
100
AcDbCircle
 10
187.609619
 20
109.604736
 30
0.0
 40
33.5
210
0.0
220
0.0
230
1.0
100
AcDbArc
 50
332.48074
 51
87.519267
  0
LINE
  5
3ED
100
AcDbEntity
  8
0
 62
     7
 48
0.074215
100
AcDbLine
 10
189.059616
 20
140.104736
 30
0.0
 11
189.059616
 21
143.073334
 31
0.0
210
0.0
220
0.0
230
1.0
  0
ARC
  5
3EE
100
AcDbEntity
  8
0
 62
     7
100
AcDbCircle
 10
189.034622
 20
140.104736
 30
0.0
 40
0.025
210
0.0
220
0.0
230
1.0
100
AcDbArc
 50
270.000001
 51
0.00001
  0
LINE
  5
3EF
100
AcDbEntity
  8
0
 62
     7
 48
0.07125
100
AcDbLine
 10
186.184616
 20
140.079742
 30
0.0
 11
189.034622
 21
140.079742
 31
0.0
210
0.0
220
0.0
230
1.0
  0
ARC
  5
3F0
100
AcDbEntity
  8
0
 62
     7
100
AcDbCircle
 10
186.184616
 20
140.104736
 30
0.0
 40
0.025
210
0.0
220
0.0
230
1.0
100
AcDbArc
 50
180.000005
 51
270.000001
  0
LINE
  5
3F1
100
AcDbEntity
  8
0
 62
     7
 48
0.074215
100
AcDbLine
 10
186.159622
 20
143.073334
 30
0.0
 11
186.159622
 21
140.104736
 31
0.0
210
0.0
220
0.0
230
1.0
  0
CIRCLE
  5
3F2
100
AcDbEntity
  8
0
 62
     7
100
AcDbCircle
 10
187.609619
 20
109.604736
 30
0.0
 40
27.5
210
0.0
220
0.0
230
1.0
  0
POLYLINE
  5
3F3
100
AcDbEntity
  8
0
 62
     7
100
AcDb2dPolyline
 66
     1
 10
0.0
 20
0.0
 30
0.0
 70
     1
 71
    14
  0
VERTEX
  5
3F4
100
AcDbEntity
  8
0
100
AcDbVertex
100
AcDb2dVertex
 10
51.261185
 20
46.422264
 30
0.0
  0
VERTEX
  5
3F5
100
AcDbEntity
  8
0
100
AcDbVertex
100
AcDb2dVertex
 10
51.261185
 20
49.571922
 30
0.0
  0
VERTEX
  5
3F6
100
AcDbEntity
  8
0
100
AcDbVertex
100
AcDb2dVertex
 10
51.436356
 20
49.747093
 30
0.0
  0
VERTEX
  5
3F7
100
AcDbEntity
  8
0
100
AcDbVertex
100
AcDb2dVertex
 10
52.836014
 20
49.747093
 30
0.0
  0
VERTEX
  5
3F8
100
AcDbEntity
  8
0
100
AcDbVertex
100
AcDb2dVertex
 10
53.011185
 20
49.583031
 30
0.0
  0
VERTEX
  5
3F9
100
AcDbEntity
  8
0
100
AcDbVertex
100
AcDb2dVertex
 10
52.83345
 20
49.418968
 30
0.0
  0
VERTEX
  5
3FA
100
AcDbEntity
  8
0
100
AcDbVertex
100
AcDb2dVertex
 10
51.58931
 20
49.418968
 30
0.0
  0
VERTEX
  5
3FB
100
AcDbEntity
  8
0
100
AcDbVertex
100
AcDb2dVertex
 10
51.58931
 20
48.379906
 30
0.0
  0
VERTEX
  5
3FC
100
AcDbEntity
  8
0
100
AcDbVertex
100
AcDb2dVertex
 10
52.83345
 20
48.379906
 30
0.0
  0
VERTEX
  5
3FD
100
AcDbEntity
  8
0
100
AcDbVertex
100
AcDb2dVertex
 10
53.011185
 20
48.215843
 30
0.0
  0
VERTEX
  5
3FE
100
AcDbEntity
  8
0
100
AcDbVertex
100
AcDb2dVertex
 10
52.83345
 20
48.051781
 30
0.0
  0
VERTEX
  5
3FF
100
AcDbEntity
  8
0
100
AcDbVertex
100
AcDb2dVertex
 10
51.58931
 20
48.051781
 30
0.0
  0
VERTEX
  5
400
100
AcDbEntity
  8
0
100
AcDbVertex
100
AcDb2dVertex
 10
51.58931
 20
46.427391
 30
0.0
  0
VERTEX
  5
401
100
AcDbEntity
  8
0
100
AcDbVertex
100
AcDb2dVertex
 10
51.425247
 20
46.247093
 30
0.0
  0
SEQEND
  5
402
100
AcDbEntity
  8
0
  0
POLYLINE
  5
403
100
AcDbEntity
  8
0
 62
     7
100
AcDb2dPolyline
 66
     1
 10
0.0
 20
0.0
 30
0.0
 70
     1
 71
    30
  0
VERTEX
  5
404
100
AcDbEntity
  8
0
100
AcDbVertex
100
AcDb2dVertex
 10
54.367264
 20
46.247093
 30
0.0
  0
VERTEX
  5
405
100
AcDbEntity
  8
0
100
AcDbVertex
100
AcDb2dVertex
 10
54.181412
 20
46.269119
 30
0.0
  0
VERTEX
  5
406
100
AcDbEntity
  8
0
100
AcDbVertex
100
AcDb2dVertex
 10
54.015781
 20
46.335201
 30
0.0
  0
VERTEX
  5
407
100
AcDbEntity
  8
0
100
AcDbVertex
100
AcDb2dVertex
 10
53.870377
 20
46.445335
 30
0.0
  0
VERTEX
  5
408
100
AcDbEntity
  8
0
100
AcDbVertex
100
AcDb2dVertex
 10
53.757629
 20
46.587372
 30
0.0
  0
VERTEX
  5
409
100
AcDbEntity
  8
0
100
AcDbVertex
100
AcDb2dVertex
 10
53.689983
 20
46.749153
 30
0.0
  0
VERTEX
  5
40A
100
AcDbEntity
  8
0
100
AcDbVertex
100
AcDb2dVertex
 10
53.667435
 20
46.930687
 30
0.0
  0
VERTEX
  5
40B
100
AcDbEntity
  8
0
100
AcDbVertex
100
AcDb2dVertex
 10
53.690933
 20
47.109917
 30
0.0
  0
VERTEX
  5
40C
100
AcDbEntity
  8
0
100
AcDbVertex
100
AcDb2dVertex
 10
53.761429
 20
47.275047
 30
0.0
  0
VERTEX
  5
40D
100
AcDbEntity
  8
0
100
AcDbVertex
100
AcDb2dVertex
 10
53.919983
 20
47.463509
 30
0.0
  0
VERTEX
  5
40E
100
AcDbEntity
  8
0
100
AcDbVertex
100
AcDb2dVertex
 10
54.125633
 20
47.576588
 30
0.0
  0
VERTEX
  5
40F
100
AcDbEntity
  8
0
100
AcDbVertex
100
AcDb2dVertex
 10
54.378372
 20
47.614281
 30
0.0
  0
VERTEX
  5
410
100
AcDbEntity
  8
0
100
AcDbVertex
100
AcDb2dVertex
 10
55.08931
 20
47.614281
 30
0.0
  0
VERTEX
  5
411
100
AcDbEntity
  8
0
100
AcDbVertex
100
AcDb2dVertex
 10
55.08931
 20
47.997093
 30
0.0
  0
VERTEX
  5
412
100
AcDbEntity
  8
0
100
AcDbVertex
100
AcDb2dVertex
 10
55.063034
 20
48.146416
 30
0.0
  0
VERTEX
  5
413
100
AcDbEntity
  8
0
100
AcDbVertex
100
AcDb2dVertex
 10
54.984207
 20
48.269676
 30
0.0
  0
VERTEX
  5
414
100
AcDbEntity
  8
0
100
AcDbVertex
100
AcDb2dVertex
 10
54.866714
 20
48.352348
 30
0.0
  0
VERTEX
  5
415
100
AcDbEntity
  8
0
100
AcDbVertex
100
AcDb2dVertex
 10
54.724442
 20
48.379906
 30
0.0
  0
VERTEX
  5
416
100
AcDbEntity
  8
0
100
AcDbVertex
100
AcDb2dVertex
 10
53.99556
 20
48.379906
 30
0.0
  0
VERTEX
  5
417
100
AcDbEntity
  8
0
100
AcDbVertex
100
AcDb2dVertex
 10
53.84346
 20
48.543968
 30
0.0
  0
VERTEX
  5
418
100
AcDbEntity
  8
0
100
AcDbVertex
100
AcDb2dVertex
 10
53.99556
 20
48.708031
 30
0.0
  0
VERTEX
  5
419
100
AcDbEntity
  8
0
100
AcDbVertex
100
AcDb2dVertex
 10
54.706497
 20
48.708031
 30
0.0
  0
VERTEX
  5
41A
100
AcDbEntity
  8
0
100
AcDbVertex
100
AcDb2dVertex
 10
54.895531
 20
48.685387
 30
0.0
  0
VERTEX
  5
41B
100
AcDbEntity
  8
0
100
AcDbVertex
100
AcDb2dVertex
 10
55.063866
 20
48.617455
 30
0.0
  0
VERTEX
  5
41C
100
AcDbEntity
  8
0
100
AcDbVertex
100
AcDb2dVertex
 10
55.211502
 20
48.504234
 30
0.0
  0
VERTEX
  5
41D
100
AcDbEntity
  8
0
100
AcDbVertex
100
AcDb2dVertex
 10
55.325909
 20
48.358162
 30
0.0
  0
VERTEX
  5
41E
100
AcDbEntity
  8
0
100
AcDbVertex
100
AcDb2dVertex
 10
55.394554
 20
48.191681
 30
0.0
  0
VERTEX
  5
41F
100
AcDbEntity
  8
0
100
AcDbVertex
100
AcDb2dVertex
 10
55.417435
 20
48.004784
 30
0.0
  0
VERTEX
  5
420
100
AcDbEntity
  8
0
100
AcDbVertex
100
AcDb2dVertex
 10
55.417435
 20
46.423119
 30
0.0
  0
VERTEX
  5
421
100
AcDbEntity
  8
0
100
AcDbVertex
100
AcDb2dVertex
 10
55.242264
 20
46.247093
 30
0.0
  0
SEQEND
  5
422
100
AcDbEntity
  8
0
  0
POLYLINE
  5
423
100
AcDbEntity
  8
0
 62
     7
100
AcDb2dPolyline
 66
     1
 10
0.0
 20
0.0
 30
0.0
 70
     1
 71
    11
  0
VERTEX
  5
424
100
AcDbEntity
  8
0
100
AcDbVertex
100
AcDb2dVertex
 10
55.08931
 20
47.286156
 30
0.0
  0
VERTEX
  5
425
100
AcDbEntity
  8
0
100
AcDbVertex
100
AcDb2dVertex
 10
54.375809
 20
47.286156
 30
0.0
  0
VERTEX
  5
426
100
AcDbEntity
  8
0
100
AcDbVertex
100
AcDb2dVertex
 10
54.238342
 20
47.260201
 30
0.0
  0
VERTEX
  5
427
100
AcDbEntity
  8
0
100
AcDbVertex
100
AcDb2dVertex
 10
54.123306
 20
47.182335
 30
0.0
  0
VERTEX
  5
428
100
AcDbEntity
  8
0
100
AcDbVertex
100
AcDb2dVertex
 10
54.045441
 20
47.067513
 30
0.0
  0
VERTEX
  5
429
100
AcDbEntity
  8
0
100
AcDbVertex
100
AcDb2dVertex
 10
54.019485
 20
46.930687
 30
0.0
  0
VERTEX
  5
42A
100
AcDbEntity
  8
0
100
AcDbVertex
100
AcDb2dVertex
 10
54.045868
 20
46.795464
 30
0.0
  0
VERTEX
  5
42B
100
AcDbEntity
  8
0
100
AcDbVertex
100
AcDb2dVertex
 10
54.125015
 20
46.680321
 30
0.0
  0
VERTEX
  5
42C
100
AcDbEntity
  8
0
100
AcDbVertex
100
AcDb2dVertex
 10
54.240479
 20
46.601494
 30
0.0
  0
VERTEX
  5
42D
100
AcDbEntity
  8
0
100
AcDbVertex
100
AcDb2dVertex
 10
54.375809
 20
46.575218
 30
0.0
  0
VERTEX
  5
42E
100
AcDbEntity
  8
0
100
AcDbVertex
100
AcDb2dVertex
 10
55.08931
 20
46.575218
 30
0.0
  0
SEQEND
  5
42F
100
AcDbEntity
  8
0
  0
POLYLINE
  5
430
100
AcDbEntity
  8
0
 62
     7
100
AcDb2dPolyline
 66
     1
 10
0.0
 20
0.0
 30
0.0
 70
     1
 71
    13
  0
VERTEX
  5
431
100
AcDbEntity
  8
0
100
AcDbVertex
100
AcDb2dVertex
 10
56.073685
 20
49.571922
 30
0.0
  0
VERTEX
  5
432
100
AcDbEntity
  8
0
100
AcDbVertex
100
AcDb2dVertex
 10
56.237747
 20
49.747093
 30
0.0
  0
VERTEX
  5
433
100
AcDbEntity
  8
0
100
AcDbVertex
100
AcDb2dVertex
 10
56.40181
 20
49.571922
 30
0.0
  0
VERTEX
  5
434
100
AcDbEntity
  8
0
100
AcDbVertex
100
AcDb2dVertex
 10
56.40181
 20
46.771751
 30
0.0
  0
VERTEX
  5
435
100
AcDbEntity
  8
0
100
AcDbVertex
100
AcDb2dVertex
 10
56.448914
 20
46.660561
 30
0.0
  0
VERTEX
  5
436
100
AcDbEntity
  8
0
100
AcDbVertex
100
AcDb2dVertex
 10
56.590225
 20
46.597008
 30
0.0
  0
VERTEX
  5
437
100
AcDbEntity
  8
0
100
AcDbVertex
100
AcDb2dVertex
 10
56.731537
 20
46.533455
 30
0.0
  0
VERTEX
  5
438
100
AcDbEntity
  8
0
100
AcDbVertex
100
AcDb2dVertex
 10
56.778641
 20
46.422264
 30
0.0
  0
VERTEX
  5
439
100
AcDbEntity
  8
0
100
AcDbVertex
100
AcDb2dVertex
 10
56.602615
 20
46.247093
 30
0.0
  0
VERTEX
  5
43A
100
AcDbEntity
  8
0
100
AcDbVertex
100
AcDb2dVertex
 10
56.388031
 20
46.281914
 30
0.0
  0
VERTEX
  5
43B
100
AcDbEntity
  8
0
100
AcDbVertex
100
AcDb2dVertex
 10
56.219376
 20
46.386375
 30
0.0
  0
VERTEX
  5
43C
100
AcDbEntity
  8
0
100
AcDbVertex
100
AcDb2dVertex
 10
56.110107
 20
46.552361
 30
0.0
  0
VERTEX
  5
43D
100
AcDbEntity
  8
0
100
AcDbVertex
100
AcDb2dVertex
 10
56.073685
 20
46.771751
 30
0.0
  0
SEQEND
  5
43E
100
AcDbEntity
  8
0
  0
POLYLINE
  5
43F
100
AcDbEntity
  8
0
 62
     7
100
AcDb2dPolyline
 66
     1
 10
0.0
 20
0.0
 30
0.0
 70
     1
 71
    13
  0
VERTEX
  5
440
100
AcDbEntity
  8
0
100
AcDbVertex
100
AcDb2dVertex
 10
57.489578
 20
49.571922
 30
0.0
  0
VERTEX
  5
441
100
AcDbEntity
  8
0
100
AcDbVertex
100
AcDb2dVertex
 10
57.653641
 20
49.747093
 30
0.0
  0
VERTEX
  5
442
100
AcDbEntity
  8
0
100
AcDbVertex
100
AcDb2dVertex
 10
57.817703
 20
49.571922
 30
0.0
  0
VERTEX
  5
443
100
AcDbEntity
  8
0
100
AcDbVertex
100
AcDb2dVertex
 10
57.817703
 20
46.771751
 30
0.0
  0
VERTEX
  5
444
100
AcDbEntity
  8
0
100
AcDbVertex
100
AcDb2dVertex
 10
57.864807
 20
46.660561
 30
0.0
  0
VERTEX
  5
445
100
AcDbEntity
  8
0
100
AcDbVertex
100
AcDb2dVertex
 10
58.006119
 20
46.597008
 30
0.0
  0
VERTEX
  5
446
100
AcDbEntity
  8
0
100
AcDbVertex
100
AcDb2dVertex
 10
58.14743
 20
46.533455
 30
0.0
  0
VERTEX
  5
447
100
AcDbEntity
  8
0
100
AcDbVertex
100
AcDb2dVertex
 10
58.194534
 20
46.422264
 30
0.0
  0
VERTEX
  5
448
100
AcDbEntity
  8
0
100
AcDbVertex
100
AcDb2dVertex
 10
58.018509
 20
46.247093
 30
0.0
  0
VERTEX
  5
449
100
AcDbEntity
  8
0
100
AcDbVertex
100
AcDb2dVertex
 10
57.803925
 20
46.281914
 30
0.0
  0
VERTEX
  5
44A
100
AcDbEntity
  8
0
100
AcDbVertex
100
AcDb2dVertex
 10
57.635269
 20
46.386375
 30
0.0
  0
VERTEX
  5
44B
100
AcDbEntity
  8
0
100
AcDbVertex
100
AcDb2dVertex
 10
57.526001
 20
46.552361
 30
0.0
  0
VERTEX
  5
44C
100
AcDbEntity
  8
0
100
AcDbVertex
100
AcDb2dVertex
 10
57.489578
 20
46.771751
 30
0.0
  0
SEQEND
  5
44D
100
AcDbEntity
  8
0
  0
POLYLINE
  5
44E
100
AcDbEntity
  8
0
 62
     7
100
AcDb2dPolyline
 66
     1
 10
0.0
 20
0.0
 30
0.0
 70
     1
 71
    52
  0
VERTEX
  5
44F
100
AcDbEntity
  8
0
100
AcDbVertex
100
AcDb2dVertex
 10
60.327347
 20
46.862328
 30
0.0
  0
VERTEX
  5
450
100
AcDbEntity
  8
0
100
AcDbVertex
100
AcDb2dVertex
 10
60.289322
 20
47.019127
 30
0.0
  0
VERTEX
  5
451
100
AcDbEntity
  8
0
100
AcDbVertex
100
AcDb2dVertex
 10
60.175247
 20
47.123802
 30
0.0
  0
VERTEX
  5
452
100
AcDbEntity
  8
0
100
AcDbVertex
100
AcDb2dVertex
 10
59.27034
 20
47.561302
 30
0.0
  0
VERTEX
  5
453
100
AcDbEntity
  8
0
100
AcDbVertex
100
AcDb2dVertex
 10
59.067635
 20
47.696407
 30
0.0
  0
VERTEX
  5
454
100
AcDbEntity
  8
0
100
AcDbVertex
100
AcDb2dVertex
 10
58.946014
 20
47.878414
 30
0.0
  0
VERTEX
  5
455
100
AcDbEntity
  8
0
100
AcDbVertex
100
AcDb2dVertex
 10
58.905472
 20
48.107323
 30
0.0
  0
VERTEX
  5
456
100
AcDbEntity
  8
0
100
AcDbVertex
100
AcDb2dVertex
 10
58.933384
 20
48.290565
 30
0.0
  0
VERTEX
  5
457
100
AcDbEntity
  8
0
100
AcDbVertex
100
AcDb2dVertex
 10
59.017124
 20
48.443802
 30
0.0
  0
VERTEX
  5
458
100
AcDbEntity
  8
0
100
AcDbVertex
100
AcDb2dVertex
 10
59.156693
 20
48.567039
 30
0.0
  0
VERTEX
  5
459
100
AcDbEntity
  8
0
100
AcDbVertex
100
AcDb2dVertex
 10
59.312683
 20
48.645367
 30
0.0
  0
VERTEX
  5
45A
100
AcDbEntity
  8
0
100
AcDbVertex
100
AcDb2dVertex
 10
59.492413
 20
48.692364
 30
0.0
  0
VERTEX
  5
45B
100
AcDbEntity
  8
0
100
AcDbVertex
100
AcDb2dVertex
 10
59.695877
 20
48.708031
 30
0.0
  0
VERTEX
  5
45C
100
AcDbEntity
  8
0
100
AcDbVertex
100
AcDb2dVertex
 10
59.948238
 20
48.686573
 30
0.0
  0
VERTEX
  5
45D
100
AcDbEntity
  8
0
100
AcDbVertex
100
AcDb2dVertex
 10
60.182369
 20
48.6222
 30
0.0
  0
VERTEX
  5
45E
100
AcDbEntity
  8
0
100
AcDbVertex
100
AcDb2dVertex
 10
60.39827
 20
48.514915
 30
0.0
  0
VERTEX
  5
45F
100
AcDbEntity
  8
0
100
AcDbVertex
100
AcDb2dVertex
 10
60.491409
 20
48.361107
 30
0.0
  0
VERTEX
  5
460
100
AcDbEntity
  8
0
100
AcDbVertex
100
AcDb2dVertex
 10
60.438431
 20
48.237633
 30
0.0
  0
VERTEX
  5
461
100
AcDbEntity
  8
0
100
AcDbVertex
100
AcDb2dVertex
 10
60.311966
 20
48.185936
 30
0.0
  0
VERTEX
  5
462
100
AcDbEntity
  8
0
100
AcDbVertex
100
AcDb2dVertex
 10
60.227371
 20
48.209862
 30
0.0
  0
VERTEX
  5
463
100
AcDbEntity
  8
0
100
AcDbVertex
100
AcDb2dVertex
 10
60.051537
 20
48.304329
 30
0.0
  0
VERTEX
  5
464
100
AcDbEntity
  8
0
100
AcDbVertex
100
AcDb2dVertex
 10
59.869244
 20
48.361012
 30
0.0
  0
VERTEX
  5
465
100
AcDbEntity
  8
0
100
AcDbVertex
100
AcDb2dVertex
 10
59.680496
 20
48.379906
 30
0.0
  0
VERTEX
  5
466
100
AcDbEntity
  8
0
100
AcDbVertex
100
AcDb2dVertex
 10
59.43222
 20
48.350189
 30
0.0
  0
VERTEX
  5
467
100
AcDbEntity
  8
0
100
AcDbVertex
100
AcDb2dVertex
 10
59.283253
 20
48.261036
 30
0.0
  0
VERTEX
  5
468
100
AcDbEntity
  8
0
100
AcDbVertex
100
AcDb2dVertex
 10
59.233597
 20
48.11245
 30
0.0
  0
VERTEX
  5
469
100
AcDbEntity
  8
0
100
AcDbVertex
100
AcDb2dVertex
 10
59.275681
 20
47.967827
 30
0.0
  0
VERTEX
  5
46A
100
AcDbEntity
  8
0
100
AcDbVertex
100
AcDb2dVertex
 10
59.401932
 20
47.872337
 30
0.0
  0
VERTEX
  5
46B
100
AcDbEntity
  8
0
100
AcDbVertex
100
AcDb2dVertex
 10
60.315384
 20
47.42202
 30
0.0
  0
VERTEX
  5
46C
100
AcDbEntity
  8
0
100
AcDbVertex
100
AcDb2dVertex
 10
60.504322
 20
47.284065
 30
0.0
  0
VERTEX
  5
46D
100
AcDbEntity
  8
0
100
AcDbVertex
100
AcDb2dVertex
 10
60.617683
 20
47.098072
 30
0.0
  0
VERTEX
  5
46E
100
AcDbEntity
  8
0
100
AcDbVertex
100
AcDb2dVertex
 10
60.655472
 20
46.864037
 30
0.0
  0
VERTEX
  5
46F
100
AcDbEntity
  8
0
100
AcDbVertex
100
AcDb2dVertex
 10
60.627464
 20
46.668167
 30
0.0
  0
VERTEX
  5
470
100
AcDbEntity
  8
0
100
AcDbVertex
100
AcDb2dVertex
 10
60.543438
 20
46.507809
 30
0.0
  0
VERTEX
  5
471
100
AcDbEntity
  8
0
100
AcDbVertex
100
AcDb2dVertex
 10
60.403397
 20
46.382957
 30
0.0
  0
VERTEX
  5
472
100
AcDbEntity
  8
0
100
AcDbVertex
100
AcDb2dVertex
 10
60.246552
 20
46.307476
 30
0.0
  0
VERTEX
  5
473
100
AcDbEntity
  8
0
100
AcDbVertex
100
AcDb2dVertex
 10
60.061981
 20
46.262188
 30
0.0
  0
VERTEX
  5
474
100
AcDbEntity
  8
0
100
AcDbVertex
100
AcDb2dVertex
 10
59.849686
 20
46.247093
 30
0.0
  0
VERTEX
  5
475
100
AcDbEntity
  8
0
100
AcDbVertex
100
AcDb2dVertex
 10
59.607758
 20
46.25927
 30
0.0
  0
VERTEX
  5
476
100
AcDbEntity
  8
0
100
AcDbVertex
100
AcDb2dVertex
 10
59.386124
 20
46.295799
 30
0.0
  0
VERTEX
  5
477
100
AcDbEntity
  8
0
100
AcDbVertex
100
AcDb2dVertex
 10
59.184784
 20
46.356682
 30
0.0
  0
VERTEX
  5
478
100
AcDbEntity
  8
0
100
AcDbVertex
100
AcDb2dVertex
 10
59.003738
 20
46.441917
 30
0.0
  0
VERTEX
  5
479
100
AcDbEntity
  8
0
100
AcDbVertex
100
AcDb2dVertex
 10
58.905472
 20
46.599998
 30
0.0
  0
VERTEX
  5
47A
100
AcDbEntity
  8
0
100
AcDbVertex
100
AcDb2dVertex
 10
58.958023
 20
46.7239
 30
0.0
  0
VERTEX
  5
47B
100
AcDbEntity
  8
0
100
AcDbVertex
100
AcDb2dVertex
 10
59.083206
 20
46.776024
 30
0.0
  0
VERTEX
  5
47C
100
AcDbEntity
  8
0
100
AcDbVertex
100
AcDb2dVertex
 10
59.150711
 20
46.760643
 30
0.0
  0
VERTEX
  5
47D
100
AcDbEntity
  8
0
100
AcDbVertex
100
AcDb2dVertex
 10
59.257095
 20
46.711082
 30
0.0
  0
VERTEX
  5
47E
100
AcDbEntity
  8
0
100
AcDbVertex
100
AcDb2dVertex
 10
59.403641
 20
46.64785
 30
0.0
  0
VERTEX
  5
47F
100
AcDbEntity
  8
0
100
AcDbVertex
100
AcDb2dVertex
 10
59.642899
 20
46.593376
 30
0.0
  0
VERTEX
  5
480
100
AcDbEntity
  8
0
100
AcDbVertex
100
AcDb2dVertex
 10
59.87532
 20
46.575218
 30
0.0
  0
VERTEX
  5
481
100
AcDbEntity
  8
0
100
AcDbVertex
100
AcDb2dVertex
 10
60.126446
 20
46.607121
 30
0.0
  0
VERTEX
  5
482
100
AcDbEntity
  8
0
100
AcDbVertex
100
AcDb2dVertex
 10
60.277122
 20
46.702824
 30
0.0
  0
SEQEND
  5
483
100
AcDbEntity
  8
0
  0
POLYLINE
  5
484
100
AcDbEntity
  8
0
 62
     7
100
AcDb2dPolyline
 66
     1
 10
0.0
 20
0.0
 30
0.0
 70
     1
 71
    30
  0
VERTEX
  5
485
100
AcDbEntity
  8
0
100
AcDbVertex
100
AcDb2dVertex
 10
61.639847
 20
48.01931
 30
0.0
  0
VERTEX
  5
486
100
AcDbEntity
  8
0
100
AcDbVertex
100
AcDb2dVertex
 10
61.639847
 20
46.935814
 30
0.0
  0
VERTEX
  5
487
100
AcDbEntity
  8
0
100
AcDbVertex
100
AcDb2dVertex
 10
61.666443
 20
46.798882
 30
0.0
  0
VERTEX
  5
488
100
AcDbEntity
  8
0
100
AcDbVertex
100
AcDb2dVertex
 10
61.746231
 20
46.68203
 30
0.0
  0
VERTEX
  5
489
100
AcDbEntity
  8
0
100
AcDbVertex
100
AcDb2dVertex
 10
61.862976
 20
46.601921
 30
0.0
  0
VERTEX
  5
48A
100
AcDbEntity
  8
0
100
AcDbVertex
100
AcDb2dVertex
 10
62.000443
 20
46.575218
 30
0.0
  0
VERTEX
  5
48B
100
AcDbEntity
  8
0
100
AcDbVertex
100
AcDb2dVertex
 10
62.541336
 20
46.575218
 30
0.0
  0
VERTEX
  5
48C
100
AcDbEntity
  8
0
100
AcDbVertex
100
AcDb2dVertex
 10
62.721634
 20
46.411156
 30
0.0
  0
VERTEX
  5
48D
100
AcDbEntity
  8
0
100
AcDbVertex
100
AcDb2dVertex
 10
62.545609
 20
46.247093
 30
0.0
  0
VERTEX
  5
48E
100
AcDbEntity
  8
0
100
AcDbVertex
100
AcDb2dVertex
 10
62.016678
 20
46.247093
 30
0.0
  0
VERTEX
  5
48F
100
AcDbEntity
  8
0
100
AcDbVertex
100
AcDb2dVertex
 10
61.829258
 20
46.269737
 30
0.0
  0
VERTEX
  5
490
100
AcDbEntity
  8
0
100
AcDbVertex
100
AcDb2dVertex
 10
61.66235
 20
46.337669
 30
0.0
  0
VERTEX
  5
491
100
AcDbEntity
  8
0
100
AcDbVertex
100
AcDb2dVertex
 10
61.515945
 20
46.45089
 30
0.0
  0
VERTEX
  5
492
100
AcDbEntity
  8
0
100
AcDbVertex
100
AcDb2dVertex
 10
61.402489
 20
46.596962
 30
0.0
  0
VERTEX
  5
493
100
AcDbEntity
  8
0
100
AcDbVertex
100
AcDb2dVertex
 10
61.334412
 20
46.763443
 30
0.0
  0
VERTEX
  5
494
100
AcDbEntity
  8
0
100
AcDbVertex
100
AcDb2dVertex
 10
61.311722
 20
46.95034
 30
0.0
  0
VERTEX
  5
495
100
AcDbEntity
  8
0
100
AcDbVertex
100
AcDb2dVertex
 10
61.311722
 20
48.004784
 30
0.0
  0
VERTEX
  5
496
100
AcDbEntity
  8
0
100
AcDbVertex
100
AcDb2dVertex
 10
61.334412
 20
48.191681
 30
0.0
  0
VERTEX
  5
497
100
AcDbEntity
  8
0
100
AcDbVertex
100
AcDb2dVertex
 10
61.402489
 20
48.358162
 30
0.0
  0
VERTEX
  5
498
100
AcDbEntity
  8
0
100
AcDbVertex
100
AcDb2dVertex
 10
61.515945
 20
48.504234
 30
0.0
  0
VERTEX
  5
499
100
AcDbEntity
  8
0
100
AcDbVertex
100
AcDb2dVertex
 10
61.66235
 20
48.617455
 30
0.0
  0
VERTEX
  5
49A
100
AcDbEntity
  8
0
100
AcDbVertex
100
AcDb2dVertex
 10
61.829258
 20
48.685387
 30
0.0
  0
VERTEX
  5
49B
100
AcDbEntity
  8
0
100
AcDbVertex
100
AcDb2dVertex
 10
62.016678
 20
48.708031
 30
0.0
  0
VERTEX
  5
49C
100
AcDbEntity
  8
0
100
AcDbVertex
100
AcDb2dVertex
 10
62.545609
 20
48.708031
 30
0.0
  0
VERTEX
  5
49D
100
AcDbEntity
  8
0
100
AcDbVertex
100
AcDb2dVertex
 10
62.721634
 20
48.543968
 30
0.0
  0
VERTEX
  5
49E
100
AcDbEntity
  8
0
100
AcDbVertex
100
AcDb2dVertex
 10
62.541336
 20
48.379906
 30
0.0
  0
VERTEX
  5
49F
100
AcDbEntity
  8
0
100
AcDbVertex
100
AcDb2dVertex
 10
62.000443
 20
48.379906
 30
0.0
  0
VERTEX
  5
4A0
100
AcDbEntity
  8
0
100
AcDbVertex
100
AcDb2dVertex
 10
61.861374
 20
48.35363
 30
0.0
  0
VERTEX
  5
4A1
100
AcDbEntity
  8
0
100
AcDbVertex
100
AcDb2dVertex
 10
61.744949
 20
48.274803
 30
0.0
  0
VERTEX
  5
4A2
100
AcDbEntity
  8
0
100
AcDbVertex
100
AcDb2dVertex
 10
61.666122
 20
48.158379
 30
0.0
  0
SEQEND
  5
4A3
100
AcDbEntity
  8
0
  0
POLYLINE
  5
4A4
100
AcDbEntity
  8
0
 62
     7
100
AcDb2dPolyline
 66
     1
 10
0.0
 20
0.0
 30
0.0
 70
     1
 71
    23
  0
VERTEX
  5
4A5
100
AcDbEntity
  8
0
100
AcDbVertex
100
AcDb2dVertex
 10
63.432571
 20
49.571922
 30
0.0
  0
VERTEX
  5
4A6
100
AcDbEntity
  8
0
100
AcDbVertex
100
AcDb2dVertex
 10
63.596634
 20
49.747093
 30
0.0
  0
VERTEX
  5
4A7
100
AcDbEntity
  8
0
100
AcDbVertex
100
AcDb2dVertex
 10
63.760696
 20
49.573631
 30
0.0
  0
VERTEX
  5
4A8
100
AcDbEntity
  8
0
100
AcDbVertex
100
AcDb2dVertex
 10
63.760696
 20
48.708031
 30
0.0
  0
VERTEX
  5
4A9
100
AcDbEntity
  8
0
100
AcDbVertex
100
AcDb2dVertex
 10
64.471634
 20
48.708031
 30
0.0
  0
VERTEX
  5
4AA
100
AcDbEntity
  8
0
100
AcDbVertex
100
AcDb2dVertex
 10
64.658104
 20
48.685528
 30
0.0
  0
VERTEX
  5
4AB
100
AcDbEntity
  8
0
100
AcDbVertex
100
AcDb2dVertex
 10
64.825584
 20
48.618023
 30
0.0
  0
VERTEX
  5
4AC
100
AcDbEntity
  8
0
100
AcDbVertex
100
AcDb2dVertex
 10
64.974075
 20
48.505516
 30
0.0
  0
VERTEX
  5
4AD
100
AcDbEntity
  8
0
100
AcDbVertex
100
AcDb2dVertex
 10
65.089905
 20
48.361393
 30
0.0
  0
VERTEX
  5
4AE
100
AcDbEntity
  8
0
100
AcDbVertex
100
AcDb2dVertex
 10
65.159409
 20
48.199039
 30
0.0
  0
VERTEX
  5
4AF
100
AcDbEntity
  8
0
100
AcDbVertex
100
AcDb2dVertex
 10
65.182571
 20
48.018456
 30
0.0
  0
VERTEX
  5
4B0
100
AcDbEntity
  8
0
100
AcDbVertex
100
AcDb2dVertex
 10
65.182571
 20
46.423119
 30
0.0
  0
VERTEX
  5
4B1
100
AcDbEntity
  8
0
100
AcDbVertex
100
AcDb2dVertex
 10
65.018509
 20
46.247093
 30
0.0
  0
VERTEX
  5
4B2
100
AcDbEntity
  8
0
100
AcDbVertex
100
AcDb2dVertex
 10
64.854446
 20
46.424828
 30
0.0
  0
VERTEX
  5
4B3
100
AcDbEntity
  8
0
100
AcDbVertex
100
AcDb2dVertex
 10
64.854446
 20
48.024437
 30
0.0
  0
VERTEX
  5
4B4
100
AcDbEntity
  8
0
100
AcDbVertex
100
AcDb2dVertex
 10
64.828171
 20
48.162865
 30
0.0
  0
VERTEX
  5
4B5
100
AcDbEntity
  8
0
100
AcDbVertex
100
AcDb2dVertex
 10
64.749344
 20
48.277367
 30
0.0
  0
VERTEX
  5
4B6
100
AcDbEntity
  8
0
100
AcDbVertex
100
AcDb2dVertex
 10
64.631851
 20
48.354271
 30
0.0
  0
VERTEX
  5
4B7
100
AcDbEntity
  8
0
100
AcDbVertex
100
AcDb2dVertex
 10
64.489578
 20
48.379906
 30
0.0
  0
VERTEX
  5
4B8
100
AcDbEntity
  8
0
100
AcDbVertex
100
AcDb2dVertex
 10
63.760696
 20
48.379906
 30
0.0
  0
VERTEX
  5
4B9
100
AcDbEntity
  8
0
100
AcDbVertex
100
AcDb2dVertex
 10
63.760696
 20
46.424828
 30
0.0
  0
VERTEX
  5
4BA
100
AcDbEntity
  8
0
100
AcDbVertex
100
AcDb2dVertex
 10
63.596634
 20
46.247093
 30
0.0
  0
VERTEX
  5
4BB
100
AcDbEntity
  8
0
100
AcDbVertex
100
AcDb2dVertex
 10
63.432571
 20
46.422264
 30
0.0
  0
SEQEND
  5
4BC
100
AcDbEntity
  8
0
  0
POLYLINE
  5
4BD
100
AcDbEntity
  8
0
 62
     7
100
AcDb2dPolyline
 66
     1
 10
0.0
 20
0.0
 30
0.0
 70
     1
 71
     6
  0
VERTEX
  5
4BE
100
AcDbEntity
  8
0
100
AcDbVertex
100
AcDb2dVertex
 10
65.838821
 20
48.532005
 30
0.0
  0
VERTEX
  5
4BF
100
AcDbEntity
  8
0
100
AcDbVertex
100
AcDb2dVertex
 10
66.002884
 20
48.708031
 30
0.0
  0
VERTEX
  5
4C0
100
AcDbEntity
  8
0
100
AcDbVertex
100
AcDb2dVertex
 10
66.166946
 20
48.532005
 30
0.0
  0
VERTEX
  5
4C1
100
AcDbEntity
  8
0
100
AcDbVertex
100
AcDb2dVertex
 10
66.166946
 20
46.423119
 30
0.0
  0
VERTEX
  5
4C2
100
AcDbEntity
  8
0
100
AcDbVertex
100
AcDb2dVertex
 10
66.002884
 20
46.247093
 30
0.0
  0
VERTEX
  5
4C3
100
AcDbEntity
  8
0
100
AcDbVertex
100
AcDb2dVertex
 10
65.838821
 20
46.423119
 30
0.0
  0
SEQEND
  5
4C4
100
AcDbEntity
  8
0
  0
POLYLINE
  5
4C5
100
AcDbEntity
  8
0
 62
     7
100
AcDb2dPolyline
 66
     1
 10
0.0
 20
0.0
 30
0.0
 70
     1
 71
     6
  0
VERTEX
  5
4C6
100
AcDbEntity
  8
0
100
AcDbVertex
100
AcDb2dVertex
 10
65.838821
 20
49.418968
 30
0.0
  0
VERTEX
  5
4C7
100
AcDbEntity
  8
0
100
AcDbVertex
100
AcDb2dVertex
 10
65.838821
 20
49.583031
 30
0.0
  0
VERTEX
  5
4C8
100
AcDbEntity
  8
0
100
AcDbVertex
100
AcDb2dVertex
 10
66.002884
 20
49.747093
 30
0.0
  0
VERTEX
  5
4C9
100
AcDbEntity
  8
0
100
AcDbVertex
100
AcDb2dVertex
 10
66.166946
 20
49.583031
 30
0.0
  0
VERTEX
  5
4CA
100
AcDbEntity
  8
0
100
AcDbVertex
100
AcDb2dVertex
 10
66.166946
 20
49.418968
 30
0.0
  0
VERTEX
  5
4CB
100
AcDbEntity
  8
0
100
AcDbVertex
100
AcDb2dVertex
 10
66.002884
 20
49.254906
 30
0.0
  0
SEQEND
  5
4CC
100
AcDbEntity
  8
0
  0
POLYLINE
  5
4CD
100
AcDbEntity
  8
0
 62
     7
100
AcDb2dPolyline
 66
     1
 10
0.0
 20
0.0
 30
0.0
 70
     1
 71
    15
  0
VERTEX
  5
4CE
100
AcDbEntity
  8
0
100
AcDbVertex
100
AcDb2dVertex
 10
66.768509
 20
48.532005
 30
0.0
  0
VERTEX
  5
4CF
100
AcDbEntity
  8
0
100
AcDbVertex
100
AcDb2dVertex
 10
66.812943
 20
48.664024
 30
0.0
  0
VERTEX
  5
4D0
100
AcDbEntity
  8
0
100
AcDbVertex
100
AcDb2dVertex
 10
66.946243
 20
48.708031
 30
0.0
  0
VERTEX
  5
4D1
100
AcDbEntity
  8
0
100
AcDbVertex
100
AcDb2dVertex
 10
68.01265
 20
48.708031
 30
0.0
  0
VERTEX
  5
4D2
100
AcDbEntity
  8
0
100
AcDbVertex
100
AcDb2dVertex
 10
68.14595
 20
48.663597
 30
0.0
  0
VERTEX
  5
4D3
100
AcDbEntity
  8
0
100
AcDbVertex
100
AcDb2dVertex
 10
68.190384
 20
48.530296
 30
0.0
  0
VERTEX
  5
4D4
100
AcDbEntity
  8
0
100
AcDbVertex
100
AcDb2dVertex
 10
68.190384
 20
48.174828
 30
0.0
  0
VERTEX
  5
4D5
100
AcDbEntity
  8
0
100
AcDbVertex
100
AcDb2dVertex
 10
68.026321
 20
47.997093
 30
0.0
  0
VERTEX
  5
4D6
100
AcDbEntity
  8
0
100
AcDbVertex
100
AcDb2dVertex
 10
67.903275
 20
48.044945
 30
0.0
  0
VERTEX
  5
4D7
100
AcDbEntity
  8
0
100
AcDbVertex
100
AcDb2dVertex
 10
67.862259
 20
48.188499
 30
0.0
  0
VERTEX
  5
4D8
100
AcDbEntity
  8
0
100
AcDbVertex
100
AcDb2dVertex
 10
67.862259
 20
48.379906
 30
0.0
  0
VERTEX
  5
4D9
100
AcDbEntity
  8
0
100
AcDbVertex
100
AcDb2dVertex
 10
67.096634
 20
48.379906
 30
0.0
  0
VERTEX
  5
4DA
100
AcDbEntity
  8
0
100
AcDbVertex
100
AcDb2dVertex
 10
67.096634
 20
46.424828
 30
0.0
  0
VERTEX
  5
4DB
100
AcDbEntity
  8
0
100
AcDbVertex
100
AcDb2dVertex
 10
66.932571
 20
46.247093
 30
0.0
  0
VERTEX
  5
4DC
100
AcDbEntity
  8
0
100
AcDbVertex
100
AcDb2dVertex
 10
66.768509
 20
46.423119
 30
0.0
  0
SEQEND
  5
4DD
100
AcDbEntity
  8
0
  0
POLYLINE
  5
4DE
100
AcDbEntity
  8
0
 62
     7
100
AcDb2dPolyline
 66
     1
 10
0.0
 20
0.0
 30
0.0
 70
     1
 71
    26
  0
VERTEX
  5
4DF
100
AcDbEntity
  8
0
100
AcDbVertex
100
AcDb2dVertex
 10
69.127762
 20
48.708031
 30
0.0
  0
VERTEX
  5
4E0
100
AcDbEntity
  8
0
100
AcDbVertex
100
AcDb2dVertex
 10
70.674393
 20
48.708031
 30
0.0
  0
VERTEX
  5
4E1
100
AcDbEntity
  8
0
100
AcDbVertex
100
AcDb2dVertex
 10
70.857445
 20
48.685387
 30
0.0
  0
VERTEX
  5
4E2
100
AcDbEntity
  8
0
100
AcDbVertex
100
AcDb2dVertex
 10
71.02037
 20
48.617455
 30
0.0
  0
VERTEX
  5
4E3
100
AcDbEntity
  8
0
100
AcDbVertex
100
AcDb2dVertex
 10
71.163162
 20
48.504234
 30
0.0
  0
VERTEX
  5
4E4
100
AcDbEntity
  8
0
100
AcDbVertex
100
AcDb2dVertex
 10
71.273773
 20
48.358162
 30
0.0
  0
VERTEX
  5
4E5
100
AcDbEntity
  8
0
100
AcDbVertex
100
AcDb2dVertex
 10
71.340134
 20
48.191681
 30
0.0
  0
VERTEX
  5
4E6
100
AcDbEntity
  8
0
100
AcDbVertex
100
AcDb2dVertex
 10
71.362259
 20
48.004784
 30
0.0
  0
VERTEX
  5
4E7
100
AcDbEntity
  8
0
100
AcDbVertex
100
AcDb2dVertex
 10
71.362259
 20
46.423119
 30
0.0
  0
VERTEX
  5
4E8
100
AcDbEntity
  8
0
100
AcDbVertex
100
AcDb2dVertex
 10
71.198196
 20
46.247093
 30
0.0
  0
VERTEX
  5
4E9
100
AcDbEntity
  8
0
100
AcDbVertex
100
AcDb2dVertex
 10
71.034134
 20
46.424828
 30
0.0
  0
VERTEX
  5
4EA
100
AcDbEntity
  8
0
100
AcDbVertex
100
AcDb2dVertex
 10
71.034134
 20
48.024437
 30
0.0
  0
VERTEX
  5
4EB
100
AcDbEntity
  8
0
100
AcDbVertex
100
AcDb2dVertex
 10
71.008499
 20
48.162865
 30
0.0
  0
VERTEX
  5
4EC
100
AcDbEntity
  8
0
100
AcDbVertex
100
AcDb2dVertex
 10
70.931595
 20
48.277367
 30
0.0
  0
VERTEX
  5
4ED
100
AcDbEntity
  8
0
100
AcDbVertex
100
AcDb2dVertex
 10
70.817093
 20
48.354271
 30
0.0
  0
VERTEX
  5
4EE
100
AcDbEntity
  8
0
100
AcDbVertex
100
AcDb2dVertex
 10
70.678665
 20
48.379906
 30
0.0
  0
VERTEX
  5
4EF
100
AcDbEntity
  8
0
100
AcDbVertex
100
AcDb2dVertex
 10
70.323196
 20
48.379906
 30
0.0
  0
VERTEX
  5
4F0
100
AcDbEntity
  8
0
100
AcDbVertex
100
AcDb2dVertex
 10
70.323196
 20
46.424828
 30
0.0
  0
VERTEX
  5
4F1
100
AcDbEntity
  8
0
100
AcDbVertex
100
AcDb2dVertex
 10
70.159134
 20
46.247093
 30
0.0
  0
VERTEX
  5
4F2
100
AcDbEntity
  8
0
100
AcDbVertex
100
AcDb2dVertex
 10
69.995071
 20
46.424828
 30
0.0
  0
VERTEX
  5
4F3
100
AcDbEntity
  8
0
100
AcDbVertex
100
AcDb2dVertex
 10
69.995071
 20
48.379906
 30
0.0
  0
VERTEX
  5
4F4
100
AcDbEntity
  8
0
100
AcDbVertex
100
AcDb2dVertex
 10
69.284134
 20
48.379906
 30
0.0
  0
VERTEX
  5
4F5
100
AcDbEntity
  8
0
100
AcDbVertex
100
AcDb2dVertex
 10
69.284134
 20
46.424828
 30
0.0
  0
VERTEX
  5
4F6
100
AcDbEntity
  8
0
100
AcDbVertex
100
AcDb2dVertex
 10
69.120071
 20
46.247093
 30
0.0
  0
VERTEX
  5
4F7
100
AcDbEntity
  8
0
100
AcDbVertex
100
AcDb2dVertex
 10
68.956009
 20
46.423119
 30
0.0
  0
VERTEX
  5
4F8
100
AcDbEntity
  8
0
100
AcDbVertex
100
AcDb2dVertex
 10
68.956009
 20
48.532005
 30
0.0
  0
SEQEND
  5
4F9
100
AcDbEntity
  8
0
  0
POLYLINE
  5
4FA
100
AcDbEntity
  8
0
 62
     7
100
AcDb2dPolyline
 66
     1
 10
0.0
 20
0.0
 30
0.0
 70
     1
 71
    19
  0
VERTEX
  5
4FB
100
AcDbEntity
  8
0
100
AcDbVertex
100
AcDb2dVertex
 10
72.346634
 20
47.428856
 30
0.0
  0
VERTEX
  5
4FC
100
AcDbEntity
  8
0
100
AcDbVertex
100
AcDb2dVertex
 10
72.346634
 20
46.4291
 30
0.0
  0
VERTEX
  5
4FD
100
AcDbEntity
  8
0
100
AcDbVertex
100
AcDb2dVertex
 10
72.182571
 20
46.247093
 30
0.0
  0
VERTEX
  5
4FE
100
AcDbEntity
  8
0
100
AcDbVertex
100
AcDb2dVertex
 10
72.018509
 20
46.422264
 30
0.0
  0
VERTEX
  5
4FF
100
AcDbEntity
  8
0
100
AcDbVertex
100
AcDb2dVertex
 10
72.018509
 20
49.571922
 30
0.0
  0
VERTEX
  5
500
100
AcDbEntity
  8
0
100
AcDbVertex
100
AcDb2dVertex
 10
72.182571
 20
49.747093
 30
0.0
  0
VERTEX
  5
501
100
AcDbEntity
  8
0
100
AcDbVertex
100
AcDb2dVertex
 10
72.346634
 20
49.572777
 30
0.0
  0
VERTEX
  5
502
100
AcDbEntity
  8
0
100
AcDbVertex
100
AcDb2dVertex
 10
72.346634
 20
47.835594
 30
0.0
  0
VERTEX
  5
503
100
AcDbEntity
  8
0
100
AcDbVertex
100
AcDb2dVertex
 10
73.497635
 20
48.679832
 30
0.0
  0
VERTEX
  5
504
100
AcDbEntity
  8
0
100
AcDbVertex
100
AcDb2dVertex
 10
73.600174
 20
48.708031
 30
0.0
  0
VERTEX
  5
505
100
AcDbEntity
  8
0
100
AcDbVertex
100
AcDb2dVertex
 10
73.768509
 20
48.547386
 30
0.0
  0
VERTEX
  5
506
100
AcDbEntity
  8
0
100
AcDbVertex
100
AcDb2dVertex
 10
73.695877
 20
48.418358
 30
0.0
  0
VERTEX
  5
507
100
AcDbEntity
  8
0
100
AcDbVertex
100
AcDb2dVertex
 10
72.989212
 20
47.900536
 30
0.0
  0
VERTEX
  5
508
100
AcDbEntity
  8
0
100
AcDbVertex
100
AcDb2dVertex
 10
73.739456
 20
46.494041
 30
0.0
  0
VERTEX
  5
509
100
AcDbEntity
  8
0
100
AcDbVertex
100
AcDb2dVertex
 10
73.768509
 20
46.415428
 30
0.0
  0
VERTEX
  5
50A
100
AcDbEntity
  8
0
100
AcDbVertex
100
AcDb2dVertex
 10
73.718521
 20
46.296654
 30
0.0
  0
VERTEX
  5
50B
100
AcDbEntity
  8
0
100
AcDbVertex
100
AcDb2dVertex
 10
73.598465
 20
46.247093
 30
0.0
  0
VERTEX
  5
50C
100
AcDbEntity
  8
0
100
AcDbVertex
100
AcDb2dVertex
 10
73.449783
 20
46.342796
 30
0.0
  0
VERTEX
  5
50D
100
AcDbEntity
  8
0
100
AcDbVertex
100
AcDb2dVertex
 10
72.72261
 20
47.704002
 30
0.0
  0
SEQEND
  5
50E
100
AcDbEntity
  8
0
  0
POLYLINE
  5
50F
100
AcDbEntity
  8
0
 62
     7
100
AcDb2dPolyline
 66
     1
 10
0.0
 20
0.0
 30
0.0
 70
     1
 71
    30
  0
VERTEX
  5
510
100
AcDbEntity
  8
0
100
AcDbVertex
100
AcDb2dVertex
 10
75.124588
 20
46.247093
 30
0.0
  0
VERTEX
  5
511
100
AcDbEntity
  8
0
100
AcDbVertex
100
AcDb2dVertex
 10
74.938736
 20
46.269119
 30
0.0
  0
VERTEX
  5
512
100
AcDbEntity
  8
0
100
AcDbVertex
100
AcDb2dVertex
 10
74.773109
 20
46.335201
 30
0.0
  0
VERTEX
  5
513
100
AcDbEntity
  8
0
100
AcDbVertex
100
AcDb2dVertex
 10
74.627701
 20
46.445335
 30
0.0
  0
VERTEX
  5
514
100
AcDbEntity
  8
0
100
AcDbVertex
100
AcDb2dVertex
 10
74.514954
 20
46.587372
 30
0.0
  0
VERTEX
  5
515
100
AcDbEntity
  8
0
100
AcDbVertex
100
AcDb2dVertex
 10
74.447311
 20
46.749153
 30
0.0
  0
VERTEX
  5
516
100
AcDbEntity
  8
0
100
AcDbVertex
100
AcDb2dVertex
 10
74.424759
 20
46.930687
 30
0.0
  0
VERTEX
  5
517
100
AcDbEntity
  8
0
100
AcDbVertex
100
AcDb2dVertex
 10
74.448257
 20
47.109917
 30
0.0
  0
VERTEX
  5
518
100
AcDbEntity
  8
0
100
AcDbVertex
100
AcDb2dVertex
 10
74.518753
 20
47.275047
 30
0.0
  0
VERTEX
  5
519
100
AcDbEntity
  8
0
100
AcDbVertex
100
AcDb2dVertex
 10
74.677307
 20
47.463509
 30
0.0
  0
VERTEX
  5
51A
100
AcDbEntity
  8
0
100
AcDbVertex
100
AcDb2dVertex
 10
74.882957
 20
47.576588
 30
0.0
  0
VERTEX
  5
51B
100
AcDbEntity
  8
0
100
AcDbVertex
100
AcDb2dVertex
 10
75.135696
 20
47.614281
 30
0.0
  0
VERTEX
  5
51C
100
AcDbEntity
  8
0
100
AcDbVertex
100
AcDb2dVertex
 10
75.846634
 20
47.614281
 30
0.0
  0
VERTEX
  5
51D
100
AcDbEntity
  8
0
100
AcDbVertex
100
AcDb2dVertex
 10
75.846634
 20
47.997093
 30
0.0
  0
VERTEX
  5
51E
100
AcDbEntity
  8
0
100
AcDbVertex
100
AcDb2dVertex
 10
75.820358
 20
48.146416
 30
0.0
  0
VERTEX
  5
51F
100
AcDbEntity
  8
0
100
AcDbVertex
100
AcDb2dVertex
 10
75.741531
 20
48.269676
 30
0.0
  0
VERTEX
  5
520
100
AcDbEntity
  8
0
100
AcDbVertex
100
AcDb2dVertex
 10
75.624039
 20
48.352348
 30
0.0
  0
VERTEX
  5
521
100
AcDbEntity
  8
0
100
AcDbVertex
100
AcDb2dVertex
 10
75.481766
 20
48.379906
 30
0.0
  0
VERTEX
  5
522
100
AcDbEntity
  8
0
100
AcDbVertex
100
AcDb2dVertex
 10
74.752884
 20
48.379906
 30
0.0
  0
VERTEX
  5
523
100
AcDbEntity
  8
0
100
AcDbVertex
100
AcDb2dVertex
 10
74.600784
 20
48.543968
 30
0.0
  0
VERTEX
  5
524
100
AcDbEntity
  8
0
100
AcDbVertex
100
AcDb2dVertex
 10
74.752884
 20
48.708031
 30
0.0
  0
VERTEX
  5
525
100
AcDbEntity
  8
0
100
AcDbVertex
100
AcDb2dVertex
 10
75.463821
 20
48.708031
 30
0.0
  0
VERTEX
  5
526
100
AcDbEntity
  8
0
100
AcDbVertex
100
AcDb2dVertex
 10
75.652855
 20
48.685387
 30
0.0
  0
VERTEX
  5
527
100
AcDbEntity
  8
0
100
AcDbVertex
100
AcDb2dVertex
 10
75.82119
 20
48.617455
 30
0.0
  0
VERTEX
  5
528
100
AcDbEntity
  8
0
100
AcDbVertex
100
AcDb2dVertex
 10
75.968826
 20
48.504234
 30
0.0
  0
VERTEX
  5
529
100
AcDbEntity
  8
0
100
AcDbVertex
100
AcDb2dVertex
 10
76.083237
 20
48.358162
 30
0.0
  0
VERTEX
  5
52A
100
AcDbEntity
  8
0
100
AcDbVertex
100
AcDb2dVertex
 10
76.151878
 20
48.191681
 30
0.0
  0
VERTEX
  5
52B
100
AcDbEntity
  8
0
100
AcDbVertex
100
AcDb2dVertex
 10
76.174759
 20
48.004784
 30
0.0
  0
VERTEX
  5
52C
100
AcDbEntity
  8
0
100
AcDbVertex
100
AcDb2dVertex
 10
76.174759
 20
46.423119
 30
0.0
  0
VERTEX
  5
52D
100
AcDbEntity
  8
0
100
AcDbVertex
100
AcDb2dVertex
 10
75.999588
 20
46.247093
 30
0.0
  0
SEQEND
  5
52E
100
AcDbEntity
  8
0
  0
POLYLINE
  5
52F
100
AcDbEntity
  8
0
 62
     7
100
AcDb2dPolyline
 66
     1
 10
0.0
 20
0.0
 30
0.0
 70
     1
 71
    11
  0
VERTEX
  5
530
100
AcDbEntity
  8
0
100
AcDbVertex
100
AcDb2dVertex
 10
75.846634
 20
47.286156
 30
0.0
  0
VERTEX
  5
531
100
AcDbEntity
  8
0
100
AcDbVertex
100
AcDb2dVertex
 10
75.133133
 20
47.286156
 30
0.0
  0
VERTEX
  5
532
100
AcDbEntity
  8
0
100
AcDbVertex
100
AcDb2dVertex
 10
74.995667
 20
47.260201
 30
0.0
  0
VERTEX
  5
533
100
AcDbEntity
  8
0
100
AcDbVertex
100
AcDb2dVertex
 10
74.88063
 20
47.182335
 30
0.0
  0
VERTEX
  5
534
100
AcDbEntity
  8
0
100
AcDbVertex
100
AcDb2dVertex
 10
74.802765
 20
47.067513
 30
0.0
  0
VERTEX
  5
535
100
AcDbEntity
  8
0
100
AcDbVertex
100
AcDb2dVertex
 10
74.77681
 20
46.930687
 30
0.0
  0
VERTEX
  5
536
100
AcDbEntity
  8
0
100
AcDbVertex
100
AcDb2dVertex
 10
74.803192
 20
46.795464
 30
0.0
  0
VERTEX
  5
537
100
AcDbEntity
  8
0
100
AcDbVertex
100
AcDb2dVertex
 10
74.882339
 20
46.680321
 30
0.0
  0
VERTEX
  5
538
100
AcDbEntity
  8
0
100
AcDbVertex
100
AcDb2dVertex
 10
74.997803
 20
46.601494
 30
0.0
  0
VERTEX
  5
539
100
AcDbEntity
  8
0
100
AcDbVertex
100
AcDb2dVertex
 10
75.133133
 20
46.575218
 30
0.0
  0
VERTEX
  5
53A
100
AcDbEntity
  8
0
100
AcDbVertex
100
AcDb2dVertex
 10
75.846634
 20
46.575218
 30
0.0
  0
SEQEND
  5
53B
100
AcDbEntity
  8
0
  0
POLYLINE
  5
53C
100
AcDbEntity
  8
0
 62
     7
100
AcDb2dPolyline
 66
     1
 10
0.0
 20
0.0
 30
0.0
 70
     1
 71
    26
  0
VERTEX
  5
53D
100
AcDbEntity
  8
0
100
AcDbVertex
100
AcDb2dVertex
 10
77.057449
 20
48.708031
 30
0.0
  0
VERTEX
  5
53E
100
AcDbEntity
  8
0
100
AcDbVertex
100
AcDb2dVertex
 10
78.60408
 20
48.708031
 30
0.0
  0
VERTEX
  5
53F
100
AcDbEntity
  8
0
100
AcDbVertex
100
AcDb2dVertex
 10
78.787132
 20
48.685387
 30
0.0
  0
VERTEX
  5
540
100
AcDbEntity
  8
0
100
AcDbVertex
100
AcDb2dVertex
 10
78.950058
 20
48.617455
 30
0.0
  0
VERTEX
  5
541
100
AcDbEntity
  8
0
100
AcDbVertex
100
AcDb2dVertex
 10
79.09285
 20
48.504234
 30
0.0
  0
VERTEX
  5
542
100
AcDbEntity
  8
0
100
AcDbVertex
100
AcDb2dVertex
 10
79.203461
 20
48.358162
 30
0.0
  0
VERTEX
  5
543
100
AcDbEntity
  8
0
100
AcDbVertex
100
AcDb2dVertex
 10
79.269821
 20
48.191681
 30
0.0
  0
VERTEX
  5
544
100
AcDbEntity
  8
0
100
AcDbVertex
100
AcDb2dVertex
 10
79.291946
 20
48.004784
 30
0.0
  0
VERTEX
  5
545
100
AcDbEntity
  8
0
100
AcDbVertex
100
AcDb2dVertex
 10
79.291946
 20
46.423119
 30
0.0
  0
VERTEX
  5
546
100
AcDbEntity
  8
0
100
AcDbVertex
100
AcDb2dVertex
 10
79.127884
 20
46.247093
 30
0.0
  0
VERTEX
  5
547
100
AcDbEntity
  8
0
100
AcDbVertex
100
AcDb2dVertex
 10
78.963821
 20
46.424828
 30
0.0
  0
VERTEX
  5
548
100
AcDbEntity
  8
0
100
AcDbVertex
100
AcDb2dVertex
 10
78.963821
 20
48.024437
 30
0.0
  0
VERTEX
  5
549
100
AcDbEntity
  8
0
100
AcDbVertex
100
AcDb2dVertex
 10
78.938187
 20
48.162865
 30
0.0
  0
VERTEX
  5
54A
100
AcDbEntity
  8
0
100
AcDbVertex
100
AcDb2dVertex
 10
78.861282
 20
48.277367
 30
0.0
  0
VERTEX
  5
54B
100
AcDbEntity
  8
0
100
AcDbVertex
100
AcDb2dVertex
 10
78.74678
 20
48.354271
 30
0.0
  0
VERTEX
  5
54C
100
AcDbEntity
  8
0
100
AcDbVertex
100
AcDb2dVertex
 10
78.608353
 20
48.379906
 30
0.0
  0
VERTEX
  5
54D
100
AcDbEntity
  8
0
100
AcDbVertex
100
AcDb2dVertex
 10
78.252884
 20
48.379906
 30
0.0
  0
VERTEX
  5
54E
100
AcDbEntity
  8
0
100
AcDbVertex
100
AcDb2dVertex
 10
78.252884
 20
46.424828
 30
0.0
  0
VERTEX
  5
54F
100
AcDbEntity
  8
0
100
AcDbVertex
100
AcDb2dVertex
 10
78.088821
 20
46.247093
 30
0.0
  0
VERTEX
  5
550
100
AcDbEntity
  8
0
100
AcDbVertex
100
AcDb2dVertex
 10
77.924759
 20
46.424828
 30
0.0
  0
VERTEX
  5
551
100
AcDbEntity
  8
0
100
AcDbVertex
100
AcDb2dVertex
 10
77.924759
 20
48.379906
 30
0.0
  0
VERTEX
  5
552
100
AcDbEntity
  8
0
100
AcDbVertex
100
AcDb2dVertex
 10
77.213821
 20
48.379906
 30
0.0
  0
VERTEX
  5
553
100
AcDbEntity
  8
0
100
AcDbVertex
100
AcDb2dVertex
 10
77.213821
 20
46.424828
 30
0.0
  0
VERTEX
  5
554
100
AcDbEntity
  8
0
100
AcDbVertex
100
AcDb2dVertex
 10
77.049759
 20
46.247093
 30
0.0
  0
VERTEX
  5
555
100
AcDbEntity
  8
0
100
AcDbVertex
100
AcDb2dVertex
 10
76.885696
 20
46.423119
 30
0.0
  0
VERTEX
  5
556
100
AcDbEntity
  8
0
100
AcDbVertex
100
AcDb2dVertex
 10
76.885696
 20
48.532005
 30
0.0
  0
SEQEND
  5
557
100
AcDbEntity
  8
0
  0
POLYLINE
  5
558
100
AcDbEntity
  8
0
 62
     7
100
AcDb2dPolyline
 66
     1
 10
0.0
 20
0.0
 30
0.0
 70
     1
 71
    26
  0
VERTEX
  5
559
100
AcDbEntity
  8
0
100
AcDbVertex
100
AcDb2dVertex
 10
80.174637
 20
48.708031
 30
0.0
  0
VERTEX
  5
55A
100
AcDbEntity
  8
0
100
AcDbVertex
100
AcDb2dVertex
 10
81.721268
 20
48.708031
 30
0.0
  0
VERTEX
  5
55B
100
AcDbEntity
  8
0
100
AcDbVertex
100
AcDb2dVertex
 10
81.90432
 20
48.685387
 30
0.0
  0
VERTEX
  5
55C
100
AcDbEntity
  8
0
100
AcDbVertex
100
AcDb2dVertex
 10
82.067245
 20
48.617455
 30
0.0
  0
VERTEX
  5
55D
100
AcDbEntity
  8
0
100
AcDbVertex
100
AcDb2dVertex
 10
82.210037
 20
48.504234
 30
0.0
  0
VERTEX
  5
55E
100
AcDbEntity
  8
0
100
AcDbVertex
100
AcDb2dVertex
 10
82.320648
 20
48.358162
 30
0.0
  0
VERTEX
  5
55F
100
AcDbEntity
  8
0
100
AcDbVertex
100
AcDb2dVertex
 10
82.387009
 20
48.191681
 30
0.0
  0
VERTEX
  5
560
100
AcDbEntity
  8
0
100
AcDbVertex
100
AcDb2dVertex
 10
82.409134
 20
48.004784
 30
0.0
  0
VERTEX
  5
561
100
AcDbEntity
  8
0
100
AcDbVertex
100
AcDb2dVertex
 10
82.409134
 20
46.423119
 30
0.0
  0
VERTEX
  5
562
100
AcDbEntity
  8
0
100
AcDbVertex
100
AcDb2dVertex
 10
82.245071
 20
46.247093
 30
0.0
  0
VERTEX
  5
563
100
AcDbEntity
  8
0
100
AcDbVertex
100
AcDb2dVertex
 10
82.081009
 20
46.424828
 30
0.0
  0
VERTEX
  5
564
100
AcDbEntity
  8
0
100
AcDbVertex
100
AcDb2dVertex
 10
82.081009
 20
48.024437
 30
0.0
  0
VERTEX
  5
565
100
AcDbEntity
  8
0
100
AcDbVertex
100
AcDb2dVertex
 10
82.055374
 20
48.162865
 30
0.0
  0
VERTEX
  5
566
100
AcDbEntity
  8
0
100
AcDbVertex
100
AcDb2dVertex
 10
81.97847
 20
48.277367
 30
0.0
  0
VERTEX
  5
567
100
AcDbEntity
  8
0
100
AcDbVertex
100
AcDb2dVertex
 10
81.863968
 20
48.354271
 30
0.0
  0
VERTEX
  5
568
100
AcDbEntity
  8
0
100
AcDbVertex
100
AcDb2dVertex
 10
81.72554
 20
48.379906
 30
0.0
  0
VERTEX
  5
569
100
AcDbEntity
  8
0
100
AcDbVertex
100
AcDb2dVertex
 10
81.370071
 20
48.379906
 30
0.0
  0
VERTEX
  5
56A
100
AcDbEntity
  8
0
100
AcDbVertex
100
AcDb2dVertex
 10
81.370071
 20
46.424828
 30
0.0
  0
VERTEX
  5
56B
100
AcDbEntity
  8
0
100
AcDbVertex
100
AcDb2dVertex
 10
81.206009
 20
46.247093
 30
0.0
  0
VERTEX
  5
56C
100
AcDbEntity
  8
0
100
AcDbVertex
100
AcDb2dVertex
 10
81.041946
 20
46.424828
 30
0.0
  0
VERTEX
  5
56D
100
AcDbEntity
  8
0
100
AcDbVertex
100
AcDb2dVertex
 10
81.041946
 20
48.379906
 30
0.0
  0
VERTEX
  5
56E
100
AcDbEntity
  8
0
100
AcDbVertex
100
AcDb2dVertex
 10
80.331009
 20
48.379906
 30
0.0
  0
VERTEX
  5
56F
100
AcDbEntity
  8
0
100
AcDbVertex
100
AcDb2dVertex
 10
80.331009
 20
46.424828
 30
0.0
  0
VERTEX
  5
570
100
AcDbEntity
  8
0
100
AcDbVertex
100
AcDb2dVertex
 10
80.166946
 20
46.247093
 30
0.0
  0
VERTEX
  5
571
100
AcDbEntity
  8
0
100
AcDbVertex
100
AcDb2dVertex
 10
80.002884
 20
46.423119
 30
0.0
  0
VERTEX
  5
572
100
AcDbEntity
  8
0
100
AcDbVertex
100
AcDb2dVertex
 10
80.002884
 20
48.532005
 30
0.0
  0
SEQEND
  5
573
100
AcDbEntity
  8
0
  0
POLYLINE
  5
574
100
AcDbEntity
  8
0
 62
     7
100
AcDb2dPolyline
 66
     1
 10
0.0
 20
0.0
 30
0.0
 70
     1
 71
    11
  0
VERTEX
  5
575
100
AcDbEntity
  8
0
100
AcDbVertex
100
AcDb2dVertex
 10
83.940384
 20
48.379906
 30
0.0
  0
VERTEX
  5
576
100
AcDbEntity
  8
0
100
AcDbVertex
100
AcDb2dVertex
 10
83.730499
 20
48.337822
 30
0.0
  0
VERTEX
  5
577
100
AcDbEntity
  8
0
100
AcDbVertex
100
AcDb2dVertex
 10
83.553726
 20
48.211571
 30
0.0
  0
VERTEX
  5
578
100
AcDbEntity
  8
0
100
AcDbVertex
100
AcDb2dVertex
 10
83.433563
 20
48.025932
 30
0.0
  0
VERTEX
  5
579
100
AcDbEntity
  8
0
100
AcDbVertex
100
AcDb2dVertex
 10
83.393509
 20
47.805687
 30
0.0
  0
VERTEX
  5
57A
100
AcDbEntity
  8
0
100
AcDbVertex
100
AcDb2dVertex
 10
83.393509
 20
47.614281
 30
0.0
  0
VERTEX
  5
57B
100
AcDbEntity
  8
0
100
AcDbVertex
100
AcDb2dVertex
 10
84.487259
 20
47.614281
 30
0.0
  0
VERTEX
  5
57C
100
AcDbEntity
  8
0
100
AcDbVertex
100
AcDb2dVertex
 10
84.487259
 20
47.805687
 30
0.0
  0
VERTEX
  5
57D
100
AcDbEntity
  8
0
100
AcDbVertex
100
AcDb2dVertex
 10
84.447205
 20
48.025932
 30
0.0
  0
VERTEX
  5
57E
100
AcDbEntity
  8
0
100
AcDbVertex
100
AcDb2dVertex
 10
84.327042
 20
48.211571
 30
0.0
  0
VERTEX
  5
57F
100
AcDbEntity
  8
0
100
AcDbVertex
100
AcDb2dVertex
 10
84.150269
 20
48.337822
 30
0.0
  0
SEQEND
  5
580
100
AcDbEntity
  8
0
  0
POLYLINE
  5
581
100
AcDbEntity
  8
0
 62
     7
100
AcDb2dPolyline
 66
     1
 10
0.0
 20
0.0
 30
0.0
 70
     1
 71
    30
  0
VERTEX
  5
582
100
AcDbEntity
  8
0
100
AcDbVertex
100
AcDb2dVertex
 10
83.393509
 20
47.286156
 30
0.0
  0
VERTEX
  5
583
100
AcDbEntity
  8
0
100
AcDbVertex
100
AcDb2dVertex
 10
83.393509
 20
46.930687
 30
0.0
  0
VERTEX
  5
584
100
AcDbEntity
  8
0
100
AcDbVertex
100
AcDb2dVertex
 10
83.419785
 20
46.795464
 30
0.0
  0
VERTEX
  5
585
100
AcDbEntity
  8
0
100
AcDbVertex
100
AcDb2dVertex
 10
83.498611
 20
46.680321
 30
0.0
  0
VERTEX
  5
586
100
AcDbEntity
  8
0
100
AcDbVertex
100
AcDb2dVertex
 10
83.613754
 20
46.601494
 30
0.0
  0
VERTEX
  5
587
100
AcDbEntity
  8
0
100
AcDbVertex
100
AcDb2dVertex
 10
83.748978
 20
46.575218
 30
0.0
  0
VERTEX
  5
588
100
AcDbEntity
  8
0
100
AcDbVertex
100
AcDb2dVertex
 10
84.63765
 20
46.575218
 30
0.0
  0
VERTEX
  5
589
100
AcDbEntity
  8
0
100
AcDbVertex
100
AcDb2dVertex
 10
84.815384
 20
46.411156
 30
0.0
  0
VERTEX
  5
58A
100
AcDbEntity
  8
0
100
AcDbVertex
100
AcDb2dVertex
 10
84.640213
 20
46.247093
 30
0.0
  0
VERTEX
  5
58B
100
AcDbEntity
  8
0
100
AcDbVertex
100
AcDb2dVertex
 10
83.765213
 20
46.247093
 30
0.0
  0
VERTEX
  5
58C
100
AcDbEntity
  8
0
100
AcDbVertex
100
AcDb2dVertex
 10
83.579361
 20
46.269737
 30
0.0
  0
VERTEX
  5
58D
100
AcDbEntity
  8
0
100
AcDbVertex
100
AcDb2dVertex
 10
83.413727
 20
46.337669
 30
0.0
  0
VERTEX
  5
58E
100
AcDbEntity
  8
0
100
AcDbVertex
100
AcDb2dVertex
 10
83.268326
 20
46.45089
 30
0.0
  0
VERTEX
  5
58F
100
AcDbEntity
  8
0
100
AcDbVertex
100
AcDb2dVertex
 10
83.155579
 20
46.596962
 30
0.0
  0
VERTEX
  5
590
100
AcDbEntity
  8
0
100
AcDbVertex
100
AcDb2dVertex
 10
83.087936
 20
46.763443
 30
0.0
  0
VERTEX
  5
591
100
AcDbEntity
  8
0
100
AcDbVertex
100
AcDb2dVertex
 10
83.065384
 20
46.95034
 30
0.0
  0
VERTEX
  5
592
100
AcDbEntity
  8
0
100
AcDbVertex
100
AcDb2dVertex
 10
83.065384
 20
47.828758
 30
0.0
  0
VERTEX
  5
593
100
AcDbEntity
  8
0
100
AcDbVertex
100
AcDb2dVertex
 10
83.093819
 20
48.06004
 30
0.0
  0
VERTEX
  5
594
100
AcDbEntity
  8
0
100
AcDbVertex
100
AcDb2dVertex
 10
83.179123
 20
48.267399
 30
0.0
  0
VERTEX
  5
595
100
AcDbEntity
  8
0
100
AcDbVertex
100
AcDb2dVertex
 10
83.321304
 20
48.450829
 30
0.0
  0
VERTEX
  5
596
100
AcDbEntity
  8
0
100
AcDbVertex
100
AcDb2dVertex
 10
83.50383
 20
48.593719
 30
0.0
  0
VERTEX
  5
597
100
AcDbEntity
  8
0
100
AcDbVertex
100
AcDb2dVertex
 10
83.71019
 20
48.679451
 30
0.0
  0
VERTEX
  5
598
100
AcDbEntity
  8
0
100
AcDbVertex
100
AcDb2dVertex
 10
83.940384
 20
48.708031
 30
0.0
  0
VERTEX
  5
599
100
AcDbEntity
  8
0
100
AcDbVertex
100
AcDb2dVertex
 10
84.173141
 20
48.679451
 30
0.0
  0
VERTEX
  5
59A
100
AcDbEntity
  8
0
100
AcDbVertex
100
AcDb2dVertex
 10
84.380356
 20
48.593719
 30
0.0
  0
VERTEX
  5
59B
100
AcDbEntity
  8
0
100
AcDbVertex
100
AcDb2dVertex
 10
84.562027
 20
48.450829
 30
0.0
  0
VERTEX
  5
59C
100
AcDbEntity
  8
0
100
AcDbVertex
100
AcDb2dVertex
 10
84.702782
 20
48.266354
 30
0.0
  0
VERTEX
  5
59D
100
AcDbEntity
  8
0
100
AcDbVertex
100
AcDb2dVertex
 10
84.787231
 20
48.055862
 30
0.0
  0
VERTEX
  5
59E
100
AcDbEntity
  8
0
100
AcDbVertex
100
AcDb2dVertex
 10
84.815384
 20
47.819359
 30
0.0
  0
VERTEX
  5
59F
100
AcDbEntity
  8
0
100
AcDbVertex
100
AcDb2dVertex
 10
84.815384
 20
47.286156
 30
0.0
  0
SEQEND
  5
5A0
100
AcDbEntity
  8
0
  0
POLYLINE
  5
5A1
100
AcDbEntity
  8
0
 62
     7
100
AcDb2dPolyline
 66
     1
 10
0.0
 20
0.0
 30
0.0
 70
     1
 71
    15
  0
VERTEX
  5
5A2
100
AcDbEntity
  8
0
100
AcDbVertex
100
AcDb2dVertex
 10
85.471634
 20
48.532005
 30
0.0
  0
VERTEX
  5
5A3
100
AcDbEntity
  8
0
100
AcDbVertex
100
AcDb2dVertex
 10
85.516068
 20
48.664024
 30
0.0
  0
VERTEX
  5
5A4
100
AcDbEntity
  8
0
100
AcDbVertex
100
AcDb2dVertex
 10
85.649368
 20
48.708031
 30
0.0
  0
VERTEX
  5
5A5
100
AcDbEntity
  8
0
100
AcDbVertex
100
AcDb2dVertex
 10
86.715775
 20
48.708031
 30
0.0
  0
VERTEX
  5
5A6
100
AcDbEntity
  8
0
100
AcDbVertex
100
AcDb2dVertex
 10
86.849075
 20
48.663597
 30
0.0
  0
VERTEX
  5
5A7
100
AcDbEntity
  8
0
100
AcDbVertex
100
AcDb2dVertex
 10
86.893509
 20
48.530296
 30
0.0
  0
VERTEX
  5
5A8
100
AcDbEntity
  8
0
100
AcDbVertex
100
AcDb2dVertex
 10
86.893509
 20
48.174828
 30
0.0
  0
VERTEX
  5
5A9
100
AcDbEntity
  8
0
100
AcDbVertex
100
AcDb2dVertex
 10
86.729446
 20
47.997093
 30
0.0
  0
VERTEX
  5
5AA
100
AcDbEntity
  8
0
100
AcDbVertex
100
AcDb2dVertex
 10
86.6064
 20
48.044945
 30
0.0
  0
VERTEX
  5
5AB
100
AcDbEntity
  8
0
100
AcDbVertex
100
AcDb2dVertex
 10
86.565384
 20
48.188499
 30
0.0
  0
VERTEX
  5
5AC
100
AcDbEntity
  8
0
100
AcDbVertex
100
AcDb2dVertex
 10
86.565384
 20
48.379906
 30
0.0
  0
VERTEX
  5
5AD
100
AcDbEntity
  8
0
100
AcDbVertex
100
AcDb2dVertex
 10
85.799759
 20
48.379906
 30
0.0
  0
VERTEX
  5
5AE
100
AcDbEntity
  8
0
100
AcDbVertex
100
AcDb2dVertex
 10
85.799759
 20
46.424828
 30
0.0
  0
VERTEX
  5
5AF
100
AcDbEntity
  8
0
100
AcDbVertex
100
AcDb2dVertex
 10
85.635696
 20
46.247093
 30
0.0
  0
VERTEX
  5
5B0
100
AcDbEntity
  8
0
100
AcDbVertex
100
AcDb2dVertex
 10
85.471634
 20
46.423119
 30
0.0
  0
SEQEND
  5
5B1
100
AcDbEntity
  8
0
  0
POLYLINE
  5
5B2
100
AcDbEntity
  8
0
 62
     7
100
AcDb2dPolyline
 66
     1
 10
0.0
 20
0.0
 30
0.0
 70
     1
 71
    19
  0
VERTEX
  5
5B3
100
AcDbEntity
  8
0
100
AcDbVertex
100
AcDb2dVertex
 10
89.354446
 20
48.004784
 30
0.0
  0
VERTEX
  5
5B4
100
AcDbEntity
  8
0
100
AcDbVertex
100
AcDb2dVertex
 10
89.354446
 20
46.95034
 30
0.0
  0
VERTEX
  5
5B5
100
AcDbEntity
  8
0
100
AcDbVertex
100
AcDb2dVertex
 10
89.331894
 20
46.763443
 30
0.0
  0
VERTEX
  5
5B6
100
AcDbEntity
  8
0
100
AcDbVertex
100
AcDb2dVertex
 10
89.264252
 20
46.596962
 30
0.0
  0
VERTEX
  5
5B7
100
AcDbEntity
  8
0
100
AcDbVertex
100
AcDb2dVertex
 10
89.151505
 20
46.45089
 30
0.0
  0
VERTEX
  5
5B8
100
AcDbEntity
  8
0
100
AcDbVertex
100
AcDb2dVertex
 10
89.006104
 20
46.337669
 30
0.0
  0
VERTEX
  5
5B9
100
AcDbEntity
  8
0
100
AcDbVertex
100
AcDb2dVertex
 10
88.840469
 20
46.269737
 30
0.0
  0
VERTEX
  5
5BA
100
AcDbEntity
  8
0
100
AcDbVertex
100
AcDb2dVertex
 10
88.654617
 20
46.247093
 30
0.0
  0
VERTEX
  5
5BB
100
AcDbEntity
  8
0
100
AcDbVertex
100
AcDb2dVertex
 10
87.779617
 20
46.247093
 30
0.0
  0
VERTEX
  5
5BC
100
AcDbEntity
  8
0
100
AcDbVertex
100
AcDb2dVertex
 10
87.604446
 20
46.422264
 30
0.0
  0
VERTEX
  5
5BD
100
AcDbEntity
  8
0
100
AcDbVertex
100
AcDb2dVertex
 10
87.604446
 20
49.571922
 30
0.0
  0
VERTEX
  5
5BE
100
AcDbEntity
  8
0
100
AcDbVertex
100
AcDb2dVertex
 10
87.768509
 20
49.747093
 30
0.0
  0
VERTEX
  5
5BF
100
AcDbEntity
  8
0
100
AcDbVertex
100
AcDb2dVertex
 10
87.932571
 20
49.573631
 30
0.0
  0
VERTEX
  5
5C0
100
AcDbEntity
  8
0
100
AcDbVertex
100
AcDb2dVertex
 10
87.932571
 20
48.708031
 30
0.0
  0
VERTEX
  5
5C1
100
AcDbEntity
  8
0
100
AcDbVertex
100
AcDb2dVertex
 10
88.643509
 20
48.708031
 30
0.0
  0
VERTEX
  5
5C2
100
AcDbEntity
  8
0
100
AcDbVertex
100
AcDb2dVertex
 10
88.896248
 20
48.669292
 30
0.0
  0
VERTEX
  5
5C3
100
AcDbEntity
  8
0
100
AcDbVertex
100
AcDb2dVertex
 10
89.101898
 20
48.553082
 30
0.0
  0
VERTEX
  5
5C4
100
AcDbEntity
  8
0
100
AcDbVertex
100
AcDb2dVertex
 10
89.260452
 20
48.359398
 30
0.0
  0
VERTEX
  5
5C5
100
AcDbEntity
  8
0
100
AcDbVertex
100
AcDb2dVertex
 10
89.330948
 20
48.189568
 30
0.0
  0
SEQEND
  5
5C6
100
AcDbEntity
  8
0
  0
POLYLINE
  5
5C7
100
AcDbEntity
  8
0
 62
     7
100
AcDb2dPolyline
 66
     1
 10
0.0
 20
0.0
 30
0.0
 70
     1
 71
    12
  0
VERTEX
  5
5C8
100
AcDbEntity
  8
0
100
AcDbVertex
100
AcDb2dVertex
 10
88.661453
 20
48.379906
 30
0.0
  0
VERTEX
  5
5C9
100
AcDbEntity
  8
0
100
AcDbVertex
100
AcDb2dVertex
 10
87.932571
 20
48.379906
 30
0.0
  0
VERTEX
  5
5CA
100
AcDbEntity
  8
0
100
AcDbVertex
100
AcDb2dVertex
 10
87.932571
 20
46.575218
 30
0.0
  0
VERTEX
  5
5CB
100
AcDbEntity
  8
0
100
AcDbVertex
100
AcDb2dVertex
 10
88.661453
 20
46.575218
 30
0.0
  0
VERTEX
  5
5CC
100
AcDbEntity
  8
0
100
AcDbVertex
100
AcDb2dVertex
 10
88.802124
 20
46.601494
 30
0.0
  0
VERTEX
  5
5CD
100
AcDbEntity
  8
0
100
AcDbVertex
100
AcDb2dVertex
 10
88.919937
 20
46.680321
 30
0.0
  0
VERTEX
  5
5CE
100
AcDbEntity
  8
0
100
AcDbVertex
100
AcDb2dVertex
 10
88.999725
 20
46.796745
 30
0.0
  0
VERTEX
  5
5CF
100
AcDbEntity
  8
0
100
AcDbVertex
100
AcDb2dVertex
 10
89.026321
 20
46.935814
 30
0.0
  0
VERTEX
  5
5D0
100
AcDbEntity
  8
0
100
AcDbVertex
100
AcDb2dVertex
 10
89.026321
 20
48.01931
 30
0.0
  0
VERTEX
  5
5D1
100
AcDbEntity
  8
0
100
AcDbVertex
100
AcDb2dVertex
 10
89.000046
 20
48.159981
 30
0.0
  0
VERTEX
  5
5D2
100
AcDbEntity
  8
0
100
AcDbVertex
100
AcDb2dVertex
 10
88.921219
 20
48.276085
 30
0.0
  0
VERTEX
  5
5D3
100
AcDbEntity
  8
0
100
AcDbVertex
100
AcDb2dVertex
 10
88.803726
 20
48.353951
 30
0.0
  0
SEQEND
  5
5D4
100
AcDbEntity
  8
0
  0
POLYLINE
  5
5D5
100
AcDbEntity
  8
0
 62
     7
100
AcDb2dPolyline
 66
     1
 10
0.0
 20
0.0
 30
0.0
 70
     1
 71
    26
  0
VERTEX
  5
5D6
100
AcDbEntity
  8
0
100
AcDbVertex
100
AcDb2dVertex
 10
90.010696
 20
47.126366
 30
0.0
  0
VERTEX
  5
5D7
100
AcDbEntity
  8
0
100
AcDbVertex
100
AcDb2dVertex
 10
90.010696
 20
47.828758
 30
0.0
  0
VERTEX
  5
5D8
100
AcDbEntity
  8
0
100
AcDbVertex
100
AcDb2dVertex
 10
90.039131
 20
48.06004
 30
0.0
  0
VERTEX
  5
5D9
100
AcDbEntity
  8
0
100
AcDbVertex
100
AcDb2dVertex
 10
90.124435
 20
48.267399
 30
0.0
  0
VERTEX
  5
5DA
100
AcDbEntity
  8
0
100
AcDbVertex
100
AcDb2dVertex
 10
90.266617
 20
48.450829
 30
0.0
  0
VERTEX
  5
5DB
100
AcDbEntity
  8
0
100
AcDbVertex
100
AcDb2dVertex
 10
90.449142
 20
48.593719
 30
0.0
  0
VERTEX
  5
5DC
100
AcDbEntity
  8
0
100
AcDbVertex
100
AcDb2dVertex
 10
90.655502
 20
48.679451
 30
0.0
  0
VERTEX
  5
5DD
100
AcDbEntity
  8
0
100
AcDbVertex
100
AcDb2dVertex
 10
90.885696
 20
48.708031
 30
0.0
  0
VERTEX
  5
5DE
100
AcDbEntity
  8
0
100
AcDbVertex
100
AcDb2dVertex
 10
91.118454
 20
48.679787
 30
0.0
  0
VERTEX
  5
5DF
100
AcDbEntity
  8
0
100
AcDbVertex
100
AcDb2dVertex
 10
91.325668
 20
48.595047
 30
0.0
  0
VERTEX
  5
5E0
100
AcDbEntity
  8
0
100
AcDbVertex
100
AcDb2dVertex
 10
91.507339
 20
48.453819
 30
0.0
  0
VERTEX
  5
5E1
100
AcDbEntity
  8
0
100
AcDbVertex
100
AcDb2dVertex
 10
91.648094
 20
48.271385
 30
0.0
  0
VERTEX
  5
5E2
100
AcDbEntity
  8
0
100
AcDbVertex
100
AcDb2dVertex
 10
91.732544
 20
48.06303
 30
0.0
  0
VERTEX
  5
5E3
100
AcDbEntity
  8
0
100
AcDbVertex
100
AcDb2dVertex
 10
91.760696
 20
47.828758
 30
0.0
  0
VERTEX
  5
5E4
100
AcDbEntity
  8
0
100
AcDbVertex
100
AcDb2dVertex
 10
91.760696
 20
47.126366
 30
0.0
  0
VERTEX
  5
5E5
100
AcDbEntity
  8
0
100
AcDbVertex
100
AcDb2dVertex
 10
91.732262
 20
46.895084
 30
0.0
  0
VERTEX
  5
5E6
100
AcDbEntity
  8
0
100
AcDbVertex
100
AcDb2dVertex
 10
91.646957
 20
46.687725
 30
0.0
  0
VERTEX
  5
5E7
100
AcDbEntity
  8
0
100
AcDbVertex
100
AcDb2dVertex
 10
91.504776
 20
46.504295
 30
0.0
  0
VERTEX
  5
5E8
100
AcDbEntity
  8
0
100
AcDbVertex
100
AcDb2dVertex
 10
91.32225
 20
46.361404
 30
0.0
  0
VERTEX
  5
5E9
100
AcDbEntity
  8
0
100
AcDbVertex
100
AcDb2dVertex
 10
91.115891
 20
46.275673
 30
0.0
  0
VERTEX
  5
5EA
100
AcDbEntity
  8
0
100
AcDbVertex
100
AcDb2dVertex
 10
90.885696
 20
46.247093
 30
0.0
  0
VERTEX
  5
5EB
100
AcDbEntity
  8
0
100
AcDbVertex
100
AcDb2dVertex
 10
90.655502
 20
46.275673
 30
0.0
  0
VERTEX
  5
5EC
100
AcDbEntity
  8
0
100
AcDbVertex
100
AcDb2dVertex
 10
90.449142
 20
46.361404
 30
0.0
  0
VERTEX
  5
5ED
100
AcDbEntity
  8
0
100
AcDbVertex
100
AcDb2dVertex
 10
90.266617
 20
46.504295
 30
0.0
  0
VERTEX
  5
5EE
100
AcDbEntity
  8
0
100
AcDbVertex
100
AcDb2dVertex
 10
90.124435
 20
46.687725
 30
0.0
  0
VERTEX
  5
5EF
100
AcDbEntity
  8
0
100
AcDbVertex
100
AcDb2dVertex
 10
90.039131
 20
46.895084
 30
0.0
  0
SEQEND
  5
5F0
100
AcDbEntity
  8
0
  0
POLYLINE
  5
5F1
100
AcDbEntity
  8
0
 62
     7
100
AcDb2dPolyline
 66
     1
 10
0.0
 20
0.0
 30
0.0
 70
     1
 71
    18
  0
VERTEX
  5
5F2
100
AcDbEntity
  8
0
100
AcDbVertex
100
AcDb2dVertex
 10
91.432571
 20
47.116966
 30
0.0
  0
VERTEX
  5
5F3
100
AcDbEntity
  8
0
100
AcDbVertex
100
AcDb2dVertex
 10
91.432571
 20
47.838158
 30
0.0
  0
VERTEX
  5
5F4
100
AcDbEntity
  8
0
100
AcDbVertex
100
AcDb2dVertex
 10
91.392517
 20
48.046333
 30
0.0
  0
VERTEX
  5
5F5
100
AcDbEntity
  8
0
100
AcDbVertex
100
AcDb2dVertex
 10
91.272354
 20
48.221397
 30
0.0
  0
VERTEX
  5
5F6
100
AcDbEntity
  8
0
100
AcDbVertex
100
AcDb2dVertex
 10
91.095581
 20
48.340279
 30
0.0
  0
VERTEX
  5
5F7
100
AcDbEntity
  8
0
100
AcDbVertex
100
AcDb2dVertex
 10
90.885696
 20
48.379906
 30
0.0
  0
VERTEX
  5
5F8
100
AcDbEntity
  8
0
100
AcDbVertex
100
AcDb2dVertex
 10
90.675812
 20
48.340279
 30
0.0
  0
VERTEX
  5
5F9
100
AcDbEntity
  8
0
100
AcDbVertex
100
AcDb2dVertex
 10
90.499039
 20
48.221397
 30
0.0
  0
VERTEX
  5
5FA
100
AcDbEntity
  8
0
100
AcDbVertex
100
AcDb2dVertex
 10
90.378876
 20
48.046333
 30
0.0
  0
VERTEX
  5
5FB
100
AcDbEntity
  8
0
100
AcDbVertex
100
AcDb2dVertex
 10
90.338821
 20
47.838158
 30
0.0
  0
VERTEX
  5
5FC
100
AcDbEntity
  8
0
100
AcDbVertex
100
AcDb2dVertex
 10
90.338821
 20
47.116966
 30
0.0
  0
VERTEX
  5
5FD
100
AcDbEntity
  8
0
100
AcDbVertex
100
AcDb2dVertex
 10
90.378555
 20
46.907188
 30
0.0
  0
VERTEX
  5
5FE
100
AcDbEntity
  8
0
100
AcDbVertex
100
AcDb2dVertex
 10
90.497757
 20
46.732445
 30
0.0
  0
VERTEX
  5
5FF
100
AcDbEntity
  8
0
100
AcDbVertex
100
AcDb2dVertex
 10
90.67421
 20
46.614525
 30
0.0
  0
VERTEX
  5
600
100
AcDbEntity
  8
0
100
AcDbVertex
100
AcDb2dVertex
 10
90.885696
 20
46.575218
 30
0.0
  0
VERTEX
  5
601
100
AcDbEntity
  8
0
100
AcDbVertex
100
AcDb2dVertex
 10
91.095581
 20
46.614845
 30
0.0
  0
VERTEX
  5
602
100
AcDbEntity
  8
0
100
AcDbVertex
100
AcDb2dVertex
 10
91.272354
 20
46.733727
 30
0.0
  0
VERTEX
  5
603
100
AcDbEntity
  8
0
100
AcDbVertex
100
AcDb2dVertex
 10
91.392517
 20
46.908791
 30
0.0
  0
SEQEND
  5
604
100
AcDbEntity
  8
0
  0
POLYLINE
  5
605
100
AcDbEntity
  8
0
 62
     7
100
AcDb2dPolyline
 66
     1
 10
0.0
 20
0.0
 30
0.0
 70
     1
 71
    19
  0
VERTEX
  5
606
100
AcDbEntity
  8
0
100
AcDbVertex
100
AcDb2dVertex
 10
92.416946
 20
48.004784
 30
0.0
  0
VERTEX
  5
607
100
AcDbEntity
  8
0
100
AcDbVertex
100
AcDb2dVertex
 10
92.440445
 20
48.189568
 30
0.0
  0
VERTEX
  5
608
100
AcDbEntity
  8
0
100
AcDbVertex
100
AcDb2dVertex
 10
92.510941
 20
48.359398
 30
0.0
  0
VERTEX
  5
609
100
AcDbEntity
  8
0
100
AcDbVertex
100
AcDb2dVertex
 10
92.669495
 20
48.553082
 30
0.0
  0
VERTEX
  5
60A
100
AcDbEntity
  8
0
100
AcDbVertex
100
AcDb2dVertex
 10
92.875145
 20
48.669292
 30
0.0
  0
VERTEX
  5
60B
100
AcDbEntity
  8
0
100
AcDbVertex
100
AcDb2dVertex
 10
93.127884
 20
48.708031
 30
0.0
  0
VERTEX
  5
60C
100
AcDbEntity
  8
0
100
AcDbVertex
100
AcDb2dVertex
 10
93.838821
 20
48.708031
 30
0.0
  0
VERTEX
  5
60D
100
AcDbEntity
  8
0
100
AcDbVertex
100
AcDb2dVertex
 10
93.838821
 20
49.573631
 30
0.0
  0
VERTEX
  5
60E
100
AcDbEntity
  8
0
100
AcDbVertex
100
AcDb2dVertex
 10
94.002884
 20
49.747093
 30
0.0
  0
VERTEX
  5
60F
100
AcDbEntity
  8
0
100
AcDbVertex
100
AcDb2dVertex
 10
94.166946
 20
49.571922
 30
0.0
  0
VERTEX
  5
610
100
AcDbEntity
  8
0
100
AcDbVertex
100
AcDb2dVertex
 10
94.166946
 20
46.422264
 30
0.0
  0
VERTEX
  5
611
100
AcDbEntity
  8
0
100
AcDbVertex
100
AcDb2dVertex
 10
93.991776
 20
46.247093
 30
0.0
  0
VERTEX
  5
612
100
AcDbEntity
  8
0
100
AcDbVertex
100
AcDb2dVertex
 10
93.116776
 20
46.247093
 30
0.0
  0
VERTEX
  5
613
100
AcDbEntity
  8
0
100
AcDbVertex
100
AcDb2dVertex
 10
92.930923
 20
46.269737
 30
0.0
  0
VERTEX
  5
614
100
AcDbEntity
  8
0
100
AcDbVertex
100
AcDb2dVertex
 10
92.765289
 20
46.337669
 30
0.0
  0
VERTEX
  5
615
100
AcDbEntity
  8
0
100
AcDbVertex
100
AcDb2dVertex
 10
92.619888
 20
46.45089
 30
0.0
  0
VERTEX
  5
616
100
AcDbEntity
  8
0
100
AcDbVertex
100
AcDb2dVertex
 10
92.507141
 20
46.596962
 30
0.0
  0
VERTEX
  5
617
100
AcDbEntity
  8
0
100
AcDbVertex
100
AcDb2dVertex
 10
92.439499
 20
46.763443
 30
0.0
  0
VERTEX
  5
618
100
AcDbEntity
  8
0
100
AcDbVertex
100
AcDb2dVertex
 10
92.416946
 20
46.95034
 30
0.0
  0
SEQEND
  5
619
100
AcDbEntity
  8
0
  0
POLYLINE
  5
61A
100
AcDbEntity
  8
0
 62
     7
100
AcDb2dPolyline
 66
     1
 10
0.0
 20
0.0
 30
0.0
 70
     1
 71
    12
  0
VERTEX
  5
61B
100
AcDbEntity
  8
0
100
AcDbVertex
100
AcDb2dVertex
 10
93.10994
 20
48.379906
 30
0.0
  0
VERTEX
  5
61C
100
AcDbEntity
  8
0
100
AcDbVertex
100
AcDb2dVertex
 10
92.969269
 20
48.35363
 30
0.0
  0
VERTEX
  5
61D
100
AcDbEntity
  8
0
100
AcDbVertex
100
AcDb2dVertex
 10
92.851456
 20
48.274803
 30
0.0
  0
VERTEX
  5
61E
100
AcDbEntity
  8
0
100
AcDbVertex
100
AcDb2dVertex
 10
92.771667
 20
48.158379
 30
0.0
  0
VERTEX
  5
61F
100
AcDbEntity
  8
0
100
AcDbVertex
100
AcDb2dVertex
 10
92.745071
 20
48.01931
 30
0.0
  0
VERTEX
  5
620
100
AcDbEntity
  8
0
100
AcDbVertex
100
AcDb2dVertex
 10
92.745071
 20
46.935814
 30
0.0
  0
VERTEX
  5
621
100
AcDbEntity
  8
0
100
AcDbVertex
100
AcDb2dVertex
 10
92.771988
 20
46.798882
 30
0.0
  0
VERTEX
  5
622
100
AcDbEntity
  8
0
100
AcDbVertex
100
AcDb2dVertex
 10
92.852737
 20
46.68203
 30
0.0
  0
VERTEX
  5
623
100
AcDbEntity
  8
0
100
AcDbVertex
100
AcDb2dVertex
 10
92.970871
 20
46.601921
 30
0.0
  0
VERTEX
  5
624
100
AcDbEntity
  8
0
100
AcDbVertex
100
AcDb2dVertex
 10
93.10994
 20
46.575218
 30
0.0
  0
VERTEX
  5
625
100
AcDbEntity
  8
0
100
AcDbVertex
100
AcDb2dVertex
 10
93.838821
 20
46.575218
 30
0.0
  0
VERTEX
  5
626
100
AcDbEntity
  8
0
100
AcDbVertex
100
AcDb2dVertex
 10
93.838821
 20
48.379906
 30
0.0
  0
SEQEND
  5
627
100
AcDbEntity
  8
0
  0
POLYLINE
  5
628
100
AcDbEntity
  8
0
 62
     7
100
AcDb2dPolyline
 66
     1
 10
0.0
 20
0.0
 30
0.0
 70
     1
 71
    11
  0
VERTEX
  5
629
100
AcDbEntity
  8
0
100
AcDbVertex
100
AcDb2dVertex
 10
95.698196
 20
48.379906
 30
0.0
  0
VERTEX
  5
62A
100
AcDbEntity
  8
0
100
AcDbVertex
100
AcDb2dVertex
 10
95.488312
 20
48.337822
 30
0.0
  0
VERTEX
  5
62B
100
AcDbEntity
  8
0
100
AcDbVertex
100
AcDb2dVertex
 10
95.311539
 20
48.211571
 30
0.0
  0
VERTEX
  5
62C
100
AcDbEntity
  8
0
100
AcDbVertex
100
AcDb2dVertex
 10
95.191376
 20
48.025932
 30
0.0
  0
VERTEX
  5
62D
100
AcDbEntity
  8
0
100
AcDbVertex
100
AcDb2dVertex
 10
95.151321
 20
47.805687
 30
0.0
  0
VERTEX
  5
62E
100
AcDbEntity
  8
0
100
AcDbVertex
100
AcDb2dVertex
 10
95.151321
 20
47.614281
 30
0.0
  0
VERTEX
  5
62F
100
AcDbEntity
  8
0
100
AcDbVertex
100
AcDb2dVertex
 10
96.245071
 20
47.614281
 30
0.0
  0
VERTEX
  5
630
100
AcDbEntity
  8
0
100
AcDbVertex
100
AcDb2dVertex
 10
96.245071
 20
47.805687
 30
0.0
  0
VERTEX
  5
631
100
AcDbEntity
  8
0
100
AcDbVertex
100
AcDb2dVertex
 10
96.205017
 20
48.025932
 30
0.0
  0
VERTEX
  5
632
100
AcDbEntity
  8
0
100
AcDbVertex
100
AcDb2dVertex
 10
96.084854
 20
48.211571
 30
0.0
  0
VERTEX
  5
633
100
AcDbEntity
  8
0
100
AcDbVertex
100
AcDb2dVertex
 10
95.908081
 20
48.337822
 30
0.0
  0
SEQEND
  5
634
100
AcDbEntity
  8
0
  0
POLYLINE
  5
635
100
AcDbEntity
  8
0
 62
     7
100
AcDb2dPolyline
 66
     1
 10
0.0
 20
0.0
 30
0.0
 70
     1
 71
    30
  0
VERTEX
  5
636
100
AcDbEntity
  8
0
100
AcDbVertex
100
AcDb2dVertex
 10
95.151321
 20
47.286156
 30
0.0
  0
VERTEX
  5
637
100
AcDbEntity
  8
0
100
AcDbVertex
100
AcDb2dVertex
 10
95.151321
 20
46.930687
 30
0.0
  0
VERTEX
  5
638
100
AcDbEntity
  8
0
100
AcDbVertex
100
AcDb2dVertex
 10
95.177597
 20
46.795464
 30
0.0
  0
VERTEX
  5
639
100
AcDbEntity
  8
0
100
AcDbVertex
100
AcDb2dVertex
 10
95.256424
 20
46.680321
 30
0.0
  0
VERTEX
  5
63A
100
AcDbEntity
  8
0
100
AcDbVertex
100
AcDb2dVertex
 10
95.371567
 20
46.601494
 30
0.0
  0
VERTEX
  5
63B
100
AcDbEntity
  8
0
100
AcDbVertex
100
AcDb2dVertex
 10
95.50679
 20
46.575218
 30
0.0
  0
VERTEX
  5
63C
100
AcDbEntity
  8
0
100
AcDbVertex
100
AcDb2dVertex
 10
96.395462
 20
46.575218
 30
0.0
  0
VERTEX
  5
63D
100
AcDbEntity
  8
0
100
AcDbVertex
100
AcDb2dVertex
 10
96.573196
 20
46.411156
 30
0.0
  0
VERTEX
  5
63E
100
AcDbEntity
  8
0
100
AcDbVertex
100
AcDb2dVertex
 10
96.398026
 20
46.247093
 30
0.0
  0
VERTEX
  5
63F
100
AcDbEntity
  8
0
100
AcDbVertex
100
AcDb2dVertex
 10
95.523026
 20
46.247093
 30
0.0
  0
VERTEX
  5
640
100
AcDbEntity
  8
0
100
AcDbVertex
100
AcDb2dVertex
 10
95.337173
 20
46.269737
 30
0.0
  0
VERTEX
  5
641
100
AcDbEntity
  8
0
100
AcDbVertex
100
AcDb2dVertex
 10
95.171539
 20
46.337669
 30
0.0
  0
VERTEX
  5
642
100
AcDbEntity
  8
0
100
AcDbVertex
100
AcDb2dVertex
 10
95.026138
 20
46.45089
 30
0.0
  0
VERTEX
  5
643
100
AcDbEntity
  8
0
100
AcDbVertex
100
AcDb2dVertex
 10
94.913391
 20
46.596962
 30
0.0
  0
VERTEX
  5
644
100
AcDbEntity
  8
0
100
AcDbVertex
100
AcDb2dVertex
 10
94.845749
 20
46.763443
 30
0.0
  0
VERTEX
  5
645
100
AcDbEntity
  8
0
100
AcDbVertex
100
AcDb2dVertex
 10
94.823196
 20
46.95034
 30
0.0
  0
VERTEX
  5
646
100
AcDbEntity
  8
0
100
AcDbVertex
100
AcDb2dVertex
 10
94.823196
 20
47.828758
 30
0.0
  0
VERTEX
  5
647
100
AcDbEntity
  8
0
100
AcDbVertex
100
AcDb2dVertex
 10
94.851631
 20
48.06004
 30
0.0
  0
VERTEX
  5
648
100
AcDbEntity
  8
0
100
AcDbVertex
100
AcDb2dVertex
 10
94.936935
 20
48.267399
 30
0.0
  0
VERTEX
  5
649
100
AcDbEntity
  8
0
100
AcDbVertex
100
AcDb2dVertex
 10
95.079117
 20
48.450829
 30
0.0
  0
VERTEX
  5
64A
100
AcDbEntity
  8
0
100
AcDbVertex
100
AcDb2dVertex
 10
95.261642
 20
48.593719
 30
0.0
  0
VERTEX
  5
64B
100
AcDbEntity
  8
0
100
AcDbVertex
100
AcDb2dVertex
 10
95.468002
 20
48.679451
 30
0.0
  0
VERTEX
  5
64C
100
AcDbEntity
  8
0
100
AcDbVertex
100
AcDb2dVertex
 10
95.698196
 20
48.708031
 30
0.0
  0
VERTEX
  5
64D
100
AcDbEntity
  8
0
100
AcDbVertex
100
AcDb2dVertex
 10
95.930954
 20
48.679451
 30
0.0
  0
VERTEX
  5
64E
100
AcDbEntity
  8
0
100
AcDbVertex
100
AcDb2dVertex
 10
96.138168
 20
48.593719
 30
0.0
  0
VERTEX
  5
64F
100
AcDbEntity
  8
0
100
AcDbVertex
100
AcDb2dVertex
 10
96.319839
 20
48.450829
 30
0.0
  0
VERTEX
  5
650
100
AcDbEntity
  8
0
100
AcDbVertex
100
AcDb2dVertex
 10
96.460594
 20
48.266354
 30
0.0
  0
VERTEX
  5
651
100
AcDbEntity
  8
0
100
AcDbVertex
100
AcDb2dVertex
 10
96.545044
 20
48.055862
 30
0.0
  0
VERTEX
  5
652
100
AcDbEntity
  8
0
100
AcDbVertex
100
AcDb2dVertex
 10
96.573196
 20
47.819359
 30
0.0
  0
VERTEX
  5
653
100
AcDbEntity
  8
0
100
AcDbVertex
100
AcDb2dVertex
 10
96.573196
 20
47.286156
 30
0.0
  0
SEQEND
  5
654
100
AcDbEntity
  8
0
  0
POLYLINE
  5
655
100
AcDbEntity
  8
0
 62
     7
100
AcDb2dPolyline
 66
     1
 10
0.0
 20
0.0
 30
0.0
 70
     1
 71
    21
  0
VERTEX
  5
656
100
AcDbEntity
  8
0
100
AcDbVertex
100
AcDb2dVertex
 10
97.229446
 20
46.423119
 30
0.0
  0
VERTEX
  5
657
100
AcDbEntity
  8
0
100
AcDbVertex
100
AcDb2dVertex
 10
97.229446
 20
48.532005
 30
0.0
  0
VERTEX
  5
658
100
AcDbEntity
  8
0
100
AcDbVertex
100
AcDb2dVertex
 10
97.404617
 20
48.708031
 30
0.0
  0
VERTEX
  5
659
100
AcDbEntity
  8
0
100
AcDbVertex
100
AcDb2dVertex
 10
98.279617
 20
48.708031
 30
0.0
  0
VERTEX
  5
65A
100
AcDbEntity
  8
0
100
AcDbVertex
100
AcDb2dVertex
 10
98.465469
 20
48.685387
 30
0.0
  0
VERTEX
  5
65B
100
AcDbEntity
  8
0
100
AcDbVertex
100
AcDb2dVertex
 10
98.631104
 20
48.617455
 30
0.0
  0
VERTEX
  5
65C
100
AcDbEntity
  8
0
100
AcDbVertex
100
AcDb2dVertex
 10
98.776505
 20
48.504234
 30
0.0
  0
VERTEX
  5
65D
100
AcDbEntity
  8
0
100
AcDbVertex
100
AcDb2dVertex
 10
98.889252
 20
48.358162
 30
0.0
  0
VERTEX
  5
65E
100
AcDbEntity
  8
0
100
AcDbVertex
100
AcDb2dVertex
 10
98.956894
 20
48.191681
 30
0.0
  0
VERTEX
  5
65F
100
AcDbEntity
  8
0
100
AcDbVertex
100
AcDb2dVertex
 10
98.979446
 20
48.004784
 30
0.0
  0
VERTEX
  5
660
100
AcDbEntity
  8
0
100
AcDbVertex
100
AcDb2dVertex
 10
98.979446
 20
46.423119
 30
0.0
  0
VERTEX
  5
661
100
AcDbEntity
  8
0
100
AcDbVertex
100
AcDb2dVertex
 10
98.815384
 20
46.247093
 30
0.0
  0
VERTEX
  5
662
100
AcDbEntity
  8
0
100
AcDbVertex
100
AcDb2dVertex
 10
98.651321
 20
46.424828
 30
0.0
  0
VERTEX
  5
663
100
AcDbEntity
  8
0
100
AcDbVertex
100
AcDb2dVertex
 10
98.651321
 20
48.024437
 30
0.0
  0
VERTEX
  5
664
100
AcDbEntity
  8
0
100
AcDbVertex
100
AcDb2dVertex
 10
98.625046
 20
48.162865
 30
0.0
  0
VERTEX
  5
665
100
AcDbEntity
  8
0
100
AcDbVertex
100
AcDb2dVertex
 10
98.546219
 20
48.277367
 30
0.0
  0
VERTEX
  5
666
100
AcDbEntity
  8
0
100
AcDbVertex
100
AcDb2dVertex
 10
98.428726
 20
48.354271
 30
0.0
  0
VERTEX
  5
667
100
AcDbEntity
  8
0
100
AcDbVertex
100
AcDb2dVertex
 10
98.286453
 20
48.379906
 30
0.0
  0
VERTEX
  5
668
100
AcDbEntity
  8
0
100
AcDbVertex
100
AcDb2dVertex
 10
97.557571
 20
48.379906
 30
0.0
  0
VERTEX
  5
669
100
AcDbEntity
  8
0
100
AcDbVertex
100
AcDb2dVertex
 10
97.557571
 20
46.424828
 30
0.0
  0
VERTEX
  5
66A
100
AcDbEntity
  8
0
100
AcDbVertex
100
AcDb2dVertex
 10
97.393509
 20
46.247093
 30
0.0
  0
SEQEND
  5
66B
100
AcDbEntity
  8
0
  0
CIRCLE
  5
66C
100
AcDbEntity
  8
0
 62
     7
100
AcDbCircle
 10
76.172363
 20
48.369682
 30
0.0
 40
33.5
210
0.0
220
0.0
230
1.0
  0
CIRCLE
  5
66D
100
AcDbEntity
  8
0
 62
     7
100
AcDbCircle
 10
76.172363
 20
75.869682
 30
0.0
 40
1.5
210
0.0
220
0.0
230
1.0
  0
CIRCLE
  5
66E
100
AcDbEntity
  8
0
 62
     7
100
AcDbCircle
 10
99.98806
 20
34.619682
 30
0.0
 40
1.5
210
0.0
220
0.0
230
1.0
  0
CIRCLE
  5
66F
100
AcDbEntity
  8
0
 62
     7
100
AcDbCircle
 10
52.356667
 20
34.619682
 30
0.0
 40
1.5
210
0.0
220
0.0
230
1.0
  0
ENDSEC
  0
SECTION
  2
OBJECTS
  0
DICTIONARY
  5
19
100
AcDbDictionary
  3
ACAD_GROUP
350
1A
  3
ACAD_MLINESTYLE
350
1B
  0
DICTIONARY
  5
1A
102
{ACAD_REACTORS
330
19
102
}
100
AcDbDictionary
  0
DICTIONARY
  5
1B
102
{ACAD_REACTORS
330
19
102
}
100
AcDbDictionary
  3
STANDARD
350
1C
  0
MLINESTYLE
  5
1C
102
{ACAD_REACTORS
330
1B
102
}
100
AcDbMlineStyle
  2
STANDARD
 70
     0
  3

 62
     0
 51
90.0
 52
90.0
 71
     2
 49
0.5
 62
   256
  6
BYLAYER
 49
-0.5
 62
   256
  6
BYLAYER
  0
ENDSEC
  0
EOF
