  0
SECTION
  2
HEADER
  9
$ACADVER
  1
AC1014
  9
$ACADMAINTVER
 70
     0
  9
$DWGCODEPAGE
  3
ANSI_1252
  9
$INSBASE
 10
0.0
 20
0.0
 30
0.0
  9
$EXTMIN
 10
0.0
 20
0.0
 30
0.0
  9
$EXTMAX
 10
26.784718
 20
96.933197
 30
2.0
  9
$LIMMIN
 10
0.0
 20
0.0
  9
$LIMMAX
 10
420.0
 20
297.0
  9
$ORTHOMODE
 70
     0
  9
$REGENMODE
 70
     1
  9
$FILLMODE
 70
     1
  9
$QTEXTMODE
 70
     0
  9
$MIRRTEXT
 70
     1
  9
$DRAGMODE
 70
     2
  9
$LTSCALE
 40
1.0
  9
$OSMODE
 70
     0
  9
$ATTMODE
 70
     1
  9
$TEXTSIZE
 40
2.5
  9
$TRACEWID
 40
1.0
  9
$TEXTSTYLE
  7
STANDARD
  9
$CLAYER
  8
0
  9
$CELTYPE
  6
BYLAYER
  9
$CECOLOR
 62
   256
  9
$CELTSCALE
 40
1.0
  9
$DELOBJ
 70
     1
  9
$DISPSILH
 70
     0
  9
$DIMSCALE
 40
1.0
  9
$DIMASZ
 40
2.5
  9
$DIMEXO
 40
0.625
  9
$DIMDLI
 40
3.75
  9
$DIMRND
 40
0.0
  9
$DIMDLE
 40
0.0
  9
$DIMEXE
 40
1.25
  9
$DIMTP
 40
0.0
  9
$DIMTM
 40
0.0
  9
$DIMTXT
 40
2.5
  9
$DIMCEN
 40
2.5
  9
$DIMTSZ
 40
0.0
  9
$DIMTOL
 70
     0
  9
$DIMLIM
 70
     0
  9
$DIMTIH
 70
     0
  9
$DIMTOH
 70
     0
  9
$DIMSE1
 70
     0
  9
$DIMSE2
 70
     0
  9
$DIMTAD
 70
     1
  9
$DIMZIN
 70
     8
  9
$DIMBLK
  1

  9
$DIMASO
 70
     1
  9
$DIMSHO
 70
     1
  9
$DIMPOST
  1

  9
$DIMAPOST
  1

  9
$DIMALT
 70
     0
  9
$DIMALTD
 70
     3
  9
$DIMALTF
 40
0.03937
  9
$DIMLFAC
 40
1.0
  9
$DIMTOFL
 70
     1
  9
$DIMTVP
 40
0.0
  9
$DIMTIX
 70
     0
  9
$DIMSOXD
 70
     0
  9
$DIMSAH
 70
     0
  9
$DIMBLK1
  1

  9
$DIMBLK2
  1

  9
$DIMSTYLE
  2

  9
$DIMCLRD
 70
     0
  9
$DIMCLRE
 70
     0
  9
$DIMCLRT
 70
     0
  9
$DIMTFAC
 40
1.0
  9
$DIMGAP
 40
0.625
  9
$DIMJUST
 70
     0
  9
$DIMSD1
 70
     0
  9
$DIMSD2
 70
     0
  9
$DIMTOLJ
 70
     0
  9
$DIMTZIN
 70
     8
  9
$DIMALTZ
 70
     0
  9
$DIMALTTZ
 70
     0
  9
$DIMFIT
 70
     0
  9
$DIMUPT
 70
     0
  9
$DIMUNIT
 70
     2
  9
$DIMDEC
 70
     2
  9
$DIMTDEC
 70
     2
  9
$DIMALTU
 70
     2
  9
$DIMALTTD
 70
     3
  9
$DIMTXSTY
  7
STANDARD
  9
$DIMAUNIT
 70
     0
  9
$LUNITS
 70
     2
  9
$LUPREC
 70
     4
  9
$SKETCHINC
 40
1.0
  9
$FILLETRAD
 40
2.5
  9
$AUNITS
 70
     0
  9
$AUPREC
 70
     0
  9
$MENU
  1
.
  9
$ELEVATION
 40
0.0
  9
$PELEVATION
 40
0.0
  9
$THICKNESS
 40
0.0
  9
$LIMCHECK
 70
     0
  9
$BLIPMODE
 70
     1
  9
$CHAMFERA
 40
2.5
  9
$CHAMFERB
 40
2.5
  9
$CHAMFERC
 40
0.0
  9
$CHAMFERD
 40
0.0
  9
$SKPOLY
 70
     0
  9
$TDCREATE
 40
0.000000000
  9
$TDUPDATE
 40
0.000000000
  9
$TDINDWG
 40
0.0000000000
  9
$TDUSRTIMER
 40
0.0000000000
  9
$USRTIMER
 70
     1
  9
$ANGBASE
 50
0.0
  9
$ANGDIR
 70
     0
  9
$PDMODE
 70
     0
  9
$PDSIZE
 40
0.0
  9
$PLINEWID
 40
0.0
  9
$COORDS
 70
     0
  9
$SPLFRAME
 70
     0
  9
$SPLINETYPE
 70
     6
  9
$SPLINESEGS
 70
     8
  9
$ATTDIA
 70
     0
  9
$ATTREQ
 70
     1
  9
$HANDLING
 70
     1
  9
$HANDSEED
  5
C9
  9
$SURFTAB1
 70
     6
  9
$SURFTAB2
 70
     6
  9
$SURFTYPE
 70
     6
  9
$SURFU
 70
     6
  9
$SURFV
 70
     6
  9
$UCSNAME
  2

  9
$UCSORG
 10
0.0
 20
0.0
 30
0.0
  9
$UCSXDIR
 10
1.0
 20
0.0
 30
0.0
  9
$UCSYDIR
 10
0.0
 20
1.0
 30
0.0
  9
$PUCSNAME
  2

  9
$PUCSORG
 10
0.0
 20
0.0
 30
0.0
  9
$PUCSXDIR
 10
1.0
 20
0.0
 30
0.0
  9
$PUCSYDIR
 10
0.0
 20
1.0
 30
0.0
  9
$USERI1
 70
     0
  9
$USERI2
 70
     0
  9
$USERI3
 70
     0
  9
$USERI4
 70
     0
  9
$USERI5
 70
     0
  9
$USERR1
 40
0.0
  9
$USERR2
 40
0.0
  9
$USERR3
 40
0.0
  9
$USERR4
 40
0.0
  9
$USERR5
 40
0.0
  9
$WORLDVIEW
 70
     1
  9
$SHADEDGE
 70
     3
  9
$SHADEDIF
 70
    70
  9
$TILEMODE
 70
     1
  9
$MAXACTVP
 70
    48
  9
$PINSBASE
 10
0.0
 20
0.0
 30
0.0
  9
$PLIMCHECK
 70
     0
  9
$PEXTMIN
 10
0.0
 20
0.0
 30
0.0
  9
$PEXTMAX
 10
26.784718
 20
96.933197
 30
2.0
  9
$PLIMMIN
 10
0.0
 20
0.0
  9
$PLIMMAX
 10
420.0
 20
297.0
  9
$UNITMODE
 70
     0
  9
$VISRETAIN
 70
     0
  9
$PLINEGEN
 70
     0
  9
$PSLTSCALE
 70
     1
  9
$TREEDEPTH
 70
  3020
  9
$PICKSTYLE
 70
     1
  9
$CMLSTYLE
  2
STANDARD
  9
$CMLJUST
 70
     0
  9
$CMLSCALE
 40
20.0
  9
$PROXYGRAPHICS
 70
     1
  9
$MEASUREMENT
 70
     1
  0
ENDSEC
  0
SECTION
  2
CLASSES
  0
CLASS
  1
LWPOLYLINE
  2
AcDbPolyline
  3
"AutoCAD"
 90
        0
280
     0
281
     1
  0
CLASS
  1
IMAGE
  2
AcDbRasterImage
  3
ISM
 90
      127
280
     0
281
     1
  0
CLASS
  1
OLE2FRAME
  2
AcDbOle2Frame
  3
""
 90
        0
280
     0
281
     1
  0
CLASS
  1
HATCH
  2
AcDbHatch
  3
"ACAD_SEDONA"
 90
        0
280
     0
281
     1
  0
CLASS
  1
DICTIONARYVAR
  2
AcDbDictionaryVar
  3
"AutoCAD"
 90
        0
280
     0
281
     0
  0
CLASS
  1
RASTERVARIABLES
  2
AcDbRasterVariables
  3
ISM
 90
        0
280
     0
281
     0
  0
CLASS
  1
IMAGEDEF
  2
AcDbRasterImageDef
  3
ISM
 90
        0
280
     0
281
     0
  0
CLASS
  1
IMAGEDEF_REACTOR
  2
AcDbRasterImageDefReactor
  3
ISM
 90
        1
280
     0
281
     0
  0
CLASS
  1
IDBUFFER
  2
AcDbIdBuffer
  3
"Acad"
 90
        0
280
     0
281
     0
  0
CLASS
  1
SPATIAL_FILTER
  2
AcDbSpatialFilter
  3
"Acad"
 90
        0
280
     0
281
     0
  0
CLASS
  1
XRECORD
  2
AcDbXrecord
  3
"<Built In>"
 90
        0
280
     0
281
     0
  0
CLASS
  1
SORTENTSTABLE
  2
AcDbSortentsTable
  3
"AutoCAD"
 90
        0
280
     0
281
     0
  0
CLASS
  1
LAYER_INDEX
  2
AcDbLayerIndex
  3
"Acad"
 90
        0
280
     0
281
     0
  0
CLASS
  1
SPATIAL_INDEX
  2
AcDbSpatialIndex
  3
"Acad"
 90
        0
280
     0
281
     0
  0
CLASS
  1
OBJECT_PTR
  2
CAseDLPNTableRecord
  3
"ASE-LPNTableRecord"
 90
        1
280
     0
281
     0
  0
CLASS
  1
LAYOUT
  2
AcDbLayout
  3
"AutoCAD 2000"
 90
        0
280
     0
281
     0
  0
CLASS
  1
PLOTSETTINGS
  2
AcDbPlotSettings
  3
"AutoCAD 2000"
 90
        0
280
     0
281
     0
  0
CLASS
  1
ACDBDICTIONARYWDFLT
  2
AcDbDictionaryWithDefault
  3
"AutoCAD 2000"
 90
        0
280
     0
281
     0
  0
CLASS
  1
ACDBPLACEHOLDER
  2
AcDbPlaceHolder
  3
"AutoCAD 2000"
 90
        0
280
     0
281
     0
  0
CLASS
  1
VBA_PROJECT
  2
AcDbVbaProject
  3
"acadvba"
 90
        0
280
     0
281
     0
  0
CLASS
  1
WIPEOUT
  2
AcDbWipeout
  3
WipeOut|AutoCAD Express Tool|expresstools@autodesk.com
 90
      127
280
     0
281
     1
  0
CLASS
  1
WIPEOUTVARIABLES
  2
AcDbWipeoutVariables
  3
WipeOut|AutoCAD Express Tool|expresstools@autodesk.com
 90
        0
280
     0
281
     0
  0
CLASS
  1
RTEXT
  2
RText
  3
RText|AutoCAD Express Tool|expresstools@autodesk.com
 90
        0
280
     0
281
     1
  0
CLASS
  1
ARCALIGNEDTEXT
  2
AcDbArcAlignedText
  3
ATEXT|AutoCAD Express Tool|expresstools@autodesk.com
 90
        0
280
     0
281
     1
  0
ENDSEC
  0
SECTION
  2
TABLES
  0
TABLE
  2
VPORT
  5
7
100
AcDbSymbolTable
 70
     1
  0
VPORT
  5
15
100
AcDbSymbolTableRecord
100
AcDbViewportTableRecord
  2
*ACTIVE
 70
     0
 10
0.0
 20
0.0
 11
1.0
 21
1.0
 12
6.591288
 22
4.579184
 13
0.0
 23
0.0
 14
1.0
 24
1.0
 15
0.0
 25
0.0
 16
0.0
 26
0.0
 36
1.0
 17
0.0
 27
0.0
 37
0.0
 40
9.158369
 41
0.688564
 42
50.0
 43
0.0
 44
0.0
 50
0.0
 51
0.0
 71
     0
 72
   100
 73
     1
 74
     1
 75
     0
 76
     0
 77
     0
 78
     0
  0
ENDTAB
  0
TABLE
  2
LTYPE
  5
4
100
AcDbSymbolTable
 70
    10
  0
LTYPE
  5
11
100
AcDbSymbolTableRecord
100
AcDbLinetypeTableRecord
  2
BYBLOCK
 70
    64
  3

 72
    65
 73
     0
 40
0.0
  0
LTYPE
  5
12
100
AcDbSymbolTableRecord
100
AcDbLinetypeTableRecord
  2
BYLAYER
 70
    64
  3

 72
    65
 73
     0
 40
0.0
  0
LTYPE
  5
13
100
AcDbSymbolTableRecord
100
AcDbLinetypeTableRecord
  2
CONTINUOUS
 70
    64
  3
Solid line
 72
    65
 73
     0
 40
0.0
  0
LTYPE
  5
1D
100
AcDbSymbolTableRecord
100
AcDbLinetypeTableRecord
  2
DASHED
 70
     0
  3
__ __ __ __ __ __ __ __ __ __ __ __ __ __ __ __
 72
    65
 73
     2
 40
15.0
 49
12.0
 74
     0
 49
-3.0
 74
     0
  0
LTYPE
  5
1E
100
AcDbSymbolTableRecord
100
AcDbLinetypeTableRecord
  2
DASHDOT
 70
     0
  3
 __ . __ . __ . __ . __ . __ . __ . 
 72
    65
 73
     4
 40
18.5
 49
12.0
 74
     0
 49
-3.0
 74
     0
 49
0.5
 74
     0
 49
-3.0
 74
     0
  0
LTYPE
  5
1F
100
AcDbSymbolTableRecord
100
AcDbLinetypeTableRecord
  2
DOT
 70
     0
  3
 . . . . . . . . . . . . . . . .
 72
    65
 73
     2
 40
3.5
 49
0.5
 74
     0
 49
-3.0
 74
     0
  0
LTYPE
  5
20
100
AcDbSymbolTableRecord
100
AcDbLinetypeTableRecord
  2
DASHSPACE
 70
     0
  3
__    __    __    __    __   
 72
    65
 73
     2
 40
30.0
 49
12.0
 74
     0
 49
-18.0
 74
     0
  0
LTYPE
  5
21
100
AcDbSymbolTableRecord
100
AcDbLinetypeTableRecord
  2
DASHDOT2
 70
     0
  3
__ . . __ . . __ . . __ 
 72
    65
 73
     6
 40
22.0
 49
12.0
 74
     0
 49
-3.0
 74
     0
 49
0.5
 74
     0
 49
-3.0
 74
     0
 49
0.5
 74
     0
 49
-3.0
 74
     0
  0
LTYPE
  5
22
100
AcDbSymbolTableRecord
100
AcDbLinetypeTableRecord
  2
PHANTOM
 70
     0
  3
____________    ____    ____   _
 72
    65
 73
     6
 40
20.0
 49
10.0
 74
     0
 49
-2.0
 74
     0
 49
2.0
 74
     0
 49
-2.0
 74
     0
 49
2.0
 74
     0
 49
-2.0
 74
     0
  0
LTYPE
  5
23
100
AcDbSymbolTableRecord
100
AcDbLinetypeTableRecord
  2
AXES
 70
     0
  3
________  __  ________  __  _____
 72
    65
 73
     4
 40
24.0
 49
15.0
 74
     0
 49
-3.0
 74
     0
 49
3.0
 74
     0
 49
-3.0
 74
     0
  0
ENDTAB
  0
TABLE
  2
LAYER
  5
2
100
AcDbSymbolTable
 70
     1
  0
LAYER
  5
14
100
AcDbSymbolTableRecord
100
AcDbLayerTableRecord
  2
0
 70
     0
 62
     7
  6
CONTINUOUS
  0
ENDTAB
  0
TABLE
  2
STYLE
  5
3
100
AcDbSymbolTable
 70
     1
  0
STYLE
  5
17
100
AcDbSymbolTableRecord
100
AcDbTextStyleTableRecord
  2
STANDARD
 70
     0
 40
0.0
 41
1.0
 50
0.0
 71
     0
 42
0.0
  3
txt
  4

  0
ENDTAB
  0
TABLE
  2
VIEW
  5
5
100
AcDbSymbolTable
 70
     0
  0
ENDTAB
  0
TABLE
  2
UCS
  5
6
100
AcDbSymbolTable
 70
     0
  0
ENDTAB
  0
TABLE
  2
APPID
  5
8
100
AcDbSymbolTable
 70
     1
  0
APPID
  5
16
100
AcDbSymbolTableRecord
100
AcDbRegAppTableRecord
  2
ACAD
 70
     0
  0
ENDTAB
  0
TABLE
  2
DIMSTYLE
  5
9
100
AcDbSymbolTable
 70
     1
  0
DIMSTYLE
105
18
100
AcDbSymbolTableRecord
100
AcDbDimStyleTableRecord
  2
STANDARD
 70
     0
  3

  4

  5

  6

  7

 40
1.0
 41
0.18
 42
0.0625
 43
0.38
 44
0.18
 45
0.0
 46
0.0
 47
0.0
 48
0.0
 71
     0
 72
     0
 73
     1
 74
     1
 75
     0
 76
     0
 77
     0
 78
     0
140
0.18
141
0.09
142
0.0
143
25.4
144
1.0
145
0.0
146
1.0
147
0.09
170
     0
171
     2
172
     0
173
     0
174
     0
175
     0
176
     0
177
     0
178
     0
270
     2
271
     4
272
     4
273
     2
274
     2
275
     0
280
     0
281
     0
282
     0
283
     1
284
     0
285
     0
286
     0
287
     3
288
     0
340
17
  0
ENDTAB
  0
TABLE
  2
BLOCK_RECORD
  5
1
100
AcDbSymbolTable
 70
     0
  0
BLOCK_RECORD
  5
A
100
AcDbSymbolTableRecord
100
AcDbBlockTableRecord
  2
*MODEL_SPACE
  0
BLOCK_RECORD
  5
B
100
AcDbSymbolTableRecord
100
AcDbBlockTableRecord
  2
*PAPER_SPACE
  0
ENDTAB
  0
ENDSEC
  0
SECTION
  2
BLOCKS
  0
BLOCK
  5
D
100
AcDbEntity
  8
0
100
AcDbBlockBegin
  2
*MODEL_SPACE
 70
     0
 10
0.0
 20
0.0
 30
0.0
  3
*MODEL_SPACE
  1

  0
ENDBLK
  5
E
100
AcDbEntity
  8
0
100
AcDbBlockEnd
  0
BLOCK
  5
F
100
AcDbEntity
 67
     1
  8
0
100
AcDbBlockBegin
  2
*PAPER_SPACE
 70
     0
 10
0.0
 20
0.0
 30
0.0
  3
*PAPER_SPACE
  1

  0
ENDBLK
  5
10
100
AcDbEntity
 67
     1
  8
0
100
AcDbBlockEnd
  0
ENDSEC
  0
SECTION
  2
ENTITIES
  0
VIEWPORT
  5
C8
100
AcDbEntity
 67
     1
  8
0
 62
     0
 48
0.0
100
AcDbViewport
 10
0.0
 20
0.0
 30
0.0
 40
1000.0
 41
1000.0
 68
     1
 69
     1
1001
ACAD
1000
MVIEW
1002
{
1070
    16
1010
0.0
1020
0.0
1030
0.0
1010
0.0
1020
0.0
1030
1.0
1040
0.0
1040
1000.0
1040
0.0
1040
0.0
1040
50.0
1040
0.0
1040
0.0
1070
     0
1070
   100
1070
     1
1070
     1
1070
     0
1070
     0
1070
     0
1070
     0
1040
0.0
1040
0.0
1040
0.0
1040
1.0
1040
1.0
1040
1.0
1040
1.0
1070
     0
1002
{
1002
}
1002
}
  0
LINE
  5
24
100
AcDbEntity
  8
0
 62
     7
 48
0.25
100
AcDbLine
 10
13.437268
 20
96.933197
 30
0.0
 11
13.437268
 21
86.933197
 31
0.0
210
0.0
220
0.0
230
1.0
  0
LINE
  5
25
100
AcDbEntity
  8
0
 62
     7
 48
0.15
100
AcDbLine
 10
13.437268
 20
86.933197
 30
0.0
 11
19.437267
 21
86.933197
 31
0.0
210
0.0
220
0.0
230
1.0
  0
LINE
  5
26
100
AcDbEntity
  8
0
 62
     7
 48
0.0875
100
AcDbLine
 10
19.437267
 20
86.933197
 30
0.0
 11
19.437267
 21
90.433197
 31
0.0
210
0.0
220
0.0
230
1.0
  0
LINE
  5
27
100
AcDbEntity
  8
0
 62
     7
 48
0.075
100
AcDbLine
 10
19.437267
 20
90.433197
 30
0.0
 11
16.437267
 21
90.433197
 31
0.0
210
0.0
220
0.0
230
1.0
  0
LINE
  5
28
100
AcDbEntity
  8
0
 62
     7
 48
0.075
100
AcDbLine
 10
16.437267
 20
90.433197
 30
0.0
 11
16.437267
 21
93.433197
 31
0.0
210
0.0
220
0.0
230
1.0
  0
LINE
  5
29
100
AcDbEntity
  8
0
 62
     7
 48
0.075
100
AcDbLine
 10
16.437267
 20
93.433197
 30
0.0
 11
19.437267
 21
93.433197
 31
0.0
210
0.0
220
0.0
230
1.0
  0
LINE
  5
2A
100
AcDbEntity
  8
0
 62
     7
 48
0.0875
100
AcDbLine
 10
19.437267
 20
93.433197
 30
0.0
 11
19.437267
 21
96.933197
 31
0.0
210
0.0
220
0.0
230
1.0
  0
LINE
  5
2B
100
AcDbEntity
  8
0
 62
     7
 48
0.15
100
AcDbLine
 10
19.437267
 20
96.933197
 30
0.0
 11
13.437268
 21
96.933197
 31
0.0
210
0.0
220
0.0
230
1.0
  0
LINE
  5
2C
100
AcDbEntity
  8
0
 62
     7
 48
0.25
100
AcDbLine
 10
3.464351
 20
96.729668
 30
0.0
 11
3.464351
 21
86.729668
 31
0.0
210
0.0
220
0.0
230
1.0
  0
LINE
  5
2D
100
AcDbEntity
  8
0
 62
     7
 48
0.15
100
AcDbLine
 10
3.464351
 20
86.729668
 30
0.0
 11
9.464352
 21
86.729668
 31
0.0
210
0.0
220
0.0
230
1.0
  0
LINE
  5
2E
100
AcDbEntity
  8
0
 62
     7
 48
0.0875
100
AcDbLine
 10
9.464352
 20
86.729668
 30
0.0
 11
9.464352
 21
90.229668
 31
0.0
210
0.0
220
0.0
230
1.0
  0
LINE
  5
2F
100
AcDbEntity
  8
0
 62
     7
 48
0.075
100
AcDbLine
 10
9.464352
 20
90.229668
 30
0.0
 11
6.464352
 21
90.229668
 31
0.0
210
0.0
220
0.0
230
1.0
  0
LINE
  5
30
100
AcDbEntity
  8
0
 62
     7
 48
0.075
100
AcDbLine
 10
6.464352
 20
90.229668
 30
0.0
 11
6.464352
 21
93.229668
 31
0.0
210
0.0
220
0.0
230
1.0
  0
LINE
  5
31
100
AcDbEntity
  8
0
 62
     7
 48
0.075
100
AcDbLine
 10
6.464352
 20
93.229668
 30
0.0
 11
9.464352
 21
93.229668
 31
0.0
210
0.0
220
0.0
230
1.0
  0
LINE
  5
32
100
AcDbEntity
  8
0
 62
     7
 48
0.0875
100
AcDbLine
 10
9.464352
 20
93.229668
 30
0.0
 11
9.464352
 21
96.729668
 31
0.0
210
0.0
220
0.0
230
1.0
  0
LINE
  5
33
100
AcDbEntity
  8
0
 62
     7
 48
0.15
100
AcDbLine
 10
9.464352
 20
96.729668
 30
0.0
 11
3.464351
 21
96.729668
 31
0.0
210
0.0
220
0.0
230
1.0
  0
LINE
  5
34
100
AcDbEntity
  8
0
 62
     7
 48
0.25
100
AcDbLine
 10
13.285236
 20
83.469193
 30
0.0
 11
13.285236
 21
73.469193
 31
0.0
210
0.0
220
0.0
230
1.0
  0
LINE
  5
35
100
AcDbEntity
  8
0
 62
     7
 48
0.15
100
AcDbLine
 10
13.285236
 20
73.469193
 30
0.0
 11
19.285236
 21
73.469193
 31
0.0
210
0.0
220
0.0
230
1.0
  0
LINE
  5
36
100
AcDbEntity
  8
0
 62
     7
 48
0.08875
100
AcDbLine
 10
19.285236
 20
73.469193
 30
0.0
 11
19.285236
 21
77.019196
 31
0.0
210
0.0
220
0.0
230
1.0
  0
LINE
  5
37
100
AcDbEntity
  8
0
 62
     7
 48
0.075
100
AcDbLine
 10
19.285236
 20
77.019196
 30
0.0
 11
16.285236
 21
77.019196
 31
0.0
210
0.0
220
0.0
230
1.0
  0
LINE
  5
38
100
AcDbEntity
  8
0
 62
     7
 48
0.0725
100
AcDbLine
 10
16.285236
 20
77.019196
 30
0.0
 11
16.285236
 21
79.919189
 31
0.0
210
0.0
220
0.0
230
1.0
  0
LINE
  5
39
100
AcDbEntity
  8
0
 62
     7
 48
0.075
100
AcDbLine
 10
16.285236
 20
79.919189
 30
0.0
 11
19.285236
 21
79.919189
 31
0.0
210
0.0
220
0.0
230
1.0
  0
LINE
  5
3A
100
AcDbEntity
  8
0
 62
     7
 48
0.08875
100
AcDbLine
 10
19.285236
 20
79.919189
 30
0.0
 11
19.285236
 21
83.469193
 31
0.0
210
0.0
220
0.0
230
1.0
  0
LINE
  5
3B
100
AcDbEntity
  8
0
 62
     7
 48
0.15
100
AcDbLine
 10
19.285236
 20
83.469193
 30
0.0
 11
13.285236
 21
83.469193
 31
0.0
210
0.0
220
0.0
230
1.0
  0
LINE
  5
3C
100
AcDbEntity
  8
0
 62
     7
 48
0.25
100
AcDbLine
 10
3.450446
 20
83.259941
 30
0.0
 11
3.450446
 21
73.259941
 31
0.0
210
0.0
220
0.0
230
1.0
  0
LINE
  5
3D
100
AcDbEntity
  8
0
 62
     7
 48
0.15
100
AcDbLine
 10
3.450446
 20
73.259941
 30
0.0
 11
9.450445
 21
73.259941
 31
0.0
210
0.0
220
0.0
230
1.0
  0
LINE
  5
3E
100
AcDbEntity
  8
0
 62
     7
 48
0.08875
100
AcDbLine
 10
9.450445
 20
73.259941
 30
0.0
 11
9.450445
 21
76.809944
 31
0.0
210
0.0
220
0.0
230
1.0
  0
LINE
  5
3F
100
AcDbEntity
  8
0
 62
     7
 48
0.075
100
AcDbLine
 10
9.450445
 20
76.809944
 30
0.0
 11
6.450446
 21
76.809944
 31
0.0
210
0.0
220
0.0
230
1.0
  0
LINE
  5
40
100
AcDbEntity
  8
0
 62
     7
 48
0.0725
100
AcDbLine
 10
6.450446
 20
76.809944
 30
0.0
 11
6.450446
 21
79.709938
 31
0.0
210
0.0
220
0.0
230
1.0
  0
LINE
  5
41
100
AcDbEntity
  8
0
 62
     7
 48
0.075
100
AcDbLine
 10
6.450446
 20
79.709938
 30
0.0
 11
9.450445
 21
79.709938
 31
0.0
210
0.0
220
0.0
230
1.0
  0
LINE
  5
42
100
AcDbEntity
  8
0
 62
     7
 48
0.08875
100
AcDbLine
 10
9.450445
 20
79.709938
 30
0.0
 11
9.450445
 21
83.259941
 31
0.0
210
0.0
220
0.0
230
1.0
  0
LINE
  5
43
100
AcDbEntity
  8
0
 62
     7
 48
0.15
100
AcDbLine
 10
9.450445
 20
83.259941
 30
0.0
 11
3.450446
 21
83.259941
 31
0.0
210
0.0
220
0.0
230
1.0
  0
LINE
  5
44
100
AcDbEntity
  8
0
 62
     7
 48
0.25
100
AcDbLine
 10
13.365211
 20
69.782677
 30
0.0
 11
13.365211
 21
59.782677
 31
0.0
210
0.0
220
0.0
230
1.0
  0
LINE
  5
45
100
AcDbEntity
  8
0
 62
     7
 48
0.15
100
AcDbLine
 10
13.365211
 20
59.782677
 30
0.0
 11
19.365211
 21
59.782677
 31
0.0
210
0.0
220
0.0
230
1.0
  0
LINE
  5
46
100
AcDbEntity
  8
0
 62
     7
 48
0.09
100
AcDbLine
 10
19.365211
 20
59.782677
 30
0.0
 11
19.365211
 21
63.382675
 31
0.0
210
0.0
220
0.0
230
1.0
  0
LINE
  5
47
100
AcDbEntity
  8
0
 62
     7
 48
0.075
100
AcDbLine
 10
19.365211
 20
63.382675
 30
0.0
 11
16.365211
 21
63.382675
 31
0.0
210
0.0
220
0.0
230
1.0
  0
LINE
  5
48
100
AcDbEntity
  8
0
 62
     7
 48
0.07
100
AcDbLine
 10
16.365211
 20
63.382675
 30
0.0
 11
16.365211
 21
66.182678
 31
0.0
210
0.0
220
0.0
230
1.0
  0
LINE
  5
49
100
AcDbEntity
  8
0
 62
     7
 48
0.075
100
AcDbLine
 10
16.365211
 20
66.182678
 30
0.0
 11
19.365211
 21
66.182678
 31
0.0
210
0.0
220
0.0
230
1.0
  0
LINE
  5
4A
100
AcDbEntity
  8
0
 62
     7
 48
0.09
100
AcDbLine
 10
19.365211
 20
66.182678
 30
0.0
 11
19.365211
 21
69.782677
 31
0.0
210
0.0
220
0.0
230
1.0
  0
LINE
  5
4B
100
AcDbEntity
  8
0
 62
     7
 48
0.15
100
AcDbLine
 10
19.365211
 20
69.782677
 30
0.0
 11
13.365211
 21
69.782677
 31
0.0
210
0.0
220
0.0
230
1.0
  0
LINE
  5
4C
100
AcDbEntity
  8
0
 62
     7
 48
0.25
100
AcDbLine
 10
3.65812
 20
69.673599
 30
0.0
 11
3.65812
 21
59.673603
 31
0.0
210
0.0
220
0.0
230
1.0
  0
LINE
  5
4D
100
AcDbEntity
  8
0
 62
     7
 48
0.15
100
AcDbLine
 10
3.65812
 20
59.673603
 30
0.0
 11
9.658119
 21
59.673603
 31
0.0
210
0.0
220
0.0
230
1.0
  0
LINE
  5
4E
100
AcDbEntity
  8
0
 62
     7
 48
0.09
100
AcDbLine
 10
9.658119
 20
59.673603
 30
0.0
 11
9.658119
 21
63.273602
 31
0.0
210
0.0
220
0.0
230
1.0
  0
LINE
  5
4F
100
AcDbEntity
  8
0
 62
     7
 48
0.075
100
AcDbLine
 10
9.658119
 20
63.273602
 30
0.0
 11
6.65812
 21
63.273602
 31
0.0
210
0.0
220
0.0
230
1.0
  0
LINE
  5
50
100
AcDbEntity
  8
0
 62
     7
 48
0.07
100
AcDbLine
 10
6.65812
 20
63.273602
 30
0.0
 11
6.65812
 21
66.073601
 31
0.0
210
0.0
220
0.0
230
1.0
  0
LINE
  5
51
100
AcDbEntity
  8
0
 62
     7
 48
0.075
100
AcDbLine
 10
6.65812
 20
66.073601
 30
0.0
 11
9.658119
 21
66.073601
 31
0.0
210
0.0
220
0.0
230
1.0
  0
LINE
  5
52
100
AcDbEntity
  8
0
 62
     7
 48
0.09
100
AcDbLine
 10
9.658119
 20
66.073601
 30
0.0
 11
9.658119
 21
69.673599
 31
0.0
210
0.0
220
0.0
230
1.0
  0
LINE
  5
53
100
AcDbEntity
  8
0
 62
     7
 48
0.15
100
AcDbLine
 10
9.658119
 20
69.673599
 30
0.0
 11
3.65812
 21
69.673599
 31
0.0
210
0.0
220
0.0
230
1.0
  0
LINE
  5
54
100
AcDbEntity
  8
0
 62
     7
 48
0.25
100
AcDbLine
 10
13.370166
 20
56.202866
 30
0.0
 11
13.370166
 21
46.202866
 31
0.0
210
0.0
220
0.0
230
1.0
  0
LINE
  5
55
100
AcDbEntity
  8
0
 62
     7
 48
0.15
100
AcDbLine
 10
13.370166
 20
46.202866
 30
0.0
 11
19.370167
 21
46.202866
 31
0.0
210
0.0
220
0.0
230
1.0
  0
LINE
  5
56
100
AcDbEntity
  8
0
 62
     7
 48
0.09125
100
AcDbLine
 10
19.370167
 20
46.202866
 30
0.0
 11
19.370167
 21
49.852867
 31
0.0
210
0.0
220
0.0
230
1.0
  0
LINE
  5
57
100
AcDbEntity
  8
0
 62
     7
 48
0.075
100
AcDbLine
 10
19.370167
 20
49.852867
 30
0.0
 11
16.370167
 21
49.852867
 31
0.0
210
0.0
220
0.0
230
1.0
  0
LINE
  5
58
100
AcDbEntity
  8
0
 62
     7
 48
0.0675
100
AcDbLine
 10
16.370167
 20
49.852867
 30
0.0
 11
16.370167
 21
52.552864
 31
0.0
210
0.0
220
0.0
230
1.0
  0
LINE
  5
59
100
AcDbEntity
  8
0
 62
     7
 48
0.075
100
AcDbLine
 10
16.370167
 20
52.552864
 30
0.0
 11
19.370167
 21
52.552864
 31
0.0
210
0.0
220
0.0
230
1.0
  0
LINE
  5
5A
100
AcDbEntity
  8
0
 62
     7
 48
0.09125
100
AcDbLine
 10
19.370167
 20
52.552864
 30
0.0
 11
19.370167
 21
56.202866
 31
0.0
210
0.0
220
0.0
230
1.0
  0
LINE
  5
5B
100
AcDbEntity
  8
0
 62
     7
 48
0.15
100
AcDbLine
 10
19.370167
 20
56.202866
 30
0.0
 11
13.370166
 21
56.202866
 31
0.0
210
0.0
220
0.0
230
1.0
  0
LINE
  5
5C
100
AcDbEntity
  8
0
 62
     7
 48
0.25
100
AcDbLine
 10
3.443656
 20
56.202866
 30
0.0
 11
3.443656
 21
46.202866
 31
0.0
210
0.0
220
0.0
230
1.0
  0
LINE
  5
5D
100
AcDbEntity
  8
0
 62
     7
 48
0.15
100
AcDbLine
 10
3.443656
 20
46.202866
 30
0.0
 11
9.443657
 21
46.202866
 31
0.0
210
0.0
220
0.0
230
1.0
  0
LINE
  5
5E
100
AcDbEntity
  8
0
 62
     7
 48
0.09125
100
AcDbLine
 10
9.443657
 20
46.202866
 30
0.0
 11
9.443657
 21
49.852867
 31
0.0
210
0.0
220
0.0
230
1.0
  0
LINE
  5
5F
100
AcDbEntity
  8
0
 62
     7
 48
0.075
100
AcDbLine
 10
9.443657
 20
49.852867
 30
0.0
 11
6.443656
 21
49.852867
 31
0.0
210
0.0
220
0.0
230
1.0
  0
LINE
  5
60
100
AcDbEntity
  8
0
 62
     7
 48
0.0675
100
AcDbLine
 10
6.443656
 20
49.852867
 30
0.0
 11
6.443656
 21
52.552864
 31
0.0
210
0.0
220
0.0
230
1.0
  0
LINE
  5
61
100
AcDbEntity
  8
0
 62
     7
 48
0.075
100
AcDbLine
 10
6.443656
 20
52.552864
 30
0.0
 11
9.443657
 21
52.552864
 31
0.0
210
0.0
220
0.0
230
1.0
  0
LINE
  5
62
100
AcDbEntity
  8
0
 62
     7
 48
0.09125
100
AcDbLine
 10
9.443657
 20
52.552864
 30
0.0
 11
9.443657
 21
56.202866
 31
0.0
210
0.0
220
0.0
230
1.0
  0
LINE
  5
63
100
AcDbEntity
  8
0
 62
     7
 48
0.15
100
AcDbLine
 10
9.443657
 20
56.202866
 30
0.0
 11
3.443656
 21
56.202866
 31
0.0
210
0.0
220
0.0
230
1.0
  0
CIRCLE
  5
64
100
AcDbEntity
  8
0
 62
     7
100
AcDbCircle
 10
8.239248
 20
36.767155
 30
0.0
 40
1.425
210
0.0
220
0.0
230
1.0
  0
LINE
  5
65
100
AcDbEntity
  8
0
 62
     7
 48
0.07375
100
AcDbLine
 10
6.689248
 20
43.767155
 30
0.0
 11
3.739248
 21
43.767155
 31
0.0
210
0.0
220
0.0
230
1.0
  0
LINE
  5
66
100
AcDbEntity
  8
0
 62
     7
 48
0.060436
100
AcDbLine
 10
3.739248
 20
43.767155
 30
0.0
 11
3.739248
 21
41.349731
 31
0.0
210
0.0
220
0.0
230
1.0
  0
ARC
  5
67
100
AcDbEntity
  8
0
 62
     7
100
AcDbCircle
 10
-1.760752
 20
41.349731
 30
0.0
 40
5.5
210
0.0
220
0.0
230
1.0
100
AcDbArc
 50
335.380038
 51
0.000001
  0
ARC
  5
68
100
AcDbEntity
  8
0
 62
     7
100
AcDbCircle
 10
8.239248
 20
36.767155
 30
0.0
 40
5.5
210
0.0
220
0.0
230
1.0
100
AcDbArc
 50
155.380025
 51
204.619973
  0
ARC
  5
69
100
AcDbEntity
  8
0
 62
     7
100
AcDbCircle
 10
-1.760752
 20
32.184578
 30
0.0
 40
5.5
210
0.0
220
0.0
230
1.0
100
AcDbArc
 50
0.000001
 51
24.619964
  0
LINE
  5
6A
100
AcDbEntity
  8
0
 62
     7
 48
0.060436
100
AcDbLine
 10
3.739248
 20
29.767155
 30
0.0
 11
3.739248
 21
32.184578
 31
0.0
210
0.0
220
0.0
230
1.0
  0
LINE
  5
6B
100
AcDbEntity
  8
0
 62
     7
 48
0.07375
100
AcDbLine
 10
6.689249
 20
29.767155
 30
0.0
 11
3.739248
 21
29.767155
 31
0.0
210
0.0
220
0.0
230
1.0
  0
LINE
  5
6C
100
AcDbEntity
  8
0
 62
     7
 48
0.075
100
AcDbLine
 10
6.689249
 20
29.767155
 30
0.0
 11
6.689249
 21
32.767155
 31
0.0
210
0.0
220
0.0
230
1.0
  0
ARC
  5
6D
100
AcDbEntity
  8
0
 62
     7
100
AcDbCircle
 10
6.714248
 20
32.767155
 30
0.0
 40
0.025
210
0.0
220
0.0
230
1.0
100
AcDbArc
 50
90.0
 51
180.000003
  0
LINE
  5
6E
100
AcDbEntity
  8
0
 62
     7
 48
0.07625
100
AcDbLine
 10
6.714248
 20
32.792156
 30
0.0
 11
9.764248
 21
32.792156
 31
0.0
210
0.0
220
0.0
230
1.0
  0
ARC
  5
6F
100
AcDbEntity
  8
0
 62
     7
100
AcDbCircle
 10
9.764248
 20
32.767155
 30
0.0
 40
0.025
210
0.0
220
0.0
230
1.0
100
AcDbArc
 50
0.000001
 51
90.0
  0
LINE
  5
70
100
AcDbEntity
  8
0
 62
     7
 48
0.075
100
AcDbLine
 10
9.789248
 20
32.767155
 30
0.0
 11
9.789248
 21
29.767155
 31
0.0
210
0.0
220
0.0
230
1.0
  0
LINE
  5
71
100
AcDbEntity
  8
0
 62
     7
 48
0.07375
100
AcDbLine
 10
9.789248
 20
29.767155
 30
0.0
 11
12.739248
 21
29.767155
 31
0.0
210
0.0
220
0.0
230
1.0
  0
LINE
  5
72
100
AcDbEntity
  8
0
 62
     7
 48
0.060436
100
AcDbLine
 10
12.739248
 20
29.767155
 30
0.0
 11
12.739248
 21
32.184578
 31
0.0
210
0.0
220
0.0
230
1.0
  0
ARC
  5
73
100
AcDbEntity
  8
0
 62
     7
100
AcDbCircle
 10
18.239248
 20
32.184578
 30
0.0
 40
5.5
210
0.0
220
0.0
230
1.0
100
AcDbArc
 50
155.380025
 51
180.000003
  0
ARC
  5
74
100
AcDbEntity
  8
0
 62
     7
100
AcDbCircle
 10
8.239248
 20
36.767155
 30
0.0
 40
5.5
210
0.0
220
0.0
230
1.0
100
AcDbArc
 50
335.380038
 51
24.619964
  0
ARC
  5
75
100
AcDbEntity
  8
0
 62
     7
100
AcDbCircle
 10
18.239248
 20
41.349731
 30
0.0
 40
5.5
210
0.0
220
0.0
230
1.0
100
AcDbArc
 50
180.000003
 51
204.619973
  0
LINE
  5
76
100
AcDbEntity
  8
0
 62
     7
 48
0.060436
100
AcDbLine
 10
12.739248
 20
43.767155
 30
0.0
 11
12.739248
 21
41.349731
 31
0.0
210
0.0
220
0.0
230
1.0
  0
LINE
  5
77
100
AcDbEntity
  8
0
 62
     7
 48
0.07375
100
AcDbLine
 10
9.789248
 20
43.767155
 30
0.0
 11
12.739248
 21
43.767155
 31
0.0
210
0.0
220
0.0
230
1.0
  0
LINE
  5
78
100
AcDbEntity
  8
0
 62
     7
 48
0.075
100
AcDbLine
 10
9.789248
 20
40.767155
 30
0.0
 11
9.789248
 21
43.767155
 31
0.0
210
0.0
220
0.0
230
1.0
  0
ARC
  5
79
100
AcDbEntity
  8
0
 62
     7
100
AcDbCircle
 10
9.764248
 20
40.767155
 30
0.0
 40
0.025
210
0.0
220
0.0
230
1.0
100
AcDbArc
 50
270.000005
 51
0.000001
  0
LINE
  5
7A
100
AcDbEntity
  8
0
 62
     7
 48
0.07625
100
AcDbLine
 10
6.714248
 20
40.742153
 30
0.0
 11
9.764248
 21
40.742153
 31
0.0
210
0.0
220
0.0
230
1.0
  0
ARC
  5
7B
100
AcDbEntity
  8
0
 62
     7
100
AcDbCircle
 10
6.714248
 20
40.767155
 30
0.0
 40
0.025
210
0.0
220
0.0
230
1.0
100
AcDbArc
 50
180.000003
 51
270.000005
  0
LINE
  5
7C
100
AcDbEntity
  8
0
 62
     7
 48
0.075
100
AcDbLine
 10
6.689248
 20
43.767155
 30
0.0
 11
6.689248
 21
40.767155
 31
0.0
210
0.0
220
0.0
230
1.0
  0
CIRCLE
  5
7D
100
AcDbEntity
  8
0
 62
     7
100
AcDbCircle
 10
21.284718
 20
19.85977
 30
0.0
 40
1.35
210
0.0
220
0.0
230
1.0
  0
LINE
  5
7E
100
AcDbEntity
  8
0
 62
     7
 48
0.07375
100
AcDbLine
 10
19.734718
 20
26.85977
 30
0.0
 11
16.784718
 21
26.85977
 31
0.0
210
0.0
220
0.0
230
1.0
  0
LINE
  5
7F
100
AcDbEntity
  8
0
 62
     7
 48
0.060436
100
AcDbLine
 10
16.784718
 20
26.85977
 30
0.0
 11
16.784718
 21
24.442345
 31
0.0
210
0.0
220
0.0
230
1.0
  0
ARC
  5
80
100
AcDbEntity
  8
0
 62
     7
100
AcDbCircle
 10
11.284718
 20
24.442345
 30
0.0
 40
5.5
210
0.0
220
0.0
230
1.0
100
AcDbArc
 50
335.380038
 51
0.000001
  0
ARC
  5
81
100
AcDbEntity
  8
0
 62
     7
100
AcDbCircle
 10
21.284718
 20
19.85977
 30
0.0
 40
5.5
210
0.0
220
0.0
230
1.0
100
AcDbArc
 50
155.380025
 51
204.619973
  0
ARC
  5
82
100
AcDbEntity
  8
0
 62
     7
100
AcDbCircle
 10
11.284718
 20
15.277194
 30
0.0
 40
5.5
210
0.0
220
0.0
230
1.0
100
AcDbArc
 50
0.000001
 51
24.619964
  0
LINE
  5
83
100
AcDbEntity
  8
0
 62
     7
 48
0.060436
100
AcDbLine
 10
16.784718
 20
12.85977
 30
0.0
 11
16.784718
 21
15.277194
 31
0.0
210
0.0
220
0.0
230
1.0
  0
LINE
  5
84
100
AcDbEntity
  8
0
 62
     7
 48
0.07375
100
AcDbLine
 10
19.734718
 20
12.85977
 30
0.0
 11
16.784718
 21
12.85977
 31
0.0
210
0.0
220
0.0
230
1.0
  0
LINE
  5
85
100
AcDbEntity
  8
0
 62
     7
 48
0.075
100
AcDbLine
 10
19.734718
 20
12.85977
 30
0.0
 11
19.734718
 21
15.85977
 31
0.0
210
0.0
220
0.0
230
1.0
  0
ARC
  5
86
100
AcDbEntity
  8
0
 62
     7
100
AcDbCircle
 10
19.759718
 20
15.85977
 30
0.0
 40
0.025
210
0.0
220
0.0
230
1.0
100
AcDbArc
 50
90.0
 51
180.000003
  0
LINE
  5
87
100
AcDbEntity
  8
0
 62
     7
 48
0.07625
100
AcDbLine
 10
19.759718
 20
15.884769
 30
0.0
 11
22.809717
 21
15.88477
 31
0.0
210
0.0
220
0.0
230
1.0
  0
ARC
  5
88
100
AcDbEntity
  8
0
 62
     7
100
AcDbCircle
 10
22.809717
 20
15.85977
 30
0.0
 40
0.025
210
0.0
220
0.0
230
1.0
100
AcDbArc
 50
0.000001
 51
90.0
  0
LINE
  5
89
100
AcDbEntity
  8
0
 62
     7
 48
0.075
100
AcDbLine
 10
22.834717
 20
15.85977
 30
0.0
 11
22.834717
 21
12.85977
 31
0.0
210
0.0
220
0.0
230
1.0
  0
LINE
  5
8A
100
AcDbEntity
  8
0
 62
     7
 48
0.07375
100
AcDbLine
 10
22.834717
 20
12.85977
 30
0.0
 11
25.784718
 21
12.85977
 31
0.0
210
0.0
220
0.0
230
1.0
  0
LINE
  5
8B
100
AcDbEntity
  8
0
 62
     7
 48
0.060436
100
AcDbLine
 10
25.784718
 20
12.85977
 30
0.0
 11
25.784718
 21
15.277194
 31
0.0
210
0.0
220
0.0
230
1.0
  0
ARC
  5
8C
100
AcDbEntity
  8
0
 62
     7
100
AcDbCircle
 10
31.284718
 20
15.277194
 30
0.0
 40
5.5
210
0.0
220
0.0
230
1.0
100
AcDbArc
 50
155.380025
 51
180.000003
  0
ARC
  5
8D
100
AcDbEntity
  8
0
 62
     7
100
AcDbCircle
 10
21.284718
 20
19.85977
 30
0.0
 40
5.5
210
0.0
220
0.0
230
1.0
100
AcDbArc
 50
335.380038
 51
24.619964
  0
ARC
  5
8E
100
AcDbEntity
  8
0
 62
     7
100
AcDbCircle
 10
31.284718
 20
24.442347
 30
0.0
 40
5.5
210
0.0
220
0.0
230
1.0
100
AcDbArc
 50
180.000003
 51
204.619973
  0
LINE
  5
8F
100
AcDbEntity
  8
0
 62
     7
 48
0.060436
100
AcDbLine
 10
25.784718
 20
26.85977
 30
0.0
 11
25.784718
 21
24.442347
 31
0.0
210
0.0
220
0.0
230
1.0
  0
LINE
  5
90
100
AcDbEntity
  8
0
 62
     7
 48
0.07375
100
AcDbLine
 10
22.834717
 20
26.85977
 30
0.0
 11
25.784718
 21
26.85977
 31
0.0
210
0.0
220
0.0
230
1.0
  0
LINE
  5
91
100
AcDbEntity
  8
0
 62
     7
 48
0.075
100
AcDbLine
 10
22.834717
 20
23.85977
 30
0.0
 11
22.834717
 21
26.85977
 31
0.0
210
0.0
220
0.0
230
1.0
  0
ARC
  5
92
100
AcDbEntity
  8
0
 62
     7
100
AcDbCircle
 10
22.809717
 20
23.85977
 30
0.0
 40
0.025
210
0.0
220
0.0
230
1.0
100
AcDbArc
 50
270.000005
 51
0.000001
  0
LINE
  5
93
100
AcDbEntity
  8
0
 62
     7
 48
0.07625
100
AcDbLine
 10
19.759718
 20
23.83477
 30
0.0
 11
22.809717
 21
23.83477
 31
0.0
210
0.0
220
0.0
230
1.0
  0
ARC
  5
94
100
AcDbEntity
  8
0
 62
     7
100
AcDbCircle
 10
19.759718
 20
23.85977
 30
0.0
 40
0.025
210
0.0
220
0.0
230
1.0
100
AcDbArc
 50
180.000003
 51
270.000005
  0
LINE
  5
95
100
AcDbEntity
  8
0
 62
     7
 48
0.075
100
AcDbLine
 10
19.734718
 20
26.85977
 30
0.0
 11
19.734718
 21
23.85977
 31
0.0
210
0.0
220
0.0
230
1.0
  0
CIRCLE
  5
96
100
AcDbEntity
  8
0
 62
     7
100
AcDbCircle
 10
8.098293
 20
19.570198
 30
0.0
 40
1.375
210
0.0
220
0.0
230
1.0
  0
LINE
  5
97
100
AcDbEntity
  8
0
 62
     7
 48
0.07375
100
AcDbLine
 10
6.548293
 20
26.570198
 30
0.0
 11
3.598293
 21
26.570198
 31
0.0
210
0.0
220
0.0
230
1.0
  0
LINE
  5
98
100
AcDbEntity
  8
0
 62
     7
 48
0.060436
100
AcDbLine
 10
3.598293
 20
26.570198
 30
0.0
 11
3.598293
 21
24.152773
 31
0.0
210
0.0
220
0.0
230
1.0
  0
ARC
  5
99
100
AcDbEntity
  8
0
 62
     7
100
AcDbCircle
 10
-1.901707
 20
24.152773
 30
0.0
 40
5.5
210
0.0
220
0.0
230
1.0
100
AcDbArc
 50
335.380038
 51
0.000001
  0
ARC
  5
9A
100
AcDbEntity
  8
0
 62
     7
100
AcDbCircle
 10
8.098293
 20
19.570198
 30
0.0
 40
5.5
210
0.0
220
0.0
230
1.0
100
AcDbArc
 50
155.380025
 51
204.619973
  0
ARC
  5
9B
100
AcDbEntity
  8
0
 62
     7
100
AcDbCircle
 10
-1.901707
 20
14.987622
 30
0.0
 40
5.5
210
0.0
220
0.0
230
1.0
100
AcDbArc
 50
0.000001
 51
24.619964
  0
LINE
  5
9C
100
AcDbEntity
  8
0
 62
     7
 48
0.060436
100
AcDbLine
 10
3.598293
 20
12.570198
 30
0.0
 11
3.598293
 21
14.987622
 31
0.0
210
0.0
220
0.0
230
1.0
  0
LINE
  5
9D
100
AcDbEntity
  8
0
 62
     7
 48
0.07375
100
AcDbLine
 10
6.548294
 20
12.570198
 30
0.0
 11
3.598293
 21
12.570198
 31
0.0
210
0.0
220
0.0
230
1.0
  0
LINE
  5
9E
100
AcDbEntity
  8
0
 62
     7
 48
0.075
100
AcDbLine
 10
6.548294
 20
12.570198
 30
0.0
 11
6.548294
 21
15.570198
 31
0.0
210
0.0
220
0.0
230
1.0
  0
ARC
  5
9F
100
AcDbEntity
  8
0
 62
     7
100
AcDbCircle
 10
6.573293
 20
15.570198
 30
0.0
 40
0.025
210
0.0
220
0.0
230
1.0
100
AcDbArc
 50
90.0
 51
180.000003
  0
LINE
  5
A0
100
AcDbEntity
  8
0
 62
     7
 48
0.07625
100
AcDbLine
 10
6.573293
 20
15.595198
 30
0.0
 11
9.623293
 21
15.595199
 31
0.0
210
0.0
220
0.0
230
1.0
  0
ARC
  5
A1
100
AcDbEntity
  8
0
 62
     7
100
AcDbCircle
 10
9.623293
 20
15.570198
 30
0.0
 40
0.025
210
0.0
220
0.0
230
1.0
100
AcDbArc
 50
0.000001
 51
90.0
  0
LINE
  5
A2
100
AcDbEntity
  8
0
 62
     7
 48
0.075
100
AcDbLine
 10
9.648293
 20
15.570198
 30
0.0
 11
9.648293
 21
12.570198
 31
0.0
210
0.0
220
0.0
230
1.0
  0
LINE
  5
A3
100
AcDbEntity
  8
0
 62
     7
 48
0.07375
100
AcDbLine
 10
9.648293
 20
12.570198
 30
0.0
 11
12.598293
 21
12.570198
 31
0.0
210
0.0
220
0.0
230
1.0
  0
LINE
  5
A4
100
AcDbEntity
  8
0
 62
     7
 48
0.060436
100
AcDbLine
 10
12.598293
 20
12.570198
 30
0.0
 11
12.598293
 21
14.987622
 31
0.0
210
0.0
220
0.0
230
1.0
  0
ARC
  5
A5
100
AcDbEntity
  8
0
 62
     7
100
AcDbCircle
 10
18.098293
 20
14.987622
 30
0.0
 40
5.5
210
0.0
220
0.0
230
1.0
100
AcDbArc
 50
155.380025
 51
180.000003
  0
ARC
  5
A6
100
AcDbEntity
  8
0
 62
     7
100
AcDbCircle
 10
8.098293
 20
19.570198
 30
0.0
 40
5.5
210
0.0
220
0.0
230
1.0
100
AcDbArc
 50
335.380038
 51
24.619964
  0
ARC
  5
A7
100
AcDbEntity
  8
0
 62
     7
100
AcDbCircle
 10
18.098293
 20
24.152775
 30
0.0
 40
5.5
210
0.0
220
0.0
230
1.0
100
AcDbArc
 50
180.000003
 51
204.619973
  0
LINE
  5
A8
100
AcDbEntity
  8
0
 62
     7
 48
0.060436
100
AcDbLine
 10
12.598293
 20
26.570198
 30
0.0
 11
12.598293
 21
24.152775
 31
0.0
210
0.0
220
0.0
230
1.0
  0
LINE
  5
A9
100
AcDbEntity
  8
0
 62
     7
 48
0.07375
100
AcDbLine
 10
9.648293
 20
26.570198
 30
0.0
 11
12.598293
 21
26.570198
 31
0.0
210
0.0
220
0.0
230
1.0
  0
LINE
  5
AA
100
AcDbEntity
  8
0
 62
     7
 48
0.075
100
AcDbLine
 10
9.648293
 20
23.570198
 30
0.0
 11
9.648293
 21
26.570198
 31
0.0
210
0.0
220
0.0
230
1.0
  0
ARC
  5
AB
100
AcDbEntity
  8
0
 62
     7
100
AcDbCircle
 10
9.623293
 20
23.570198
 30
0.0
 40
0.025
210
0.0
220
0.0
230
1.0
100
AcDbArc
 50
270.000005
 51
0.000001
  0
LINE
  5
AC
100
AcDbEntity
  8
0
 62
     7
 48
0.07625
100
AcDbLine
 10
6.573293
 20
23.545198
 30
0.0
 11
9.623293
 21
23.545198
 31
0.0
210
0.0
220
0.0
230
1.0
  0
ARC
  5
AD
100
AcDbEntity
  8
0
 62
     7
100
AcDbCircle
 10
6.573293
 20
23.570198
 30
0.0
 40
0.025
210
0.0
220
0.0
230
1.0
100
AcDbArc
 50
180.000003
 51
270.000005
  0
LINE
  5
AE
100
AcDbEntity
  8
0
 62
     7
 48
0.075
100
AcDbLine
 10
6.548293
 20
26.570198
 30
0.0
 11
6.548293
 21
23.570198
 31
0.0
210
0.0
220
0.0
230
1.0
  0
CIRCLE
  5
AF
100
AcDbEntity
  8
0
 62
     7
100
AcDbCircle
 10
21.284718
 20
36.774811
 30
0.0
 40
1.4
210
0.0
220
0.0
230
1.0
  0
LINE
  5
B0
100
AcDbEntity
  8
0
 62
     7
 48
0.07375
100
AcDbLine
 10
19.734718
 20
43.774811
 30
0.0
 11
16.784718
 21
43.774811
 31
0.0
210
0.0
220
0.0
230
1.0
  0
LINE
  5
B1
100
AcDbEntity
  8
0
 62
     7
 48
0.060436
100
AcDbLine
 10
16.784718
 20
43.774811
 30
0.0
 11
16.784718
 21
41.357388
 31
0.0
210
0.0
220
0.0
230
1.0
  0
ARC
  5
B2
100
AcDbEntity
  8
0
 62
     7
100
AcDbCircle
 10
11.284718
 20
41.357388
 30
0.0
 40
5.5
210
0.0
220
0.0
230
1.0
100
AcDbArc
 50
335.380038
 51
0.000001
  0
ARC
  5
B3
100
AcDbEntity
  8
0
 62
     7
100
AcDbCircle
 10
21.284718
 20
36.774811
 30
0.0
 40
5.5
210
0.0
220
0.0
230
1.0
100
AcDbArc
 50
155.380025
 51
204.619973
  0
ARC
  5
B4
100
AcDbEntity
  8
0
 62
     7
100
AcDbCircle
 10
11.284718
 20
32.192234
 30
0.0
 40
5.5
210
0.0
220
0.0
230
1.0
100
AcDbArc
 50
0.000001
 51
24.619964
  0
LINE
  5
B5
100
AcDbEntity
  8
0
 62
     7
 48
0.060436
100
AcDbLine
 10
16.784718
 20
29.774811
 30
0.0
 11
16.784718
 21
32.192234
 31
0.0
210
0.0
220
0.0
230
1.0
  0
LINE
  5
B6
100
AcDbEntity
  8
0
 62
     7
 48
0.07375
100
AcDbLine
 10
19.734718
 20
29.774811
 30
0.0
 11
16.784718
 21
29.774811
 31
0.0
210
0.0
220
0.0
230
1.0
  0
LINE
  5
B7
100
AcDbEntity
  8
0
 62
     7
 48
0.075
100
AcDbLine
 10
19.734718
 20
29.774811
 30
0.0
 11
19.734718
 21
32.774811
 31
0.0
210
0.0
220
0.0
230
1.0
  0
ARC
  5
B8
100
AcDbEntity
  8
0
 62
     7
100
AcDbCircle
 10
19.759718
 20
32.774811
 30
0.0
 40
0.025
210
0.0
220
0.0
230
1.0
100
AcDbArc
 50
90.0
 51
180.000003
  0
LINE
  5
B9
100
AcDbEntity
  8
0
 62
     7
 48
0.07625
100
AcDbLine
 10
19.759718
 20
32.799812
 30
0.0
 11
22.809717
 21
32.799812
 31
0.0
210
0.0
220
0.0
230
1.0
  0
ARC
  5
BA
100
AcDbEntity
  8
0
 62
     7
100
AcDbCircle
 10
22.809717
 20
32.774811
 30
0.0
 40
0.025
210
0.0
220
0.0
230
1.0
100
AcDbArc
 50
0.000001
 51
90.0
  0
LINE
  5
BB
100
AcDbEntity
  8
0
 62
     7
 48
0.075
100
AcDbLine
 10
22.834717
 20
32.774811
 30
0.0
 11
22.834717
 21
29.774811
 31
0.0
210
0.0
220
0.0
230
1.0
  0
LINE
  5
BC
100
AcDbEntity
  8
0
 62
     7
 48
0.07375
100
AcDbLine
 10
22.834717
 20
29.774811
 30
0.0
 11
25.784718
 21
29.774811
 31
0.0
210
0.0
220
0.0
230
1.0
  0
LINE
  5
BD
100
AcDbEntity
  8
0
 62
     7
 48
0.060436
100
AcDbLine
 10
25.784718
 20
29.774811
 30
0.0
 11
25.784718
 21
32.192234
 31
0.0
210
0.0
220
0.0
230
1.0
  0
ARC
  5
BE
100
AcDbEntity
  8
0
 62
     7
100
AcDbCircle
 10
31.284718
 20
32.192234
 30
0.0
 40
5.5
210
0.0
220
0.0
230
1.0
100
AcDbArc
 50
155.380025
 51
180.000003
  0
ARC
  5
BF
100
AcDbEntity
  8
0
 62
     7
100
AcDbCircle
 10
21.284718
 20
36.774811
 30
0.0
 40
5.5
210
0.0
220
0.0
230
1.0
100
AcDbArc
 50
335.380038
 51
24.619964
  0
ARC
  5
C0
100
AcDbEntity
  8
0
 62
     7
100
AcDbCircle
 10
31.284718
 20
41.357388
 30
0.0
 40
5.5
210
0.0
220
0.0
230
1.0
100
AcDbArc
 50
180.000003
 51
204.619973
  0
LINE
  5
C1
100
AcDbEntity
  8
0
 62
     7
 48
0.060436
100
AcDbLine
 10
25.784718
 20
43.774811
 30
0.0
 11
25.784718
 21
41.357388
 31
0.0
210
0.0
220
0.0
230
1.0
  0
LINE
  5
C2
100
AcDbEntity
  8
0
 62
     7
 48
0.07375
100
AcDbLine
 10
22.834717
 20
43.774811
 30
0.0
 11
25.784718
 21
43.774811
 31
0.0
210
0.0
220
0.0
230
1.0
  0
LINE
  5
C3
100
AcDbEntity
  8
0
 62
     7
 48
0.075
100
AcDbLine
 10
22.834717
 20
40.774811
 30
0.0
 11
22.834717
 21
43.774811
 31
0.0
210
0.0
220
0.0
230
1.0
  0
ARC
  5
C4
100
AcDbEntity
  8
0
 62
     7
100
AcDbCircle
 10
22.809717
 20
40.774811
 30
0.0
 40
0.025
210
0.0
220
0.0
230
1.0
100
AcDbArc
 50
270.000005
 51
0.000001
  0
LINE
  5
C5
100
AcDbEntity
  8
0
 62
     7
 48
0.07625
100
AcDbLine
 10
19.759718
 20
40.749809
 30
0.0
 11
22.809717
 21
40.749809
 31
0.0
210
0.0
220
0.0
230
1.0
  0
ARC
  5
C6
100
AcDbEntity
  8
0
 62
     7
100
AcDbCircle
 10
19.759718
 20
40.774811
 30
0.0
 40
0.025
210
0.0
220
0.0
230
1.0
100
AcDbArc
 50
180.000003
 51
270.000005
  0
LINE
  5
C7
100
AcDbEntity
  8
0
 62
     7
 48
0.075
100
AcDbLine
 10
19.734718
 20
43.774811
 30
0.0
 11
19.734718
 21
40.774811
 31
0.0
210
0.0
220
0.0
230
1.0
  0
ENDSEC
  0
SECTION
  2
OBJECTS
  0
DICTIONARY
  5
19
100
AcDbDictionary
  3
ACAD_GROUP
350
1A
  3
ACAD_MLINESTYLE
350
1B
  0
DICTIONARY
  5
1A
102
{ACAD_REACTORS
330
19
102
}
100
AcDbDictionary
  0
DICTIONARY
  5
1B
102
{ACAD_REACTORS
330
19
102
}
100
AcDbDictionary
  3
STANDARD
350
1C
  0
MLINESTYLE
  5
1C
102
{ACAD_REACTORS
330
1B
102
}
100
AcDbMlineStyle
  2
STANDARD
 70
     0
  3

 62
     0
 51
90.0
 52
90.0
 71
     2
 49
0.5
 62
   256
  6
BYLAYER
 49
-0.5
 62
   256
  6
BYLAYER
  0
ENDSEC
  0
EOF
