  0
SECTION
  2
HEADER
  9
$ACADVER
  1
AC1014
  9
$ACADMAINTVER
 70
     0
  9
$DWGCODEPAGE
  3
ANSI_1252
  9
$INSBASE
 10
0.0
 20
0.0
 30
0.0
  9
$EXTMIN
 10
0.0
 20
0.0
 30
0.0
  9
$EXTMAX
 10
205.940277
 20
105.261887
 30
2.0
  9
$LIMMIN
 10
0.0
 20
0.0
  9
$LIMMAX
 10
420.0
 20
297.0
  9
$ORTHOMODE
 70
     0
  9
$REGENMODE
 70
     1
  9
$FILLMODE
 70
     1
  9
$QTEXTMODE
 70
     0
  9
$MIRRTEXT
 70
     1
  9
$DRAGMODE
 70
     2
  9
$LTSCALE
 40
1.0
  9
$OSMODE
 70
     0
  9
$ATTMODE
 70
     1
  9
$TEXTSIZE
 40
2.5
  9
$TRACEWID
 40
1.0
  9
$TEXTSTYLE
  7
STANDARD
  9
$CLAYER
  8
0
  9
$CELTYPE
  6
BYLAYER
  9
$CECOLOR
 62
   256
  9
$CELTSCALE
 40
1.0
  9
$DELOBJ
 70
     1
  9
$DISPSILH
 70
     0
  9
$DIMSCALE
 40
1.0
  9
$DIMASZ
 40
2.5
  9
$DIMEXO
 40
0.625
  9
$DIMDLI
 40
3.75
  9
$DIMRND
 40
0.0
  9
$DIMDLE
 40
0.0
  9
$DIMEXE
 40
1.25
  9
$DIMTP
 40
0.0
  9
$DIMTM
 40
0.0
  9
$DIMTXT
 40
2.5
  9
$DIMCEN
 40
2.5
  9
$DIMTSZ
 40
0.0
  9
$DIMTOL
 70
     0
  9
$DIMLIM
 70
     0
  9
$DIMTIH
 70
     0
  9
$DIMTOH
 70
     0
  9
$DIMSE1
 70
     0
  9
$DIMSE2
 70
     0
  9
$DIMTAD
 70
     1
  9
$DIMZIN
 70
     8
  9
$DIMBLK
  1

  9
$DIMASO
 70
     1
  9
$DIMSHO
 70
     1
  9
$DIMPOST
  1

  9
$DIMAPOST
  1

  9
$DIMALT
 70
     0
  9
$DIMALTD
 70
     3
  9
$DIMALTF
 40
0.03937
  9
$DIMLFAC
 40
1.0
  9
$DIMTOFL
 70
     1
  9
$DIMTVP
 40
0.0
  9
$DIMTIX
 70
     0
  9
$DIMSOXD
 70
     0
  9
$DIMSAH
 70
     0
  9
$DIMBLK1
  1

  9
$DIMBLK2
  1

  9
$DIMSTYLE
  2

  9
$DIMCLRD
 70
     0
  9
$DIMCLRE
 70
     0
  9
$DIMCLRT
 70
     0
  9
$DIMTFAC
 40
1.0
  9
$DIMGAP
 40
0.625
  9
$DIMJUST
 70
     0
  9
$DIMSD1
 70
     0
  9
$DIMSD2
 70
     0
  9
$DIMTOLJ
 70
     0
  9
$DIMTZIN
 70
     8
  9
$DIMALTZ
 70
     0
  9
$DIMALTTZ
 70
     0
  9
$DIMFIT
 70
     0
  9
$DIMUPT
 70
     0
  9
$DIMUNIT
 70
     2
  9
$DIMDEC
 70
     2
  9
$DIMTDEC
 70
     2
  9
$DIMALTU
 70
     2
  9
$DIMALTTD
 70
     3
  9
$DIMTXSTY
  7
STANDARD
  9
$DIMAUNIT
 70
     0
  9
$LUNITS
 70
     2
  9
$LUPREC
 70
     4
  9
$SKETCHINC
 40
1.0
  9
$FILLETRAD
 40
2.5
  9
$AUNITS
 70
     0
  9
$AUPREC
 70
     0
  9
$MENU
  1
.
  9
$ELEVATION
 40
0.0
  9
$PELEVATION
 40
0.0
  9
$THICKNESS
 40
0.0
  9
$LIMCHECK
 70
     0
  9
$BLIPMODE
 70
     1
  9
$CHAMFERA
 40
2.5
  9
$CHAMFERB
 40
2.5
  9
$CHAMFERC
 40
0.0
  9
$CHAMFERD
 40
0.0
  9
$SKPOLY
 70
     0
  9
$TDCREATE
 40
0.000000000
  9
$TDUPDATE
 40
0.000000000
  9
$TDINDWG
 40
0.0000000000
  9
$TDUSRTIMER
 40
0.0000000000
  9
$USRTIMER
 70
     1
  9
$ANGBASE
 50
0.0
  9
$ANGDIR
 70
     0
  9
$PDMODE
 70
     0
  9
$PDSIZE
 40
0.0
  9
$PLINEWID
 40
0.0
  9
$COORDS
 70
     0
  9
$SPLFRAME
 70
     0
  9
$SPLINETYPE
 70
     6
  9
$SPLINESEGS
 70
     8
  9
$ATTDIA
 70
     0
  9
$ATTREQ
 70
     1
  9
$HANDLING
 70
     1
  9
$HANDSEED
  5
9B
  9
$SURFTAB1
 70
     6
  9
$SURFTAB2
 70
     6
  9
$SURFTYPE
 70
     6
  9
$SURFU
 70
     6
  9
$SURFV
 70
     6
  9
$UCSNAME
  2

  9
$UCSORG
 10
0.0
 20
0.0
 30
0.0
  9
$UCSXDIR
 10
1.0
 20
0.0
 30
0.0
  9
$UCSYDIR
 10
0.0
 20
1.0
 30
0.0
  9
$PUCSNAME
  2

  9
$PUCSORG
 10
0.0
 20
0.0
 30
0.0
  9
$PUCSXDIR
 10
1.0
 20
0.0
 30
0.0
  9
$PUCSYDIR
 10
0.0
 20
1.0
 30
0.0
  9
$USERI1
 70
     0
  9
$USERI2
 70
     0
  9
$USERI3
 70
     0
  9
$USERI4
 70
     0
  9
$USERI5
 70
     0
  9
$USERR1
 40
0.0
  9
$USERR2
 40
0.0
  9
$USERR3
 40
0.0
  9
$USERR4
 40
0.0
  9
$USERR5
 40
0.0
  9
$WORLDVIEW
 70
     1
  9
$SHADEDGE
 70
     3
  9
$SHADEDIF
 70
    70
  9
$TILEMODE
 70
     1
  9
$MAXACTVP
 70
    48
  9
$PINSBASE
 10
0.0
 20
0.0
 30
0.0
  9
$PLIMCHECK
 70
     0
  9
$PEXTMIN
 10
0.0
 20
0.0
 30
0.0
  9
$PEXTMAX
 10
205.940277
 20
105.261887
 30
2.0
  9
$PLIMMIN
 10
0.0
 20
0.0
  9
$PLIMMAX
 10
420.0
 20
297.0
  9
$UNITMODE
 70
     0
  9
$VISRETAIN
 70
     0
  9
$PLINEGEN
 70
     0
  9
$PSLTSCALE
 70
     1
  9
$TREEDEPTH
 70
  3020
  9
$PICKSTYLE
 70
     1
  9
$CMLSTYLE
  2
STANDARD
  9
$CMLJUST
 70
     0
  9
$CMLSCALE
 40
20.0
  9
$PROXYGRAPHICS
 70
     1
  9
$MEASUREMENT
 70
     1
  0
ENDSEC
  0
SECTION
  2
CLASSES
  0
CLASS
  1
LWPOLYLINE
  2
AcDbPolyline
  3
"AutoCAD"
 90
        0
280
     0
281
     1
  0
CLASS
  1
IMAGE
  2
AcDbRasterImage
  3
ISM
 90
      127
280
     0
281
     1
  0
CLASS
  1
OLE2FRAME
  2
AcDbOle2Frame
  3
""
 90
        0
280
     0
281
     1
  0
CLASS
  1
HATCH
  2
AcDbHatch
  3
"ACAD_SEDONA"
 90
        0
280
     0
281
     1
  0
CLASS
  1
DICTIONARYVAR
  2
AcDbDictionaryVar
  3
"AutoCAD"
 90
        0
280
     0
281
     0
  0
CLASS
  1
RASTERVARIABLES
  2
AcDbRasterVariables
  3
ISM
 90
        0
280
     0
281
     0
  0
CLASS
  1
IMAGEDEF
  2
AcDbRasterImageDef
  3
ISM
 90
        0
280
     0
281
     0
  0
CLASS
  1
IMAGEDEF_REACTOR
  2
AcDbRasterImageDefReactor
  3
ISM
 90
        1
280
     0
281
     0
  0
CLASS
  1
IDBUFFER
  2
AcDbIdBuffer
  3
"Acad"
 90
        0
280
     0
281
     0
  0
CLASS
  1
SPATIAL_FILTER
  2
AcDbSpatialFilter
  3
"Acad"
 90
        0
280
     0
281
     0
  0
CLASS
  1
XRECORD
  2
AcDbXrecord
  3
"<Built In>"
 90
        0
280
     0
281
     0
  0
CLASS
  1
SORTENTSTABLE
  2
AcDbSortentsTable
  3
"AutoCAD"
 90
        0
280
     0
281
     0
  0
CLASS
  1
LAYER_INDEX
  2
AcDbLayerIndex
  3
"Acad"
 90
        0
280
     0
281
     0
  0
CLASS
  1
SPATIAL_INDEX
  2
AcDbSpatialIndex
  3
"Acad"
 90
        0
280
     0
281
     0
  0
CLASS
  1
OBJECT_PTR
  2
CAseDLPNTableRecord
  3
"ASE-LPNTableRecord"
 90
        1
280
     0
281
     0
  0
CLASS
  1
LAYOUT
  2
AcDbLayout
  3
"AutoCAD 2000"
 90
        0
280
     0
281
     0
  0
CLASS
  1
PLOTSETTINGS
  2
AcDbPlotSettings
  3
"AutoCAD 2000"
 90
        0
280
     0
281
     0
  0
CLASS
  1
ACDBDICTIONARYWDFLT
  2
AcDbDictionaryWithDefault
  3
"AutoCAD 2000"
 90
        0
280
     0
281
     0
  0
CLASS
  1
ACDBPLACEHOLDER
  2
AcDbPlaceHolder
  3
"AutoCAD 2000"
 90
        0
280
     0
281
     0
  0
CLASS
  1
VBA_PROJECT
  2
AcDbVbaProject
  3
"acadvba"
 90
        0
280
     0
281
     0
  0
CLASS
  1
WIPEOUT
  2
AcDbWipeout
  3
WipeOut|AutoCAD Express Tool|expresstools@autodesk.com
 90
      127
280
     0
281
     1
  0
CLASS
  1
WIPEOUTVARIABLES
  2
AcDbWipeoutVariables
  3
WipeOut|AutoCAD Express Tool|expresstools@autodesk.com
 90
        0
280
     0
281
     0
  0
CLASS
  1
RTEXT
  2
RText
  3
RText|AutoCAD Express Tool|expresstools@autodesk.com
 90
        0
280
     0
281
     1
  0
CLASS
  1
ARCALIGNEDTEXT
  2
AcDbArcAlignedText
  3
ATEXT|AutoCAD Express Tool|expresstools@autodesk.com
 90
        0
280
     0
281
     1
  0
ENDSEC
  0
SECTION
  2
TABLES
  0
TABLE
  2
VPORT
  5
7
100
AcDbSymbolTable
 70
     1
  0
VPORT
  5
15
100
AcDbSymbolTableRecord
100
AcDbViewportTableRecord
  2
*ACTIVE
 70
     0
 10
0.0
 20
0.0
 11
1.0
 21
1.0
 12
6.591288
 22
4.579184
 13
0.0
 23
0.0
 14
1.0
 24
1.0
 15
0.0
 25
0.0
 16
0.0
 26
0.0
 36
1.0
 17
0.0
 27
0.0
 37
0.0
 40
9.158369
 41
0.688564
 42
50.0
 43
0.0
 44
0.0
 50
0.0
 51
0.0
 71
     0
 72
   100
 73
     1
 74
     1
 75
     0
 76
     0
 77
     0
 78
     0
  0
ENDTAB
  0
TABLE
  2
LTYPE
  5
4
100
AcDbSymbolTable
 70
    10
  0
LTYPE
  5
11
100
AcDbSymbolTableRecord
100
AcDbLinetypeTableRecord
  2
BYBLOCK
 70
    64
  3

 72
    65
 73
     0
 40
0.0
  0
LTYPE
  5
12
100
AcDbSymbolTableRecord
100
AcDbLinetypeTableRecord
  2
BYLAYER
 70
    64
  3

 72
    65
 73
     0
 40
0.0
  0
LTYPE
  5
13
100
AcDbSymbolTableRecord
100
AcDbLinetypeTableRecord
  2
CONTINUOUS
 70
    64
  3
Solid line
 72
    65
 73
     0
 40
0.0
  0
LTYPE
  5
1D
100
AcDbSymbolTableRecord
100
AcDbLinetypeTableRecord
  2
DASHED
 70
     0
  3
__ __ __ __ __ __ __ __ __ __ __ __ __ __ __ __
 72
    65
 73
     2
 40
15.0
 49
12.0
 74
     0
 49
-3.0
 74
     0
  0
LTYPE
  5
1E
100
AcDbSymbolTableRecord
100
AcDbLinetypeTableRecord
  2
DASHDOT
 70
     0
  3
 __ . __ . __ . __ . __ . __ . __ . 
 72
    65
 73
     4
 40
18.5
 49
12.0
 74
     0
 49
-3.0
 74
     0
 49
0.5
 74
     0
 49
-3.0
 74
     0
  0
LTYPE
  5
1F
100
AcDbSymbolTableRecord
100
AcDbLinetypeTableRecord
  2
DOT
 70
     0
  3
 . . . . . . . . . . . . . . . .
 72
    65
 73
     2
 40
3.5
 49
0.5
 74
     0
 49
-3.0
 74
     0
  0
LTYPE
  5
20
100
AcDbSymbolTableRecord
100
AcDbLinetypeTableRecord
  2
DASHSPACE
 70
     0
  3
__    __    __    __    __   
 72
    65
 73
     2
 40
30.0
 49
12.0
 74
     0
 49
-18.0
 74
     0
  0
LTYPE
  5
21
100
AcDbSymbolTableRecord
100
AcDbLinetypeTableRecord
  2
DASHDOT2
 70
     0
  3
__ . . __ . . __ . . __ 
 72
    65
 73
     6
 40
22.0
 49
12.0
 74
     0
 49
-3.0
 74
     0
 49
0.5
 74
     0
 49
-3.0
 74
     0
 49
0.5
 74
     0
 49
-3.0
 74
     0
  0
LTYPE
  5
22
100
AcDbSymbolTableRecord
100
AcDbLinetypeTableRecord
  2
PHANTOM
 70
     0
  3
____________    ____    ____   _
 72
    65
 73
     6
 40
20.0
 49
10.0
 74
     0
 49
-2.0
 74
     0
 49
2.0
 74
     0
 49
-2.0
 74
     0
 49
2.0
 74
     0
 49
-2.0
 74
     0
  0
LTYPE
  5
23
100
AcDbSymbolTableRecord
100
AcDbLinetypeTableRecord
  2
AXES
 70
     0
  3
________  __  ________  __  _____
 72
    65
 73
     4
 40
24.0
 49
15.0
 74
     0
 49
-3.0
 74
     0
 49
3.0
 74
     0
 49
-3.0
 74
     0
  0
ENDTAB
  0
TABLE
  2
LAYER
  5
2
100
AcDbSymbolTable
 70
     1
  0
LAYER
  5
14
100
AcDbSymbolTableRecord
100
AcDbLayerTableRecord
  2
0
 70
     0
 62
     7
  6
CONTINUOUS
  0
ENDTAB
  0
TABLE
  2
STYLE
  5
3
100
AcDbSymbolTable
 70
     1
  0
STYLE
  5
17
100
AcDbSymbolTableRecord
100
AcDbTextStyleTableRecord
  2
STANDARD
 70
     0
 40
0.0
 41
1.0
 50
0.0
 71
     0
 42
0.0
  3
txt
  4

  0
ENDTAB
  0
TABLE
  2
VIEW
  5
5
100
AcDbSymbolTable
 70
     0
  0
ENDTAB
  0
TABLE
  2
UCS
  5
6
100
AcDbSymbolTable
 70
     0
  0
ENDTAB
  0
TABLE
  2
APPID
  5
8
100
AcDbSymbolTable
 70
     1
  0
APPID
  5
16
100
AcDbSymbolTableRecord
100
AcDbRegAppTableRecord
  2
ACAD
 70
     0
  0
ENDTAB
  0
TABLE
  2
DIMSTYLE
  5
9
100
AcDbSymbolTable
 70
     1
  0
DIMSTYLE
105
18
100
AcDbSymbolTableRecord
100
AcDbDimStyleTableRecord
  2
STANDARD
 70
     0
  3

  4

  5

  6

  7

 40
1.0
 41
0.18
 42
0.0625
 43
0.38
 44
0.18
 45
0.0
 46
0.0
 47
0.0
 48
0.0
 71
     0
 72
     0
 73
     1
 74
     1
 75
     0
 76
     0
 77
     0
 78
     0
140
0.18
141
0.09
142
0.0
143
25.4
144
1.0
145
0.0
146
1.0
147
0.09
170
     0
171
     2
172
     0
173
     0
174
     0
175
     0
176
     0
177
     0
178
     0
270
     2
271
     4
272
     4
273
     2
274
     2
275
     0
280
     0
281
     0
282
     0
283
     1
284
     0
285
     0
286
     0
287
     3
288
     0
340
17
  0
ENDTAB
  0
TABLE
  2
BLOCK_RECORD
  5
1
100
AcDbSymbolTable
 70
     0
  0
BLOCK_RECORD
  5
A
100
AcDbSymbolTableRecord
100
AcDbBlockTableRecord
  2
*MODEL_SPACE
  0
BLOCK_RECORD
  5
B
100
AcDbSymbolTableRecord
100
AcDbBlockTableRecord
  2
*PAPER_SPACE
  0
ENDTAB
  0
ENDSEC
  0
SECTION
  2
BLOCKS
  0
BLOCK
  5
D
100
AcDbEntity
  8
0
100
AcDbBlockBegin
  2
*MODEL_SPACE
 70
     0
 10
0.0
 20
0.0
 30
0.0
  3
*MODEL_SPACE
  1

  0
ENDBLK
  5
E
100
AcDbEntity
  8
0
100
AcDbBlockEnd
  0
BLOCK
  5
F
100
AcDbEntity
 67
     1
  8
0
100
AcDbBlockBegin
  2
*PAPER_SPACE
 70
     0
 10
0.0
 20
0.0
 30
0.0
  3
*PAPER_SPACE
  1

  0
ENDBLK
  5
10
100
AcDbEntity
 67
     1
  8
0
100
AcDbBlockEnd
  0
ENDSEC
  0
SECTION
  2
ENTITIES
  0
VIEWPORT
  5
9A
100
AcDbEntity
 67
     1
  8
0
 62
     0
 48
0.0
100
AcDbViewport
 10
0.0
 20
0.0
 30
0.0
 40
1000.0
 41
1000.0
 68
     1
 69
     1
1001
ACAD
1000
MVIEW
1002
{
1070
    16
1010
0.0
1020
0.0
1030
0.0
1010
0.0
1020
0.0
1030
1.0
1040
0.0
1040
1000.0
1040
0.0
1040
0.0
1040
50.0
1040
0.0
1040
0.0
1070
     0
1070
   100
1070
     1
1070
     1
1070
     0
1070
     0
1070
     0
1070
     0
1040
0.0
1040
0.0
1040
0.0
1040
1.0
1040
1.0
1040
1.0
1040
1.0
1070
     0
1002
{
1002
}
1002
}
  0
CIRCLE
  5
24
100
AcDbEntity
  8
0
 62
     7
100
AcDbCircle
 10
53.094254
 20
37.351166
 30
0.0
 40
1.3
210
0.0
220
0.0
230
1.0
  0
ARC
  5
25
100
AcDbEntity
  8
0
 62
     7
100
AcDbCircle
 10
39.344254
 20
61.166862
 30
0.0
 40
33.5
210
0.0
220
0.0
230
1.0
100
AcDbArc
 50
92.052823
 51
147.94717
  0
LINE
  5
26
100
AcDbEntity
  8
0
 62
     7
 48
0.066963
100
AcDbLine
 10
13.270672
 20
77.606094
 30
0.0
 11
10.951021
 21
78.945343
 31
0.0
210
0.0
220
0.0
230
1.0
  0
LINE
  5
27
100
AcDbEntity
  8
0
 62
     7
 48
0.06
100
AcDbLine
 10
12.070671
 20
75.527634
 30
0.0
 11
13.270672
 21
77.606094
 31
0.0
210
0.0
220
0.0
230
1.0
  0
LINE
  5
28
100
AcDbEntity
  8
0
 62
     7
 48
0.066962
100
AcDbLine
 10
9.751022
 20
76.866882
 30
0.0
 11
12.070671
 21
75.527634
 31
0.0
210
0.0
220
0.0
230
1.0
  0
ARC
  5
29
100
AcDbEntity
  8
0
 62
     7
100
AcDbCircle
 10
39.344254
 20
61.166862
 30
0.0
 40
33.5
210
0.0
220
0.0
230
1.0
100
AcDbArc
 50
152.052825
 51
207.947172
  0
LINE
  5
2A
100
AcDbEntity
  8
0
 62
     7
 48
0.066962
100
AcDbLine
 10
12.070671
 20
46.806091
 30
0.0
 11
9.751022
 21
45.466843
 31
0.0
210
0.0
220
0.0
230
1.0
  0
LINE
  5
2B
100
AcDbEntity
  8
0
 62
     7
 48
0.06
100
AcDbLine
 10
13.270672
 20
44.727631
 30
0.0
 11
12.070671
 21
46.806091
 31
0.0
210
0.0
220
0.0
230
1.0
  0
LINE
  5
2C
100
AcDbEntity
  8
0
 62
     7
 48
0.066963
100
AcDbLine
 10
10.951021
 20
43.388382
 30
0.0
 11
13.270672
 21
44.727631
 31
0.0
210
0.0
220
0.0
230
1.0
  0
ARC
  5
2D
100
AcDbEntity
  8
0
 62
     7
100
AcDbCircle
 10
39.344254
 20
61.166862
 30
0.0
 40
33.5
210
0.0
220
0.0
230
1.0
100
AcDbArc
 50
212.052826
 51
267.947174
  0
LINE
  5
2E
100
AcDbEntity
  8
0
 62
     7
 48
0.066963
100
AcDbLine
 10
38.144253
 20
30.366863
 30
0.0
 11
38.144253
 21
27.688362
 31
0.0
210
0.0
220
0.0
230
1.0
  0
LINE
  5
2F
100
AcDbEntity
  8
0
 62
     7
 48
0.06
100
AcDbLine
 10
40.544254
 20
30.366863
 30
0.0
 11
38.144253
 21
30.366863
 31
0.0
210
0.0
220
0.0
230
1.0
  0
LINE
  5
30
100
AcDbEntity
  8
0
 62
     7
 48
0.066963
100
AcDbLine
 10
40.544254
 20
27.688362
 30
0.0
 11
40.544254
 21
30.366863
 31
0.0
210
0.0
220
0.0
230
1.0
  0
ARC
  5
31
100
AcDbEntity
  8
0
 62
     7
100
AcDbCircle
 10
39.344254
 20
61.166862
 30
0.0
 40
33.5
210
0.0
220
0.0
230
1.0
100
AcDbArc
 50
272.052828
 51
327.947162
  0
LINE
  5
32
100
AcDbEntity
  8
0
 62
     7
 48
0.066963
100
AcDbLine
 10
65.417831
 20
44.727631
 30
0.0
 11
67.737488
 21
43.388382
 31
0.0
210
0.0
220
0.0
230
1.0
  0
LINE
  5
33
100
AcDbEntity
  8
0
 62
     7
 48
0.06
100
AcDbLine
 10
66.617836
 20
46.806091
 30
0.0
 11
65.417831
 21
44.727631
 31
0.0
210
0.0
220
0.0
230
1.0
  0
LINE
  5
34
100
AcDbEntity
  8
0
 62
     7
 48
0.066962
100
AcDbLine
 10
68.937485
 20
45.466843
 30
0.0
 11
66.617836
 21
46.806091
 31
0.0
210
0.0
220
0.0
230
1.0
  0
ARC
  5
35
100
AcDbEntity
  8
0
 62
     7
100
AcDbCircle
 10
39.344254
 20
61.166862
 30
0.0
 40
33.5
210
0.0
220
0.0
230
1.0
100
AcDbArc
 50
332.052816
 51
27.947177
  0
LINE
  5
36
100
AcDbEntity
  8
0
 62
     7
 48
0.066962
100
AcDbLine
 10
66.617836
 20
75.527634
 30
0.0
 11
68.937485
 21
76.866882
 31
0.0
210
0.0
220
0.0
230
1.0
  0
LINE
  5
37
100
AcDbEntity
  8
0
 62
     7
 48
0.06
100
AcDbLine
 10
65.417831
 20
77.606094
 30
0.0
 11
66.617836
 21
75.527634
 31
0.0
210
0.0
220
0.0
230
1.0
  0
LINE
  5
38
100
AcDbEntity
  8
0
 62
     7
 48
0.066963
100
AcDbLine
 10
67.737488
 20
78.945343
 30
0.0
 11
65.417831
 21
77.606094
 31
0.0
210
0.0
220
0.0
230
1.0
  0
ARC
  5
39
100
AcDbEntity
  8
0
 62
     7
100
AcDbCircle
 10
39.344254
 20
61.166862
 30
0.0
 40
33.5
210
0.0
220
0.0
230
1.0
100
AcDbArc
 50
32.052826
 51
87.947175
  0
LINE
  5
3A
100
AcDbEntity
  8
0
 62
     7
 48
0.066963
100
AcDbLine
 10
40.544254
 20
91.966858
 30
0.0
 11
40.544254
 21
94.645363
 31
0.0
210
0.0
220
0.0
230
1.0
  0
LINE
  5
3B
100
AcDbEntity
  8
0
 62
     7
 48
0.06
100
AcDbLine
 10
38.144253
 20
91.966858
 30
0.0
 11
40.544254
 21
91.966858
 31
0.0
210
0.0
220
0.0
230
1.0
  0
LINE
  5
3C
100
AcDbEntity
  8
0
 62
     7
 48
0.066963
100
AcDbLine
 10
38.144253
 20
94.645363
 30
0.0
 11
38.144253
 21
91.966858
 31
0.0
210
0.0
220
0.0
230
1.0
  0
ARC
  5
3D
100
AcDbEntity
  8
0
 62
     7
100
AcDbCircle
 10
15.786982
 20
55.626564
 30
0.0
 40
3.0
210
0.0
220
0.0
230
1.0
100
AcDbArc
 50
125.437379
 51
193.234549
  0
ARC
  5
3E
100
AcDbEntity
  8
0
 62
     7
100
AcDbCircle
 10
11.844254
 20
61.166862
 30
0.0
 40
3.8
210
0.0
220
0.0
230
1.0
100
AcDbArc
 50
305.437371
 51
54.562621
  0
ARC
  5
3F
100
AcDbEntity
  8
0
 62
     7
100
AcDbCircle
 10
15.786982
 20
66.707161
 30
0.0
 40
3.0
210
0.0
220
0.0
230
1.0
100
AcDbArc
 50
166.765448
 51
234.562629
  0
ARC
  5
40
100
AcDbEntity
  8
0
 62
     7
100
AcDbCircle
 10
46.324852
 20
84.338211
 30
0.0
 40
3.0
210
0.0
220
0.0
230
1.0
100
AcDbArc
 50
5.437379
 51
73.234551
  0
ARC
  5
41
100
AcDbEntity
  8
0
 62
     7
100
AcDbCircle
 10
53.094254
 20
84.982559
 30
0.0
 40
3.8
210
0.0
220
0.0
230
1.0
100
AcDbArc
 50
185.437382
 51
294.562617
  0
ARC
  5
42
100
AcDbEntity
  8
0
 62
     7
100
AcDbCircle
 10
55.920929
 20
78.797913
 30
0.0
 40
3.0
210
0.0
220
0.0
230
1.0
100
AcDbArc
 50
46.765448
 51
114.562619
  0
ARC
  5
43
100
AcDbEntity
  8
0
 62
     7
100
AcDbCircle
 10
39.344254
 20
61.166862
 30
0.0
 40
27.200001
210
0.0
220
0.0
230
1.0
100
AcDbArc
 50
313.234552
 51
46.765443
  0
ARC
  5
44
100
AcDbEntity
  8
0
 62
     7
100
AcDbCircle
 10
39.344254
 20
61.166862
 30
0.0
 40
27.200001
210
0.0
220
0.0
230
1.0
100
AcDbArc
 50
73.234551
 51
166.765448
  0
CIRCLE
  5
45
100
AcDbEntity
  8
0
 62
     7
100
AcDbCircle
 10
11.844254
 20
61.166862
 30
0.0
 40
1.3
210
0.0
220
0.0
230
1.0
  0
CIRCLE
  5
46
100
AcDbEntity
  8
0
 62
     7
100
AcDbCircle
 10
53.094254
 20
84.982559
 30
0.0
 40
1.3
210
0.0
220
0.0
230
1.0
  0
ARC
  5
47
100
AcDbEntity
  8
0
 62
     7
100
AcDbCircle
 10
55.920929
 20
43.535812
 30
0.0
 40
3.0
210
0.0
220
0.0
230
1.0
100
AcDbArc
 50
245.437384
 51
313.234552
  0
ARC
  5
48
100
AcDbEntity
  8
0
 62
     7
100
AcDbCircle
 10
46.324852
 20
37.995518
 30
0.0
 40
3.0
210
0.0
220
0.0
230
1.0
100
AcDbArc
 50
286.765438
 51
354.562633
  0
ARC
  5
49
100
AcDbEntity
  8
0
 62
     7
100
AcDbCircle
 10
39.344254
 20
61.166862
 30
0.0
 40
27.200001
210
0.0
220
0.0
230
1.0
100
AcDbArc
 50
193.234549
 51
286.765438
  0
ARC
  5
4A
100
AcDbEntity
  8
0
 62
     7
100
AcDbCircle
 10
53.094254
 20
37.351166
 30
0.0
 40
3.8
210
0.0
220
0.0
230
1.0
100
AcDbArc
 50
65.437379
 51
174.562614
  0
CIRCLE
  5
4B
100
AcDbEntity
  8
0
 62
     7
100
AcDbCircle
 10
108.697372
 20
39.616184
 30
0.0
 40
27.200001
210
0.0
220
0.0
230
1.0
  0
LINE
  5
4C
100
AcDbEntity
  8
0
 62
     7
 48
0.06
100
AcDbLine
 10
107.497375
 20
70.416183
 30
0.0
 11
109.897369
 21
70.416183
 31
0.0
210
0.0
220
0.0
230
1.0
  0
LINE
  5
4D
100
AcDbEntity
  8
0
 62
     7
 48
0.066962
100
AcDbLine
 10
107.497375
 20
73.094681
 30
0.0
 11
107.497375
 21
70.416183
 31
0.0
210
0.0
220
0.0
230
1.0
  0
LINE
  5
4E
100
AcDbEntity
  8
0
 62
     7
 48
0.066962
100
AcDbLine
 10
109.897369
 20
70.416183
 30
0.0
 11
109.897369
 21
73.094681
 31
0.0
210
0.0
220
0.0
230
1.0
  0
ARC
  5
4F
100
AcDbEntity
  8
0
 62
     7
100
AcDbCircle
 10
108.697372
 20
39.616184
 30
0.0
 40
33.5
210
0.0
220
0.0
230
1.0
100
AcDbArc
 50
332.052816
 51
27.947177
  0
ARC
  5
50
100
AcDbEntity
  8
0
 62
     7
100
AcDbCircle
 10
108.697372
 20
39.616184
 30
0.0
 40
33.5
210
0.0
220
0.0
230
1.0
100
AcDbArc
 50
32.052826
 51
87.947175
  0
ARC
  5
51
100
AcDbEntity
  8
0
 62
     7
100
AcDbCircle
 10
108.697372
 20
39.616184
 30
0.0
 40
33.5
210
0.0
220
0.0
230
1.0
100
AcDbArc
 50
152.052825
 51
207.947172
  0
ARC
  5
52
100
AcDbEntity
  8
0
 62
     7
100
AcDbCircle
 10
108.697372
 20
39.616184
 30
0.0
 40
33.5
210
0.0
220
0.0
230
1.0
100
AcDbArc
 50
92.052823
 51
147.94717
  0
LINE
  5
53
100
AcDbEntity
  8
0
 62
     7
 48
0.066963
100
AcDbLine
 10
81.42379
 20
25.255415
 30
0.0
 11
79.104141
 21
23.916164
 31
0.0
210
0.0
220
0.0
230
1.0
  0
LINE
  5
54
100
AcDbEntity
  8
0
 62
     7
 48
0.06
100
AcDbLine
 10
82.623795
 20
23.176954
 30
0.0
 11
81.42379
 21
25.255415
 31
0.0
210
0.0
220
0.0
230
1.0
  0
LINE
  5
55
100
AcDbEntity
  8
0
 62
     7
 48
0.066963
100
AcDbLine
 10
80.304138
 20
21.837704
 30
0.0
 11
82.623795
 21
23.176954
 31
0.0
210
0.0
220
0.0
230
1.0
  0
ARC
  5
56
100
AcDbEntity
  8
0
 62
     7
100
AcDbCircle
 10
108.697372
 20
39.616184
 30
0.0
 40
33.5
210
0.0
220
0.0
230
1.0
100
AcDbArc
 50
212.052826
 51
267.947174
  0
LINE
  5
57
100
AcDbEntity
  8
0
 62
     7
 48
0.066963
100
AcDbLine
 10
107.497375
 20
8.816185
 30
0.0
 11
107.497375
 21
6.137684
 31
0.0
210
0.0
220
0.0
230
1.0
  0
LINE
  5
58
100
AcDbEntity
  8
0
 62
     7
 48
0.06
100
AcDbLine
 10
109.897369
 20
8.816185
 30
0.0
 11
107.497375
 21
8.816185
 31
0.0
210
0.0
220
0.0
230
1.0
  0
LINE
  5
59
100
AcDbEntity
  8
0
 62
     7
 48
0.066963
100
AcDbLine
 10
109.897369
 20
6.137684
 30
0.0
 11
109.897369
 21
8.816185
 31
0.0
210
0.0
220
0.0
230
1.0
  0
ARC
  5
5A
100
AcDbEntity
  8
0
 62
     7
100
AcDbCircle
 10
108.697372
 20
39.616184
 30
0.0
 40
33.5
210
0.0
220
0.0
230
1.0
100
AcDbArc
 50
272.052828
 51
327.947162
  0
LINE
  5
5B
100
AcDbEntity
  8
0
 62
     7
 48
0.066963
100
AcDbLine
 10
134.77095
 20
23.176954
 30
0.0
 11
137.090607
 21
21.837704
 31
0.0
210
0.0
220
0.0
230
1.0
  0
LINE
  5
5C
100
AcDbEntity
  8
0
 62
     7
 48
0.06
100
AcDbLine
 10
135.970947
 20
25.255415
 30
0.0
 11
134.77095
 21
23.176954
 31
0.0
210
0.0
220
0.0
230
1.0
  0
LINE
  5
5D
100
AcDbEntity
  8
0
 62
     7
 48
0.066963
100
AcDbLine
 10
138.290604
 20
23.916164
 30
0.0
 11
135.970947
 21
25.255415
 31
0.0
210
0.0
220
0.0
230
1.0
  0
LINE
  5
5E
100
AcDbEntity
  8
0
 62
     7
 48
0.066963
100
AcDbLine
 10
135.970947
 20
53.976952
 30
0.0
 11
138.290604
 21
55.316204
 31
0.0
210
0.0
220
0.0
230
1.0
  0
LINE
  5
5F
100
AcDbEntity
  8
0
 62
     7
 48
0.06
100
AcDbLine
 10
134.77095
 20
56.055412
 30
0.0
 11
135.970947
 21
53.976952
 31
0.0
210
0.0
220
0.0
230
1.0
  0
LINE
  5
60
100
AcDbEntity
  8
0
 62
     7
 48
0.066963
100
AcDbLine
 10
137.090607
 20
57.394665
 30
0.0
 11
134.77095
 21
56.055412
 31
0.0
210
0.0
220
0.0
230
1.0
  0
LINE
  5
61
100
AcDbEntity
  8
0
 62
     7
 48
0.066963
100
AcDbLine
 10
82.623795
 20
56.055412
 30
0.0
 11
80.304138
 21
57.394665
 31
0.0
210
0.0
220
0.0
230
1.0
  0
LINE
  5
62
100
AcDbEntity
  8
0
 62
     7
 48
0.06
100
AcDbLine
 10
81.42379
 20
53.976952
 30
0.0
 11
82.623795
 21
56.055412
 31
0.0
210
0.0
220
0.0
230
1.0
  0
LINE
  5
63
100
AcDbEntity
  8
0
 62
     7
 48
0.066963
100
AcDbLine
 10
79.104141
 20
55.316204
 30
0.0
 11
81.42379
 21
53.976952
 31
0.0
210
0.0
220
0.0
230
1.0
  0
LINE
  5
64
100
AcDbEntity
  8
0
 62
     7
 48
0.361739
100
AcDbLine
 10
161.145142
 20
88.252998
 30
0.0
 11
146.730652
 21
86.991898
 31
0.0
210
0.0
220
0.0
230
1.0
  0
LINE
  5
65
100
AcDbEntity
  8
0
 62
     7
 48
0.134333
100
AcDbLine
 10
161.145142
 20
88.252998
 30
0.0
 11
162.078201
 21
93.544701
 31
0.0
210
0.0
220
0.0
230
1.0
  0
ARC
  5
66
100
AcDbEntity
  8
0
 62
     7
100
AcDbCircle
 10
160.443085
 20
60.084625
 30
0.0
 40
33.5
210
0.0
220
0.0
230
1.0
100
AcDbArc
 50
132.797702
 51
137.947173
  0
LINE
  5
67
100
AcDbEntity
  8
0
 62
     7
 48
0.141963
100
AcDbLine
 10
139.918396
 20
78.873375
 30
0.0
 11
135.568405
 21
82.523445
 31
0.0
210
0.0
220
0.0
230
1.0
  0
LINE
  5
68
100
AcDbEntity
  8
0
 62
     7
 48
0.06
100
AcDbLine
 10
138.375702
 20
77.034866
 30
0.0
 11
139.918396
 21
78.873375
 31
0.0
210
0.0
220
0.0
230
1.0
  0
LINE
  5
69
100
AcDbEntity
  8
0
 62
     7
 48
0.141962
100
AcDbLine
 10
134.025726
 20
80.684937
 30
0.0
 11
138.375702
 21
77.034866
 31
0.0
210
0.0
220
0.0
230
1.0
  0
ARC
  5
6A
100
AcDbEntity
  8
0
 62
     7
100
AcDbCircle
 10
160.443085
 20
60.084625
 30
0.0
 40
33.5
210
0.0
220
0.0
230
1.0
100
AcDbArc
 50
142.052827
 51
147.202298
  0
LINE
  5
6B
100
AcDbEntity
  8
0
 62
     7
 48
0.440917
100
AcDbLine
 10
145.793854
 20
66.894073
 30
0.0
 11
132.283371
 21
78.230721
 31
0.0
210
0.0
220
0.0
230
1.0
  0
LINE
  5
6C
100
AcDbEntity
  8
0
 62
     7
100
AcDbLine
 10
148.677811
 20
33.930298
 30
0.0
 11
145.793854
 21
66.894073
 31
0.0
210
0.0
220
0.0
230
1.0
  0
LINE
  5
6D
100
AcDbEntity
  8
0
 62
     7
 48
0.071122
100
AcDbLine
 10
151.479477
 20
33.436291
 30
0.0
 11
148.677811
 21
33.930298
 31
0.0
210
0.0
220
0.0
230
1.0
  0
LINE
  5
6E
100
AcDbEntity
  8
0
 62
     7
 48
0.135892
100
AcDbLine
 10
150.535583
 20
28.083199
 30
0.0
 11
151.479477
 21
33.436291
 31
0.0
210
0.0
220
0.0
230
1.0
  0
ARC
  5
6F
100
AcDbEntity
  8
0
 62
     7
100
AcDbCircle
 10
160.443085
 20
60.084625
 30
0.0
 40
33.5
210
0.0
220
0.0
230
1.0
100
AcDbArc
 50
252.797694
 51
257.947174
  0
LINE
  5
70
100
AcDbEntity
  8
0
 62
     7
 48
0.141963
100
AcDbLine
 10
154.433899
 20
32.915348
 30
0.0
 11
153.44783
 21
27.323116
 31
0.0
210
0.0
220
0.0
230
1.0
  0
LINE
  5
71
100
AcDbEntity
  8
0
 62
     7
 48
0.06
100
AcDbLine
 10
156.79744
 20
32.498592
 30
0.0
 11
154.433899
 21
32.915348
 31
0.0
210
0.0
220
0.0
230
1.0
  0
LINE
  5
72
100
AcDbEntity
  8
0
 62
     7
 48
0.141963
100
AcDbLine
 10
155.811371
 20
26.906361
 30
0.0
 11
156.79744
 21
32.498592
 31
0.0
210
0.0
220
0.0
230
1.0
  0
ARC
  5
73
100
AcDbEntity
  8
0
 62
     7
100
AcDbCircle
 10
160.443085
 20
60.084625
 30
0.0
 40
33.5
210
0.0
220
0.0
230
1.0
100
AcDbArc
 50
262.052825
 51
267.202306
  0
LINE
  5
74
100
AcDbEntity
  8
0
 62
     7
 48
0.134333
100
AcDbLine
 10
159.741028
 20
31.916248
 30
0.0
 11
158.807968
 21
26.624554
 31
0.0
210
0.0
220
0.0
230
1.0
  0
LINE
  5
75
100
AcDbEntity
  8
0
 62
     7
 48
0.330637
100
AcDbLine
 10
172.916183
 20
33.068924
 30
0.0
 11
159.741028
 21
31.916248
 31
0.0
210
0.0
220
0.0
230
1.0
  0
LINE
  5
76
100
AcDbEntity
  8
0
 62
     7
 48
0.211942
100
AcDbLine
 10
178.365524
 20
39.563194
 30
0.0
 11
172.916183
 21
33.068924
 31
0.0
210
0.0
220
0.0
230
1.0
  0
LINE
  5
77
100
AcDbEntity
  8
0
 62
     7
 48
0.157884
100
AcDbLine
 10
183.203384
 20
35.503761
 30
0.0
 11
178.365524
 21
39.563194
 31
0.0
210
0.0
220
0.0
230
1.0
  0
ARC
  5
78
100
AcDbEntity
  8
0
 62
     7
100
AcDbCircle
 10
160.443085
 20
60.084625
 30
0.0
 40
33.5
210
0.0
220
0.0
230
1.0
100
AcDbArc
 50
312.797697
 51
317.947175
  0
LINE
  5
79
100
AcDbEntity
  8
0
 62
     7
 48
0.141963
100
AcDbLine
 10
180.967773
 20
41.295876
 30
0.0
 11
185.317764
 21
37.645805
 31
0.0
210
0.0
220
0.0
230
1.0
  0
LINE
  5
7A
100
AcDbEntity
  8
0
 62
     7
 48
0.06
100
AcDbLine
 10
182.510468
 20
43.134384
 30
0.0
 11
180.967773
 21
41.295876
 31
0.0
210
0.0
220
0.0
230
1.0
  0
LINE
  5
7B
100
AcDbEntity
  8
0
 62
     7
 48
0.141962
100
AcDbLine
 10
186.860443
 20
39.484314
 30
0.0
 11
182.510468
 21
43.134384
 31
0.0
210
0.0
220
0.0
230
1.0
  0
ARC
  5
7C
100
AcDbEntity
  8
0
 62
     7
100
AcDbCircle
 10
160.443085
 20
60.084625
 30
0.0
 40
33.5
210
0.0
220
0.0
230
1.0
100
AcDbArc
 50
322.052822
 51
327.202306
  0
LINE
  5
7D
100
AcDbEntity
  8
0
 62
     7
 48
0.29596
100
AcDbLine
 10
179.534042
 20
49.548115
 30
0.0
 11
188.602798
 21
41.938534
 31
0.0
210
0.0
220
0.0
230
1.0
  0
LINE
  5
7E
100
AcDbEntity
  8
0
 62
     7
 48
0.316551
100
AcDbLine
 10
178.430481
 20
62.161953
 30
0.0
 11
179.534042
 21
49.548115
 31
0.0
210
0.0
220
0.0
230
1.0
  0
LINE
  5
7F
100
AcDbEntity
  8
0
 62
     7
 48
0.390564
100
AcDbLine
 10
193.110886
 20
67.505188
 30
0.0
 11
178.430481
 21
62.161953
 31
0.0
210
0.0
220
0.0
230
1.0
  0
ARC
  5
80
100
AcDbEntity
  8
0
 62
     7
100
AcDbCircle
 10
160.443085
 20
60.084625
 30
0.0
 40
33.5
210
0.0
220
0.0
230
1.0
100
AcDbArc
 50
12.797696
 51
17.947168
  0
LINE
  5
81
100
AcDbEntity
  8
0
 62
     7
 48
0.141962
100
AcDbLine
 10
186.976959
 20
68.465157
 30
0.0
 11
192.313004
 21
70.407318
 31
0.0
210
0.0
220
0.0
230
1.0
  0
LINE
  5
82
100
AcDbEntity
  8
0
 62
     7
 48
0.06
100
AcDbLine
 10
186.156113
 20
70.720413
 30
0.0
 11
186.976959
 21
68.465157
 31
0.0
210
0.0
220
0.0
230
1.0
  0
LINE
  5
83
100
AcDbEntity
  8
0
 62
     7
 48
0.141962
100
AcDbLine
 10
191.492157
 20
72.662575
 30
0.0
 11
186.156113
 21
70.720413
 31
0.0
210
0.0
220
0.0
230
1.0
  0
ARC
  5
84
100
AcDbEntity
  8
0
 62
     7
100
AcDbCircle
 10
160.443085
 20
60.084625
 30
0.0
 40
33.5
210
0.0
220
0.0
230
1.0
100
AcDbArc
 50
22.052824
 51
27.202307
  0
LINE
  5
85
100
AcDbEntity
  8
0
 62
     7
 48
0.334295
100
AcDbLine
 10
190.237915
 20
75.398605
 30
0.0
 11
177.672546
 21
70.82518
 31
0.0
210
0.0
220
0.0
230
1.0
  0
LINE
  5
86
100
AcDbEntity
  8
0
 62
     7
 48
0.242993
100
AcDbLine
 10
177.672546
 20
70.82518
 30
0.0
 11
176.825424
 21
80.507912
 31
0.0
210
0.0
220
0.0
230
1.0
  0
LINE
  5
87
100
AcDbEntity
  8
0
 62
     7
 48
0.242111
100
AcDbLine
 10
176.825424
 20
80.507912
 30
0.0
 11
169.406693
 21
86.732956
 31
0.0
210
0.0
220
0.0
230
1.0
  0
LINE
  5
88
100
AcDbEntity
  8
0
 62
     7
 48
0.135892
100
AcDbLine
 10
169.406693
 20
86.732956
 30
0.0
 11
170.350586
 21
92.086052
 31
0.0
210
0.0
220
0.0
230
1.0
  0
ARC
  5
89
100
AcDbEntity
  8
0
 62
     7
100
AcDbCircle
 10
160.443085
 20
60.084625
 30
0.0
 40
33.5
210
0.0
220
0.0
230
1.0
100
AcDbArc
 50
72.797699
 51
77.947171
  0
LINE
  5
8A
100
AcDbEntity
  8
0
 62
     7
 48
0.141962
100
AcDbLine
 10
166.452271
 20
87.253906
 30
0.0
 11
167.438339
 21
92.84613
 31
0.0
210
0.0
220
0.0
230
1.0
  0
LINE
  5
8B
100
AcDbEntity
  8
0
 62
     7
 48
0.06
100
AcDbLine
 10
164.08873
 20
87.670662
 30
0.0
 11
166.452271
 21
87.253906
 31
0.0
210
0.0
220
0.0
230
1.0
  0
LINE
  5
8C
100
AcDbEntity
  8
0
 62
     7
 48
0.141963
100
AcDbLine
 10
165.074799
 20
93.262894
 30
0.0
 11
164.08873
 21
87.670662
 31
0.0
210
0.0
220
0.0
230
1.0
  0
ARC
  5
8D
100
AcDbEntity
  8
0
 62
     7
100
AcDbCircle
 10
160.443085
 20
60.084625
 30
0.0
 40
33.5
210
0.0
220
0.0
230
1.0
100
AcDbArc
 50
82.052825
 51
87.20231
  0
LINE
  5
8E
100
AcDbEntity
  8
0
 62
     7
 48
0.18995
100
AcDbLine
 10
141.846756
 20
81.171509
 30
0.0
 11
146.730652
 21
86.991898
 31
0.0
210
0.0
220
0.0
230
1.0
  0
LINE
  5
8F
100
AcDbEntity
  8
0
 62
     7
 48
0.135892
100
AcDbLine
 10
137.682785
 20
84.665489
 30
0.0
 11
141.846756
 21
81.171509
 31
0.0
210
0.0
220
0.0
230
1.0
  0
LINE
  5
90
100
AcDbEntity
  8
0
 62
     7
100
AcDbLine
 10
153.481918
 20
36.387745
 30
0.0
 11
149.821381
 21
78.227921
 31
0.0
210
0.0
220
0.0
230
1.0
  0
LINE
  5
91
100
AcDbEntity
  8
0
 62
     7
 48
0.025
100
AcDbLine
 10
149.821381
 20
78.227921
 30
0.0
 11
148.82518
 21
78.14077
 31
0.0
210
0.0
220
0.0
230
1.0
  0
LINE
  5
92
100
AcDbEntity
  8
0
 62
     7
 48
0.1
100
AcDbLine
 10
148.82518
 20
78.14077
 30
0.0
 11
148.476563
 21
82.125549
 31
0.0
210
0.0
220
0.0
230
1.0
  0
LINE
  5
93
100
AcDbEntity
  8
0
 62
     7
 48
0.475
100
AcDbLine
 10
148.476563
 20
82.125549
 30
0.0
 11
167.404251
 21
83.781502
 31
0.0
210
0.0
220
0.0
230
1.0
  0
LINE
  5
94
100
AcDbEntity
  8
0
 62
     7
 48
0.1925
100
AcDbLine
 10
167.404251
 20
83.781502
 30
0.0
 11
168.075348
 21
76.110809
 31
0.0
210
0.0
220
0.0
230
1.0
  0
LINE
  5
95
100
AcDbEntity
  8
0
 62
     7
 48
0.1025
100
AcDbLine
 10
168.075348
 20
76.110809
 30
0.0
 11
172.15976
 21
76.468147
 31
0.0
210
0.0
220
0.0
230
1.0
  0
LINE
  5
96
100
AcDbEntity
  8
0
 62
     7
100
AcDbLine
 10
172.15976
 20
76.468147
 30
0.0
 11
174.826721
 21
45.984585
 31
0.0
210
0.0
220
0.0
230
1.0
  0
LINE
  5
97
100
AcDbEntity
  8
0
 62
     7
 48
0.1275
100
AcDbLine
 10
174.826721
 20
45.984585
 30
0.0
 11
169.746124
 21
45.540092
 31
0.0
210
0.0
220
0.0
230
1.0
  0
LINE
  5
98
100
AcDbEntity
  8
0
 62
     7
 48
0.1925
100
AcDbLine
 10
169.746124
 20
45.540092
 30
0.0
 11
170.417221
 21
37.869392
 31
0.0
210
0.0
220
0.0
230
1.0
  0
LINE
  5
99
100
AcDbEntity
  8
0
 62
     7
 48
0.425
100
AcDbLine
 10
170.417221
 20
37.869392
 30
0.0
 11
153.481918
 21
36.387745
 31
0.0
210
0.0
220
0.0
230
1.0
  0
ENDSEC
  0
SECTION
  2
OBJECTS
  0
DICTIONARY
  5
19
100
AcDbDictionary
  3
ACAD_GROUP
350
1A
  3
ACAD_MLINESTYLE
350
1B
  0
DICTIONARY
  5
1A
102
{ACAD_REACTORS
330
19
102
}
100
AcDbDictionary
  0
DICTIONARY
  5
1B
102
{ACAD_REACTORS
330
19
102
}
100
AcDbDictionary
  3
STANDARD
350
1C
  0
MLINESTYLE
  5
1C
102
{ACAD_REACTORS
330
1B
102
}
100
AcDbMlineStyle
  2
STANDARD
 70
     0
  3

 62
     0
 51
90.0
 52
90.0
 71
     2
 49
0.5
 62
   256
  6
BYLAYER
 49
-0.5
 62
   256
  6
BYLAYER
  0
ENDSEC
  0
EOF
