C                                                                       S      1
1H,,1H;,10HSolid Edge,9HPart1.igs,27HBy Siemens PLM Incorporated,26HXPluG      1
s GENERIC/IGES 18.0.17,32,38, 6,308,15,7HUnknown,1.000,2,2HMM,1,1.000,  G      2
15H20151116.234141,1.0e-005,0.00,6HAuthor,5HTitle,11,0,15H20151116.23414G      3
1;                                                                      G      4
     314       1       0       1       0       0       0       000010001D      1
     314       1       0       2       0       0       0               0D      2
     110       3       0       1       0       0       0       000010001D      3
     110       1       0       1       0       0       0               0D      4
     124       4       0       1       0       0       0       000010001D      5
     124       1       0       1       0       0       0               0D      6
     104       5       0       1       0       0       5       000010001D      7
     104       1       0       2       1       0       0               0D      8
     120       7       0       1       0       0       0       000010001D      9
     120       1       0       1       0       0       0               0D     10
     124       8       0       1       0       0       0       000010001D     11
     124       1       0       1       0       0       0               0D     12
     100       9       0       1       0       0      11       000010001D     13
     100       1       0       1       0       0       0               0D     14
     502      10       0       1       0       0       0       000010001D     15
     502       1       0       1       1       0       0               0D     16
     124      11       0       1       0       0       0       000010001D     17
     124       1       0       1       0       0       0               0D     18
     100      12       0       1       0       0      17       000010001D     19
     100       1       0       1       0       0       0               0D     20
     504      13       0       1       0       0       0       000010001D     21
     504       1       0       1       1       0       0               0D     22
     508      14       0       1       0       0       0       000010001D     23
     508       1       0       1       1       0       0               0D     24
     508      15       0       1       0       0       0       000010001D     25
     508       1       0       1       1       0       0               0D     26
     510      16       0       1       0       0       0       000010001D     27
     510       1      -1       1       1       0       0               0D     28
     314      17       0       1       0       0       0       000010001D     29
     314       1       0       2       0       0       0               0D     30
     116      19       0       1       0       0       0       000010001D     31
     116       1       0       1       0       0       0               0D     32
     123      20       0       1       0       0       0       000010201D     33
     123       1       0       1       0       0       0               0D     34
     123      21       0       1       0       0       0       000010201D     35
     123       1       0       1       0       0       0               0D     36
     192      22       0       1       0       0       0       000010001D     37
     192       1       0       1       1       0       0               0D     38
     508      23       0       1       0       0       0       000010001D     39
     508       1       0       1       1       0       0               0D     40
     508      24       0       1       0       0       0       000010001D     41
     508       1       0       1       1       0       0               0D     42
     510      25       0       1       0       0       0       000010001D     43
     510       1     -29       1       1       0       0               0D     44
     314      26       0       1       0       0       0       000010001D     45
     314       1       0       2       0       0       0               0D     46
     116      28       0       1       0       0       0       000010001D     47
     116       1       0       1       0       0       0               0D     48
     123      29       0       1       0       0       0       000010201D     49
     123       1       0       1       0       0       0               0D     50
     123      30       0       1       0       0       0       000010201D     51
     123       1       0       1       0       0       0               0D     52
     190      31       0       1       0       0       0       000010001D     53
     190       1       0       1       1       0       0               0D     54
     508      32       0       1       0       0       0       000010001D     55
     508       1       0       1       1       0       0               0D     56
     510      33       0       1       0       0       0       000010001D     57
     510       1     -45       1       1       0       0               0D     58
     514      34       0       1       0       0       0       000010001D     59
     514       1       0       1       1       0       0               0D     60
     186      35       0       1       0       0       0       000000001D     61
     186       1       0       1       0       0       0               0D     62
314,50.58823823928833,52.9411792755127,54.90196347236633,10HMixe       1P      1
dColor;                                                                1P      2
110,0.,0.,-5.77044308357355,0.,0.,-1005.7704430835735;                 3P      3
124,-0.,1.,0.,0.,0.,0.,-1.,0.,-1.,-0.,0.,233.;                         5P      4
104,0.000000001156,0.,0.000000010404,0.,0.,-0.000012027024,0.,         7P      5
-0.00000000000003,34.,-102.00000000000001,-0.00000000000007;           7P      6
120,3,7,0.,6.28318530717959;                                           9P      7
124,1.,0.,0.,0.,0.,-1.,0.,0.,0.,0.,-1.,233.;                          11P      8
100,0.,0.,0.,34.,0.,34.,-0.00000000000001;                            13P      9
502,3,34.,0.,0.,34.,0.,233.,0.00000000000005,0.,335.;                 15P     10
124,1.,0.,0.,0.,0.,-1.,0.,0.,0.,0.,-1.,0.;                            17P     11
100,0.,0.,0.,34.,0.,34.,-0.00000000000001;                            19P     12
504,2,13,15,2,15,2,19,15,1,15,1;                                      21P     13
508,1,0,21,1,0,0;                                                     23P     14
508,1,1,15,3,1,0;                                                     25P     15
510,9,2,1,23,25;                                                      27P     16
314,50.58823823928833,52.9411792755127,54.90196347236633,10HMixe      29P     17
dColor;                                                               29P     18
116,0.,0.,233.;                                                       31P     19
123,0.,0.,1.;                                                         33P     20
123,-1.,0.,0.;                                                        35P     21
192,31,33,34.,35;                                                     37P     22
508,1,0,21,2,0,0;                                                     39P     23
508,1,0,21,1,1,0;                                                     41P     24
510,37,2,1,39,41;                                                     43P     25
314,50.58823823928833,52.9411792755127,54.90196347236633,10HMixe      45P     26
dColor;                                                               45P     27
116,0.,0.,0.;                                                         47P     28
123,0.,0.,-1.;                                                        49P     29
123,-1.,0.,0.;                                                        51P     30
190,47,49,51;                                                         53P     31
508,1,0,21,2,1,0;                                                     55P     32
510,53,1,1,55;                                                        57P     33
514,3,27,1,43,1,57,1;                                                 59P     34
186,59,1,0;                                                           61P     35
S      1G      4D     62P     35                                        T      1
